%TF.GenerationSoftware,KiCad,Pcbnew,9.0.8+dfsg-1*%
%TF.CreationDate,2026-09-08T22:48:26+05:30*%
%TF.ProjectId,smove-r2-main,736d6f76-652d-4723-922d-6d61696e2e6b,rev?*%
%TF.SameCoordinates,Original*%
%TF.FileFunction,Copper,L1,Top*%
%TF.FilePolarity,Positive*%
%FSLAX46Y46*%
G04 Gerber Fmt 4.6, Leading zero omitted, Abs format (unit mm)*
G04 Created by KiCad (PCBNEW 9.0.8+dfsg-1) date 2026-09-08 22:48:26*
%MOMM*%
%LPD*%
G01*
G04 APERTURE LIST*
G04 Aperture macros list*
%AMRoundRect*
0 Rectangle with rounded corners*
0 $1 Rounding radius*
0 $2 $3 $4 $5 $6 $7 $8 $9 X,Y pos of 4 corners*
0 Add a 4 corners polygon primitive as box body*
4,1,4,$2,$3,$4,$5,$6,$7,$8,$9,$2,$3,0*
0 Add four circle primitives for the rounded corners*
1,1,$1+$1,$2,$3*
1,1,$1+$1,$4,$5*
1,1,$1+$1,$6,$7*
1,1,$1+$1,$8,$9*
0 Add four rect primitives between the rounded corners*
20,1,$1+$1,$2,$3,$4,$5,0*
20,1,$1+$1,$4,$5,$6,$7,0*
20,1,$1+$1,$6,$7,$8,$9,0*
20,1,$1+$1,$8,$9,$2,$3,0*%
%AMFreePoly0*
4,1,6,0.725000,-0.725000,-0.725000,-0.725000,-0.725000,0.125000,-0.125000,0.725000,0.725000,0.725000,0.725000,-0.725000,0.725000,-0.725000,$1*%
G04 Aperture macros list end*
%TA.AperFunction,SMDPad,CuDef*%
%ADD10RoundRect,0.135000X0.185000X-0.135000X0.185000X0.135000X-0.185000X0.135000X-0.185000X-0.135000X0*%
%TD*%
%TA.AperFunction,SMDPad,CuDef*%
%ADD11RoundRect,0.150000X-0.150000X0.512500X-0.150000X-0.512500X0.150000X-0.512500X0.150000X0.512500X0*%
%TD*%
%TA.AperFunction,SMDPad,CuDef*%
%ADD12RoundRect,0.157500X0.842500X-0.367500X0.842500X0.367500X-0.842500X0.367500X-0.842500X-0.367500X0*%
%TD*%
%TA.AperFunction,SMDPad,CuDef*%
%ADD13RoundRect,0.140000X0.170000X-0.140000X0.170000X0.140000X-0.170000X0.140000X-0.170000X-0.140000X0*%
%TD*%
%TA.AperFunction,SMDPad,CuDef*%
%ADD14RoundRect,0.140000X-0.170000X0.140000X-0.170000X-0.140000X0.170000X-0.140000X0.170000X0.140000X0*%
%TD*%
%TA.AperFunction,SMDPad,CuDef*%
%ADD15R,0.650000X0.850000*%
%TD*%
%TA.AperFunction,SMDPad,CuDef*%
%ADD16RoundRect,0.050000X-0.050000X0.225000X-0.050000X-0.225000X0.050000X-0.225000X0.050000X0.225000X0*%
%TD*%
%TA.AperFunction,SMDPad,CuDef*%
%ADD17RoundRect,0.050000X-0.225000X-0.050000X0.225000X-0.050000X0.225000X0.050000X-0.225000X0.050000X0*%
%TD*%
%TA.AperFunction,SMDPad,CuDef*%
%ADD18RoundRect,0.140000X0.140000X0.170000X-0.140000X0.170000X-0.140000X-0.170000X0.140000X-0.170000X0*%
%TD*%
%TA.AperFunction,SMDPad,CuDef*%
%ADD19RoundRect,0.135000X-0.135000X-0.185000X0.135000X-0.185000X0.135000X0.185000X-0.135000X0.185000X0*%
%TD*%
%TA.AperFunction,SMDPad,CuDef*%
%ADD20R,1.450000X0.600000*%
%TD*%
%TA.AperFunction,SMDPad,CuDef*%
%ADD21R,1.450000X0.300000*%
%TD*%
%TA.AperFunction,HeatsinkPad*%
%ADD22O,2.100000X1.000000*%
%TD*%
%TA.AperFunction,HeatsinkPad*%
%ADD23O,1.600000X1.000000*%
%TD*%
%TA.AperFunction,SMDPad,CuDef*%
%ADD24RoundRect,0.045000X-0.105000X0.380000X-0.105000X-0.380000X0.105000X-0.380000X0.105000X0.380000X0*%
%TD*%
%TA.AperFunction,SMDPad,CuDef*%
%ADD25RoundRect,0.250000X0.250000X0.475000X-0.250000X0.475000X-0.250000X-0.475000X0.250000X-0.475000X0*%
%TD*%
%TA.AperFunction,SMDPad,CuDef*%
%ADD26RoundRect,0.250000X-0.250000X-1.500000X0.250000X-1.500000X0.250000X1.500000X-0.250000X1.500000X0*%
%TD*%
%TA.AperFunction,SMDPad,CuDef*%
%ADD27RoundRect,0.250001X-0.499999X-1.449999X0.499999X-1.449999X0.499999X1.449999X-0.499999X1.449999X0*%
%TD*%
%TA.AperFunction,SMDPad,CuDef*%
%ADD28RoundRect,0.150000X-0.512500X-0.150000X0.512500X-0.150000X0.512500X0.150000X-0.512500X0.150000X0*%
%TD*%
%TA.AperFunction,SMDPad,CuDef*%
%ADD29RoundRect,0.225000X-0.225000X-0.250000X0.225000X-0.250000X0.225000X0.250000X-0.225000X0.250000X0*%
%TD*%
%TA.AperFunction,SMDPad,CuDef*%
%ADD30RoundRect,0.225000X-0.250000X0.225000X-0.250000X-0.225000X0.250000X-0.225000X0.250000X0.225000X0*%
%TD*%
%TA.AperFunction,SMDPad,CuDef*%
%ADD31R,0.800000X0.400000*%
%TD*%
%TA.AperFunction,SMDPad,CuDef*%
%ADD32R,0.400000X0.800000*%
%TD*%
%TA.AperFunction,SMDPad,CuDef*%
%ADD33FreePoly0,0.000000*%
%TD*%
%TA.AperFunction,SMDPad,CuDef*%
%ADD34R,1.450000X1.450000*%
%TD*%
%TA.AperFunction,SMDPad,CuDef*%
%ADD35R,0.700000X0.700000*%
%TD*%
%TA.AperFunction,SMDPad,CuDef*%
%ADD36RoundRect,0.250000X0.475000X-0.250000X0.475000X0.250000X-0.475000X0.250000X-0.475000X-0.250000X0*%
%TD*%
%TA.AperFunction,SMDPad,CuDef*%
%ADD37RoundRect,0.135000X0.135000X0.185000X-0.135000X0.185000X-0.135000X-0.185000X0.135000X-0.185000X0*%
%TD*%
%TA.AperFunction,SMDPad,CuDef*%
%ADD38RoundRect,0.150000X0.150000X-0.587500X0.150000X0.587500X-0.150000X0.587500X-0.150000X-0.587500X0*%
%TD*%
%TA.AperFunction,SMDPad,CuDef*%
%ADD39RoundRect,0.036000X-0.264000X-0.084000X0.264000X-0.084000X0.264000X0.084000X-0.264000X0.084000X0*%
%TD*%
%TA.AperFunction,SMDPad,CuDef*%
%ADD40RoundRect,0.036000X-0.084000X-0.264000X0.084000X-0.264000X0.084000X0.264000X-0.084000X0.264000X0*%
%TD*%
%TA.AperFunction,SMDPad,CuDef*%
%ADD41RoundRect,0.252000X-0.588000X-0.588000X0.588000X-0.588000X0.588000X0.588000X-0.588000X0.588000X0*%
%TD*%
%TA.AperFunction,SMDPad,CuDef*%
%ADD42RoundRect,0.140000X-0.140000X-0.170000X0.140000X-0.170000X0.140000X0.170000X-0.140000X0.170000X0*%
%TD*%
%TA.AperFunction,ViaPad*%
%ADD43C,0.600000*%
%TD*%
%TA.AperFunction,ViaPad*%
%ADD44C,0.450000*%
%TD*%
%TA.AperFunction,Conductor*%
%ADD45C,0.200000*%
%TD*%
%TA.AperFunction,Conductor*%
%ADD46C,0.150000*%
%TD*%
G04 APERTURE END LIST*
D10*
%TO.P,R9,1*%
%TO.N,/3V3_MAIN*%
X23000000Y27990000D03*
%TO.P,R9,2*%
%TO.N,/Compute/STRAP2*%
X23000000Y29010000D03*
%TD*%
D11*
%TO.P,U5,1*%
%TO.N,/3V3_MAIN*%
X3950000Y19887500D03*
%TO.P,U5,2*%
%TO.N,GND*%
X3000000Y19887500D03*
%TO.P,U5,3*%
%TO.N,/3V3_MAIN*%
X2050000Y19887500D03*
%TO.P,U5,4*%
%TO.N,unconnected-(U5-NC-Pad4)*%
X2050000Y17612500D03*
%TO.P,U5,5*%
%TO.N,/IMU/1V8_IMU*%
X3950000Y17612500D03*
%TD*%
D12*
%TO.P,SW2,1*%
%TO.N,/Compute/MCU_EN*%
X21500000Y7575000D03*
%TO.P,SW2,2*%
%TO.N,GND*%
X21500000Y12025000D03*
%TD*%
D10*
%TO.P,R4,1*%
%TO.N,/USB_DP*%
X23000000Y25740000D03*
%TO.P,R4,2*%
%TO.N,/Compute/USB_DP_MCU*%
X23000000Y26760000D03*
%TD*%
D13*
%TO.P,C10,1*%
%TO.N,/Compute/MCU_EN*%
X7250000Y19770000D03*
%TO.P,C10,2*%
%TO.N,GND*%
X7250000Y20730000D03*
%TD*%
D10*
%TO.P,R17,1*%
%TO.N,/IMU/1V8_IMU*%
X7250000Y10490000D03*
%TO.P,R17,2*%
%TO.N,/IMU/SDA_1V8*%
X7250000Y11510000D03*
%TD*%
D14*
%TO.P,C8,1*%
%TO.N,/IMU/1V8_IMU*%
X9750000Y19980000D03*
%TO.P,C8,2*%
%TO.N,GND*%
X9750000Y19020000D03*
%TD*%
D15*
%TO.P,D1,1*%
%TO.N,/Compute/LED_R_K*%
X19575000Y5725000D03*
%TO.P,D1,2*%
%TO.N,/Compute/LED_G_K*%
X20425000Y5725000D03*
%TO.P,D1,3*%
%TO.N,/Compute/LED_B_K*%
X20425000Y4275000D03*
%TO.P,D1,4*%
%TO.N,/3V3_MAIN*%
X19575000Y4275000D03*
%TD*%
D16*
%TO.P,U2,1*%
%TO.N,unconnected-(U2-NC-Pad1)*%
X13500000Y19000000D03*
%TO.P,U2,2*%
%TO.N,unconnected-(U2-NC-Pad2)*%
X13100000Y19000000D03*
%TO.P,U2,3*%
%TO.N,unconnected-(U2-NC-Pad3)*%
X12700000Y19000000D03*
%TO.P,U2,4*%
%TO.N,unconnected-(U2-NC-Pad4)*%
X12300000Y19000000D03*
%TO.P,U2,5*%
%TO.N,unconnected-(U2-NC-Pad5)*%
X11900000Y19000000D03*
%TO.P,U2,6*%
%TO.N,unconnected-(U2-NC-Pad6)*%
X11500000Y19000000D03*
D17*
%TO.P,U2,7*%
%TO.N,unconnected-(U2-AUX_CL-Pad7)*%
X11000000Y18500000D03*
%TO.P,U2,8*%
%TO.N,/IMU/1V8_IMU*%
X11000000Y18100000D03*
%TO.P,U2,9*%
%TO.N,GND*%
X11000000Y17700000D03*
%TO.P,U2,10*%
%TO.N,/IMU/IMU_REGOUT*%
X11000000Y17300000D03*
%TO.P,U2,11*%
%TO.N,GND*%
X11000000Y16900000D03*
%TO.P,U2,12*%
%TO.N,unconnected-(U2-INT1-Pad12)*%
X11000000Y16500000D03*
D16*
%TO.P,U2,13*%
%TO.N,/IMU/1V8_IMU*%
X11500000Y16000000D03*
%TO.P,U2,14*%
%TO.N,unconnected-(U2-NC-Pad14)*%
X11900000Y16000000D03*
%TO.P,U2,15*%
%TO.N,unconnected-(U2-NC-Pad15)*%
X12300000Y16000000D03*
%TO.P,U2,16*%
%TO.N,unconnected-(U2-NC-Pad16)*%
X12700000Y16000000D03*
%TO.P,U2,17*%
%TO.N,unconnected-(U2-NC-Pad17)*%
X13100000Y16000000D03*
%TO.P,U2,18*%
%TO.N,GND*%
X13500000Y16000000D03*
D17*
%TO.P,U2,19*%
%TO.N,unconnected-(U2-RESV_NC-Pad19)*%
X14000000Y16500000D03*
%TO.P,U2,20*%
%TO.N,GND*%
X14000000Y16900000D03*
%TO.P,U2,21*%
%TO.N,unconnected-(U2-AUX_DA-Pad21)*%
X14000000Y17300000D03*
%TO.P,U2,22*%
%TO.N,/IMU/1V8_IMU*%
X14000000Y17700000D03*
%TO.P,U2,23*%
%TO.N,/IMU/SCL_1V8*%
X14000000Y18100000D03*
%TO.P,U2,24*%
%TO.N,/IMU/SDA_1V8*%
X14000000Y18500000D03*
%TD*%
D18*
%TO.P,C4,1*%
%TO.N,/3V3_MAIN*%
X6230000Y27000000D03*
%TO.P,C4,2*%
%TO.N,GND*%
X5270000Y27000000D03*
%TD*%
D19*
%TO.P,R5,1*%
%TO.N,/3V3_MAIN*%
X12490000Y13500000D03*
%TO.P,R5,2*%
%TO.N,/USB_POWER_N*%
X13510000Y13500000D03*
%TD*%
D20*
%TO.P,J1,A1*%
%TO.N,GND*%
X17055000Y14950000D03*
%TO.P,J1,A4*%
%TO.N,/VBUS*%
X17055000Y15750000D03*
D21*
%TO.P,J1,A5*%
%TO.N,/USB/CC1*%
X17055000Y16950000D03*
%TO.P,J1,A6*%
%TO.N,/USB_DP*%
X17055000Y17950000D03*
%TO.P,J1,A7*%
%TO.N,/USB_DM*%
X17055000Y18450000D03*
%TO.P,J1,A8*%
%TO.N,unconnected-(J1-SBU1-PadA8)*%
X17055000Y19450000D03*
D20*
%TO.P,J1,A9*%
%TO.N,/VBUS*%
X17055000Y20650000D03*
%TO.P,J1,A12*%
%TO.N,GND*%
X17055000Y21450000D03*
%TO.P,J1,B1*%
X17055000Y21450000D03*
%TO.P,J1,B4*%
%TO.N,/VBUS*%
X17055000Y20650000D03*
D21*
%TO.P,J1,B5*%
%TO.N,/USB/CC2*%
X17055000Y19950000D03*
%TO.P,J1,B6*%
%TO.N,/USB_DP*%
X17055000Y18950000D03*
%TO.P,J1,B7*%
%TO.N,/USB_DM*%
X17055000Y17450000D03*
%TO.P,J1,B8*%
%TO.N,unconnected-(J1-SBU2-PadB8)*%
X17055000Y16450000D03*
D20*
%TO.P,J1,B9*%
%TO.N,/VBUS*%
X17055000Y15750000D03*
%TO.P,J1,B12*%
%TO.N,GND*%
X17055000Y14950000D03*
D22*
%TO.P,J1,S1*%
X17970000Y13880000D03*
D23*
X22150000Y13880000D03*
D22*
X17970000Y22520000D03*
D23*
X22150000Y22520000D03*
%TD*%
D14*
%TO.P,C7,1*%
%TO.N,/IMU/1V8_IMU*%
X11250000Y14730000D03*
%TO.P,C7,2*%
%TO.N,GND*%
X11250000Y13770000D03*
%TD*%
D19*
%TO.P,R23,1*%
%TO.N,/Power/TS_NO_CELL_SENSING*%
X740000Y10500000D03*
%TO.P,R23,2*%
%TO.N,GND*%
X1760000Y10500000D03*
%TD*%
D24*
%TO.P,U3,1*%
%TO.N,GND*%
X6000000Y15050000D03*
%TO.P,U3,2*%
%TO.N,/IMU/1V8_IMU*%
X5500000Y15050000D03*
%TO.P,U3,3*%
%TO.N,/IMU/SCL_1V8*%
X5000000Y15050000D03*
%TO.P,U3,4*%
%TO.N,/IMU/SDA_1V8*%
X4500000Y15050000D03*
%TO.P,U3,5*%
%TO.N,/SDA_HOST*%
X4500000Y11950000D03*
%TO.P,U3,6*%
%TO.N,/SCL_HOST*%
X5000000Y11950000D03*
%TO.P,U3,7*%
%TO.N,/IMU/I2C_BIAS*%
X5500000Y11950000D03*
%TO.P,U3,8*%
X6000000Y11950000D03*
%TD*%
D18*
%TO.P,C9,1*%
%TO.N,/IMU/IMU_REGOUT*%
X9730000Y17250000D03*
%TO.P,C9,2*%
%TO.N,GND*%
X8770000Y17250000D03*
%TD*%
D19*
%TO.P,R3,1*%
%TO.N,/USB_DM*%
X21740000Y24500000D03*
%TO.P,R3,2*%
%TO.N,/Compute/USB_DM_MCU*%
X22760000Y24500000D03*
%TD*%
%TO.P,R18,1*%
%TO.N,/3V3_MAIN*%
X7490000Y18500000D03*
%TO.P,R18,2*%
%TO.N,/SCL_HOST*%
X8510000Y18500000D03*
%TD*%
%TO.P,R2,1*%
%TO.N,/USB/CC2*%
X17740000Y12000000D03*
%TO.P,R2,2*%
%TO.N,GND*%
X18760000Y12000000D03*
%TD*%
D10*
%TO.P,R15,1*%
%TO.N,/BAT_ADC*%
X10750000Y21740000D03*
%TO.P,R15,2*%
%TO.N,GND*%
X10750000Y22760000D03*
%TD*%
D25*
%TO.P,C3,1*%
%TO.N,/3V3_MAIN*%
X3700000Y26750000D03*
%TO.P,C3,2*%
%TO.N,GND*%
X1800000Y26750000D03*
%TD*%
D10*
%TO.P,R7,1*%
%TO.N,/3V3_MAIN*%
X2750000Y13240000D03*
%TO.P,R7,2*%
%TO.N,/Compute/MCU_EN*%
X2750000Y14260000D03*
%TD*%
D26*
%TO.P,J2,1*%
%TO.N,/Power/PACK_P*%
X11500000Y10050000D03*
%TO.P,J2,2*%
%TO.N,GND*%
X13500000Y10050000D03*
D27*
%TO.P,J2,MP*%
X9150000Y4300000D03*
X15850000Y4300000D03*
%TD*%
D28*
%TO.P,U4,1*%
%TO.N,/Power/SYS*%
X1862500Y24700000D03*
%TO.P,U4,2*%
%TO.N,GND*%
X1862500Y23750000D03*
%TO.P,U4,3*%
%TO.N,/Power/SYS*%
X1862500Y22800000D03*
%TO.P,U4,4*%
%TO.N,unconnected-(U4-NC-Pad4)*%
X4137500Y22800000D03*
%TO.P,U4,5*%
%TO.N,/3V3_MAIN*%
X4137500Y24700000D03*
%TD*%
D10*
%TO.P,R8,1*%
%TO.N,/3V3_MAIN*%
X21750000Y25740000D03*
%TO.P,R8,2*%
%TO.N,Net-(U1-GPIO9_{slash}_BOOT)*%
X21750000Y26760000D03*
%TD*%
D29*
%TO.P,C5,1*%
%TO.N,/3V3_MAIN*%
X1225000Y15750000D03*
%TO.P,C5,2*%
%TO.N,GND*%
X2775000Y15750000D03*
%TD*%
D30*
%TO.P,C6,1*%
%TO.N,/IMU/1V8_IMU*%
X5750000Y19525000D03*
%TO.P,C6,2*%
%TO.N,GND*%
X5750000Y17975000D03*
%TD*%
D31*
%TO.P,U1,1*%
%TO.N,GND*%
X8300000Y33400000D03*
%TO.P,U1,2*%
X8300000Y32600000D03*
%TO.P,U1,3*%
%TO.N,/3V3_MAIN*%
X8300000Y31800000D03*
%TO.P,U1,4*%
%TO.N,unconnected-(U1-NC-Pad4)*%
X8300000Y31000000D03*
%TO.P,U1,5*%
%TO.N,/Compute/STRAP2*%
X8300000Y30200000D03*
%TO.P,U1,6*%
%TO.N,unconnected-(U1-GPIO3-Pad6)*%
X8300000Y29400000D03*
%TO.P,U1,7*%
%TO.N,unconnected-(U1-NC-Pad7)*%
X8300000Y28600000D03*
%TO.P,U1,8*%
%TO.N,/Compute/MCU_EN*%
X8300000Y27800000D03*
%TO.P,U1,9*%
%TO.N,unconnected-(U1-NC-Pad9)*%
X8300000Y27000000D03*
%TO.P,U1,10*%
%TO.N,unconnected-(U1-NC-Pad10)*%
X8300000Y26200000D03*
%TO.P,U1,11*%
%TO.N,GND*%
X8300000Y25400000D03*
D32*
%TO.P,U1,12*%
%TO.N,/BAT_ADC*%
X9400000Y24500000D03*
%TO.P,U1,13*%
%TO.N,/USB_POWER_N*%
X10200000Y24500000D03*
%TO.P,U1,14*%
%TO.N,GND*%
X11000000Y24500000D03*
%TO.P,U1,15*%
%TO.N,unconnected-(U1-NC-Pad15)*%
X11800000Y24500000D03*
%TO.P,U1,16*%
%TO.N,/Compute/LED_B*%
X12600000Y24500000D03*
%TO.P,U1,17*%
%TO.N,unconnected-(U1-NC-Pad17)*%
X13400000Y24500000D03*
%TO.P,U1,18*%
%TO.N,/SCL_HOST*%
X14200000Y24500000D03*
%TO.P,U1,19*%
%TO.N,/SDA_HOST*%
X15000000Y24500000D03*
%TO.P,U1,20*%
%TO.N,/Compute/LED_R*%
X15800000Y24500000D03*
%TO.P,U1,21*%
%TO.N,/Compute/LED_G*%
X16600000Y24500000D03*
%TO.P,U1,22*%
%TO.N,/Compute/STRAP8*%
X17400000Y24500000D03*
%TO.P,U1,23*%
%TO.N,Net-(U1-GPIO9_{slash}_BOOT)*%
X18200000Y24500000D03*
%TO.P,U1,24*%
%TO.N,unconnected-(U1-NC-Pad24)*%
X19000000Y24500000D03*
D31*
%TO.P,U1,25*%
%TO.N,unconnected-(U1-NC-Pad25)*%
X20100000Y25400000D03*
%TO.P,U1,26*%
%TO.N,/Compute/USB_DM_MCU*%
X20100000Y26200000D03*
%TO.P,U1,27*%
%TO.N,/Compute/USB_DP_MCU*%
X20100000Y27000000D03*
%TO.P,U1,28*%
%TO.N,unconnected-(U1-NC-Pad28)*%
X20100000Y27800000D03*
%TO.P,U1,29*%
%TO.N,unconnected-(U1-NC-Pad29)*%
X20100000Y28600000D03*
%TO.P,U1,30*%
%TO.N,unconnected-(U1-GPIO20_{slash}_RX-Pad30)*%
X20100000Y29400000D03*
%TO.P,U1,31*%
%TO.N,unconnected-(U1-GPIO21_{slash}_TX-Pad31)*%
X20100000Y30200000D03*
%TO.P,U1,32*%
%TO.N,unconnected-(U1-NC-Pad32)*%
X20100000Y31000000D03*
%TO.P,U1,33*%
%TO.N,unconnected-(U1-NC-Pad33)*%
X20100000Y31800000D03*
%TO.P,U1,34*%
%TO.N,unconnected-(U1-NC-Pad34)*%
X20100000Y32600000D03*
%TO.P,U1,35*%
%TO.N,unconnected-(U1-NC-Pad35)*%
X20100000Y33400000D03*
D32*
%TO.P,U1,36*%
%TO.N,GND*%
X19000000Y34300000D03*
%TO.P,U1,37*%
X18200000Y34300000D03*
%TO.P,U1,38*%
X17400000Y34300000D03*
%TO.P,U1,39*%
X16600000Y34300000D03*
%TO.P,U1,40*%
X15800000Y34300000D03*
%TO.P,U1,41*%
X15000000Y34300000D03*
%TO.P,U1,42*%
X14200000Y34300000D03*
%TO.P,U1,43*%
X13400000Y34300000D03*
%TO.P,U1,44*%
X12600000Y34300000D03*
%TO.P,U1,45*%
X11800000Y34300000D03*
%TO.P,U1,46*%
X11000000Y34300000D03*
%TO.P,U1,47*%
X10200000Y34300000D03*
%TO.P,U1,48*%
X9400000Y34300000D03*
D33*
%TO.P,U1,49*%
X12225000Y31375000D03*
D34*
X12225000Y29400000D03*
X12225000Y27425000D03*
X14200000Y31375000D03*
X14200000Y29400000D03*
X14200000Y27425000D03*
X16175000Y31375000D03*
X16175000Y29400000D03*
X16175000Y27425000D03*
D35*
%TO.P,U1,50*%
X20150000Y34350000D03*
%TO.P,U1,51*%
X20150000Y24450000D03*
%TO.P,U1,52*%
X8250000Y24450000D03*
%TO.P,U1,53*%
X8250000Y34350000D03*
%TD*%
D29*
%TO.P,C1,1*%
%TO.N,/VBUS*%
X1975000Y5000000D03*
%TO.P,C1,2*%
%TO.N,GND*%
X3525000Y5000000D03*
%TD*%
D10*
%TO.P,R10,1*%
%TO.N,/3V3_MAIN*%
X8500000Y19990000D03*
%TO.P,R10,2*%
%TO.N,/Compute/STRAP8*%
X8500000Y21010000D03*
%TD*%
D36*
%TO.P,C13,1*%
%TO.N,/Power/SYS*%
X6250000Y23550000D03*
%TO.P,C13,2*%
%TO.N,GND*%
X6250000Y25450000D03*
%TD*%
D10*
%TO.P,R13,1*%
%TO.N,/Compute/LED_B*%
X17750000Y9490000D03*
%TO.P,R13,2*%
%TO.N,/Compute/LED_B_K*%
X17750000Y10510000D03*
%TD*%
D37*
%TO.P,R22,1*%
%TO.N,/Power/CHG_ILIM*%
X6260000Y5500000D03*
%TO.P,R22,2*%
%TO.N,GND*%
X5240000Y5500000D03*
%TD*%
D10*
%TO.P,R20,1*%
%TO.N,/3V3_MAIN*%
X1500000Y12490000D03*
%TO.P,R20,2*%
%TO.N,/IMU/I2C_BIAS*%
X1500000Y13510000D03*
%TD*%
D19*
%TO.P,R19,1*%
%TO.N,/3V3_MAIN*%
X12740000Y14750000D03*
%TO.P,R19,2*%
%TO.N,/SDA_HOST*%
X13760000Y14750000D03*
%TD*%
D38*
%TO.P,U9,1*%
%TO.N,/USB/CC1*%
X7550000Y13562500D03*
%TO.P,U9,2*%
%TO.N,/USB/CC2*%
X9450000Y13562500D03*
%TO.P,U9,3*%
%TO.N,GND*%
X8500000Y15437500D03*
%TD*%
D39*
%TO.P,U6,1*%
%TO.N,/Power/TS_NO_CELL_SENSING*%
X1350000Y8750000D03*
%TO.P,U6,2*%
%TO.N,/Power/PACK_P*%
X1350000Y8250000D03*
%TO.P,U6,3*%
X1350000Y7750000D03*
%TO.P,U6,4*%
%TO.N,GND*%
X1350000Y7250000D03*
D40*
%TO.P,U6,5*%
X2000000Y6600000D03*
%TO.P,U6,6*%
X2500000Y6600000D03*
%TO.P,U6,7*%
%TO.N,/USB_POWER_N*%
X3000000Y6600000D03*
%TO.P,U6,8*%
%TO.N,GND*%
X3500000Y6600000D03*
D39*
%TO.P,U6,9*%
%TO.N,unconnected-(U6-CHG_N-Pad9)*%
X4150000Y7250000D03*
%TO.P,U6,10*%
%TO.N,/Power/SYS*%
X4150000Y7750000D03*
%TO.P,U6,11*%
X4150000Y8250000D03*
%TO.P,U6,12*%
%TO.N,/Power/CHG_ILIM*%
X4150000Y8750000D03*
D40*
%TO.P,U6,13*%
%TO.N,/VBUS*%
X3500000Y9400000D03*
%TO.P,U6,14*%
%TO.N,unconnected-(U6-TMR-Pad14)*%
X3000000Y9400000D03*
%TO.P,U6,15*%
%TO.N,unconnected-(U6-ITERM-Pad15)*%
X2500000Y9400000D03*
%TO.P,U6,16*%
%TO.N,/Power/CHG_ISET*%
X2000000Y9400000D03*
D41*
%TO.P,U6,17*%
%TO.N,GND*%
X2750000Y8000000D03*
%TD*%
D10*
%TO.P,R12,1*%
%TO.N,/Compute/LED_G*%
X18250000Y3740000D03*
%TO.P,R12,2*%
%TO.N,/Compute/LED_G_K*%
X18250000Y4760000D03*
%TD*%
D28*
%TO.P,U8,1*%
%TO.N,/USB_DM*%
X12362500Y22450000D03*
%TO.P,U8,2*%
%TO.N,GND*%
X12362500Y21500000D03*
%TO.P,U8,3*%
%TO.N,/USB_DP*%
X12362500Y20550000D03*
%TO.P,U8,4*%
X14637500Y20550000D03*
%TO.P,U8,5*%
%TO.N,/VBUS*%
X14637500Y21500000D03*
%TO.P,U8,6*%
%TO.N,/USB_DM*%
X14637500Y22450000D03*
%TD*%
D10*
%TO.P,R11,1*%
%TO.N,/Compute/LED_R*%
X18750000Y6990000D03*
%TO.P,R11,2*%
%TO.N,/Compute/LED_R_K*%
X18750000Y8010000D03*
%TD*%
%TO.P,R1,1*%
%TO.N,/USB/CC1*%
X15000000Y12990000D03*
%TO.P,R1,2*%
%TO.N,GND*%
X15000000Y14010000D03*
%TD*%
D36*
%TO.P,C2,1*%
%TO.N,/Power/PACK_P*%
X6750000Y7050000D03*
%TO.P,C2,2*%
%TO.N,GND*%
X6750000Y8950000D03*
%TD*%
D19*
%TO.P,R16,1*%
%TO.N,/IMU/1V8_IMU*%
X4240000Y10500000D03*
%TO.P,R16,2*%
%TO.N,/IMU/SCL_1V8*%
X5260000Y10500000D03*
%TD*%
D42*
%TO.P,C11,1*%
%TO.N,/BAT_ADC*%
X5770000Y22000000D03*
%TO.P,C11,2*%
%TO.N,GND*%
X6730000Y22000000D03*
%TD*%
D10*
%TO.P,R21,1*%
%TO.N,/Power/CHG_ISET*%
X3000000Y10490000D03*
%TO.P,R21,2*%
%TO.N,GND*%
X3000000Y11510000D03*
%TD*%
D12*
%TO.P,SW3,1*%
%TO.N,Net-(U1-GPIO9_{slash}_BOOT)*%
X3600000Y-2525000D03*
%TO.P,SW3,2*%
%TO.N,GND*%
X3600000Y1925000D03*
%TD*%
D19*
%TO.P,R14,1*%
%TO.N,/Power/PACK_P*%
X7990000Y22250000D03*
%TO.P,R14,2*%
%TO.N,/BAT_ADC*%
X9010000Y22250000D03*
%TD*%
D43*
%TO.N,/3V3_MAIN*%
X4708300Y19375800D03*
X7940500Y19223400D03*
X23235100Y16900000D03*
%TO.N,/BAT_ADC*%
X9435900Y23223900D03*
X5016600Y21919200D03*
%TO.N,/USB/CC1*%
X8355300Y12388800D03*
X18263200Y16908600D03*
X14466700Y10554100D03*
%TO.N,/USB/CC2*%
X18805000Y11162800D03*
X18262100Y19571800D03*
X10594600Y13098400D03*
%TO.N,/Compute/LED_B*%
X15368600Y10898100D03*
X16963500Y9303200D03*
X12716000Y23621200D03*
%TO.N,/Compute/LED_G*%
X19362600Y23621300D03*
X17503900Y5172800D03*
%TO.N,/Compute/LED_R*%
X15579600Y25377100D03*
X17993600Y7403700D03*
%TO.N,/Compute/MCU_EN*%
X3345500Y14855500D03*
X5529200Y21210200D03*
X15463100Y10014900D03*
X9159400Y27800000D03*
%TO.N,/Power/PACK_P*%
X8379700Y23020600D03*
X1746800Y4045700D03*
X6880900Y6082200D03*
%TO.N,/Compute/STRAP2*%
X23000000Y30466200D03*
X9175000Y30375000D03*
%TO.N,/Compute/STRAP8*%
X17344200Y26143300D03*
X9248900Y21438700D03*
%TO.N,/Power/SYS*%
X1477200Y2584100D03*
X2983900Y24360800D03*
X4637400Y23578000D03*
X4925500Y8041700D03*
%TO.N,/USB_DM*%
X19540700Y16910400D03*
X18403500Y18458300D03*
%TO.N,/Compute/USB_DP_MCU*%
X20968400Y27539700D03*
X23599800Y27359800D03*
%TO.N,/USB_POWER_N*%
X10536400Y23629400D03*
X14032200Y12863600D03*
X4092800Y6401500D03*
%TO.N,/VBUS*%
X2735400Y4239600D03*
X15840500Y20301200D03*
X15731400Y16690500D03*
X4699200Y9318800D03*
D44*
%TO.N,GND*%
X13500000Y7000000D03*
X2750000Y16750000D03*
X21250000Y23250000D03*
X15750000Y21750000D03*
D43*
%TO.N,/IMU/1V8_IMU*%
X11130300Y19835600D03*
X5556800Y15941800D03*
X10926600Y15911200D03*
X6086000Y20460700D03*
X15062500Y17539100D03*
%TO.N,/IMU/SCL_1V8*%
X15075400Y18607000D03*
X4781300Y15971000D03*
X5923100Y11012700D03*
%TO.N,/IMU/SDA_1V8*%
X14108100Y19478200D03*
X3960800Y15988600D03*
%TO.N,/SCL_HOST*%
X5265500Y12850800D03*
X14200000Y23304300D03*
X9624000Y20731200D03*
%TO.N,/SDA_HOST*%
X15377200Y23615500D03*
X14598600Y15294700D03*
X4500000Y13458800D03*
%TO.N,Net-(U1-GPIO9_{slash}_BOOT)*%
X4100000Y100000D03*
X16600500Y8527600D03*
X21750000Y27510500D03*
X18200000Y25375000D03*
%TD*%
D45*
%TO.N,/3V3_MAIN*%
X7490000Y14966400D02*
X8119500Y14336900D01*
X3950000Y20200400D02*
X3299200Y20851200D01*
X4137500Y26312500D02*
X3700000Y26750000D01*
X23235100Y5922600D02*
X23235100Y16900000D01*
X21750000Y25740000D02*
X22396300Y26386300D01*
X11504400Y12514400D02*
X12490000Y13500000D01*
X19575000Y4275000D02*
X19575000Y3593300D01*
X5641800Y27588200D02*
X6230000Y27000000D01*
X3700000Y26750000D02*
X4538200Y27588200D01*
X23769200Y17434100D02*
X23769200Y26589700D01*
X8119500Y14336900D02*
X8119500Y13519000D01*
X7490000Y18772900D02*
X7490000Y18500000D01*
X3950000Y19887500D02*
X4196600Y19887500D01*
X914600Y13075400D02*
X1500000Y12490000D01*
X1526700Y14463300D02*
X914600Y13851200D01*
X22396300Y27386300D02*
X23000000Y27990000D01*
X2050000Y19887500D02*
X1225000Y19062500D01*
X7490000Y18500000D02*
X7490000Y14966400D01*
X7643300Y29589700D02*
X5641800Y27588200D01*
X1225000Y14765000D02*
X1526700Y14463300D01*
X24166400Y27635400D02*
X23811800Y27990000D01*
X1225000Y15750000D02*
X1225000Y14765000D01*
X2050000Y20176000D02*
X2050000Y19887500D01*
X1526700Y14463300D02*
X2750000Y13240000D01*
X914600Y13851200D02*
X914600Y13075400D01*
X8500000Y19510000D02*
X7490000Y18500000D01*
X23811800Y27990000D02*
X23000000Y27990000D01*
X19575000Y3593300D02*
X20905800Y3593300D01*
X23235100Y16900000D02*
X23769200Y17434100D01*
X1225000Y19062500D02*
X1225000Y15750000D01*
X9124100Y12514400D02*
X11504400Y12514400D01*
X22396300Y26386300D02*
X22396300Y27386300D01*
X12740000Y14750000D02*
X12490000Y14500000D01*
X3208800Y20851200D02*
X3208800Y23771300D01*
X4196600Y19887500D02*
X4708300Y19375800D01*
X3208800Y23771300D02*
X4137500Y24700000D01*
X3950000Y19887500D02*
X3950000Y20200400D01*
X2725200Y20851200D02*
X2050000Y20176000D01*
X20905800Y3593300D02*
X23235100Y5922600D01*
X8500000Y19990000D02*
X8500000Y19510000D01*
X7643300Y31800000D02*
X7643300Y29589700D01*
X4137500Y24700000D02*
X4137500Y26312500D01*
X3299200Y20851200D02*
X3208800Y20851200D01*
X3208800Y20851200D02*
X2725200Y20851200D01*
X24166400Y26986900D02*
X24166400Y27635400D01*
X12490000Y14500000D02*
X12490000Y13500000D01*
X7940500Y19223400D02*
X7490000Y18772900D01*
X23769200Y26589700D02*
X24166400Y26986900D01*
X4538200Y27588200D02*
X5641800Y27588200D01*
X8119500Y13519000D02*
X9124100Y12514400D01*
X8300000Y31800000D02*
X7643300Y31800000D01*
%TO.N,/BAT_ADC*%
X9400000Y23223900D02*
X9400000Y22640000D01*
X5016600Y21919200D02*
X5689200Y21919200D01*
X9400000Y24500000D02*
X9400000Y23223900D01*
X9400000Y22640000D02*
X9850000Y22640000D01*
X9850000Y22640000D02*
X10750000Y21740000D01*
X9400000Y22640000D02*
X9010000Y22250000D01*
X5689200Y21919200D02*
X5770000Y22000000D01*
X9400000Y23223900D02*
X9435900Y23223900D01*
%TO.N,/USB/CC1*%
X14466700Y10554100D02*
X14466700Y12456700D01*
X18036700Y16950000D02*
X18078100Y16908600D01*
X18078100Y16908600D02*
X18263200Y16908600D01*
X17055000Y16950000D02*
X18036700Y16950000D01*
X7550000Y13562500D02*
X8355300Y12757200D01*
X14466700Y12456700D02*
X15000000Y12990000D01*
X8355300Y12757200D02*
X8355300Y12388800D01*
%TO.N,/USB/CC2*%
X18036700Y19797200D02*
X18262100Y19571800D01*
X9914100Y13098400D02*
X10594600Y13098400D01*
X18577200Y11162800D02*
X17740000Y12000000D01*
X9450000Y13562500D02*
X9914100Y13098400D01*
X18805000Y11162800D02*
X18577200Y11162800D01*
X17055000Y19950000D02*
X18036700Y19950000D01*
X18036700Y19950000D02*
X18036700Y19797200D01*
%TO.N,/Power/CHG_ILIM*%
X5765700Y8069400D02*
X5765700Y5994300D01*
X4150000Y8750000D02*
X5085100Y8750000D01*
X5085100Y8750000D02*
X5765700Y8069400D01*
X5765700Y5994300D02*
X6260000Y5500000D01*
%TO.N,/Power/CHG_ISET*%
X2000000Y9683900D02*
X2806100Y10490000D01*
X2000000Y9400000D02*
X2000000Y9683900D01*
X2806100Y10490000D02*
X3000000Y10490000D01*
%TO.N,/Compute/LED_B*%
X17150300Y9490000D02*
X16963500Y9303200D01*
X17750000Y9490000D02*
X17150300Y9490000D01*
X12600000Y23737200D02*
X12600000Y24500000D01*
X12716000Y23621200D02*
X12600000Y23737200D01*
%TO.N,/Compute/LED_B_K*%
X17750000Y10510000D02*
X19855400Y8404600D01*
X20426200Y6761900D02*
X20518700Y6761900D01*
X20518700Y6761900D02*
X21006700Y6273900D01*
X20425000Y4275000D02*
X21006700Y4275000D01*
X19855400Y8404600D02*
X19855400Y7332700D01*
X19855400Y7332700D02*
X20426200Y6761900D01*
X21006700Y6273900D02*
X21006700Y4275000D01*
%TO.N,/Compute/LED_G*%
X18250000Y3740000D02*
X17503900Y4486100D01*
X19362600Y23621300D02*
X19140600Y23843300D01*
X17503900Y4486100D02*
X17503900Y5172800D01*
X16600000Y24500000D02*
X16600000Y23843300D01*
X19140600Y23843300D02*
X16600000Y23843300D01*
%TO.N,/Compute/LED_G_K*%
X20425000Y5725000D02*
X20425000Y5043300D01*
X18533300Y5043300D02*
X18250000Y4760000D01*
X20425000Y5043300D02*
X18533300Y5043300D01*
%TO.N,/Compute/LED_R*%
X15800000Y24500000D02*
X15800000Y25156700D01*
X15579600Y25377100D02*
X15800000Y25156700D01*
X18407300Y6990000D02*
X17993600Y7403700D01*
X18750000Y6990000D02*
X18407300Y6990000D01*
%TO.N,/Compute/LED_R_K*%
X19498700Y6483000D02*
X19498700Y7261300D01*
X19498700Y7261300D02*
X18750000Y8010000D01*
X19575000Y5725000D02*
X19575000Y6406700D01*
X19575000Y6406700D02*
X19498700Y6483000D01*
%TO.N,/Compute/MCU_EN*%
X15463100Y10014900D02*
X16530800Y11082600D01*
X5601600Y21282600D02*
X5529200Y21210200D01*
X21500000Y7680700D02*
X21500000Y7575000D01*
X7631800Y21282600D02*
X5601600Y21282600D01*
X7870000Y21044400D02*
X7631800Y21282600D01*
X16530800Y11082600D02*
X18098100Y11082600D01*
X8300000Y27800000D02*
X9159400Y27800000D01*
X7870000Y20390000D02*
X7870000Y21044400D01*
X18098100Y11082600D02*
X21500000Y7680700D01*
X3345500Y14855500D02*
X2750000Y14260000D01*
X7250000Y19770000D02*
X7870000Y20390000D01*
%TO.N,/Power/PACK_P*%
X791300Y5001200D02*
X1746800Y4045700D01*
X8500000Y7050000D02*
X11500000Y10050000D01*
X8379700Y22639700D02*
X7990000Y22250000D01*
X6750000Y7050000D02*
X8500000Y7050000D01*
X6750000Y7050000D02*
X6750000Y6213100D01*
X6750000Y6213100D02*
X6880900Y6082200D01*
X1082700Y7750000D02*
X791300Y7458600D01*
X8379700Y23020600D02*
X8379700Y22639700D01*
X1350000Y7750000D02*
X1082700Y7750000D01*
X791300Y7458600D02*
X791300Y5001200D01*
X1350000Y7750000D02*
X1350000Y8250000D01*
%TO.N,/Compute/STRAP2*%
X8300000Y30200000D02*
X9000000Y30200000D01*
X9000000Y30200000D02*
X9175000Y30375000D01*
X23000000Y30466200D02*
X23000000Y29010000D01*
%TO.N,/Compute/STRAP8*%
X17400000Y24500000D02*
X17400000Y25156700D01*
X17344200Y25212500D02*
X17400000Y25156700D01*
X8500000Y21010000D02*
X8820200Y21010000D01*
X17344200Y26143300D02*
X17344200Y25212500D01*
X8820200Y21010000D02*
X9248900Y21438700D01*
%TO.N,/Power/SYS*%
X2760700Y24137600D02*
X2983900Y24360800D01*
X4150000Y8250000D02*
X4150000Y8041700D01*
X6250000Y23550000D02*
X4665400Y23550000D01*
X2842100Y23444600D02*
X2197500Y22800000D01*
X1862500Y24700000D02*
X2198200Y24700000D01*
X2760700Y24137600D02*
X2842100Y24056100D01*
X2198200Y24700000D02*
X2760700Y24137600D01*
X2842100Y24056100D02*
X2842100Y23444600D01*
X4150000Y8041700D02*
X4150000Y7750000D01*
X2197500Y22800000D02*
X1862500Y22800000D01*
X4150000Y8041700D02*
X4925500Y8041700D01*
X4665400Y23550000D02*
X4637400Y23578000D01*
%TO.N,/Power/TS_NO_CELL_SENSING*%
X740000Y9360000D02*
X740000Y10500000D01*
X1350000Y8750000D02*
X740000Y9360000D01*
%TO.N,/USB_DM*%
X18224300Y18637600D02*
X18036700Y18450000D01*
X14637500Y22450000D02*
X15438100Y22450000D01*
X17055000Y18450000D02*
X18036700Y18450000D01*
X15438100Y22450000D02*
X16290700Y23302600D01*
X19382100Y19795400D02*
X18224300Y18637600D01*
X20112800Y22872800D02*
X21740000Y24500000D01*
X19382100Y22872800D02*
X19382100Y19795400D01*
X14637500Y22450000D02*
X12362500Y22450000D01*
X18985700Y17465400D02*
X17070400Y17465400D01*
X18894100Y23302600D02*
X19323900Y22872800D01*
X18224300Y18637600D02*
X18403500Y18458300D01*
X19382100Y22872800D02*
X20112800Y22872800D01*
X19323900Y22872800D02*
X19382100Y22872800D01*
X16290700Y23302600D02*
X18894100Y23302600D01*
X17070400Y17465400D02*
X17055000Y17450000D01*
X19540700Y16910400D02*
X18985700Y17465400D01*
%TO.N,/Compute/USB_DM_MCU*%
X21533500Y25078400D02*
X22181600Y25078400D01*
X22181600Y25078400D02*
X22760000Y24500000D01*
X20756700Y25855200D02*
X21533500Y25078400D01*
X20100000Y26200000D02*
X20756700Y26200000D01*
X20756700Y26200000D02*
X20756700Y25855200D01*
%TO.N,/USB_DP*%
X17055000Y17950000D02*
X16073300Y17950000D01*
X16162900Y18950000D02*
X16073300Y18950000D01*
X12362500Y20550000D02*
X14637500Y20550000D01*
X23324000Y25416000D02*
X23324000Y22306800D01*
X23324000Y22306800D02*
X18903300Y17886100D01*
X18100600Y17886100D02*
X18036700Y17950000D01*
X17055000Y18950000D02*
X16162900Y18950000D01*
X14637500Y20385800D02*
X14637500Y20550000D01*
X18903300Y17886100D02*
X18100600Y17886100D01*
X23000000Y25740000D02*
X23324000Y25416000D01*
X16073300Y18950000D02*
X14637500Y20385800D01*
X17055000Y17950000D02*
X18036700Y17950000D01*
X16073300Y18950000D02*
X16073300Y17950000D01*
%TO.N,/Compute/USB_DP_MCU*%
X20968400Y27211700D02*
X20756700Y27000000D01*
X23000000Y26760000D02*
X23599800Y27359800D01*
X20100000Y27000000D02*
X20756700Y27000000D01*
X20968400Y27539700D02*
X20968400Y27211700D01*
%TO.N,/USB_POWER_N*%
X10200000Y24500000D02*
X10200000Y23843300D01*
X10200000Y23843300D02*
X10322500Y23843300D01*
X13510000Y13500000D02*
X13510000Y13385800D01*
X13510000Y13385800D02*
X14032200Y12863600D01*
X3721400Y6030100D02*
X4092800Y6401500D01*
X10322500Y23843300D02*
X10536400Y23629400D01*
X3000000Y6332300D02*
X3302200Y6030100D01*
X3000000Y6600000D02*
X3000000Y6332300D01*
X3302200Y6030100D02*
X3721400Y6030100D01*
%TO.N,/VBUS*%
X17055000Y15750000D02*
X16073300Y15750000D01*
X4618000Y9400000D02*
X4699200Y9318800D01*
X3500000Y9400000D02*
X4618000Y9400000D01*
X15840500Y20650000D02*
X17055000Y20650000D01*
X16073300Y16348600D02*
X15731400Y16690500D01*
X14990500Y21500000D02*
X15840500Y20650000D01*
X1975000Y5000000D02*
X2735400Y4239600D01*
X15840500Y20650000D02*
X15840500Y20301200D01*
X14637500Y21500000D02*
X14990500Y21500000D01*
X16073300Y15750000D02*
X16073300Y16348600D01*
%TO.N,GND*%
X16600000Y34300000D02*
X16600000Y33643300D01*
X2770000Y11510000D02*
X3000000Y11510000D01*
X6730000Y22249200D02*
X6730000Y22000000D01*
X14359500Y16900000D02*
X14000000Y16900000D01*
X4740000Y5000000D02*
X5240000Y5500000D01*
X16663300Y13880000D02*
X16417000Y14126300D01*
X8300000Y33400000D02*
X7643300Y33400000D01*
X884000Y25834000D02*
X884000Y24434800D01*
X13500000Y16000000D02*
X14227800Y16000000D01*
X14200000Y29400000D02*
X14200000Y27425000D01*
X12225000Y29400000D02*
X12225000Y27425000D01*
X13400000Y34300000D02*
X12600000Y34300000D01*
X19000000Y34300000D02*
X18200000Y34300000D01*
X18200000Y34300000D02*
X17400000Y34300000D01*
X20150000Y34350000D02*
X19543300Y34350000D01*
X2000000Y6600000D02*
X2000000Y7250000D01*
X7593300Y25450000D02*
X7643300Y25400000D01*
X1568800Y23750000D02*
X1862500Y23750000D01*
X16073300Y14126300D02*
X15116300Y14126300D01*
X8250000Y34046700D02*
X8250000Y33743300D01*
X7643300Y25400000D02*
X7986600Y25056700D01*
X21093300Y13880000D02*
X21093300Y12431700D01*
X9146700Y34046700D02*
X9400000Y34300000D01*
X12225000Y33268300D02*
X12225000Y31375000D01*
X10750000Y22760000D02*
X12010000Y21500000D01*
X12225000Y26443300D02*
X11181700Y25400000D01*
X12225000Y27425000D02*
X12225000Y26443300D01*
X7643300Y33400000D02*
X7643300Y32600000D01*
X12225000Y31375000D02*
X12225000Y29400000D01*
X6641500Y20121500D02*
X6641500Y18866500D01*
X3600000Y1925000D02*
X3600000Y4925000D01*
X10200000Y34300000D02*
X9400000Y34300000D01*
X11800000Y34300000D02*
X11000000Y34300000D01*
X5270000Y26430000D02*
X5270000Y27000000D01*
X7986600Y33743300D02*
X8250000Y33743300D01*
X13500000Y10050000D02*
X15850000Y7700000D01*
X3600000Y4925000D02*
X3525000Y5000000D01*
X11181700Y25400000D02*
X11000000Y25400000D01*
X15800000Y34300000D02*
X15000000Y34300000D01*
X8250000Y24450000D02*
X8250000Y23769200D01*
X13500000Y16000000D02*
X13500000Y15645800D01*
X3000000Y18590500D02*
X5134500Y18590500D01*
X8300000Y25400000D02*
X7643300Y25400000D01*
X17400000Y34300000D02*
X16600000Y34300000D01*
X8250000Y23769200D02*
X6730000Y22249200D01*
X1800000Y26750000D02*
X884000Y25834000D01*
X1350000Y7250000D02*
X2000000Y7250000D01*
X19493300Y34300000D02*
X19543300Y34350000D01*
X15000000Y34300000D02*
X14200000Y34300000D01*
X3000000Y18590500D02*
X3000000Y15975000D01*
X16175000Y29400000D02*
X16175000Y27425000D01*
X6440000Y4300000D02*
X9150000Y4300000D01*
X16663300Y22520000D02*
X16073300Y21930000D01*
X11000000Y34300000D02*
X10200000Y34300000D01*
X14227800Y16000000D02*
X14581600Y16353800D01*
X15850000Y7700000D02*
X15850000Y4300000D01*
X16417000Y14126300D02*
X16073300Y14126300D01*
X17055000Y21450000D02*
X16073300Y21450000D01*
X17055000Y14950000D02*
X16073300Y14950000D01*
X11995200Y14957100D02*
X11995200Y14515200D01*
X15116300Y14126300D02*
X15000000Y14010000D01*
X12600000Y33643300D02*
X12225000Y33268300D01*
X12435800Y15397700D02*
X11995200Y14957100D01*
X5750000Y17975000D02*
X6119900Y17605100D01*
X11800000Y34300000D02*
X11800000Y33643300D01*
X6250000Y25450000D02*
X7593300Y25450000D01*
X3500000Y6600000D02*
X3500000Y7250000D01*
X17970000Y22520000D02*
X16663300Y22520000D01*
X15800000Y33643300D02*
X16175000Y33268300D01*
X6119900Y15169900D02*
X6000000Y15050000D01*
X16175000Y31375000D02*
X16175000Y29400000D01*
X14200000Y31375000D02*
X14200000Y29400000D01*
X5134500Y18590500D02*
X5750000Y17975000D01*
X11000000Y25400000D02*
X8956700Y25400000D01*
X8250000Y24450000D02*
X8250000Y25056700D01*
X22150000Y13880000D02*
X21093300Y13880000D01*
X1760000Y10500000D02*
X2770000Y11510000D01*
X6250000Y25450000D02*
X5270000Y26430000D01*
X11995200Y14515200D02*
X11250000Y13770000D01*
X8300000Y25400000D02*
X8956700Y25400000D01*
X14581600Y16677900D02*
X14359500Y16900000D01*
X11000000Y25400000D02*
X11000000Y24500000D01*
X5240000Y5500000D02*
X6440000Y4300000D01*
X10750000Y22760000D02*
X11111500Y23121500D01*
X884000Y24434800D02*
X1568800Y23750000D01*
X14200000Y34300000D02*
X13400000Y34300000D01*
X14581600Y16353800D02*
X14581600Y16677900D01*
X10315800Y14704200D02*
X11250000Y13770000D01*
X7986600Y25056700D02*
X8250000Y25056700D01*
X15985400Y14950000D02*
X16073300Y14950000D01*
X21093300Y12431700D02*
X21500000Y12025000D01*
X15800000Y33851800D02*
X15800000Y33643300D01*
X16073300Y14126300D02*
X16073300Y14950000D01*
X19000000Y34300000D02*
X19493300Y34300000D01*
X7643300Y33400000D02*
X7986600Y33743300D01*
X3525000Y5000000D02*
X2500000Y6025000D01*
X16600000Y33643300D02*
X16008500Y33643300D01*
X14581600Y16353800D02*
X15985400Y14950000D01*
X6641500Y18866500D02*
X5750000Y17975000D01*
X16008500Y33643300D02*
X15800000Y33851800D01*
X8300000Y32600000D02*
X7643300Y32600000D01*
X12600000Y34300000D02*
X12600000Y33643300D01*
X14200000Y34300000D02*
X14200000Y31375000D01*
X2000000Y7250000D02*
X2750000Y8000000D01*
X3000000Y19887500D02*
X3000000Y18590500D01*
X15800000Y34300000D02*
X15800000Y33851800D01*
X11111500Y23121500D02*
X11111500Y24388500D01*
X8500000Y15670000D02*
X8500000Y15437500D01*
X2000000Y6600000D02*
X2500000Y6600000D01*
X2500000Y6025000D02*
X2500000Y6600000D01*
X19276700Y13880000D02*
X19276700Y12516700D01*
X3500000Y7250000D02*
X2750000Y8000000D01*
X3000000Y15975000D02*
X2775000Y15750000D01*
X7250000Y20730000D02*
X6641500Y20121500D01*
X13251900Y15397700D02*
X12435800Y15397700D01*
X17970000Y13880000D02*
X19276700Y13880000D01*
X13500000Y15645800D02*
X13251900Y15397700D01*
X12010000Y21500000D02*
X12362500Y21500000D01*
X12225000Y33268300D02*
X11850000Y33643300D01*
X19276700Y12516700D02*
X18760000Y12000000D01*
X16073300Y21930000D02*
X16073300Y21450000D01*
X16175000Y33268300D02*
X16175000Y31375000D01*
X17970000Y13880000D02*
X16663300Y13880000D01*
X8250000Y34046700D02*
X9146700Y34046700D01*
X8250000Y34350000D02*
X8250000Y34046700D01*
X11850000Y33643300D02*
X11800000Y33643300D01*
X6119900Y17605100D02*
X6119900Y15169900D01*
X3525000Y5000000D02*
X4740000Y5000000D01*
X11111500Y24388500D02*
X11000000Y24500000D01*
%TO.N,/IMU/1V8_IMU*%
X14901600Y17700000D02*
X15062500Y17539100D01*
X11500000Y16000000D02*
X11250000Y15750000D01*
X5500000Y15050000D02*
X5500000Y14197500D01*
X3950000Y17612500D02*
X5500000Y16062500D01*
X11130300Y19835600D02*
X10438700Y19835600D01*
X14000000Y17700000D02*
X14901600Y17700000D01*
X7837600Y11859900D02*
X7837600Y11077600D01*
X11000000Y18100000D02*
X10686700Y18100000D01*
X5500000Y14197500D02*
X7837600Y11859900D01*
X11250000Y15750000D02*
X11250000Y14730000D01*
X5500000Y15941800D02*
X5556800Y15941800D01*
X5500000Y15050000D02*
X5500000Y15941800D01*
X10438700Y19835600D02*
X9894400Y19835600D01*
X10438700Y18348000D02*
X10438700Y19835600D01*
X4836700Y9903300D02*
X4240000Y10500000D01*
X6663300Y9903300D02*
X4836700Y9903300D01*
X9894400Y19835600D02*
X9750000Y19980000D01*
X10926600Y15911200D02*
X11088800Y15911200D01*
X11088800Y15911200D02*
X11250000Y15750000D01*
X5750000Y19525000D02*
X6086000Y19861000D01*
X7250000Y10490000D02*
X6663300Y9903300D01*
X7837600Y11077600D02*
X7250000Y10490000D01*
X10686700Y18100000D02*
X10438700Y18348000D01*
X6086000Y19861000D02*
X6086000Y20460700D01*
X5500000Y16062500D02*
X5500000Y15941800D01*
%TO.N,/IMU/I2C_BIAS*%
X4126200Y11258400D02*
X3135200Y12249400D01*
X2760600Y12249400D02*
X1500000Y13510000D01*
X5500000Y11504200D02*
X5254200Y11258400D01*
X5500000Y11950000D02*
X5500000Y11504200D01*
X5254200Y11258400D02*
X4126200Y11258400D01*
X3135200Y12249400D02*
X2760600Y12249400D01*
X6000000Y11950000D02*
X5500000Y11950000D01*
D46*
%TO.N,/IMU/IMU_REGOUT*%
X11000000Y17300000D02*
X10150000Y17300000D01*
X10150000Y17300000D02*
X9730000Y17250000D01*
D45*
%TO.N,/IMU/SCL_1V8*%
X14568400Y18100000D02*
X14000000Y18100000D01*
X5000000Y15752300D02*
X4781300Y15971000D01*
X5923100Y11012700D02*
X5410400Y10500000D01*
X5000000Y15050000D02*
X5000000Y15752300D01*
X5410400Y10500000D02*
X5260000Y10500000D01*
X15075400Y18607000D02*
X14568400Y18100000D01*
%TO.N,/IMU/SDA_1V8*%
X4500000Y15050000D02*
X4500000Y15449400D01*
X4500000Y15449400D02*
X3960800Y15988600D01*
X14000000Y19370100D02*
X14000000Y18500000D01*
X4500000Y15050000D02*
X4500000Y14610000D01*
X4500000Y14610000D02*
X7250000Y11860000D01*
X14108100Y19478200D02*
X14000000Y19370100D01*
X7250000Y11860000D02*
X7250000Y11510000D01*
%TO.N,/SCL_HOST*%
X9145500Y19135500D02*
X8510000Y18500000D01*
X9624000Y20731200D02*
X9145500Y20252700D01*
X14200000Y24500000D02*
X14200000Y23843300D01*
X5000000Y12585300D02*
X5000000Y11950000D01*
X9145500Y20252700D02*
X9145500Y19135500D01*
X5265500Y12850800D02*
X5000000Y12585300D01*
X14200000Y23843300D02*
X14200000Y23304300D01*
%TO.N,/SDA_HOST*%
X13760000Y14750000D02*
X14053900Y14750000D01*
X14053900Y14750000D02*
X14598600Y15294700D01*
X15000000Y24500000D02*
X15000000Y23843300D01*
X15149400Y23843300D02*
X15377200Y23615500D01*
X15000000Y23843300D02*
X15149400Y23843300D01*
X4500000Y11950000D02*
X4500000Y13458800D01*
%TO.N,Net-(U1-GPIO9_{slash}_BOOT)*%
X18200000Y25375000D02*
X18200000Y24500000D01*
X21750000Y26760000D02*
X21750000Y27510500D01*
X4100000Y-2025000D02*
X4100000Y100000D01*
X3600000Y-2525000D02*
X4100000Y-2025000D01*
%TD*%
%TA.AperFunction,Conductor*%
%TO.N,GND*%
G36*
X22286825Y24618914D02*
G01*
X22317826Y24587913D01*
X22339500Y24535587D01*
X22339500Y24272378D01*
X22342269Y24248505D01*
X22342269Y24248503D01*
X22342270Y24248502D01*
X22385384Y24150859D01*
X22460859Y24075384D01*
X22558502Y24032270D01*
X22582377Y24029500D01*
X22937622Y24029501D01*
X22961498Y24032270D01*
X22969608Y24035852D01*
X23026228Y24037162D01*
X23067193Y23998052D01*
X23073500Y23968158D01*
X23073500Y22441213D01*
X23051826Y22388887D01*
X18973175Y18310237D01*
X18920849Y18288563D01*
X18868523Y18310237D01*
X18846849Y18362563D01*
X18849370Y18381713D01*
X18854000Y18398991D01*
X18854000Y18517609D01*
X18854000Y18517611D01*
X18853999Y18517612D01*
X18853743Y18518566D01*
X18830150Y18606617D01*
X18823300Y18632183D01*
X18823298Y18632188D01*
X18761564Y18739114D01*
X18763392Y18740170D01*
X18750580Y18787999D01*
X18771618Y18830659D01*
X19594464Y19653503D01*
X19632600Y19745572D01*
X19632600Y19845227D01*
X19632600Y22548300D01*
X19654274Y22600626D01*
X19706600Y22622300D01*
X20162627Y22622300D01*
X20162628Y22622300D01*
X20254697Y22660436D01*
X21602087Y24007828D01*
X21654413Y24029501D01*
X21917622Y24029501D01*
X21941498Y24032270D01*
X22039141Y24075384D01*
X22114616Y24150859D01*
X22157730Y24248502D01*
X22160500Y24272377D01*
X22160499Y24566589D01*
X22182173Y24618914D01*
X22234499Y24640588D01*
X22286825Y24618914D01*
G37*
%TD.AperFunction*%
%TA.AperFunction,Conductor*%
G36*
X18812013Y23030426D02*
G01*
X19109926Y22732513D01*
X19131600Y22680187D01*
X19131600Y21423210D01*
X19109926Y21370884D01*
X19057600Y21349210D01*
X19005274Y21370884D01*
X18993514Y21386209D01*
X18981498Y21407021D01*
X18960515Y21443365D01*
X18853365Y21550515D01*
X18853362Y21550517D01*
X18722139Y21626279D01*
X18722130Y21626283D01*
X18575768Y21665500D01*
X18575766Y21665500D01*
X18424234Y21665500D01*
X18424232Y21665500D01*
X18277869Y21626283D01*
X18277860Y21626279D01*
X18146637Y21550517D01*
X18039483Y21443363D01*
X17963721Y21312140D01*
X17963717Y21312131D01*
X17924500Y21165769D01*
X17924500Y21164874D01*
X17924327Y21164458D01*
X17923867Y21160959D01*
X17922929Y21161083D01*
X17902826Y21112548D01*
X17850500Y21090874D01*
X17836063Y21092296D01*
X17808423Y21097794D01*
X17794820Y21100500D01*
X16315180Y21100500D01*
X16301577Y21097794D01*
X16271277Y21091767D01*
X16221496Y21058505D01*
X16221495Y21058504D01*
X16188233Y21008723D01*
X16178791Y20961255D01*
X16176746Y20961662D01*
X16167978Y20945246D01*
X16158422Y20922174D01*
X16154870Y20920703D01*
X16153060Y20917313D01*
X16106096Y20900500D01*
X15974912Y20900500D01*
X15922586Y20922174D01*
X15472173Y21372587D01*
X15450499Y21424913D01*
X15450499Y21694864D01*
X15450499Y21694865D01*
X15447585Y21719991D01*
X15402206Y21822765D01*
X15322765Y21902206D01*
X15311215Y21907306D01*
X15272103Y21948268D01*
X15273411Y22004890D01*
X15311215Y22042695D01*
X15322765Y22047794D01*
X15402206Y22127235D01*
X15414637Y22155390D01*
X15455599Y22194503D01*
X15482332Y22199500D01*
X15487927Y22199500D01*
X15487928Y22199500D01*
X15579997Y22237636D01*
X16372787Y23030426D01*
X16425113Y23052100D01*
X18759687Y23052100D01*
X18812013Y23030426D01*
G37*
%TD.AperFunction*%
%TA.AperFunction,Conductor*%
G36*
X24727826Y34727826D02*
G01*
X24749500Y34675500D01*
X24749500Y23824500D01*
X24727826Y23772174D01*
X24675500Y23750500D01*
X24400172Y23750500D01*
X24308105Y23712366D01*
X24237634Y23641895D01*
X24199500Y23549830D01*
X24199500Y12850171D01*
X24237634Y12758106D01*
X24237637Y12758102D01*
X24308102Y12687637D01*
X24308105Y12687635D01*
X24313414Y12685436D01*
X24400172Y12649500D01*
X24675500Y12649500D01*
X24727826Y12627826D01*
X24749500Y12575500D01*
X24749500Y890892D01*
X24727826Y838566D01*
X24675500Y816892D01*
X24623174Y838566D01*
X24605427Y867105D01*
X24587383Y920260D01*
X24387787Y1324999D01*
X24387787Y1325000D01*
X24387784Y1325005D01*
X24387781Y1325010D01*
X24137070Y1700225D01*
X24137069Y1700227D01*
X23839518Y2039519D01*
X23500226Y2337070D01*
X23390760Y2410213D01*
X23125009Y2587783D01*
X23124998Y2587789D01*
X22720260Y2787384D01*
X22292928Y2932444D01*
X22292916Y2932448D01*
X21850322Y3020484D01*
X21850319Y3020485D01*
X21850315Y3020485D01*
X21400000Y3050000D01*
X21399999Y3050000D01*
X21345461Y3046426D01*
X20949684Y3020485D01*
X20949680Y3020485D01*
X20949676Y3020484D01*
X20507082Y2932448D01*
X20507069Y2932444D01*
X20079740Y2787385D01*
X19675001Y2587789D01*
X19674990Y2587783D01*
X19299775Y2337072D01*
X18960481Y2039519D01*
X18662928Y1700225D01*
X18412217Y1325010D01*
X18412211Y1324999D01*
X18212615Y920260D01*
X18067556Y492931D01*
X18067552Y492918D01*
X17979516Y50324D01*
X17979515Y50320D01*
X17979515Y50316D01*
X17950000Y-400000D01*
X17979515Y-850315D01*
X17979515Y-850319D01*
X17979516Y-850322D01*
X18067552Y-1292916D01*
X18067556Y-1292928D01*
X18212616Y-1720260D01*
X18412211Y-2124998D01*
X18412217Y-2125009D01*
X18661811Y-2498551D01*
X18662930Y-2500226D01*
X18960481Y-2839518D01*
X19299773Y-3137069D01*
X19423733Y-3219896D01*
X19674990Y-3387781D01*
X19674995Y-3387784D01*
X19675000Y-3387787D01*
X20079742Y-3587384D01*
X20132895Y-3605427D01*
X20175477Y-3642771D01*
X20179181Y-3699287D01*
X20141837Y-3741869D01*
X20109108Y-3749500D01*
X17624500Y-3749500D01*
X17572174Y-3727826D01*
X17550500Y-3675500D01*
X17550500Y2049828D01*
X17550499Y2049830D01*
X17512365Y2141895D01*
X17512363Y2141898D01*
X17441898Y2212363D01*
X17441894Y2212366D01*
X17349828Y2250500D01*
X7749828Y2250500D01*
X7650172Y2250500D01*
X7558105Y2212366D01*
X7487634Y2141895D01*
X7449500Y2049830D01*
X7449500Y-3675500D01*
X7427826Y-3727826D01*
X7375500Y-3749500D01*
X324500Y-3749500D01*
X272174Y-3727826D01*
X250500Y-3675500D01*
X250500Y-2111516D01*
X2449500Y-2111516D01*
X2449500Y-2938484D01*
X2452488Y-2964238D01*
X2498999Y-3069577D01*
X2580423Y-3151001D01*
X2685762Y-3197512D01*
X2711516Y-3200500D01*
X2711520Y-3200500D01*
X4488480Y-3200500D01*
X4488484Y-3200500D01*
X4514238Y-3197512D01*
X4619577Y-3151001D01*
X4701001Y-3069577D01*
X4747512Y-2964238D01*
X4750500Y-2938484D01*
X4750500Y-2111516D01*
X4747512Y-2085762D01*
X4701001Y-1980423D01*
X4619577Y-1898999D01*
X4514238Y-1852488D01*
X4514239Y-1852488D01*
X4509087Y-1851890D01*
X4488484Y-1849500D01*
X4488480Y-1849500D01*
X4424500Y-1849500D01*
X4372174Y-1827826D01*
X4350500Y-1775500D01*
X4350500Y-317019D01*
X4372174Y-264693D01*
X4374082Y-263019D01*
X4376610Y-260490D01*
X4376613Y-260489D01*
X4460489Y-176613D01*
X4519799Y-73886D01*
X4550499Y40689D01*
X4550500Y40689D01*
X4550500Y159311D01*
X4550499Y159312D01*
X4519800Y273883D01*
X4519798Y273888D01*
X4460491Y376610D01*
X4460490Y376611D01*
X4460489Y376613D01*
X4376613Y460489D01*
X4376610Y460491D01*
X4376609Y460492D01*
X4273887Y519799D01*
X4273882Y519801D01*
X4159311Y550500D01*
X4159309Y550500D01*
X4040691Y550500D01*
X4040689Y550500D01*
X3926117Y519801D01*
X3926112Y519799D01*
X3823390Y460492D01*
X3739508Y376610D01*
X3680201Y273888D01*
X3680199Y273883D01*
X3649500Y159312D01*
X3649500Y40689D01*
X3680199Y-73882D01*
X3680201Y-73887D01*
X3739508Y-176609D01*
X3739509Y-176610D01*
X3739511Y-176613D01*
X3823387Y-260489D01*
X3826817Y-263919D01*
X3824893Y-265842D01*
X3848866Y-307349D01*
X3849500Y-317019D01*
X3849500Y-1775500D01*
X3827826Y-1827826D01*
X3775500Y-1849500D01*
X2711516Y-1849500D01*
X2690912Y-1851890D01*
X2685761Y-1852488D01*
X2580422Y-1898999D01*
X2498999Y-1980422D01*
X2498999Y-1980423D01*
X2452488Y-2085762D01*
X2449500Y-2111516D01*
X250500Y-2111516D01*
X250500Y2643412D01*
X1026700Y2643412D01*
X1026700Y2524789D01*
X1057399Y2410218D01*
X1057401Y2410213D01*
X1116708Y2307491D01*
X1116709Y2307490D01*
X1116711Y2307487D01*
X1200587Y2223611D01*
X1200589Y2223610D01*
X1200590Y2223609D01*
X1220067Y2212364D01*
X1303314Y2164301D01*
X1303315Y2164301D01*
X1303317Y2164300D01*
X1360602Y2148951D01*
X1417888Y2133601D01*
X1417889Y2133600D01*
X1417891Y2133600D01*
X1536511Y2133600D01*
X1536511Y2133601D01*
X1651086Y2164301D01*
X1753813Y2223611D01*
X1837689Y2307487D01*
X1896999Y2410214D01*
X1927699Y2524789D01*
X1927700Y2524789D01*
X1927700Y2643411D01*
X1927699Y2643412D01*
X1897000Y2757983D01*
X1896998Y2757988D01*
X1837691Y2860710D01*
X1837690Y2860711D01*
X1837689Y2860713D01*
X1753813Y2944589D01*
X1753810Y2944591D01*
X1753809Y2944592D01*
X1651087Y3003899D01*
X1651082Y3003901D01*
X1536511Y3034600D01*
X1536509Y3034600D01*
X1417891Y3034600D01*
X1417889Y3034600D01*
X1303317Y3003901D01*
X1303312Y3003899D01*
X1200590Y2944592D01*
X1116708Y2860710D01*
X1057401Y2757988D01*
X1057399Y2757983D01*
X1026700Y2643412D01*
X250500Y2643412D01*
X250500Y10087091D01*
X260607Y10111492D01*
X269346Y10136427D01*
X271330Y10137382D01*
X272174Y10139417D01*
X296580Y10149527D01*
X320387Y10160977D01*
X322383Y10160215D01*
X324500Y10161091D01*
X373836Y10142245D01*
X375371Y10140872D01*
X440859Y10075384D01*
X456106Y10068652D01*
X464836Y10060843D01*
X472419Y10045077D01*
X484502Y10032423D01*
X488314Y10012030D01*
X489386Y10009802D01*
X488958Y10008584D01*
X489500Y10005689D01*
X489500Y9310171D01*
X527634Y9218106D01*
X527637Y9218102D01*
X877826Y8867913D01*
X899500Y8815587D01*
X899500Y8647637D01*
X910321Y8593230D01*
X945145Y8541111D01*
X956194Y8485562D01*
X945145Y8458889D01*
X910321Y8406771D01*
X910321Y8406769D01*
X899768Y8353713D01*
X899500Y8352368D01*
X899500Y8147637D01*
X910320Y8093232D01*
X941208Y8047005D01*
X945418Y8025835D01*
X953679Y8005894D01*
X950778Y7998891D01*
X952257Y7991456D01*
X932005Y7953568D01*
X870336Y7891898D01*
X870336Y7891897D01*
X870335Y7891896D01*
X638995Y7660557D01*
X578937Y7600499D01*
X578934Y7600495D01*
X540800Y7508430D01*
X540800Y4951371D01*
X578934Y4859306D01*
X578937Y4859302D01*
X1274792Y4163447D01*
X1296466Y4111121D01*
X1296300Y4108587D01*
X1296300Y3986389D01*
X1326999Y3871818D01*
X1327001Y3871813D01*
X1386308Y3769091D01*
X1386309Y3769090D01*
X1386311Y3769087D01*
X1470187Y3685211D01*
X1572914Y3625901D01*
X1572915Y3625901D01*
X1572917Y3625900D01*
X1630202Y3610551D01*
X1687488Y3595201D01*
X1687489Y3595200D01*
X1687491Y3595200D01*
X1806111Y3595200D01*
X1806111Y3595201D01*
X1920686Y3625901D01*
X2023413Y3685211D01*
X2107289Y3769087D01*
X2166599Y3871814D01*
X2197299Y3986389D01*
X2197300Y3986389D01*
X2197300Y3994446D01*
X2218974Y4046772D01*
X2271300Y4068446D01*
X2323626Y4046772D01*
X2335386Y4031446D01*
X2374908Y3962991D01*
X2374909Y3962990D01*
X2374911Y3962987D01*
X2458787Y3879111D01*
X2458789Y3879110D01*
X2458790Y3879109D01*
X2561512Y3819802D01*
X2561514Y3819801D01*
X2561515Y3819801D01*
X2561517Y3819800D01*
X2618802Y3804451D01*
X2676088Y3789101D01*
X2676089Y3789100D01*
X2676091Y3789100D01*
X2794711Y3789100D01*
X2794711Y3789101D01*
X2909286Y3819801D01*
X3012013Y3879111D01*
X3095889Y3962987D01*
X3155199Y4065714D01*
X3185899Y4180289D01*
X3185900Y4180289D01*
X3185900Y4298911D01*
X3185899Y4298912D01*
X3155200Y4413483D01*
X3155198Y4413488D01*
X3095891Y4516210D01*
X3095890Y4516211D01*
X3095889Y4516213D01*
X3012013Y4600089D01*
X3012010Y4600091D01*
X3012009Y4600092D01*
X2909287Y4659399D01*
X2909282Y4659401D01*
X2794711Y4690100D01*
X2794709Y4690100D01*
X2676091Y4690100D01*
X2671241Y4690100D01*
X2671241Y4690457D01*
X2669979Y4689934D01*
X2647951Y4699059D01*
X2624924Y4705231D01*
X2617653Y4711608D01*
X2597174Y4732087D01*
X2575500Y4784413D01*
X2575500Y5285630D01*
X2575500Y5285636D01*
X2564866Y5358625D01*
X2509826Y5471211D01*
X2421211Y5559826D01*
X2421210Y5559827D01*
X2308626Y5614866D01*
X2235640Y5625500D01*
X2235636Y5625500D01*
X1714364Y5625500D01*
X1714359Y5625500D01*
X1641374Y5614866D01*
X1641373Y5614866D01*
X1528789Y5559827D01*
X1440173Y5471211D01*
X1385134Y5358627D01*
X1385134Y5358626D01*
X1374500Y5285641D01*
X1374500Y4950913D01*
X1352826Y4898587D01*
X1300500Y4876913D01*
X1248174Y4898587D01*
X1063474Y5083287D01*
X1041800Y5135613D01*
X1041800Y7324189D01*
X1063473Y7376514D01*
X1144786Y7457828D01*
X1197112Y7479501D01*
X1632364Y7479501D01*
X1632368Y7479501D01*
X1686769Y7490321D01*
X1748459Y7531541D01*
X1789679Y7593231D01*
X1800500Y7647631D01*
X1800499Y7852368D01*
X1789679Y7906769D01*
X1754853Y7958889D01*
X1743804Y8014436D01*
X1754853Y8041111D01*
X1789679Y8093231D01*
X1800500Y8147631D01*
X1800499Y8352368D01*
X1789679Y8406769D01*
X1754853Y8458889D01*
X1743804Y8514436D01*
X1754853Y8541111D01*
X1789679Y8593231D01*
X1800500Y8647631D01*
X1800499Y8852368D01*
X1797986Y8865000D01*
X1809035Y8920546D01*
X1856126Y8952013D01*
X1884997Y8952013D01*
X1897631Y8949500D01*
X2102368Y8949501D01*
X2156769Y8960321D01*
X2208888Y8995147D01*
X2264436Y9006196D01*
X2291109Y8995148D01*
X2343231Y8960321D01*
X2397631Y8949500D01*
X2602368Y8949501D01*
X2656769Y8960321D01*
X2708888Y8995147D01*
X2764436Y9006196D01*
X2791109Y8995148D01*
X2843231Y8960321D01*
X2897631Y8949500D01*
X3102368Y8949501D01*
X3156769Y8960321D01*
X3208888Y8995147D01*
X3264436Y9006196D01*
X3291109Y8995148D01*
X3343231Y8960321D01*
X3397631Y8949500D01*
X3602368Y8949501D01*
X3614999Y8952014D01*
X3670545Y8940966D01*
X3702012Y8893874D01*
X3702012Y8865003D01*
X3700386Y8856820D01*
X3699500Y8852367D01*
X3699500Y8647637D01*
X3710321Y8593230D01*
X3745145Y8541111D01*
X3756194Y8485562D01*
X3745145Y8458889D01*
X3710321Y8406771D01*
X3710321Y8406769D01*
X3699768Y8353713D01*
X3699500Y8352368D01*
X3699500Y8147637D01*
X3710321Y8093230D01*
X3745145Y8041111D01*
X3756194Y7985562D01*
X3745145Y7958889D01*
X3710321Y7906771D01*
X3699500Y7852368D01*
X3699500Y7647637D01*
X3710321Y7593230D01*
X3745145Y7541111D01*
X3756194Y7485562D01*
X3745145Y7458889D01*
X3710321Y7406771D01*
X3699500Y7352368D01*
X3699500Y7147637D01*
X3710320Y7093232D01*
X3746103Y7039680D01*
X3751541Y7031541D01*
X3813231Y6990321D01*
X3867631Y6979500D01*
X3947243Y6979501D01*
X3999567Y6957828D01*
X4021242Y6905502D01*
X3999569Y6853176D01*
X3966396Y6834023D01*
X3918916Y6821300D01*
X3918912Y6821299D01*
X3816190Y6761992D01*
X3732308Y6678110D01*
X3673001Y6575388D01*
X3672999Y6575383D01*
X3642300Y6460812D01*
X3642300Y6354600D01*
X3620626Y6302274D01*
X3568300Y6280600D01*
X3436613Y6280600D01*
X3384287Y6302274D01*
X3292173Y6394388D01*
X3270499Y6446714D01*
X3270499Y6882364D01*
X3270499Y6882368D01*
X3259679Y6936769D01*
X3218459Y6998459D01*
X3156769Y7039679D01*
X3102369Y7050500D01*
X3102367Y7050500D01*
X2897636Y7050500D01*
X2843231Y7039680D01*
X2781541Y6998460D01*
X2781540Y6998459D01*
X2740321Y6936770D01*
X2729500Y6882368D01*
X2729500Y6317637D01*
X2740320Y6263232D01*
X2781389Y6201768D01*
X2786773Y6191695D01*
X2787635Y6190405D01*
X2787636Y6190403D01*
X3089836Y5888203D01*
X3160303Y5817736D01*
X3252372Y5779600D01*
X3252373Y5779600D01*
X3771227Y5779600D01*
X3771228Y5779600D01*
X3863297Y5817736D01*
X3975054Y5929494D01*
X4027378Y5951167D01*
X4029911Y5951000D01*
X4033491Y5951000D01*
X4152111Y5951000D01*
X4152111Y5951001D01*
X4266686Y5981701D01*
X4369413Y6041011D01*
X4453289Y6124887D01*
X4512599Y6227614D01*
X4543299Y6342189D01*
X4543300Y6342189D01*
X4543300Y6460811D01*
X4543299Y6460812D01*
X4512600Y6575383D01*
X4512598Y6575388D01*
X4453291Y6678110D01*
X4453290Y6678111D01*
X4453289Y6678113D01*
X4369413Y6761989D01*
X4369410Y6761991D01*
X4369409Y6761992D01*
X4266687Y6821299D01*
X4266682Y6821301D01*
X4219202Y6834023D01*
X4174269Y6868501D01*
X4166877Y6924654D01*
X4201355Y6969587D01*
X4238353Y6979501D01*
X4432368Y6979501D01*
X4486769Y6990321D01*
X4548459Y7031541D01*
X4589679Y7093231D01*
X4600500Y7147631D01*
X4600499Y7352368D01*
X4589679Y7406769D01*
X4554853Y7458889D01*
X4552608Y7470174D01*
X4545385Y7479133D01*
X4547748Y7494606D01*
X4543804Y7514436D01*
X4551424Y7535447D01*
X4553005Y7538347D01*
X4589679Y7593231D01*
X4593535Y7612618D01*
X4598949Y7622538D01*
X4612864Y7633758D01*
X4622794Y7648619D01*
X4634080Y7650865D01*
X4643040Y7658088D01*
X4660813Y7656182D01*
X4678343Y7659669D01*
X4698285Y7652164D01*
X4699354Y7652049D01*
X4699686Y7651637D01*
X4700906Y7651178D01*
X4707038Y7647637D01*
X4750510Y7622538D01*
X4751614Y7621901D01*
X4751615Y7621901D01*
X4751617Y7621900D01*
X4781052Y7614013D01*
X4866188Y7591201D01*
X4866189Y7591200D01*
X4866191Y7591200D01*
X4984811Y7591200D01*
X4984811Y7591201D01*
X5099386Y7621901D01*
X5202113Y7681211D01*
X5285989Y7765087D01*
X5345299Y7867814D01*
X5368703Y7955162D01*
X5380462Y7970486D01*
X5387855Y7988333D01*
X5397093Y7992160D01*
X5403181Y8000093D01*
X5422334Y8002615D01*
X5440181Y8010007D01*
X5449418Y8006181D01*
X5459333Y8007486D01*
X5492507Y7988333D01*
X5493526Y7987314D01*
X5515200Y7934988D01*
X5515200Y5944471D01*
X5553334Y5852406D01*
X5553336Y5852403D01*
X5695503Y5710236D01*
X5817826Y5587914D01*
X5839500Y5535588D01*
X5839500Y5272378D01*
X5842269Y5248505D01*
X5842269Y5248503D01*
X5842270Y5248502D01*
X5885384Y5150859D01*
X5960859Y5075384D01*
X6058502Y5032270D01*
X6082377Y5029500D01*
X6437622Y5029501D01*
X6461498Y5032270D01*
X6559141Y5075384D01*
X6634616Y5150859D01*
X6677730Y5248502D01*
X6680500Y5272377D01*
X6680499Y5573068D01*
X6702173Y5625393D01*
X6754499Y5647067D01*
X6773652Y5644545D01*
X6802400Y5636842D01*
X6821588Y5631701D01*
X6821589Y5631700D01*
X6821591Y5631700D01*
X6940211Y5631700D01*
X6940211Y5631701D01*
X7054786Y5662401D01*
X7157513Y5721711D01*
X7241389Y5805587D01*
X7300699Y5908314D01*
X7331399Y6022889D01*
X7331400Y6022889D01*
X7331400Y6141511D01*
X7331399Y6141512D01*
X7300700Y6256083D01*
X7300699Y6256085D01*
X7300699Y6256086D01*
X7274968Y6300652D01*
X7267576Y6356803D01*
X7302054Y6401737D01*
X7327480Y6410740D01*
X7350304Y6414354D01*
X7463342Y6471950D01*
X7553050Y6561658D01*
X7610646Y6674696D01*
X7620526Y6737076D01*
X7650119Y6785367D01*
X7693615Y6799500D01*
X8549827Y6799500D01*
X8549828Y6799500D01*
X8641897Y6837636D01*
X10723175Y8918917D01*
X10775500Y8940590D01*
X10827826Y8918916D01*
X10849500Y8866590D01*
X10849500Y8518481D01*
X10864353Y8424696D01*
X10864354Y8424694D01*
X10901207Y8352368D01*
X10921950Y8311658D01*
X11011658Y8221950D01*
X11124696Y8164354D01*
X11218481Y8149500D01*
X11781518Y8149501D01*
X11781519Y8149501D01*
X11875304Y8164354D01*
X11875306Y8164355D01*
X11880715Y8167111D01*
X11988342Y8221950D01*
X12078050Y8311658D01*
X12135646Y8424696D01*
X12150500Y8518481D01*
X12150499Y11581518D01*
X12150327Y11582601D01*
X12135646Y11675305D01*
X12135645Y11675307D01*
X12105770Y11733939D01*
X12078050Y11788342D01*
X11988342Y11878050D01*
X11875304Y11935646D01*
X11875302Y11935647D01*
X11875301Y11935647D01*
X11781519Y11950500D01*
X11218480Y11950500D01*
X11124695Y11935647D01*
X11124693Y11935646D01*
X11011657Y11878050D01*
X10921951Y11788344D01*
X10864353Y11675302D01*
X10849500Y11581520D01*
X10849500Y9784413D01*
X10827826Y9732087D01*
X8417913Y7322174D01*
X8365587Y7300500D01*
X7693614Y7300500D01*
X7641288Y7322174D01*
X7620525Y7362925D01*
X7610646Y7425305D01*
X7610645Y7425307D01*
X7568291Y7508430D01*
X7553050Y7538342D01*
X7463342Y7628050D01*
X7350304Y7685646D01*
X7350302Y7685647D01*
X7350301Y7685647D01*
X7256519Y7700500D01*
X6243480Y7700500D01*
X6149696Y7685647D01*
X6123795Y7672449D01*
X6067332Y7668006D01*
X6024265Y7704789D01*
X6016200Y7738384D01*
X6016200Y8010952D01*
X6016201Y8010961D01*
X6016201Y8119229D01*
X6003661Y8149501D01*
X5984281Y8196287D01*
X5978064Y8211297D01*
X5907597Y8281764D01*
X5907595Y8281765D01*
X5226997Y8962364D01*
X5226996Y8962365D01*
X5132744Y9001405D01*
X5092696Y9041454D01*
X5092696Y9098091D01*
X5096978Y9106773D01*
X5103247Y9117631D01*
X5118999Y9144914D01*
X5149699Y9259489D01*
X5149700Y9259489D01*
X5149700Y9378111D01*
X5149699Y9378112D01*
X5119000Y9492683D01*
X5118998Y9492688D01*
X5090643Y9541800D01*
X5083250Y9597952D01*
X5117729Y9642886D01*
X5154729Y9652800D01*
X6713127Y9652800D01*
X6713128Y9652800D01*
X6805197Y9690936D01*
X7162087Y10047828D01*
X7214413Y10069501D01*
X7477622Y10069501D01*
X7501498Y10072270D01*
X7599141Y10115384D01*
X7674616Y10190859D01*
X7717730Y10288502D01*
X7720500Y10312377D01*
X7720499Y10575589D01*
X7742172Y10627913D01*
X7969088Y10854830D01*
X7969091Y10854831D01*
X7979496Y10865236D01*
X7979497Y10865236D01*
X8049964Y10935703D01*
X8088100Y11027772D01*
X8088100Y11810070D01*
X8088101Y11810072D01*
X8088101Y11897567D01*
X8094449Y11912893D01*
X8109775Y11949892D01*
X8162101Y11971566D01*
X8162102Y11971566D01*
X8181254Y11969044D01*
X8181413Y11969002D01*
X8181414Y11969001D01*
X8295988Y11938301D01*
X8295989Y11938300D01*
X8295991Y11938300D01*
X8414611Y11938300D01*
X8414611Y11938301D01*
X8529186Y11969001D01*
X8631913Y12028311D01*
X8715789Y12112187D01*
X8775099Y12214914D01*
X8804103Y12323161D01*
X8838581Y12368092D01*
X8894733Y12375485D01*
X8927907Y12356332D01*
X8982203Y12302036D01*
X9074272Y12263900D01*
X9074273Y12263900D01*
X11554227Y12263900D01*
X11554228Y12263900D01*
X11646297Y12302036D01*
X12352086Y13007828D01*
X12404412Y13029501D01*
X12667622Y13029501D01*
X12691498Y13032270D01*
X12789141Y13075384D01*
X12864616Y13150859D01*
X12907730Y13248502D01*
X12910500Y13272377D01*
X12910499Y13727622D01*
X12907730Y13751498D01*
X12864616Y13849141D01*
X12789141Y13924616D01*
X12789139Y13924617D01*
X12789137Y13924619D01*
X12784609Y13926618D01*
X12745497Y13967581D01*
X12740500Y13994312D01*
X12740500Y14205501D01*
X12762174Y14257827D01*
X12814500Y14279501D01*
X12917622Y14279501D01*
X12941498Y14282270D01*
X13039141Y14325384D01*
X13114616Y14400859D01*
X13157730Y14498502D01*
X13160500Y14522377D01*
X13160499Y14977620D01*
X13339500Y14977620D01*
X13339500Y14522378D01*
X13342269Y14498505D01*
X13342269Y14498503D01*
X13342270Y14498502D01*
X13385384Y14400859D01*
X13460859Y14325384D01*
X13558502Y14282270D01*
X13582377Y14279500D01*
X13937622Y14279501D01*
X13961498Y14282270D01*
X14059141Y14325384D01*
X14134616Y14400859D01*
X14177730Y14498502D01*
X14177731Y14498507D01*
X14179190Y14503868D01*
X14180767Y14503439D01*
X14198704Y14540544D01*
X14480853Y14822694D01*
X14533178Y14844367D01*
X14535711Y14844200D01*
X14539291Y14844200D01*
X14657911Y14844200D01*
X14657911Y14844201D01*
X14772486Y14874901D01*
X14875213Y14934211D01*
X14959089Y15018087D01*
X15018399Y15120814D01*
X15049099Y15235389D01*
X15049100Y15235389D01*
X15049100Y15354011D01*
X15049099Y15354012D01*
X15018400Y15468583D01*
X15018398Y15468588D01*
X14959091Y15571310D01*
X14959090Y15571311D01*
X14959089Y15571313D01*
X14875213Y15655189D01*
X14875210Y15655191D01*
X14875209Y15655192D01*
X14772487Y15714499D01*
X14772482Y15714501D01*
X14657911Y15745200D01*
X14657909Y15745200D01*
X14539291Y15745200D01*
X14539289Y15745200D01*
X14424717Y15714501D01*
X14424712Y15714499D01*
X14321990Y15655192D01*
X14238108Y15571310D01*
X14178801Y15468588D01*
X14178799Y15468583D01*
X14148100Y15354012D01*
X14148100Y15248904D01*
X14126426Y15196578D01*
X14074100Y15174904D01*
X14044210Y15181209D01*
X13961500Y15217730D01*
X13953539Y15218654D01*
X13937623Y15220500D01*
X13937619Y15220500D01*
X13582377Y15220500D01*
X13558504Y15217731D01*
X13460858Y15174616D01*
X13385385Y15099143D01*
X13342270Y15001499D01*
X13339500Y14977620D01*
X13160499Y14977620D01*
X13160499Y14977622D01*
X13157730Y15001498D01*
X13114616Y15099141D01*
X13039141Y15174616D01*
X12941498Y15217730D01*
X12917623Y15220500D01*
X12917619Y15220500D01*
X12562377Y15220500D01*
X12538504Y15217731D01*
X12440858Y15174616D01*
X12365385Y15099143D01*
X12322270Y15001499D01*
X12319500Y14977620D01*
X12319500Y14714414D01*
X12297827Y14662089D01*
X12277637Y14641899D01*
X12277634Y14641895D01*
X12239500Y14549830D01*
X12239500Y13994312D01*
X12217826Y13941986D01*
X12195391Y13926618D01*
X12190862Y13924619D01*
X12190859Y13924616D01*
X12115384Y13849141D01*
X12072270Y13751498D01*
X12070083Y13732643D01*
X12069500Y13727620D01*
X12069500Y13464413D01*
X12047826Y13412087D01*
X11422313Y12786574D01*
X11369987Y12764900D01*
X11050418Y12764900D01*
X10998092Y12786574D01*
X10976418Y12838900D01*
X10986332Y12875900D01*
X11014398Y12924513D01*
X11014399Y12924514D01*
X11045099Y13039089D01*
X11045100Y13039089D01*
X11045100Y13157711D01*
X11045099Y13157712D01*
X11042443Y13167623D01*
X11016777Y13263412D01*
X11014400Y13272283D01*
X11014398Y13272288D01*
X10955091Y13375010D01*
X10955090Y13375011D01*
X10955089Y13375013D01*
X10871213Y13458889D01*
X10871210Y13458891D01*
X10871209Y13458892D01*
X10768487Y13518199D01*
X10768482Y13518201D01*
X10653911Y13548900D01*
X10653909Y13548900D01*
X10535291Y13548900D01*
X10535289Y13548900D01*
X10420717Y13518201D01*
X10420712Y13518199D01*
X10317990Y13458892D01*
X10230681Y13371583D01*
X10230429Y13371835D01*
X10229907Y13370574D01*
X10207891Y13361455D01*
X10187251Y13349534D01*
X10177581Y13348900D01*
X10048512Y13348900D01*
X9996186Y13370574D01*
X9922173Y13444587D01*
X9900499Y13496913D01*
X9900499Y14194864D01*
X9899265Y14205501D01*
X9897585Y14219991D01*
X9852206Y14322765D01*
X9772765Y14402206D01*
X9669991Y14447585D01*
X9669990Y14447586D01*
X9669988Y14447586D01*
X9648659Y14450060D01*
X9644865Y14450500D01*
X9644864Y14450500D01*
X9255136Y14450500D01*
X9230013Y14447586D01*
X9230007Y14447585D01*
X9127234Y14402206D01*
X9047794Y14322766D01*
X9002414Y14219989D01*
X8999500Y14194865D01*
X8999500Y13171913D01*
X8977826Y13119587D01*
X8925500Y13097913D01*
X8873174Y13119587D01*
X8391674Y13601087D01*
X8370000Y13653413D01*
X8370000Y14386728D01*
X8369999Y14386730D01*
X8362431Y14405000D01*
X8343585Y14450500D01*
X8331865Y14478795D01*
X8331863Y14478798D01*
X7762174Y15048487D01*
X7740500Y15100813D01*
X7740500Y15970512D01*
X10476100Y15970512D01*
X10476100Y15851889D01*
X10506799Y15737318D01*
X10506801Y15737313D01*
X10566108Y15634591D01*
X10566109Y15634590D01*
X10566111Y15634587D01*
X10649987Y15550711D01*
X10649989Y15550710D01*
X10649990Y15550709D01*
X10738686Y15499500D01*
X10752714Y15491401D01*
X10752715Y15491401D01*
X10752717Y15491400D01*
X10803376Y15477826D01*
X10867288Y15460701D01*
X10867289Y15460700D01*
X10925500Y15460700D01*
X10977826Y15439026D01*
X10999500Y15386700D01*
X10999500Y15200233D01*
X10977826Y15147907D01*
X10955391Y15132539D01*
X10912984Y15113814D01*
X10836187Y15037017D01*
X10792318Y14937663D01*
X10789500Y14913370D01*
X10789500Y14546628D01*
X10792317Y14522341D01*
X10792317Y14522339D01*
X10792318Y14522338D01*
X10836187Y14422984D01*
X10912984Y14346187D01*
X11012338Y14302318D01*
X11036627Y14299500D01*
X11463372Y14299501D01*
X11487662Y14302318D01*
X11587016Y14346187D01*
X11663813Y14422984D01*
X11707682Y14522338D01*
X11710500Y14546627D01*
X11710499Y14913372D01*
X11707682Y14937662D01*
X11663813Y15037016D01*
X11587016Y15113813D01*
X11587015Y15113814D01*
X11544609Y15132539D01*
X11505497Y15173502D01*
X11500500Y15200233D01*
X11500500Y15500611D01*
X11522174Y15552937D01*
X11549780Y15570360D01*
X11561462Y15574500D01*
X11569748Y15574500D01*
X11628231Y15586133D01*
X11666571Y15611752D01*
X11675280Y15614838D01*
X11695034Y15613808D01*
X11714435Y15617667D01*
X11727890Y15612095D01*
X11731841Y15611888D01*
X11733896Y15609607D01*
X11741111Y15606619D01*
X11771769Y15586133D01*
X11830252Y15574500D01*
X11830254Y15574500D01*
X11969746Y15574500D01*
X11969748Y15574500D01*
X12028231Y15586133D01*
X12058887Y15606618D01*
X12114435Y15617667D01*
X12141111Y15606619D01*
X12171769Y15586133D01*
X12230252Y15574500D01*
X12230254Y15574500D01*
X12369746Y15574500D01*
X12369748Y15574500D01*
X12428231Y15586133D01*
X12458887Y15606618D01*
X12514435Y15617667D01*
X12541111Y15606619D01*
X12571769Y15586133D01*
X12630252Y15574500D01*
X12630254Y15574500D01*
X12769746Y15574500D01*
X12769748Y15574500D01*
X12828231Y15586133D01*
X12858887Y15606618D01*
X12914435Y15617667D01*
X12941111Y15606619D01*
X12971769Y15586133D01*
X13030252Y15574500D01*
X13030254Y15574500D01*
X13169746Y15574500D01*
X13169748Y15574500D01*
X13228231Y15586133D01*
X13294552Y15630448D01*
X13338867Y15696769D01*
X13350500Y15755252D01*
X13350500Y16244748D01*
X13338867Y16303231D01*
X13337384Y16305450D01*
X13308223Y16349092D01*
X13294552Y16369552D01*
X13258887Y16393383D01*
X13228232Y16413867D01*
X13228233Y16413867D01*
X13198989Y16419684D01*
X13169748Y16425500D01*
X13030252Y16425500D01*
X13001010Y16419684D01*
X12971767Y16413867D01*
X12941112Y16393383D01*
X12885564Y16382334D01*
X12858888Y16393383D01*
X12828231Y16413867D01*
X12828233Y16413867D01*
X12798989Y16419684D01*
X12769748Y16425500D01*
X12630252Y16425500D01*
X12601010Y16419684D01*
X12571767Y16413867D01*
X12541112Y16393383D01*
X12485564Y16382334D01*
X12458888Y16393383D01*
X12428231Y16413867D01*
X12428233Y16413867D01*
X12398989Y16419684D01*
X12369748Y16425500D01*
X12230252Y16425500D01*
X12201010Y16419684D01*
X12171767Y16413867D01*
X12141112Y16393383D01*
X12085564Y16382334D01*
X12058888Y16393383D01*
X12028231Y16413867D01*
X12028233Y16413867D01*
X11998989Y16419684D01*
X11969748Y16425500D01*
X11830252Y16425500D01*
X11801010Y16419684D01*
X11771767Y16413867D01*
X11741112Y16393383D01*
X11685564Y16382334D01*
X11658888Y16393383D01*
X11628231Y16413867D01*
X11628233Y16413867D01*
X11598989Y16419684D01*
X11569748Y16425500D01*
X11499500Y16425500D01*
X11447174Y16447174D01*
X11425500Y16499500D01*
X11425500Y16569747D01*
X11425500Y16569748D01*
X13574500Y16569748D01*
X13574500Y16430252D01*
X13578847Y16408399D01*
X13586133Y16371768D01*
X13613046Y16331492D01*
X13630448Y16305448D01*
X13674560Y16275973D01*
X13696767Y16261134D01*
X13696768Y16261134D01*
X13696769Y16261133D01*
X13755252Y16249500D01*
X13755254Y16249500D01*
X14244746Y16249500D01*
X14244748Y16249500D01*
X14303231Y16261133D01*
X14369552Y16305448D01*
X14413867Y16371769D01*
X14425500Y16430252D01*
X14425500Y16569748D01*
X14413867Y16628231D01*
X14411890Y16631189D01*
X14393493Y16658722D01*
X14369552Y16694552D01*
X14347343Y16709392D01*
X14303232Y16738867D01*
X14303233Y16738867D01*
X14273989Y16744684D01*
X14244748Y16750500D01*
X13755252Y16750500D01*
X13726010Y16744684D01*
X13696767Y16738867D01*
X13630449Y16694553D01*
X13630447Y16694551D01*
X13586133Y16628233D01*
X13580928Y16602065D01*
X13574500Y16569748D01*
X11425500Y16569748D01*
X11414510Y16625000D01*
X11705000Y16625000D01*
X13295000Y16625000D01*
X13295000Y18375000D01*
X11705000Y18375000D01*
X11705000Y16625000D01*
X11414510Y16625000D01*
X11413867Y16628231D01*
X11411890Y16631189D01*
X11393493Y16658722D01*
X11369552Y16694552D01*
X11347343Y16709392D01*
X11303232Y16738867D01*
X11303233Y16738867D01*
X11273989Y16744684D01*
X11244748Y16750500D01*
X10755252Y16750500D01*
X10726010Y16744684D01*
X10696767Y16738867D01*
X10630449Y16694553D01*
X10630447Y16694551D01*
X10586133Y16628233D01*
X10580928Y16602065D01*
X10574500Y16569748D01*
X10574500Y16430252D01*
X10578847Y16408399D01*
X10586133Y16371768D01*
X10618055Y16323995D01*
X10629105Y16268447D01*
X10608854Y16230557D01*
X10566108Y16187810D01*
X10506801Y16085088D01*
X10506799Y16085083D01*
X10476100Y15970512D01*
X7740500Y15970512D01*
X7740500Y17463370D01*
X9299500Y17463370D01*
X9299500Y17036628D01*
X9302317Y17012341D01*
X9302317Y17012339D01*
X9302318Y17012338D01*
X9346187Y16912984D01*
X9422984Y16836187D01*
X9522338Y16792318D01*
X9546627Y16789500D01*
X9913372Y16789501D01*
X9937662Y16792318D01*
X10037016Y16836187D01*
X10113813Y16912984D01*
X10157682Y17012338D01*
X10157682Y17012347D01*
X10159142Y17017706D01*
X10161740Y17017000D01*
X10184846Y17058498D01*
X10230804Y17074500D01*
X10654316Y17074500D01*
X10689940Y17063694D01*
X10690035Y17063922D01*
X10692356Y17062961D01*
X10695427Y17062029D01*
X10696767Y17061134D01*
X10696769Y17061133D01*
X10755252Y17049500D01*
X10755254Y17049500D01*
X11244746Y17049500D01*
X11244748Y17049500D01*
X11303231Y17061133D01*
X11369552Y17105448D01*
X11413867Y17171769D01*
X11425500Y17230252D01*
X11425500Y17369748D01*
X11413867Y17428231D01*
X11399894Y17449142D01*
X11379415Y17479791D01*
X11369552Y17494552D01*
X11323236Y17525500D01*
X11303232Y17538867D01*
X11303233Y17538867D01*
X11273989Y17544684D01*
X11244748Y17550500D01*
X10755252Y17550500D01*
X10726010Y17544684D01*
X10696767Y17538867D01*
X10695427Y17537971D01*
X10692356Y17537040D01*
X10690035Y17536078D01*
X10689940Y17536307D01*
X10654316Y17525500D01*
X10191323Y17525500D01*
X10171295Y17528262D01*
X10168862Y17528946D01*
X10124355Y17563973D01*
X10121202Y17570281D01*
X10113813Y17587016D01*
X10037016Y17663813D01*
X9937662Y17707682D01*
X9937663Y17707682D01*
X9932804Y17708246D01*
X9913373Y17710500D01*
X9913369Y17710500D01*
X9546627Y17710500D01*
X9522340Y17707683D01*
X9422983Y17663813D01*
X9346187Y17587017D01*
X9302318Y17487663D01*
X9299500Y17463370D01*
X7740500Y17463370D01*
X7740500Y18005689D01*
X7762174Y18058015D01*
X7784608Y18073383D01*
X7789141Y18075384D01*
X7864616Y18150859D01*
X7907730Y18248502D01*
X7910500Y18272377D01*
X7910499Y18535589D01*
X7932172Y18587913D01*
X7963175Y18618916D01*
X8015500Y18640589D01*
X8067826Y18618915D01*
X8089500Y18566589D01*
X8089500Y18272378D01*
X8092269Y18248505D01*
X8092269Y18248503D01*
X8092270Y18248502D01*
X8135384Y18150859D01*
X8210859Y18075384D01*
X8308502Y18032270D01*
X8332377Y18029500D01*
X8687622Y18029501D01*
X8711498Y18032270D01*
X8809141Y18075384D01*
X8884616Y18150859D01*
X8927730Y18248502D01*
X8930500Y18272377D01*
X8930499Y18535589D01*
X8952172Y18587913D01*
X9276988Y18912730D01*
X9276991Y18912731D01*
X9287396Y18923136D01*
X9287397Y18923136D01*
X9357864Y18993603D01*
X9389017Y19068813D01*
X9393150Y19078789D01*
X9396001Y19085673D01*
X9396001Y19191286D01*
X9396000Y19191300D01*
X9396000Y19490120D01*
X9417674Y19542446D01*
X9470000Y19564120D01*
X9499890Y19557815D01*
X9512338Y19552318D01*
X9536627Y19549500D01*
X9963372Y19549501D01*
X9987662Y19552318D01*
X10047627Y19578796D01*
X10077516Y19585100D01*
X10114200Y19585100D01*
X10166526Y19563426D01*
X10188200Y19511100D01*
X10188200Y18298171D01*
X10226334Y18206106D01*
X10226335Y18206104D01*
X10226336Y18206103D01*
X10544803Y17887636D01*
X10636872Y17849500D01*
X10636873Y17849500D01*
X11244746Y17849500D01*
X11244748Y17849500D01*
X11303231Y17861133D01*
X11369552Y17905448D01*
X11413867Y17971769D01*
X11425500Y18030252D01*
X11425500Y18169748D01*
X11413867Y18228231D01*
X11393382Y18258888D01*
X11382333Y18314435D01*
X11385955Y18326854D01*
X11388888Y18334387D01*
X11413867Y18371769D01*
X11425500Y18430252D01*
X11425500Y18501836D01*
X11425549Y18503185D01*
X11436810Y18527806D01*
X11447174Y18552826D01*
X11448506Y18553379D01*
X11449107Y18554690D01*
X11474478Y18564136D01*
X11499500Y18574500D01*
X11569746Y18574500D01*
X11569748Y18574500D01*
X11628231Y18586133D01*
X11658887Y18606618D01*
X11714435Y18617667D01*
X11741111Y18606619D01*
X11771769Y18586133D01*
X11830252Y18574500D01*
X11830254Y18574500D01*
X11969746Y18574500D01*
X11969748Y18574500D01*
X12028231Y18586133D01*
X12058887Y18606618D01*
X12114435Y18617667D01*
X12141111Y18606619D01*
X12171769Y18586133D01*
X12230252Y18574500D01*
X12230254Y18574500D01*
X12369746Y18574500D01*
X12369748Y18574500D01*
X12428231Y18586133D01*
X12458887Y18606618D01*
X12514435Y18617667D01*
X12541111Y18606619D01*
X12571769Y18586133D01*
X12630252Y18574500D01*
X12630254Y18574500D01*
X12769746Y18574500D01*
X12769748Y18574500D01*
X12828231Y18586133D01*
X12858887Y18606618D01*
X12914435Y18617667D01*
X12941111Y18606619D01*
X12971769Y18586133D01*
X13030252Y18574500D01*
X13030254Y18574500D01*
X13169746Y18574500D01*
X13169748Y18574500D01*
X13228231Y18586133D01*
X13258887Y18606618D01*
X13314435Y18617667D01*
X13341111Y18606619D01*
X13371769Y18586133D01*
X13430252Y18574500D01*
X13430254Y18574500D01*
X13500500Y18574500D01*
X13552826Y18552826D01*
X13574500Y18500500D01*
X13574500Y18430252D01*
X13576025Y18422586D01*
X13586133Y18371768D01*
X13606617Y18341112D01*
X13617666Y18285564D01*
X13606617Y18258888D01*
X13586133Y18228233D01*
X13579521Y18194991D01*
X13574500Y18169748D01*
X13574500Y18030252D01*
X13582255Y17991264D01*
X13586133Y17971768D01*
X13606617Y17941112D01*
X13617666Y17885564D01*
X13606617Y17858888D01*
X13586133Y17828233D01*
X13586133Y17828231D01*
X13574500Y17769748D01*
X13574500Y17630252D01*
X13576889Y17618244D01*
X13586133Y17571768D01*
X13606617Y17541112D01*
X13617666Y17485564D01*
X13606617Y17458888D01*
X13586133Y17428233D01*
X13574500Y17369747D01*
X13574500Y17230254D01*
X13586133Y17171768D01*
X13606759Y17140900D01*
X13630448Y17105448D01*
X13664817Y17082483D01*
X13696767Y17061134D01*
X13696768Y17061134D01*
X13696769Y17061133D01*
X13755252Y17049500D01*
X13755254Y17049500D01*
X14244746Y17049500D01*
X14244748Y17049500D01*
X14303231Y17061133D01*
X14369552Y17105448D01*
X14413867Y17171769D01*
X14425500Y17230252D01*
X14425500Y17369748D01*
X14425500Y17373383D01*
X14426168Y17373383D01*
X14425291Y17375500D01*
X14434838Y17398551D01*
X14442077Y17422432D01*
X14445485Y17424256D01*
X14446965Y17427826D01*
X14470017Y17437375D01*
X14492021Y17449142D01*
X14499291Y17449500D01*
X14563334Y17449500D01*
X14615660Y17427826D01*
X14634812Y17394654D01*
X14642700Y17365217D01*
X14642701Y17365213D01*
X14702008Y17262491D01*
X14702009Y17262490D01*
X14702011Y17262487D01*
X14785887Y17178611D01*
X14785889Y17178610D01*
X14785890Y17178609D01*
X14882115Y17123053D01*
X14888614Y17119301D01*
X14888615Y17119301D01*
X14888617Y17119300D01*
X14940306Y17105450D01*
X15003188Y17088601D01*
X15003189Y17088600D01*
X15003191Y17088600D01*
X15121811Y17088600D01*
X15121811Y17088601D01*
X15236386Y17119301D01*
X15339113Y17178611D01*
X15422989Y17262487D01*
X15482299Y17365214D01*
X15512999Y17479789D01*
X15513000Y17479789D01*
X15513000Y17598411D01*
X15512999Y17598412D01*
X15508601Y17614824D01*
X15483720Y17707683D01*
X15482300Y17712983D01*
X15482298Y17712988D01*
X15422991Y17815710D01*
X15422990Y17815711D01*
X15422989Y17815713D01*
X15339113Y17899589D01*
X15339110Y17899591D01*
X15339109Y17899592D01*
X15236387Y17958899D01*
X15236382Y17958901D01*
X15121811Y17989600D01*
X15121809Y17989600D01*
X15003191Y17989600D01*
X15003189Y17989600D01*
X14999443Y17989107D01*
X14994508Y17990430D01*
X14989788Y17988474D01*
X14967763Y17997597D01*
X14944736Y18003767D01*
X14942181Y18008192D01*
X14937461Y18010147D01*
X14928337Y18032173D01*
X14916419Y18052817D01*
X14917741Y18057752D01*
X14915786Y18062472D01*
X14924908Y18084497D01*
X14931079Y18107524D01*
X14937459Y18114799D01*
X14957652Y18134993D01*
X15009976Y18156667D01*
X15012510Y18156500D01*
X15016091Y18156500D01*
X15134711Y18156500D01*
X15134711Y18156501D01*
X15249286Y18187201D01*
X15352013Y18246511D01*
X15435889Y18330387D01*
X15495199Y18433114D01*
X15525899Y18547689D01*
X15525900Y18547689D01*
X15525900Y18666311D01*
X15525899Y18666312D01*
X15518332Y18694551D01*
X15503657Y18749321D01*
X15495200Y18780883D01*
X15495198Y18780888D01*
X15435891Y18883610D01*
X15435890Y18883611D01*
X15435889Y18883613D01*
X15352013Y18967489D01*
X15352010Y18967491D01*
X15352009Y18967492D01*
X15249287Y19026799D01*
X15249282Y19026801D01*
X15134711Y19057500D01*
X15134709Y19057500D01*
X15016091Y19057500D01*
X15016089Y19057500D01*
X14901517Y19026801D01*
X14901512Y19026799D01*
X14798790Y18967492D01*
X14714908Y18883610D01*
X14655601Y18780888D01*
X14655599Y18780883D01*
X14624900Y18666312D01*
X14624900Y18542841D01*
X14624544Y18542841D01*
X14625066Y18541580D01*
X14615944Y18519558D01*
X14609774Y18496531D01*
X14603392Y18489254D01*
X14551826Y18437688D01*
X14499500Y18416014D01*
X14447174Y18437688D01*
X14425500Y18490014D01*
X14425500Y18569747D01*
X14422241Y18586133D01*
X14413867Y18628231D01*
X14411226Y18632183D01*
X14399027Y18650440D01*
X14369552Y18694552D01*
X14347343Y18709392D01*
X14303232Y18738867D01*
X14296500Y18741655D01*
X14298092Y18745500D01*
X14262953Y18769001D01*
X14250500Y18810086D01*
X14250500Y18997499D01*
X14272174Y19049825D01*
X14287497Y19061584D01*
X14384713Y19117711D01*
X14468589Y19201587D01*
X14527899Y19304314D01*
X14558600Y19418891D01*
X14558600Y19537509D01*
X14558600Y19537511D01*
X14558599Y19537512D01*
X14552619Y19559828D01*
X14538326Y19613171D01*
X14527900Y19652083D01*
X14527898Y19652088D01*
X14468591Y19754810D01*
X14468590Y19754811D01*
X14468589Y19754813D01*
X14384713Y19838689D01*
X14384710Y19838691D01*
X14384709Y19838692D01*
X14281987Y19897999D01*
X14281982Y19898001D01*
X14167411Y19928700D01*
X14167409Y19928700D01*
X14048791Y19928700D01*
X14048789Y19928700D01*
X13934217Y19898001D01*
X13934212Y19897999D01*
X13831490Y19838692D01*
X13747608Y19754810D01*
X13688301Y19652088D01*
X13688299Y19652083D01*
X13657600Y19537512D01*
X13657600Y19498195D01*
X13635926Y19445869D01*
X13583600Y19424195D01*
X13573368Y19425201D01*
X13573363Y19425144D01*
X13569750Y19425500D01*
X13569748Y19425500D01*
X13430252Y19425500D01*
X13401010Y19419684D01*
X13371767Y19413867D01*
X13341112Y19393383D01*
X13285564Y19382334D01*
X13258888Y19393383D01*
X13228231Y19413867D01*
X13228233Y19413867D01*
X13198989Y19419684D01*
X13169748Y19425500D01*
X13030252Y19425500D01*
X13001010Y19419684D01*
X12971767Y19413867D01*
X12941112Y19393383D01*
X12885564Y19382334D01*
X12858888Y19393383D01*
X12828231Y19413867D01*
X12828233Y19413867D01*
X12798989Y19419684D01*
X12769748Y19425500D01*
X12630252Y19425500D01*
X12601010Y19419684D01*
X12571767Y19413867D01*
X12541112Y19393383D01*
X12485564Y19382334D01*
X12458888Y19393383D01*
X12428231Y19413867D01*
X12428233Y19413867D01*
X12398989Y19419684D01*
X12369748Y19425500D01*
X12230252Y19425500D01*
X12201010Y19419684D01*
X12171767Y19413867D01*
X12141112Y19393383D01*
X12085564Y19382334D01*
X12058888Y19393383D01*
X12028231Y19413867D01*
X12028233Y19413867D01*
X11998989Y19419684D01*
X11969748Y19425500D01*
X11830252Y19425500D01*
X11801010Y19419684D01*
X11771767Y19413867D01*
X11741112Y19393383D01*
X11685564Y19382334D01*
X11658888Y19393383D01*
X11628231Y19413867D01*
X11628233Y19413867D01*
X11598989Y19419684D01*
X11569748Y19425500D01*
X11535953Y19425500D01*
X11483627Y19447174D01*
X11461953Y19499500D01*
X11483626Y19551825D01*
X11490789Y19558987D01*
X11550099Y19661714D01*
X11580799Y19776289D01*
X11580800Y19776289D01*
X11580800Y19894911D01*
X11580799Y19894912D01*
X11579660Y19899161D01*
X11550099Y20009486D01*
X11542422Y20022783D01*
X11490791Y20112210D01*
X11490790Y20112211D01*
X11490789Y20112213D01*
X11406913Y20196089D01*
X11406910Y20196091D01*
X11406909Y20196092D01*
X11304187Y20255399D01*
X11304182Y20255401D01*
X11189611Y20286100D01*
X11189609Y20286100D01*
X11070991Y20286100D01*
X11070989Y20286100D01*
X10956417Y20255401D01*
X10956412Y20255399D01*
X10853690Y20196092D01*
X10766381Y20108783D01*
X10764457Y20110707D01*
X10722951Y20086734D01*
X10713281Y20086100D01*
X10284499Y20086100D01*
X10232173Y20107774D01*
X10210499Y20160100D01*
X10210499Y20163373D01*
X10208530Y20180348D01*
X10207682Y20187662D01*
X10163813Y20287016D01*
X10087016Y20363813D01*
X10038969Y20385028D01*
X9999857Y20425990D01*
X10001165Y20482612D01*
X10004766Y20489710D01*
X10043799Y20557314D01*
X10074499Y20671889D01*
X10074500Y20671889D01*
X10074500Y20790511D01*
X10074499Y20790512D01*
X10073620Y20793791D01*
X10053772Y20867865D01*
X10043800Y20905083D01*
X10043798Y20905088D01*
X9984491Y21007810D01*
X9984490Y21007811D01*
X9984489Y21007813D01*
X9900613Y21091689D01*
X9900610Y21091691D01*
X9900609Y21091692D01*
X9797887Y21150999D01*
X9797883Y21151000D01*
X9720376Y21171769D01*
X9675444Y21206248D01*
X9668052Y21262400D01*
X9672770Y21280008D01*
X9699399Y21379389D01*
X9699400Y21379389D01*
X9699400Y21498011D01*
X9699399Y21498012D01*
X9668700Y21612583D01*
X9668698Y21612588D01*
X9609391Y21715310D01*
X9609390Y21715311D01*
X9609389Y21715313D01*
X9525513Y21799189D01*
X9525510Y21799191D01*
X9525509Y21799192D01*
X9434990Y21851453D01*
X9400511Y21896386D01*
X9404296Y21945430D01*
X9418903Y21978512D01*
X9427730Y21998502D01*
X9430500Y22022377D01*
X9430499Y22285588D01*
X9430742Y22286173D01*
X9442889Y22315499D01*
X9452173Y22337913D01*
X9452174Y22337914D01*
X9482088Y22367827D01*
X9489642Y22370956D01*
X9534413Y22389500D01*
X9715587Y22389500D01*
X9767913Y22367826D01*
X10257826Y21877913D01*
X10279500Y21825587D01*
X10279500Y21562378D01*
X10282269Y21538505D01*
X10282269Y21538503D01*
X10282270Y21538502D01*
X10325384Y21440859D01*
X10400859Y21365384D01*
X10498502Y21322270D01*
X10522377Y21319500D01*
X10977622Y21319501D01*
X11001498Y21322270D01*
X11099141Y21365384D01*
X11174616Y21440859D01*
X11217730Y21538502D01*
X11220500Y21562377D01*
X11220499Y21917622D01*
X11217730Y21941498D01*
X11174616Y22039141D01*
X11099141Y22114616D01*
X11001498Y22157730D01*
X10977623Y22160500D01*
X10977619Y22160500D01*
X10714413Y22160500D01*
X10662087Y22182174D01*
X9991898Y22852363D01*
X9991894Y22852366D01*
X9899828Y22890500D01*
X9891775Y22890500D01*
X9839449Y22912174D01*
X9817775Y22964500D01*
X9827688Y23001499D01*
X9855699Y23050014D01*
X9886399Y23164589D01*
X9886400Y23164589D01*
X9886400Y23283211D01*
X9886399Y23283212D01*
X9882647Y23297213D01*
X9855699Y23397786D01*
X9852046Y23404113D01*
X9796391Y23500510D01*
X9796390Y23500511D01*
X9796389Y23500513D01*
X9712513Y23584389D01*
X9687498Y23598832D01*
X9653021Y23643767D01*
X9650500Y23662917D01*
X9650500Y23913185D01*
X9670046Y23963293D01*
X9676034Y23969801D01*
X9708504Y23991496D01*
X9741662Y24041122D01*
X9745546Y24045342D01*
X9766426Y24055026D01*
X9785562Y24067812D01*
X9791466Y24066638D01*
X9796927Y24069170D01*
X9818539Y24061253D01*
X9841111Y24056763D01*
X9847074Y24050800D01*
X9850108Y24049688D01*
X9851770Y24046104D01*
X9861529Y24036345D01*
X9891493Y23991499D01*
X9891496Y23991496D01*
X9916612Y23974714D01*
X9948078Y23927622D01*
X9949500Y23913185D01*
X9949500Y23793471D01*
X9987634Y23701406D01*
X9987637Y23701402D01*
X10063257Y23625782D01*
X10060539Y23623065D01*
X10084473Y23587270D01*
X10085900Y23572809D01*
X10085900Y23570089D01*
X10116599Y23455518D01*
X10116601Y23455513D01*
X10175908Y23352791D01*
X10175909Y23352790D01*
X10175911Y23352787D01*
X10259787Y23268911D01*
X10259789Y23268910D01*
X10259790Y23268909D01*
X10352404Y23215438D01*
X10362514Y23209601D01*
X10362515Y23209601D01*
X10362517Y23209600D01*
X10393120Y23201400D01*
X10477088Y23178901D01*
X10477089Y23178900D01*
X10477091Y23178900D01*
X10595711Y23178900D01*
X10595711Y23178901D01*
X10710286Y23209601D01*
X10813013Y23268911D01*
X10896889Y23352787D01*
X10956199Y23455514D01*
X10986899Y23570089D01*
X10986900Y23570089D01*
X10986900Y23688711D01*
X10986899Y23688712D01*
X10986764Y23689214D01*
X10969971Y23751888D01*
X10956200Y23803283D01*
X10956198Y23803288D01*
X10896891Y23906010D01*
X10896890Y23906011D01*
X10896889Y23906013D01*
X10813013Y23989889D01*
X10813010Y23989891D01*
X10813009Y23989892D01*
X10710287Y24049199D01*
X10710282Y24049201D01*
X10605347Y24077319D01*
X10560414Y24111798D01*
X10550500Y24148797D01*
X10550500Y24914820D01*
X11449500Y24914820D01*
X11449500Y24085180D01*
X11451449Y24075384D01*
X11458233Y24041278D01*
X11487284Y23997799D01*
X11491496Y23991496D01*
X11541278Y23958233D01*
X11585180Y23949500D01*
X11585181Y23949500D01*
X12014819Y23949500D01*
X12014820Y23949500D01*
X12058722Y23958233D01*
X12108504Y23991496D01*
X12109819Y23993466D01*
X12138471Y24036345D01*
X12185562Y24067812D01*
X12241111Y24056763D01*
X12254454Y24045342D01*
X12258337Y24041122D01*
X12291496Y23991496D01*
X12323965Y23969801D01*
X12329954Y23963293D01*
X12336884Y23944374D01*
X12348078Y23927622D01*
X12349500Y23913185D01*
X12349500Y23907231D01*
X12339586Y23870231D01*
X12296201Y23795088D01*
X12296199Y23795083D01*
X12265500Y23680512D01*
X12265500Y23561889D01*
X12296199Y23447318D01*
X12296201Y23447313D01*
X12355508Y23344591D01*
X12355509Y23344590D01*
X12355511Y23344587D01*
X12439387Y23260711D01*
X12439389Y23260710D01*
X12439390Y23260709D01*
X12541941Y23201501D01*
X12542114Y23201401D01*
X12542115Y23201401D01*
X12542117Y23201400D01*
X12567921Y23194486D01*
X12656688Y23170701D01*
X12656689Y23170700D01*
X12656691Y23170700D01*
X12775311Y23170700D01*
X12775311Y23170701D01*
X12889886Y23201401D01*
X12992613Y23260711D01*
X13076489Y23344587D01*
X13135799Y23447314D01*
X13166499Y23561889D01*
X13166500Y23561889D01*
X13166500Y23680511D01*
X13166499Y23680512D01*
X13166472Y23680611D01*
X13147375Y23751883D01*
X13135800Y23795083D01*
X13135798Y23795088D01*
X13110328Y23839203D01*
X13102935Y23895355D01*
X13137414Y23940289D01*
X13181675Y23949846D01*
X13185176Y23949501D01*
X13185180Y23949500D01*
X13185184Y23949500D01*
X13614819Y23949500D01*
X13614820Y23949500D01*
X13658722Y23958233D01*
X13708504Y23991496D01*
X13709819Y23993466D01*
X13738471Y24036345D01*
X13785562Y24067812D01*
X13841111Y24056763D01*
X13854454Y24045342D01*
X13858337Y24041122D01*
X13891496Y23991496D01*
X13923965Y23969801D01*
X13929954Y23963293D01*
X13936884Y23944374D01*
X13948078Y23927622D01*
X13949500Y23913185D01*
X13949500Y23721319D01*
X13927826Y23668993D01*
X13925917Y23667320D01*
X13839508Y23580910D01*
X13780201Y23478188D01*
X13780199Y23478183D01*
X13749500Y23363612D01*
X13749500Y23244989D01*
X13780199Y23130418D01*
X13780201Y23130413D01*
X13839508Y23027691D01*
X13839509Y23027690D01*
X13839511Y23027687D01*
X13923387Y22943811D01*
X13923393Y22943808D01*
X13924599Y22942882D01*
X13924907Y22942348D01*
X13925500Y22942179D01*
X13926103Y22941096D01*
X13926817Y22940382D01*
X13926613Y22940179D01*
X13938998Y22917942D01*
X13952917Y22893832D01*
X13952757Y22893237D01*
X13953057Y22892698D01*
X13951128Y22887160D01*
X13938258Y22839125D01*
X13937555Y22838224D01*
X13934894Y22834866D01*
X13872794Y22772765D01*
X13856543Y22735960D01*
X13850673Y22728550D01*
X13833565Y22719023D01*
X13819401Y22705497D01*
X13804165Y22702650D01*
X13801192Y22700993D01*
X13798858Y22701658D01*
X13792668Y22700500D01*
X13207332Y22700500D01*
X13155006Y22722174D01*
X13139637Y22744611D01*
X13127206Y22772765D01*
X13047765Y22852206D01*
X13000222Y22873198D01*
X12944991Y22897585D01*
X12944990Y22897586D01*
X12944988Y22897586D01*
X12923659Y22900060D01*
X12919865Y22900500D01*
X12919864Y22900500D01*
X11805136Y22900500D01*
X11780013Y22897586D01*
X11780007Y22897585D01*
X11677234Y22852206D01*
X11597794Y22772766D01*
X11552414Y22669989D01*
X11549500Y22644865D01*
X11549500Y22255137D01*
X11552414Y22230014D01*
X11552415Y22230008D01*
X11565886Y22199500D01*
X11597794Y22127235D01*
X11677235Y22047794D01*
X11780009Y22002415D01*
X11805135Y21999500D01*
X12919864Y21999501D01*
X12944991Y22002415D01*
X13047765Y22047794D01*
X13127206Y22127235D01*
X13139637Y22155390D01*
X13180599Y22194503D01*
X13207332Y22199500D01*
X13792668Y22199500D01*
X13844994Y22177826D01*
X13860363Y22155389D01*
X13872793Y22127236D01*
X13952235Y22047794D01*
X13963784Y22042694D01*
X14002896Y22001731D01*
X14001587Y21945109D01*
X13963784Y21907306D01*
X13952235Y21902207D01*
X13872794Y21822766D01*
X13827414Y21719989D01*
X13824500Y21694865D01*
X13824500Y21305137D01*
X13827414Y21280014D01*
X13827415Y21280008D01*
X13872794Y21177235D01*
X13952235Y21097794D01*
X13963784Y21092694D01*
X14002896Y21051731D01*
X14001587Y20995109D01*
X13963784Y20957306D01*
X13952235Y20952207D01*
X13872793Y20872765D01*
X13860363Y20844611D01*
X13819401Y20805497D01*
X13792668Y20800500D01*
X13207332Y20800500D01*
X13155006Y20822174D01*
X13139637Y20844611D01*
X13127206Y20872765D01*
X13047765Y20952206D01*
X13047763Y20952207D01*
X12944991Y20997585D01*
X12944990Y20997586D01*
X12944988Y20997586D01*
X12923659Y21000060D01*
X12919865Y21000500D01*
X12919864Y21000500D01*
X11805136Y21000500D01*
X11780013Y20997586D01*
X11780007Y20997585D01*
X11677234Y20952206D01*
X11597794Y20872766D01*
X11552414Y20769989D01*
X11549500Y20744865D01*
X11549500Y20355137D01*
X11552414Y20330014D01*
X11552415Y20330008D01*
X11585358Y20255399D01*
X11597794Y20227235D01*
X11677235Y20147794D01*
X11780009Y20102415D01*
X11805135Y20099500D01*
X12919864Y20099501D01*
X12944991Y20102415D01*
X13047765Y20147794D01*
X13127206Y20227235D01*
X13139637Y20255390D01*
X13180599Y20294503D01*
X13207332Y20299500D01*
X13792668Y20299500D01*
X13844994Y20277826D01*
X13860363Y20255389D01*
X13872793Y20227236D01*
X13872794Y20227235D01*
X13952235Y20147794D01*
X14055009Y20102415D01*
X14080135Y20099500D01*
X14538886Y20099501D01*
X14591212Y20077827D01*
X15801126Y18867914D01*
X15822800Y18815588D01*
X15822800Y17900171D01*
X15860934Y17808106D01*
X15860935Y17808104D01*
X15860936Y17808103D01*
X15931403Y17737636D01*
X16023472Y17699500D01*
X16106194Y17699500D01*
X16158520Y17677826D01*
X16180194Y17625500D01*
X16179837Y17618244D01*
X16179500Y17614824D01*
X16179500Y17285181D01*
X16188232Y17241280D01*
X16188234Y17241276D01*
X16188347Y17241107D01*
X16188397Y17240883D01*
X16191022Y17234546D01*
X16189915Y17234088D01*
X16199993Y17189004D01*
X16197534Y17172644D01*
X16188233Y17158722D01*
X16179500Y17114820D01*
X16179500Y17052628D01*
X16178678Y17047157D01*
X16166709Y17027274D01*
X16157826Y17005827D01*
X16152462Y17003606D01*
X16149469Y16998632D01*
X16126943Y16993036D01*
X16105500Y16984153D01*
X16100136Y16986375D01*
X16094504Y16984975D01*
X16074620Y16996944D01*
X16053175Y17005827D01*
X16008013Y17050989D01*
X16008010Y17050991D01*
X16008009Y17050992D01*
X15905287Y17110299D01*
X15905282Y17110301D01*
X15790711Y17141000D01*
X15790709Y17141000D01*
X15672091Y17141000D01*
X15672089Y17141000D01*
X15557517Y17110301D01*
X15557512Y17110299D01*
X15454790Y17050992D01*
X15370908Y16967110D01*
X15311601Y16864388D01*
X15311599Y16864383D01*
X15280900Y16749812D01*
X15280900Y16631189D01*
X15311599Y16516618D01*
X15311601Y16516613D01*
X15370908Y16413891D01*
X15370909Y16413890D01*
X15370911Y16413887D01*
X15454787Y16330011D01*
X15454789Y16330010D01*
X15454790Y16330009D01*
X15557512Y16270702D01*
X15557514Y16270701D01*
X15557515Y16270701D01*
X15557517Y16270700D01*
X15580257Y16264607D01*
X15672088Y16240001D01*
X15672089Y16240000D01*
X15748800Y16240000D01*
X15801126Y16218326D01*
X15822800Y16166000D01*
X15822800Y15700171D01*
X15860934Y15608106D01*
X15860937Y15608102D01*
X15931402Y15537637D01*
X15931405Y15537635D01*
X15944693Y15532131D01*
X16023472Y15499500D01*
X16106096Y15499500D01*
X16158422Y15477826D01*
X16177060Y15438401D01*
X16178791Y15438745D01*
X16179500Y15435181D01*
X16179500Y15435180D01*
X16188233Y15391278D01*
X16221496Y15341496D01*
X16271278Y15308233D01*
X16315180Y15299500D01*
X16315181Y15299500D01*
X17794818Y15299500D01*
X17794820Y15299500D01*
X17836064Y15307705D01*
X17891611Y15296657D01*
X17923078Y15249565D01*
X17924500Y15235127D01*
X17924500Y15234232D01*
X17963717Y15087870D01*
X17963721Y15087861D01*
X18027368Y14977622D01*
X18039485Y14956635D01*
X18146635Y14849485D01*
X18277865Y14773719D01*
X18424231Y14734501D01*
X18424232Y14734500D01*
X18424234Y14734500D01*
X18575768Y14734500D01*
X18575768Y14734501D01*
X18722135Y14773719D01*
X18853365Y14849485D01*
X18960515Y14956635D01*
X19036281Y15087865D01*
X19075499Y15234232D01*
X19075500Y15234232D01*
X19075500Y15385768D01*
X19075499Y15385769D01*
X19058488Y15449254D01*
X19036281Y15532135D01*
X18960515Y15663365D01*
X18853365Y15770515D01*
X18853362Y15770517D01*
X18722139Y15846279D01*
X18722130Y15846283D01*
X18575768Y15885500D01*
X18575766Y15885500D01*
X18424234Y15885500D01*
X18424232Y15885500D01*
X18277869Y15846283D01*
X18277860Y15846279D01*
X18146637Y15770517D01*
X18146635Y15770516D01*
X18146635Y15770515D01*
X18056824Y15680705D01*
X18004500Y15659031D01*
X17952174Y15680705D01*
X17930500Y15733031D01*
X17930500Y16064820D01*
X17926469Y16085083D01*
X17921767Y16108722D01*
X17904951Y16133888D01*
X17893902Y16189436D01*
X17904952Y16216113D01*
X17906489Y16218413D01*
X17921767Y16241278D01*
X17930500Y16285180D01*
X17930500Y16452321D01*
X17952174Y16504647D01*
X18004500Y16526321D01*
X18041498Y16516408D01*
X18089314Y16488801D01*
X18089316Y16488801D01*
X18089317Y16488800D01*
X18111034Y16482981D01*
X18203888Y16458101D01*
X18203889Y16458100D01*
X18203891Y16458100D01*
X18322511Y16458100D01*
X18322511Y16458101D01*
X18437086Y16488801D01*
X18539813Y16548111D01*
X18623689Y16631987D01*
X18682999Y16734714D01*
X18713699Y16849289D01*
X18713700Y16849289D01*
X18713700Y16967911D01*
X18713699Y16967912D01*
X18713217Y16969709D01*
X18694210Y17040647D01*
X18683000Y17082483D01*
X18682999Y17082484D01*
X18682999Y17082486D01*
X18670636Y17103900D01*
X18668114Y17123053D01*
X18660722Y17140900D01*
X18664549Y17150140D01*
X18663244Y17160053D01*
X18675003Y17175378D01*
X18682396Y17193226D01*
X18691634Y17197053D01*
X18697722Y17204986D01*
X18734722Y17214900D01*
X18851287Y17214900D01*
X18903613Y17193226D01*
X18986540Y17110299D01*
X19068692Y17028148D01*
X19090366Y16975822D01*
X19090200Y16973286D01*
X19090200Y16851089D01*
X19120899Y16736518D01*
X19120901Y16736513D01*
X19180208Y16633791D01*
X19180209Y16633790D01*
X19180211Y16633787D01*
X19264087Y16549911D01*
X19264089Y16549910D01*
X19264090Y16549909D01*
X19363263Y16492651D01*
X19366814Y16490601D01*
X19366815Y16490601D01*
X19366817Y16490600D01*
X19373535Y16488800D01*
X19481388Y16459901D01*
X19481389Y16459900D01*
X19481391Y16459900D01*
X19600011Y16459900D01*
X19600011Y16459901D01*
X19714586Y16490601D01*
X19817313Y16549911D01*
X19901189Y16633787D01*
X19960499Y16736514D01*
X19991199Y16851089D01*
X19991200Y16851089D01*
X19991200Y16969711D01*
X19991199Y16969712D01*
X19990241Y16973286D01*
X19968310Y17055136D01*
X19960500Y17084283D01*
X19960498Y17084288D01*
X19901191Y17187010D01*
X19901190Y17187011D01*
X19901189Y17187013D01*
X19817313Y17270889D01*
X19817310Y17270891D01*
X19817309Y17270892D01*
X19714587Y17330199D01*
X19714582Y17330201D01*
X19600011Y17360900D01*
X19600009Y17360900D01*
X19481391Y17360900D01*
X19476541Y17360900D01*
X19476541Y17363613D01*
X19430217Y17376036D01*
X19422952Y17382408D01*
X19299912Y17505448D01*
X19140734Y17664627D01*
X19119061Y17716951D01*
X19140733Y17769274D01*
X23392374Y22020916D01*
X23444700Y22042589D01*
X23497026Y22020915D01*
X23518700Y21968589D01*
X23518700Y17568514D01*
X23497026Y17516188D01*
X23352846Y17372008D01*
X23300520Y17350334D01*
X23297987Y17350500D01*
X23294409Y17350500D01*
X23175791Y17350500D01*
X23175789Y17350500D01*
X23061217Y17319801D01*
X23061212Y17319799D01*
X22958490Y17260492D01*
X22874608Y17176610D01*
X22815301Y17073888D01*
X22815299Y17073883D01*
X22784600Y16959312D01*
X22784600Y16840689D01*
X22815299Y16726118D01*
X22815301Y16726113D01*
X22874608Y16623391D01*
X22874609Y16623390D01*
X22874611Y16623387D01*
X22928250Y16569748D01*
X22961917Y16536081D01*
X22959993Y16534158D01*
X22983966Y16492651D01*
X22984600Y16482981D01*
X22984600Y6057013D01*
X22962926Y6004687D01*
X21383526Y4425287D01*
X21331200Y4403613D01*
X21278874Y4425287D01*
X21257200Y4477613D01*
X21257200Y6323728D01*
X21257199Y6323730D01*
X21256465Y6325501D01*
X21227141Y6396298D01*
X21219065Y6415795D01*
X21219063Y6415798D01*
X20861687Y6773174D01*
X20840013Y6825500D01*
X20861687Y6877826D01*
X20914013Y6899500D01*
X22388480Y6899500D01*
X22388484Y6899500D01*
X22414238Y6902488D01*
X22519577Y6948999D01*
X22601001Y7030423D01*
X22647512Y7135762D01*
X22650500Y7161516D01*
X22650500Y7988484D01*
X22647512Y8014238D01*
X22601001Y8119577D01*
X22519577Y8201001D01*
X22414238Y8247512D01*
X22414239Y8247512D01*
X22409087Y8248110D01*
X22388484Y8250500D01*
X22388480Y8250500D01*
X21315113Y8250500D01*
X21262787Y8272174D01*
X18922093Y10612868D01*
X18900419Y10665194D01*
X18922093Y10717520D01*
X18955264Y10736672D01*
X18978886Y10743001D01*
X19081613Y10802311D01*
X19165489Y10886187D01*
X19224799Y10988914D01*
X19255499Y11103489D01*
X19255500Y11103489D01*
X19255500Y11222111D01*
X19255499Y11222112D01*
X19224800Y11336683D01*
X19224798Y11336688D01*
X19165491Y11439410D01*
X19165490Y11439411D01*
X19165489Y11439413D01*
X19081613Y11523289D01*
X19081610Y11523291D01*
X19081609Y11523292D01*
X18978887Y11582599D01*
X18978882Y11582601D01*
X18864311Y11613300D01*
X18864309Y11613300D01*
X18745691Y11613300D01*
X18745689Y11613300D01*
X18631115Y11582600D01*
X18604557Y11567267D01*
X18548405Y11559876D01*
X18515233Y11579028D01*
X18182173Y11912088D01*
X18160499Y11964414D01*
X18160499Y12227623D01*
X18157730Y12251496D01*
X18157730Y12251498D01*
X18114616Y12349141D01*
X18039141Y12424616D01*
X17941498Y12467730D01*
X17917623Y12470500D01*
X17917619Y12470500D01*
X17562377Y12470500D01*
X17538504Y12467731D01*
X17440858Y12424616D01*
X17365385Y12349143D01*
X17322270Y12251499D01*
X17319500Y12227620D01*
X17319500Y11772378D01*
X17322269Y11748505D01*
X17322269Y11748503D01*
X17322270Y11748502D01*
X17365384Y11650859D01*
X17440859Y11575384D01*
X17538502Y11532270D01*
X17562377Y11529500D01*
X17825586Y11529501D01*
X17877912Y11507827D01*
X17926313Y11459426D01*
X17947987Y11407100D01*
X17926313Y11354774D01*
X17873987Y11333100D01*
X16480972Y11333100D01*
X16388905Y11294966D01*
X16318435Y11224496D01*
X15945426Y10851488D01*
X15893100Y10829814D01*
X15840774Y10851488D01*
X15819100Y10903814D01*
X15819100Y10957411D01*
X15819099Y10957412D01*
X15818014Y10961460D01*
X15793888Y11051501D01*
X15788400Y11071983D01*
X15788398Y11071988D01*
X15729091Y11174710D01*
X15729090Y11174711D01*
X15729089Y11174713D01*
X15645213Y11258589D01*
X15645210Y11258591D01*
X15645209Y11258592D01*
X15542487Y11317899D01*
X15542482Y11317901D01*
X15427911Y11348600D01*
X15427909Y11348600D01*
X15309291Y11348600D01*
X15309289Y11348600D01*
X15194717Y11317901D01*
X15194712Y11317899D01*
X15091990Y11258592D01*
X15008108Y11174710D01*
X14948801Y11071988D01*
X14948799Y11071983D01*
X14918100Y10957412D01*
X14918100Y10918454D01*
X14907256Y10892277D01*
X14896542Y10866245D01*
X14896460Y10866211D01*
X14896426Y10866128D01*
X14870287Y10855302D01*
X14844265Y10844454D01*
X14844182Y10844489D01*
X14844100Y10844454D01*
X14791891Y10866012D01*
X14791657Y10866245D01*
X14743313Y10914589D01*
X14742799Y10914886D01*
X14738991Y10918677D01*
X14729790Y10940751D01*
X14717833Y10961460D01*
X14717212Y10970924D01*
X14717200Y10970954D01*
X14717209Y10970977D01*
X14717200Y10971119D01*
X14717200Y12322288D01*
X14738873Y12374613D01*
X14912087Y12547828D01*
X14964413Y12569501D01*
X15227622Y12569501D01*
X15251498Y12572270D01*
X15349141Y12615384D01*
X15424616Y12690859D01*
X15467730Y12788502D01*
X15470500Y12812377D01*
X15470499Y13167622D01*
X15467730Y13191498D01*
X15424616Y13289141D01*
X15349141Y13364616D01*
X15251498Y13407730D01*
X15227623Y13410500D01*
X15227619Y13410500D01*
X14772377Y13410500D01*
X14748504Y13407731D01*
X14650858Y13364616D01*
X14575385Y13289143D01*
X14532270Y13191499D01*
X14529733Y13169633D01*
X14502171Y13120155D01*
X14447695Y13104657D01*
X14398217Y13132219D01*
X14393541Y13139103D01*
X14392692Y13140209D01*
X14392690Y13140211D01*
X14392689Y13140213D01*
X14308813Y13224089D01*
X14308810Y13224091D01*
X14308809Y13224092D01*
X14206087Y13283399D01*
X14206082Y13283401D01*
X14091511Y13314100D01*
X14091509Y13314100D01*
X14004499Y13314100D01*
X13952173Y13335774D01*
X13930499Y13388100D01*
X13930499Y13727623D01*
X13927730Y13751496D01*
X13927730Y13751498D01*
X13884616Y13849141D01*
X13809141Y13924616D01*
X13711498Y13967730D01*
X13687623Y13970500D01*
X13687619Y13970500D01*
X13332377Y13970500D01*
X13308504Y13967731D01*
X13210858Y13924616D01*
X13135385Y13849143D01*
X13135384Y13849142D01*
X13135384Y13849141D01*
X13092270Y13751498D01*
X13090083Y13732643D01*
X13089500Y13727620D01*
X13089500Y13272378D01*
X13092269Y13248505D01*
X13092269Y13248503D01*
X13092270Y13248502D01*
X13135384Y13150859D01*
X13210859Y13075384D01*
X13308502Y13032270D01*
X13332377Y13029500D01*
X13481386Y13029501D01*
X13533712Y13007827D01*
X13560192Y12981347D01*
X13581866Y12929021D01*
X13581700Y12926487D01*
X13581700Y12804289D01*
X13612399Y12689718D01*
X13612401Y12689713D01*
X13671708Y12586991D01*
X13671709Y12586990D01*
X13671711Y12586987D01*
X13755587Y12503111D01*
X13755589Y12503110D01*
X13755590Y12503109D01*
X13858312Y12443802D01*
X13858314Y12443801D01*
X13858315Y12443801D01*
X13858317Y12443800D01*
X13915602Y12428451D01*
X13972888Y12413101D01*
X13972889Y12413100D01*
X13972891Y12413100D01*
X14091511Y12413100D01*
X14091511Y12413101D01*
X14104855Y12416677D01*
X14123047Y12421550D01*
X14179200Y12414158D01*
X14213678Y12369225D01*
X14216200Y12350072D01*
X14216200Y10971119D01*
X14194526Y10918793D01*
X14192617Y10917120D01*
X14106208Y10830710D01*
X14046901Y10727988D01*
X14046899Y10727983D01*
X14016200Y10613412D01*
X14016200Y10494789D01*
X14046899Y10380218D01*
X14046901Y10380213D01*
X14106208Y10277491D01*
X14106209Y10277490D01*
X14106211Y10277487D01*
X14190087Y10193611D01*
X14190089Y10193610D01*
X14190090Y10193609D01*
X14290938Y10135384D01*
X14292814Y10134301D01*
X14292815Y10134301D01*
X14292817Y10134300D01*
X14326290Y10125331D01*
X14407388Y10103601D01*
X14407389Y10103600D01*
X14407391Y10103600D01*
X14526011Y10103600D01*
X14526011Y10103601D01*
X14640586Y10134301D01*
X14743313Y10193611D01*
X14827189Y10277487D01*
X14886499Y10380214D01*
X14917199Y10494789D01*
X14917200Y10494789D01*
X14917200Y10533747D01*
X14938874Y10586073D01*
X14991200Y10607747D01*
X15043524Y10586074D01*
X15091987Y10537611D01*
X15091989Y10537610D01*
X15091990Y10537609D01*
X15171223Y10491863D01*
X15205702Y10446929D01*
X15198309Y10390777D01*
X15186549Y10375451D01*
X15102608Y10291510D01*
X15043301Y10188788D01*
X15043299Y10188783D01*
X15012600Y10074212D01*
X15012600Y9955589D01*
X15043299Y9841018D01*
X15043301Y9841013D01*
X15102608Y9738291D01*
X15102609Y9738290D01*
X15102611Y9738287D01*
X15186487Y9654411D01*
X15186489Y9654410D01*
X15186490Y9654409D01*
X15289212Y9595102D01*
X15289214Y9595101D01*
X15289215Y9595101D01*
X15289217Y9595100D01*
X15343377Y9580588D01*
X15403788Y9564401D01*
X15403789Y9564400D01*
X15403791Y9564400D01*
X15522411Y9564400D01*
X15522411Y9564401D01*
X15636986Y9595101D01*
X15739713Y9654411D01*
X15823589Y9738287D01*
X15882899Y9841014D01*
X15913599Y9955589D01*
X15913600Y9955589D01*
X15913600Y10079060D01*
X15916330Y10079060D01*
X15928695Y10125331D01*
X15935099Y10132640D01*
X16612886Y10810426D01*
X16665212Y10832100D01*
X17221954Y10832100D01*
X17274280Y10810426D01*
X17295954Y10758100D01*
X17289649Y10728210D01*
X17282270Y10711501D01*
X17282270Y10711498D01*
X17279950Y10691496D01*
X17279500Y10687620D01*
X17279500Y10332378D01*
X17282269Y10308505D01*
X17282269Y10308503D01*
X17282270Y10308502D01*
X17325384Y10210859D01*
X17400859Y10135384D01*
X17498502Y10092270D01*
X17522377Y10089500D01*
X17785586Y10089501D01*
X17837912Y10067827D01*
X17868913Y10036826D01*
X17890587Y9984500D01*
X17868913Y9932174D01*
X17816587Y9910500D01*
X17522377Y9910500D01*
X17498504Y9907731D01*
X17400858Y9864616D01*
X17325385Y9789143D01*
X17325384Y9789142D01*
X17325384Y9789141D01*
X17323383Y9784611D01*
X17282423Y9745498D01*
X17255689Y9740500D01*
X17093185Y9740500D01*
X17093185Y9740883D01*
X17067508Y9741724D01*
X17022809Y9753700D01*
X16904191Y9753700D01*
X16904189Y9753700D01*
X16789617Y9723001D01*
X16789612Y9722999D01*
X16686890Y9663692D01*
X16603008Y9579810D01*
X16543701Y9477088D01*
X16543699Y9477083D01*
X16513000Y9362512D01*
X16513000Y9243889D01*
X16543699Y9129318D01*
X16543701Y9129313D01*
X16570752Y9082460D01*
X16578144Y9026307D01*
X16543666Y8981374D01*
X16525819Y8973982D01*
X16426617Y8947401D01*
X16426612Y8947399D01*
X16323890Y8888092D01*
X16240008Y8804210D01*
X16180701Y8701488D01*
X16180699Y8701483D01*
X16150000Y8586912D01*
X16150000Y8468289D01*
X16180699Y8353718D01*
X16180701Y8353713D01*
X16240008Y8250991D01*
X16240009Y8250990D01*
X16240011Y8250987D01*
X16323887Y8167111D01*
X16323889Y8167110D01*
X16323890Y8167109D01*
X16406820Y8119229D01*
X16426614Y8107801D01*
X16426615Y8107801D01*
X16426617Y8107800D01*
X16432432Y8106242D01*
X16541188Y8077101D01*
X16541189Y8077100D01*
X16541191Y8077100D01*
X16659811Y8077100D01*
X16659811Y8077101D01*
X16774386Y8107801D01*
X16877113Y8167111D01*
X16960989Y8250987D01*
X17020299Y8353714D01*
X17050999Y8468289D01*
X17051000Y8468289D01*
X17051000Y8586911D01*
X17050999Y8586912D01*
X17020300Y8701483D01*
X17020298Y8701488D01*
X16993247Y8748341D01*
X16985854Y8804493D01*
X17020333Y8849427D01*
X17038173Y8856817D01*
X17137386Y8883401D01*
X17240113Y8942711D01*
X17323989Y9026587D01*
X17347245Y9066867D01*
X17392178Y9101346D01*
X17441221Y9097563D01*
X17498502Y9072270D01*
X17522377Y9069500D01*
X17977622Y9069501D01*
X18001498Y9072270D01*
X18099141Y9115384D01*
X18174616Y9190859D01*
X18217730Y9288502D01*
X18220500Y9312377D01*
X18220499Y9506590D01*
X18242173Y9558914D01*
X18294499Y9580588D01*
X18346825Y9558914D01*
X19583226Y8322513D01*
X19604900Y8270187D01*
X19604900Y7688013D01*
X19583226Y7635687D01*
X19530900Y7614013D01*
X19478574Y7635687D01*
X19242173Y7872088D01*
X19220499Y7924414D01*
X19220499Y8187623D01*
X19217730Y8211496D01*
X19217730Y8211498D01*
X19174616Y8309141D01*
X19099141Y8384616D01*
X19001498Y8427730D01*
X18977623Y8430500D01*
X18977619Y8430500D01*
X18522377Y8430500D01*
X18498504Y8427731D01*
X18400858Y8384616D01*
X18325385Y8309143D01*
X18297248Y8245419D01*
X18282270Y8211498D01*
X18281144Y8201788D01*
X18279500Y8187620D01*
X18279500Y7887000D01*
X18257826Y7834674D01*
X18205500Y7813000D01*
X18172096Y7821951D01*
X18171969Y7821642D01*
X18169628Y7822612D01*
X18168503Y7822913D01*
X18167493Y7823496D01*
X18167482Y7823501D01*
X18052911Y7854200D01*
X18052909Y7854200D01*
X17934291Y7854200D01*
X17934289Y7854200D01*
X17819717Y7823501D01*
X17819712Y7823499D01*
X17716990Y7764192D01*
X17633108Y7680310D01*
X17573801Y7577588D01*
X17573799Y7577583D01*
X17543100Y7463012D01*
X17543100Y7344389D01*
X17573799Y7229818D01*
X17573801Y7229813D01*
X17633108Y7127091D01*
X17633109Y7127090D01*
X17633111Y7127087D01*
X17716987Y7043211D01*
X17716989Y7043210D01*
X17716990Y7043209D01*
X17808594Y6990321D01*
X17819714Y6983901D01*
X17819715Y6983901D01*
X17819717Y6983900D01*
X17873134Y6969587D01*
X17934288Y6953201D01*
X17934289Y6953200D01*
X18057760Y6953200D01*
X18057760Y6950483D01*
X18104070Y6938074D01*
X18111347Y6931692D01*
X18265402Y6777637D01*
X18271461Y6773589D01*
X18270502Y6772154D01*
X18303894Y6739527D01*
X18325383Y6690860D01*
X18325384Y6690859D01*
X18400859Y6615384D01*
X18498502Y6572270D01*
X18522377Y6569500D01*
X18977622Y6569501D01*
X19001498Y6572270D01*
X19099141Y6615384D01*
X19121874Y6638117D01*
X19174200Y6659791D01*
X19226526Y6638117D01*
X19248200Y6585791D01*
X19248200Y6433173D01*
X19248199Y6433173D01*
X19255397Y6415797D01*
X19262147Y6399500D01*
X19263474Y6396298D01*
X19263474Y6339660D01*
X19223426Y6299612D01*
X19209546Y6295401D01*
X19191277Y6291767D01*
X19141496Y6258505D01*
X19141495Y6258504D01*
X19108233Y6208723D01*
X19099500Y6164820D01*
X19099500Y5367800D01*
X19077826Y5315474D01*
X19025500Y5293800D01*
X18591748Y5293800D01*
X18591740Y5293801D01*
X18583128Y5293801D01*
X18483473Y5293801D01*
X18463747Y5285630D01*
X18431754Y5272378D01*
X18391404Y5255665D01*
X18391398Y5255661D01*
X18337911Y5202174D01*
X18285586Y5180500D01*
X18025011Y5180500D01*
X17972685Y5202174D01*
X17953533Y5235347D01*
X17923700Y5346683D01*
X17923698Y5346688D01*
X17864391Y5449410D01*
X17864390Y5449411D01*
X17864389Y5449413D01*
X17780513Y5533289D01*
X17780510Y5533291D01*
X17780509Y5533292D01*
X17677787Y5592599D01*
X17677782Y5592601D01*
X17563211Y5623300D01*
X17563209Y5623300D01*
X17444591Y5623300D01*
X17444589Y5623300D01*
X17330017Y5592601D01*
X17330012Y5592599D01*
X17227290Y5533292D01*
X17143408Y5449410D01*
X17084101Y5346688D01*
X17084099Y5346683D01*
X17053400Y5232112D01*
X17053400Y5113489D01*
X17084099Y4998918D01*
X17084101Y4998913D01*
X17143408Y4896191D01*
X17143409Y4896190D01*
X17143411Y4896187D01*
X17189098Y4850500D01*
X17230717Y4808881D01*
X17228793Y4806958D01*
X17252766Y4765451D01*
X17253400Y4755781D01*
X17253400Y4436271D01*
X17291534Y4344206D01*
X17291536Y4344203D01*
X17530730Y4105009D01*
X17757826Y3877914D01*
X17779500Y3825588D01*
X17779500Y3562378D01*
X17782269Y3538505D01*
X17782269Y3538503D01*
X17782270Y3538502D01*
X17825384Y3440859D01*
X17900859Y3365384D01*
X17998502Y3322270D01*
X18022377Y3319500D01*
X18477622Y3319501D01*
X18501498Y3322270D01*
X18599141Y3365384D01*
X18674616Y3440859D01*
X18717730Y3538502D01*
X18720500Y3562377D01*
X18720499Y3917622D01*
X18717730Y3941498D01*
X18674616Y4039141D01*
X18599141Y4114616D01*
X18501498Y4157730D01*
X18477623Y4160500D01*
X18477619Y4160500D01*
X18214412Y4160500D01*
X18162086Y4182174D01*
X18131085Y4213175D01*
X18109411Y4265501D01*
X18131085Y4317827D01*
X18183409Y4339501D01*
X18477622Y4339501D01*
X18501498Y4342270D01*
X18599141Y4385384D01*
X18674616Y4460859D01*
X18717730Y4558502D01*
X18720500Y4582377D01*
X18720499Y4718800D01*
X18742173Y4771126D01*
X18794498Y4792800D01*
X19025534Y4792800D01*
X19077860Y4771126D01*
X19099534Y4718800D01*
X19099500Y4718111D01*
X19099500Y4714820D01*
X19099500Y3835180D01*
X19108233Y3791278D01*
X19141496Y3741496D01*
X19191278Y3708233D01*
X19235180Y3699500D01*
X19250500Y3699500D01*
X19302826Y3677826D01*
X19324500Y3625500D01*
X19324500Y3543471D01*
X19362634Y3451406D01*
X19362635Y3451404D01*
X19362636Y3451403D01*
X19433103Y3380936D01*
X19525172Y3342800D01*
X19525173Y3342800D01*
X20955627Y3342800D01*
X20955628Y3342800D01*
X21047697Y3380936D01*
X23366588Y5699830D01*
X23366591Y5699831D01*
X23376996Y5710236D01*
X23376997Y5710236D01*
X23447464Y5780703D01*
X23484384Y5869836D01*
X23485601Y5872773D01*
X23485601Y5972428D01*
X23485600Y5972431D01*
X23485600Y16482981D01*
X23507274Y16535307D01*
X23509182Y16536981D01*
X23511710Y16539510D01*
X23511713Y16539511D01*
X23595589Y16623387D01*
X23654899Y16726114D01*
X23685599Y16840689D01*
X23685600Y16840689D01*
X23685600Y16964160D01*
X23688330Y16964160D01*
X23700695Y17010431D01*
X23707099Y17017740D01*
X23981564Y17292203D01*
X24019700Y17384272D01*
X24019700Y17483927D01*
X24019700Y26455289D01*
X24041373Y26507614D01*
X24297888Y26764130D01*
X24297891Y26764131D01*
X24308296Y26774536D01*
X24308297Y26774536D01*
X24378764Y26845003D01*
X24405397Y26909300D01*
X24416901Y26937073D01*
X24416901Y27036728D01*
X24416901Y27042686D01*
X24416900Y27042700D01*
X24416900Y27685228D01*
X24416899Y27685230D01*
X24378765Y27777295D01*
X24378763Y27777298D01*
X23953698Y28202363D01*
X23953694Y28202366D01*
X23861628Y28240500D01*
X23494311Y28240500D01*
X23441985Y28262174D01*
X23426617Y28284609D01*
X23424616Y28289141D01*
X23349141Y28364616D01*
X23251498Y28407730D01*
X23227623Y28410500D01*
X23227619Y28410500D01*
X22772377Y28410500D01*
X22748504Y28407731D01*
X22650858Y28364616D01*
X22575385Y28289143D01*
X22532270Y28191499D01*
X22529500Y28167620D01*
X22529500Y27904414D01*
X22507826Y27852088D01*
X22296424Y27640687D01*
X22244098Y27619013D01*
X22191772Y27640687D01*
X22172620Y27673859D01*
X22171647Y27677487D01*
X22169799Y27684386D01*
X22132370Y27749214D01*
X22110491Y27787110D01*
X22110490Y27787111D01*
X22110489Y27787113D01*
X22026613Y27870989D01*
X22026610Y27870991D01*
X22026609Y27870992D01*
X21923887Y27930299D01*
X21923882Y27930301D01*
X21809311Y27961000D01*
X21809309Y27961000D01*
X21690691Y27961000D01*
X21690689Y27961000D01*
X21576117Y27930301D01*
X21576112Y27930299D01*
X21473390Y27870992D01*
X21426124Y27823727D01*
X21373798Y27802054D01*
X21321474Y27823728D01*
X21245013Y27900189D01*
X21245010Y27900191D01*
X21245009Y27900192D01*
X21142287Y27959499D01*
X21142282Y27959501D01*
X21027711Y27990200D01*
X21027709Y27990200D01*
X20909091Y27990200D01*
X20909089Y27990200D01*
X20794517Y27959501D01*
X20794508Y27959497D01*
X20761499Y27940439D01*
X20705347Y27933047D01*
X20660414Y27967526D01*
X20650500Y28004525D01*
X20650500Y28014820D01*
X20641767Y28058722D01*
X20608504Y28108504D01*
X20608503Y28108505D01*
X20608501Y28108507D01*
X20563655Y28138471D01*
X20532188Y28185562D01*
X20543237Y28241111D01*
X20563655Y28261529D01*
X20608501Y28291494D01*
X20608500Y28291494D01*
X20608504Y28291496D01*
X20641767Y28341278D01*
X20650500Y28385180D01*
X20650500Y28814820D01*
X20641767Y28858722D01*
X20608504Y28908504D01*
X20608503Y28908505D01*
X20608501Y28908507D01*
X20563655Y28938471D01*
X20532188Y28985562D01*
X20543237Y29041111D01*
X20563655Y29061529D01*
X20608501Y29091494D01*
X20608500Y29091494D01*
X20608504Y29091496D01*
X20641767Y29141278D01*
X20650500Y29185180D01*
X20650500Y29187620D01*
X22529500Y29187620D01*
X22529500Y28832378D01*
X22532269Y28808505D01*
X22532269Y28808503D01*
X22532270Y28808502D01*
X22575384Y28710859D01*
X22650859Y28635384D01*
X22748502Y28592270D01*
X22772377Y28589500D01*
X23227622Y28589501D01*
X23251498Y28592270D01*
X23349141Y28635384D01*
X23424616Y28710859D01*
X23467730Y28808502D01*
X23470500Y28832377D01*
X23470499Y29187622D01*
X23467730Y29211498D01*
X23424616Y29309141D01*
X23349141Y29384616D01*
X23294608Y29408695D01*
X23255497Y29449658D01*
X23250500Y29476389D01*
X23250500Y30049181D01*
X23272174Y30101507D01*
X23274082Y30103181D01*
X23276610Y30105710D01*
X23276613Y30105711D01*
X23360489Y30189587D01*
X23419799Y30292314D01*
X23450499Y30406889D01*
X23450500Y30406889D01*
X23450500Y30525511D01*
X23450499Y30525512D01*
X23444235Y30548888D01*
X23419799Y30640086D01*
X23407419Y30661529D01*
X23360491Y30742810D01*
X23360490Y30742811D01*
X23360489Y30742813D01*
X23276613Y30826689D01*
X23276610Y30826691D01*
X23276609Y30826692D01*
X23173887Y30885999D01*
X23173882Y30886001D01*
X23059311Y30916700D01*
X23059309Y30916700D01*
X22940691Y30916700D01*
X22940689Y30916700D01*
X22826117Y30886001D01*
X22826112Y30885999D01*
X22723390Y30826692D01*
X22639508Y30742810D01*
X22580201Y30640088D01*
X22580199Y30640083D01*
X22549500Y30525512D01*
X22549500Y30406889D01*
X22580199Y30292318D01*
X22580201Y30292313D01*
X22639508Y30189591D01*
X22639509Y30189590D01*
X22639511Y30189587D01*
X22696205Y30132893D01*
X22726817Y30102281D01*
X22724893Y30100358D01*
X22748866Y30058851D01*
X22749500Y30049181D01*
X22749500Y29476389D01*
X22727826Y29424063D01*
X22705392Y29408696D01*
X22650859Y29384616D01*
X22650857Y29384615D01*
X22575385Y29309143D01*
X22532270Y29211499D01*
X22529500Y29187620D01*
X20650500Y29187620D01*
X20650500Y29614820D01*
X20641767Y29658722D01*
X20608504Y29708504D01*
X20608503Y29708505D01*
X20608501Y29708507D01*
X20563655Y29738471D01*
X20532188Y29785562D01*
X20543237Y29841111D01*
X20563655Y29861529D01*
X20608501Y29891494D01*
X20608500Y29891494D01*
X20608504Y29891496D01*
X20641767Y29941278D01*
X20650500Y29985180D01*
X20650500Y30414820D01*
X20641767Y30458722D01*
X20608504Y30508504D01*
X20608503Y30508505D01*
X20608501Y30508507D01*
X20563655Y30538471D01*
X20532188Y30585562D01*
X20543237Y30641111D01*
X20563655Y30661529D01*
X20608501Y30691494D01*
X20608500Y30691494D01*
X20608504Y30691496D01*
X20641767Y30741278D01*
X20650500Y30785180D01*
X20650500Y31214820D01*
X20641767Y31258722D01*
X20608504Y31308504D01*
X20608503Y31308505D01*
X20608501Y31308507D01*
X20563655Y31338471D01*
X20532188Y31385562D01*
X20543237Y31441111D01*
X20563655Y31461529D01*
X20608501Y31491494D01*
X20608500Y31491494D01*
X20608504Y31491496D01*
X20641767Y31541278D01*
X20650500Y31585180D01*
X20650500Y32014820D01*
X20641767Y32058722D01*
X20608504Y32108504D01*
X20608503Y32108505D01*
X20608501Y32108507D01*
X20563655Y32138471D01*
X20532188Y32185562D01*
X20543237Y32241111D01*
X20563655Y32261529D01*
X20608501Y32291494D01*
X20608500Y32291494D01*
X20608504Y32291496D01*
X20641767Y32341278D01*
X20650500Y32385180D01*
X20650500Y32814820D01*
X20641767Y32858722D01*
X20608504Y32908504D01*
X20608503Y32908505D01*
X20608501Y32908507D01*
X20563655Y32938471D01*
X20532188Y32985562D01*
X20543237Y33041111D01*
X20563655Y33061529D01*
X20608501Y33091494D01*
X20608500Y33091494D01*
X20608504Y33091496D01*
X20641767Y33141278D01*
X20650500Y33185180D01*
X20650500Y33614820D01*
X20641767Y33658722D01*
X20608504Y33708504D01*
X20558722Y33741767D01*
X20514820Y33750500D01*
X19685180Y33750500D01*
X19663229Y33746134D01*
X19641277Y33741767D01*
X19591496Y33708505D01*
X19591495Y33708504D01*
X19558233Y33658723D01*
X19549500Y33614820D01*
X19549500Y33185181D01*
X19558233Y33141278D01*
X19591495Y33091497D01*
X19591496Y33091496D01*
X19636345Y33061529D01*
X19667811Y33014437D01*
X19656762Y32958888D01*
X19636345Y32938471D01*
X19591496Y32908505D01*
X19591495Y32908504D01*
X19558233Y32858723D01*
X19549500Y32814820D01*
X19549500Y32385181D01*
X19558233Y32341278D01*
X19591495Y32291497D01*
X19591496Y32291496D01*
X19636345Y32261529D01*
X19667811Y32214437D01*
X19656762Y32158888D01*
X19636345Y32138471D01*
X19591496Y32108505D01*
X19591495Y32108504D01*
X19558233Y32058723D01*
X19549500Y32014820D01*
X19549500Y31585181D01*
X19558233Y31541278D01*
X19591495Y31491497D01*
X19591496Y31491496D01*
X19636345Y31461529D01*
X19667811Y31414437D01*
X19656762Y31358888D01*
X19636345Y31338471D01*
X19591496Y31308505D01*
X19591495Y31308504D01*
X19558233Y31258723D01*
X19549500Y31214820D01*
X19549500Y30785181D01*
X19558233Y30741278D01*
X19591495Y30691497D01*
X19591496Y30691496D01*
X19636345Y30661529D01*
X19667811Y30614437D01*
X19656762Y30558888D01*
X19636345Y30538471D01*
X19591496Y30508505D01*
X19591495Y30508504D01*
X19558233Y30458723D01*
X19558233Y30458722D01*
X19549500Y30414820D01*
X19549500Y29985180D01*
X19556880Y29948078D01*
X19558233Y29941278D01*
X19591495Y29891497D01*
X19591496Y29891496D01*
X19636345Y29861529D01*
X19667811Y29814437D01*
X19656762Y29758888D01*
X19636345Y29738471D01*
X19591496Y29708505D01*
X19591495Y29708504D01*
X19558233Y29658723D01*
X19549500Y29614820D01*
X19549500Y29185181D01*
X19558233Y29141278D01*
X19591495Y29091497D01*
X19591496Y29091496D01*
X19636345Y29061529D01*
X19667811Y29014437D01*
X19656762Y28958888D01*
X19636345Y28938471D01*
X19591496Y28908505D01*
X19591495Y28908504D01*
X19558233Y28858723D01*
X19549500Y28814820D01*
X19549500Y28385181D01*
X19558233Y28341278D01*
X19591495Y28291497D01*
X19591496Y28291496D01*
X19636345Y28261529D01*
X19667811Y28214437D01*
X19656762Y28158888D01*
X19636345Y28138471D01*
X19591496Y28108505D01*
X19591495Y28108504D01*
X19558233Y28058723D01*
X19558233Y28058722D01*
X19549500Y28014820D01*
X19549500Y27585180D01*
X19552558Y27569809D01*
X19558233Y27541278D01*
X19591495Y27491497D01*
X19591496Y27491496D01*
X19636345Y27461529D01*
X19667811Y27414437D01*
X19656762Y27358888D01*
X19636345Y27338471D01*
X19591496Y27308505D01*
X19591495Y27308504D01*
X19558233Y27258723D01*
X19558233Y27258722D01*
X19549500Y27214820D01*
X19549500Y26785180D01*
X19556880Y26748078D01*
X19558233Y26741278D01*
X19591495Y26691497D01*
X19591496Y26691496D01*
X19636345Y26661529D01*
X19667811Y26614437D01*
X19656762Y26558888D01*
X19636345Y26538471D01*
X19591496Y26508505D01*
X19591495Y26508504D01*
X19558233Y26458723D01*
X19549500Y26414820D01*
X19549500Y25985180D01*
X19557104Y25946952D01*
X19558233Y25941278D01*
X19591495Y25891497D01*
X19591496Y25891496D01*
X19636345Y25861529D01*
X19667811Y25814437D01*
X19656762Y25758888D01*
X19636345Y25738471D01*
X19591496Y25708505D01*
X19591495Y25708504D01*
X19558233Y25658723D01*
X19557236Y25653710D01*
X19549500Y25614820D01*
X19549500Y25185180D01*
X19554210Y25161501D01*
X19558233Y25141278D01*
X19586891Y25098387D01*
X19591496Y25091496D01*
X19641278Y25058233D01*
X19685180Y25049500D01*
X19685181Y25049500D01*
X20514819Y25049500D01*
X20514820Y25049500D01*
X20558722Y25058233D01*
X20608504Y25091496D01*
X20641767Y25141278D01*
X20650500Y25185180D01*
X20650500Y25428487D01*
X20672174Y25480813D01*
X20724500Y25502487D01*
X20776826Y25480813D01*
X21342745Y24914894D01*
X21364419Y24862568D01*
X21358114Y24832678D01*
X21322270Y24751501D01*
X21319500Y24727620D01*
X21319500Y24464414D01*
X21297826Y24412088D01*
X20030713Y23144974D01*
X19978387Y23123300D01*
X19677210Y23123300D01*
X19624884Y23144974D01*
X19603210Y23197300D01*
X19624884Y23249626D01*
X19635450Y23257735D01*
X19635359Y23257853D01*
X19639208Y23260808D01*
X19639208Y23260809D01*
X19639213Y23260811D01*
X19723089Y23344687D01*
X19782399Y23447414D01*
X19813099Y23561989D01*
X19813100Y23561989D01*
X19813100Y23680611D01*
X19813099Y23680612D01*
X19810929Y23688709D01*
X19782399Y23795186D01*
X19777724Y23803283D01*
X19723091Y23897910D01*
X19723090Y23897911D01*
X19723089Y23897913D01*
X19639213Y23981789D01*
X19639210Y23981791D01*
X19639209Y23981792D01*
X19536487Y24041099D01*
X19536482Y24041101D01*
X19421911Y24071800D01*
X19417102Y24072433D01*
X19417405Y24074739D01*
X19372174Y24093474D01*
X19350500Y24145800D01*
X19350500Y24914820D01*
X19346931Y24932760D01*
X19341767Y24958722D01*
X19308504Y25008504D01*
X19287159Y25022766D01*
X19258722Y25041767D01*
X19254801Y25042547D01*
X19214820Y25050500D01*
X18785180Y25050500D01*
X18763229Y25046134D01*
X18741277Y25041767D01*
X18691496Y25008505D01*
X18691495Y25008504D01*
X18661529Y24963655D01*
X18649290Y24955478D01*
X18641113Y24943239D01*
X18626676Y24940368D01*
X18614437Y24932189D01*
X18599999Y24935061D01*
X18585564Y24932189D01*
X18573325Y24940367D01*
X18558888Y24943238D01*
X18538472Y24963654D01*
X18527064Y24980727D01*
X18516014Y25036276D01*
X18536266Y25074165D01*
X18560489Y25098387D01*
X18619799Y25201114D01*
X18650499Y25315689D01*
X18650500Y25315689D01*
X18650500Y25434311D01*
X18650499Y25434312D01*
X18650425Y25434587D01*
X18632232Y25502487D01*
X18619800Y25548883D01*
X18619798Y25548888D01*
X18560491Y25651610D01*
X18560490Y25651611D01*
X18560489Y25651613D01*
X18476613Y25735489D01*
X18476610Y25735491D01*
X18476609Y25735492D01*
X18373887Y25794799D01*
X18373882Y25794801D01*
X18259311Y25825500D01*
X18259309Y25825500D01*
X18140691Y25825500D01*
X18140689Y25825500D01*
X18026117Y25794801D01*
X18026112Y25794799D01*
X17923390Y25735492D01*
X17839508Y25651610D01*
X17780201Y25548888D01*
X17780199Y25548883D01*
X17749500Y25434312D01*
X17749500Y25337304D01*
X17746983Y25331230D01*
X17748439Y25324818D01*
X17736439Y25305774D01*
X17727826Y25284978D01*
X17721752Y25282463D01*
X17718247Y25276899D01*
X17696294Y25271918D01*
X17675500Y25263304D01*
X17669425Y25265821D01*
X17663014Y25264365D01*
X17645502Y25275730D01*
X17623174Y25284978D01*
X17615095Y25294557D01*
X17612544Y25298161D01*
X17612364Y25298597D01*
X17611926Y25299035D01*
X17608295Y25304166D01*
X17603313Y25326119D01*
X17594700Y25346913D01*
X17594700Y25726281D01*
X17616374Y25778607D01*
X17618282Y25780281D01*
X17620810Y25782810D01*
X17620813Y25782811D01*
X17704689Y25866687D01*
X17763999Y25969414D01*
X17794699Y26083989D01*
X17794700Y26083989D01*
X17794700Y26202611D01*
X17794699Y26202612D01*
X17764000Y26317183D01*
X17763998Y26317188D01*
X17704691Y26419910D01*
X17704690Y26419911D01*
X17704689Y26419913D01*
X17620813Y26503789D01*
X17620810Y26503791D01*
X17620809Y26503792D01*
X17518087Y26563099D01*
X17518082Y26563101D01*
X17403511Y26593800D01*
X17403509Y26593800D01*
X17284891Y26593800D01*
X17284889Y26593800D01*
X17170317Y26563101D01*
X17170312Y26563099D01*
X17067590Y26503792D01*
X16983708Y26419910D01*
X16924401Y26317188D01*
X16924399Y26317183D01*
X16893700Y26202612D01*
X16893700Y26083989D01*
X16924399Y25969418D01*
X16924401Y25969413D01*
X16983708Y25866691D01*
X16983709Y25866690D01*
X16983711Y25866687D01*
X17035961Y25814437D01*
X17071017Y25779381D01*
X17069093Y25777458D01*
X17093066Y25735951D01*
X17093700Y25726281D01*
X17093700Y25162671D01*
X17119997Y25099184D01*
X17119997Y25042547D01*
X17109948Y25025314D01*
X17102627Y25015942D01*
X17091496Y25008504D01*
X17060008Y24961380D01*
X17058318Y24959215D01*
X17035879Y24946517D01*
X17014437Y24932189D01*
X17011570Y24932760D01*
X17009027Y24931320D01*
X16984182Y24938207D01*
X16958888Y24943238D01*
X16956148Y24945978D01*
X16954448Y24946449D01*
X16952845Y24949281D01*
X16938471Y24963655D01*
X16908504Y25008504D01*
X16908503Y25008505D01*
X16858722Y25041767D01*
X16854801Y25042547D01*
X16814820Y25050500D01*
X16385180Y25050500D01*
X16363229Y25046134D01*
X16341277Y25041767D01*
X16291496Y25008505D01*
X16291495Y25008504D01*
X16261529Y24963655D01*
X16214437Y24932189D01*
X16158888Y24943238D01*
X16145546Y24954659D01*
X16141660Y24958882D01*
X16108504Y25008504D01*
X16076034Y25030200D01*
X16070046Y25036707D01*
X16063115Y25055627D01*
X16051922Y25072378D01*
X16050500Y25086815D01*
X16050500Y25098252D01*
X16050501Y25098261D01*
X16050501Y25206526D01*
X16050501Y25206527D01*
X16029622Y25256930D01*
X16026513Y25304405D01*
X16030100Y25317789D01*
X16030100Y25436411D01*
X16030099Y25436412D01*
X16028907Y25440859D01*
X15999399Y25550986D01*
X15999398Y25550988D01*
X15940091Y25653710D01*
X15940090Y25653711D01*
X15940089Y25653713D01*
X15856213Y25737589D01*
X15856210Y25737591D01*
X15856209Y25737592D01*
X15753487Y25796899D01*
X15753482Y25796901D01*
X15638911Y25827600D01*
X15638909Y25827600D01*
X15520291Y25827600D01*
X15520289Y25827600D01*
X15405717Y25796901D01*
X15405712Y25796899D01*
X15302990Y25737592D01*
X15219108Y25653710D01*
X15159801Y25550988D01*
X15159799Y25550983D01*
X15129100Y25436412D01*
X15129100Y25317789D01*
X15159799Y25203218D01*
X15159800Y25203216D01*
X15159801Y25203214D01*
X15183885Y25161500D01*
X15191278Y25105348D01*
X15156800Y25060414D01*
X15119799Y25050500D01*
X14785180Y25050500D01*
X14763229Y25046134D01*
X14741277Y25041767D01*
X14691496Y25008505D01*
X14691495Y25008504D01*
X14661529Y24963655D01*
X14614437Y24932189D01*
X14558888Y24943238D01*
X14538471Y24963655D01*
X14508504Y25008504D01*
X14508503Y25008505D01*
X14458722Y25041767D01*
X14454801Y25042547D01*
X14414820Y25050500D01*
X13985180Y25050500D01*
X13963229Y25046134D01*
X13941277Y25041767D01*
X13891496Y25008505D01*
X13891495Y25008504D01*
X13861529Y24963655D01*
X13814437Y24932189D01*
X13758888Y24943238D01*
X13738471Y24963655D01*
X13708504Y25008504D01*
X13708503Y25008505D01*
X13658722Y25041767D01*
X13654801Y25042547D01*
X13614820Y25050500D01*
X13185180Y25050500D01*
X13163229Y25046134D01*
X13141277Y25041767D01*
X13091496Y25008505D01*
X13091495Y25008504D01*
X13061529Y24963655D01*
X13014437Y24932189D01*
X12958888Y24943238D01*
X12938471Y24963655D01*
X12908504Y25008504D01*
X12908503Y25008505D01*
X12858722Y25041767D01*
X12854801Y25042547D01*
X12814820Y25050500D01*
X12385180Y25050500D01*
X12363229Y25046134D01*
X12341277Y25041767D01*
X12291496Y25008505D01*
X12291495Y25008504D01*
X12261529Y24963655D01*
X12214437Y24932189D01*
X12158888Y24943238D01*
X12138471Y24963655D01*
X12108504Y25008504D01*
X12108503Y25008505D01*
X12058722Y25041767D01*
X12054801Y25042547D01*
X12014820Y25050500D01*
X11585180Y25050500D01*
X11563229Y25046134D01*
X11541277Y25041767D01*
X11491496Y25008505D01*
X11491495Y25008504D01*
X11458233Y24958723D01*
X11458233Y24958722D01*
X11449500Y24914820D01*
X10550500Y24914820D01*
X10546931Y24932760D01*
X10541767Y24958722D01*
X10508504Y25008504D01*
X10487159Y25022766D01*
X10458722Y25041767D01*
X10454801Y25042547D01*
X10414820Y25050500D01*
X9985180Y25050500D01*
X9963229Y25046134D01*
X9941277Y25041767D01*
X9891496Y25008505D01*
X9891495Y25008504D01*
X9861529Y24963655D01*
X9814437Y24932189D01*
X9758888Y24943238D01*
X9738471Y24963655D01*
X9708504Y25008504D01*
X9708503Y25008505D01*
X9658722Y25041767D01*
X9654801Y25042547D01*
X9614820Y25050500D01*
X9185180Y25050500D01*
X9163229Y25046134D01*
X9141277Y25041767D01*
X9091496Y25008505D01*
X9091495Y25008504D01*
X9058233Y24958723D01*
X9058233Y24958722D01*
X9049500Y24914820D01*
X9049500Y24085180D01*
X9051449Y24075384D01*
X9058233Y24041278D01*
X9091495Y23991497D01*
X9091496Y23991496D01*
X9116612Y23974714D01*
X9148078Y23927622D01*
X9149500Y23913185D01*
X9149500Y23605254D01*
X9127826Y23552929D01*
X9075411Y23500514D01*
X9075409Y23500511D01*
X9016101Y23397788D01*
X9016099Y23397783D01*
X8985400Y23283212D01*
X8985400Y23164589D01*
X9016099Y23050018D01*
X9016101Y23050013D01*
X9075408Y22947291D01*
X9075409Y22947290D01*
X9075411Y22947287D01*
X9127826Y22894872D01*
X9149500Y22842547D01*
X9149500Y22794500D01*
X9127826Y22742174D01*
X9075500Y22720500D01*
X8854800Y22720500D01*
X8802474Y22742174D01*
X8780800Y22794500D01*
X8790715Y22831501D01*
X8799499Y22846714D01*
X8830199Y22961289D01*
X8830200Y22961289D01*
X8830200Y23079911D01*
X8830199Y23079912D01*
X8799500Y23194483D01*
X8799498Y23194488D01*
X8740191Y23297210D01*
X8740190Y23297211D01*
X8740189Y23297213D01*
X8656313Y23381089D01*
X8656310Y23381091D01*
X8656309Y23381092D01*
X8553587Y23440399D01*
X8553582Y23440401D01*
X8439011Y23471100D01*
X8439009Y23471100D01*
X8320391Y23471100D01*
X8320389Y23471100D01*
X8205817Y23440401D01*
X8205812Y23440399D01*
X8103090Y23381092D01*
X8019208Y23297210D01*
X7959901Y23194488D01*
X7959899Y23194483D01*
X7929200Y23079912D01*
X7929200Y22961289D01*
X7959899Y22846718D01*
X7959902Y22846710D01*
X7968684Y22831501D01*
X7976078Y22775348D01*
X7941600Y22730415D01*
X7904600Y22720500D01*
X7812377Y22720500D01*
X7788504Y22717731D01*
X7690858Y22674616D01*
X7615385Y22599143D01*
X7572270Y22501499D01*
X7569500Y22477620D01*
X7569500Y22022378D01*
X7572269Y21998505D01*
X7572269Y21998503D01*
X7572270Y21998502D01*
X7615384Y21900859D01*
X7690859Y21825384D01*
X7788502Y21782270D01*
X7812377Y21779500D01*
X8167622Y21779501D01*
X8191498Y21782270D01*
X8289141Y21825384D01*
X8364616Y21900859D01*
X8407730Y21998502D01*
X8410500Y22022377D01*
X8410499Y22285589D01*
X8432172Y22337913D01*
X8463175Y22368916D01*
X8515500Y22390589D01*
X8567826Y22368915D01*
X8589500Y22316589D01*
X8589500Y22022378D01*
X8592269Y21998505D01*
X8592269Y21998503D01*
X8592270Y21998502D01*
X8635384Y21900859D01*
X8710859Y21825384D01*
X8808502Y21782270D01*
X8808504Y21782270D01*
X8808506Y21782269D01*
X8813868Y21780810D01*
X8813429Y21779197D01*
X8857236Y21754800D01*
X8872738Y21700326D01*
X8863317Y21671850D01*
X8829101Y21612588D01*
X8829099Y21612583D01*
X8798400Y21498012D01*
X8797983Y21494843D01*
X8797176Y21493447D01*
X8797144Y21493324D01*
X8797111Y21493333D01*
X8769666Y21445793D01*
X8724616Y21430500D01*
X8272377Y21430500D01*
X8248504Y21427731D01*
X8150858Y21384616D01*
X8115453Y21349210D01*
X8075384Y21309141D01*
X8075383Y21309140D01*
X8070536Y21304292D01*
X8067927Y21306901D01*
X8031126Y21282967D01*
X7975719Y21294706D01*
X7965267Y21303393D01*
X7889271Y21379389D01*
X7773697Y21494964D01*
X7773694Y21494966D01*
X7681628Y21533100D01*
X6202581Y21533100D01*
X6150255Y21554774D01*
X6128581Y21607100D01*
X6150255Y21659426D01*
X6153813Y21662984D01*
X6197682Y21762338D01*
X6200500Y21786627D01*
X6200499Y22213372D01*
X6197682Y22237662D01*
X6153813Y22337016D01*
X6077016Y22413813D01*
X5977662Y22457682D01*
X5977663Y22457682D01*
X5972804Y22458246D01*
X5953373Y22460500D01*
X5953369Y22460500D01*
X5586627Y22460500D01*
X5562340Y22457683D01*
X5462983Y22413813D01*
X5386187Y22337017D01*
X5380428Y22323974D01*
X5339463Y22284863D01*
X5282841Y22286173D01*
X5275734Y22289781D01*
X5190487Y22338999D01*
X5190482Y22339001D01*
X5075911Y22369700D01*
X5075909Y22369700D01*
X4968291Y22369700D01*
X4915965Y22391374D01*
X4894291Y22443700D01*
X4900596Y22473590D01*
X4902204Y22477234D01*
X4902206Y22477235D01*
X4947585Y22580009D01*
X4950500Y22605135D01*
X4950499Y22994864D01*
X4947585Y23019991D01*
X4902206Y23122765D01*
X4902205Y23122766D01*
X4899436Y23129038D01*
X4901397Y23129905D01*
X4898676Y23142806D01*
X4890265Y23163113D01*
X4893000Y23169717D01*
X4891525Y23176711D01*
X4911940Y23215438D01*
X4974329Y23277826D01*
X4976014Y23278524D01*
X5026654Y23299500D01*
X5306386Y23299500D01*
X5358712Y23277826D01*
X5379475Y23237075D01*
X5389353Y23174696D01*
X5389354Y23174694D01*
X5446950Y23061658D01*
X5536658Y22971950D01*
X5649696Y22914354D01*
X5743481Y22899500D01*
X6756518Y22899501D01*
X6756519Y22899501D01*
X6850304Y22914354D01*
X6850306Y22914355D01*
X6857346Y22917942D01*
X6963342Y22971950D01*
X7053050Y23061658D01*
X7110646Y23174696D01*
X7125500Y23268481D01*
X7125499Y23831518D01*
X7124393Y23838500D01*
X7110646Y23925305D01*
X7110645Y23925307D01*
X7062670Y24019462D01*
X7053050Y24038342D01*
X6963342Y24128050D01*
X6850304Y24185646D01*
X6850302Y24185647D01*
X6850301Y24185647D01*
X6756519Y24200500D01*
X5743480Y24200500D01*
X5649695Y24185647D01*
X5649693Y24185646D01*
X5536657Y24128050D01*
X5446951Y24038344D01*
X5389353Y23925302D01*
X5379474Y23862924D01*
X5349881Y23814633D01*
X5306385Y23800500D01*
X5071855Y23800500D01*
X5019529Y23822174D01*
X5007769Y23837500D01*
X5006786Y23839203D01*
X4997889Y23854613D01*
X4914013Y23938489D01*
X4914010Y23938491D01*
X4914009Y23938492D01*
X4811287Y23997799D01*
X4811282Y23997801D01*
X4696711Y24028500D01*
X4696709Y24028500D01*
X4578091Y24028500D01*
X4578089Y24028500D01*
X4463517Y23997801D01*
X4463512Y23997799D01*
X4360790Y23938492D01*
X4276908Y23854610D01*
X4217601Y23751888D01*
X4217599Y23751883D01*
X4186900Y23637312D01*
X4186900Y23518689D01*
X4217599Y23404118D01*
X4217601Y23404113D01*
X4242204Y23361500D01*
X4249596Y23305347D01*
X4215118Y23260414D01*
X4178118Y23250500D01*
X3580136Y23250500D01*
X3555008Y23247586D01*
X3552721Y23246963D01*
X3551256Y23247151D01*
X3549479Y23246944D01*
X3549427Y23247384D01*
X3496541Y23254145D01*
X3461894Y23298948D01*
X3459300Y23318369D01*
X3459300Y23636888D01*
X3480973Y23689213D01*
X4019587Y24227828D01*
X4071913Y24249501D01*
X4694863Y24249501D01*
X4694864Y24249501D01*
X4719991Y24252415D01*
X4822765Y24297794D01*
X4902206Y24377235D01*
X4947585Y24480009D01*
X4950500Y24505135D01*
X4950499Y24894864D01*
X4947585Y24919991D01*
X4902206Y25022765D01*
X4822765Y25102206D01*
X4719991Y25147585D01*
X4719990Y25147586D01*
X4719988Y25147586D01*
X4694865Y25150500D01*
X4462000Y25150500D01*
X4409674Y25172174D01*
X4388000Y25224500D01*
X4388000Y26362328D01*
X4387999Y26362330D01*
X4356132Y26439265D01*
X4350499Y26467583D01*
X4350499Y27015587D01*
X4372173Y27067913D01*
X4620286Y27316026D01*
X4672612Y27337700D01*
X5507387Y27337700D01*
X5559713Y27316026D01*
X5777826Y27097913D01*
X5799500Y27045587D01*
X5799500Y26786628D01*
X5802317Y26762341D01*
X5802317Y26762339D01*
X5802318Y26762338D01*
X5846187Y26662984D01*
X5922984Y26586187D01*
X6022338Y26542318D01*
X6046627Y26539500D01*
X6413372Y26539501D01*
X6437662Y26542318D01*
X6537016Y26586187D01*
X6613813Y26662984D01*
X6657682Y26762338D01*
X6660500Y26786627D01*
X6660499Y27213372D01*
X6657682Y27237662D01*
X6613813Y27337016D01*
X6537016Y27413813D01*
X6437662Y27457682D01*
X6437663Y27457682D01*
X6432804Y27458246D01*
X6413373Y27460500D01*
X6413369Y27460500D01*
X6154413Y27460500D01*
X6102087Y27482174D01*
X6048387Y27535874D01*
X6026713Y27588200D01*
X6048387Y27640526D01*
X6820080Y28412219D01*
X7625648Y29217788D01*
X7677973Y29239461D01*
X7730299Y29217787D01*
X7750551Y29179898D01*
X7758233Y29141278D01*
X7791495Y29091497D01*
X7791496Y29091496D01*
X7836345Y29061529D01*
X7867811Y29014437D01*
X7856762Y28958888D01*
X7836345Y28938471D01*
X7791496Y28908505D01*
X7791495Y28908504D01*
X7758233Y28858723D01*
X7749500Y28814820D01*
X7749500Y28385181D01*
X7758233Y28341278D01*
X7791495Y28291497D01*
X7791496Y28291496D01*
X7836345Y28261529D01*
X7867811Y28214437D01*
X7856762Y28158888D01*
X7836345Y28138471D01*
X7791496Y28108505D01*
X7791495Y28108504D01*
X7758233Y28058723D01*
X7758233Y28058722D01*
X7749500Y28014820D01*
X7749500Y27585180D01*
X7752558Y27569809D01*
X7758233Y27541278D01*
X7791495Y27491497D01*
X7791496Y27491496D01*
X7836345Y27461529D01*
X7867811Y27414437D01*
X7856762Y27358888D01*
X7836345Y27338471D01*
X7791496Y27308505D01*
X7791495Y27308504D01*
X7758233Y27258723D01*
X7758233Y27258722D01*
X7749500Y27214820D01*
X7749500Y26785180D01*
X7756880Y26748078D01*
X7758233Y26741278D01*
X7791495Y26691497D01*
X7791496Y26691496D01*
X7836345Y26661529D01*
X7867811Y26614437D01*
X7856762Y26558888D01*
X7836345Y26538471D01*
X7791496Y26508505D01*
X7791495Y26508504D01*
X7758233Y26458723D01*
X7749500Y26414820D01*
X7749500Y25985180D01*
X7757104Y25946952D01*
X7758233Y25941278D01*
X7774040Y25917620D01*
X7791496Y25891496D01*
X7841278Y25858233D01*
X7885180Y25849500D01*
X7885181Y25849500D01*
X8714819Y25849500D01*
X8714820Y25849500D01*
X8758722Y25858233D01*
X8808504Y25891496D01*
X8841767Y25941278D01*
X8850500Y25985180D01*
X8850500Y26414820D01*
X8841767Y26458722D01*
X8808504Y26508504D01*
X8808503Y26508505D01*
X8808501Y26508507D01*
X8763655Y26538471D01*
X8732188Y26585562D01*
X8743237Y26641111D01*
X8763655Y26661529D01*
X8808501Y26691494D01*
X8808500Y26691494D01*
X8808504Y26691496D01*
X8841767Y26741278D01*
X8850500Y26785180D01*
X8850500Y27214820D01*
X8841767Y27258722D01*
X8808504Y27308504D01*
X8808503Y27308505D01*
X8763654Y27338472D01*
X8732188Y27385564D01*
X8743237Y27441113D01*
X8763649Y27461526D01*
X8771378Y27466690D01*
X8826924Y27477738D01*
X8864810Y27457488D01*
X8882787Y27439511D01*
X8882789Y27439510D01*
X8882790Y27439509D01*
X8976225Y27385564D01*
X8985514Y27380201D01*
X8985515Y27380201D01*
X8985517Y27380200D01*
X9039207Y27365814D01*
X9100088Y27349501D01*
X9100089Y27349500D01*
X9100091Y27349500D01*
X9218711Y27349500D01*
X9218711Y27349501D01*
X9333286Y27380201D01*
X9436013Y27439511D01*
X9519889Y27523387D01*
X9579199Y27626114D01*
X9609899Y27740689D01*
X9609900Y27740689D01*
X9609900Y27859311D01*
X9609899Y27859312D01*
X9609614Y27860374D01*
X9583054Y27959499D01*
X9579200Y27973883D01*
X9579198Y27973888D01*
X9519891Y28076610D01*
X9519890Y28076611D01*
X9519889Y28076613D01*
X9436013Y28160489D01*
X9436010Y28160491D01*
X9436009Y28160492D01*
X9333287Y28219799D01*
X9333282Y28219801D01*
X9218711Y28250500D01*
X9218709Y28250500D01*
X9100091Y28250500D01*
X9100089Y28250500D01*
X8985517Y28219801D01*
X8985512Y28219799D01*
X8882786Y28160489D01*
X8864812Y28142515D01*
X8812485Y28120842D01*
X8771380Y28133310D01*
X8763659Y28138468D01*
X8732189Y28185557D01*
X8743234Y28241107D01*
X8763655Y28261529D01*
X8808501Y28291494D01*
X8808500Y28291494D01*
X8808504Y28291496D01*
X8841767Y28341278D01*
X8850500Y28385180D01*
X8850500Y28814820D01*
X8841767Y28858722D01*
X8808504Y28908504D01*
X8808503Y28908505D01*
X8808501Y28908507D01*
X8763655Y28938471D01*
X8732188Y28985562D01*
X8743237Y29041111D01*
X8763655Y29061529D01*
X8808501Y29091494D01*
X8808500Y29091494D01*
X8808504Y29091496D01*
X8841767Y29141278D01*
X8850500Y29185180D01*
X8850500Y29614820D01*
X8841767Y29658722D01*
X8808504Y29708504D01*
X8808503Y29708505D01*
X8808501Y29708507D01*
X8763655Y29738471D01*
X8732188Y29785562D01*
X8743237Y29841111D01*
X8754658Y29854454D01*
X8758878Y29858338D01*
X8808504Y29891496D01*
X8830199Y29923966D01*
X8836707Y29929954D01*
X8855626Y29936885D01*
X8872378Y29948078D01*
X8886815Y29949500D01*
X8950172Y29949500D01*
X9012649Y29949500D01*
X9031802Y29946978D01*
X9115688Y29924501D01*
X9115689Y29924500D01*
X9115691Y29924500D01*
X9234311Y29924500D01*
X9234311Y29924501D01*
X9348886Y29955201D01*
X9451613Y30014511D01*
X9535489Y30098387D01*
X9594799Y30201114D01*
X9625499Y30315689D01*
X9625500Y30315689D01*
X9625500Y30434311D01*
X9625499Y30434312D01*
X9618958Y30458722D01*
X9594799Y30548886D01*
X9542143Y30640088D01*
X9535491Y30651610D01*
X9535490Y30651611D01*
X9535489Y30651613D01*
X9451613Y30735489D01*
X9451610Y30735491D01*
X9451609Y30735492D01*
X9348887Y30794799D01*
X9348882Y30794801D01*
X9234311Y30825500D01*
X9234309Y30825500D01*
X9115691Y30825500D01*
X9115689Y30825500D01*
X9001117Y30794801D01*
X9001112Y30794799D01*
X8961500Y30771928D01*
X8905347Y30764535D01*
X8860414Y30799014D01*
X8850500Y30836014D01*
X8850500Y31214820D01*
X8841767Y31258722D01*
X8808504Y31308504D01*
X8808503Y31308505D01*
X8808501Y31308507D01*
X8763655Y31338471D01*
X8732188Y31385562D01*
X8743237Y31441111D01*
X8763655Y31461529D01*
X8808501Y31491494D01*
X8808500Y31491494D01*
X8808504Y31491496D01*
X8841767Y31541278D01*
X8850500Y31585180D01*
X8850500Y32014820D01*
X8841767Y32058722D01*
X8808504Y32108504D01*
X8758722Y32141767D01*
X8714820Y32150500D01*
X7885180Y32150500D01*
X7863229Y32146134D01*
X7841277Y32141767D01*
X7791496Y32108505D01*
X7791495Y32108504D01*
X7774714Y32083388D01*
X7727622Y32051922D01*
X7713185Y32050500D01*
X7593472Y32050500D01*
X7501405Y32012366D01*
X7430934Y31941895D01*
X7392800Y31849830D01*
X7392800Y29724113D01*
X7371126Y29671787D01*
X5559713Y27860374D01*
X5507387Y27838700D01*
X4488372Y27838700D01*
X4396305Y27800566D01*
X4325835Y27730096D01*
X4200157Y27604419D01*
X4147831Y27582745D01*
X4114237Y27590810D01*
X4075305Y27610646D01*
X3981519Y27625500D01*
X3418480Y27625500D01*
X3324695Y27610647D01*
X3324693Y27610646D01*
X3211657Y27553050D01*
X3121951Y27463344D01*
X3064353Y27350302D01*
X3049500Y27256520D01*
X3049500Y26243481D01*
X3064353Y26149696D01*
X3064354Y26149694D01*
X3106397Y26067182D01*
X3121950Y26036658D01*
X3211658Y25946950D01*
X3324696Y25889354D01*
X3418481Y25874500D01*
X3813000Y25874501D01*
X3865326Y25852827D01*
X3887000Y25800501D01*
X3887000Y25224500D01*
X3865326Y25172174D01*
X3813000Y25150500D01*
X3580136Y25150500D01*
X3555013Y25147586D01*
X3555007Y25147585D01*
X3452234Y25102206D01*
X3372794Y25022766D01*
X3327414Y24919989D01*
X3324500Y24894865D01*
X3324500Y24812519D01*
X3302826Y24760193D01*
X3250500Y24738519D01*
X3213500Y24748433D01*
X3157787Y24780599D01*
X3157782Y24780601D01*
X3043211Y24811300D01*
X3043209Y24811300D01*
X2924591Y24811300D01*
X2924589Y24811300D01*
X2810017Y24780601D01*
X2810011Y24780598D01*
X2786499Y24767023D01*
X2730346Y24759631D01*
X2685413Y24794109D01*
X2675499Y24831109D01*
X2675499Y24894864D01*
X2673714Y24910257D01*
X2672585Y24919991D01*
X2627206Y25022765D01*
X2547765Y25102206D01*
X2444991Y25147585D01*
X2444990Y25147586D01*
X2444988Y25147586D01*
X2423659Y25150060D01*
X2419865Y25150500D01*
X2419864Y25150500D01*
X1305136Y25150500D01*
X1280013Y25147586D01*
X1280007Y25147585D01*
X1177234Y25102206D01*
X1097794Y25022766D01*
X1052414Y24919989D01*
X1049500Y24894865D01*
X1049500Y24505137D01*
X1052414Y24480014D01*
X1052415Y24480008D01*
X1072835Y24433762D01*
X1097794Y24377235D01*
X1177235Y24297794D01*
X1280009Y24252415D01*
X1305135Y24249500D01*
X2263838Y24249501D01*
X2316159Y24227832D01*
X2450216Y24093800D01*
X2569921Y23974116D01*
X2591600Y23921793D01*
X2591600Y23579014D01*
X2569926Y23526688D01*
X2315412Y23272174D01*
X2263086Y23250500D01*
X1305136Y23250500D01*
X1280013Y23247586D01*
X1280007Y23247585D01*
X1177234Y23202206D01*
X1097794Y23122766D01*
X1052414Y23019989D01*
X1049500Y22994865D01*
X1049500Y22605137D01*
X1052414Y22580014D01*
X1052415Y22580009D01*
X1097794Y22477235D01*
X1177235Y22397794D01*
X1280009Y22352415D01*
X1305135Y22349500D01*
X2419864Y22349501D01*
X2444991Y22352415D01*
X2547765Y22397794D01*
X2627206Y22477235D01*
X2672585Y22580009D01*
X2675500Y22605135D01*
X2675499Y22893089D01*
X2697172Y22945413D01*
X2831974Y23080215D01*
X2884300Y23101888D01*
X2936626Y23080214D01*
X2958300Y23027888D01*
X2958300Y21175700D01*
X2936626Y21123374D01*
X2884300Y21101700D01*
X2675372Y21101700D01*
X2583305Y21063566D01*
X2583301Y21063563D01*
X2241911Y20722174D01*
X2189585Y20700500D01*
X1855136Y20700500D01*
X1830013Y20697586D01*
X1830007Y20697585D01*
X1727234Y20652206D01*
X1647794Y20572766D01*
X1602414Y20469989D01*
X1599500Y20444865D01*
X1599500Y19821914D01*
X1577826Y19769588D01*
X1083103Y19274864D01*
X1012634Y19204395D01*
X974500Y19112330D01*
X974500Y16440977D01*
X952826Y16388651D01*
X911170Y16367750D01*
X891374Y16364866D01*
X891373Y16364866D01*
X778789Y16309827D01*
X690173Y16221211D01*
X635134Y16108627D01*
X635134Y16108626D01*
X624500Y16035641D01*
X624500Y15464360D01*
X635134Y15391375D01*
X635134Y15391374D01*
X690173Y15278790D01*
X690174Y15278789D01*
X778789Y15190174D01*
X891375Y15135134D01*
X911169Y15132251D01*
X959822Y15103260D01*
X974500Y15059024D01*
X974500Y14715171D01*
X1012634Y14623106D01*
X1012637Y14623102D01*
X1120113Y14515626D01*
X1141787Y14463300D01*
X1120113Y14410974D01*
X702234Y13993095D01*
X664100Y13901030D01*
X664100Y13025571D01*
X702234Y12933506D01*
X702236Y12933503D01*
X1007826Y12627914D01*
X1029500Y12575588D01*
X1029500Y12312378D01*
X1032269Y12288505D01*
X1032269Y12288503D01*
X1032270Y12288502D01*
X1075384Y12190859D01*
X1150859Y12115384D01*
X1248502Y12072270D01*
X1272377Y12069500D01*
X1727622Y12069501D01*
X1751498Y12072270D01*
X1849141Y12115384D01*
X1924616Y12190859D01*
X1967730Y12288502D01*
X1970500Y12312377D01*
X1970499Y12506590D01*
X1992173Y12558914D01*
X2044499Y12580588D01*
X2096825Y12558914D01*
X2544015Y12111725D01*
X2544018Y12111721D01*
X2548236Y12107503D01*
X2618703Y12037036D01*
X2656838Y12021241D01*
X2656839Y12021240D01*
X2710773Y11998899D01*
X2819040Y11998899D01*
X2819048Y11998900D01*
X3000787Y11998900D01*
X3053113Y11977226D01*
X3491463Y11538877D01*
X3913835Y11116505D01*
X3913836Y11116503D01*
X3938068Y11092271D01*
X3952130Y11078209D01*
X3978838Y11051501D01*
X3997607Y11006187D01*
X4000512Y10999174D01*
X3981221Y10952602D01*
X3978838Y10946849D01*
X3956406Y10931482D01*
X3940859Y10924617D01*
X3865385Y10849143D01*
X3865384Y10849142D01*
X3865384Y10849141D01*
X3860866Y10838909D01*
X3838892Y10789142D01*
X3822270Y10751498D01*
X3819543Y10727988D01*
X3819500Y10727620D01*
X3819500Y10272378D01*
X3822269Y10248505D01*
X3822269Y10248503D01*
X3822270Y10248502D01*
X3865384Y10150859D01*
X3940859Y10075384D01*
X4038502Y10032270D01*
X4062377Y10029500D01*
X4325586Y10029501D01*
X4377912Y10007827D01*
X4534355Y9851384D01*
X4537666Y9843389D01*
X4544720Y9838375D01*
X4548151Y9818077D01*
X4556029Y9799058D01*
X4552717Y9791064D01*
X4554160Y9782530D01*
X4542829Y9767192D01*
X4534355Y9746732D01*
X4521346Y9736367D01*
X4520162Y9735625D01*
X4422587Y9679289D01*
X4409552Y9666255D01*
X4402464Y9661809D01*
X4382165Y9658378D01*
X4363147Y9650500D01*
X3837569Y9650500D01*
X3785243Y9672174D01*
X3764991Y9710065D01*
X3759680Y9736767D01*
X3758664Y9738287D01*
X3718459Y9798459D01*
X3712954Y9802137D01*
X3656769Y9839679D01*
X3602369Y9850500D01*
X3602367Y9850500D01*
X3397636Y9850500D01*
X3343229Y9839679D01*
X3291111Y9804855D01*
X3235562Y9793806D01*
X3208889Y9804855D01*
X3156770Y9839679D01*
X3138118Y9843389D01*
X3102369Y9850500D01*
X3102367Y9850500D01*
X2897636Y9850500D01*
X2843229Y9839679D01*
X2791111Y9804855D01*
X2777442Y9802137D01*
X2766025Y9794140D01*
X2751209Y9796919D01*
X2735562Y9793806D01*
X2710247Y9803968D01*
X2709546Y9804415D01*
X2656769Y9839679D01*
X2652999Y9840429D01*
X2643899Y9846225D01*
X2631082Y9864526D01*
X2615284Y9880324D01*
X2615284Y9887082D01*
X2611408Y9892616D01*
X2615285Y9914621D01*
X2615286Y9936962D01*
X2620631Y9944962D01*
X2621236Y9948394D01*
X2624410Y9950618D01*
X2631324Y9960966D01*
X2718186Y10047828D01*
X2770511Y10069501D01*
X2772368Y10069501D01*
X2772377Y10069500D01*
X3227622Y10069501D01*
X3251498Y10072270D01*
X3349141Y10115384D01*
X3424616Y10190859D01*
X3467730Y10288502D01*
X3470500Y10312377D01*
X3470499Y10667622D01*
X3467730Y10691498D01*
X3424616Y10789141D01*
X3349141Y10864616D01*
X3251498Y10907730D01*
X3227623Y10910500D01*
X3227619Y10910500D01*
X2772377Y10910500D01*
X2748504Y10907731D01*
X2650858Y10864616D01*
X2575385Y10789143D01*
X2532270Y10691499D01*
X2529500Y10667620D01*
X2529500Y10598314D01*
X2507826Y10545988D01*
X1847694Y9885856D01*
X1787635Y9825796D01*
X1787632Y9825791D01*
X1770571Y9784604D01*
X1763736Y9771815D01*
X1740321Y9736770D01*
X1740320Y9736768D01*
X1729500Y9682368D01*
X1729500Y9117637D01*
X1729501Y9117632D01*
X1732013Y9104999D01*
X1720962Y9049452D01*
X1673869Y9017987D01*
X1645000Y9017988D01*
X1632370Y9020500D01*
X1632369Y9020500D01*
X1464413Y9020500D01*
X1412087Y9042174D01*
X1012174Y9442087D01*
X990500Y9494413D01*
X990500Y10005689D01*
X1012174Y10058015D01*
X1034608Y10073383D01*
X1039141Y10075384D01*
X1114616Y10150859D01*
X1157730Y10248502D01*
X1160500Y10272377D01*
X1160499Y10727622D01*
X1157730Y10751498D01*
X1114616Y10849141D01*
X1039141Y10924616D01*
X941498Y10967730D01*
X917623Y10970500D01*
X917619Y10970500D01*
X562377Y10970500D01*
X538504Y10967731D01*
X440858Y10924616D01*
X376826Y10860583D01*
X324500Y10838909D01*
X272174Y10860583D01*
X250500Y10912909D01*
X250500Y30109107D01*
X272174Y30161433D01*
X324500Y30183107D01*
X376826Y30161433D01*
X394573Y30132893D01*
X412614Y30079745D01*
X612211Y29675003D01*
X612217Y29674992D01*
X856671Y29309141D01*
X862930Y29299774D01*
X1160481Y28960482D01*
X1499773Y28662931D01*
X1605525Y28592270D01*
X1874990Y28412219D01*
X1874995Y28412216D01*
X1875000Y28412213D01*
X2279742Y28212616D01*
X2707074Y28067556D01*
X2707078Y28067556D01*
X2707082Y28067554D01*
X2928379Y28023536D01*
X3149684Y27979516D01*
X3600000Y27950000D01*
X4050315Y27979516D01*
X4379319Y28044959D01*
X4492916Y28067554D01*
X4492917Y28067555D01*
X4492925Y28067556D01*
X4920257Y28212616D01*
X5324999Y28412213D01*
X5700226Y28662931D01*
X6039518Y28960482D01*
X6337069Y29299774D01*
X6587787Y29675001D01*
X6787384Y30079743D01*
X6932444Y30507075D01*
X6932729Y30508505D01*
X6969127Y30691496D01*
X7020484Y30949685D01*
X7050000Y31400000D01*
X7020484Y31850316D01*
X6949499Y32207185D01*
X6932446Y32292918D01*
X6932444Y32292922D01*
X6932444Y32292926D01*
X6787384Y32720258D01*
X6587787Y33125001D01*
X6587784Y33125006D01*
X6587781Y33125011D01*
X6337070Y33500225D01*
X6337069Y33500227D01*
X6039518Y33839519D01*
X5700226Y34137070D01*
X5698553Y34138188D01*
X5325008Y34387783D01*
X5324997Y34387789D01*
X4920255Y34587386D01*
X4867107Y34605427D01*
X4824524Y34642771D01*
X4820820Y34699286D01*
X4858164Y34741869D01*
X4890893Y34749500D01*
X24675500Y34749500D01*
X24727826Y34727826D01*
G37*
%TD.AperFunction*%
%TA.AperFunction,Conductor*%
G36*
X7549712Y21010426D02*
G01*
X7597825Y20962314D01*
X7619500Y20909989D01*
X7619500Y20524414D01*
X7597826Y20472088D01*
X7347911Y20222174D01*
X7295585Y20200500D01*
X7036627Y20200500D01*
X7012340Y20197683D01*
X6912983Y20153813D01*
X6836187Y20077017D01*
X6792318Y19977663D01*
X6789500Y19953370D01*
X6789500Y19586628D01*
X6792317Y19562341D01*
X6792317Y19562339D01*
X6792318Y19562338D01*
X6836187Y19462984D01*
X6912984Y19386187D01*
X7012338Y19342318D01*
X7036627Y19339500D01*
X7416000Y19339501D01*
X7442002Y19328731D01*
X7468245Y19317908D01*
X7468268Y19317851D01*
X7468326Y19317827D01*
X7490000Y19265615D01*
X7490000Y19164091D01*
X7490157Y19163503D01*
X7490166Y19158094D01*
X7481057Y19136008D01*
X7474874Y19112931D01*
X7468581Y19105757D01*
X7468573Y19105735D01*
X7468557Y19105729D01*
X7468492Y19105654D01*
X7354301Y18991463D01*
X7310501Y18970282D01*
X7288504Y18967731D01*
X7190858Y18924616D01*
X7115385Y18849143D01*
X7072270Y18751499D01*
X7069500Y18727620D01*
X7069500Y18272378D01*
X7072269Y18248505D01*
X7072269Y18248503D01*
X7072270Y18248502D01*
X7115384Y18150859D01*
X7190859Y18075384D01*
X7195389Y18073384D01*
X7234502Y18032423D01*
X7239500Y18005689D01*
X7239500Y14916571D01*
X7277634Y14824506D01*
X7277637Y14824502D01*
X7525313Y14576826D01*
X7546987Y14524500D01*
X7525313Y14472174D01*
X7472988Y14450500D01*
X7355136Y14450500D01*
X7330013Y14447586D01*
X7330007Y14447585D01*
X7227234Y14402206D01*
X7147794Y14322766D01*
X7102414Y14219989D01*
X7099500Y14194865D01*
X7099500Y13130913D01*
X7077826Y13078587D01*
X7025500Y13056913D01*
X6973174Y13078587D01*
X5772174Y14279587D01*
X5750500Y14331913D01*
X5750500Y14513418D01*
X5762971Y14554530D01*
X5766052Y14559141D01*
X5789157Y14593720D01*
X5800500Y14650745D01*
X5800499Y15449254D01*
X5790673Y15498658D01*
X5801725Y15554205D01*
X5826250Y15577177D01*
X5833413Y15581311D01*
X5917289Y15665187D01*
X5976599Y15767914D01*
X6007299Y15882489D01*
X6007300Y15882489D01*
X6007300Y16001111D01*
X6007299Y16001112D01*
X5976600Y16115683D01*
X5976598Y16115688D01*
X5917291Y16218410D01*
X5917290Y16218411D01*
X5917289Y16218413D01*
X5833413Y16302289D01*
X5833410Y16302291D01*
X5833409Y16302292D01*
X5730687Y16361599D01*
X5730682Y16361601D01*
X5616111Y16392300D01*
X5616109Y16392300D01*
X5555113Y16392300D01*
X5502787Y16413974D01*
X4422173Y17494588D01*
X4400499Y17546914D01*
X4400499Y18169864D01*
X4399128Y18181687D01*
X4397585Y18194991D01*
X4352206Y18297765D01*
X4272765Y18377206D01*
X4169991Y18422585D01*
X4169990Y18422586D01*
X4169988Y18422586D01*
X4148659Y18425060D01*
X4144865Y18425500D01*
X4144864Y18425500D01*
X3755136Y18425500D01*
X3730013Y18422586D01*
X3730007Y18422585D01*
X3627234Y18377206D01*
X3547794Y18297766D01*
X3502414Y18194989D01*
X3499500Y18169865D01*
X3499500Y17055137D01*
X3502414Y17030014D01*
X3502415Y17030008D01*
X3530392Y16966647D01*
X3547794Y16927235D01*
X3627235Y16847794D01*
X3730009Y16802415D01*
X3755135Y16799500D01*
X4144864Y16799501D01*
X4169991Y16802415D01*
X4272765Y16847794D01*
X4272768Y16847798D01*
X4274105Y16848712D01*
X4275519Y16849011D01*
X4279038Y16850564D01*
X4279365Y16849822D01*
X4329523Y16860402D01*
X4368251Y16839988D01*
X4682425Y16525814D01*
X4704099Y16473488D01*
X4682425Y16421162D01*
X4649252Y16402010D01*
X4607417Y16390801D01*
X4607412Y16390799D01*
X4504690Y16331492D01*
X4431806Y16258608D01*
X4379480Y16236934D01*
X4327154Y16258608D01*
X4321894Y16264607D01*
X4321290Y16265211D01*
X4321289Y16265213D01*
X4237413Y16349089D01*
X4237410Y16349091D01*
X4237409Y16349092D01*
X4134687Y16408399D01*
X4134682Y16408401D01*
X4020111Y16439100D01*
X4020109Y16439100D01*
X3901491Y16439100D01*
X3901489Y16439100D01*
X3786917Y16408401D01*
X3786912Y16408399D01*
X3684190Y16349092D01*
X3600308Y16265210D01*
X3541001Y16162488D01*
X3540999Y16162483D01*
X3510300Y16047912D01*
X3510300Y15929289D01*
X3540999Y15814718D01*
X3541001Y15814713D01*
X3600308Y15711991D01*
X3600309Y15711990D01*
X3600311Y15711987D01*
X3684187Y15628111D01*
X3684189Y15628110D01*
X3684190Y15628109D01*
X3786912Y15568802D01*
X3786914Y15568801D01*
X3786915Y15568801D01*
X3786917Y15568800D01*
X3841387Y15554205D01*
X3901488Y15538101D01*
X3901489Y15538100D01*
X4024960Y15538100D01*
X4024960Y15537745D01*
X4026221Y15538267D01*
X4048220Y15529155D01*
X4071224Y15523010D01*
X4078547Y15516593D01*
X4177826Y15417314D01*
X4199500Y15364988D01*
X4199500Y14650751D01*
X4210842Y14593722D01*
X4210843Y14593719D01*
X4254049Y14529055D01*
X4257877Y14525227D01*
X4273918Y14501220D01*
X4287635Y14468105D01*
X4287637Y14468102D01*
X4757801Y13997938D01*
X4779475Y13945612D01*
X4757801Y13893286D01*
X4705475Y13871612D01*
X4677161Y13877243D01*
X4673885Y13878600D01*
X4559311Y13909300D01*
X4559309Y13909300D01*
X4440691Y13909300D01*
X4440689Y13909300D01*
X4326117Y13878601D01*
X4326112Y13878599D01*
X4223390Y13819292D01*
X4139508Y13735410D01*
X4080201Y13632688D01*
X4080199Y13632683D01*
X4049500Y13518112D01*
X4049500Y13399489D01*
X4080199Y13284918D01*
X4080201Y13284913D01*
X4139508Y13182191D01*
X4139509Y13182190D01*
X4139511Y13182187D01*
X4189479Y13132219D01*
X4226817Y13094881D01*
X4224893Y13092958D01*
X4248866Y13051451D01*
X4249500Y13041781D01*
X4249500Y12486583D01*
X4237030Y12445474D01*
X4223094Y12424616D01*
X4210842Y12406279D01*
X4199500Y12349254D01*
X4199500Y11718013D01*
X4177826Y11665687D01*
X4125500Y11644013D01*
X4073174Y11665687D01*
X3277098Y12461763D01*
X3277094Y12461766D01*
X3185028Y12499900D01*
X2895012Y12499900D01*
X2842686Y12521574D01*
X2671086Y12693175D01*
X2649412Y12745501D01*
X2671086Y12797827D01*
X2723412Y12819501D01*
X2977622Y12819501D01*
X3001498Y12822270D01*
X3099141Y12865384D01*
X3174616Y12940859D01*
X3217730Y13038502D01*
X3220500Y13062377D01*
X3220499Y13417622D01*
X3217730Y13441498D01*
X3174616Y13539141D01*
X3099141Y13614616D01*
X3001498Y13657730D01*
X2977623Y13660500D01*
X2977619Y13660500D01*
X2714413Y13660500D01*
X2662087Y13682174D01*
X2631086Y13713175D01*
X2609412Y13765501D01*
X2631086Y13817827D01*
X2683410Y13839501D01*
X2977622Y13839501D01*
X3001498Y13842270D01*
X3099141Y13885384D01*
X3174616Y13960859D01*
X3217730Y14058502D01*
X3220500Y14082377D01*
X3220499Y14331001D01*
X3242173Y14383326D01*
X3294499Y14405000D01*
X3404811Y14405000D01*
X3404811Y14405001D01*
X3519386Y14435701D01*
X3622113Y14495011D01*
X3705989Y14578887D01*
X3765299Y14681614D01*
X3795999Y14796189D01*
X3796000Y14796189D01*
X3796000Y14914811D01*
X3795999Y14914812D01*
X3795527Y14916572D01*
X3765299Y15029386D01*
X3754271Y15048487D01*
X3705991Y15132110D01*
X3705990Y15132111D01*
X3705989Y15132113D01*
X3622113Y15215989D01*
X3622110Y15215991D01*
X3622109Y15215992D01*
X3519387Y15275299D01*
X3519382Y15275301D01*
X3404811Y15306000D01*
X3404809Y15306000D01*
X3286191Y15306000D01*
X3286189Y15306000D01*
X3171617Y15275301D01*
X3171612Y15275299D01*
X3068890Y15215992D01*
X2985008Y15132110D01*
X2925701Y15029388D01*
X2925699Y15029383D01*
X2895000Y14914812D01*
X2895000Y14791341D01*
X2894643Y14791341D01*
X2895165Y14790080D01*
X2886033Y14768035D01*
X2879838Y14744985D01*
X2873491Y14737754D01*
X2837911Y14702174D01*
X2785585Y14680500D01*
X2522377Y14680500D01*
X2498504Y14677731D01*
X2400858Y14634616D01*
X2325385Y14559143D01*
X2325384Y14559142D01*
X2325384Y14559141D01*
X2317174Y14540547D01*
X2282270Y14461499D01*
X2279500Y14437620D01*
X2279500Y14243413D01*
X2257826Y14191087D01*
X2205500Y14169413D01*
X2153174Y14191087D01*
X1497174Y14847087D01*
X1475500Y14899413D01*
X1475500Y15059024D01*
X1497174Y15111350D01*
X1538830Y15132251D01*
X1558625Y15135134D01*
X1671211Y15190174D01*
X1759826Y15278789D01*
X1814866Y15391375D01*
X1825500Y15464364D01*
X1825500Y16035636D01*
X1814866Y16108625D01*
X1759826Y16221211D01*
X1671211Y16309826D01*
X1671210Y16309827D01*
X1558626Y16364866D01*
X1538830Y16367750D01*
X1490176Y16396743D01*
X1475500Y16440977D01*
X1475500Y16966647D01*
X1497174Y17018973D01*
X1549500Y17040647D01*
X1601826Y17018973D01*
X1617192Y16996540D01*
X1647794Y16927235D01*
X1727235Y16847794D01*
X1830009Y16802415D01*
X1855135Y16799500D01*
X2244864Y16799501D01*
X2269991Y16802415D01*
X2372765Y16847794D01*
X2452206Y16927235D01*
X2497585Y17030009D01*
X2500500Y17055135D01*
X2500499Y18169864D01*
X2497585Y18194991D01*
X2452206Y18297765D01*
X2372765Y18377206D01*
X2269991Y18422585D01*
X2269990Y18422586D01*
X2269988Y18422586D01*
X2248659Y18425060D01*
X2244865Y18425500D01*
X2244864Y18425500D01*
X1855136Y18425500D01*
X1830013Y18422586D01*
X1830007Y18422585D01*
X1727234Y18377206D01*
X1647794Y18297766D01*
X1617195Y18228464D01*
X1576232Y18189351D01*
X1519610Y18190659D01*
X1480497Y18231622D01*
X1475500Y18258354D01*
X1475500Y18928087D01*
X1497174Y18980413D01*
X1561261Y19044500D01*
X1631749Y19114989D01*
X1684074Y19136662D01*
X1720836Y19125280D01*
X1720962Y19125564D01*
X1723411Y19124483D01*
X1725890Y19123715D01*
X1727233Y19122795D01*
X1727234Y19122795D01*
X1727235Y19122794D01*
X1830009Y19077415D01*
X1855135Y19074500D01*
X2244864Y19074501D01*
X2269991Y19077415D01*
X2372765Y19122794D01*
X2452206Y19202235D01*
X2497585Y19305009D01*
X2500500Y19330135D01*
X2500499Y20241588D01*
X2522173Y20293913D01*
X2807287Y20579026D01*
X2859613Y20600700D01*
X3158972Y20600700D01*
X3164787Y20600700D01*
X3217113Y20579026D01*
X3477826Y20318313D01*
X3499500Y20265987D01*
X3499500Y19330137D01*
X3502414Y19305014D01*
X3502415Y19305008D01*
X3510266Y19287227D01*
X3547794Y19202235D01*
X3627235Y19122794D01*
X3730009Y19077415D01*
X3755135Y19074500D01*
X4144864Y19074501D01*
X4169991Y19077415D01*
X4262093Y19118083D01*
X4318714Y19119390D01*
X4343002Y19101238D01*
X4344382Y19102617D01*
X4347809Y19099190D01*
X4347811Y19099187D01*
X4431687Y19015311D01*
X4431689Y19015310D01*
X4431690Y19015309D01*
X4534412Y18956002D01*
X4534414Y18956001D01*
X4534415Y18956001D01*
X4534417Y18956000D01*
X4591702Y18940651D01*
X4648988Y18925301D01*
X4648989Y18925300D01*
X4648991Y18925300D01*
X4767611Y18925300D01*
X4767611Y18925301D01*
X4882186Y18956001D01*
X4984913Y19015311D01*
X5068789Y19099187D01*
X5068791Y19099192D01*
X5070332Y19100732D01*
X5122658Y19122406D01*
X5174984Y19100732D01*
X5189139Y19080906D01*
X5190173Y19078790D01*
X5190174Y19078789D01*
X5278789Y18990174D01*
X5391375Y18935134D01*
X5464364Y18924500D01*
X5464370Y18924500D01*
X6035630Y18924500D01*
X6035636Y18924500D01*
X6108625Y18935134D01*
X6221211Y18990174D01*
X6309826Y19078789D01*
X6364866Y19191375D01*
X6375500Y19264364D01*
X6375500Y19785636D01*
X6364866Y19858625D01*
X6358174Y19872313D01*
X6344019Y19901269D01*
X6336500Y19933769D01*
X6336500Y20043681D01*
X6358174Y20096007D01*
X6360082Y20097681D01*
X6362610Y20100210D01*
X6362613Y20100211D01*
X6446489Y20184087D01*
X6505799Y20286814D01*
X6536499Y20401389D01*
X6536500Y20401389D01*
X6536500Y20520011D01*
X6536499Y20520012D01*
X6535319Y20524414D01*
X6510506Y20617021D01*
X6505800Y20634583D01*
X6505798Y20634588D01*
X6446491Y20737310D01*
X6446490Y20737311D01*
X6446489Y20737313D01*
X6362613Y20821189D01*
X6362610Y20821191D01*
X6362609Y20821192D01*
X6259887Y20880499D01*
X6259882Y20880501D01*
X6237036Y20886622D01*
X6192103Y20921100D01*
X6184711Y20977253D01*
X6219189Y21022186D01*
X6256189Y21032100D01*
X7497387Y21032100D01*
X7549712Y21010426D01*
G37*
%TD.AperFunction*%
%TD*%
M02*
