M48
; DRILL file {KiCad 9.0.8+dfsg-1} date 2026-09-08T08:42:20+0530
; FORMAT={-:-/ absolute / metric / decimal}
; #@! TF.CreationDate,2026-09-08T08:42:20+05:30
; #@! TF.GenerationSoftware,Kicad,Pcbnew,9.0.8+dfsg-1
; #@! TF.FileFunction,Plated,1,4,PTH
FMAT,2
METRIC
; #@! TA.AperFunction,Plated,PTH,ViaDrill
T1C0.200
; #@! TA.AperFunction,Plated,PTH,ViaDrill
T2C0.250
; #@! TA.AperFunction,Plated,PTH,ComponentDrill
T3C0.600
; #@! TA.AperFunction,Plated,PTH,ComponentDrill
T4C0.650
%
G90
G05
T1
X3.5Y24.0
X3.7Y20.9
X4.6Y21.0
X7.05Y15.95
X8.0Y19.9
X8.6Y15.95
X9.1Y21.7
X12.35Y15.55
X12.4Y16.4
X20.4Y10.9
X20.85Y11.75
X23.45Y8.3
T2
X0.921Y25.099
X1.216Y33.734
X2.942Y20.432
X3.7Y23.0
X5.263Y29.532
X5.476Y18.7
X5.692Y20.771
X6.435Y21.359
X7.3Y23.3
X7.689Y27.489
X7.689Y26.731
X9.092Y23.541
X9.217Y14.2
X10.093Y21.713
X10.116Y19.283
X10.316Y7.146
X10.436Y9.313
X10.525Y30.387
X10.525Y28.412
X10.734Y12.237
X10.882Y23.466
X11.095Y16.613
X11.679Y5.4
X11.77Y19.626
X11.94Y23.667
X12.072Y12.24
X12.3Y17.9
X12.5Y30.387
X12.5Y28.412
X12.756Y21.344
X13.015Y23.342
X13.125Y25.447
X13.55Y18.614
X14.152Y7.599
X14.206Y10.207
X14.321Y23.668
X14.321Y20.064
X14.475Y30.387
X14.475Y28.412
X14.534Y2.166
X14.951Y25.817
X15.042Y18.494
X15.65Y25.484
X15.65Y3.564
X16.647Y25.447
X16.7Y20.5
X17.407Y8.274
X17.613Y12.128
X17.694Y13.367
X18.164Y8.37
X18.4Y23.7
X18.564Y10.206
X19.046Y10.67
X19.241Y8.234
X19.389Y14.199
X19.81Y29.345
X19.85Y5.103
X19.873Y20.917
X20.52Y8.513
X20.744Y24.701
X20.783Y14.536
X21.49Y8.726
X21.509Y5.271
X22.5Y10.299
X22.794Y8.479
T4
X22.0Y33.8
X22.0Y32.53
X22.0Y31.26
X22.0Y29.99
X22.0Y28.72
T3
X15.56Y6.68G85X15.56Y5.58
G05
X15.56Y2.25G85X15.56Y1.65
G05
X24.2Y6.68G85X24.2Y5.58
G05
X24.2Y2.25G85X24.2Y1.65
G05
M30
