%TF.GenerationSoftware,KiCad,Pcbnew,9.0.8+dfsg-1*%
%TF.CreationDate,2026-09-08T08:42:20+05:30*%
%TF.ProjectId,smove-r2-main,736d6f76-652d-4723-922d-6d61696e2e6b,rev?*%
%TF.SameCoordinates,Original*%
%TF.FileFunction,Copper,L1,Top*%
%TF.FilePolarity,Positive*%
%FSLAX46Y46*%
G04 Gerber Fmt 4.6, Leading zero omitted, Abs format (unit mm)*
G04 Created by KiCad (PCBNEW 9.0.8+dfsg-1) date 2026-09-08 08:42:20*
%MOMM*%
%LPD*%
G01*
G04 APERTURE LIST*
G04 Aperture macros list*
%AMRoundRect*
0 Rectangle with rounded corners*
0 $1 Rounding radius*
0 $2 $3 $4 $5 $6 $7 $8 $9 X,Y pos of 4 corners*
0 Add a 4 corners polygon primitive as box body*
4,1,4,$2,$3,$4,$5,$6,$7,$8,$9,$2,$3,0*
0 Add four circle primitives for the rounded corners*
1,1,$1+$1,$2,$3*
1,1,$1+$1,$4,$5*
1,1,$1+$1,$6,$7*
1,1,$1+$1,$8,$9*
0 Add four rect primitives between the rounded corners*
20,1,$1+$1,$2,$3,$4,$5,0*
20,1,$1+$1,$4,$5,$6,$7,0*
20,1,$1+$1,$6,$7,$8,$9,0*
20,1,$1+$1,$8,$9,$2,$3,0*%
%AMFreePoly0*
4,1,6,0.725000,-0.725000,-0.725000,-0.725000,-0.725000,0.125000,-0.125000,0.725000,0.725000,0.725000,0.725000,-0.725000,0.725000,-0.725000,$1*%
G04 Aperture macros list end*
%TA.AperFunction,SMDPad,CuDef*%
%ADD10RoundRect,0.135000X0.185000X-0.135000X0.185000X0.135000X-0.185000X0.135000X-0.185000X-0.135000X0*%
%TD*%
%TA.AperFunction,SMDPad,CuDef*%
%ADD11RoundRect,0.157500X0.842500X-0.367500X0.842500X0.367500X-0.842500X0.367500X-0.842500X-0.367500X0*%
%TD*%
%TA.AperFunction,SMDPad,CuDef*%
%ADD12RoundRect,0.135000X-0.135000X-0.185000X0.135000X-0.185000X0.135000X0.185000X-0.135000X0.185000X0*%
%TD*%
%TA.AperFunction,SMDPad,CuDef*%
%ADD13RoundRect,0.140000X0.170000X-0.140000X0.170000X0.140000X-0.170000X0.140000X-0.170000X-0.140000X0*%
%TD*%
%TA.AperFunction,SMDPad,CuDef*%
%ADD14R,0.650000X0.850000*%
%TD*%
%TA.AperFunction,SMDPad,CuDef*%
%ADD15R,0.600000X1.450000*%
%TD*%
%TA.AperFunction,SMDPad,CuDef*%
%ADD16R,0.300000X1.450000*%
%TD*%
%TA.AperFunction,HeatsinkPad*%
%ADD17O,1.000000X2.100000*%
%TD*%
%TA.AperFunction,HeatsinkPad*%
%ADD18O,1.000000X1.600000*%
%TD*%
%TA.AperFunction,SMDPad,CuDef*%
%ADD19RoundRect,0.250000X0.475000X-0.250000X0.475000X0.250000X-0.475000X0.250000X-0.475000X-0.250000X0*%
%TD*%
%TA.AperFunction,SMDPad,CuDef*%
%ADD20RoundRect,0.250000X1.500000X-0.250000X1.500000X0.250000X-1.500000X0.250000X-1.500000X-0.250000X0*%
%TD*%
%TA.AperFunction,SMDPad,CuDef*%
%ADD21RoundRect,0.250001X1.449999X-0.499999X1.449999X0.499999X-1.449999X0.499999X-1.449999X-0.499999X0*%
%TD*%
%TA.AperFunction,SMDPad,CuDef*%
%ADD22RoundRect,0.150000X-0.512500X-0.150000X0.512500X-0.150000X0.512500X0.150000X-0.512500X0.150000X0*%
%TD*%
%TA.AperFunction,SMDPad,CuDef*%
%ADD23RoundRect,0.250000X-1.500000X0.250000X-1.500000X-0.250000X1.500000X-0.250000X1.500000X0.250000X0*%
%TD*%
%TA.AperFunction,SMDPad,CuDef*%
%ADD24RoundRect,0.250001X-1.449999X0.499999X-1.449999X-0.499999X1.449999X-0.499999X1.449999X0.499999X0*%
%TD*%
%TA.AperFunction,SMDPad,CuDef*%
%ADD25R,0.800000X0.400000*%
%TD*%
%TA.AperFunction,SMDPad,CuDef*%
%ADD26R,0.400000X0.800000*%
%TD*%
%TA.AperFunction,SMDPad,CuDef*%
%ADD27FreePoly0,0.000000*%
%TD*%
%TA.AperFunction,SMDPad,CuDef*%
%ADD28R,1.450000X1.450000*%
%TD*%
%TA.AperFunction,SMDPad,CuDef*%
%ADD29R,0.700000X0.700000*%
%TD*%
%TA.AperFunction,SMDPad,CuDef*%
%ADD30RoundRect,0.225000X-0.225000X-0.250000X0.225000X-0.250000X0.225000X0.250000X-0.225000X0.250000X0*%
%TD*%
%TA.AperFunction,SMDPad,CuDef*%
%ADD31RoundRect,0.250000X-0.250000X-0.475000X0.250000X-0.475000X0.250000X0.475000X-0.250000X0.475000X0*%
%TD*%
%TA.AperFunction,SMDPad,CuDef*%
%ADD32RoundRect,0.135000X-0.185000X0.135000X-0.185000X-0.135000X0.185000X-0.135000X0.185000X0.135000X0*%
%TD*%
%TA.AperFunction,SMDPad,CuDef*%
%ADD33RoundRect,0.150000X0.150000X-0.587500X0.150000X0.587500X-0.150000X0.587500X-0.150000X-0.587500X0*%
%TD*%
%TA.AperFunction,SMDPad,CuDef*%
%ADD34RoundRect,0.036000X-0.264000X-0.084000X0.264000X-0.084000X0.264000X0.084000X-0.264000X0.084000X0*%
%TD*%
%TA.AperFunction,SMDPad,CuDef*%
%ADD35RoundRect,0.036000X-0.084000X-0.264000X0.084000X-0.264000X0.084000X0.264000X-0.084000X0.264000X0*%
%TD*%
%TA.AperFunction,SMDPad,CuDef*%
%ADD36RoundRect,0.252000X-0.588000X-0.588000X0.588000X-0.588000X0.588000X0.588000X-0.588000X0.588000X0*%
%TD*%
%TA.AperFunction,ComponentPad*%
%ADD37C,1.000000*%
%TD*%
%TA.AperFunction,SMDPad,CuDef*%
%ADD38RoundRect,0.140000X-0.140000X-0.170000X0.140000X-0.170000X0.140000X0.170000X-0.140000X0.170000X0*%
%TD*%
%TA.AperFunction,ViaPad*%
%ADD39C,0.500000*%
%TD*%
%TA.AperFunction,ViaPad*%
%ADD40C,0.450000*%
%TD*%
%TA.AperFunction,Conductor*%
%ADD41C,0.350000*%
%TD*%
%TA.AperFunction,Conductor*%
%ADD42C,0.180000*%
%TD*%
%TA.AperFunction,Conductor*%
%ADD43C,0.240000*%
%TD*%
%TA.AperFunction,Conductor*%
%ADD44C,0.250000*%
%TD*%
G04 APERTURE END LIST*
D10*
%TO.P,R9,1*%
%TO.N,/3V3_MAIN*%
X1200000Y31490000D03*
%TO.P,R9,2*%
%TO.N,/STRAP2*%
X1200000Y32510000D03*
%TD*%
D11*
%TO.P,SW2,1*%
%TO.N,/MCU_EN*%
X12300000Y9075000D03*
%TO.P,SW2,2*%
%TO.N,GND*%
X12300000Y13525000D03*
%TD*%
D12*
%TO.P,R4,1*%
%TO.N,/USB_DP*%
X19890000Y27200000D03*
%TO.P,R4,2*%
%TO.N,/USB_DP_MCU*%
X20910000Y27200000D03*
%TD*%
D13*
%TO.P,C10,1*%
%TO.N,/MCU_EN*%
X3800000Y19520000D03*
%TO.P,C10,2*%
%TO.N,GND*%
X3800000Y20480000D03*
%TD*%
D14*
%TO.P,D1,1*%
%TO.N,/LED_R_K*%
X18725000Y13025000D03*
%TO.P,D1,2*%
%TO.N,/LED_G_K*%
X19575000Y13025000D03*
%TO.P,D1,3*%
%TO.N,/LED_B_K*%
X19575000Y11575000D03*
%TO.P,D1,4*%
%TO.N,/3V3_MAIN*%
X18725000Y11575000D03*
%TD*%
D13*
%TO.P,C4,1*%
%TO.N,/3V3_MAIN*%
X5000000Y31320000D03*
%TO.P,C4,2*%
%TO.N,GND*%
X5000000Y32280000D03*
%TD*%
D12*
%TO.P,R5,1*%
%TO.N,/3V3_MAIN*%
X12290000Y22600000D03*
%TO.P,R5,2*%
%TO.N,/USB_POWER_N*%
X13310000Y22600000D03*
%TD*%
D15*
%TO.P,J1,A1*%
%TO.N,GND*%
X16630000Y7045000D03*
%TO.P,J1,A4*%
%TO.N,/VBUS*%
X17430000Y7045000D03*
D16*
%TO.P,J1,A5*%
%TO.N,/CC1*%
X18630000Y7045000D03*
%TO.P,J1,A6*%
%TO.N,/USB_DP*%
X19630000Y7045000D03*
%TO.P,J1,A7*%
%TO.N,/USB_DM*%
X20130000Y7045000D03*
%TO.P,J1,A8*%
%TO.N,unconnected-(J1-SBU1-PadA8)*%
X21130000Y7045000D03*
D15*
%TO.P,J1,A9*%
%TO.N,/VBUS*%
X22330000Y7045000D03*
%TO.P,J1,A12*%
%TO.N,GND*%
X23130000Y7045000D03*
%TO.P,J1,B1*%
X23130000Y7045000D03*
%TO.P,J1,B4*%
%TO.N,/VBUS*%
X22330000Y7045000D03*
D16*
%TO.P,J1,B5*%
%TO.N,/CC2*%
X21630000Y7045000D03*
%TO.P,J1,B6*%
%TO.N,/USB_DP*%
X20630000Y7045000D03*
%TO.P,J1,B7*%
%TO.N,/USB_DM*%
X19130000Y7045000D03*
%TO.P,J1,B8*%
%TO.N,unconnected-(J1-SBU2-PadB8)*%
X18130000Y7045000D03*
D15*
%TO.P,J1,B9*%
%TO.N,/VBUS*%
X17430000Y7045000D03*
%TO.P,J1,B12*%
%TO.N,GND*%
X16630000Y7045000D03*
D17*
%TO.P,J1,S1*%
X15560000Y6130000D03*
D18*
X15560000Y1950000D03*
D17*
X24200000Y6130000D03*
D18*
X24200000Y1950000D03*
%TD*%
D12*
%TO.P,R23,1*%
%TO.N,/TS_NO_CELL_SENSING*%
X4290000Y17600000D03*
%TO.P,R23,2*%
%TO.N,GND*%
X5310000Y17600000D03*
%TD*%
%TO.P,R3,1*%
%TO.N,/USB_DM*%
X19890000Y26000000D03*
%TO.P,R3,2*%
%TO.N,/USB_DM_MCU*%
X20910000Y26000000D03*
%TD*%
%TO.P,R2,1*%
%TO.N,/CC2*%
X17690000Y9200000D03*
%TO.P,R2,2*%
%TO.N,GND*%
X18710000Y9200000D03*
%TD*%
%TO.P,R15,1*%
%TO.N,/BAT_ADC*%
X9890000Y22600000D03*
%TO.P,R15,2*%
%TO.N,GND*%
X10910000Y22600000D03*
%TD*%
D19*
%TO.P,C3,1*%
%TO.N,/3V3_MAIN*%
X2800000Y31050000D03*
%TO.P,C3,2*%
%TO.N,GND*%
X2800000Y32950000D03*
%TD*%
D10*
%TO.P,R7,1*%
%TO.N,/3V3_MAIN*%
X2000000Y19490000D03*
%TO.P,R7,2*%
%TO.N,/MCU_EN*%
X2000000Y20510000D03*
%TD*%
D20*
%TO.P,J2,1*%
%TO.N,/PACK_P*%
X17250000Y17500000D03*
%TO.P,J2,2*%
%TO.N,GND*%
X17250000Y19500000D03*
D21*
%TO.P,J2,MP*%
X23000000Y15150000D03*
X23000000Y21850000D03*
%TD*%
D22*
%TO.P,U4,1*%
%TO.N,/SYS*%
X1662500Y28250000D03*
%TO.P,U4,2*%
%TO.N,GND*%
X1662500Y27300000D03*
%TO.P,U4,3*%
%TO.N,/SYS*%
X1662500Y26350000D03*
%TO.P,U4,4*%
%TO.N,unconnected-(U4-NC-Pad4)*%
X3937500Y26350000D03*
%TO.P,U4,5*%
%TO.N,/3V3_MAIN*%
X3937500Y28250000D03*
%TD*%
D23*
%TO.P,J4,1*%
%TO.N,/3V3_MAIN*%
X7750000Y12000000D03*
%TO.P,J4,2*%
%TO.N,GND*%
X7750000Y10000000D03*
%TO.P,J4,3*%
%TO.N,/SDA_HOST*%
X7750000Y8000000D03*
%TO.P,J4,4*%
%TO.N,/SCL_HOST*%
X7750000Y6000000D03*
D24*
%TO.P,J4,MP*%
%TO.N,GND*%
X2000000Y14350000D03*
X2000000Y3650000D03*
%TD*%
D10*
%TO.P,R8,1*%
%TO.N,/3V3_MAIN*%
X14400000Y21890000D03*
%TO.P,R8,2*%
%TO.N,/BOOT*%
X14400000Y22910000D03*
%TD*%
D25*
%TO.P,U1,1*%
%TO.N,GND*%
X6600000Y33400000D03*
%TO.P,U1,2*%
X6600000Y32600000D03*
%TO.P,U1,3*%
%TO.N,/3V3_MAIN*%
X6600000Y31800000D03*
%TO.P,U1,4*%
%TO.N,unconnected-(U1-NC-Pad4)*%
X6600000Y31000000D03*
%TO.P,U1,5*%
%TO.N,/STRAP2*%
X6600000Y30200000D03*
%TO.P,U1,6*%
%TO.N,unconnected-(U1-GPIO3-Pad6)*%
X6600000Y29400000D03*
%TO.P,U1,7*%
%TO.N,unconnected-(U1-NC-Pad7)*%
X6600000Y28600000D03*
%TO.P,U1,8*%
%TO.N,/MCU_EN*%
X6600000Y27800000D03*
%TO.P,U1,9*%
%TO.N,unconnected-(U1-NC-Pad9)*%
X6600000Y27000000D03*
%TO.P,U1,10*%
%TO.N,unconnected-(U1-NC-Pad10)*%
X6600000Y26200000D03*
%TO.P,U1,11*%
%TO.N,GND*%
X6600000Y25400000D03*
D26*
%TO.P,U1,12*%
%TO.N,/BAT_ADC*%
X7700000Y24500000D03*
%TO.P,U1,13*%
%TO.N,/USB_POWER_N*%
X8500000Y24500000D03*
%TO.P,U1,14*%
%TO.N,GND*%
X9300000Y24500000D03*
%TO.P,U1,15*%
%TO.N,unconnected-(U1-NC-Pad15)*%
X10100000Y24500000D03*
%TO.P,U1,16*%
%TO.N,/LED_B*%
X10900000Y24500000D03*
%TO.P,U1,17*%
%TO.N,unconnected-(U1-NC-Pad17)*%
X11700000Y24500000D03*
%TO.P,U1,18*%
%TO.N,/SCL_HOST*%
X12500000Y24500000D03*
%TO.P,U1,19*%
%TO.N,/SDA_HOST*%
X13300000Y24500000D03*
%TO.P,U1,20*%
%TO.N,/LED_R*%
X14100000Y24500000D03*
%TO.P,U1,21*%
%TO.N,/LED_G*%
X14900000Y24500000D03*
%TO.P,U1,22*%
%TO.N,/STRAP8*%
X15700000Y24500000D03*
%TO.P,U1,23*%
%TO.N,/BOOT*%
X16500000Y24500000D03*
%TO.P,U1,24*%
%TO.N,unconnected-(U1-NC-Pad24)*%
X17300000Y24500000D03*
D25*
%TO.P,U1,25*%
%TO.N,unconnected-(U1-NC-Pad25)*%
X18400000Y25400000D03*
%TO.P,U1,26*%
%TO.N,/USB_DM_MCU*%
X18400000Y26200000D03*
%TO.P,U1,27*%
%TO.N,/USB_DP_MCU*%
X18400000Y27000000D03*
%TO.P,U1,28*%
%TO.N,unconnected-(U1-NC-Pad28)*%
X18400000Y27800000D03*
%TO.P,U1,29*%
%TO.N,unconnected-(U1-NC-Pad29)*%
X18400000Y28600000D03*
%TO.P,U1,30*%
%TO.N,/UART_RX*%
X18400000Y29400000D03*
%TO.P,U1,31*%
%TO.N,/UART_TX*%
X18400000Y30200000D03*
%TO.P,U1,32*%
%TO.N,unconnected-(U1-NC-Pad32)*%
X18400000Y31000000D03*
%TO.P,U1,33*%
%TO.N,unconnected-(U1-NC-Pad33)*%
X18400000Y31800000D03*
%TO.P,U1,34*%
%TO.N,unconnected-(U1-NC-Pad34)*%
X18400000Y32600000D03*
%TO.P,U1,35*%
%TO.N,unconnected-(U1-NC-Pad35)*%
X18400000Y33400000D03*
D26*
%TO.P,U1,36*%
%TO.N,GND*%
X17300000Y34300000D03*
%TO.P,U1,37*%
X16500000Y34300000D03*
%TO.P,U1,38*%
X15700000Y34300000D03*
%TO.P,U1,39*%
X14900000Y34300000D03*
%TO.P,U1,40*%
X14100000Y34300000D03*
%TO.P,U1,41*%
X13300000Y34300000D03*
%TO.P,U1,42*%
X12500000Y34300000D03*
%TO.P,U1,43*%
X11700000Y34300000D03*
%TO.P,U1,44*%
X10900000Y34300000D03*
%TO.P,U1,45*%
X10100000Y34300000D03*
%TO.P,U1,46*%
X9300000Y34300000D03*
%TO.P,U1,47*%
X8500000Y34300000D03*
%TO.P,U1,48*%
X7700000Y34300000D03*
D27*
%TO.P,U1,49*%
X10525000Y31375000D03*
D28*
X10525000Y29400000D03*
X10525000Y27425000D03*
X12500000Y31375000D03*
X12500000Y29400000D03*
X12500000Y27425000D03*
X14475000Y31375000D03*
X14475000Y29400000D03*
X14475000Y27425000D03*
D29*
%TO.P,U1,50*%
X18450000Y34350000D03*
%TO.P,U1,51*%
X18450000Y24450000D03*
%TO.P,U1,52*%
X6550000Y24450000D03*
%TO.P,U1,53*%
X6550000Y34350000D03*
%TD*%
D30*
%TO.P,C1,1*%
%TO.N,/VBUS*%
X7025000Y16600000D03*
%TO.P,C1,2*%
%TO.N,GND*%
X8575000Y16600000D03*
%TD*%
D12*
%TO.P,R10,1*%
%TO.N,/3V3_MAIN*%
X13490000Y20800000D03*
%TO.P,R10,2*%
%TO.N,/STRAP8*%
X14510000Y20800000D03*
%TD*%
D31*
%TO.P,C13,1*%
%TO.N,/SYS*%
X2250000Y24000000D03*
%TO.P,C13,2*%
%TO.N,GND*%
X4150000Y24000000D03*
%TD*%
D12*
%TO.P,R13,1*%
%TO.N,/LED_B*%
X10690000Y1600000D03*
%TO.P,R13,2*%
%TO.N,/LED_B_K*%
X11710000Y1600000D03*
%TD*%
D32*
%TO.P,R22,1*%
%TO.N,/CHG_ILIM*%
X11000000Y18510000D03*
%TO.P,R22,2*%
%TO.N,GND*%
X11000000Y17490000D03*
%TD*%
D33*
%TO.P,U9,1*%
%TO.N,/CC1*%
X15250000Y11062500D03*
%TO.P,U9,2*%
%TO.N,/CC2*%
X17150000Y11062500D03*
%TO.P,U9,3*%
%TO.N,GND*%
X16200000Y12937500D03*
%TD*%
D34*
%TO.P,U6,1*%
%TO.N,/TS_NO_CELL_SENSING*%
X6600000Y20650000D03*
%TO.P,U6,2*%
%TO.N,/PACK_P*%
X6600000Y20150000D03*
%TO.P,U6,3*%
X6600000Y19650000D03*
%TO.P,U6,4*%
%TO.N,GND*%
X6600000Y19150000D03*
D35*
%TO.P,U6,5*%
X7250000Y18500000D03*
%TO.P,U6,6*%
X7750000Y18500000D03*
%TO.P,U6,7*%
%TO.N,/USB_POWER_N*%
X8250000Y18500000D03*
%TO.P,U6,8*%
%TO.N,GND*%
X8750000Y18500000D03*
D34*
%TO.P,U6,9*%
%TO.N,unconnected-(U6-CHG_N-Pad9)*%
X9400000Y19150000D03*
%TO.P,U6,10*%
%TO.N,/SYS*%
X9400000Y19650000D03*
%TO.P,U6,11*%
X9400000Y20150000D03*
%TO.P,U6,12*%
%TO.N,/CHG_ILIM*%
X9400000Y20650000D03*
D35*
%TO.P,U6,13*%
%TO.N,/VBUS*%
X8750000Y21300000D03*
%TO.P,U6,14*%
%TO.N,unconnected-(U6-TMR-Pad14)*%
X8250000Y21300000D03*
%TO.P,U6,15*%
%TO.N,unconnected-(U6-ITERM-Pad15)*%
X7750000Y21300000D03*
%TO.P,U6,16*%
%TO.N,/CHG_ISET*%
X7250000Y21300000D03*
D36*
%TO.P,U6,17*%
%TO.N,GND*%
X8000000Y19900000D03*
%TD*%
D37*
%TO.P,J3,1*%
%TO.N,GND*%
X22000000Y33800000D03*
%TO.P,J3,2*%
%TO.N,/UART_RX*%
X22000000Y32530000D03*
%TO.P,J3,3*%
%TO.N,/UART_TX*%
X22000000Y31260000D03*
%TO.P,J3,4*%
%TO.N,/MCU_EN*%
X22000000Y29990000D03*
%TO.P,J3,5*%
%TO.N,/BOOT*%
X22000000Y28720000D03*
%TD*%
D12*
%TO.P,R12,1*%
%TO.N,/LED_G*%
X12890000Y1600000D03*
%TO.P,R12,2*%
%TO.N,/LED_G_K*%
X13910000Y1600000D03*
%TD*%
D22*
%TO.P,U8,1*%
%TO.N,/USB_DM*%
X21362500Y11350000D03*
%TO.P,U8,2*%
%TO.N,GND*%
X21362500Y10400000D03*
%TO.P,U8,3*%
%TO.N,/USB_DP*%
X21362500Y9450000D03*
%TO.P,U8,4*%
X23637500Y9450000D03*
%TO.P,U8,5*%
%TO.N,/VBUS*%
X23637500Y10400000D03*
%TO.P,U8,6*%
%TO.N,/USB_DM*%
X23637500Y11350000D03*
%TD*%
D10*
%TO.P,R11,1*%
%TO.N,/LED_R*%
X19800000Y8890000D03*
%TO.P,R11,2*%
%TO.N,/LED_R_K*%
X19800000Y9910000D03*
%TD*%
D12*
%TO.P,R1,1*%
%TO.N,/CC1*%
X14890000Y9200000D03*
%TO.P,R1,2*%
%TO.N,GND*%
X15910000Y9200000D03*
%TD*%
D19*
%TO.P,C2,1*%
%TO.N,/PACK_P*%
X12800000Y15050000D03*
%TO.P,C2,2*%
%TO.N,GND*%
X12800000Y16950000D03*
%TD*%
D38*
%TO.P,C11,1*%
%TO.N,/BAT_ADC*%
X5720000Y22600000D03*
%TO.P,C11,2*%
%TO.N,GND*%
X6680000Y22600000D03*
%TD*%
D10*
%TO.P,R21,1*%
%TO.N,/CHG_ISET*%
X11000000Y20090000D03*
%TO.P,R21,2*%
%TO.N,GND*%
X11000000Y21110000D03*
%TD*%
D11*
%TO.P,SW3,1*%
%TO.N,/BOOT*%
X12300000Y2775000D03*
%TO.P,SW3,2*%
%TO.N,GND*%
X12300000Y7225000D03*
%TD*%
D12*
%TO.P,R14,1*%
%TO.N,/PACK_P*%
X7690000Y22600000D03*
%TO.P,R14,2*%
%TO.N,/BAT_ADC*%
X8710000Y22600000D03*
%TD*%
D39*
%TO.N,/3V3_MAIN*%
X13015000Y23341900D03*
X7688800Y26730700D03*
X15042000Y18494200D03*
X19045500Y10670200D03*
%TO.N,/BOOT*%
X19872700Y20917100D03*
%TO.N,/CC2*%
X21508800Y5271300D03*
X18163800Y8369600D03*
%TO.N,/CHG_ISET*%
X11770200Y19626300D03*
X6434700Y21358800D03*
%TO.N,/LED_B*%
X10882400Y23466200D03*
X10316300Y7146400D03*
%TO.N,/LED_B_K*%
X11678800Y5400000D03*
X14151600Y7599200D03*
X14205900Y10207200D03*
X17613300Y12128200D03*
%TO.N,/LED_G*%
X14533700Y2166300D03*
X15650000Y25483800D03*
%TO.N,/LED_G_K*%
X15650000Y3563800D03*
X19389400Y14198900D03*
X19850000Y5102900D03*
%TO.N,/LED_R*%
X20520200Y8513500D03*
X14951400Y25817000D03*
%TO.N,/LED_R_K*%
X18563900Y10205900D03*
X17693600Y13366900D03*
%TO.N,/MCU_EN*%
X12072500Y12240400D03*
X7688800Y27488800D03*
%TO.N,/PACK_P*%
X5476400Y18699700D03*
X5691600Y20771400D03*
D40*
X12350000Y15550000D03*
D39*
X13550000Y18614300D03*
%TO.N,/SCL_HOST*%
X11939700Y23667100D03*
X10436300Y9312700D03*
%TO.N,/SDA_HOST*%
X10734400Y12237000D03*
X13125200Y25447000D03*
%TO.N,/STRAP2*%
X1216300Y33733800D03*
X921300Y25098800D03*
X5263400Y29531600D03*
%TO.N,/STRAP8*%
X14320700Y23667700D03*
X14320700Y20064500D03*
%TO.N,/SYS*%
X2941500Y20431600D03*
D40*
X4600000Y21000000D03*
D39*
X10116200Y19283400D03*
%TO.N,/UART_RX*%
X19810400Y29344600D03*
%TO.N,/USB_DM*%
X19241300Y8234400D03*
D40*
X23450000Y8300000D03*
X20850000Y11750000D03*
D39*
%TO.N,/USB_DM_MCU*%
X20743600Y24701500D03*
X16647000Y25447000D03*
%TO.N,/USB_DP*%
X21490000Y8725800D03*
X22794000Y8479100D03*
X20782700Y14535700D03*
%TO.N,/USB_POWER_N*%
X12756300Y21343900D03*
X9092400Y23541400D03*
X11095100Y16612900D03*
%TO.N,/VBUS*%
X22500000Y10298900D03*
X9216700Y14200000D03*
D40*
X9100000Y21700000D03*
D39*
X17407500Y8273800D03*
D40*
X7050000Y15950000D03*
D39*
X10093500Y21713200D03*
%TO.N,GND*%
X7300000Y23300000D03*
D40*
X20400000Y10900000D03*
D39*
X16700000Y20500000D03*
X14475000Y28412500D03*
X12500000Y30387500D03*
D40*
X12400000Y16400000D03*
D39*
X10525000Y30387500D03*
X14475000Y30387500D03*
X18400000Y23700000D03*
X3700000Y23000000D03*
X12500000Y28412500D03*
D40*
X8000000Y19900000D03*
X3700000Y20900000D03*
D39*
X12300000Y17900000D03*
D40*
X8600000Y15950000D03*
D39*
X10525000Y28412500D03*
D40*
X3500000Y24000000D03*
%TD*%
D41*
%TO.N,/3V3_MAIN*%
X18725000Y10818300D02*
X18897400Y10818300D01*
X12290000Y22600000D02*
X12290000Y22616900D01*
X7840500Y12000000D02*
X11676800Y15836300D01*
X13490000Y20520500D02*
X13490000Y20660300D01*
X5868300Y31800000D02*
X5388300Y31320000D01*
X8286100Y30845600D02*
X8286100Y27203300D01*
X5388300Y31320000D02*
X5000000Y31320000D01*
X3937500Y30257500D02*
X3937500Y28250000D01*
X18897400Y10818300D02*
X19045500Y10670200D01*
X11676800Y18707300D02*
X13490000Y20520500D01*
X7331700Y31800000D02*
X8286100Y30845600D01*
X6600000Y31800000D02*
X7331700Y31800000D01*
X7750000Y12000000D02*
X7840500Y12000000D01*
X11676800Y15836300D02*
X11676800Y18707300D01*
X2000000Y19490000D02*
X2000000Y17750000D01*
X12290000Y22616900D02*
X13015000Y23341900D01*
X3592500Y30257500D02*
X2800000Y31050000D01*
X3937500Y28250000D02*
X3938000Y28250000D01*
X13402000Y20712000D02*
X13490000Y20800000D01*
X12172000Y22482000D02*
X12172000Y21099500D01*
X18725000Y11575000D02*
X18725000Y10818300D01*
X12559500Y20712000D02*
X13402000Y20712000D01*
X2800000Y31050000D02*
X2360000Y31490000D01*
X8286100Y27203300D02*
X7813500Y26730700D01*
X13490000Y20046200D02*
X15042000Y18494200D01*
X13490000Y20980000D02*
X13490000Y20800000D01*
X3937500Y30257500D02*
X3592500Y30257500D01*
X2000000Y17750000D02*
X7750000Y12000000D01*
X2360000Y31490000D02*
X1200000Y31490000D01*
X12172000Y21099500D02*
X12559500Y20712000D01*
X7813500Y26730700D02*
X7688800Y26730700D01*
X14400000Y21890000D02*
X13490000Y20980000D01*
X3937500Y28250000D02*
X3938000Y28250000D01*
X13490000Y20660300D02*
X13490000Y20046200D01*
X6600000Y31800000D02*
X5868300Y31800000D01*
X5000000Y31320000D02*
X3937500Y30257500D01*
X13490000Y20660300D02*
X13490000Y20800000D01*
X12290000Y22600000D02*
X12172000Y22482000D01*
D42*
%TO.N,/BAT_ADC*%
X7700000Y23853300D02*
X7700000Y23610000D01*
X7700000Y23610000D02*
X8710000Y22600000D01*
X6973300Y23853300D02*
X7700000Y23853300D01*
X8710000Y22600000D02*
X9890000Y22600000D01*
X7700000Y24500000D02*
X7700000Y23853300D01*
X5720000Y22600000D02*
X6973300Y23853300D01*
%TO.N,/BOOT*%
X19261800Y20306100D02*
X19261800Y17024500D01*
X18576700Y16339400D02*
X18268100Y16339400D01*
X13771200Y10474900D02*
X13709200Y10412900D01*
X19872700Y20917100D02*
X19261800Y20306200D01*
X13709200Y7859200D02*
X13654900Y7804900D01*
X19261800Y20306200D02*
X16500000Y23067900D01*
X16500000Y23067900D02*
X16500000Y24500000D01*
X13654900Y4129900D02*
X12300000Y2775000D01*
X19261800Y17024500D02*
X18576700Y16339400D01*
X13709200Y10412900D02*
X13709200Y7859200D01*
X14557900Y23067900D02*
X16500000Y23067900D01*
X14400000Y22910000D02*
X14557900Y23067900D01*
X13654900Y7804900D02*
X13654900Y4129900D01*
X13771200Y11842500D02*
X13771200Y10474900D01*
X18268100Y16339400D02*
X13771200Y11842500D01*
X19261800Y20306200D02*
X19261800Y20306100D01*
%TO.N,/CC1*%
X15250000Y11062500D02*
X14890000Y10702500D01*
X18630000Y6043600D02*
X18630000Y7045000D01*
X15250000Y11062000D02*
X15250000Y11062500D01*
X15250000Y11062000D02*
X15250000Y11062500D01*
X14772100Y9082100D02*
X14772100Y5305300D01*
X17356100Y4769700D02*
X18630000Y6043600D01*
X14890000Y10702500D02*
X14890000Y9200000D01*
X14772100Y5305300D02*
X15307700Y4769700D01*
X14890000Y9200000D02*
X14772100Y9082100D01*
X15307700Y4769700D02*
X17356100Y4769700D01*
%TO.N,/CC2*%
X17150000Y9740000D02*
X17690000Y9200000D01*
X17150000Y11062000D02*
X17150000Y11062500D01*
X21508800Y5271300D02*
X21630000Y5392500D01*
X18163800Y8726200D02*
X18163800Y8369600D01*
X21630000Y5392500D02*
X21630000Y7045000D01*
X17690000Y9200000D02*
X18163800Y8726200D01*
X17150000Y11062500D02*
X17150000Y9740000D01*
X17150000Y11062000D02*
X17150000Y11062500D01*
%TO.N,/CHG_ILIM*%
X9946800Y20419500D02*
X9946800Y20238800D01*
X9400000Y20650000D02*
X9716300Y20650000D01*
X9946800Y20238800D02*
X11000000Y19185600D01*
X11000000Y19185600D02*
X11000000Y18510000D01*
X9716300Y20650000D02*
X9946800Y20419500D01*
%TO.N,/CHG_ISET*%
X6434700Y21358800D02*
X7191200Y21358800D01*
X11000000Y20090000D02*
X11306500Y20090000D01*
X11306500Y20090000D02*
X11770200Y19626300D01*
X7191200Y21358800D02*
X7250000Y21300000D01*
%TO.N,/LED_B*%
X10316300Y7146400D02*
X10690000Y6772700D01*
X10900000Y23483800D02*
X10900000Y24500000D01*
X10690000Y6772700D02*
X10690000Y1600000D01*
X10882400Y23466200D02*
X10900000Y23483800D01*
%TO.N,/LED_B_K*%
X11039700Y2170200D02*
X11609900Y1600000D01*
X14205900Y7653500D02*
X14151600Y7599200D01*
X19575000Y12246700D02*
X17731800Y12246700D01*
X11039700Y4760900D02*
X11039700Y2170200D01*
X11678800Y5400000D02*
X11039700Y4760900D01*
X17731800Y12246700D02*
X17613300Y12128200D01*
X19575000Y11575000D02*
X19575000Y12246700D01*
X14205900Y10207200D02*
X14205900Y7653500D01*
X11609900Y1600000D02*
X11710000Y1600000D01*
%TO.N,/LED_G*%
X15650000Y25483800D02*
X15312900Y25146700D01*
X15312900Y25146700D02*
X14900000Y25146700D01*
X12890000Y1600000D02*
X13457900Y1032100D01*
X14533700Y1349000D02*
X14533700Y2166300D01*
X14900000Y24500000D02*
X14900000Y25146700D01*
X13457900Y1032100D02*
X14216800Y1032100D01*
X14216800Y1032100D02*
X14533700Y1349000D01*
%TO.N,/LED_G_K*%
X19575000Y13696700D02*
X19389500Y13882200D01*
X19389500Y14198900D02*
X19389400Y14198900D01*
X15228800Y3563800D02*
X13910000Y2245000D01*
X15650000Y3563800D02*
X15228800Y3563800D01*
X19389500Y13882200D02*
X19389500Y14198900D01*
X19575000Y13025000D02*
X19575000Y13696700D01*
X13910000Y2245000D02*
X13910000Y1600000D01*
%TO.N,/LED_R*%
X14100000Y25146700D02*
X14281100Y25146700D01*
X14281100Y25146700D02*
X14951400Y25817000D01*
X19800000Y8890000D02*
X20176500Y8513500D01*
X14100000Y24500000D02*
X14100000Y25146700D01*
X20176500Y8513500D02*
X20520200Y8513500D01*
%TO.N,/LED_R_K*%
X18859800Y9910000D02*
X19800000Y9910000D01*
X18725000Y13025000D02*
X18035500Y13025000D01*
X18035500Y13025000D02*
X17693600Y13366900D01*
X18563900Y10205900D02*
X18859800Y9910000D01*
%TO.N,/MCU_EN*%
X7557900Y27488800D02*
X7246700Y27800000D01*
X12300000Y12012900D02*
X12300000Y9075000D01*
X6600000Y27800000D02*
X5953300Y27800000D01*
X5180700Y20900700D02*
X3800000Y19520000D01*
X5953300Y27800000D02*
X5180700Y27027400D01*
X12072500Y12240400D02*
X12300000Y12012900D01*
X2000000Y20510000D02*
X2990000Y19520000D01*
X5180700Y27027400D02*
X5180700Y20900700D01*
X7688800Y27488800D02*
X7557900Y27488800D01*
X6600000Y27800000D02*
X7246700Y27800000D01*
X2990000Y19520000D02*
X3800000Y19520000D01*
D41*
%TO.N,/PACK_P*%
X7039100Y21949100D02*
X7690000Y22600000D01*
X12800000Y15050000D02*
X14330500Y16580500D01*
X14330500Y17500000D02*
X14330500Y17833800D01*
D43*
X5896500Y19600300D02*
X6550300Y19600300D01*
D41*
X5896500Y19119800D02*
X5476400Y18699700D01*
X6199400Y21949100D02*
X7039100Y21949100D01*
X17250000Y17500000D02*
X14330500Y17500000D01*
X14330500Y17833800D02*
X13550000Y18614300D01*
D43*
X6550300Y19600300D02*
X6600000Y19650000D01*
D41*
X5691600Y21441300D02*
X6199400Y21949100D01*
X5691600Y20771400D02*
X5691600Y21441300D01*
X5896500Y19600300D02*
X5896500Y19119800D01*
X14330500Y16580500D02*
X14330500Y17500000D01*
D44*
X12800000Y15050000D02*
X12350000Y15550000D01*
D41*
X6600000Y19650000D02*
X6600000Y20150000D01*
D42*
%TO.N,/SCL_HOST*%
X7750000Y6000000D02*
X8237600Y6000000D01*
X12500000Y23853300D02*
X12125900Y23853300D01*
X12125900Y23853300D02*
X11939700Y23667100D01*
X10436300Y8198700D02*
X10436300Y9312700D01*
X12500000Y24500000D02*
X12500000Y23853300D01*
X8237600Y6000000D02*
X10436300Y8198700D01*
%TO.N,/SDA_HOST*%
X8217800Y8000000D02*
X7750000Y8000000D01*
X13300000Y24500000D02*
X13300000Y25146700D01*
X10734400Y12237000D02*
X10734400Y10516600D01*
X10734400Y10516600D02*
X8217800Y8000000D01*
X13300000Y25146700D02*
X13125200Y25321500D01*
X13125200Y25321500D02*
X13125200Y25447000D01*
%TO.N,/STRAP2*%
X5931800Y30200000D02*
X6600000Y30200000D01*
X1200000Y32510000D02*
X1216300Y32526300D01*
X1216300Y32526300D02*
X1216300Y33733800D01*
X5263400Y29531600D02*
X5931800Y30200000D01*
%TO.N,/STRAP8*%
X15700000Y24500000D02*
X15700000Y23853300D01*
X15700000Y23853300D02*
X14506300Y23853300D01*
X14510000Y20253800D02*
X14510000Y20800000D01*
X14320700Y20064500D02*
X14510000Y20253800D01*
X14506300Y23853300D02*
X14320700Y23667700D01*
D41*
%TO.N,/SYS*%
X1662500Y26350000D02*
X1662000Y26350000D01*
X2694400Y26915700D02*
X2694400Y27614300D01*
X9768300Y19650000D02*
X10116200Y19302100D01*
X1662500Y26350000D02*
X2128700Y26350000D01*
X2694400Y27614300D02*
X2058700Y28250000D01*
D44*
X2250000Y24000000D02*
X1600000Y24000000D01*
X1600000Y24000000D02*
X4600000Y21000000D01*
D41*
X9400000Y20150000D02*
X9400000Y19650000D01*
X2941500Y23308500D02*
X2250000Y24000000D01*
X2941500Y20431600D02*
X2941500Y23308500D01*
X9400000Y19650000D02*
X9768300Y19650000D01*
X10116200Y19302100D02*
X10116200Y19283400D01*
X2250000Y24000000D02*
X1662500Y24587500D01*
X1662500Y24587500D02*
X1662500Y26350000D01*
X2128700Y26350000D02*
X2694400Y26915700D01*
X1662500Y26350000D02*
X1662000Y26350000D01*
X2058700Y28250000D02*
X1662500Y28250000D01*
D42*
%TO.N,/TS_NO_CELL_SENSING*%
X6349800Y20650000D02*
X4290000Y18590200D01*
X6600000Y20650000D02*
X6349800Y20650000D01*
X4290000Y18590200D02*
X4290000Y17600000D01*
%TO.N,/UART_RX*%
X19102100Y29344600D02*
X19046700Y29400000D01*
X19810400Y29344600D02*
X19102100Y29344600D01*
X18400000Y29400000D02*
X19046700Y29400000D01*
%TO.N,/UART_TX*%
X20940000Y30200000D02*
X22000000Y31260000D01*
X18400000Y30200000D02*
X20940000Y30200000D01*
%TO.N,/USB_DM*%
X23637500Y11350000D02*
X21362500Y11350000D01*
X19130000Y6073300D02*
X20130000Y6073300D01*
X20419600Y14875000D02*
X20419600Y24323100D01*
X19130000Y7045000D02*
X19130000Y6073300D01*
X21362500Y11350000D02*
X20286000Y12426500D01*
X21362500Y11350000D02*
X21362000Y11350000D01*
X20130000Y7045000D02*
X20130000Y6073300D01*
X21362500Y11350000D02*
X20850000Y11750000D01*
X19130000Y8123100D02*
X19241300Y8234400D01*
X20419600Y24323100D02*
X19890000Y24852700D01*
X20286000Y12426500D02*
X20286000Y14741400D01*
X20286000Y14741400D02*
X20419600Y14875000D01*
X19130000Y7045000D02*
X19130000Y8123100D01*
X21362500Y11350000D02*
X21362000Y11350000D01*
X19890000Y24852700D02*
X19890000Y26000000D01*
%TO.N,/USB_DM_MCU*%
X20910000Y24867900D02*
X20910000Y26000000D01*
X18400000Y26200000D02*
X17400000Y26200000D01*
X17400000Y26200000D02*
X16647000Y25447000D01*
X20743600Y24701500D02*
X20910000Y24867900D01*
%TO.N,/USB_DP*%
X20534000Y8016700D02*
X19853100Y8016700D01*
X21362500Y9450000D02*
X21362500Y8853300D01*
X19630000Y7793600D02*
X19630000Y7045000D01*
X23637500Y9450000D02*
X23638000Y9450000D01*
X20782700Y23419900D02*
X20782700Y14535700D01*
X20630000Y7920700D02*
X20534000Y8016700D01*
X19890000Y27200000D02*
X20503300Y27813300D01*
X21456600Y24093800D02*
X20782700Y23419900D01*
X21362500Y8853300D02*
X21490000Y8725800D01*
X20503300Y27813300D02*
X21221600Y27813300D01*
X20630000Y7920700D02*
X20630000Y7045000D01*
X23637500Y9450000D02*
X23638000Y9450000D01*
X21362500Y9450000D02*
X21362000Y9450000D01*
X21221600Y27813300D02*
X21456600Y27578300D01*
X19853100Y8016700D02*
X19630000Y7793600D01*
X21456600Y27578300D02*
X21456600Y24093800D01*
X23637500Y9450000D02*
X23637500Y9322600D01*
X21490000Y8725800D02*
X21435100Y8725800D01*
X23637500Y9322600D02*
X22794000Y8479100D01*
X21435100Y8725800D02*
X20630000Y7920700D01*
X21362500Y9450000D02*
X21362000Y9450000D01*
%TO.N,/USB_DP_MCU*%
X18400000Y27000000D02*
X19046700Y27000000D01*
X19046700Y27000000D02*
X19440400Y26606300D01*
X19440400Y26606300D02*
X20316300Y26606300D01*
X20316300Y26606300D02*
X20910000Y27200000D01*
%TO.N,/USB_POWER_N*%
X8250000Y18500000D02*
X8250000Y18251900D01*
X8500000Y23853300D02*
X8780500Y23853300D01*
X9889000Y16612900D02*
X11095100Y16612900D01*
X12756400Y21343900D02*
X12756300Y21343900D01*
X8500000Y24500000D02*
X8500000Y23853300D01*
X8780500Y23853300D02*
X9092400Y23541400D01*
X8250000Y18251900D02*
X9889000Y16612900D01*
X13310000Y22600000D02*
X12756400Y22046400D01*
X12756400Y22046400D02*
X12756400Y21343900D01*
D41*
%TO.N,/VBUS*%
X10093500Y21713200D02*
X9163200Y21713200D01*
X22330000Y8101700D02*
X22212300Y8219400D01*
X22330000Y7045000D02*
X22330000Y8101700D01*
X17430000Y8251300D02*
X17407500Y8273800D01*
X23637500Y10400000D02*
X23638000Y10400000D01*
X22601100Y10400000D02*
X22500000Y10298900D01*
X9216700Y14200000D02*
X7025000Y16391700D01*
X9163200Y21713200D02*
X8750000Y21300000D01*
X7025000Y16391700D02*
X7025000Y16600000D01*
X22500000Y9007700D02*
X22500000Y10298900D01*
X23637500Y10400000D02*
X23638000Y10400000D01*
X22212300Y8720000D02*
X22500000Y9007700D01*
X17430000Y7045000D02*
X17430000Y8251300D01*
D44*
X7025000Y16600000D02*
X7050000Y15950000D01*
D41*
X22212300Y8219400D02*
X22212300Y8720000D01*
D44*
X9100000Y21700000D02*
X10093500Y21713200D01*
D41*
X23637500Y10400000D02*
X22601100Y10400000D01*
D44*
%TO.N,GND*%
X4150000Y24000000D02*
X3500000Y24000000D01*
X8575000Y16600000D02*
X8600000Y15950000D01*
X12800000Y16950000D02*
X12400000Y16400000D01*
%TD*%
%TA.AperFunction,Conductor*%
%TO.N,GND*%
G36*
X20169185Y20540372D02*
G01*
X20179100Y20503371D01*
X20179100Y15005271D01*
X20157426Y14952945D01*
X20082112Y14877631D01*
X20053505Y14808565D01*
X20053505Y14808564D01*
X20045500Y14789239D01*
X20045500Y13664675D01*
X20043714Y13660364D01*
X20044974Y13655872D01*
X20033103Y13634747D01*
X20023826Y13612349D01*
X20019514Y13610564D01*
X20017229Y13606496D01*
X19999386Y13602226D01*
X19971500Y13590675D01*
X19962697Y13591201D01*
X19958885Y13591658D01*
X19958722Y13591767D01*
X19914820Y13600500D01*
X19885087Y13600500D01*
X19880697Y13601026D01*
X19859571Y13612897D01*
X19837174Y13622174D01*
X19835388Y13626486D01*
X19831321Y13628771D01*
X19824776Y13652105D01*
X19815500Y13674500D01*
X19815500Y13744538D01*
X19781461Y13826715D01*
X19778887Y13832930D01*
X19778885Y13832933D01*
X19731346Y13880472D01*
X19709672Y13932798D01*
X19719586Y13969798D01*
X19728531Y13985293D01*
X19762607Y14044313D01*
X19789899Y14146171D01*
X19789900Y14146171D01*
X19789900Y14251629D01*
X19789899Y14251630D01*
X19762608Y14353483D01*
X19762607Y14353487D01*
X19709880Y14444813D01*
X19635313Y14519380D01*
X19562087Y14561657D01*
X19543991Y14572105D01*
X19543982Y14572109D01*
X19442129Y14599400D01*
X19442127Y14599400D01*
X19336673Y14599400D01*
X19336671Y14599400D01*
X19234817Y14572109D01*
X19234808Y14572105D01*
X19143486Y14519380D01*
X19068920Y14444814D01*
X19016195Y14353492D01*
X19016191Y14353483D01*
X18988900Y14251630D01*
X18988900Y14146171D01*
X19016191Y14044318D01*
X19016195Y14044309D01*
X19068920Y13952987D01*
X19127326Y13894581D01*
X19149000Y13842255D01*
X19149000Y13834361D01*
X19185614Y13745967D01*
X19217998Y13713583D01*
X19222492Y13702733D01*
X19231457Y13695145D01*
X19232919Y13677561D01*
X19239672Y13661258D01*
X19235177Y13650408D01*
X19236151Y13638703D01*
X19225564Y13627199D01*
X19217998Y13608932D01*
X19199559Y13595473D01*
X19193048Y13592120D01*
X19191278Y13591767D01*
X19187620Y13589324D01*
X19183887Y13587400D01*
X19159528Y13585375D01*
X19135557Y13580608D01*
X19129982Y13582918D01*
X19127445Y13582706D01*
X19124524Y13585178D01*
X19108893Y13591653D01*
X19108724Y13591766D01*
X19108720Y13591768D01*
X19075720Y13598332D01*
X19064820Y13600500D01*
X18385180Y13600500D01*
X18363229Y13596134D01*
X18341277Y13591767D01*
X18291496Y13558505D01*
X18291495Y13558504D01*
X18258233Y13508723D01*
X18249500Y13464820D01*
X18249500Y13339500D01*
X18227826Y13287174D01*
X18175500Y13265500D01*
X18168100Y13265500D01*
X18115774Y13287174D01*
X18094100Y13339500D01*
X18094100Y13419629D01*
X18094099Y13419630D01*
X18066808Y13521483D01*
X18066807Y13521487D01*
X18014080Y13612813D01*
X17939513Y13687380D01*
X17907165Y13706056D01*
X17848191Y13740105D01*
X17848182Y13740109D01*
X17746329Y13767400D01*
X17746327Y13767400D01*
X17640873Y13767400D01*
X17640871Y13767400D01*
X17539017Y13740109D01*
X17539008Y13740105D01*
X17447686Y13687380D01*
X17373120Y13612814D01*
X17320395Y13521492D01*
X17320391Y13521483D01*
X17293100Y13419630D01*
X17293100Y13314171D01*
X17320391Y13212318D01*
X17320392Y13212315D01*
X17320393Y13212313D01*
X17373120Y13120987D01*
X17447687Y13046420D01*
X17539013Y12993693D01*
X17640870Y12966401D01*
X17640871Y12966400D01*
X17723330Y12966400D01*
X17775656Y12944726D01*
X17899268Y12821114D01*
X17987662Y12784500D01*
X18083339Y12784500D01*
X18175500Y12784500D01*
X18200959Y12773955D01*
X18226650Y12763976D01*
X18226994Y12763171D01*
X18227826Y12762826D01*
X18249482Y12712145D01*
X18249500Y12711336D01*
X18249500Y12585180D01*
X18252658Y12569303D01*
X18252802Y12562845D01*
X18244708Y12542009D01*
X18240348Y12520086D01*
X18234738Y12516339D01*
X18232296Y12510050D01*
X18211839Y12501039D01*
X18193255Y12488622D01*
X18180886Y12487404D01*
X18180465Y12487218D01*
X18180169Y12487333D01*
X18178820Y12487200D01*
X17812323Y12487200D01*
X17775323Y12497114D01*
X17767891Y12501405D01*
X17767882Y12501409D01*
X17666029Y12528700D01*
X17666027Y12528700D01*
X17560573Y12528700D01*
X17560571Y12528700D01*
X17458717Y12501409D01*
X17458708Y12501405D01*
X17367386Y12448680D01*
X17292820Y12374114D01*
X17240095Y12282792D01*
X17240091Y12282783D01*
X17212800Y12180930D01*
X17212800Y12075474D01*
X17221326Y12043652D01*
X17213932Y11987499D01*
X17168999Y11953021D01*
X17149847Y11950500D01*
X16955136Y11950500D01*
X16930013Y11947586D01*
X16930007Y11947585D01*
X16827234Y11902206D01*
X16747794Y11822766D01*
X16702414Y11719989D01*
X16699500Y11694865D01*
X16699500Y10430137D01*
X16702414Y10405014D01*
X16702415Y10405009D01*
X16747794Y10302235D01*
X16827235Y10222794D01*
X16865389Y10205948D01*
X16904503Y10164986D01*
X16909500Y10138253D01*
X16909500Y9692161D01*
X16946112Y9603770D01*
X16946115Y9603766D01*
X17247826Y9302055D01*
X17269500Y9249729D01*
X17269500Y8972378D01*
X17272269Y8948505D01*
X17272269Y8948503D01*
X17272270Y8948502D01*
X17310274Y8862433D01*
X17315384Y8850859D01*
X17372324Y8793919D01*
X17393998Y8741593D01*
X17372324Y8689267D01*
X17339151Y8670115D01*
X17252917Y8647009D01*
X17252908Y8647005D01*
X17161586Y8594280D01*
X17087020Y8519714D01*
X17034295Y8428392D01*
X17034291Y8428383D01*
X17007000Y8326530D01*
X17007000Y8221071D01*
X17034291Y8119218D01*
X17034295Y8119209D01*
X17087018Y8027890D01*
X17089209Y8025035D01*
X17104500Y7979987D01*
X17104500Y7973520D01*
X17082826Y7921194D01*
X17071612Y7911991D01*
X17021496Y7878505D01*
X17021495Y7878504D01*
X16988233Y7828723D01*
X16979500Y7784820D01*
X16979500Y6305181D01*
X16987704Y6263937D01*
X16976655Y6208388D01*
X16929563Y6176922D01*
X16915126Y6175500D01*
X16914232Y6175500D01*
X16767869Y6136283D01*
X16767860Y6136279D01*
X16636637Y6060517D01*
X16529483Y5953363D01*
X16453721Y5822140D01*
X16453717Y5822131D01*
X16414500Y5675769D01*
X16414500Y5524232D01*
X16453717Y5377870D01*
X16453721Y5377861D01*
X16529483Y5246638D01*
X16529485Y5246635D01*
X16636635Y5139485D01*
X16636637Y5139484D01*
X16639595Y5136526D01*
X16661269Y5084200D01*
X16639595Y5031874D01*
X16587269Y5010200D01*
X15437970Y5010200D01*
X15385644Y5031874D01*
X15034274Y5383245D01*
X15012600Y5435571D01*
X15012600Y8657207D01*
X15034274Y8709533D01*
X15078075Y8730714D01*
X15091498Y8732270D01*
X15189141Y8775384D01*
X15264616Y8850859D01*
X15307730Y8948502D01*
X15310500Y8972377D01*
X15310499Y9427622D01*
X15307730Y9451498D01*
X15264616Y9549141D01*
X15189141Y9624616D01*
X15189139Y9624618D01*
X15174607Y9631035D01*
X15135496Y9671999D01*
X15130500Y9698728D01*
X15130500Y10100501D01*
X15152174Y10152827D01*
X15204500Y10174501D01*
X15444863Y10174501D01*
X15444864Y10174501D01*
X15469991Y10177415D01*
X15572765Y10222794D01*
X15652206Y10302235D01*
X15697585Y10405009D01*
X15700500Y10430135D01*
X15700499Y11694864D01*
X15697585Y11719991D01*
X15652206Y11822765D01*
X15572765Y11902206D01*
X15469991Y11947585D01*
X15469990Y11947586D01*
X15469988Y11947586D01*
X15448659Y11950060D01*
X15444865Y11950500D01*
X15444864Y11950500D01*
X15055136Y11950500D01*
X15030013Y11947586D01*
X15030007Y11947585D01*
X14927234Y11902206D01*
X14847794Y11822766D01*
X14802414Y11719989D01*
X14799500Y11694865D01*
X14799500Y10982772D01*
X14777826Y10930446D01*
X14686115Y10838735D01*
X14686112Y10838731D01*
X14652301Y10757101D01*
X14652301Y10757100D01*
X14649500Y10750339D01*
X14649500Y10508645D01*
X14627826Y10456319D01*
X14575500Y10434645D01*
X14523174Y10456319D01*
X14451813Y10527680D01*
X14360491Y10580405D01*
X14360482Y10580409D01*
X14258629Y10607700D01*
X14258627Y10607700D01*
X14153173Y10607700D01*
X14104852Y10594753D01*
X14048699Y10602147D01*
X14014221Y10647080D01*
X14011700Y10666232D01*
X14011700Y11712229D01*
X14033374Y11764555D01*
X18346045Y16077226D01*
X18398371Y16098900D01*
X18624538Y16098900D01*
X18624539Y16098900D01*
X18712933Y16135514D01*
X19465686Y16888268D01*
X19502300Y16976662D01*
X19502300Y17072339D01*
X19502300Y20175930D01*
X19523973Y20228255D01*
X19790644Y20494927D01*
X19842970Y20516600D01*
X19925429Y20516600D01*
X19925429Y20516601D01*
X20027287Y20543893D01*
X20068099Y20567457D01*
X20124252Y20574850D01*
X20169185Y20540372D01*
G37*
%TD.AperFunction*%
%TA.AperFunction,Conductor*%
G36*
X19988424Y12451667D02*
G01*
X20012611Y12446856D01*
X20014938Y12443373D01*
X20018937Y12442122D01*
X20030374Y12420274D01*
X20044078Y12399765D01*
X20044765Y12392780D01*
X20045204Y12391943D01*
X20044933Y12391079D01*
X20045500Y12385326D01*
X20045500Y12378661D01*
X20082112Y12290270D01*
X20082115Y12290266D01*
X20465093Y11907288D01*
X20486767Y11854962D01*
X20484246Y11835811D01*
X20474500Y11799437D01*
X20474500Y11700563D01*
X20500088Y11605066D01*
X20500090Y11605061D01*
X20539586Y11536654D01*
X20549500Y11499654D01*
X20549500Y11155137D01*
X20552414Y11130014D01*
X20552415Y11130008D01*
X20580947Y11065390D01*
X20597794Y11027235D01*
X20677235Y10947794D01*
X20780009Y10902415D01*
X20805135Y10899500D01*
X21919864Y10899501D01*
X21944991Y10902415D01*
X22047765Y10947794D01*
X22127206Y11027235D01*
X22144053Y11065390D01*
X22185016Y11104503D01*
X22211748Y11109500D01*
X22788252Y11109500D01*
X22840578Y11087826D01*
X22855947Y11065390D01*
X22872794Y11027235D01*
X22952235Y10947794D01*
X22963784Y10942694D01*
X23002896Y10901731D01*
X23001587Y10845109D01*
X22981759Y10818565D01*
X22973586Y10811634D01*
X22952235Y10802206D01*
X22895054Y10745026D01*
X22892743Y10743065D01*
X22868445Y10735263D01*
X22844877Y10725500D01*
X22643953Y10725500D01*
X22558247Y10725500D01*
X22475461Y10703318D01*
X22475457Y10703317D01*
X22470777Y10702062D01*
X22470466Y10703221D01*
X22451284Y10699400D01*
X22447271Y10699400D01*
X22345417Y10672109D01*
X22345408Y10672105D01*
X22254086Y10619380D01*
X22179520Y10544814D01*
X22126795Y10453492D01*
X22126791Y10453483D01*
X22099500Y10351630D01*
X22099500Y10246171D01*
X22126791Y10144318D01*
X22126795Y10144309D01*
X22164586Y10078854D01*
X22174500Y10041854D01*
X22174500Y9904123D01*
X22152826Y9851797D01*
X22100500Y9830123D01*
X22054112Y9849338D01*
X22053423Y9848331D01*
X22048652Y9851599D01*
X22048174Y9851797D01*
X22047765Y9852206D01*
X22036217Y9857305D01*
X21944991Y9897585D01*
X21944990Y9897586D01*
X21944988Y9897586D01*
X21923659Y9900060D01*
X21919865Y9900500D01*
X21919864Y9900500D01*
X20805136Y9900500D01*
X20780013Y9897586D01*
X20780007Y9897585D01*
X20677234Y9852206D01*
X20597794Y9772766D01*
X20552414Y9669989D01*
X20549500Y9644865D01*
X20549500Y9255137D01*
X20552414Y9230014D01*
X20552415Y9230009D01*
X20597794Y9127235D01*
X20677235Y9047794D01*
X20780009Y9002415D01*
X20805135Y8999500D01*
X21048000Y8999501D01*
X21100326Y8977827D01*
X21122000Y8925501D01*
X21122000Y8907677D01*
X21117531Y8885210D01*
X21118048Y8885071D01*
X21089500Y8778530D01*
X21089500Y8750970D01*
X21085616Y8741593D01*
X21067826Y8698645D01*
X21067825Y8698645D01*
X21013853Y8644674D01*
X20961527Y8623000D01*
X20909202Y8644675D01*
X20896216Y8664110D01*
X20895832Y8663887D01*
X20869069Y8710241D01*
X20840680Y8759413D01*
X20766113Y8833980D01*
X20745919Y8845639D01*
X20674791Y8886705D01*
X20674782Y8886709D01*
X20572929Y8914000D01*
X20572927Y8914000D01*
X20467473Y8914000D01*
X20365613Y8886707D01*
X20365611Y8886706D01*
X20363652Y8886181D01*
X20307499Y8893574D01*
X20273020Y8938507D01*
X20270499Y8957660D01*
X20270499Y9067623D01*
X20267730Y9091496D01*
X20267730Y9091498D01*
X20224616Y9189141D01*
X20149141Y9264616D01*
X20051498Y9307730D01*
X20027623Y9310500D01*
X20027619Y9310500D01*
X19572377Y9310500D01*
X19548504Y9307731D01*
X19450858Y9264616D01*
X19375385Y9189143D01*
X19332270Y9091499D01*
X19329500Y9067620D01*
X19329501Y8710241D01*
X19328426Y8710241D01*
X19310855Y8659701D01*
X19259876Y8635025D01*
X19255579Y8634900D01*
X19188571Y8634900D01*
X19086717Y8607609D01*
X19086708Y8607605D01*
X18995386Y8554880D01*
X18920820Y8480314D01*
X18868095Y8388992D01*
X18868091Y8388983D01*
X18840800Y8287130D01*
X18840800Y8181671D01*
X18868091Y8079818D01*
X18868096Y8079807D01*
X18879585Y8059908D01*
X18889500Y8022907D01*
X18889500Y7991836D01*
X18867826Y7939510D01*
X18815500Y7917836D01*
X18801064Y7919258D01*
X18794820Y7920500D01*
X18465180Y7920500D01*
X18461544Y7920500D01*
X18461544Y7922249D01*
X18412586Y7937115D01*
X18385902Y7987072D01*
X18402359Y8041266D01*
X18407222Y8046630D01*
X18409710Y8049119D01*
X18409713Y8049120D01*
X18484280Y8123687D01*
X18537007Y8215013D01*
X18564299Y8316871D01*
X18564300Y8316871D01*
X18564300Y8422329D01*
X18564299Y8422330D01*
X18561558Y8432558D01*
X18537007Y8524187D01*
X18484280Y8615513D01*
X18425974Y8673819D01*
X18404300Y8726145D01*
X18404300Y8774038D01*
X18367686Y8862432D01*
X18300032Y8930086D01*
X18132173Y9097945D01*
X18110499Y9150271D01*
X18110499Y9427623D01*
X18107730Y9451496D01*
X18107730Y9451498D01*
X18064616Y9549141D01*
X17989141Y9624616D01*
X17891498Y9667730D01*
X17867623Y9670500D01*
X17867619Y9670500D01*
X17590271Y9670500D01*
X17537945Y9692174D01*
X17412174Y9817945D01*
X17390500Y9870271D01*
X17390500Y10138253D01*
X17412174Y10190579D01*
X17434609Y10205947D01*
X17472765Y10222794D01*
X17552206Y10302235D01*
X17597585Y10405009D01*
X17600500Y10430135D01*
X17600499Y11654178D01*
X17622173Y11706503D01*
X17661490Y11725891D01*
X17661342Y11726444D01*
X17664123Y11727190D01*
X17664845Y11727545D01*
X17666020Y11727700D01*
X17666027Y11727700D01*
X17666033Y11727702D01*
X17666035Y11727702D01*
X17696289Y11735809D01*
X17767887Y11754993D01*
X17859213Y11807720D01*
X17933780Y11882287D01*
X17983959Y11969201D01*
X17991892Y11975288D01*
X17995719Y11984526D01*
X18013567Y11991919D01*
X18028892Y12003678D01*
X18048045Y12006200D01*
X18175500Y12006200D01*
X18227826Y11984526D01*
X18249500Y11932200D01*
X18249500Y11135181D01*
X18258233Y11091278D01*
X18275530Y11065390D01*
X18291496Y11041496D01*
X18341278Y11008233D01*
X18341279Y11008233D01*
X18348011Y11005444D01*
X18347252Y11003612D01*
X18387028Y10977035D01*
X18399500Y10935922D01*
X18399500Y10775445D01*
X18421680Y10692667D01*
X18421683Y10692660D01*
X18430761Y10676936D01*
X18438152Y10620783D01*
X18403674Y10575852D01*
X18317986Y10526380D01*
X18243420Y10451814D01*
X18190695Y10360492D01*
X18190691Y10360483D01*
X18163400Y10258630D01*
X18163400Y10153171D01*
X18190691Y10051318D01*
X18190695Y10051309D01*
X18221592Y9997794D01*
X18243420Y9959987D01*
X18317987Y9885420D01*
X18409313Y9832693D01*
X18511170Y9805401D01*
X18511171Y9805400D01*
X18593630Y9805400D01*
X18645956Y9783726D01*
X18723568Y9706114D01*
X18811962Y9669500D01*
X18907639Y9669500D01*
X19301273Y9669500D01*
X19353599Y9647826D01*
X19368966Y9625394D01*
X19375384Y9610859D01*
X19450859Y9535384D01*
X19548502Y9492270D01*
X19572377Y9489500D01*
X20027622Y9489501D01*
X20051498Y9492270D01*
X20149141Y9535384D01*
X20224616Y9610859D01*
X20267730Y9708502D01*
X20270500Y9732377D01*
X20270499Y10087622D01*
X20267730Y10111498D01*
X20224616Y10209141D01*
X20149141Y10284616D01*
X20051498Y10327730D01*
X20027623Y10330500D01*
X20027619Y10330500D01*
X19572377Y10330500D01*
X19548504Y10327731D01*
X19450858Y10284616D01*
X19375385Y10209143D01*
X19375384Y10209142D01*
X19375384Y10209141D01*
X19368966Y10194608D01*
X19358916Y10185012D01*
X19353599Y10172174D01*
X19339243Y10166228D01*
X19328005Y10155497D01*
X19301273Y10150500D01*
X19215452Y10150500D01*
X19163126Y10172174D01*
X19141452Y10224500D01*
X19163126Y10276826D01*
X19196297Y10295978D01*
X19200087Y10296993D01*
X19291413Y10349720D01*
X19365980Y10424287D01*
X19418707Y10515613D01*
X19445999Y10617471D01*
X19446000Y10617471D01*
X19446000Y10722929D01*
X19445999Y10722930D01*
X19445310Y10725500D01*
X19418707Y10824787D01*
X19381921Y10888501D01*
X19374529Y10944652D01*
X19409008Y10989586D01*
X19446008Y10999500D01*
X19914819Y10999500D01*
X19914820Y10999500D01*
X19958722Y11008233D01*
X20008504Y11041496D01*
X20041767Y11091278D01*
X20050500Y11135180D01*
X20050500Y12014820D01*
X20041767Y12058722D01*
X20008504Y12108504D01*
X19958722Y12141767D01*
X19914820Y12150500D01*
X19914819Y12150500D01*
X19889500Y12150500D01*
X19837174Y12172174D01*
X19815500Y12224500D01*
X19815500Y12294538D01*
X19793694Y12347183D01*
X19793694Y12358688D01*
X19788357Y12368883D01*
X19793694Y12385946D01*
X19793694Y12403818D01*
X19801829Y12411954D01*
X19805265Y12422937D01*
X19819443Y12429569D01*
X19833742Y12443867D01*
X19855444Y12449204D01*
X19858741Y12449500D01*
X19914820Y12449500D01*
X19958722Y12458233D01*
X19959143Y12458515D01*
X19964883Y12459030D01*
X19988424Y12451667D01*
G37*
%TD.AperFunction*%
%TA.AperFunction,Conductor*%
G36*
X8541109Y20895148D02*
G01*
X8593231Y20860321D01*
X8647631Y20849500D01*
X8852368Y20849501D01*
X8864999Y20852014D01*
X8920545Y20840966D01*
X8952012Y20793874D01*
X8952013Y20765002D01*
X8949500Y20752367D01*
X8949500Y20547637D01*
X8960321Y20493230D01*
X8995145Y20441111D01*
X9006194Y20385562D01*
X8995145Y20358889D01*
X8960321Y20306771D01*
X8949500Y20252368D01*
X8949500Y20047637D01*
X8960321Y19993230D01*
X8995145Y19941111D01*
X9006194Y19885562D01*
X8995145Y19858889D01*
X8960321Y19806771D01*
X8949500Y19752368D01*
X8949500Y19547637D01*
X8960321Y19493230D01*
X8995145Y19441111D01*
X9006194Y19385562D01*
X8995145Y19358889D01*
X8960321Y19306771D01*
X8954897Y19279501D01*
X8949532Y19252527D01*
X8949500Y19252368D01*
X8949500Y19047637D01*
X8960320Y18993232D01*
X8999377Y18934780D01*
X9001541Y18931541D01*
X9063231Y18890321D01*
X9117631Y18879500D01*
X9682368Y18879501D01*
X9736769Y18890321D01*
X9798459Y18931541D01*
X9798461Y18931545D01*
X9803613Y18936695D01*
X9806322Y18933986D01*
X9842128Y18957940D01*
X9893607Y18949456D01*
X9915710Y18936695D01*
X9961613Y18910193D01*
X10063470Y18882901D01*
X10063471Y18882900D01*
X10063473Y18882900D01*
X10168929Y18882900D01*
X10168929Y18882901D01*
X10270787Y18910193D01*
X10362113Y18962920D01*
X10436680Y19037487D01*
X10489407Y19128813D01*
X10504260Y19184247D01*
X10538738Y19229178D01*
X10594891Y19236571D01*
X10628064Y19217418D01*
X10737826Y19107656D01*
X10759500Y19055330D01*
X10759500Y18980805D01*
X10737826Y18928479D01*
X10715391Y18913111D01*
X10650859Y18884617D01*
X10575385Y18809143D01*
X10532270Y18711499D01*
X10529500Y18687620D01*
X10529500Y18332378D01*
X10532269Y18308505D01*
X10532269Y18308503D01*
X10532270Y18308502D01*
X10575384Y18210859D01*
X10650859Y18135384D01*
X10748502Y18092270D01*
X10772377Y18089500D01*
X11227622Y18089501D01*
X11251498Y18092270D01*
X11251501Y18092272D01*
X11256868Y18093731D01*
X11257694Y18090694D01*
X11303992Y18091789D01*
X11344978Y18052700D01*
X11351300Y18022771D01*
X11351300Y17054767D01*
X11329626Y17002441D01*
X11277300Y16980767D01*
X11254491Y16985302D01*
X11254371Y16984852D01*
X11147829Y17013400D01*
X11147827Y17013400D01*
X11042373Y17013400D01*
X11042371Y17013400D01*
X10940517Y16986109D01*
X10940508Y16986105D01*
X10849186Y16933380D01*
X10790881Y16875074D01*
X10738555Y16853400D01*
X10019271Y16853400D01*
X9966945Y16875074D01*
X8542173Y18299846D01*
X8520499Y18352172D01*
X8520499Y18782364D01*
X8520499Y18782368D01*
X8509679Y18836769D01*
X8468459Y18898459D01*
X8467688Y18898974D01*
X8406769Y18939679D01*
X8406764Y18939680D01*
X8352369Y18950500D01*
X8352367Y18950500D01*
X8147636Y18950500D01*
X8093231Y18939680D01*
X8031541Y18898460D01*
X8031540Y18898459D01*
X7990321Y18836770D01*
X7979500Y18782368D01*
X7979500Y18217637D01*
X7990320Y18163232D01*
X8031540Y18101542D01*
X8031541Y18101541D01*
X8093229Y18060322D01*
X8093681Y18060135D01*
X8117687Y18044094D01*
X9752767Y16409014D01*
X9841161Y16372400D01*
X9841162Y16372400D01*
X10738555Y16372400D01*
X10790881Y16350726D01*
X10849187Y16292420D01*
X10940513Y16239693D01*
X11042370Y16212401D01*
X11042371Y16212400D01*
X11042373Y16212400D01*
X11147829Y16212400D01*
X11147829Y16212401D01*
X11249687Y16239693D01*
X11249686Y16239693D01*
X11254371Y16240948D01*
X11254785Y16239402D01*
X11305620Y16239401D01*
X11345668Y16199351D01*
X11351300Y16171034D01*
X11351300Y16001779D01*
X11329626Y15949453D01*
X9710644Y14330472D01*
X9658318Y14308798D01*
X9605992Y14330472D01*
X9592588Y14350536D01*
X9592332Y14350387D01*
X9590065Y14354313D01*
X9589947Y14354490D01*
X9589906Y14354589D01*
X9574589Y14381118D01*
X9537180Y14445913D01*
X9462613Y14520480D01*
X9391292Y14561657D01*
X9371289Y14573206D01*
X9371288Y14573207D01*
X9371287Y14573207D01*
X9298275Y14592771D01*
X9265105Y14611922D01*
X7643763Y16233264D01*
X7622089Y16285590D01*
X7622862Y16296259D01*
X7625500Y16314364D01*
X7625500Y16885636D01*
X7614866Y16958625D01*
X7559826Y17071211D01*
X7471211Y17159826D01*
X7471210Y17159827D01*
X7358626Y17214866D01*
X7285640Y17225500D01*
X7285636Y17225500D01*
X6764364Y17225500D01*
X6764359Y17225500D01*
X6691374Y17214866D01*
X6691373Y17214866D01*
X6578789Y17159827D01*
X6490173Y17071211D01*
X6435134Y16958627D01*
X6435134Y16958626D01*
X6424500Y16885641D01*
X6424500Y16314360D01*
X6435134Y16241375D01*
X6435134Y16241374D01*
X6490173Y16128790D01*
X6578789Y16040174D01*
X6633000Y16013672D01*
X6670490Y15971219D01*
X6674500Y15947191D01*
X6674500Y15900563D01*
X6700088Y15805066D01*
X6700090Y15805061D01*
X6714234Y15780563D01*
X6749525Y15719438D01*
X6819438Y15649525D01*
X6851949Y15630755D01*
X6905058Y15600092D01*
X6905062Y15600090D01*
X6905063Y15600090D01*
X6905065Y15600089D01*
X6907506Y15599435D01*
X7000562Y15574501D01*
X7000563Y15574500D01*
X7000565Y15574500D01*
X7099437Y15574500D01*
X7099437Y15574501D01*
X7194938Y15600090D01*
X7248051Y15630756D01*
X7304202Y15638149D01*
X7337377Y15618996D01*
X8804778Y14151595D01*
X8823929Y14118425D01*
X8843493Y14045413D01*
X8896220Y13954087D01*
X8970787Y13879520D01*
X8978204Y13875238D01*
X9062111Y13826794D01*
X9062210Y13826753D01*
X9062248Y13826715D01*
X9066313Y13824368D01*
X9065684Y13823280D01*
X9102265Y13786711D01*
X9102273Y13730074D01*
X9086228Y13706056D01*
X8052346Y12672174D01*
X8000020Y12650500D01*
X7590479Y12650500D01*
X7538153Y12672174D01*
X2347174Y17863153D01*
X2325500Y17915479D01*
X2325500Y19061091D01*
X2347174Y19113417D01*
X2385470Y19151713D01*
X2424616Y19190859D01*
X2467730Y19288502D01*
X2470500Y19312377D01*
X2470499Y19520732D01*
X2492173Y19573057D01*
X2544499Y19594731D01*
X2596825Y19573057D01*
X2853767Y19316115D01*
X2853770Y19316113D01*
X2862790Y19312377D01*
X2942162Y19279500D01*
X3308599Y19279500D01*
X3360925Y19257826D01*
X3376293Y19235392D01*
X3386187Y19212984D01*
X3462984Y19136187D01*
X3562338Y19092318D01*
X3586627Y19089500D01*
X4013372Y19089501D01*
X4037662Y19092318D01*
X4137016Y19136187D01*
X4213813Y19212984D01*
X4257682Y19312338D01*
X4260500Y19336627D01*
X4260499Y19609731D01*
X4282172Y19662055D01*
X5220383Y20600267D01*
X5272708Y20621940D01*
X5325034Y20600266D01*
X5336793Y20584941D01*
X5362526Y20540372D01*
X5371120Y20525487D01*
X5445687Y20450920D01*
X5537013Y20398193D01*
X5587396Y20384693D01*
X5632329Y20350215D01*
X5639722Y20294063D01*
X5620569Y20260889D01*
X4086115Y18726435D01*
X4086112Y18726431D01*
X4049964Y18639158D01*
X4049957Y18639140D01*
X4049500Y18638038D01*
X4049500Y18098728D01*
X4027826Y18046402D01*
X4005393Y18031035D01*
X3990860Y18024618D01*
X3915385Y17949143D01*
X3915384Y17949142D01*
X3915384Y17949141D01*
X3872270Y17851498D01*
X3870190Y17833565D01*
X3869500Y17827620D01*
X3869500Y17372378D01*
X3872269Y17348505D01*
X3872269Y17348503D01*
X3872270Y17348502D01*
X3915384Y17250859D01*
X3990859Y17175384D01*
X4088502Y17132270D01*
X4112377Y17129500D01*
X4467622Y17129501D01*
X4491498Y17132270D01*
X4589141Y17175384D01*
X4664616Y17250859D01*
X4707730Y17348502D01*
X4710500Y17372377D01*
X4710499Y17827622D01*
X4707730Y17851498D01*
X4664616Y17949141D01*
X4589141Y18024616D01*
X4589139Y18024618D01*
X4574607Y18031035D01*
X4535496Y18071999D01*
X4530500Y18098728D01*
X4530500Y18459929D01*
X4552174Y18512255D01*
X4766354Y18726435D01*
X4991219Y18951301D01*
X5043544Y18972974D01*
X5095870Y18951300D01*
X5117544Y18898974D01*
X5107632Y18861978D01*
X5103196Y18854296D01*
X5103191Y18854283D01*
X5075900Y18752430D01*
X5075900Y18646971D01*
X5103191Y18545118D01*
X5103195Y18545109D01*
X5134677Y18490581D01*
X5155920Y18453787D01*
X5230487Y18379220D01*
X5321813Y18326493D01*
X5423670Y18299201D01*
X5423671Y18299200D01*
X5423673Y18299200D01*
X5529129Y18299200D01*
X5529129Y18299201D01*
X5630987Y18326493D01*
X5722313Y18379220D01*
X5796880Y18453787D01*
X5849607Y18545113D01*
X5869170Y18618126D01*
X5888319Y18651294D01*
X6156965Y18919938D01*
X6199818Y18994161D01*
X6222000Y19076947D01*
X6222000Y19162653D01*
X6222000Y19255800D01*
X6243674Y19308126D01*
X6296000Y19329800D01*
X6527624Y19329800D01*
X6546777Y19327278D01*
X6554636Y19325173D01*
X6557144Y19324501D01*
X6557145Y19324500D01*
X6557147Y19324500D01*
X6642855Y19324500D01*
X6642855Y19324501D01*
X6725638Y19346682D01*
X6765311Y19369587D01*
X6802311Y19379501D01*
X6882364Y19379501D01*
X6882368Y19379501D01*
X6936769Y19390321D01*
X6998459Y19431541D01*
X7039679Y19493231D01*
X7050500Y19547631D01*
X7050499Y19752368D01*
X7039679Y19806769D01*
X7004853Y19858889D01*
X6993804Y19914436D01*
X7004853Y19941111D01*
X7039679Y19993231D01*
X7050500Y20047631D01*
X7050499Y20252368D01*
X7039679Y20306769D01*
X7004853Y20358889D01*
X6993804Y20414436D01*
X7004853Y20441111D01*
X7039679Y20493231D01*
X7050500Y20547631D01*
X7050499Y20752368D01*
X7047986Y20765000D01*
X7059035Y20820546D01*
X7106126Y20852013D01*
X7134997Y20852013D01*
X7147631Y20849500D01*
X7352368Y20849501D01*
X7406769Y20860321D01*
X7458888Y20895147D01*
X7514436Y20906196D01*
X7541109Y20895148D01*
X7593231Y20860321D01*
X7647631Y20849500D01*
X7852368Y20849501D01*
X7906769Y20860321D01*
X7958888Y20895147D01*
X8014436Y20906196D01*
X8041109Y20895148D01*
X8093231Y20860321D01*
X8147631Y20849500D01*
X8352368Y20849501D01*
X8406769Y20860321D01*
X8458888Y20895147D01*
X8514436Y20906196D01*
X8541109Y20895148D01*
G37*
%TD.AperFunction*%
%TA.AperFunction,Conductor*%
G36*
X13726676Y24059635D02*
G01*
X13741111Y24056763D01*
X13761529Y24036345D01*
X13791493Y23991499D01*
X13791495Y23991497D01*
X13791496Y23991496D01*
X13841278Y23958233D01*
X13885180Y23949500D01*
X13892767Y23949500D01*
X13945093Y23927826D01*
X13966767Y23875500D01*
X13956853Y23838501D01*
X13947496Y23822296D01*
X13947491Y23822283D01*
X13920200Y23720430D01*
X13920200Y23614971D01*
X13947491Y23513118D01*
X13947495Y23513109D01*
X14000220Y23421787D01*
X14041799Y23380208D01*
X14063473Y23327882D01*
X14041799Y23275556D01*
X13975385Y23209143D01*
X13944570Y23139354D01*
X13932270Y23111498D01*
X13930124Y23092996D01*
X13929500Y23087620D01*
X13929500Y22732378D01*
X13932269Y22708505D01*
X13932269Y22708503D01*
X13932270Y22708502D01*
X13975384Y22610859D01*
X14050859Y22535384D01*
X14148502Y22492270D01*
X14172377Y22489500D01*
X14627622Y22489501D01*
X14651498Y22492270D01*
X14749141Y22535384D01*
X14824616Y22610859D01*
X14867730Y22708502D01*
X14870500Y22732377D01*
X14870500Y22753400D01*
X14892174Y22805726D01*
X14944500Y22827400D01*
X16369734Y22827400D01*
X16422058Y22805728D01*
X18999625Y20228254D01*
X19021300Y20175929D01*
X19021300Y18182014D01*
X18999626Y18129688D01*
X18947300Y18108014D01*
X18913707Y18116079D01*
X18875304Y18135646D01*
X18875302Y18135647D01*
X18875301Y18135647D01*
X18781519Y18150500D01*
X15718480Y18150500D01*
X15624695Y18135647D01*
X15624693Y18135646D01*
X15511657Y18078050D01*
X15421951Y17988344D01*
X15421950Y17988342D01*
X15364354Y17875304D01*
X15364353Y17875302D01*
X15361711Y17870115D01*
X15359975Y17871000D01*
X15328002Y17833565D01*
X15294408Y17825500D01*
X14726490Y17825500D01*
X14674164Y17847174D01*
X14655012Y17880347D01*
X14633819Y17959436D01*
X14633817Y17959441D01*
X14607401Y18005194D01*
X14603818Y18011400D01*
X14590965Y18033662D01*
X14530362Y18094265D01*
X14530359Y18094267D01*
X13961921Y18662706D01*
X13942769Y18695878D01*
X13923207Y18768887D01*
X13870480Y18860213D01*
X13795913Y18934780D01*
X13777150Y18945613D01*
X13704591Y18987505D01*
X13704582Y18987509D01*
X13602729Y19014800D01*
X13602727Y19014800D01*
X13497273Y19014800D01*
X13497271Y19014800D01*
X13395417Y18987509D01*
X13395408Y18987505D01*
X13304086Y18934780D01*
X13229520Y18860214D01*
X13176795Y18768892D01*
X13176791Y18768883D01*
X13149500Y18667030D01*
X13149500Y18561571D01*
X13176791Y18459718D01*
X13176795Y18459709D01*
X13187324Y18441473D01*
X13229520Y18368387D01*
X13304087Y18293820D01*
X13395413Y18241093D01*
X13468422Y18221531D01*
X13501594Y18202379D01*
X13744537Y17959436D01*
X13983326Y17720648D01*
X14005000Y17668322D01*
X14005000Y16745980D01*
X13983326Y16693654D01*
X13011846Y15722174D01*
X12959520Y15700500D01*
X12739423Y15700500D01*
X12687097Y15722174D01*
X12675337Y15737500D01*
X12650474Y15780563D01*
X12580562Y15850475D01*
X12494939Y15899910D01*
X12494934Y15899912D01*
X12399437Y15925500D01*
X12399435Y15925500D01*
X12300565Y15925500D01*
X12300563Y15925500D01*
X12205065Y15899912D01*
X12205060Y15899910D01*
X12115238Y15848050D01*
X12114114Y15849996D01*
X12066615Y15837286D01*
X12017576Y15865622D01*
X12002300Y15910650D01*
X12002300Y18541821D01*
X12023974Y18594147D01*
X13200524Y19770697D01*
X13252850Y19792371D01*
X13305176Y19770697D01*
X14630078Y18445795D01*
X14649229Y18412625D01*
X14665428Y18352172D01*
X14668794Y18339611D01*
X14721520Y18248287D01*
X14796087Y18173720D01*
X14887413Y18120993D01*
X14989270Y18093701D01*
X14989271Y18093700D01*
X14989273Y18093700D01*
X15094729Y18093700D01*
X15094729Y18093701D01*
X15196587Y18120993D01*
X15287913Y18173720D01*
X15362480Y18248287D01*
X15415207Y18339613D01*
X15442499Y18441471D01*
X15442500Y18441471D01*
X15442500Y18546929D01*
X15442499Y18546930D01*
X15438575Y18561573D01*
X15415207Y18648787D01*
X15362480Y18740113D01*
X15287913Y18814680D01*
X15226269Y18850270D01*
X15196589Y18867406D01*
X15196588Y18867407D01*
X15196587Y18867407D01*
X15123575Y18886971D01*
X15090405Y18906122D01*
X14431801Y19564726D01*
X14410127Y19617052D01*
X14431801Y19669378D01*
X14464973Y19688530D01*
X14475287Y19691293D01*
X14566613Y19744020D01*
X14641180Y19818587D01*
X14693907Y19909913D01*
X14721199Y20011771D01*
X14721200Y20011771D01*
X14721200Y20120508D01*
X14726833Y20148827D01*
X14737621Y20174871D01*
X14750500Y20205962D01*
X14750500Y20301274D01*
X14772174Y20353600D01*
X14794607Y20368968D01*
X14809141Y20375384D01*
X14884616Y20450859D01*
X14927730Y20548502D01*
X14930500Y20572377D01*
X14930499Y21027622D01*
X14927730Y21051498D01*
X14884616Y21149141D01*
X14809141Y21224616D01*
X14711498Y21267730D01*
X14687623Y21270500D01*
X14687619Y21270500D01*
X14419477Y21270500D01*
X14419476Y21270501D01*
X14419476Y21270500D01*
X14400154Y21278504D01*
X14367151Y21292174D01*
X14345477Y21344500D01*
X14346949Y21348053D01*
X14353698Y21364348D01*
X14367150Y21396825D01*
X14367152Y21396826D01*
X14418154Y21447827D01*
X14424508Y21450459D01*
X14470479Y21469501D01*
X14627622Y21469501D01*
X14651498Y21472270D01*
X14749141Y21515384D01*
X14824616Y21590859D01*
X14867730Y21688502D01*
X14870500Y21712377D01*
X14870499Y22067622D01*
X14867730Y22091498D01*
X14824616Y22189141D01*
X14749141Y22264616D01*
X14651498Y22307730D01*
X14627623Y22310500D01*
X14627619Y22310500D01*
X14172377Y22310500D01*
X14148504Y22307731D01*
X14050858Y22264616D01*
X13975385Y22189143D01*
X13932270Y22091499D01*
X13929500Y22067620D01*
X13929500Y21910480D01*
X13907826Y21858154D01*
X13339407Y21289736D01*
X13310658Y21271918D01*
X13303306Y21269447D01*
X13288502Y21267730D01*
X13257590Y21254082D01*
X13254377Y21253001D01*
X13229249Y21254724D01*
X13204067Y21254142D01*
X13201462Y21256629D01*
X13197872Y21256875D01*
X13181320Y21275863D01*
X13163105Y21293256D01*
X13162130Y21297877D01*
X13160656Y21299568D01*
X13160930Y21303567D01*
X13156800Y21323145D01*
X13156800Y21396629D01*
X13156799Y21396630D01*
X13156746Y21396826D01*
X13129507Y21498487D01*
X13076780Y21589813D01*
X13018574Y21648019D01*
X12996900Y21700345D01*
X12996900Y21916131D01*
X13018573Y21968456D01*
X13157944Y22107828D01*
X13210270Y22129501D01*
X13487622Y22129501D01*
X13511498Y22132270D01*
X13609141Y22175384D01*
X13684616Y22250859D01*
X13727730Y22348502D01*
X13730500Y22372377D01*
X13730499Y22827622D01*
X13727730Y22851498D01*
X13684616Y22949141D01*
X13609141Y23024616D01*
X13511498Y23067730D01*
X13487623Y23070500D01*
X13487619Y23070500D01*
X13448937Y23070500D01*
X13396611Y23092174D01*
X13374937Y23144500D01*
X13384851Y23181500D01*
X13385386Y23182429D01*
X13388207Y23187313D01*
X13415499Y23289171D01*
X13415500Y23289171D01*
X13415500Y23394629D01*
X13415499Y23394630D01*
X13410085Y23414834D01*
X13388207Y23496487D01*
X13335480Y23587813D01*
X13260913Y23662380D01*
X13202704Y23695987D01*
X13169591Y23715105D01*
X13169582Y23715109D01*
X13067729Y23742400D01*
X13067727Y23742400D01*
X12962273Y23742400D01*
X12962271Y23742400D01*
X12860417Y23715109D01*
X12860406Y23715104D01*
X12842408Y23704713D01*
X12786255Y23697322D01*
X12741323Y23731802D01*
X12731571Y23773674D01*
X12732374Y23785846D01*
X12740500Y23805462D01*
X12740500Y23908940D01*
X12740661Y23911378D01*
X12752198Y23934748D01*
X12762174Y23958830D01*
X12765392Y23961471D01*
X12765734Y23962163D01*
X12766588Y23962453D01*
X12773389Y23968033D01*
X12808501Y23991494D01*
X12808500Y23991494D01*
X12808504Y23991496D01*
X12838471Y24036345D01*
X12885562Y24067812D01*
X12941111Y24056763D01*
X12961529Y24036345D01*
X12991493Y23991499D01*
X12991495Y23991497D01*
X12991496Y23991496D01*
X13041278Y23958233D01*
X13085180Y23949500D01*
X13085181Y23949500D01*
X13514819Y23949500D01*
X13514820Y23949500D01*
X13558722Y23958233D01*
X13608504Y23991496D01*
X13638471Y24036345D01*
X13650710Y24044524D01*
X13658889Y24056763D01*
X13673323Y24059635D01*
X13685562Y24067812D01*
X13700000Y24064941D01*
X13714438Y24067812D01*
X13726676Y24059635D01*
G37*
%TD.AperFunction*%
%TA.AperFunction,Conductor*%
G36*
X3393326Y21817059D02*
G01*
X4202826Y21007559D01*
X4224500Y20955233D01*
X4224500Y20950563D01*
X4250088Y20855066D01*
X4250090Y20855061D01*
X4285417Y20793874D01*
X4299525Y20769438D01*
X4369438Y20699525D01*
X4388278Y20688648D01*
X4457072Y20648929D01*
X4491551Y20603995D01*
X4484158Y20547843D01*
X4472398Y20532517D01*
X3912053Y19972174D01*
X3859727Y19950500D01*
X3586627Y19950500D01*
X3562340Y19947683D01*
X3462983Y19903813D01*
X3386187Y19827017D01*
X3386187Y19827016D01*
X3377248Y19806770D01*
X3376294Y19804610D01*
X3335331Y19765497D01*
X3308599Y19760500D01*
X3120270Y19760500D01*
X3067944Y19782174D01*
X2945344Y19904774D01*
X2923670Y19957100D01*
X2945344Y20009426D01*
X2989767Y20027827D01*
X2989420Y20030467D01*
X2994221Y20031100D01*
X2994227Y20031100D01*
X3096087Y20058393D01*
X3187413Y20111120D01*
X3261980Y20185687D01*
X3314707Y20277013D01*
X3341999Y20378871D01*
X3342000Y20378871D01*
X3342000Y20484329D01*
X3341999Y20484330D01*
X3333352Y20516600D01*
X3314707Y20586187D01*
X3304426Y20603995D01*
X3276914Y20651649D01*
X3267000Y20688648D01*
X3267000Y21764733D01*
X3288674Y21817059D01*
X3341000Y21838733D01*
X3393326Y21817059D01*
G37*
%TD.AperFunction*%
%TA.AperFunction,Conductor*%
G36*
X18967956Y26711581D02*
G01*
X18974470Y26713041D01*
X18993403Y26701043D01*
X19014116Y26692465D01*
X19304167Y26402414D01*
X19392561Y26365800D01*
X19392562Y26365800D01*
X19409172Y26365800D01*
X19461498Y26344126D01*
X19483172Y26291800D01*
X19476867Y26261911D01*
X19472271Y26251502D01*
X19472271Y26251501D01*
X19472270Y26251498D01*
X19472270Y26251497D01*
X19469500Y26227620D01*
X19469500Y25772378D01*
X19472269Y25748505D01*
X19472269Y25748503D01*
X19472270Y25748502D01*
X19515384Y25650859D01*
X19590859Y25575384D01*
X19605389Y25568969D01*
X19644502Y25528008D01*
X19649500Y25501274D01*
X19649500Y24804861D01*
X19686112Y24716470D01*
X19686114Y24716467D01*
X19922859Y24479722D01*
X20157426Y24245156D01*
X20179100Y24192830D01*
X20179100Y21330830D01*
X20157426Y21278504D01*
X20105100Y21256830D01*
X20068100Y21266744D01*
X20027291Y21290305D01*
X20027282Y21290309D01*
X19925429Y21317600D01*
X19925427Y21317600D01*
X19819973Y21317600D01*
X19819971Y21317600D01*
X19718117Y21290309D01*
X19718108Y21290305D01*
X19626786Y21237580D01*
X19552220Y21163014D01*
X19499495Y21071692D01*
X19499491Y21071683D01*
X19472200Y20969830D01*
X19472200Y20887372D01*
X19450526Y20835046D01*
X19314121Y20698642D01*
X19261795Y20676968D01*
X19209470Y20698641D01*
X16762175Y23145847D01*
X16740500Y23198173D01*
X16740500Y23906504D01*
X16761213Y23957851D01*
X16766749Y23963597D01*
X16808504Y23991496D01*
X16841767Y24041278D01*
X16841809Y24041493D01*
X16846713Y24046581D01*
X16867084Y24055465D01*
X16885562Y24067812D01*
X16892316Y24066469D01*
X16898628Y24069221D01*
X16919314Y24061099D01*
X16941111Y24056763D01*
X16948063Y24049811D01*
X16951347Y24048521D01*
X16952889Y24044985D01*
X16961529Y24036345D01*
X16991493Y23991499D01*
X16991495Y23991497D01*
X16991496Y23991496D01*
X17041278Y23958233D01*
X17085180Y23949500D01*
X17085181Y23949500D01*
X17514819Y23949500D01*
X17514820Y23949500D01*
X17558722Y23958233D01*
X17608504Y23991496D01*
X17641767Y24041278D01*
X17650500Y24085180D01*
X17650500Y24914820D01*
X17641767Y24958722D01*
X17608504Y25008504D01*
X17573387Y25031968D01*
X17558722Y25041767D01*
X17556797Y25042150D01*
X17514820Y25050500D01*
X17085180Y25050500D01*
X17074397Y25048355D01*
X17041277Y25041767D01*
X16991496Y25008505D01*
X16991495Y25008504D01*
X16961529Y24963655D01*
X16949290Y24955478D01*
X16941113Y24943238D01*
X16926674Y24940367D01*
X16914437Y24932189D01*
X16900000Y24935061D01*
X16885564Y24932189D01*
X16873325Y24940367D01*
X16858888Y24943238D01*
X16838472Y24963653D01*
X16818991Y24992809D01*
X16807943Y25048355D01*
X16839408Y25095448D01*
X16843480Y25097980D01*
X16892913Y25126520D01*
X16967480Y25201087D01*
X17020207Y25292413D01*
X17047499Y25394271D01*
X17047500Y25394271D01*
X17047500Y25476730D01*
X17069174Y25529056D01*
X17477944Y25937826D01*
X17530270Y25959500D01*
X17806503Y25959500D01*
X17857850Y25938787D01*
X17863598Y25933248D01*
X17891496Y25891496D01*
X17941278Y25858233D01*
X17941491Y25858191D01*
X17946580Y25853287D01*
X17955463Y25832916D01*
X17967811Y25814437D01*
X17966467Y25807684D01*
X17969220Y25801372D01*
X17961097Y25780687D01*
X17956762Y25758888D01*
X17949808Y25751935D01*
X17948520Y25748653D01*
X17944985Y25747112D01*
X17936345Y25738471D01*
X17891496Y25708505D01*
X17891495Y25708504D01*
X17858233Y25658723D01*
X17849500Y25614820D01*
X17849500Y25185181D01*
X17858233Y25141278D01*
X17869443Y25124500D01*
X17891496Y25091496D01*
X17941278Y25058233D01*
X17985180Y25049500D01*
X17985181Y25049500D01*
X18814819Y25049500D01*
X18814820Y25049500D01*
X18858722Y25058233D01*
X18908504Y25091496D01*
X18941767Y25141278D01*
X18950500Y25185180D01*
X18950500Y25614820D01*
X18941767Y25658722D01*
X18908504Y25708504D01*
X18908503Y25708505D01*
X18908501Y25708507D01*
X18863655Y25738471D01*
X18832188Y25785562D01*
X18843237Y25841111D01*
X18863655Y25861529D01*
X18908501Y25891494D01*
X18908500Y25891494D01*
X18908504Y25891496D01*
X18941767Y25941278D01*
X18950500Y25985180D01*
X18950500Y26414820D01*
X18941767Y26458722D01*
X18908504Y26508504D01*
X18908503Y26508505D01*
X18908501Y26508507D01*
X18863655Y26538471D01*
X18855955Y26549993D01*
X18844250Y26557411D01*
X18840842Y26572611D01*
X18832188Y26585562D01*
X18834891Y26599155D01*
X18831860Y26612676D01*
X18840099Y26625336D01*
X18843237Y26641111D01*
X18862177Y26660516D01*
X18862894Y26661021D01*
X18908504Y26691496D01*
X18910552Y26694562D01*
X18919205Y26700651D01*
X18941077Y26705555D01*
X18961788Y26714135D01*
X18967956Y26711581D01*
G37*
%TD.AperFunction*%
%TA.AperFunction,Conductor*%
G36*
X7441406Y23591126D02*
G01*
X7457447Y23567118D01*
X7459500Y23562162D01*
X7459500Y23562161D01*
X7467242Y23543469D01*
X7496112Y23473770D01*
X7496115Y23473766D01*
X7773055Y23196826D01*
X7794729Y23144500D01*
X7773055Y23092174D01*
X7720729Y23070500D01*
X7512377Y23070500D01*
X7488504Y23067731D01*
X7390858Y23024616D01*
X7315385Y22949143D01*
X7272270Y22851499D01*
X7269500Y22827620D01*
X7269500Y22670479D01*
X7247826Y22618153D01*
X6925947Y22296274D01*
X6873621Y22274600D01*
X6246796Y22274600D01*
X6242256Y22274601D01*
X6242253Y22274601D01*
X6220581Y22274601D01*
X6193648Y22285758D01*
X6168258Y22296275D01*
X6168257Y22296277D01*
X6168256Y22296277D01*
X6152447Y22334447D01*
X6146584Y22348601D01*
X6147077Y22357130D01*
X6147680Y22362336D01*
X6147682Y22362338D01*
X6150500Y22386627D01*
X6150499Y22659731D01*
X6172172Y22712055D01*
X7051245Y23591126D01*
X7103571Y23612800D01*
X7389080Y23612800D01*
X7441406Y23591126D01*
G37*
%TD.AperFunction*%
%TA.AperFunction,Conductor*%
G36*
X24727826Y34727826D02*
G01*
X24749500Y34675500D01*
X24749500Y30874000D01*
X24727826Y30821674D01*
X24675500Y30800000D01*
X23900000Y30800000D01*
X23900000Y29000000D01*
X24675500Y29000000D01*
X24727826Y28978326D01*
X24749500Y28926000D01*
X24749500Y324500D01*
X24727826Y272174D01*
X24675500Y250500D01*
X324500Y250500D01*
X272174Y272174D01*
X250500Y324500D01*
X250500Y25151530D01*
X520800Y25151530D01*
X520800Y25046071D01*
X548091Y24944218D01*
X548095Y24944209D01*
X555926Y24930645D01*
X600820Y24852887D01*
X675387Y24778320D01*
X766713Y24725593D01*
X868570Y24698301D01*
X868571Y24698300D01*
X868573Y24698300D01*
X974029Y24698300D01*
X974029Y24698301D01*
X1075887Y24725593D01*
X1167213Y24778320D01*
X1210674Y24821781D01*
X1263000Y24843455D01*
X1315326Y24821781D01*
X1337000Y24769455D01*
X1337000Y24630353D01*
X1337000Y24544647D01*
X1359182Y24461861D01*
X1359183Y24461859D01*
X1359184Y24461857D01*
X1402033Y24387641D01*
X1402035Y24387638D01*
X1447703Y24341969D01*
X1469377Y24289643D01*
X1447703Y24237318D01*
X1366442Y24156057D01*
X1329222Y24066199D01*
X1324500Y24054800D01*
X1324500Y23945200D01*
X1353371Y23875500D01*
X1353843Y23874361D01*
X1366442Y23843944D01*
X1366444Y23843941D01*
X1577826Y23632559D01*
X1599500Y23580234D01*
X1599500Y23493481D01*
X1614353Y23399696D01*
X1614354Y23399694D01*
X1656116Y23317733D01*
X1671950Y23286658D01*
X1761658Y23196950D01*
X1874696Y23139354D01*
X1968481Y23124500D01*
X2055231Y23124501D01*
X2107557Y23102827D01*
X2107558Y23102827D01*
X2594326Y22616059D01*
X2616000Y22563733D01*
X2616000Y20713446D01*
X2594326Y20661120D01*
X2542000Y20639446D01*
X2489674Y20661120D01*
X2468493Y20704922D01*
X2467730Y20711496D01*
X2467730Y20711498D01*
X2424616Y20809141D01*
X2349141Y20884616D01*
X2251498Y20927730D01*
X2227623Y20930500D01*
X2227619Y20930500D01*
X1772377Y20930500D01*
X1748504Y20927731D01*
X1650858Y20884616D01*
X1575385Y20809143D01*
X1541508Y20732419D01*
X1532270Y20711498D01*
X1530779Y20698642D01*
X1529500Y20687620D01*
X1529500Y20332378D01*
X1532269Y20308505D01*
X1532269Y20308503D01*
X1532270Y20308502D01*
X1575384Y20210859D01*
X1650859Y20135384D01*
X1748502Y20092270D01*
X1772377Y20089500D01*
X2049728Y20089501D01*
X2102054Y20067827D01*
X2133055Y20036826D01*
X2154729Y19984500D01*
X2133055Y19932174D01*
X2080729Y19910500D01*
X1772377Y19910500D01*
X1748504Y19907731D01*
X1650858Y19864616D01*
X1575385Y19789143D01*
X1575384Y19789142D01*
X1575384Y19789141D01*
X1571135Y19779518D01*
X1532270Y19691499D01*
X1529500Y19667620D01*
X1529500Y19312378D01*
X1532269Y19288505D01*
X1532269Y19288503D01*
X1532270Y19288502D01*
X1556797Y19232954D01*
X1575384Y19190859D01*
X1652826Y19113417D01*
X1674500Y19061091D01*
X1674500Y17792853D01*
X1674500Y17707147D01*
X1696682Y17624361D01*
X1696683Y17624359D01*
X1696684Y17624357D01*
X1739532Y17550142D01*
X1739533Y17550141D01*
X1739535Y17550138D01*
X4284402Y15005271D01*
X6512847Y12776826D01*
X6534521Y12724500D01*
X6512847Y12672174D01*
X6460521Y12650500D01*
X6218480Y12650500D01*
X6124695Y12635647D01*
X6124693Y12635646D01*
X6011657Y12578050D01*
X5921951Y12488344D01*
X5921950Y12488342D01*
X5866065Y12378661D01*
X5864353Y12375302D01*
X5849500Y12281520D01*
X5849500Y11718481D01*
X5864353Y11624696D01*
X5864354Y11624694D01*
X5909214Y11536654D01*
X5921950Y11511658D01*
X6011658Y11421950D01*
X6124696Y11364354D01*
X6218481Y11349500D01*
X9281518Y11349501D01*
X9281519Y11349501D01*
X9375304Y11364354D01*
X9375306Y11364355D01*
X9377419Y11365432D01*
X9488342Y11421950D01*
X9578050Y11511658D01*
X9635646Y11624696D01*
X9650500Y11718481D01*
X9650499Y12281518D01*
X9650297Y12282792D01*
X9635646Y12375305D01*
X9635645Y12375307D01*
X9580816Y12482913D01*
X9578050Y12488342D01*
X9488342Y12578050D01*
X9375304Y12635646D01*
X9375302Y12635647D01*
X9375301Y12635647D01*
X9281520Y12650500D01*
X9281519Y12650500D01*
X9129978Y12650500D01*
X9077652Y12672174D01*
X9055978Y12724500D01*
X9077652Y12776826D01*
X10438401Y14137575D01*
X11830485Y15529659D01*
X11882810Y15551332D01*
X11935136Y15529658D01*
X11956810Y15477332D01*
X11948746Y15443739D01*
X11939354Y15425305D01*
X11924500Y15331520D01*
X11924500Y14768481D01*
X11939353Y14674696D01*
X11939354Y14674694D01*
X11981098Y14592769D01*
X11996950Y14561658D01*
X12086658Y14471950D01*
X12199696Y14414354D01*
X12293481Y14399500D01*
X13306518Y14399501D01*
X13306519Y14399501D01*
X13400304Y14414354D01*
X13400306Y14414355D01*
X13402419Y14415432D01*
X13513342Y14471950D01*
X13603050Y14561658D01*
X13660646Y14674696D01*
X13675500Y14768481D01*
X13675499Y15331518D01*
X13663123Y15409661D01*
X13676345Y15464731D01*
X13683879Y15473554D01*
X14590965Y16380638D01*
X14633818Y16454861D01*
X14656000Y16537647D01*
X14656000Y16623353D01*
X14656000Y17100500D01*
X14677674Y17152826D01*
X14730000Y17174500D01*
X15294408Y17174500D01*
X15346734Y17152826D01*
X15361011Y17129529D01*
X15361711Y17129885D01*
X15364353Y17124699D01*
X15364354Y17124696D01*
X15421950Y17011658D01*
X15511658Y16921950D01*
X15624696Y16864354D01*
X15718481Y16849500D01*
X18568029Y16849501D01*
X18620355Y16827827D01*
X18642029Y16775501D01*
X18620355Y16723175D01*
X18498755Y16601574D01*
X18446429Y16579900D01*
X18220261Y16579900D01*
X18131869Y16543288D01*
X13567312Y11978731D01*
X13533725Y11897641D01*
X13533723Y11897637D01*
X13530700Y11890340D01*
X13530700Y10605171D01*
X13523250Y10572812D01*
X13517814Y10561634D01*
X13505314Y10549133D01*
X13469223Y10462000D01*
X13468700Y10460738D01*
X13468700Y10460623D01*
X13468700Y9730530D01*
X13447026Y9678204D01*
X13394700Y9656530D01*
X13342374Y9678204D01*
X13319577Y9701001D01*
X13214238Y9747512D01*
X13214239Y9747512D01*
X13209087Y9748110D01*
X13188484Y9750500D01*
X13188480Y9750500D01*
X12614500Y9750500D01*
X12562174Y9772174D01*
X12540500Y9824500D01*
X12540500Y12060738D01*
X12503886Y12149132D01*
X12494674Y12158344D01*
X12473000Y12210670D01*
X12473000Y12293129D01*
X12472999Y12293130D01*
X12450981Y12375302D01*
X12445707Y12394987D01*
X12392980Y12486313D01*
X12318413Y12560880D01*
X12315010Y12562845D01*
X12227091Y12613605D01*
X12227082Y12613609D01*
X12125229Y12640900D01*
X12125227Y12640900D01*
X12019773Y12640900D01*
X12019771Y12640900D01*
X11917917Y12613609D01*
X11917908Y12613605D01*
X11826586Y12560880D01*
X11752020Y12486314D01*
X11699295Y12394992D01*
X11699291Y12394983D01*
X11672000Y12293130D01*
X11672000Y12187671D01*
X11699291Y12085818D01*
X11699295Y12085809D01*
X11746714Y12003678D01*
X11752020Y11994487D01*
X11826587Y11919920D01*
X11917913Y11867193D01*
X12004654Y11843951D01*
X12049586Y11809473D01*
X12059500Y11772473D01*
X12059500Y9824500D01*
X12037826Y9772174D01*
X11985500Y9750500D01*
X11411516Y9750500D01*
X11390912Y9748110D01*
X11385761Y9747512D01*
X11280422Y9701001D01*
X11198999Y9619578D01*
X11161825Y9535384D01*
X11152488Y9514238D01*
X11149500Y9488484D01*
X11149500Y8661516D01*
X11152488Y8635762D01*
X11198999Y8530423D01*
X11280423Y8448999D01*
X11385762Y8402488D01*
X11411516Y8399500D01*
X11411520Y8399500D01*
X13188480Y8399500D01*
X13188484Y8399500D01*
X13214238Y8402488D01*
X13319577Y8448999D01*
X13342374Y8471796D01*
X13394700Y8493470D01*
X13447026Y8471796D01*
X13468700Y8419470D01*
X13468700Y7989471D01*
X13452028Y7949223D01*
X13455064Y7947194D01*
X13451012Y7941131D01*
X13418969Y7863770D01*
X13414400Y7852741D01*
X13414400Y4260171D01*
X13392726Y4207845D01*
X12657055Y3472174D01*
X12604729Y3450500D01*
X11411516Y3450500D01*
X11394346Y3448508D01*
X11385760Y3447512D01*
X11385758Y3447511D01*
X11384085Y3446772D01*
X11382946Y3446746D01*
X11380389Y3446050D01*
X11380216Y3446683D01*
X11327463Y3445468D01*
X11286503Y3484584D01*
X11280200Y3514469D01*
X11280200Y4630630D01*
X11301873Y4682955D01*
X11596744Y4977827D01*
X11649070Y4999500D01*
X11731529Y4999500D01*
X11731529Y4999501D01*
X11833387Y5026793D01*
X11924713Y5079520D01*
X11999280Y5154087D01*
X12052007Y5245413D01*
X12079299Y5347271D01*
X12079300Y5347271D01*
X12079300Y5452729D01*
X12079299Y5452730D01*
X12060140Y5524232D01*
X12052007Y5554587D01*
X11999280Y5645913D01*
X11924713Y5720480D01*
X11833391Y5773205D01*
X11833382Y5773209D01*
X11731529Y5800500D01*
X11731527Y5800500D01*
X11626073Y5800500D01*
X11626071Y5800500D01*
X11524217Y5773209D01*
X11524208Y5773205D01*
X11432886Y5720480D01*
X11358320Y5645914D01*
X11305595Y5554592D01*
X11305591Y5554583D01*
X11278300Y5452730D01*
X11278300Y5370272D01*
X11256626Y5317946D01*
X11056826Y5118146D01*
X11004500Y5096472D01*
X10952174Y5118146D01*
X10930500Y5170472D01*
X10930500Y6820538D01*
X10893886Y6908932D01*
X10826232Y6976586D01*
X10738474Y7064344D01*
X10716800Y7116670D01*
X10716800Y7199129D01*
X10716799Y7199130D01*
X10709601Y7225992D01*
X10689507Y7300987D01*
X10636780Y7392313D01*
X10562213Y7466880D01*
X10556868Y7469966D01*
X10470891Y7519605D01*
X10470882Y7519609D01*
X10369029Y7546900D01*
X10369027Y7546900D01*
X10303271Y7546900D01*
X10250945Y7568574D01*
X10229271Y7620900D01*
X10250945Y7673226D01*
X10640185Y8062466D01*
X10640185Y8062467D01*
X10640186Y8062467D01*
X10647918Y8081135D01*
X10661117Y8112999D01*
X10667612Y8128682D01*
X10676800Y8150862D01*
X10676800Y8956155D01*
X10698474Y9008481D01*
X10716242Y9026249D01*
X10756780Y9066787D01*
X10809507Y9158113D01*
X10836799Y9259971D01*
X10836800Y9259971D01*
X10836800Y9365429D01*
X10836799Y9365430D01*
X10809508Y9467283D01*
X10809507Y9467287D01*
X10756780Y9558613D01*
X10682213Y9633180D01*
X10619303Y9669501D01*
X10590891Y9685905D01*
X10590882Y9685909D01*
X10489029Y9713200D01*
X10489027Y9713200D01*
X10449770Y9713200D01*
X10397444Y9734874D01*
X10375770Y9787200D01*
X10397444Y9839526D01*
X10555713Y9997795D01*
X10938286Y10380367D01*
X10974900Y10468762D01*
X10974900Y10564439D01*
X10974900Y11880455D01*
X10996574Y11932781D01*
X11016814Y11953021D01*
X11054880Y11991087D01*
X11107607Y12082413D01*
X11134899Y12184271D01*
X11134900Y12184271D01*
X11134900Y12289729D01*
X11134899Y12289730D01*
X11134755Y12290266D01*
X11107607Y12391587D01*
X11054880Y12482913D01*
X10980313Y12557480D01*
X10971021Y12562845D01*
X10888991Y12610205D01*
X10888982Y12610209D01*
X10787129Y12637500D01*
X10787127Y12637500D01*
X10681673Y12637500D01*
X10681671Y12637500D01*
X10579817Y12610209D01*
X10579808Y12610205D01*
X10488486Y12557480D01*
X10413920Y12482914D01*
X10361195Y12391592D01*
X10361191Y12391583D01*
X10333900Y12289730D01*
X10333900Y12184271D01*
X10361191Y12082418D01*
X10361195Y12082409D01*
X10413920Y11991087D01*
X10472226Y11932781D01*
X10493900Y11880455D01*
X10493900Y10646872D01*
X10472226Y10594546D01*
X8549853Y8672174D01*
X8497527Y8650500D01*
X6218480Y8650500D01*
X6124695Y8635647D01*
X6124693Y8635646D01*
X6011657Y8578050D01*
X5921951Y8488344D01*
X5917859Y8480313D01*
X5879649Y8405321D01*
X5864353Y8375302D01*
X5849500Y8281520D01*
X5849500Y7718481D01*
X5864353Y7624696D01*
X5864354Y7624694D01*
X5903993Y7546900D01*
X5921950Y7511658D01*
X6011658Y7421950D01*
X6124696Y7364354D01*
X6218481Y7349500D01*
X9068328Y7349501D01*
X9120654Y7327827D01*
X9142328Y7275501D01*
X9120654Y7223175D01*
X8569653Y6672174D01*
X8517327Y6650500D01*
X6218480Y6650500D01*
X6124695Y6635647D01*
X6124693Y6635646D01*
X6011657Y6578050D01*
X5921951Y6488344D01*
X5864353Y6375302D01*
X5849500Y6281520D01*
X5849500Y5718481D01*
X5864353Y5624696D01*
X5864354Y5624694D01*
X5915541Y5524236D01*
X5921950Y5511658D01*
X6011658Y5421950D01*
X6124696Y5364354D01*
X6218481Y5349500D01*
X9281518Y5349501D01*
X9281519Y5349501D01*
X9375304Y5364354D01*
X9375306Y5364355D01*
X9386919Y5370272D01*
X9488342Y5421950D01*
X9578050Y5511658D01*
X9635646Y5624696D01*
X9650500Y5718481D01*
X9650499Y6281518D01*
X9646751Y6305181D01*
X9635646Y6375305D01*
X9635645Y6375307D01*
X9578049Y6488343D01*
X9488343Y6578049D01*
X9488342Y6578050D01*
X9375304Y6635646D01*
X9375300Y6635647D01*
X9375298Y6635648D01*
X9369762Y6637447D01*
X9370641Y6640155D01*
X9330648Y6664679D01*
X9317441Y6719754D01*
X9338199Y6760482D01*
X9789474Y7211757D01*
X9841800Y7233430D01*
X9894126Y7211756D01*
X9915800Y7159430D01*
X9915800Y7093671D01*
X9943091Y6991818D01*
X9943092Y6991815D01*
X9943093Y6991813D01*
X9995820Y6900487D01*
X10070387Y6825920D01*
X10161713Y6773193D01*
X10263570Y6745901D01*
X10263571Y6745900D01*
X10346030Y6745900D01*
X10398356Y6724226D01*
X10427826Y6694756D01*
X10449500Y6642430D01*
X10449500Y2098728D01*
X10427826Y2046402D01*
X10405393Y2031035D01*
X10390860Y2024618D01*
X10315385Y1949143D01*
X10272270Y1851499D01*
X10269500Y1827620D01*
X10269500Y1372378D01*
X10272269Y1348505D01*
X10272269Y1348503D01*
X10272270Y1348502D01*
X10315384Y1250859D01*
X10390859Y1175384D01*
X10488502Y1132270D01*
X10512377Y1129500D01*
X10867622Y1129501D01*
X10891498Y1132270D01*
X10989141Y1175384D01*
X11064616Y1250859D01*
X11107730Y1348502D01*
X11110500Y1372377D01*
X11110499Y1580633D01*
X11132173Y1632957D01*
X11184499Y1654631D01*
X11236825Y1632957D01*
X11267826Y1601956D01*
X11289500Y1549630D01*
X11289500Y1372378D01*
X11292269Y1348505D01*
X11292269Y1348503D01*
X11292270Y1348502D01*
X11335384Y1250859D01*
X11410859Y1175384D01*
X11508502Y1132270D01*
X11532377Y1129500D01*
X11887622Y1129501D01*
X11911498Y1132270D01*
X12009141Y1175384D01*
X12084616Y1250859D01*
X12127730Y1348502D01*
X12130500Y1372377D01*
X12130499Y1827622D01*
X12127730Y1851498D01*
X12084616Y1949141D01*
X12060583Y1973174D01*
X12038909Y2025500D01*
X12060583Y2077826D01*
X12112909Y2099500D01*
X12487091Y2099500D01*
X12539417Y2077826D01*
X12561091Y2025500D01*
X12539417Y1973174D01*
X12515385Y1949143D01*
X12472270Y1851499D01*
X12469500Y1827620D01*
X12469500Y1372378D01*
X12472269Y1348505D01*
X12472269Y1348503D01*
X12472270Y1348502D01*
X12515384Y1250859D01*
X12590859Y1175384D01*
X12688502Y1132270D01*
X12712377Y1129500D01*
X12989728Y1129501D01*
X13042054Y1107827D01*
X13321667Y828214D01*
X13410061Y791600D01*
X13410062Y791600D01*
X14264638Y791600D01*
X14264639Y791600D01*
X14353033Y828214D01*
X14737586Y1212767D01*
X14774200Y1301161D01*
X14774200Y1396838D01*
X14774200Y1809755D01*
X14795874Y1862081D01*
X14854180Y1920387D01*
X14906907Y2011713D01*
X14934199Y2113571D01*
X14934200Y2113571D01*
X14934200Y2219029D01*
X14934199Y2219030D01*
X14906908Y2320883D01*
X14906907Y2320887D01*
X14854180Y2412213D01*
X14779613Y2486780D01*
X14688287Y2539507D01*
X14684087Y2541932D01*
X14684894Y2543331D01*
X14648973Y2579251D01*
X14648973Y2635888D01*
X14665012Y2659894D01*
X15273936Y3268820D01*
X15326262Y3290493D01*
X15378588Y3268819D01*
X15404087Y3243320D01*
X15495413Y3190593D01*
X15597270Y3163301D01*
X15597271Y3163300D01*
X15597273Y3163300D01*
X15702729Y3163300D01*
X15702729Y3163301D01*
X15804587Y3190593D01*
X15895913Y3243320D01*
X15970480Y3317887D01*
X16023207Y3409213D01*
X16050499Y3511071D01*
X16050500Y3511071D01*
X16050500Y3616529D01*
X16050499Y3616530D01*
X16023208Y3718383D01*
X16023207Y3718387D01*
X15970480Y3809713D01*
X15895913Y3884280D01*
X15804591Y3937005D01*
X15804582Y3937009D01*
X15702729Y3964300D01*
X15702727Y3964300D01*
X15597273Y3964300D01*
X15597271Y3964300D01*
X15495417Y3937009D01*
X15495408Y3937005D01*
X15404086Y3884280D01*
X15345781Y3825974D01*
X15293455Y3804300D01*
X15180962Y3804300D01*
X15092570Y3767688D01*
X15092566Y3767685D01*
X13706115Y2381235D01*
X13706114Y2381234D01*
X13706114Y2381233D01*
X13677122Y2311238D01*
X13677122Y2311237D01*
X13669500Y2292838D01*
X13669500Y2098728D01*
X13647826Y2046402D01*
X13625393Y2031035D01*
X13610860Y2024618D01*
X13535385Y1949143D01*
X13492270Y1851499D01*
X13489500Y1827620D01*
X13489500Y1519271D01*
X13467826Y1466945D01*
X13415500Y1445271D01*
X13363174Y1466945D01*
X13332173Y1497946D01*
X13310499Y1550272D01*
X13310499Y1827623D01*
X13308751Y1842695D01*
X13307730Y1851498D01*
X13264616Y1949141D01*
X13219194Y1994563D01*
X13197520Y2046889D01*
X13219194Y2099215D01*
X13241626Y2114582D01*
X13319577Y2148999D01*
X13401001Y2230423D01*
X13447512Y2335762D01*
X13450500Y2361516D01*
X13450500Y3188484D01*
X13447512Y3214238D01*
X13401001Y3319577D01*
X13345174Y3375404D01*
X13323500Y3427730D01*
X13345174Y3480056D01*
X13481648Y3616530D01*
X13858786Y3993667D01*
X13895400Y4082061D01*
X13895400Y4177739D01*
X13895400Y7157334D01*
X13917074Y7209660D01*
X13969400Y7231334D01*
X13992208Y7226798D01*
X13992329Y7227248D01*
X13997013Y7225993D01*
X14098870Y7198701D01*
X14098871Y7198700D01*
X14098873Y7198700D01*
X14204329Y7198700D01*
X14204329Y7198701D01*
X14306187Y7225993D01*
X14397513Y7278720D01*
X14405274Y7286481D01*
X14457600Y7308155D01*
X14509926Y7286481D01*
X14531600Y7234155D01*
X14531600Y5257461D01*
X14568212Y5169070D01*
X14568214Y5169067D01*
X15103814Y4633468D01*
X15171468Y4565814D01*
X15259862Y4529200D01*
X15259863Y4529200D01*
X17403938Y4529200D01*
X17403939Y4529200D01*
X17492333Y4565814D01*
X18082149Y5155630D01*
X19449500Y5155630D01*
X19449500Y5050171D01*
X19476791Y4948318D01*
X19476792Y4948315D01*
X19476793Y4948313D01*
X19529520Y4856987D01*
X19604087Y4782420D01*
X19695413Y4729693D01*
X19797270Y4702401D01*
X19797271Y4702400D01*
X19797273Y4702400D01*
X19902729Y4702400D01*
X19902729Y4702401D01*
X20004587Y4729693D01*
X20095913Y4782420D01*
X20170480Y4856987D01*
X20223207Y4948313D01*
X20250499Y5050171D01*
X20250500Y5050171D01*
X20250500Y5155629D01*
X20250499Y5155630D01*
X20223208Y5257483D01*
X20223207Y5257487D01*
X20170480Y5348813D01*
X20095913Y5423380D01*
X20057049Y5445818D01*
X20004591Y5476105D01*
X20004582Y5476109D01*
X19902729Y5503400D01*
X19902727Y5503400D01*
X19797273Y5503400D01*
X19797271Y5503400D01*
X19695417Y5476109D01*
X19695408Y5476105D01*
X19604086Y5423380D01*
X19529520Y5348814D01*
X19476795Y5257492D01*
X19476791Y5257483D01*
X19449500Y5155630D01*
X18082149Y5155630D01*
X18171928Y5245409D01*
X18839040Y5912522D01*
X18840692Y5910870D01*
X18879699Y5936948D01*
X18935251Y5925914D01*
X18946482Y5916700D01*
X18993768Y5869414D01*
X19082162Y5832800D01*
X19082163Y5832800D01*
X20177837Y5832800D01*
X20177838Y5832800D01*
X20266232Y5869414D01*
X20333886Y5937068D01*
X20370500Y6025462D01*
X20370500Y6098165D01*
X20392174Y6150491D01*
X20444500Y6172165D01*
X20458928Y6170744D01*
X20465180Y6169500D01*
X20465185Y6169500D01*
X20794819Y6169500D01*
X20794820Y6169500D01*
X20838722Y6178233D01*
X20838884Y6178342D01*
X20839076Y6178380D01*
X20845456Y6181022D01*
X20845981Y6179754D01*
X20894429Y6189396D01*
X20921113Y6178343D01*
X20921278Y6178233D01*
X20965180Y6169500D01*
X20965181Y6169500D01*
X21294815Y6169500D01*
X21294820Y6169500D01*
X21301059Y6170742D01*
X21356606Y6159698D01*
X21388077Y6112609D01*
X21389500Y6098165D01*
X21389500Y5707605D01*
X21367826Y5655279D01*
X21352501Y5643519D01*
X21262885Y5591779D01*
X21188320Y5517214D01*
X21135595Y5425892D01*
X21135591Y5425883D01*
X21108300Y5324030D01*
X21108300Y5218571D01*
X21135591Y5116718D01*
X21135595Y5116709D01*
X21174010Y5050173D01*
X21188320Y5025387D01*
X21262887Y4950820D01*
X21354213Y4898093D01*
X21456070Y4870801D01*
X21456071Y4870800D01*
X21456073Y4870800D01*
X21561529Y4870800D01*
X21561529Y4870801D01*
X21663387Y4898093D01*
X21754713Y4950820D01*
X21829280Y5025387D01*
X21882007Y5116713D01*
X21909299Y5218571D01*
X21909300Y5218571D01*
X21909300Y5324029D01*
X21909299Y5324030D01*
X21904688Y5341237D01*
X21882007Y5425887D01*
X21880413Y5428648D01*
X21870500Y5465646D01*
X21870500Y6109228D01*
X21892174Y6161554D01*
X21944500Y6183228D01*
X21964066Y6179336D01*
X21964130Y6179655D01*
X21971277Y6178234D01*
X21971278Y6178233D01*
X22015180Y6169500D01*
X22015181Y6169500D01*
X22346969Y6169500D01*
X22399295Y6147826D01*
X22420969Y6095500D01*
X22399295Y6043176D01*
X22351882Y5995762D01*
X22309483Y5953363D01*
X22233721Y5822140D01*
X22233717Y5822131D01*
X22194500Y5675769D01*
X22194500Y5524232D01*
X22233717Y5377870D01*
X22233721Y5377861D01*
X22309483Y5246638D01*
X22309485Y5246635D01*
X22416635Y5139485D01*
X22547865Y5063719D01*
X22694231Y5024501D01*
X22694232Y5024500D01*
X22694234Y5024500D01*
X22845768Y5024500D01*
X22845768Y5024501D01*
X22992135Y5063719D01*
X23123365Y5139485D01*
X23230515Y5246635D01*
X23306281Y5377865D01*
X23345499Y5524232D01*
X23345500Y5524232D01*
X23345500Y5675768D01*
X23345499Y5675769D01*
X23319391Y5773205D01*
X23306281Y5822135D01*
X23230515Y5953365D01*
X23123365Y6060515D01*
X23123362Y6060517D01*
X22992139Y6136279D01*
X22992130Y6136283D01*
X22845768Y6175500D01*
X22845766Y6175500D01*
X22844874Y6175500D01*
X22844457Y6175673D01*
X22840959Y6176133D01*
X22841082Y6177071D01*
X22792548Y6197174D01*
X22770874Y6249500D01*
X22772296Y6263937D01*
X22780500Y6305181D01*
X22780500Y7784820D01*
X22771767Y7828722D01*
X22738504Y7878504D01*
X22738503Y7878505D01*
X22688388Y7911991D01*
X22684177Y7918294D01*
X22677174Y7921194D01*
X22668913Y7941138D01*
X22656922Y7959084D01*
X22655500Y7973520D01*
X22655500Y8005512D01*
X22677174Y8057838D01*
X22729500Y8079512D01*
X22739165Y8078878D01*
X22741271Y8078601D01*
X22741273Y8078600D01*
X22741275Y8078600D01*
X22846729Y8078600D01*
X22846729Y8078601D01*
X22948587Y8105893D01*
X23019419Y8146789D01*
X23075571Y8154181D01*
X23120505Y8119702D01*
X23120787Y8119213D01*
X23149525Y8069438D01*
X23219438Y7999525D01*
X23253279Y7979987D01*
X23302484Y7951578D01*
X23305062Y7950090D01*
X23305063Y7950090D01*
X23305065Y7950089D01*
X23334605Y7942174D01*
X23400562Y7924501D01*
X23400563Y7924500D01*
X23400565Y7924500D01*
X23499437Y7924500D01*
X23499437Y7924501D01*
X23594938Y7950090D01*
X23680562Y7999525D01*
X23750475Y8069438D01*
X23799910Y8155062D01*
X23825499Y8250563D01*
X23825500Y8250563D01*
X23825500Y8349437D01*
X23825499Y8349438D01*
X23799911Y8444935D01*
X23799909Y8444940D01*
X23774850Y8488343D01*
X23750475Y8530562D01*
X23680562Y8600475D01*
X23594939Y8649910D01*
X23594934Y8649912D01*
X23499438Y8675500D01*
X23498942Y8675565D01*
X23498723Y8675692D01*
X23494750Y8676756D01*
X23495035Y8677821D01*
X23449893Y8703883D01*
X23435234Y8758591D01*
X23456274Y8801257D01*
X23632845Y8977827D01*
X23685171Y8999501D01*
X24194863Y8999501D01*
X24194864Y8999501D01*
X24219991Y9002415D01*
X24322765Y9047794D01*
X24402206Y9127235D01*
X24447585Y9230009D01*
X24450500Y9255135D01*
X24450499Y9644864D01*
X24447585Y9669991D01*
X24402206Y9772765D01*
X24322765Y9852206D01*
X24311215Y9857306D01*
X24272103Y9898268D01*
X24273411Y9954890D01*
X24311215Y9992695D01*
X24322765Y9997794D01*
X24402206Y10077235D01*
X24447585Y10180009D01*
X24450500Y10205135D01*
X24450499Y10594864D01*
X24447585Y10619991D01*
X24402206Y10722765D01*
X24322765Y10802206D01*
X24311215Y10807306D01*
X24272103Y10848268D01*
X24273411Y10904890D01*
X24311215Y10942695D01*
X24322765Y10947794D01*
X24402206Y11027235D01*
X24447585Y11130009D01*
X24450500Y11155135D01*
X24450499Y11544864D01*
X24447585Y11569991D01*
X24402206Y11672765D01*
X24322765Y11752206D01*
X24219991Y11797585D01*
X24219990Y11797586D01*
X24219988Y11797586D01*
X24198659Y11800060D01*
X24194865Y11800500D01*
X24194864Y11800500D01*
X23080136Y11800500D01*
X23055013Y11797586D01*
X23055007Y11797585D01*
X22952234Y11752206D01*
X22872794Y11672766D01*
X22855947Y11634610D01*
X22814984Y11595497D01*
X22788252Y11590500D01*
X22211748Y11590500D01*
X22159422Y11612174D01*
X22144053Y11634610D01*
X22135413Y11654177D01*
X22127206Y11672765D01*
X22047765Y11752206D01*
X21944991Y11797585D01*
X21944990Y11797586D01*
X21944988Y11797586D01*
X21919865Y11800500D01*
X21282771Y11800500D01*
X21230445Y11822174D01*
X21229386Y11823233D01*
X21210234Y11856405D01*
X21199910Y11894938D01*
X21150475Y11980562D01*
X21080562Y12050475D01*
X21062784Y12060739D01*
X20994939Y12099910D01*
X20994934Y12099912D01*
X20956404Y12110236D01*
X20923231Y12129388D01*
X20548174Y12504445D01*
X20526500Y12556771D01*
X20526500Y14093834D01*
X20548174Y14146160D01*
X20600500Y14167834D01*
X20623308Y14163298D01*
X20623429Y14163748D01*
X20628113Y14162493D01*
X20729970Y14135201D01*
X20729971Y14135200D01*
X20729973Y14135200D01*
X20835429Y14135200D01*
X20835429Y14135201D01*
X20937287Y14162493D01*
X21028613Y14215220D01*
X21103180Y14289787D01*
X21155907Y14381113D01*
X21183199Y14482971D01*
X21183200Y14482971D01*
X21183200Y14588429D01*
X21183199Y14588430D01*
X21182036Y14592769D01*
X21155907Y14690287D01*
X21103180Y14781613D01*
X21044874Y14839919D01*
X21023200Y14892245D01*
X21023200Y23289630D01*
X21044874Y23341956D01*
X21660485Y23957567D01*
X21660486Y23957568D01*
X21697100Y24045962D01*
X21697100Y24141639D01*
X21697100Y27626138D01*
X21689956Y27643387D01*
X21684253Y27657154D01*
X21678725Y27670500D01*
X21660486Y27714533D01*
X21357833Y28017186D01*
X21357830Y28017188D01*
X21269439Y28053800D01*
X21269438Y28053800D01*
X20551138Y28053800D01*
X20455461Y28053800D01*
X20367069Y28017188D01*
X20367065Y28017185D01*
X20042053Y27692174D01*
X19989727Y27670500D01*
X19712377Y27670500D01*
X19688504Y27667731D01*
X19590858Y27624616D01*
X19515385Y27549143D01*
X19472270Y27451499D01*
X19469500Y27427620D01*
X19469500Y27095971D01*
X19447826Y27043645D01*
X19395500Y27021971D01*
X19343174Y27043645D01*
X19182934Y27203885D01*
X19182930Y27203888D01*
X19094539Y27240500D01*
X19094538Y27240500D01*
X18993497Y27240500D01*
X18942150Y27261213D01*
X18936401Y27266753D01*
X18908504Y27308504D01*
X18858722Y27341767D01*
X18858507Y27341810D01*
X18853419Y27346713D01*
X18844535Y27367085D01*
X18832188Y27385562D01*
X18833531Y27392317D01*
X18830779Y27398628D01*
X18838901Y27419315D01*
X18843237Y27441111D01*
X18850189Y27448064D01*
X18851479Y27451347D01*
X18855015Y27452890D01*
X18863655Y27461529D01*
X18908501Y27491494D01*
X18908500Y27491494D01*
X18908504Y27491496D01*
X18941767Y27541278D01*
X18950500Y27585180D01*
X18950500Y28014820D01*
X18941767Y28058722D01*
X18908504Y28108504D01*
X18908503Y28108505D01*
X18908501Y28108507D01*
X18863655Y28138471D01*
X18832188Y28185562D01*
X18843237Y28241111D01*
X18863655Y28261529D01*
X18908501Y28291494D01*
X18908500Y28291494D01*
X18908504Y28291496D01*
X18941767Y28341278D01*
X18950500Y28385180D01*
X18950500Y28814820D01*
X18941767Y28858722D01*
X18908504Y28908504D01*
X18908503Y28908505D01*
X18908501Y28908507D01*
X18863655Y28938471D01*
X18857406Y28947822D01*
X18847495Y28953138D01*
X18842258Y28970492D01*
X18832188Y28985562D01*
X18834382Y28996593D01*
X18831133Y29007360D01*
X18839194Y29020788D01*
X18843237Y29041111D01*
X18857904Y29057271D01*
X18860672Y29059536D01*
X18908504Y29091496D01*
X18919086Y29107334D01*
X18927623Y29114319D01*
X18944976Y29119556D01*
X18960045Y29129625D01*
X18973843Y29128267D01*
X18981845Y29130681D01*
X18989157Y29126759D01*
X19002802Y29125416D01*
X19054262Y29104100D01*
X19453855Y29104100D01*
X19506181Y29082426D01*
X19564487Y29024120D01*
X19655813Y28971393D01*
X19757670Y28944101D01*
X19757671Y28944100D01*
X19757673Y28944100D01*
X19863129Y28944100D01*
X19863129Y28944101D01*
X19964987Y28971393D01*
X20056313Y29024120D01*
X20130880Y29098687D01*
X20183607Y29190013D01*
X20210899Y29291871D01*
X20210900Y29291871D01*
X20210900Y29397329D01*
X20210899Y29397330D01*
X20189050Y29478871D01*
X20183607Y29499187D01*
X20130880Y29590513D01*
X20056313Y29665080D01*
X20027220Y29681877D01*
X19964991Y29717805D01*
X19964982Y29717809D01*
X19863129Y29745100D01*
X19863127Y29745100D01*
X19757673Y29745100D01*
X19757671Y29745100D01*
X19655817Y29717809D01*
X19655808Y29717805D01*
X19564486Y29665080D01*
X19506181Y29606774D01*
X19453855Y29585100D01*
X19232371Y29585100D01*
X19190684Y29602367D01*
X19188994Y29599836D01*
X19182930Y29603888D01*
X19094539Y29640500D01*
X19094538Y29640500D01*
X18993497Y29640500D01*
X18942150Y29661213D01*
X18936401Y29666753D01*
X18908504Y29708504D01*
X18858722Y29741767D01*
X18858507Y29741810D01*
X18853419Y29746713D01*
X18844535Y29767085D01*
X18832188Y29785562D01*
X18833531Y29792317D01*
X18830779Y29798628D01*
X18838901Y29819315D01*
X18843237Y29841111D01*
X18850189Y29848064D01*
X18851479Y29851347D01*
X18855015Y29852890D01*
X18863655Y29861529D01*
X18908501Y29891494D01*
X18908500Y29891494D01*
X18908504Y29891496D01*
X18931968Y29926612D01*
X18979060Y29958078D01*
X18993497Y29959500D01*
X20987838Y29959500D01*
X20987839Y29959500D01*
X21076233Y29996114D01*
X21230468Y30150350D01*
X21282793Y30172023D01*
X21335119Y30150349D01*
X21356793Y30098023D01*
X21355371Y30083588D01*
X21349500Y30054070D01*
X21349500Y30054069D01*
X21349500Y29925931D01*
X21353760Y29904516D01*
X21374497Y29800261D01*
X21374498Y29800258D01*
X21421749Y29686183D01*
X21423535Y29681873D01*
X21439004Y29658722D01*
X21488196Y29585100D01*
X21494724Y29575331D01*
X21585331Y29484724D01*
X21687393Y29416528D01*
X21718859Y29369437D01*
X21707810Y29313888D01*
X21687394Y29293473D01*
X21685001Y29291873D01*
X21585331Y29225277D01*
X21585330Y29225275D01*
X21494725Y29134670D01*
X21494723Y29134669D01*
X21423533Y29028124D01*
X21374498Y28909743D01*
X21374497Y28909740D01*
X21349500Y28784068D01*
X21349500Y28655933D01*
X21374497Y28530261D01*
X21374498Y28530258D01*
X21409869Y28444864D01*
X21423535Y28411873D01*
X21441370Y28385181D01*
X21482129Y28324180D01*
X21494724Y28305331D01*
X21585331Y28214724D01*
X21691873Y28143535D01*
X21810256Y28094499D01*
X21810258Y28094499D01*
X21810260Y28094498D01*
X21852903Y28086016D01*
X21935931Y28069500D01*
X21935933Y28069500D01*
X22064067Y28069500D01*
X22064069Y28069500D01*
X22189744Y28094499D01*
X22308127Y28143535D01*
X22414669Y28214724D01*
X22505276Y28305331D01*
X22576465Y28411873D01*
X22625501Y28530256D01*
X22650500Y28655931D01*
X22650500Y28784069D01*
X22625748Y28908504D01*
X22625502Y28909740D01*
X22625501Y28909743D01*
X22618767Y28926000D01*
X22576465Y29028127D01*
X22505276Y29134669D01*
X22414669Y29225276D01*
X22312604Y29293474D01*
X22281140Y29340563D01*
X22292189Y29396112D01*
X22312602Y29416526D01*
X22414669Y29484724D01*
X22505276Y29575331D01*
X22576465Y29681873D01*
X22625501Y29800256D01*
X22650500Y29925931D01*
X22650500Y30054069D01*
X22625501Y30179744D01*
X22576465Y30298127D01*
X22505276Y30404669D01*
X22414669Y30495276D01*
X22312604Y30563474D01*
X22281140Y30610563D01*
X22292189Y30666112D01*
X22312602Y30686526D01*
X22414669Y30754724D01*
X22505276Y30845331D01*
X22576465Y30951873D01*
X22625501Y31070256D01*
X22650500Y31195931D01*
X22650500Y31324069D01*
X22625501Y31449744D01*
X22576465Y31568127D01*
X22505276Y31674669D01*
X22414669Y31765276D01*
X22312604Y31833474D01*
X22281140Y31880563D01*
X22292189Y31936112D01*
X22312602Y31956526D01*
X22414669Y32024724D01*
X22505276Y32115331D01*
X22576465Y32221873D01*
X22625501Y32340256D01*
X22650500Y32465931D01*
X22650500Y32594069D01*
X22631891Y32687622D01*
X22625502Y32719740D01*
X22625501Y32719743D01*
X22588470Y32809143D01*
X22576465Y32838127D01*
X22505276Y32944669D01*
X22414669Y33035276D01*
X22405936Y33041111D01*
X22375379Y33061529D01*
X22308127Y33106465D01*
X22308124Y33106467D01*
X22308123Y33106467D01*
X22189742Y33155502D01*
X22189739Y33155503D01*
X22099696Y33173414D01*
X22064069Y33180500D01*
X21935931Y33180500D01*
X21904726Y33174293D01*
X21810260Y33155503D01*
X21810257Y33155502D01*
X21691876Y33106467D01*
X21585331Y33035277D01*
X21585330Y33035275D01*
X21494725Y32944670D01*
X21494723Y32944669D01*
X21423533Y32838124D01*
X21374498Y32719743D01*
X21374497Y32719740D01*
X21349500Y32594068D01*
X21349500Y32465933D01*
X21374497Y32340261D01*
X21374498Y32340258D01*
X21394695Y32291497D01*
X21423535Y32221873D01*
X21465620Y32158888D01*
X21487928Y32125501D01*
X21494724Y32115331D01*
X21585331Y32024724D01*
X21687393Y31956528D01*
X21718859Y31909437D01*
X21707810Y31853888D01*
X21687394Y31833473D01*
X21660497Y31815500D01*
X21585331Y31765277D01*
X21585330Y31765275D01*
X21494725Y31674670D01*
X21494723Y31674669D01*
X21423533Y31568124D01*
X21374498Y31449743D01*
X21374497Y31449740D01*
X21349500Y31324068D01*
X21349500Y31195933D01*
X21374497Y31070262D01*
X21374500Y31070252D01*
X21383588Y31048312D01*
X21383588Y30991674D01*
X21367547Y30967668D01*
X20862055Y30462174D01*
X20809729Y30440500D01*
X18993497Y30440500D01*
X18942150Y30461213D01*
X18936401Y30466753D01*
X18908504Y30508504D01*
X18858722Y30541767D01*
X18858507Y30541810D01*
X18853419Y30546713D01*
X18844535Y30567085D01*
X18832188Y30585562D01*
X18833531Y30592317D01*
X18830779Y30598628D01*
X18838901Y30619315D01*
X18843237Y30641111D01*
X18850189Y30648064D01*
X18851479Y30651347D01*
X18855015Y30652890D01*
X18863655Y30661529D01*
X18908501Y30691494D01*
X18908500Y30691494D01*
X18908504Y30691496D01*
X18941767Y30741278D01*
X18950500Y30785180D01*
X18950500Y31214820D01*
X18941767Y31258722D01*
X18908504Y31308504D01*
X18908503Y31308505D01*
X18908501Y31308507D01*
X18863655Y31338471D01*
X18832188Y31385562D01*
X18843237Y31441111D01*
X18863655Y31461529D01*
X18908501Y31491494D01*
X18908500Y31491494D01*
X18908504Y31491496D01*
X18941767Y31541278D01*
X18950500Y31585180D01*
X18950500Y32014820D01*
X18941767Y32058722D01*
X18908504Y32108504D01*
X18908503Y32108505D01*
X18908501Y32108507D01*
X18863655Y32138471D01*
X18832188Y32185562D01*
X18843237Y32241111D01*
X18863655Y32261529D01*
X18908501Y32291494D01*
X18908500Y32291494D01*
X18908504Y32291496D01*
X18941767Y32341278D01*
X18950500Y32385180D01*
X18950500Y32814820D01*
X18941767Y32858722D01*
X18908504Y32908504D01*
X18908503Y32908505D01*
X18908501Y32908507D01*
X18863655Y32938471D01*
X18832188Y32985562D01*
X18843237Y33041111D01*
X18863655Y33061529D01*
X18908501Y33091494D01*
X18908500Y33091494D01*
X18908504Y33091496D01*
X18941767Y33141278D01*
X18950500Y33185180D01*
X18950500Y33614820D01*
X18941767Y33658722D01*
X18908504Y33708504D01*
X18858722Y33741767D01*
X18814820Y33750500D01*
X17985180Y33750500D01*
X17963229Y33746134D01*
X17941277Y33741767D01*
X17891496Y33708505D01*
X17891495Y33708504D01*
X17858233Y33658723D01*
X17849500Y33614820D01*
X17849500Y33185181D01*
X17858233Y33141278D01*
X17891495Y33091497D01*
X17891496Y33091496D01*
X17936345Y33061529D01*
X17967811Y33014437D01*
X17956762Y32958888D01*
X17936345Y32938471D01*
X17891496Y32908505D01*
X17891495Y32908504D01*
X17858233Y32858723D01*
X17849500Y32814820D01*
X17849500Y32385181D01*
X17858233Y32341278D01*
X17891495Y32291497D01*
X17891496Y32291496D01*
X17936345Y32261529D01*
X17967811Y32214437D01*
X17956762Y32158888D01*
X17936345Y32138471D01*
X17891496Y32108505D01*
X17891495Y32108504D01*
X17858233Y32058723D01*
X17849500Y32014820D01*
X17849500Y31585181D01*
X17858233Y31541278D01*
X17891495Y31491497D01*
X17891496Y31491496D01*
X17936345Y31461529D01*
X17967811Y31414437D01*
X17956762Y31358888D01*
X17936345Y31338471D01*
X17891496Y31308505D01*
X17891495Y31308504D01*
X17858233Y31258723D01*
X17849500Y31214820D01*
X17849500Y30785181D01*
X17858233Y30741278D01*
X17891495Y30691497D01*
X17891496Y30691496D01*
X17936345Y30661529D01*
X17967811Y30614437D01*
X17956762Y30558888D01*
X17936345Y30538471D01*
X17891496Y30508505D01*
X17891495Y30508504D01*
X17858233Y30458723D01*
X17849500Y30414820D01*
X17849500Y29985181D01*
X17858233Y29941278D01*
X17891495Y29891497D01*
X17891496Y29891496D01*
X17936345Y29861529D01*
X17967811Y29814437D01*
X17956762Y29758888D01*
X17936345Y29738471D01*
X17891496Y29708505D01*
X17891495Y29708504D01*
X17858233Y29658723D01*
X17858233Y29658722D01*
X17849500Y29614820D01*
X17849500Y29185180D01*
X17854829Y29158392D01*
X17858233Y29141278D01*
X17891495Y29091497D01*
X17891496Y29091496D01*
X17936345Y29061529D01*
X17967811Y29014437D01*
X17956762Y28958888D01*
X17936345Y28938471D01*
X17891496Y28908505D01*
X17891495Y28908504D01*
X17858233Y28858723D01*
X17849500Y28814820D01*
X17849500Y28385181D01*
X17858233Y28341278D01*
X17891495Y28291497D01*
X17891496Y28291496D01*
X17936345Y28261529D01*
X17967811Y28214437D01*
X17956762Y28158888D01*
X17936345Y28138471D01*
X17891496Y28108505D01*
X17891495Y28108504D01*
X17858233Y28058723D01*
X17857519Y28055135D01*
X17849500Y28014820D01*
X17849500Y27585180D01*
X17856669Y27549141D01*
X17858233Y27541278D01*
X17891495Y27491497D01*
X17891496Y27491496D01*
X17936345Y27461529D01*
X17967811Y27414437D01*
X17956762Y27358888D01*
X17936345Y27338471D01*
X17891496Y27308505D01*
X17891495Y27308504D01*
X17858233Y27258723D01*
X17858233Y27258722D01*
X17849500Y27214820D01*
X17849500Y26785180D01*
X17851449Y26775384D01*
X17858233Y26741278D01*
X17891495Y26691497D01*
X17891496Y26691496D01*
X17936345Y26661529D01*
X17967811Y26614437D01*
X17956762Y26558888D01*
X17946580Y26546713D01*
X17941491Y26541810D01*
X17941278Y26541767D01*
X17891496Y26508504D01*
X17863598Y26466753D01*
X17857850Y26461213D01*
X17838354Y26453559D01*
X17820940Y26441922D01*
X17806503Y26440500D01*
X17352162Y26440500D01*
X17263770Y26403888D01*
X17263766Y26403885D01*
X16729054Y25869174D01*
X16676728Y25847500D01*
X16594271Y25847500D01*
X16492417Y25820209D01*
X16492408Y25820205D01*
X16401086Y25767480D01*
X16326520Y25692914D01*
X16273795Y25601592D01*
X16273791Y25601583D01*
X16246500Y25499730D01*
X16246500Y25394271D01*
X16273791Y25292418D01*
X16273795Y25292409D01*
X16326520Y25201087D01*
X16350781Y25176826D01*
X16372455Y25124500D01*
X16350781Y25072174D01*
X16298455Y25050500D01*
X16285180Y25050500D01*
X16274397Y25048355D01*
X16241277Y25041767D01*
X16191496Y25008505D01*
X16191495Y25008504D01*
X16161529Y24963655D01*
X16114437Y24932189D01*
X16058888Y24943238D01*
X16038471Y24963655D01*
X16008504Y25008504D01*
X16008503Y25008505D01*
X15958722Y25041767D01*
X15940730Y25045346D01*
X15893638Y25076813D01*
X15882590Y25132362D01*
X15902840Y25170248D01*
X15970480Y25237887D01*
X16023207Y25329213D01*
X16050499Y25431071D01*
X16050500Y25431071D01*
X16050500Y25536529D01*
X16050499Y25536530D01*
X16046041Y25553166D01*
X16023207Y25638387D01*
X15970480Y25729713D01*
X15895913Y25804280D01*
X15832120Y25841111D01*
X15804591Y25857005D01*
X15804582Y25857009D01*
X15702729Y25884300D01*
X15702727Y25884300D01*
X15597273Y25884300D01*
X15597271Y25884300D01*
X15495417Y25857009D01*
X15495410Y25857006D01*
X15457596Y25835174D01*
X15401443Y25827783D01*
X15356510Y25862262D01*
X15349119Y25880108D01*
X15324608Y25971583D01*
X15324607Y25971587D01*
X15271880Y26062913D01*
X15197313Y26137480D01*
X15166730Y26155137D01*
X15105991Y26190205D01*
X15105982Y26190209D01*
X15004129Y26217500D01*
X15004127Y26217500D01*
X14898673Y26217500D01*
X14898671Y26217500D01*
X14796817Y26190209D01*
X14796808Y26190205D01*
X14705486Y26137480D01*
X14630920Y26062914D01*
X14578195Y25971592D01*
X14578191Y25971583D01*
X14550900Y25869730D01*
X14550900Y25787272D01*
X14529226Y25734946D01*
X14203155Y25408874D01*
X14150829Y25387200D01*
X14052162Y25387200D01*
X13963770Y25350588D01*
X13896112Y25282930D01*
X13859500Y25194539D01*
X13859500Y25093497D01*
X13838787Y25042150D01*
X13833247Y25036402D01*
X13791496Y25008504D01*
X13758233Y24958722D01*
X13758190Y24958509D01*
X13753287Y24953420D01*
X13732915Y24944537D01*
X13714437Y24932189D01*
X13707683Y24933533D01*
X13701372Y24930780D01*
X13680686Y24938903D01*
X13658888Y24943238D01*
X13651934Y24950192D01*
X13648653Y24951480D01*
X13647111Y24955015D01*
X13638471Y24963655D01*
X13608504Y25008504D01*
X13608503Y25008505D01*
X13573388Y25031968D01*
X13541922Y25079060D01*
X13540500Y25093497D01*
X13540500Y25194538D01*
X13522544Y25237887D01*
X13508628Y25271482D01*
X13505518Y25318952D01*
X13508269Y25329218D01*
X13525699Y25394271D01*
X13525700Y25394271D01*
X13525700Y25499729D01*
X13525699Y25499730D01*
X13515839Y25536527D01*
X13498407Y25601587D01*
X13445680Y25692913D01*
X13371113Y25767480D01*
X13336832Y25787272D01*
X13279791Y25820205D01*
X13279782Y25820209D01*
X13177929Y25847500D01*
X13177927Y25847500D01*
X13072473Y25847500D01*
X13072471Y25847500D01*
X12970617Y25820209D01*
X12970608Y25820205D01*
X12879286Y25767480D01*
X12804720Y25692914D01*
X12751995Y25601592D01*
X12751991Y25601583D01*
X12724700Y25499730D01*
X12724700Y25394271D01*
X12751991Y25292418D01*
X12751995Y25292409D01*
X12804720Y25201087D01*
X12846208Y25159599D01*
X12867882Y25107273D01*
X12846208Y25054947D01*
X12793882Y25033273D01*
X12766523Y25041557D01*
X12765456Y25038978D01*
X12758723Y25041767D01*
X12725603Y25048355D01*
X12714820Y25050500D01*
X12285180Y25050500D01*
X12274397Y25048355D01*
X12241277Y25041767D01*
X12191496Y25008505D01*
X12191495Y25008504D01*
X12161529Y24963655D01*
X12114437Y24932189D01*
X12058888Y24943238D01*
X12038471Y24963655D01*
X12008504Y25008504D01*
X12008503Y25008505D01*
X11958722Y25041767D01*
X11956797Y25042150D01*
X11914820Y25050500D01*
X11485180Y25050500D01*
X11474397Y25048355D01*
X11441277Y25041767D01*
X11391496Y25008505D01*
X11391495Y25008504D01*
X11361529Y24963655D01*
X11314437Y24932189D01*
X11258888Y24943238D01*
X11238471Y24963655D01*
X11208504Y25008504D01*
X11208503Y25008505D01*
X11158722Y25041767D01*
X11156797Y25042150D01*
X11114820Y25050500D01*
X10685180Y25050500D01*
X10674397Y25048355D01*
X10641277Y25041767D01*
X10591496Y25008505D01*
X10591495Y25008504D01*
X10561529Y24963655D01*
X10514437Y24932189D01*
X10458888Y24943238D01*
X10438471Y24963655D01*
X10408504Y25008504D01*
X10408503Y25008505D01*
X10358722Y25041767D01*
X10356797Y25042150D01*
X10314820Y25050500D01*
X9885180Y25050500D01*
X9874397Y25048355D01*
X9841277Y25041767D01*
X9791496Y25008505D01*
X9791495Y25008504D01*
X9758233Y24958723D01*
X9753526Y24935061D01*
X9749500Y24914820D01*
X9749500Y24085180D01*
X9758233Y24041278D01*
X9791496Y23991496D01*
X9841278Y23958233D01*
X9885180Y23949500D01*
X9885181Y23949500D01*
X10314819Y23949500D01*
X10314820Y23949500D01*
X10358722Y23958233D01*
X10408504Y23991496D01*
X10438471Y24036345D01*
X10485562Y24067812D01*
X10541111Y24056763D01*
X10553287Y24046581D01*
X10558190Y24041493D01*
X10558233Y24041278D01*
X10591496Y23991496D01*
X10633250Y23963597D01*
X10638787Y23957851D01*
X10646441Y23938357D01*
X10658078Y23920942D01*
X10659500Y23906504D01*
X10659500Y23840345D01*
X10637826Y23788019D01*
X10561920Y23712114D01*
X10509195Y23620792D01*
X10509191Y23620783D01*
X10481900Y23518930D01*
X10481900Y23413471D01*
X10509191Y23311618D01*
X10509195Y23311609D01*
X10535181Y23266600D01*
X10561920Y23220287D01*
X10636487Y23145720D01*
X10727813Y23092993D01*
X10829670Y23065701D01*
X10829671Y23065700D01*
X10829673Y23065700D01*
X10935129Y23065700D01*
X10935129Y23065701D01*
X11036987Y23092993D01*
X11128313Y23145720D01*
X11202880Y23220287D01*
X11255607Y23311613D01*
X11282899Y23413471D01*
X11282900Y23413471D01*
X11282900Y23518929D01*
X11282899Y23518930D01*
X11271315Y23562161D01*
X11255607Y23620787D01*
X11202880Y23712113D01*
X11162174Y23752819D01*
X11140500Y23805145D01*
X11140500Y23906504D01*
X11162174Y23958830D01*
X11173389Y23968033D01*
X11208501Y23991494D01*
X11208500Y23991494D01*
X11208504Y23991496D01*
X11238471Y24036345D01*
X11285562Y24067812D01*
X11341111Y24056763D01*
X11361529Y24036345D01*
X11391493Y23991499D01*
X11391495Y23991497D01*
X11391496Y23991496D01*
X11441278Y23958233D01*
X11485180Y23949500D01*
X11512114Y23949500D01*
X11564440Y23927826D01*
X11586114Y23875500D01*
X11576200Y23838500D01*
X11566495Y23821691D01*
X11566491Y23821683D01*
X11539200Y23719830D01*
X11539200Y23614371D01*
X11566491Y23512518D01*
X11566495Y23512509D01*
X11611740Y23434143D01*
X11619220Y23421187D01*
X11693787Y23346620D01*
X11785113Y23293893D01*
X11886970Y23266601D01*
X11886971Y23266600D01*
X11886973Y23266600D01*
X11992429Y23266600D01*
X11992429Y23266601D01*
X12094287Y23293893D01*
X12185613Y23346620D01*
X12260180Y23421187D01*
X12312907Y23512513D01*
X12315213Y23521120D01*
X12325083Y23557953D01*
X12359561Y23602886D01*
X12396561Y23612800D01*
X12547837Y23612800D01*
X12547838Y23612800D01*
X12558180Y23617085D01*
X12614817Y23617086D01*
X12654866Y23577038D01*
X12656626Y23525088D01*
X12654271Y23518100D01*
X12641793Y23496487D01*
X12621623Y23421215D01*
X12620878Y23419002D01*
X12617238Y23414834D01*
X12603078Y23390306D01*
X12304945Y23092174D01*
X12252620Y23070500D01*
X12112377Y23070500D01*
X12088504Y23067731D01*
X11990858Y23024616D01*
X11915385Y22949143D01*
X11872270Y22851499D01*
X11869500Y22827620D01*
X11869500Y22620435D01*
X11866979Y22601283D01*
X11846500Y22524853D01*
X11846500Y21142353D01*
X11846500Y21056647D01*
X11868682Y20973861D01*
X11868683Y20973859D01*
X11868684Y20973857D01*
X11911532Y20899642D01*
X11911533Y20899641D01*
X11911535Y20899638D01*
X12299033Y20512141D01*
X12299035Y20512138D01*
X12359638Y20451535D01*
X12383589Y20437707D01*
X12433861Y20408682D01*
X12433863Y20408682D01*
X12433864Y20408681D01*
X12459757Y20401743D01*
X12516644Y20386500D01*
X12516645Y20386499D01*
X12516647Y20386499D01*
X12606883Y20386499D01*
X12606899Y20386500D01*
X12717021Y20386500D01*
X12769347Y20364826D01*
X12791021Y20312500D01*
X12769347Y20260174D01*
X12264671Y19755499D01*
X12212345Y19733825D01*
X12160019Y19755499D01*
X12145855Y19776701D01*
X12145832Y19776687D01*
X12145626Y19777043D01*
X12143973Y19779518D01*
X12143409Y19780877D01*
X12143407Y19780887D01*
X12090680Y19872213D01*
X12016113Y19946780D01*
X12014549Y19947683D01*
X11924791Y19999505D01*
X11924782Y19999509D01*
X11822929Y20026800D01*
X11822927Y20026800D01*
X11740471Y20026800D01*
X11688145Y20048474D01*
X11488909Y20247710D01*
X11470202Y20286400D01*
X11469192Y20286125D01*
X11467730Y20291496D01*
X11467730Y20291498D01*
X11424616Y20389141D01*
X11349141Y20464616D01*
X11251498Y20507730D01*
X11227623Y20510500D01*
X11227619Y20510500D01*
X10772377Y20510500D01*
X10748504Y20507731D01*
X10650858Y20464616D01*
X10575385Y20389143D01*
X10575384Y20389142D01*
X10575384Y20389141D01*
X10571180Y20379619D01*
X10533403Y20294063D01*
X10532270Y20291498D01*
X10530590Y20277013D01*
X10529500Y20267620D01*
X10529500Y20174871D01*
X10507826Y20122545D01*
X10455500Y20100871D01*
X10403174Y20122545D01*
X10208974Y20316745D01*
X10187300Y20369071D01*
X10187300Y20467336D01*
X10187299Y20467340D01*
X10185812Y20470932D01*
X10185812Y20470933D01*
X10157049Y20540372D01*
X10150686Y20555733D01*
X9852533Y20853886D01*
X9852531Y20853887D01*
X9774380Y20886259D01*
X9761588Y20893096D01*
X9748948Y20901541D01*
X9736769Y20909679D01*
X9682369Y20920500D01*
X9682367Y20920500D01*
X9117634Y20920500D01*
X9109733Y20918928D01*
X9104997Y20917987D01*
X9049450Y20929038D01*
X9017986Y20976132D01*
X9016637Y20993834D01*
X9016885Y20999462D01*
X9020500Y21017631D01*
X9020499Y21081170D01*
X9020571Y21082791D01*
X9031913Y21107080D01*
X9042171Y21131846D01*
X9274677Y21364352D01*
X9290004Y21376110D01*
X9292924Y21377796D01*
X9329907Y21387700D01*
X9836454Y21387700D01*
X9873453Y21377787D01*
X9938913Y21339993D01*
X10040770Y21312701D01*
X10040771Y21312700D01*
X10040773Y21312700D01*
X10146229Y21312700D01*
X10146229Y21312701D01*
X10248087Y21339993D01*
X10339413Y21392720D01*
X10413980Y21467287D01*
X10466707Y21558613D01*
X10493999Y21660471D01*
X10494000Y21660471D01*
X10494000Y21765929D01*
X10493999Y21765930D01*
X10483437Y21805347D01*
X10466707Y21867787D01*
X10413980Y21959113D01*
X10339413Y22033680D01*
X10311302Y22049910D01*
X10248088Y22086407D01*
X10245812Y22087349D01*
X10244932Y22088229D01*
X10243887Y22088832D01*
X10244048Y22089113D01*
X10205761Y22127395D01*
X10205757Y22184032D01*
X10221801Y22208044D01*
X10264614Y22250857D01*
X10264616Y22250859D01*
X10307730Y22348502D01*
X10310500Y22372377D01*
X10310499Y22827622D01*
X10307730Y22851498D01*
X10264616Y22949141D01*
X10189141Y23024616D01*
X10091498Y23067730D01*
X10067623Y23070500D01*
X10067619Y23070500D01*
X9712377Y23070500D01*
X9688504Y23067731D01*
X9590858Y23024616D01*
X9515384Y22949142D01*
X9486891Y22884610D01*
X9445928Y22845497D01*
X9419196Y22840500D01*
X9180805Y22840500D01*
X9128479Y22862174D01*
X9113111Y22884609D01*
X9084616Y22949141D01*
X9019183Y23014574D01*
X8997509Y23066900D01*
X9019183Y23119226D01*
X9071509Y23140900D01*
X9145129Y23140900D01*
X9145129Y23140901D01*
X9246987Y23168193D01*
X9338313Y23220920D01*
X9412880Y23295487D01*
X9465607Y23386813D01*
X9492900Y23488673D01*
X9492900Y23594127D01*
X9492900Y23594129D01*
X9492899Y23594130D01*
X9487896Y23612800D01*
X9465607Y23695987D01*
X9412880Y23787313D01*
X9338313Y23861880D01*
X9316695Y23874361D01*
X9246991Y23914605D01*
X9246982Y23914609D01*
X9145129Y23941900D01*
X9145127Y23941900D01*
X9062671Y23941900D01*
X9010345Y23963574D01*
X8982420Y23991499D01*
X8916733Y24057186D01*
X8916731Y24057187D01*
X8916726Y24057190D01*
X8896180Y24065701D01*
X8856132Y24105750D01*
X8850500Y24134067D01*
X8850500Y24914820D01*
X8847045Y24932189D01*
X8841767Y24958722D01*
X8808504Y25008504D01*
X8773387Y25031968D01*
X8758722Y25041767D01*
X8756797Y25042150D01*
X8714820Y25050500D01*
X8285180Y25050500D01*
X8274397Y25048355D01*
X8241277Y25041767D01*
X8191496Y25008505D01*
X8191495Y25008504D01*
X8161529Y24963655D01*
X8114437Y24932189D01*
X8058888Y24943238D01*
X8038471Y24963655D01*
X8008504Y25008504D01*
X8008503Y25008505D01*
X7958722Y25041767D01*
X7956797Y25042150D01*
X7914820Y25050500D01*
X7485180Y25050500D01*
X7474397Y25048355D01*
X7441277Y25041767D01*
X7391496Y25008505D01*
X7391495Y25008504D01*
X7358233Y24958723D01*
X7349500Y24914820D01*
X7349500Y24167800D01*
X7327826Y24115474D01*
X7275500Y24093800D01*
X6925461Y24093800D01*
X6837069Y24057188D01*
X6837065Y24057185D01*
X5862053Y23082174D01*
X5809727Y23060500D01*
X5536627Y23060500D01*
X5506807Y23057041D01*
X5506541Y23059334D01*
X5458431Y23065491D01*
X5423791Y23110300D01*
X5421200Y23129710D01*
X5421200Y26897130D01*
X5442874Y26949456D01*
X5985879Y27492461D01*
X6038205Y27514135D01*
X6080794Y27500651D01*
X6089448Y27494561D01*
X6091496Y27491496D01*
X6137085Y27461035D01*
X6137822Y27460516D01*
X6152534Y27437301D01*
X6167811Y27414437D01*
X6167622Y27413491D01*
X6168139Y27412676D01*
X6162125Y27385854D01*
X6156762Y27358888D01*
X6155883Y27358010D01*
X6155749Y27357411D01*
X6154482Y27356609D01*
X6136345Y27338471D01*
X6091496Y27308505D01*
X6091495Y27308504D01*
X6058233Y27258723D01*
X6058233Y27258722D01*
X6049500Y27214820D01*
X6049500Y26785180D01*
X6051449Y26775384D01*
X6058233Y26741278D01*
X6091495Y26691497D01*
X6091496Y26691496D01*
X6136345Y26661529D01*
X6167811Y26614437D01*
X6156762Y26558888D01*
X6136345Y26538471D01*
X6091496Y26508505D01*
X6091495Y26508504D01*
X6058233Y26458723D01*
X6049500Y26414820D01*
X6049500Y25985181D01*
X6058233Y25941278D01*
X6084199Y25902416D01*
X6091496Y25891496D01*
X6141278Y25858233D01*
X6185180Y25849500D01*
X6185181Y25849500D01*
X7014819Y25849500D01*
X7014820Y25849500D01*
X7058722Y25858233D01*
X7108504Y25891496D01*
X7141767Y25941278D01*
X7150500Y25985180D01*
X7150500Y26414820D01*
X7141767Y26458722D01*
X7108504Y26508504D01*
X7108503Y26508505D01*
X7108501Y26508507D01*
X7063655Y26538471D01*
X7032188Y26585562D01*
X7043237Y26641111D01*
X7063655Y26661529D01*
X7108501Y26691494D01*
X7108500Y26691494D01*
X7108504Y26691496D01*
X7141767Y26741278D01*
X7150500Y26785180D01*
X7150500Y27214820D01*
X7141767Y27258722D01*
X7108504Y27308504D01*
X7108503Y27308505D01*
X7108501Y27308507D01*
X7063655Y27338471D01*
X7055955Y27349993D01*
X7044250Y27357411D01*
X7040842Y27372611D01*
X7032188Y27385562D01*
X7034891Y27399155D01*
X7031860Y27412676D01*
X7040099Y27425336D01*
X7043237Y27441111D01*
X7062177Y27460516D01*
X7062894Y27461021D01*
X7108504Y27491496D01*
X7110552Y27494562D01*
X7119205Y27500651D01*
X7141077Y27505555D01*
X7161788Y27514135D01*
X7167956Y27511581D01*
X7174470Y27513041D01*
X7193403Y27501043D01*
X7214116Y27492465D01*
X7280790Y27425791D01*
X7299942Y27392619D01*
X7315592Y27334216D01*
X7315593Y27334212D01*
X7368320Y27242887D01*
X7446317Y27164890D01*
X7445334Y27163908D01*
X7471025Y27119406D01*
X7456365Y27064700D01*
X7446296Y27054631D01*
X7446317Y27054610D01*
X7368320Y26976614D01*
X7315595Y26885292D01*
X7315591Y26885283D01*
X7297559Y26817985D01*
X7297558Y26817981D01*
X7288300Y26783427D01*
X7288300Y26723015D01*
X7288300Y26677971D01*
X7315591Y26576118D01*
X7315595Y26576109D01*
X7339265Y26535111D01*
X7368320Y26484787D01*
X7442887Y26410220D01*
X7534213Y26357493D01*
X7636070Y26330201D01*
X7636071Y26330200D01*
X7636073Y26330200D01*
X7741529Y26330200D01*
X7741529Y26330201D01*
X7843387Y26357493D01*
X7934713Y26410220D01*
X7962388Y26437896D01*
X7977706Y26449650D01*
X8013362Y26470235D01*
X8546565Y27003438D01*
X8572200Y27047839D01*
X8589418Y27077662D01*
X8611599Y27160445D01*
X8611600Y27160445D01*
X8611600Y30888455D01*
X8611599Y30888456D01*
X8598809Y30936188D01*
X8589418Y30971238D01*
X8546565Y31045462D01*
X8485962Y31106065D01*
X7531562Y32060465D01*
X7531559Y32060467D01*
X7531558Y32060468D01*
X7457343Y32103316D01*
X7457341Y32103317D01*
X7457340Y32103318D01*
X7457339Y32103318D01*
X7374553Y32125500D01*
X7374551Y32125500D01*
X7105516Y32125500D01*
X7064404Y32137971D01*
X7058723Y32141767D01*
X7036771Y32146134D01*
X7014820Y32150500D01*
X6185180Y32150500D01*
X6170546Y32147589D01*
X6141276Y32141767D01*
X6135596Y32137971D01*
X6094484Y32125500D01*
X5915699Y32125500D01*
X5915683Y32125501D01*
X5911153Y32125501D01*
X5825448Y32125501D01*
X5825446Y32125501D01*
X5742665Y32103320D01*
X5742660Y32103318D01*
X5668437Y32060465D01*
X5607833Y31999860D01*
X5355357Y31747385D01*
X5303031Y31725711D01*
X5273143Y31732016D01*
X5237662Y31747682D01*
X5237663Y31747682D01*
X5232804Y31748246D01*
X5213373Y31750500D01*
X5213369Y31750500D01*
X4786627Y31750500D01*
X4762340Y31747683D01*
X4662983Y31703813D01*
X4586187Y31627017D01*
X4542318Y31527663D01*
X4539500Y31503370D01*
X4539500Y31350480D01*
X4517826Y31298154D01*
X3824347Y30604674D01*
X3772021Y30583000D01*
X3757979Y30583000D01*
X3705653Y30604674D01*
X3683887Y30626440D01*
X3662213Y30678766D01*
X3663124Y30690342D01*
X3675500Y30768481D01*
X3675499Y31331518D01*
X3672457Y31350723D01*
X3660646Y31425305D01*
X3660645Y31425307D01*
X3620868Y31503373D01*
X3603050Y31538342D01*
X3513342Y31628050D01*
X3400304Y31685646D01*
X3400302Y31685647D01*
X3400301Y31685647D01*
X3306520Y31700500D01*
X3306519Y31700500D01*
X2640479Y31700500D01*
X2588154Y31722173D01*
X2578311Y31732016D01*
X2559862Y31750465D01*
X2559859Y31750467D01*
X2559858Y31750468D01*
X2485643Y31793316D01*
X2485641Y31793317D01*
X2485640Y31793318D01*
X2485639Y31793318D01*
X2402853Y31815500D01*
X2402851Y31815500D01*
X1628909Y31815500D01*
X1576583Y31837174D01*
X1549142Y31864615D01*
X1549141Y31864616D01*
X1451498Y31907730D01*
X1427623Y31910500D01*
X1427619Y31910500D01*
X972377Y31910500D01*
X948504Y31907731D01*
X850858Y31864616D01*
X775385Y31789143D01*
X736245Y31700500D01*
X732270Y31691498D01*
X730318Y31674669D01*
X729500Y31667620D01*
X729500Y31312378D01*
X732269Y31288505D01*
X732269Y31288503D01*
X732270Y31288502D01*
X775384Y31190859D01*
X850859Y31115384D01*
X948502Y31072270D01*
X972377Y31069500D01*
X1427622Y31069501D01*
X1451498Y31072270D01*
X1549141Y31115384D01*
X1576583Y31142826D01*
X1628909Y31164500D01*
X1850500Y31164500D01*
X1902826Y31142826D01*
X1924500Y31090500D01*
X1924500Y30768481D01*
X1939353Y30674696D01*
X1939354Y30674694D01*
X1994185Y30567085D01*
X1996950Y30561658D01*
X2086658Y30471950D01*
X2199696Y30414354D01*
X2293481Y30399500D01*
X2959520Y30399501D01*
X3011846Y30377827D01*
X3392638Y29997035D01*
X3392640Y29997034D01*
X3392641Y29997033D01*
X3413171Y29985180D01*
X3466861Y29954182D01*
X3549647Y29932000D01*
X3549649Y29932000D01*
X3554333Y29930745D01*
X3553790Y29928720D01*
X3596704Y29903949D01*
X3612000Y29858895D01*
X3612000Y28774500D01*
X3590326Y28722174D01*
X3538000Y28700500D01*
X3380135Y28700500D01*
X3355013Y28697586D01*
X3355007Y28697585D01*
X3252234Y28652206D01*
X3172794Y28572766D01*
X3127414Y28469989D01*
X3124500Y28444865D01*
X3124500Y28055137D01*
X3127414Y28030014D01*
X3127415Y28030008D01*
X3138949Y28003886D01*
X3172794Y27927235D01*
X3252235Y27847794D01*
X3355009Y27802415D01*
X3380135Y27799500D01*
X4494864Y27799501D01*
X4519991Y27802415D01*
X4622765Y27847794D01*
X4702206Y27927235D01*
X4747585Y28030009D01*
X4750500Y28055135D01*
X4750499Y28444864D01*
X4747585Y28469991D01*
X4702206Y28572765D01*
X4622765Y28652206D01*
X4519991Y28697585D01*
X4519990Y28697586D01*
X4519988Y28697586D01*
X4494865Y28700500D01*
X4337000Y28700500D01*
X4284674Y28722174D01*
X4263000Y28774500D01*
X4263000Y30092022D01*
X4284673Y30144347D01*
X5008153Y30867828D01*
X5060479Y30889501D01*
X5213372Y30889501D01*
X5237662Y30892318D01*
X5337016Y30936187D01*
X5373655Y30972826D01*
X5425981Y30994500D01*
X5431151Y30994500D01*
X5431153Y30994500D01*
X5513939Y31016682D01*
X5588162Y31059535D01*
X5981452Y31452827D01*
X6033778Y31474500D01*
X6094484Y31474500D01*
X6135608Y31462021D01*
X6136356Y31461521D01*
X6167813Y31414423D01*
X6156753Y31358876D01*
X6136344Y31338471D01*
X6091496Y31308505D01*
X6091495Y31308504D01*
X6058233Y31258723D01*
X6049500Y31214820D01*
X6049500Y30785181D01*
X6058233Y30741278D01*
X6091495Y30691497D01*
X6091496Y30691496D01*
X6136345Y30661529D01*
X6167811Y30614437D01*
X6156762Y30558888D01*
X6146580Y30546713D01*
X6141491Y30541810D01*
X6141278Y30541767D01*
X6091496Y30508504D01*
X6063598Y30466753D01*
X6057850Y30461213D01*
X6038354Y30453559D01*
X6020940Y30441922D01*
X6006503Y30440500D01*
X5883961Y30440500D01*
X5795569Y30403888D01*
X5795565Y30403885D01*
X5345454Y29953774D01*
X5293128Y29932100D01*
X5210671Y29932100D01*
X5108817Y29904809D01*
X5108808Y29904805D01*
X5017486Y29852080D01*
X4942920Y29777514D01*
X4890195Y29686192D01*
X4890191Y29686183D01*
X4862900Y29584330D01*
X4862900Y29478871D01*
X4890191Y29377018D01*
X4890195Y29377009D01*
X4939350Y29291871D01*
X4942920Y29285687D01*
X5017487Y29211120D01*
X5108813Y29158393D01*
X5210670Y29131101D01*
X5210671Y29131100D01*
X5210673Y29131100D01*
X5316129Y29131100D01*
X5316129Y29131101D01*
X5417987Y29158393D01*
X5509313Y29211120D01*
X5583880Y29285687D01*
X5636607Y29377013D01*
X5663899Y29478871D01*
X5663900Y29478871D01*
X5663900Y29561330D01*
X5685574Y29613656D01*
X5839003Y29767085D01*
X5976435Y29904517D01*
X6028760Y29926190D01*
X6074458Y29910394D01*
X6083736Y29903110D01*
X6091496Y29891496D01*
X6138700Y29859956D01*
X6140931Y29858204D01*
X6153533Y29835805D01*
X6167811Y29814437D01*
X6167221Y29811476D01*
X6168703Y29808843D01*
X6161775Y29784093D01*
X6156762Y29758888D01*
X6153927Y29756054D01*
X6153437Y29754302D01*
X6150553Y29752680D01*
X6136345Y29738471D01*
X6091496Y29708505D01*
X6091495Y29708504D01*
X6058233Y29658723D01*
X6058233Y29658722D01*
X6049500Y29614820D01*
X6049500Y29185180D01*
X6054829Y29158392D01*
X6058233Y29141278D01*
X6091495Y29091497D01*
X6091496Y29091496D01*
X6136345Y29061529D01*
X6167811Y29014437D01*
X6156762Y28958888D01*
X6136345Y28938471D01*
X6091496Y28908505D01*
X6091495Y28908504D01*
X6058233Y28858723D01*
X6049500Y28814820D01*
X6049500Y28385181D01*
X6058233Y28341278D01*
X6091495Y28291497D01*
X6091496Y28291496D01*
X6136345Y28261529D01*
X6167811Y28214437D01*
X6156762Y28158888D01*
X6146580Y28146713D01*
X6141491Y28141810D01*
X6141278Y28141767D01*
X6091496Y28108504D01*
X6063598Y28066753D01*
X6057850Y28061213D01*
X6038354Y28053559D01*
X6020940Y28041922D01*
X6006503Y28040500D01*
X5905462Y28040500D01*
X5817070Y28003888D01*
X5817067Y28003885D01*
X4976814Y27163634D01*
X4976812Y27163631D01*
X4954495Y27109750D01*
X4941204Y27077661D01*
X4940200Y27075238D01*
X4940200Y27075237D01*
X4940200Y21365348D01*
X4918526Y21313022D01*
X4866200Y21291348D01*
X4829200Y21301262D01*
X4744940Y21349909D01*
X4744934Y21349912D01*
X4649437Y21375500D01*
X4649435Y21375500D01*
X4644768Y21375500D01*
X4592442Y21397174D01*
X3288674Y22700942D01*
X3267000Y22753268D01*
X3267000Y23259676D01*
X3267001Y23259689D01*
X3267001Y23351355D01*
X3267000Y23351356D01*
X3265184Y23358132D01*
X3248128Y23421787D01*
X3244819Y23434136D01*
X3244816Y23434143D01*
X3233012Y23454587D01*
X3213332Y23488673D01*
X3201965Y23508362D01*
X3141362Y23568965D01*
X3141359Y23568967D01*
X2922173Y23788153D01*
X2900499Y23840479D01*
X2900499Y24506520D01*
X2885646Y24600305D01*
X2885645Y24600307D01*
X2835714Y24698300D01*
X2828050Y24713342D01*
X2738342Y24803050D01*
X2625304Y24860646D01*
X2625302Y24860647D01*
X2625301Y24860647D01*
X2531520Y24875500D01*
X2531519Y24875500D01*
X2062000Y24875500D01*
X2009674Y24897174D01*
X1988000Y24949500D01*
X1988000Y25825501D01*
X2009674Y25877827D01*
X2062000Y25899501D01*
X2219863Y25899501D01*
X2219864Y25899501D01*
X2244991Y25902415D01*
X2347765Y25947794D01*
X2427206Y26027235D01*
X2472585Y26130009D01*
X2475500Y26155135D01*
X2475499Y26205823D01*
X2497171Y26258147D01*
X2783890Y26544865D01*
X3124500Y26544865D01*
X3124500Y26155137D01*
X3127414Y26130014D01*
X3127415Y26130009D01*
X3172794Y26027235D01*
X3252235Y25947794D01*
X3355009Y25902415D01*
X3380135Y25899500D01*
X4494864Y25899501D01*
X4519991Y25902415D01*
X4622765Y25947794D01*
X4702206Y26027235D01*
X4747585Y26130009D01*
X4750500Y26155135D01*
X4750499Y26544864D01*
X4747585Y26569991D01*
X4702206Y26672765D01*
X4622765Y26752206D01*
X4519991Y26797585D01*
X4519990Y26797586D01*
X4519988Y26797586D01*
X4498659Y26800060D01*
X4494865Y26800500D01*
X4494864Y26800500D01*
X3380136Y26800500D01*
X3355013Y26797586D01*
X3355007Y26797585D01*
X3252234Y26752206D01*
X3172794Y26672766D01*
X3127414Y26569989D01*
X3124500Y26544865D01*
X2783890Y26544865D01*
X2894259Y26655234D01*
X2894262Y26655235D01*
X2954865Y26715838D01*
X2997718Y26790062D01*
X3003110Y26810186D01*
X3019901Y26872847D01*
X3019901Y26958553D01*
X3019901Y26963082D01*
X3019900Y26963100D01*
X3019900Y27565476D01*
X3019901Y27565489D01*
X3019901Y27657154D01*
X3019900Y27657155D01*
X3017066Y27667730D01*
X2997718Y27739938D01*
X2990661Y27752161D01*
X2954865Y27814162D01*
X2894262Y27874765D01*
X2891683Y27877344D01*
X2891672Y27877354D01*
X2497173Y28271854D01*
X2475499Y28324180D01*
X2475499Y28444864D01*
X2472585Y28469987D01*
X2472585Y28469989D01*
X2472585Y28469991D01*
X2427206Y28572765D01*
X2347765Y28652206D01*
X2244991Y28697585D01*
X2244990Y28697586D01*
X2244988Y28697586D01*
X2223659Y28700060D01*
X2219865Y28700500D01*
X2219864Y28700500D01*
X1105136Y28700500D01*
X1080013Y28697586D01*
X1080007Y28697585D01*
X977234Y28652206D01*
X897794Y28572766D01*
X852414Y28469989D01*
X849500Y28444865D01*
X849500Y28055137D01*
X852414Y28030014D01*
X852415Y28030008D01*
X863949Y28003886D01*
X897794Y27927235D01*
X977235Y27847794D01*
X1080009Y27802415D01*
X1105135Y27799500D01*
X2018220Y27799501D01*
X2070546Y27777827D01*
X2347226Y27501148D01*
X2368900Y27448822D01*
X2368900Y27081179D01*
X2347226Y27028853D01*
X2140546Y26822174D01*
X2088220Y26800500D01*
X1105136Y26800500D01*
X1080013Y26797586D01*
X1080007Y26797585D01*
X977234Y26752206D01*
X897794Y26672766D01*
X852414Y26569989D01*
X849500Y26544865D01*
X849500Y26155137D01*
X852414Y26130014D01*
X852415Y26130009D01*
X897794Y26027235D01*
X977235Y25947794D01*
X1080009Y25902415D01*
X1105135Y25899500D01*
X1263000Y25899501D01*
X1315326Y25877827D01*
X1337000Y25825501D01*
X1337000Y25428145D01*
X1315326Y25375819D01*
X1263000Y25354145D01*
X1210674Y25375819D01*
X1167213Y25419280D01*
X1075891Y25472005D01*
X1075882Y25472009D01*
X974029Y25499300D01*
X974027Y25499300D01*
X868573Y25499300D01*
X868571Y25499300D01*
X766717Y25472009D01*
X766708Y25472005D01*
X675386Y25419280D01*
X600820Y25344714D01*
X548095Y25253392D01*
X548091Y25253383D01*
X520800Y25151530D01*
X250500Y25151530D01*
X250500Y28926000D01*
X272174Y28978326D01*
X324500Y29000000D01*
X1100000Y29000000D01*
X1100000Y30800000D01*
X324500Y30800000D01*
X272174Y30821674D01*
X250500Y30874000D01*
X250500Y32687620D01*
X729500Y32687620D01*
X729500Y32332378D01*
X732269Y32308505D01*
X732269Y32308503D01*
X732270Y32308502D01*
X775384Y32210859D01*
X850859Y32135384D01*
X948502Y32092270D01*
X972377Y32089500D01*
X1427622Y32089501D01*
X1451498Y32092270D01*
X1549141Y32135384D01*
X1624616Y32210859D01*
X1667730Y32308502D01*
X1670500Y32332377D01*
X1670499Y32687622D01*
X1667730Y32711498D01*
X1624616Y32809141D01*
X1549141Y32884616D01*
X1549140Y32884617D01*
X1500909Y32905914D01*
X1461797Y32946877D01*
X1456800Y32973608D01*
X1456800Y33377255D01*
X1478474Y33429581D01*
X1536780Y33487887D01*
X1589507Y33579213D01*
X1616799Y33681071D01*
X1616800Y33681071D01*
X1616800Y33786529D01*
X1616799Y33786530D01*
X1589508Y33888383D01*
X1589507Y33888387D01*
X1536780Y33979713D01*
X1462213Y34054280D01*
X1370891Y34107005D01*
X1370882Y34107009D01*
X1269029Y34134300D01*
X1269027Y34134300D01*
X1163573Y34134300D01*
X1163571Y34134300D01*
X1061717Y34107009D01*
X1061708Y34107005D01*
X970386Y34054280D01*
X895820Y33979714D01*
X843095Y33888392D01*
X843091Y33888383D01*
X815800Y33786530D01*
X815800Y33681071D01*
X843091Y33579218D01*
X843095Y33579209D01*
X895820Y33487887D01*
X954126Y33429581D01*
X975800Y33377255D01*
X975800Y32988002D01*
X954126Y32935676D01*
X931691Y32920308D01*
X850859Y32884616D01*
X850857Y32884615D01*
X775385Y32809143D01*
X732270Y32711499D01*
X729500Y32687620D01*
X250500Y32687620D01*
X250500Y34675500D01*
X272174Y34727826D01*
X324500Y34749500D01*
X24675500Y34749500D01*
X24727826Y34727826D01*
G37*
%TD.AperFunction*%
%TD*%
M02*
