%TF.GenerationSoftware,KiCad,Pcbnew,9.0.8+dfsg-1*%
%TF.CreationDate,2026-09-08T08:42:20+05:30*%
%TF.ProjectId,smove-r2-main,736d6f76-652d-4723-922d-6d61696e2e6b,rev?*%
%TF.SameCoordinates,Original*%
%TF.FileFunction,Legend,Bot*%
%TF.FilePolarity,Positive*%
%FSLAX46Y46*%
G04 Gerber Fmt 4.6, Leading zero omitted, Abs format (unit mm)*
G04 Created by KiCad (PCBNEW 9.0.8+dfsg-1) date 2026-09-08 08:42:20*
%MOMM*%
%LPD*%
G01*
G04 APERTURE LIST*
%ADD10C,0.120000*%
G04 APERTURE END LIST*
D10*
X16938095Y17318217D02*
X16861904Y17280122D01*
X16861904Y17280122D02*
X16709523Y17280122D01*
X16709523Y17280122D02*
X16633333Y17318217D01*
X16633333Y17318217D02*
X16595237Y17394408D01*
X16595237Y17394408D02*
X16595237Y17432503D01*
X16595237Y17432503D02*
X16633333Y17508694D01*
X16633333Y17508694D02*
X16709523Y17546789D01*
X16709523Y17546789D02*
X16823809Y17546789D01*
X16823809Y17546789D02*
X16899999Y17584884D01*
X16899999Y17584884D02*
X16938095Y17661075D01*
X16938095Y17661075D02*
X16938095Y17699170D01*
X16938095Y17699170D02*
X16899999Y17775360D01*
X16899999Y17775360D02*
X16823809Y17813456D01*
X16823809Y17813456D02*
X16709523Y17813456D01*
X16709523Y17813456D02*
X16633333Y17775360D01*
X16252380Y17280122D02*
X16252380Y18080122D01*
X16252380Y18080122D02*
X15985714Y17508694D01*
X15985714Y17508694D02*
X15719047Y18080122D01*
X15719047Y18080122D02*
X15719047Y17280122D01*
X15223809Y17280122D02*
X15299999Y17318217D01*
X15299999Y17318217D02*
X15338094Y17356313D01*
X15338094Y17356313D02*
X15376190Y17432503D01*
X15376190Y17432503D02*
X15376190Y17661075D01*
X15376190Y17661075D02*
X15338094Y17737265D01*
X15338094Y17737265D02*
X15299999Y17775360D01*
X15299999Y17775360D02*
X15223809Y17813456D01*
X15223809Y17813456D02*
X15109523Y17813456D01*
X15109523Y17813456D02*
X15033332Y17775360D01*
X15033332Y17775360D02*
X14995237Y17737265D01*
X14995237Y17737265D02*
X14957142Y17661075D01*
X14957142Y17661075D02*
X14957142Y17432503D01*
X14957142Y17432503D02*
X14995237Y17356313D01*
X14995237Y17356313D02*
X15033332Y17318217D01*
X15033332Y17318217D02*
X15109523Y17280122D01*
X15109523Y17280122D02*
X15223809Y17280122D01*
X14690475Y17813456D02*
X14499999Y17280122D01*
X14499999Y17280122D02*
X14309522Y17813456D01*
X13699998Y17318217D02*
X13776189Y17280122D01*
X13776189Y17280122D02*
X13928570Y17280122D01*
X13928570Y17280122D02*
X14004760Y17318217D01*
X14004760Y17318217D02*
X14042856Y17394408D01*
X14042856Y17394408D02*
X14042856Y17699170D01*
X14042856Y17699170D02*
X14004760Y17775360D01*
X14004760Y17775360D02*
X13928570Y17813456D01*
X13928570Y17813456D02*
X13776189Y17813456D01*
X13776189Y17813456D02*
X13699998Y17775360D01*
X13699998Y17775360D02*
X13661903Y17699170D01*
X13661903Y17699170D02*
X13661903Y17622979D01*
X13661903Y17622979D02*
X14042856Y17546789D01*
X12252379Y17280122D02*
X12519046Y17661075D01*
X12709522Y17280122D02*
X12709522Y18080122D01*
X12709522Y18080122D02*
X12404760Y18080122D01*
X12404760Y18080122D02*
X12328570Y18042027D01*
X12328570Y18042027D02*
X12290475Y18003932D01*
X12290475Y18003932D02*
X12252379Y17927741D01*
X12252379Y17927741D02*
X12252379Y17813456D01*
X12252379Y17813456D02*
X12290475Y17737265D01*
X12290475Y17737265D02*
X12328570Y17699170D01*
X12328570Y17699170D02*
X12404760Y17661075D01*
X12404760Y17661075D02*
X12709522Y17661075D01*
X11947618Y18003932D02*
X11909522Y18042027D01*
X11909522Y18042027D02*
X11833332Y18080122D01*
X11833332Y18080122D02*
X11642856Y18080122D01*
X11642856Y18080122D02*
X11566665Y18042027D01*
X11566665Y18042027D02*
X11528570Y18003932D01*
X11528570Y18003932D02*
X11490475Y17927741D01*
X11490475Y17927741D02*
X11490475Y17851551D01*
X11490475Y17851551D02*
X11528570Y17737265D01*
X11528570Y17737265D02*
X11985713Y17280122D01*
X11985713Y17280122D02*
X11490475Y17280122D01*
X10538093Y17280122D02*
X10538093Y18080122D01*
X10538093Y18080122D02*
X10271427Y17508694D01*
X10271427Y17508694D02*
X10004760Y18080122D01*
X10004760Y18080122D02*
X10004760Y17280122D01*
X9661903Y17508694D02*
X9280950Y17508694D01*
X9738093Y17280122D02*
X9471426Y18080122D01*
X9471426Y18080122D02*
X9204760Y17280122D01*
X8938093Y17280122D02*
X8938093Y18080122D01*
X8557141Y17280122D02*
X8557141Y18080122D01*
X8557141Y18080122D02*
X8099998Y17280122D01*
X8099998Y17280122D02*
X8099998Y18080122D01*
X15661904Y15992167D02*
X15661904Y16792167D01*
X15661904Y16792167D02*
X15357142Y16792167D01*
X15357142Y16792167D02*
X15280952Y16754072D01*
X15280952Y16754072D02*
X15242857Y16715977D01*
X15242857Y16715977D02*
X15204761Y16639786D01*
X15204761Y16639786D02*
X15204761Y16525501D01*
X15204761Y16525501D02*
X15242857Y16449310D01*
X15242857Y16449310D02*
X15280952Y16411215D01*
X15280952Y16411215D02*
X15357142Y16373120D01*
X15357142Y16373120D02*
X15661904Y16373120D01*
X14404761Y15992167D02*
X14671428Y16373120D01*
X14861904Y15992167D02*
X14861904Y16792167D01*
X14861904Y16792167D02*
X14557142Y16792167D01*
X14557142Y16792167D02*
X14480952Y16754072D01*
X14480952Y16754072D02*
X14442857Y16715977D01*
X14442857Y16715977D02*
X14404761Y16639786D01*
X14404761Y16639786D02*
X14404761Y16525501D01*
X14404761Y16525501D02*
X14442857Y16449310D01*
X14442857Y16449310D02*
X14480952Y16411215D01*
X14480952Y16411215D02*
X14557142Y16373120D01*
X14557142Y16373120D02*
X14861904Y16373120D01*
X13909523Y16792167D02*
X13757142Y16792167D01*
X13757142Y16792167D02*
X13680952Y16754072D01*
X13680952Y16754072D02*
X13604761Y16677882D01*
X13604761Y16677882D02*
X13566666Y16525501D01*
X13566666Y16525501D02*
X13566666Y16258834D01*
X13566666Y16258834D02*
X13604761Y16106453D01*
X13604761Y16106453D02*
X13680952Y16030262D01*
X13680952Y16030262D02*
X13757142Y15992167D01*
X13757142Y15992167D02*
X13909523Y15992167D01*
X13909523Y15992167D02*
X13985714Y16030262D01*
X13985714Y16030262D02*
X14061904Y16106453D01*
X14061904Y16106453D02*
X14100000Y16258834D01*
X14100000Y16258834D02*
X14100000Y16525501D01*
X14100000Y16525501D02*
X14061904Y16677882D01*
X14061904Y16677882D02*
X13985714Y16754072D01*
X13985714Y16754072D02*
X13909523Y16792167D01*
X13338095Y16792167D02*
X12880952Y16792167D01*
X13109524Y15992167D02*
X13109524Y16792167D01*
X12461904Y16792167D02*
X12309523Y16792167D01*
X12309523Y16792167D02*
X12233333Y16754072D01*
X12233333Y16754072D02*
X12157142Y16677882D01*
X12157142Y16677882D02*
X12119047Y16525501D01*
X12119047Y16525501D02*
X12119047Y16258834D01*
X12119047Y16258834D02*
X12157142Y16106453D01*
X12157142Y16106453D02*
X12233333Y16030262D01*
X12233333Y16030262D02*
X12309523Y15992167D01*
X12309523Y15992167D02*
X12461904Y15992167D01*
X12461904Y15992167D02*
X12538095Y16030262D01*
X12538095Y16030262D02*
X12614285Y16106453D01*
X12614285Y16106453D02*
X12652381Y16258834D01*
X12652381Y16258834D02*
X12652381Y16525501D01*
X12652381Y16525501D02*
X12614285Y16677882D01*
X12614285Y16677882D02*
X12538095Y16754072D01*
X12538095Y16754072D02*
X12461904Y16792167D01*
X11890476Y16792167D02*
X11433333Y16792167D01*
X11661905Y15992167D02*
X11661905Y16792167D01*
X11014285Y16373120D02*
X11014285Y15992167D01*
X11280952Y16792167D02*
X11014285Y16373120D01*
X11014285Y16373120D02*
X10747619Y16792167D01*
X10480952Y15992167D02*
X10480952Y16792167D01*
X10480952Y16792167D02*
X10176190Y16792167D01*
X10176190Y16792167D02*
X10100000Y16754072D01*
X10100000Y16754072D02*
X10061905Y16715977D01*
X10061905Y16715977D02*
X10023809Y16639786D01*
X10023809Y16639786D02*
X10023809Y16525501D01*
X10023809Y16525501D02*
X10061905Y16449310D01*
X10061905Y16449310D02*
X10100000Y16411215D01*
X10100000Y16411215D02*
X10176190Y16373120D01*
X10176190Y16373120D02*
X10480952Y16373120D01*
X9680952Y16411215D02*
X9414286Y16411215D01*
X9300000Y15992167D02*
X9680952Y15992167D01*
X9680952Y15992167D02*
X9680952Y16792167D01*
X9680952Y16792167D02*
X9300000Y16792167D01*
M02*
