%TF.GenerationSoftware,KiCad,Pcbnew,9.0.8+dfsg-1*%
%TF.CreationDate,2026-09-08T22:48:26+05:30*%
%TF.ProjectId,smove-r2-main,736d6f76-652d-4723-922d-6d61696e2e6b,rev?*%
%TF.SameCoordinates,Original*%
%TF.FileFunction,Copper,L3,Inr*%
%TF.FilePolarity,Positive*%
%FSLAX46Y46*%
G04 Gerber Fmt 4.6, Leading zero omitted, Abs format (unit mm)*
G04 Created by KiCad (PCBNEW 9.0.8+dfsg-1) date 2026-09-08 22:48:26*
%MOMM*%
%LPD*%
G01*
G04 APERTURE LIST*
%TA.AperFunction,HeatsinkPad*%
%ADD10O,2.100000X1.000000*%
%TD*%
%TA.AperFunction,HeatsinkPad*%
%ADD11O,1.600000X1.000000*%
%TD*%
%TA.AperFunction,ViaPad*%
%ADD12C,0.600000*%
%TD*%
%TA.AperFunction,ViaPad*%
%ADD13C,0.450000*%
%TD*%
%TA.AperFunction,Conductor*%
%ADD14C,0.200000*%
%TD*%
G04 APERTURE END LIST*
D10*
%TO.N,GND*%
%TO.C,J1*%
X17970000Y13880000D03*
D11*
X22150000Y13880000D03*
D10*
X17970000Y22520000D03*
D11*
X22150000Y22520000D03*
%TD*%
D12*
%TO.N,/3V3_MAIN*%
X4708300Y19375800D03*
X7940500Y19223400D03*
X23235100Y16900000D03*
%TO.N,/BAT_ADC*%
X9435900Y23223900D03*
X5016600Y21919200D03*
%TO.N,/USB/CC1*%
X8355300Y12388800D03*
X18263200Y16908600D03*
X14466700Y10554100D03*
%TO.N,/USB/CC2*%
X18805000Y11162800D03*
X18262100Y19571800D03*
X10594600Y13098400D03*
%TO.N,/Compute/LED_B*%
X15368600Y10898100D03*
X16963500Y9303200D03*
X12716000Y23621200D03*
%TO.N,/Compute/LED_G*%
X19362600Y23621300D03*
X17503900Y5172800D03*
%TO.N,/Compute/LED_R*%
X15579600Y25377100D03*
X17993600Y7403700D03*
%TO.N,/Compute/MCU_EN*%
X3345500Y14855500D03*
X5529200Y21210200D03*
X15463100Y10014900D03*
X9159400Y27800000D03*
%TO.N,/Power/PACK_P*%
X8379700Y23020600D03*
X1746800Y4045700D03*
X6880900Y6082200D03*
%TO.N,/Compute/STRAP2*%
X23000000Y30466200D03*
X9175000Y30375000D03*
%TO.N,/Compute/STRAP8*%
X17344200Y26143300D03*
X9248900Y21438700D03*
%TO.N,/Power/SYS*%
X1477200Y2584100D03*
X2983900Y24360800D03*
X4637400Y23578000D03*
X4925500Y8041700D03*
%TO.N,/USB_DM*%
X19540700Y16910400D03*
X18403500Y18458300D03*
%TO.N,/Compute/USB_DP_MCU*%
X20968400Y27539700D03*
X23599800Y27359800D03*
%TO.N,/USB_POWER_N*%
X10536400Y23629400D03*
X14032200Y12863600D03*
X4092800Y6401500D03*
%TO.N,/VBUS*%
X2735400Y4239600D03*
X15840500Y20301200D03*
X15731400Y16690500D03*
X4699200Y9318800D03*
D13*
%TO.N,GND*%
X13500000Y7000000D03*
X2750000Y16750000D03*
X21250000Y23250000D03*
X15750000Y21750000D03*
D12*
%TO.N,/IMU/1V8_IMU*%
X11130300Y19835600D03*
X5556800Y15941800D03*
X10926600Y15911200D03*
X6086000Y20460700D03*
X15062500Y17539100D03*
%TO.N,/IMU/SCL_1V8*%
X15075400Y18607000D03*
X4781300Y15971000D03*
X5923100Y11012700D03*
%TO.N,/IMU/SDA_1V8*%
X14108100Y19478200D03*
X3960800Y15988600D03*
%TO.N,/SCL_HOST*%
X5265500Y12850800D03*
X14200000Y23304300D03*
X9624000Y20731200D03*
%TO.N,/SDA_HOST*%
X15377200Y23615500D03*
X14598600Y15294700D03*
X4500000Y13458800D03*
%TO.N,Net-(U1-GPIO9_{slash}_BOOT)*%
X4100000Y100000D03*
X16600500Y8527600D03*
X21750000Y27510500D03*
X18200000Y25375000D03*
%TD*%
D14*
%TO.N,/USB/CC2*%
X19362600Y11720400D02*
X19362600Y16301300D01*
X19362600Y16301300D02*
X18984000Y16679900D01*
X18984000Y18849900D02*
X18262100Y19571800D01*
X18805000Y11162800D02*
X19362600Y11720400D01*
X18984000Y16679900D02*
X18984000Y18849900D01*
%TO.N,/Compute/LED_B*%
X15368600Y10898100D02*
X15368600Y12981500D01*
X12716000Y15634100D02*
X12716000Y23621200D01*
X15368600Y12981500D02*
X12716000Y15634100D01*
%TO.N,/Compute/LED_G*%
X19362600Y23621300D02*
X20097400Y22886500D01*
X20097400Y22886500D02*
X20097400Y7766300D01*
X20097400Y7766300D02*
X17503900Y5172800D01*
%TO.N,/Compute/LED_R*%
X16397200Y21651000D02*
X16296800Y21751400D01*
X16296800Y24659900D02*
X15579600Y25377100D01*
X16295400Y19968800D02*
X16397200Y20070600D01*
X16872900Y7403700D02*
X16042000Y8234600D01*
X16296800Y21751400D02*
X16296800Y24659900D01*
X16042000Y8234600D02*
X16042000Y10231000D01*
X16397200Y20070600D02*
X16397200Y21651000D01*
X16042000Y10231000D02*
X16295400Y10484400D01*
X16295400Y10484400D02*
X16295400Y19968800D01*
X17993600Y7403700D02*
X16872900Y7403700D01*
%TO.N,/Compute/MCU_EN*%
X9159400Y24840400D02*
X5529200Y21210200D01*
X3345500Y19026500D02*
X5529200Y21210200D01*
X15463100Y10156600D02*
X15463100Y10014900D01*
X9159400Y27800000D02*
X9324500Y27800000D01*
X13551400Y15554400D02*
X15932600Y13173200D01*
X9159400Y27800000D02*
X9159400Y24840400D01*
X13551400Y23573100D02*
X13551400Y15554400D01*
X15932600Y13173200D02*
X15932600Y10626100D01*
X15932600Y10626100D02*
X15463100Y10156600D01*
X3345500Y14855500D02*
X3345500Y19026500D01*
X9324500Y27800000D02*
X13551400Y23573100D01*
%TO.N,/Power/PACK_P*%
X9855500Y21635900D02*
X9855500Y21511400D01*
X10034700Y19986300D02*
X10034700Y16365000D01*
X8379700Y23020600D02*
X8470800Y23020600D01*
X4715800Y8622600D02*
X3510200Y7417000D01*
X10034700Y16365000D02*
X7158800Y13489100D01*
X7158800Y13489100D02*
X7158800Y10939800D01*
X3510200Y5828600D02*
X6627300Y5828600D01*
X8470800Y23020600D02*
X9855500Y21635900D01*
X7158800Y10939800D02*
X4841600Y8622600D01*
X10199400Y21167500D02*
X10199400Y20151000D01*
X4841600Y8622600D02*
X4715800Y8622600D01*
X10199400Y20151000D02*
X10034700Y19986300D01*
X1746800Y4045700D02*
X3510200Y5809100D01*
X6627300Y5828600D02*
X6880900Y6082200D01*
X3510200Y7417000D02*
X3510200Y5828600D01*
X3510200Y5809100D02*
X3510200Y5828600D01*
X9855500Y21511400D02*
X10199400Y21167500D01*
%TO.N,/Power/SYS*%
X4637400Y23578000D02*
X3766700Y23578000D01*
X3766700Y23578000D02*
X2983900Y24360800D01*
X1183500Y2877800D02*
X1183500Y22560400D01*
X1477200Y2584100D02*
X1183500Y2877800D01*
X1183500Y22560400D02*
X2983900Y24360800D01*
%TO.N,/Compute/USB_DP_MCU*%
X23599800Y27359800D02*
X22859600Y28100000D01*
X22859600Y28100000D02*
X21528700Y28100000D01*
X21528700Y28100000D02*
X20968400Y27539700D01*
%TO.N,/USB_POWER_N*%
X10391400Y16217300D02*
X10315800Y16141700D01*
X10556100Y21319200D02*
X10556100Y20003300D01*
X12421100Y12863600D02*
X12099200Y12541700D01*
X10315800Y14947500D02*
X10262000Y14893700D01*
X12099200Y12541700D02*
X10364100Y12541700D01*
X10364100Y12541700D02*
X10298600Y12607300D01*
X10391400Y19838600D02*
X10391400Y16217300D01*
X10315800Y16141700D02*
X10315800Y14947500D01*
X4092800Y6401500D02*
X10298600Y12607300D01*
X10262000Y14893700D02*
X10262000Y13553000D01*
X10538000Y21337300D02*
X10556100Y21319200D01*
X14032200Y12863600D02*
X12421100Y12863600D01*
X10556100Y20003300D02*
X10391400Y19838600D01*
X10538000Y23627800D02*
X10538000Y21337300D01*
X10037900Y12867900D02*
X10298600Y12607300D01*
X10536400Y23629400D02*
X10538000Y23627800D01*
X10262000Y13553000D02*
X10037900Y13328900D01*
X10037900Y13328900D02*
X10037900Y12867900D01*
%TO.N,/IMU/1V8_IMU*%
X6086000Y16471000D02*
X6086000Y20460700D01*
X11130300Y16114900D02*
X11130300Y19835600D01*
X5556800Y15941800D02*
X6086000Y16471000D01*
X10926600Y15911200D02*
X11130300Y16114900D01*
%TO.N,/IMU/SCL_1V8*%
X5923100Y11012700D02*
X3941700Y12994100D01*
X3941700Y15131400D02*
X4781300Y15971000D01*
X3941700Y12994100D02*
X3941700Y15131400D01*
%TO.N,/SCL_HOST*%
X9624000Y17209300D02*
X9624000Y20731200D01*
X5265500Y12850800D02*
X9624000Y17209300D01*
%TO.N,/SDA_HOST*%
X14664800Y22903100D02*
X15377200Y23615500D01*
X14664800Y19247600D02*
X14664800Y22903100D01*
X14598600Y15294700D02*
X14493700Y15399600D01*
X14493700Y19076500D02*
X14664800Y19247600D01*
X14493700Y15399600D02*
X14493700Y19076500D01*
%TO.N,Net-(U1-GPIO9_{slash}_BOOT)*%
X16661300Y23836300D02*
X18200000Y25375000D01*
X16406800Y9533700D02*
X16661000Y9787900D01*
X16406800Y8721300D02*
X16406800Y9533700D01*
X16661000Y19830000D02*
X16753900Y19922900D01*
X18200000Y25375000D02*
X19614500Y25375000D01*
X16600500Y8527600D02*
X16406800Y8721300D01*
X16661000Y9787900D02*
X16661000Y19830000D01*
X16753900Y19922900D02*
X16753900Y22005100D01*
X16661300Y22097700D02*
X16661300Y23836300D01*
X16753900Y22005100D02*
X16661300Y22097700D01*
X19614500Y25375000D02*
X21750000Y27510500D01*
%TD*%
%TA.AperFunction,Conductor*%
%TO.N,GND*%
G36*
X24727826Y34727826D02*
G01*
X24749500Y34675500D01*
X24749500Y23824500D01*
X24727826Y23772174D01*
X24675500Y23750500D01*
X24400172Y23750500D01*
X24308105Y23712366D01*
X24237634Y23641895D01*
X24199500Y23549830D01*
X24199500Y12850171D01*
X24237634Y12758106D01*
X24237635Y12758104D01*
X24237636Y12758103D01*
X24308103Y12687636D01*
X24400172Y12649500D01*
X24675500Y12649500D01*
X24727826Y12627826D01*
X24749500Y12575500D01*
X24749500Y890892D01*
X24727826Y838566D01*
X24675500Y816892D01*
X24623174Y838566D01*
X24605427Y867105D01*
X24587383Y920260D01*
X24387787Y1324999D01*
X24387787Y1325000D01*
X24387784Y1325005D01*
X24387781Y1325010D01*
X24137070Y1700225D01*
X24137069Y1700227D01*
X23839518Y2039519D01*
X23500226Y2337070D01*
X23390760Y2410213D01*
X23125009Y2587783D01*
X23124998Y2587789D01*
X22720260Y2787384D01*
X22292928Y2932444D01*
X22292916Y2932448D01*
X21850322Y3020484D01*
X21850319Y3020485D01*
X21850315Y3020485D01*
X21400000Y3050000D01*
X21399999Y3050000D01*
X21345461Y3046426D01*
X20949684Y3020485D01*
X20949680Y3020485D01*
X20949676Y3020484D01*
X20507082Y2932448D01*
X20507069Y2932444D01*
X20079740Y2787385D01*
X19675001Y2587789D01*
X19674990Y2587783D01*
X19299775Y2337072D01*
X18960481Y2039519D01*
X18662928Y1700225D01*
X18412217Y1325010D01*
X18412211Y1324999D01*
X18212615Y920260D01*
X18067556Y492931D01*
X18067552Y492918D01*
X17979516Y50324D01*
X17979515Y50320D01*
X17979515Y50316D01*
X17950000Y-400000D01*
X17979515Y-850315D01*
X17979515Y-850319D01*
X17979516Y-850322D01*
X18067552Y-1292916D01*
X18067556Y-1292928D01*
X18212616Y-1720260D01*
X18412211Y-2124998D01*
X18412217Y-2125009D01*
X18661811Y-2498551D01*
X18662930Y-2500226D01*
X18960481Y-2839518D01*
X19299773Y-3137069D01*
X19423733Y-3219896D01*
X19674990Y-3387781D01*
X19674995Y-3387784D01*
X19675000Y-3387787D01*
X20079742Y-3587384D01*
X20132895Y-3605427D01*
X20175477Y-3642771D01*
X20179181Y-3699287D01*
X20141837Y-3741869D01*
X20109108Y-3749500D01*
X17624500Y-3749500D01*
X17572174Y-3727826D01*
X17550500Y-3675500D01*
X17550500Y2049828D01*
X17550499Y2049830D01*
X17512365Y2141895D01*
X17512363Y2141898D01*
X17441898Y2212363D01*
X17441894Y2212366D01*
X17349828Y2250500D01*
X7749828Y2250500D01*
X7650172Y2250500D01*
X7558105Y2212366D01*
X7487634Y2141895D01*
X7449500Y2049830D01*
X7449500Y-3675500D01*
X7427826Y-3727826D01*
X7375500Y-3749500D01*
X324500Y-3749500D01*
X272174Y-3727826D01*
X250500Y-3675500D01*
X250500Y159312D01*
X3649500Y159312D01*
X3649500Y40689D01*
X3680199Y-73882D01*
X3680201Y-73887D01*
X3739508Y-176609D01*
X3739509Y-176610D01*
X3739511Y-176613D01*
X3823387Y-260489D01*
X3926114Y-319799D01*
X3926115Y-319799D01*
X3926117Y-319800D01*
X3983402Y-335149D01*
X4040688Y-350499D01*
X4040689Y-350500D01*
X4040691Y-350500D01*
X4159311Y-350500D01*
X4159311Y-350499D01*
X4273886Y-319799D01*
X4376613Y-260489D01*
X4460489Y-176613D01*
X4519799Y-73886D01*
X4550499Y40689D01*
X4550500Y40689D01*
X4550500Y159311D01*
X4550499Y159312D01*
X4519800Y273883D01*
X4519798Y273888D01*
X4460491Y376610D01*
X4460490Y376611D01*
X4460489Y376613D01*
X4376613Y460489D01*
X4376610Y460491D01*
X4376609Y460492D01*
X4273887Y519799D01*
X4273882Y519801D01*
X4159311Y550500D01*
X4159309Y550500D01*
X4040691Y550500D01*
X4040689Y550500D01*
X3926117Y519801D01*
X3926112Y519799D01*
X3823390Y460492D01*
X3739508Y376610D01*
X3680201Y273888D01*
X3680199Y273883D01*
X3649500Y159312D01*
X250500Y159312D01*
X250500Y22610230D01*
X933000Y22610230D01*
X933000Y2827971D01*
X971134Y2735906D01*
X971137Y2735902D01*
X1005192Y2701847D01*
X1026866Y2649521D01*
X1026700Y2646987D01*
X1026700Y2524789D01*
X1057399Y2410218D01*
X1057401Y2410213D01*
X1116708Y2307491D01*
X1116709Y2307490D01*
X1116711Y2307487D01*
X1200587Y2223611D01*
X1200589Y2223610D01*
X1200590Y2223609D01*
X1220067Y2212364D01*
X1303314Y2164301D01*
X1303315Y2164301D01*
X1303317Y2164300D01*
X1360602Y2148951D01*
X1417888Y2133601D01*
X1417889Y2133600D01*
X1417891Y2133600D01*
X1536511Y2133600D01*
X1536511Y2133601D01*
X1651086Y2164301D01*
X1753813Y2223611D01*
X1837689Y2307487D01*
X1896999Y2410214D01*
X1927699Y2524789D01*
X1927700Y2524789D01*
X1927700Y2643411D01*
X1927699Y2643412D01*
X1897000Y2757983D01*
X1896998Y2757988D01*
X1837691Y2860710D01*
X1837690Y2860711D01*
X1837689Y2860713D01*
X1753813Y2944589D01*
X1753810Y2944591D01*
X1753809Y2944592D01*
X1651087Y3003899D01*
X1651082Y3003901D01*
X1536511Y3034600D01*
X1536509Y3034600D01*
X1508000Y3034600D01*
X1455674Y3056274D01*
X1434000Y3108600D01*
X1434000Y3577932D01*
X1455674Y3630258D01*
X1508000Y3651932D01*
X1545001Y3642017D01*
X1572910Y3625903D01*
X1572912Y3625903D01*
X1572914Y3625901D01*
X1572915Y3625901D01*
X1572917Y3625900D01*
X1630202Y3610551D01*
X1687488Y3595201D01*
X1687489Y3595200D01*
X1687491Y3595200D01*
X1806111Y3595200D01*
X1806111Y3595201D01*
X1920686Y3625901D01*
X2023413Y3685211D01*
X2107289Y3769087D01*
X2166599Y3871814D01*
X2197299Y3986389D01*
X2197300Y3986389D01*
X2197300Y3994446D01*
X2218974Y4046772D01*
X2271300Y4068446D01*
X2323626Y4046772D01*
X2335386Y4031446D01*
X2374908Y3962991D01*
X2374909Y3962990D01*
X2374911Y3962987D01*
X2458787Y3879111D01*
X2458789Y3879110D01*
X2458790Y3879109D01*
X2471427Y3871813D01*
X2561514Y3819801D01*
X2561515Y3819801D01*
X2561517Y3819800D01*
X2618802Y3804451D01*
X2676088Y3789101D01*
X2676089Y3789100D01*
X2676091Y3789100D01*
X2794711Y3789100D01*
X2794711Y3789101D01*
X2909286Y3819801D01*
X3012013Y3879111D01*
X3095889Y3962987D01*
X3155199Y4065714D01*
X3185899Y4180289D01*
X3185900Y4180289D01*
X3185900Y4298911D01*
X3185899Y4298912D01*
X3155200Y4413483D01*
X3155198Y4413488D01*
X3095891Y4516210D01*
X3095890Y4516211D01*
X3095889Y4516213D01*
X3012013Y4600089D01*
X3012010Y4600091D01*
X3012009Y4600092D01*
X2909287Y4659399D01*
X2909283Y4659400D01*
X2879671Y4667335D01*
X2834739Y4701814D01*
X2827347Y4757967D01*
X2846497Y4791137D01*
X3287473Y5232112D01*
X17053400Y5232112D01*
X17053400Y5113489D01*
X17084099Y4998918D01*
X17084101Y4998913D01*
X17143408Y4896191D01*
X17143409Y4896190D01*
X17143411Y4896187D01*
X17227287Y4812311D01*
X17227289Y4812310D01*
X17227290Y4812309D01*
X17330012Y4753002D01*
X17330014Y4753001D01*
X17330015Y4753001D01*
X17330017Y4753000D01*
X17387302Y4737651D01*
X17444588Y4722301D01*
X17444589Y4722300D01*
X17444591Y4722300D01*
X17563211Y4722300D01*
X17563211Y4722301D01*
X17677786Y4753001D01*
X17780513Y4812311D01*
X17864389Y4896187D01*
X17923699Y4998914D01*
X17954399Y5113489D01*
X17954400Y5113489D01*
X17954400Y5236960D01*
X17957130Y5236960D01*
X17969495Y5283231D01*
X17975900Y5290541D01*
X20228888Y7543530D01*
X20228891Y7543531D01*
X20239296Y7553936D01*
X20239297Y7553936D01*
X20309764Y7624403D01*
X20347900Y7716472D01*
X20347900Y16959312D01*
X22784600Y16959312D01*
X22784600Y16840689D01*
X22815299Y16726118D01*
X22815301Y16726113D01*
X22874608Y16623391D01*
X22874609Y16623390D01*
X22874611Y16623387D01*
X22958487Y16539511D01*
X22958489Y16539510D01*
X22958490Y16539509D01*
X23046318Y16488801D01*
X23061214Y16480201D01*
X23061215Y16480201D01*
X23061217Y16480200D01*
X23103908Y16468761D01*
X23175788Y16449501D01*
X23175789Y16449500D01*
X23175791Y16449500D01*
X23294411Y16449500D01*
X23294411Y16449501D01*
X23408986Y16480201D01*
X23511713Y16539511D01*
X23595589Y16623387D01*
X23654899Y16726114D01*
X23685599Y16840689D01*
X23685600Y16840689D01*
X23685600Y16959311D01*
X23685599Y16959312D01*
X23683295Y16967909D01*
X23661034Y17050989D01*
X23654900Y17073883D01*
X23654898Y17073888D01*
X23595591Y17176610D01*
X23595590Y17176611D01*
X23595589Y17176613D01*
X23511713Y17260489D01*
X23511710Y17260491D01*
X23511709Y17260492D01*
X23408987Y17319799D01*
X23408982Y17319801D01*
X23294411Y17350500D01*
X23294409Y17350500D01*
X23175791Y17350500D01*
X23175789Y17350500D01*
X23061217Y17319801D01*
X23061212Y17319799D01*
X22958490Y17260492D01*
X22874608Y17176610D01*
X22815301Y17073888D01*
X22815299Y17073883D01*
X22784600Y16959312D01*
X20347900Y16959312D01*
X20347900Y22936328D01*
X20309764Y23028397D01*
X20239297Y23098864D01*
X19834608Y23503553D01*
X19812934Y23555879D01*
X19813100Y23558412D01*
X19813100Y23680611D01*
X19813099Y23680612D01*
X19810929Y23688709D01*
X19794001Y23751888D01*
X19782400Y23795183D01*
X19782398Y23795188D01*
X19723091Y23897910D01*
X19723090Y23897911D01*
X19723089Y23897913D01*
X19639213Y23981789D01*
X19639210Y23981791D01*
X19639209Y23981792D01*
X19536487Y24041099D01*
X19536482Y24041101D01*
X19421911Y24071800D01*
X19421909Y24071800D01*
X19303291Y24071800D01*
X19303289Y24071800D01*
X19188717Y24041101D01*
X19188712Y24041099D01*
X19085990Y23981792D01*
X19002108Y23897910D01*
X18942801Y23795188D01*
X18942799Y23795183D01*
X18912100Y23680612D01*
X18912100Y23561989D01*
X18942799Y23447418D01*
X18942801Y23447413D01*
X19002108Y23344691D01*
X19002109Y23344690D01*
X19002111Y23344687D01*
X19085987Y23260811D01*
X19085989Y23260810D01*
X19085990Y23260809D01*
X19184072Y23204181D01*
X19188714Y23201501D01*
X19188715Y23201501D01*
X19188717Y23201500D01*
X19214894Y23194486D01*
X19303288Y23170801D01*
X19303289Y23170800D01*
X19426760Y23170800D01*
X19426760Y23168083D01*
X19473070Y23155674D01*
X19480347Y23149292D01*
X19825226Y22804413D01*
X19846900Y22752087D01*
X19846900Y17381980D01*
X19825226Y17329654D01*
X19772900Y17307980D01*
X19735901Y17317894D01*
X19714591Y17330197D01*
X19714582Y17330201D01*
X19600011Y17360900D01*
X19600009Y17360900D01*
X19481391Y17360900D01*
X19481389Y17360900D01*
X19366817Y17330201D01*
X19366808Y17330197D01*
X19345499Y17317894D01*
X19289346Y17310502D01*
X19244414Y17344981D01*
X19234500Y17381980D01*
X19234500Y18791452D01*
X19234501Y18791461D01*
X19234501Y18899728D01*
X19221765Y18930474D01*
X19202291Y18977487D01*
X19196364Y18991797D01*
X19125897Y19062264D01*
X19125895Y19062265D01*
X18734107Y19454053D01*
X18712433Y19506379D01*
X18712600Y19508911D01*
X18712600Y19631111D01*
X18712599Y19631112D01*
X18706891Y19652413D01*
X18687110Y19726239D01*
X18681900Y19745683D01*
X18681898Y19745688D01*
X18622591Y19848410D01*
X18622590Y19848411D01*
X18622589Y19848413D01*
X18538713Y19932289D01*
X18538710Y19932291D01*
X18538709Y19932292D01*
X18435987Y19991599D01*
X18435982Y19991601D01*
X18321411Y20022300D01*
X18321409Y20022300D01*
X18202791Y20022300D01*
X18202789Y20022300D01*
X18088217Y19991601D01*
X18088212Y19991599D01*
X17985490Y19932292D01*
X17901608Y19848410D01*
X17842301Y19745688D01*
X17842299Y19745683D01*
X17811600Y19631112D01*
X17811600Y19512489D01*
X17842299Y19397918D01*
X17842301Y19397913D01*
X17901608Y19295191D01*
X17901609Y19295190D01*
X17901611Y19295187D01*
X17985487Y19211311D01*
X17985489Y19211310D01*
X17985490Y19211309D01*
X18067277Y19164089D01*
X18088214Y19152001D01*
X18088215Y19152001D01*
X18088217Y19152000D01*
X18145502Y19136651D01*
X18202788Y19121301D01*
X18202789Y19121300D01*
X18326260Y19121300D01*
X18326260Y19120945D01*
X18327521Y19121467D01*
X18349520Y19112355D01*
X18372524Y19106210D01*
X18379847Y19099793D01*
X18444514Y19035126D01*
X18466188Y18982800D01*
X18444514Y18930474D01*
X18392188Y18908800D01*
X18344189Y18908800D01*
X18229617Y18878101D01*
X18229612Y18878099D01*
X18126890Y18818792D01*
X18043008Y18734910D01*
X17983701Y18632188D01*
X17983699Y18632183D01*
X17953000Y18517612D01*
X17953000Y18398989D01*
X17983699Y18284418D01*
X17983701Y18284413D01*
X18043008Y18181691D01*
X18043009Y18181690D01*
X18043011Y18181687D01*
X18126887Y18097811D01*
X18126889Y18097810D01*
X18126890Y18097809D01*
X18229612Y18038502D01*
X18229614Y18038501D01*
X18229615Y18038501D01*
X18229617Y18038500D01*
X18286902Y18023151D01*
X18344188Y18007801D01*
X18344189Y18007800D01*
X18344191Y18007800D01*
X18462811Y18007800D01*
X18462811Y18007801D01*
X18577386Y18038501D01*
X18622500Y18064549D01*
X18678652Y18071941D01*
X18723586Y18037463D01*
X18733500Y18000462D01*
X18733500Y17254053D01*
X18711826Y17201727D01*
X18659500Y17180053D01*
X18607175Y17201727D01*
X18539813Y17269089D01*
X18539810Y17269091D01*
X18539809Y17269092D01*
X18437087Y17328399D01*
X18437082Y17328401D01*
X18322511Y17359100D01*
X18322509Y17359100D01*
X18203891Y17359100D01*
X18203889Y17359100D01*
X18089317Y17328401D01*
X18089312Y17328399D01*
X17986590Y17269092D01*
X17902708Y17185210D01*
X17843401Y17082488D01*
X17843399Y17082483D01*
X17812700Y16967912D01*
X17812700Y16849289D01*
X17843399Y16734718D01*
X17843401Y16734713D01*
X17902708Y16631991D01*
X17902709Y16631990D01*
X17902711Y16631987D01*
X17986587Y16548111D01*
X17986589Y16548110D01*
X17986590Y16548109D01*
X18089312Y16488802D01*
X18089314Y16488801D01*
X18089315Y16488801D01*
X18089317Y16488800D01*
X18121409Y16480201D01*
X18203888Y16458101D01*
X18203889Y16458100D01*
X18203891Y16458100D01*
X18322511Y16458100D01*
X18322511Y16458101D01*
X18437086Y16488801D01*
X18539813Y16548111D01*
X18622467Y16630766D01*
X18674790Y16652438D01*
X18727116Y16630764D01*
X18743157Y16606757D01*
X18771635Y16538005D01*
X18771637Y16538002D01*
X19090426Y16219213D01*
X19112100Y16166887D01*
X19112100Y15676985D01*
X19090426Y15624659D01*
X19038100Y15602985D01*
X18985774Y15624659D01*
X18974015Y15639984D01*
X18960517Y15663362D01*
X18960516Y15663363D01*
X18960515Y15663365D01*
X18853365Y15770515D01*
X18848100Y15773555D01*
X18722139Y15846279D01*
X18722130Y15846283D01*
X18575768Y15885500D01*
X18575766Y15885500D01*
X18424234Y15885500D01*
X18424232Y15885500D01*
X18277869Y15846283D01*
X18277860Y15846279D01*
X18146637Y15770517D01*
X18039483Y15663363D01*
X17963721Y15532140D01*
X17963717Y15532131D01*
X17924500Y15385769D01*
X17924500Y15234232D01*
X17963717Y15087870D01*
X17963721Y15087861D01*
X18039483Y14956638D01*
X18039485Y14956635D01*
X18146635Y14849485D01*
X18277865Y14773719D01*
X18424231Y14734501D01*
X18424232Y14734500D01*
X18424234Y14734500D01*
X18575768Y14734500D01*
X18575768Y14734501D01*
X18722135Y14773719D01*
X18853365Y14849485D01*
X18960515Y14956635D01*
X18974014Y14980017D01*
X19018948Y15014495D01*
X19075100Y15007102D01*
X19109579Y14962168D01*
X19112100Y14943016D01*
X19112100Y11854814D01*
X19090426Y11802488D01*
X18922746Y11634808D01*
X18870420Y11613134D01*
X18867887Y11613300D01*
X18864309Y11613300D01*
X18745691Y11613300D01*
X18745689Y11613300D01*
X18631117Y11582601D01*
X18631112Y11582599D01*
X18528390Y11523292D01*
X18444508Y11439410D01*
X18385201Y11336688D01*
X18385199Y11336683D01*
X18354500Y11222112D01*
X18354500Y11103489D01*
X18385199Y10988918D01*
X18385201Y10988913D01*
X18444508Y10886191D01*
X18444509Y10886190D01*
X18444511Y10886187D01*
X18528387Y10802311D01*
X18528389Y10802310D01*
X18528390Y10802309D01*
X18631112Y10743002D01*
X18631114Y10743001D01*
X18631115Y10743001D01*
X18631117Y10743000D01*
X18656902Y10736091D01*
X18745688Y10712301D01*
X18745689Y10712300D01*
X18745691Y10712300D01*
X18864311Y10712300D01*
X18864311Y10712301D01*
X18978886Y10743001D01*
X19081613Y10802311D01*
X19165489Y10886187D01*
X19224799Y10988914D01*
X19255499Y11103489D01*
X19255500Y11103489D01*
X19255500Y11226960D01*
X19258230Y11226960D01*
X19270595Y11273231D01*
X19276999Y11280540D01*
X19574964Y11578503D01*
X19613100Y11670572D01*
X19613100Y11770227D01*
X19613100Y16351128D01*
X19603529Y16374235D01*
X19603529Y16376136D01*
X19602250Y16377543D01*
X19603529Y16404194D01*
X19603529Y16430870D01*
X19604873Y16432215D01*
X19604965Y16434115D01*
X19615955Y16443297D01*
X19643577Y16470919D01*
X19646887Y16472198D01*
X19649772Y16473235D01*
X19714586Y16490601D01*
X19741647Y16506225D01*
X19747891Y16508467D01*
X19770053Y16507404D01*
X19792052Y16510300D01*
X19797546Y16506084D01*
X19804463Y16505752D01*
X19819381Y16489330D01*
X19836985Y16475822D01*
X19839216Y16467496D01*
X19842546Y16463830D01*
X19842189Y16456401D01*
X19846900Y16438821D01*
X19846900Y7900714D01*
X19825226Y7848388D01*
X17621646Y5644809D01*
X17569320Y5623135D01*
X17566785Y5623300D01*
X17563209Y5623300D01*
X17444591Y5623300D01*
X17444589Y5623300D01*
X17330017Y5592601D01*
X17330012Y5592599D01*
X17227290Y5533292D01*
X17143408Y5449410D01*
X17084101Y5346688D01*
X17084099Y5346683D01*
X17053400Y5232112D01*
X3287473Y5232112D01*
X3611787Y5556426D01*
X3664113Y5578100D01*
X6677127Y5578100D01*
X6677128Y5578100D01*
X6769197Y5616236D01*
X6769199Y5616239D01*
X6773995Y5619442D01*
X6816740Y5629406D01*
X6816740Y5631700D01*
X6940211Y5631700D01*
X6940211Y5631701D01*
X7054786Y5662401D01*
X7157513Y5721711D01*
X7241389Y5805587D01*
X7300699Y5908314D01*
X7331399Y6022889D01*
X7331400Y6022889D01*
X7331400Y6141511D01*
X7331399Y6141512D01*
X7300700Y6256083D01*
X7300698Y6256088D01*
X7241391Y6358810D01*
X7241390Y6358811D01*
X7241389Y6358813D01*
X7157513Y6442689D01*
X7157510Y6442691D01*
X7157509Y6442692D01*
X7054787Y6501999D01*
X7054782Y6502001D01*
X6940211Y6532700D01*
X6940209Y6532700D01*
X6821591Y6532700D01*
X6821589Y6532700D01*
X6707017Y6502001D01*
X6707012Y6501999D01*
X6604290Y6442692D01*
X6520408Y6358810D01*
X6461101Y6256088D01*
X6461099Y6256083D01*
X6429144Y6136824D01*
X6427144Y6137360D01*
X6402331Y6094388D01*
X6357287Y6079100D01*
X4555026Y6079100D01*
X4502700Y6100774D01*
X4481026Y6153100D01*
X4490940Y6190100D01*
X4512598Y6227613D01*
X4512599Y6227614D01*
X4543299Y6342189D01*
X4543300Y6342189D01*
X4543300Y6465660D01*
X4546030Y6465660D01*
X4558395Y6511931D01*
X4564799Y6519240D01*
X10315084Y12269525D01*
X10367404Y12291198D01*
X10413737Y12291162D01*
X10413828Y12291200D01*
X10421184Y12291200D01*
X12149027Y12291200D01*
X12149028Y12291200D01*
X12241097Y12329336D01*
X12503187Y12591426D01*
X12555513Y12613100D01*
X13615181Y12613100D01*
X13667507Y12591426D01*
X13669180Y12589518D01*
X13671710Y12586988D01*
X13671711Y12586987D01*
X13755587Y12503111D01*
X13755589Y12503110D01*
X13755590Y12503109D01*
X13817036Y12467633D01*
X13858314Y12443801D01*
X13858315Y12443801D01*
X13858317Y12443800D01*
X13906080Y12431002D01*
X13972888Y12413101D01*
X13972889Y12413100D01*
X13972891Y12413100D01*
X14091511Y12413100D01*
X14091511Y12413101D01*
X14206086Y12443801D01*
X14308813Y12503111D01*
X14392689Y12586987D01*
X14451999Y12689714D01*
X14482699Y12804289D01*
X14482700Y12804289D01*
X14482700Y12922911D01*
X14482699Y12922912D01*
X14452000Y13037483D01*
X14451998Y13037488D01*
X14392691Y13140210D01*
X14392690Y13140211D01*
X14392689Y13140213D01*
X14308813Y13224089D01*
X14308810Y13224091D01*
X14308809Y13224092D01*
X14206087Y13283399D01*
X14206082Y13283401D01*
X14091511Y13314100D01*
X14091509Y13314100D01*
X13972891Y13314100D01*
X13972889Y13314100D01*
X13858317Y13283401D01*
X13858312Y13283399D01*
X13755590Y13224092D01*
X13668281Y13136783D01*
X13666357Y13138707D01*
X13624851Y13114734D01*
X13615181Y13114100D01*
X12371272Y13114100D01*
X12279205Y13075966D01*
X12017113Y12813874D01*
X11964787Y12792200D01*
X11066179Y12792200D01*
X11013853Y12813874D01*
X10992179Y12866200D01*
X11002094Y12903201D01*
X11014397Y12924511D01*
X11014399Y12924514D01*
X11045099Y13039089D01*
X11045100Y13039089D01*
X11045100Y13157711D01*
X11045099Y13157712D01*
X11014400Y13272283D01*
X11014398Y13272288D01*
X10955091Y13375010D01*
X10955090Y13375011D01*
X10955089Y13375013D01*
X10871213Y13458889D01*
X10871210Y13458891D01*
X10871209Y13458892D01*
X10768487Y13518199D01*
X10768482Y13518201D01*
X10653911Y13548900D01*
X10653909Y13548900D01*
X10586500Y13548900D01*
X10534174Y13570574D01*
X10512500Y13622900D01*
X10512500Y14759713D01*
X10518770Y14789523D01*
X10524025Y14801465D01*
X10528164Y14805603D01*
X10564862Y14894200D01*
X10566301Y14897673D01*
X10566301Y14997328D01*
X10566301Y15003286D01*
X10566300Y15003300D01*
X10566300Y15470856D01*
X10587974Y15523182D01*
X10640300Y15544856D01*
X10677298Y15534943D01*
X10752714Y15491401D01*
X10752716Y15491401D01*
X10752717Y15491400D01*
X10794453Y15480217D01*
X10867288Y15460701D01*
X10867289Y15460700D01*
X10867291Y15460700D01*
X10985911Y15460700D01*
X10985911Y15460701D01*
X11100486Y15491401D01*
X11203213Y15550711D01*
X11287089Y15634587D01*
X11346399Y15737314D01*
X11377099Y15851889D01*
X11377100Y15851889D01*
X11377100Y15970510D01*
X11369669Y15998240D01*
X11372780Y16045714D01*
X11380800Y16065072D01*
X11380800Y16164727D01*
X11380800Y19418581D01*
X11402474Y19470907D01*
X11404382Y19472581D01*
X11406910Y19475110D01*
X11406913Y19475111D01*
X11490789Y19558987D01*
X11550099Y19661714D01*
X11580799Y19776289D01*
X11580800Y19776289D01*
X11580800Y19894911D01*
X11580799Y19894912D01*
X11579972Y19897997D01*
X11550099Y20009486D01*
X11542701Y20022300D01*
X11490791Y20112210D01*
X11490790Y20112211D01*
X11490789Y20112213D01*
X11406913Y20196089D01*
X11406910Y20196091D01*
X11406909Y20196092D01*
X11304187Y20255399D01*
X11304182Y20255401D01*
X11189611Y20286100D01*
X11189609Y20286100D01*
X11070991Y20286100D01*
X11070989Y20286100D01*
X10956417Y20255401D01*
X10956412Y20255399D01*
X10917600Y20232990D01*
X10861447Y20225598D01*
X10816514Y20260076D01*
X10806600Y20297076D01*
X10806600Y21369028D01*
X10806599Y21369030D01*
X10794133Y21399127D01*
X10788500Y21427445D01*
X10788500Y23213747D01*
X10810174Y23266073D01*
X10813010Y23268910D01*
X10813013Y23268911D01*
X10896889Y23352787D01*
X10956199Y23455514D01*
X10986899Y23570089D01*
X10986900Y23570089D01*
X10986900Y23688711D01*
X10986899Y23688712D01*
X10956200Y23803283D01*
X10956198Y23803288D01*
X10896891Y23906010D01*
X10896890Y23906011D01*
X10896889Y23906013D01*
X10813013Y23989889D01*
X10813010Y23989891D01*
X10813009Y23989892D01*
X10710287Y24049199D01*
X10710282Y24049201D01*
X10595711Y24079900D01*
X10595709Y24079900D01*
X10477091Y24079900D01*
X10477089Y24079900D01*
X10362517Y24049201D01*
X10362512Y24049199D01*
X10259790Y23989892D01*
X10175908Y23906010D01*
X10116601Y23803288D01*
X10116599Y23803283D01*
X10085900Y23688712D01*
X10085900Y23570089D01*
X10116599Y23455518D01*
X10116601Y23455513D01*
X10175908Y23352791D01*
X10175909Y23352790D01*
X10175911Y23352787D01*
X10222872Y23305826D01*
X10263217Y23265481D01*
X10261857Y23264122D01*
X10286865Y23220830D01*
X10287500Y23211154D01*
X10287500Y21612313D01*
X10265826Y21559987D01*
X10213500Y21538313D01*
X10161174Y21559987D01*
X10127675Y21593486D01*
X10106001Y21645812D01*
X10106001Y21685726D01*
X10106001Y21685727D01*
X10075575Y21759180D01*
X10067864Y21777797D01*
X9997397Y21848264D01*
X9993182Y21852479D01*
X9993175Y21852485D01*
X9137869Y22707792D01*
X9116195Y22760118D01*
X9137869Y22812444D01*
X9190195Y22834118D01*
X9227195Y22824204D01*
X9261473Y22804413D01*
X9262014Y22804101D01*
X9262015Y22804101D01*
X9262017Y22804100D01*
X9279782Y22799340D01*
X9376588Y22773401D01*
X9376589Y22773400D01*
X9376591Y22773400D01*
X9495211Y22773400D01*
X9495211Y22773401D01*
X9609786Y22804101D01*
X9712513Y22863411D01*
X9796389Y22947287D01*
X9855699Y23050014D01*
X9886399Y23164589D01*
X9886400Y23164589D01*
X9886400Y23283211D01*
X9886399Y23283212D01*
X9882647Y23297213D01*
X9855699Y23397786D01*
X9852046Y23404113D01*
X9796391Y23500510D01*
X9796390Y23500511D01*
X9796389Y23500513D01*
X9712513Y23584389D01*
X9712510Y23584391D01*
X9712509Y23584392D01*
X9609787Y23643699D01*
X9609782Y23643701D01*
X9495211Y23674400D01*
X9495209Y23674400D01*
X9376591Y23674400D01*
X9376589Y23674400D01*
X9262017Y23643701D01*
X9262012Y23643699D01*
X9159290Y23584392D01*
X9075408Y23500510D01*
X9016101Y23397788D01*
X9016099Y23397783D01*
X8985400Y23283212D01*
X8985400Y23164589D01*
X9016099Y23050018D01*
X9016101Y23050013D01*
X9036203Y23015196D01*
X9038724Y22996044D01*
X9046117Y22978196D01*
X9042289Y22968957D01*
X9043595Y22959043D01*
X9031835Y22943719D01*
X9024443Y22925870D01*
X9015204Y22922044D01*
X9009117Y22914110D01*
X8989964Y22911589D01*
X8972117Y22904196D01*
X8962877Y22908024D01*
X8952964Y22906718D01*
X8919791Y22925870D01*
X8851874Y22993787D01*
X8830200Y23046113D01*
X8830200Y23079911D01*
X8830199Y23079912D01*
X8826737Y23092831D01*
X8805846Y23170800D01*
X8799500Y23194483D01*
X8799498Y23194488D01*
X8740191Y23297210D01*
X8740190Y23297211D01*
X8740189Y23297213D01*
X8656313Y23381089D01*
X8656310Y23381091D01*
X8656309Y23381092D01*
X8553587Y23440399D01*
X8553582Y23440401D01*
X8439011Y23471100D01*
X8439009Y23471100D01*
X8323013Y23471100D01*
X8270687Y23492774D01*
X8249013Y23545100D01*
X8270687Y23597426D01*
X9371763Y24698502D01*
X9371763Y24698503D01*
X9371764Y24698503D01*
X9409900Y24790572D01*
X9409900Y24890228D01*
X9409900Y27181687D01*
X9431574Y27234013D01*
X9483900Y27255687D01*
X9536226Y27234013D01*
X12599064Y24171175D01*
X12620738Y24118849D01*
X12599064Y24066523D01*
X12565892Y24047371D01*
X12542116Y24041000D01*
X12542112Y24040999D01*
X12439390Y23981692D01*
X12355508Y23897810D01*
X12296201Y23795088D01*
X12296199Y23795083D01*
X12265500Y23680512D01*
X12265500Y23561889D01*
X12296199Y23447318D01*
X12296201Y23447313D01*
X12355508Y23344591D01*
X12355509Y23344590D01*
X12355511Y23344587D01*
X12402885Y23297213D01*
X12442817Y23257281D01*
X12440893Y23255358D01*
X12464866Y23213851D01*
X12465500Y23204181D01*
X12465500Y15584271D01*
X12503634Y15492206D01*
X12503636Y15492203D01*
X15096426Y12899414D01*
X15118100Y12847088D01*
X15118100Y11315119D01*
X15096426Y11262793D01*
X15094517Y11261120D01*
X15008108Y11174710D01*
X14948801Y11071988D01*
X14948799Y11071983D01*
X14918100Y10957412D01*
X14918100Y10918453D01*
X14896426Y10866127D01*
X14844100Y10844453D01*
X14791775Y10866127D01*
X14743313Y10914589D01*
X14743310Y10914591D01*
X14743309Y10914592D01*
X14640587Y10973899D01*
X14640582Y10973901D01*
X14526011Y11004600D01*
X14526009Y11004600D01*
X14407391Y11004600D01*
X14407389Y11004600D01*
X14292817Y10973901D01*
X14292812Y10973899D01*
X14190090Y10914592D01*
X14106208Y10830710D01*
X14046901Y10727988D01*
X14046899Y10727983D01*
X14016200Y10613412D01*
X14016200Y10494789D01*
X14046899Y10380218D01*
X14046901Y10380213D01*
X14106208Y10277491D01*
X14106209Y10277490D01*
X14106211Y10277487D01*
X14190087Y10193611D01*
X14190089Y10193610D01*
X14190090Y10193609D01*
X14198444Y10188786D01*
X14292814Y10134301D01*
X14292815Y10134301D01*
X14292817Y10134300D01*
X14350102Y10118951D01*
X14407388Y10103601D01*
X14407389Y10103600D01*
X14407391Y10103600D01*
X14526011Y10103600D01*
X14526011Y10103601D01*
X14640586Y10134301D01*
X14743313Y10193611D01*
X14827189Y10277487D01*
X14886499Y10380214D01*
X14917199Y10494789D01*
X14917200Y10494789D01*
X14917200Y10533747D01*
X14938874Y10586073D01*
X14991200Y10607747D01*
X15043524Y10586074D01*
X15091987Y10537611D01*
X15091989Y10537610D01*
X15091990Y10537609D01*
X15171223Y10491863D01*
X15205702Y10446929D01*
X15198309Y10390777D01*
X15186549Y10375451D01*
X15102608Y10291510D01*
X15043301Y10188788D01*
X15043299Y10188783D01*
X15012600Y10074212D01*
X15012600Y9955589D01*
X15043299Y9841018D01*
X15043301Y9841013D01*
X15102608Y9738291D01*
X15102609Y9738290D01*
X15102611Y9738287D01*
X15186487Y9654411D01*
X15186489Y9654410D01*
X15186490Y9654409D01*
X15288679Y9595410D01*
X15289214Y9595101D01*
X15289215Y9595101D01*
X15289217Y9595100D01*
X15346269Y9579813D01*
X15403788Y9564401D01*
X15403789Y9564400D01*
X15403791Y9564400D01*
X15522411Y9564400D01*
X15522411Y9564401D01*
X15636986Y9595101D01*
X15680500Y9620224D01*
X15736652Y9627617D01*
X15781586Y9593138D01*
X15791500Y9556138D01*
X15791500Y8184771D01*
X15829634Y8092706D01*
X15829635Y8092704D01*
X15829636Y8092703D01*
X16660536Y7261803D01*
X16731003Y7191336D01*
X16823072Y7153200D01*
X17576581Y7153200D01*
X17628907Y7131526D01*
X17630580Y7129618D01*
X17633110Y7127088D01*
X17633111Y7127087D01*
X17716987Y7043211D01*
X17819714Y6983901D01*
X17819715Y6983901D01*
X17819717Y6983900D01*
X17877002Y6968551D01*
X17934288Y6953201D01*
X17934289Y6953200D01*
X17934291Y6953200D01*
X18052911Y6953200D01*
X18052911Y6953201D01*
X18167486Y6983901D01*
X18270213Y7043211D01*
X18354089Y7127087D01*
X18413399Y7229814D01*
X18444099Y7344389D01*
X18444100Y7344389D01*
X18444100Y7463011D01*
X18444099Y7463012D01*
X18413400Y7577583D01*
X18413398Y7577588D01*
X18354091Y7680310D01*
X18354090Y7680311D01*
X18354089Y7680313D01*
X18270213Y7764189D01*
X18270210Y7764191D01*
X18270209Y7764192D01*
X18167487Y7823499D01*
X18167482Y7823501D01*
X18052911Y7854200D01*
X18052909Y7854200D01*
X17934291Y7854200D01*
X17934289Y7854200D01*
X17819717Y7823501D01*
X17819712Y7823499D01*
X17716990Y7764192D01*
X17629681Y7676883D01*
X17627757Y7678807D01*
X17586251Y7654834D01*
X17576581Y7654200D01*
X17007313Y7654200D01*
X16954987Y7675874D01*
X16666802Y7964059D01*
X16645128Y8016385D01*
X16666802Y8068711D01*
X16699972Y8087862D01*
X16774386Y8107801D01*
X16877113Y8167111D01*
X16960989Y8250987D01*
X17020299Y8353714D01*
X17050999Y8468289D01*
X17051000Y8468289D01*
X17051000Y8586911D01*
X17050999Y8586912D01*
X17020300Y8701483D01*
X17020298Y8701488D01*
X16993247Y8748341D01*
X16985854Y8804493D01*
X17020333Y8849427D01*
X17038173Y8856817D01*
X17137386Y8883401D01*
X17240113Y8942711D01*
X17323989Y9026587D01*
X17383299Y9129314D01*
X17413999Y9243889D01*
X17414000Y9243889D01*
X17414000Y9362511D01*
X17413999Y9362512D01*
X17383300Y9477083D01*
X17383298Y9477088D01*
X17323991Y9579810D01*
X17323990Y9579811D01*
X17323989Y9579813D01*
X17240113Y9663689D01*
X17240110Y9663691D01*
X17240109Y9663692D01*
X17137387Y9722999D01*
X17137382Y9723001D01*
X17022811Y9753700D01*
X17022809Y9753700D01*
X16985500Y9753700D01*
X16933174Y9775374D01*
X16911500Y9827700D01*
X16911500Y19695587D01*
X16933174Y19747913D01*
X16966263Y19781002D01*
X16966264Y19781003D01*
X17004400Y19873072D01*
X17004400Y19972727D01*
X17004400Y21165769D01*
X17924500Y21165769D01*
X17924500Y21014232D01*
X17963717Y20867870D01*
X17963721Y20867861D01*
X18039095Y20737310D01*
X18039485Y20736635D01*
X18146635Y20629485D01*
X18277865Y20553719D01*
X18424231Y20514501D01*
X18424232Y20514500D01*
X18424234Y20514500D01*
X18575768Y20514500D01*
X18575768Y20514501D01*
X18722135Y20553719D01*
X18853365Y20629485D01*
X18960515Y20736635D01*
X19036281Y20867865D01*
X19075499Y21014232D01*
X19075500Y21014232D01*
X19075500Y21165768D01*
X19075499Y21165769D01*
X19071230Y21181700D01*
X19036281Y21312135D01*
X18960515Y21443365D01*
X18853365Y21550515D01*
X18839173Y21558709D01*
X18722139Y21626279D01*
X18722130Y21626283D01*
X18575768Y21665500D01*
X18575766Y21665500D01*
X18424234Y21665500D01*
X18424232Y21665500D01*
X18277869Y21626283D01*
X18277860Y21626279D01*
X18146637Y21550517D01*
X18039483Y21443363D01*
X17963721Y21312140D01*
X17963717Y21312131D01*
X17924500Y21165769D01*
X17004400Y21165769D01*
X17004400Y22054928D01*
X16966264Y22146997D01*
X16933474Y22179787D01*
X16911800Y22232113D01*
X16911800Y23701888D01*
X16933473Y23754213D01*
X18082253Y24902994D01*
X18134578Y24924667D01*
X18137111Y24924500D01*
X18140691Y24924500D01*
X18259311Y24924500D01*
X18259311Y24924501D01*
X18373886Y24955201D01*
X18476613Y25014511D01*
X18560489Y25098387D01*
X18560489Y25098388D01*
X18563919Y25101817D01*
X18565842Y25099894D01*
X18607349Y25123866D01*
X18617019Y25124500D01*
X19664327Y25124500D01*
X19664328Y25124500D01*
X19756397Y25162636D01*
X21632253Y27038494D01*
X21684578Y27060167D01*
X21687111Y27060000D01*
X21690691Y27060000D01*
X21809311Y27060000D01*
X21809311Y27060001D01*
X21923886Y27090701D01*
X22026613Y27150011D01*
X22110489Y27233887D01*
X22169799Y27336614D01*
X22200499Y27451189D01*
X22200500Y27451189D01*
X22200500Y27569811D01*
X22200499Y27569812D01*
X22169800Y27684383D01*
X22169798Y27684388D01*
X22138556Y27738500D01*
X22131163Y27794652D01*
X22165642Y27839586D01*
X22202642Y27849500D01*
X22725187Y27849500D01*
X22777513Y27827826D01*
X23127792Y27477548D01*
X23149466Y27425222D01*
X23149300Y27422686D01*
X23149300Y27300489D01*
X23179999Y27185918D01*
X23180001Y27185913D01*
X23239308Y27083191D01*
X23239309Y27083190D01*
X23239311Y27083187D01*
X23323187Y26999311D01*
X23323189Y26999310D01*
X23323190Y26999309D01*
X23425912Y26940002D01*
X23425914Y26940001D01*
X23425915Y26940001D01*
X23425917Y26940000D01*
X23483202Y26924651D01*
X23540488Y26909301D01*
X23540489Y26909300D01*
X23540491Y26909300D01*
X23659111Y26909300D01*
X23659111Y26909301D01*
X23773686Y26940001D01*
X23876413Y26999311D01*
X23960289Y27083187D01*
X24019599Y27185914D01*
X24050299Y27300489D01*
X24050300Y27300489D01*
X24050300Y27419111D01*
X24050299Y27419112D01*
X24049341Y27422686D01*
X24019599Y27533686D01*
X23998742Y27569811D01*
X23960291Y27636410D01*
X23960290Y27636411D01*
X23960289Y27636413D01*
X23876413Y27720289D01*
X23876410Y27720291D01*
X23876409Y27720292D01*
X23773687Y27779599D01*
X23773682Y27779601D01*
X23659111Y27810300D01*
X23659109Y27810300D01*
X23540491Y27810300D01*
X23535641Y27810300D01*
X23535641Y27813013D01*
X23489317Y27825436D01*
X23482052Y27831808D01*
X23246306Y28067554D01*
X23001497Y28312364D01*
X23001494Y28312366D01*
X22909428Y28350500D01*
X21478872Y28350500D01*
X21386805Y28312366D01*
X21316335Y28241896D01*
X21086146Y28011708D01*
X21033820Y27990034D01*
X21031287Y27990200D01*
X21027709Y27990200D01*
X20909091Y27990200D01*
X20909089Y27990200D01*
X20794517Y27959501D01*
X20794512Y27959499D01*
X20691790Y27900192D01*
X20607908Y27816310D01*
X20548601Y27713588D01*
X20548599Y27713583D01*
X20517900Y27599012D01*
X20517900Y27480389D01*
X20548599Y27365818D01*
X20548601Y27365813D01*
X20607908Y27263091D01*
X20607909Y27263090D01*
X20607911Y27263087D01*
X20691787Y27179211D01*
X20794514Y27119901D01*
X20836826Y27108564D01*
X20881757Y27074087D01*
X20889151Y27017934D01*
X20869998Y26984760D01*
X19532413Y25647174D01*
X19480087Y25625500D01*
X18617019Y25625500D01*
X18564693Y25647174D01*
X18563019Y25649083D01*
X18558389Y25653713D01*
X18476613Y25735489D01*
X18476610Y25735491D01*
X18476609Y25735492D01*
X18373887Y25794799D01*
X18373882Y25794801D01*
X18259311Y25825500D01*
X18259309Y25825500D01*
X18140691Y25825500D01*
X18140689Y25825500D01*
X18026117Y25794801D01*
X18026112Y25794799D01*
X17923390Y25735492D01*
X17839508Y25651610D01*
X17780201Y25548888D01*
X17780199Y25548883D01*
X17749500Y25434312D01*
X17749500Y25310841D01*
X17746798Y25310841D01*
X17734338Y25264485D01*
X17727991Y25257254D01*
X16673626Y24202888D01*
X16621300Y24181214D01*
X16568974Y24202888D01*
X16547300Y24255214D01*
X16547300Y24709728D01*
X16547299Y24709730D01*
X16509165Y24801795D01*
X16509163Y24801798D01*
X16051608Y25259353D01*
X16029934Y25311679D01*
X16030100Y25314212D01*
X16030100Y25436411D01*
X16030099Y25436412D01*
X15999400Y25550983D01*
X15999398Y25550988D01*
X15940091Y25653710D01*
X15940090Y25653711D01*
X15940089Y25653713D01*
X15856213Y25737589D01*
X15856210Y25737591D01*
X15856209Y25737592D01*
X15753487Y25796899D01*
X15753482Y25796901D01*
X15638911Y25827600D01*
X15638909Y25827600D01*
X15520291Y25827600D01*
X15520289Y25827600D01*
X15405717Y25796901D01*
X15405712Y25796899D01*
X15302990Y25737592D01*
X15219108Y25653710D01*
X15159801Y25550988D01*
X15159799Y25550983D01*
X15129100Y25436412D01*
X15129100Y25317789D01*
X15159799Y25203218D01*
X15159801Y25203213D01*
X15219108Y25100491D01*
X15219109Y25100490D01*
X15219111Y25100487D01*
X15302987Y25016611D01*
X15302989Y25016610D01*
X15302990Y25016609D01*
X15375381Y24974814D01*
X15405714Y24957301D01*
X15405715Y24957301D01*
X15405717Y24957300D01*
X15454753Y24944161D01*
X15520288Y24926601D01*
X15520289Y24926600D01*
X15643760Y24926600D01*
X15643760Y24923883D01*
X15690070Y24911474D01*
X15697347Y24905092D01*
X16024626Y24577813D01*
X16046300Y24525487D01*
X16046300Y21701571D01*
X16084434Y21609506D01*
X16084437Y21609502D01*
X16125026Y21568913D01*
X16146700Y21516587D01*
X16146700Y20772780D01*
X16125026Y20720454D01*
X16072700Y20698780D01*
X16035701Y20708694D01*
X16014391Y20720997D01*
X16014382Y20721001D01*
X15899811Y20751700D01*
X15899809Y20751700D01*
X15781191Y20751700D01*
X15781189Y20751700D01*
X15666617Y20721001D01*
X15666612Y20720999D01*
X15563890Y20661692D01*
X15480008Y20577810D01*
X15420701Y20475088D01*
X15420699Y20475083D01*
X15390000Y20360512D01*
X15390000Y20241889D01*
X15420699Y20127318D01*
X15420701Y20127313D01*
X15480008Y20024591D01*
X15480009Y20024590D01*
X15480011Y20024587D01*
X15563887Y19940711D01*
X15563889Y19940710D01*
X15563890Y19940709D01*
X15659178Y19885694D01*
X15666614Y19881401D01*
X15666615Y19881401D01*
X15666617Y19881400D01*
X15723902Y19866051D01*
X15781188Y19850701D01*
X15781189Y19850700D01*
X15781191Y19850700D01*
X15899810Y19850700D01*
X15924160Y19857225D01*
X15951747Y19864617D01*
X16007899Y19857225D01*
X16042378Y19812293D01*
X16044900Y19793139D01*
X16044900Y17157865D01*
X16023226Y17105539D01*
X15970900Y17083865D01*
X15933900Y17093779D01*
X15905287Y17110299D01*
X15905282Y17110301D01*
X15790711Y17141000D01*
X15790709Y17141000D01*
X15672091Y17141000D01*
X15672089Y17141000D01*
X15557517Y17110301D01*
X15557512Y17110299D01*
X15454790Y17050992D01*
X15370908Y16967110D01*
X15311601Y16864388D01*
X15311599Y16864383D01*
X15280900Y16749812D01*
X15280900Y16631189D01*
X15311599Y16516618D01*
X15311601Y16516613D01*
X15370908Y16413891D01*
X15370909Y16413890D01*
X15370911Y16413887D01*
X15454787Y16330011D01*
X15454789Y16330010D01*
X15454790Y16330009D01*
X15557512Y16270702D01*
X15557514Y16270701D01*
X15557515Y16270701D01*
X15557517Y16270700D01*
X15577995Y16265213D01*
X15672088Y16240001D01*
X15672089Y16240000D01*
X15672091Y16240000D01*
X15790711Y16240000D01*
X15790711Y16240001D01*
X15905286Y16270701D01*
X15933899Y16287222D01*
X15990051Y16294615D01*
X16034985Y16260137D01*
X16044900Y16223136D01*
X16044900Y13593813D01*
X16023226Y13541487D01*
X15970900Y13519813D01*
X15918574Y13541487D01*
X14715377Y14744684D01*
X14693703Y14797010D01*
X14715377Y14849336D01*
X14748550Y14868488D01*
X14772486Y14874901D01*
X14875213Y14934211D01*
X14959089Y15018087D01*
X15018399Y15120814D01*
X15049099Y15235389D01*
X15049100Y15235389D01*
X15049100Y15354011D01*
X15049099Y15354012D01*
X15018400Y15468583D01*
X15018398Y15468588D01*
X14959091Y15571310D01*
X14959090Y15571311D01*
X14959089Y15571313D01*
X14875213Y15655189D01*
X14875210Y15655191D01*
X14781199Y15709469D01*
X14746721Y15754403D01*
X14744200Y15773555D01*
X14744200Y17074507D01*
X14765874Y17126833D01*
X14818200Y17148507D01*
X14855201Y17138592D01*
X14888609Y17119303D01*
X14888617Y17119300D01*
X14939974Y17105539D01*
X15003188Y17088601D01*
X15003189Y17088600D01*
X15003191Y17088600D01*
X15121811Y17088600D01*
X15121811Y17088601D01*
X15236386Y17119301D01*
X15339113Y17178611D01*
X15422989Y17262487D01*
X15482299Y17365214D01*
X15512999Y17479789D01*
X15513000Y17479789D01*
X15513000Y17598411D01*
X15512999Y17598412D01*
X15482300Y17712983D01*
X15482298Y17712988D01*
X15422991Y17815710D01*
X15422990Y17815711D01*
X15422989Y17815713D01*
X15339113Y17899589D01*
X15339110Y17899591D01*
X15339109Y17899592D01*
X15236387Y17958899D01*
X15236382Y17958901D01*
X15121811Y17989600D01*
X15121809Y17989600D01*
X15003191Y17989600D01*
X15003189Y17989600D01*
X14888617Y17958901D01*
X14888608Y17958897D01*
X14855199Y17939608D01*
X14836048Y17937087D01*
X14818200Y17929694D01*
X14808960Y17933522D01*
X14799047Y17932216D01*
X14783723Y17943975D01*
X14765874Y17951368D01*
X14762046Y17960608D01*
X14754114Y17966695D01*
X14744200Y18003694D01*
X14744200Y18149855D01*
X14765874Y18202181D01*
X14818200Y18223855D01*
X14855201Y18213940D01*
X14901509Y18187203D01*
X14901517Y18187200D01*
X14922077Y18181691D01*
X15016088Y18156501D01*
X15016089Y18156500D01*
X15016091Y18156500D01*
X15134711Y18156500D01*
X15134711Y18156501D01*
X15249286Y18187201D01*
X15352013Y18246511D01*
X15435889Y18330387D01*
X15495199Y18433114D01*
X15525899Y18547689D01*
X15525900Y18547689D01*
X15525900Y18666311D01*
X15525899Y18666312D01*
X15495200Y18780883D01*
X15495198Y18780888D01*
X15435891Y18883610D01*
X15435890Y18883611D01*
X15435889Y18883613D01*
X15352013Y18967489D01*
X15352010Y18967491D01*
X15352009Y18967492D01*
X15249287Y19026799D01*
X15249282Y19026801D01*
X15134711Y19057500D01*
X15134709Y19057500D01*
X15016091Y19057500D01*
X14982303Y19048447D01*
X14926150Y19055841D01*
X14891672Y19100774D01*
X14894783Y19148241D01*
X14915300Y19197772D01*
X14915300Y22768689D01*
X14936973Y22821014D01*
X15259452Y23143494D01*
X15311777Y23165167D01*
X15314314Y23165000D01*
X15317891Y23165000D01*
X15436511Y23165000D01*
X15436511Y23165001D01*
X15551086Y23195701D01*
X15653813Y23255011D01*
X15737689Y23338887D01*
X15796999Y23441614D01*
X15827699Y23556189D01*
X15827700Y23556189D01*
X15827700Y23674811D01*
X15827699Y23674812D01*
X15797000Y23789383D01*
X15796998Y23789388D01*
X15737691Y23892110D01*
X15737690Y23892111D01*
X15737689Y23892113D01*
X15653813Y23975989D01*
X15653810Y23975991D01*
X15653809Y23975992D01*
X15551087Y24035299D01*
X15551082Y24035301D01*
X15436511Y24066000D01*
X15436509Y24066000D01*
X15317891Y24066000D01*
X15317889Y24066000D01*
X15203317Y24035301D01*
X15203312Y24035299D01*
X15100590Y23975992D01*
X15016708Y23892110D01*
X14957401Y23789388D01*
X14957399Y23789383D01*
X14926700Y23674812D01*
X14926700Y23551341D01*
X14923983Y23551341D01*
X14911574Y23505031D01*
X14905192Y23497754D01*
X14766605Y23359168D01*
X14714279Y23337494D01*
X14661953Y23359168D01*
X14642801Y23392339D01*
X14619799Y23478186D01*
X14606910Y23500510D01*
X14560491Y23580910D01*
X14560490Y23580911D01*
X14560489Y23580913D01*
X14476613Y23664789D01*
X14476610Y23664791D01*
X14476609Y23664792D01*
X14373887Y23724099D01*
X14373882Y23724101D01*
X14259311Y23754800D01*
X14259309Y23754800D01*
X14140691Y23754800D01*
X14140689Y23754800D01*
X14026117Y23724101D01*
X14026112Y23724099D01*
X13923390Y23664792D01*
X13903532Y23644934D01*
X13851205Y23623261D01*
X13798880Y23644936D01*
X13782840Y23668943D01*
X13763765Y23714995D01*
X13763763Y23714998D01*
X11276149Y26202612D01*
X16893700Y26202612D01*
X16893700Y26083989D01*
X16924399Y25969418D01*
X16924401Y25969413D01*
X16983708Y25866691D01*
X16983709Y25866690D01*
X16983711Y25866687D01*
X17067587Y25782811D01*
X17170314Y25723501D01*
X17170315Y25723501D01*
X17170317Y25723500D01*
X17227602Y25708151D01*
X17284888Y25692801D01*
X17284889Y25692800D01*
X17284891Y25692800D01*
X17403511Y25692800D01*
X17403511Y25692801D01*
X17518086Y25723501D01*
X17620813Y25782811D01*
X17704689Y25866687D01*
X17763999Y25969414D01*
X17794699Y26083989D01*
X17794700Y26083989D01*
X17794700Y26202611D01*
X17794699Y26202612D01*
X17764000Y26317183D01*
X17763998Y26317188D01*
X17704691Y26419910D01*
X17704690Y26419911D01*
X17704689Y26419913D01*
X17620813Y26503789D01*
X17620810Y26503791D01*
X17620809Y26503792D01*
X17518087Y26563099D01*
X17518082Y26563101D01*
X17403511Y26593800D01*
X17403509Y26593800D01*
X17284891Y26593800D01*
X17284889Y26593800D01*
X17170317Y26563101D01*
X17170312Y26563099D01*
X17067590Y26503792D01*
X16983708Y26419910D01*
X16924401Y26317188D01*
X16924399Y26317183D01*
X16893700Y26202612D01*
X11276149Y26202612D01*
X9620423Y27858338D01*
X9601271Y27891510D01*
X9579199Y27973886D01*
X9519889Y28076613D01*
X9436013Y28160489D01*
X9436010Y28160491D01*
X9436009Y28160492D01*
X9333287Y28219799D01*
X9333282Y28219801D01*
X9218711Y28250500D01*
X9218709Y28250500D01*
X9100091Y28250500D01*
X9100089Y28250500D01*
X8985517Y28219801D01*
X8985512Y28219799D01*
X8882790Y28160492D01*
X8798908Y28076610D01*
X8739601Y27973888D01*
X8739599Y27973883D01*
X8708900Y27859312D01*
X8708900Y27740689D01*
X8739599Y27626118D01*
X8739601Y27626113D01*
X8798908Y27523391D01*
X8798909Y27523390D01*
X8798911Y27523387D01*
X8844750Y27477548D01*
X8886217Y27436081D01*
X8884293Y27434158D01*
X8908266Y27392651D01*
X8908900Y27382981D01*
X8908900Y24974814D01*
X8887226Y24922488D01*
X5646946Y21682209D01*
X5646874Y21682180D01*
X5646844Y21682107D01*
X5646051Y21681839D01*
X5594620Y21660535D01*
X5594475Y21660535D01*
X5589085Y21660546D01*
X5588509Y21660700D01*
X5510020Y21660700D01*
X5483810Y21671617D01*
X5457839Y21682374D01*
X5457809Y21682446D01*
X5457737Y21682476D01*
X5446926Y21708721D01*
X5436165Y21734700D01*
X5436179Y21734810D01*
X5436165Y21734845D01*
X5436192Y21734913D01*
X5438687Y21753853D01*
X5450835Y21799189D01*
X5467099Y21859889D01*
X5467100Y21859889D01*
X5467100Y21978511D01*
X5467099Y21978512D01*
X5436400Y22093083D01*
X5436398Y22093088D01*
X5377091Y22195810D01*
X5377090Y22195811D01*
X5377089Y22195813D01*
X5293213Y22279689D01*
X5293210Y22279691D01*
X5293209Y22279692D01*
X5190487Y22338999D01*
X5190482Y22339001D01*
X5075911Y22369700D01*
X5075909Y22369700D01*
X4957291Y22369700D01*
X4957289Y22369700D01*
X4842717Y22339001D01*
X4842712Y22338999D01*
X4739990Y22279692D01*
X4656108Y22195810D01*
X4596801Y22093088D01*
X4596799Y22093083D01*
X4566100Y21978512D01*
X4566100Y21859889D01*
X4596799Y21745318D01*
X4596801Y21745313D01*
X4656108Y21642591D01*
X4656109Y21642590D01*
X4656111Y21642587D01*
X4739987Y21558711D01*
X4739989Y21558710D01*
X4739990Y21558709D01*
X4775317Y21538313D01*
X4842714Y21499401D01*
X4842715Y21499401D01*
X4842717Y21499400D01*
X4855261Y21496039D01*
X4957288Y21468701D01*
X4957289Y21468700D01*
X5035635Y21468700D01*
X5087961Y21447026D01*
X5109635Y21394700D01*
X5107113Y21375547D01*
X5078700Y21269512D01*
X5078700Y21146041D01*
X5075998Y21146041D01*
X5063538Y21099685D01*
X5057191Y21092454D01*
X3203603Y19238864D01*
X3133134Y19168395D01*
X3095000Y19076330D01*
X3095000Y15272519D01*
X3073326Y15220193D01*
X3071417Y15218520D01*
X2985008Y15132110D01*
X2925701Y15029388D01*
X2925699Y15029383D01*
X2895000Y14914812D01*
X2895000Y14796189D01*
X2925699Y14681618D01*
X2925701Y14681613D01*
X2985008Y14578891D01*
X2985009Y14578890D01*
X2985011Y14578887D01*
X3068887Y14495011D01*
X3068889Y14495010D01*
X3068890Y14495009D01*
X3157714Y14443726D01*
X3171614Y14435701D01*
X3171615Y14435701D01*
X3171617Y14435700D01*
X3228902Y14420351D01*
X3286188Y14405001D01*
X3286189Y14405000D01*
X3286191Y14405000D01*
X3404811Y14405000D01*
X3404811Y14405001D01*
X3519386Y14435701D01*
X3555038Y14456285D01*
X3580200Y14470812D01*
X3636352Y14478205D01*
X3681286Y14443726D01*
X3691200Y14406726D01*
X3691200Y12944271D01*
X3729334Y12852206D01*
X3729336Y12852203D01*
X5451092Y11130448D01*
X5472766Y11078122D01*
X5472600Y11075586D01*
X5472600Y10953389D01*
X5503299Y10838818D01*
X5503301Y10838813D01*
X5562608Y10736091D01*
X5562609Y10736090D01*
X5562611Y10736087D01*
X5646487Y10652211D01*
X5749214Y10592901D01*
X5749215Y10592901D01*
X5749217Y10592900D01*
X5774696Y10586073D01*
X5863788Y10562201D01*
X5863789Y10562200D01*
X5863791Y10562200D01*
X5982411Y10562200D01*
X5982411Y10562201D01*
X6096986Y10592901D01*
X6199713Y10652211D01*
X6283589Y10736087D01*
X6342899Y10838814D01*
X6373599Y10953389D01*
X6373600Y10953389D01*
X6373600Y11072011D01*
X6373599Y11072012D01*
X6372641Y11075586D01*
X6346081Y11174710D01*
X6342900Y11186583D01*
X6342898Y11186588D01*
X6283591Y11289310D01*
X6283590Y11289311D01*
X6283589Y11289313D01*
X6199713Y11373189D01*
X6199710Y11373191D01*
X6199709Y11373192D01*
X6096987Y11432499D01*
X6096982Y11432501D01*
X5982411Y11463200D01*
X5982409Y11463200D01*
X5863791Y11463200D01*
X5858941Y11463200D01*
X5858941Y11465913D01*
X5812617Y11478336D01*
X5805352Y11484708D01*
X5020536Y12269524D01*
X4938838Y12351222D01*
X4917165Y12403547D01*
X4938839Y12455873D01*
X4991165Y12477547D01*
X5028165Y12467633D01*
X5091612Y12431002D01*
X5091614Y12431001D01*
X5091615Y12431001D01*
X5091617Y12431000D01*
X5148902Y12415651D01*
X5206188Y12400301D01*
X5206189Y12400300D01*
X5206191Y12400300D01*
X5324811Y12400300D01*
X5324811Y12400301D01*
X5439386Y12431001D01*
X5542113Y12490311D01*
X5625989Y12574187D01*
X5685299Y12676914D01*
X5715999Y12791489D01*
X5716000Y12791489D01*
X5716000Y12914960D01*
X5718730Y12914960D01*
X5731095Y12961231D01*
X5737499Y12968540D01*
X9657874Y16888916D01*
X9710200Y16910589D01*
X9762526Y16888915D01*
X9784200Y16836589D01*
X9784200Y16499414D01*
X9762526Y16447088D01*
X6946437Y13630999D01*
X6946434Y13630995D01*
X6908300Y13538930D01*
X6908300Y11074213D01*
X6886626Y11021887D01*
X5260015Y9395277D01*
X5207689Y9373603D01*
X5155363Y9395277D01*
X5136211Y9428449D01*
X5118999Y9492686D01*
X5077594Y9564401D01*
X5059691Y9595410D01*
X5059690Y9595411D01*
X5059689Y9595413D01*
X4975813Y9679289D01*
X4975810Y9679291D01*
X4975809Y9679292D01*
X4873087Y9738599D01*
X4873082Y9738601D01*
X4758511Y9769300D01*
X4758509Y9769300D01*
X4639891Y9769300D01*
X4639889Y9769300D01*
X4525317Y9738601D01*
X4525312Y9738599D01*
X4422590Y9679292D01*
X4338708Y9595410D01*
X4279401Y9492688D01*
X4279399Y9492683D01*
X4248700Y9378112D01*
X4248700Y9259489D01*
X4279399Y9144918D01*
X4279401Y9144913D01*
X4338708Y9042191D01*
X4338709Y9042190D01*
X4338711Y9042187D01*
X4422587Y8958311D01*
X4422589Y8958310D01*
X4422590Y8958309D01*
X4513197Y8905997D01*
X4519283Y8898065D01*
X4528522Y8894238D01*
X4535915Y8876390D01*
X4547675Y8861064D01*
X4546370Y8851151D01*
X4550197Y8841912D01*
X4542804Y8824064D01*
X4540283Y8804911D01*
X4528524Y8789586D01*
X4503437Y8764498D01*
X4503435Y8764496D01*
X3357895Y7618957D01*
X3297837Y7558899D01*
X3297834Y7558895D01*
X3259700Y7466830D01*
X3259700Y5943514D01*
X3238026Y5891188D01*
X1864546Y4517709D01*
X1812220Y4496035D01*
X1809685Y4496200D01*
X1806109Y4496200D01*
X1687491Y4496200D01*
X1687489Y4496200D01*
X1572917Y4465501D01*
X1572912Y4465499D01*
X1545000Y4449383D01*
X1488847Y4441991D01*
X1443914Y4476469D01*
X1434000Y4513469D01*
X1434000Y22425988D01*
X1455673Y22478313D01*
X2866153Y23888794D01*
X2918478Y23910467D01*
X2918479Y23910467D01*
X2923967Y23910467D01*
X2924591Y23910300D01*
X3043209Y23910300D01*
X3043828Y23910467D01*
X3049322Y23910466D01*
X3071345Y23901344D01*
X3094370Y23895174D01*
X3101647Y23888792D01*
X3624802Y23365637D01*
X3624805Y23365635D01*
X3640418Y23359168D01*
X3716872Y23327500D01*
X3816527Y23327500D01*
X4220381Y23327500D01*
X4272707Y23305826D01*
X4274380Y23303918D01*
X4276910Y23301388D01*
X4276911Y23301387D01*
X4360787Y23217511D01*
X4360789Y23217510D01*
X4360790Y23217509D01*
X4463512Y23158202D01*
X4463514Y23158201D01*
X4463515Y23158201D01*
X4463517Y23158200D01*
X4518405Y23143493D01*
X4578088Y23127501D01*
X4578089Y23127500D01*
X4578091Y23127500D01*
X4696711Y23127500D01*
X4696711Y23127501D01*
X4811286Y23158201D01*
X4914013Y23217511D01*
X4997889Y23301387D01*
X5057199Y23404114D01*
X5087899Y23518689D01*
X5087900Y23518689D01*
X5087900Y23637311D01*
X5087899Y23637312D01*
X5086670Y23641897D01*
X5067084Y23714995D01*
X5057200Y23751883D01*
X5057198Y23751888D01*
X4997891Y23854610D01*
X4997890Y23854611D01*
X4997889Y23854613D01*
X4914013Y23938489D01*
X4914010Y23938491D01*
X4914009Y23938492D01*
X4811287Y23997799D01*
X4811282Y23997801D01*
X4696711Y24028500D01*
X4696709Y24028500D01*
X4578091Y24028500D01*
X4578089Y24028500D01*
X4463517Y23997801D01*
X4463512Y23997799D01*
X4360790Y23938492D01*
X4273481Y23851183D01*
X4271557Y23853107D01*
X4230051Y23829134D01*
X4220381Y23828500D01*
X3901113Y23828500D01*
X3848787Y23850174D01*
X3455908Y24243053D01*
X3434234Y24295379D01*
X3434400Y24297912D01*
X3434400Y24420111D01*
X3434399Y24420112D01*
X3403700Y24534683D01*
X3403698Y24534688D01*
X3344391Y24637410D01*
X3344390Y24637411D01*
X3344389Y24637413D01*
X3260513Y24721289D01*
X3260510Y24721291D01*
X3260509Y24721292D01*
X3157787Y24780599D01*
X3157782Y24780601D01*
X3043211Y24811300D01*
X3043209Y24811300D01*
X2924591Y24811300D01*
X2924589Y24811300D01*
X2810017Y24780601D01*
X2810012Y24780599D01*
X2707290Y24721292D01*
X2623408Y24637410D01*
X2564101Y24534688D01*
X2564099Y24534683D01*
X2533400Y24420112D01*
X2533400Y24296641D01*
X2530698Y24296641D01*
X2518238Y24250285D01*
X2511891Y24243054D01*
X1041603Y22772764D01*
X971134Y22702295D01*
X933000Y22610230D01*
X250500Y22610230D01*
X250500Y30109107D01*
X272174Y30161433D01*
X324500Y30183107D01*
X376826Y30161433D01*
X394573Y30132893D01*
X412614Y30079745D01*
X612211Y29675003D01*
X612217Y29674992D01*
X861812Y29301447D01*
X862930Y29299774D01*
X1160481Y28960482D01*
X1499773Y28662931D01*
X1623733Y28580104D01*
X1874990Y28412219D01*
X1874995Y28412216D01*
X1875000Y28412213D01*
X2279742Y28212616D01*
X2707074Y28067556D01*
X2707078Y28067556D01*
X2707082Y28067554D01*
X2928379Y28023536D01*
X3149684Y27979516D01*
X3600000Y27950000D01*
X4050315Y27979516D01*
X4379319Y28044959D01*
X4492916Y28067554D01*
X4492917Y28067555D01*
X4492925Y28067556D01*
X4920257Y28212616D01*
X5324999Y28412213D01*
X5700226Y28662931D01*
X6039518Y28960482D01*
X6337069Y29299774D01*
X6587787Y29675001D01*
X6787384Y30079743D01*
X6907744Y30434312D01*
X8724500Y30434312D01*
X8724500Y30315689D01*
X8755199Y30201118D01*
X8755201Y30201113D01*
X8814508Y30098391D01*
X8814509Y30098390D01*
X8814511Y30098387D01*
X8898387Y30014511D01*
X9001114Y29955201D01*
X9001115Y29955201D01*
X9001117Y29955200D01*
X9058402Y29939851D01*
X9115688Y29924501D01*
X9115689Y29924500D01*
X9115691Y29924500D01*
X9234311Y29924500D01*
X9234311Y29924501D01*
X9348886Y29955201D01*
X9451613Y30014511D01*
X9535489Y30098387D01*
X9594799Y30201114D01*
X9625499Y30315689D01*
X9625500Y30315689D01*
X9625500Y30434311D01*
X9625499Y30434312D01*
X9604896Y30511206D01*
X9601063Y30525512D01*
X22549500Y30525512D01*
X22549500Y30406889D01*
X22580199Y30292318D01*
X22580201Y30292313D01*
X22639508Y30189591D01*
X22639509Y30189590D01*
X22639511Y30189587D01*
X22723387Y30105711D01*
X22826114Y30046401D01*
X22826115Y30046401D01*
X22826117Y30046400D01*
X22883402Y30031051D01*
X22940688Y30015701D01*
X22940689Y30015700D01*
X22940691Y30015700D01*
X23059311Y30015700D01*
X23059311Y30015701D01*
X23173886Y30046401D01*
X23276613Y30105711D01*
X23360489Y30189587D01*
X23419799Y30292314D01*
X23450499Y30406889D01*
X23450500Y30406889D01*
X23450500Y30525511D01*
X23450499Y30525512D01*
X23444235Y30548888D01*
X23419799Y30640086D01*
X23360489Y30742813D01*
X23276613Y30826689D01*
X23276610Y30826691D01*
X23276609Y30826692D01*
X23173887Y30885999D01*
X23173882Y30886001D01*
X23059311Y30916700D01*
X23059309Y30916700D01*
X22940691Y30916700D01*
X22940689Y30916700D01*
X22826117Y30886001D01*
X22826112Y30885999D01*
X22723390Y30826692D01*
X22639508Y30742810D01*
X22580201Y30640088D01*
X22580199Y30640083D01*
X22549500Y30525512D01*
X9601063Y30525512D01*
X9594800Y30548883D01*
X9594798Y30548888D01*
X9535491Y30651610D01*
X9535490Y30651611D01*
X9535489Y30651613D01*
X9451613Y30735489D01*
X9451610Y30735491D01*
X9451609Y30735492D01*
X9348887Y30794799D01*
X9348882Y30794801D01*
X9234311Y30825500D01*
X9234309Y30825500D01*
X9115691Y30825500D01*
X9115689Y30825500D01*
X9001117Y30794801D01*
X9001112Y30794799D01*
X8898390Y30735492D01*
X8814508Y30651610D01*
X8755201Y30548888D01*
X8755199Y30548883D01*
X8724500Y30434312D01*
X6907744Y30434312D01*
X6932444Y30507075D01*
X7020484Y30949685D01*
X7050000Y31400000D01*
X7020484Y31850316D01*
X6932444Y32292926D01*
X6787384Y32720258D01*
X6587787Y33125001D01*
X6587784Y33125006D01*
X6587781Y33125011D01*
X6337070Y33500225D01*
X6337069Y33500227D01*
X6039518Y33839519D01*
X5700226Y34137070D01*
X5698553Y34138188D01*
X5325008Y34387783D01*
X5324997Y34387789D01*
X4920255Y34587386D01*
X4867107Y34605427D01*
X4824524Y34642771D01*
X4820820Y34699286D01*
X4858164Y34741869D01*
X4890893Y34749500D01*
X24675500Y34749500D01*
X24727826Y34727826D01*
G37*
%TD.AperFunction*%
%TD*%
M02*
