%TF.GenerationSoftware,KiCad,Pcbnew,9.0.8+dfsg-1*%
%TF.CreationDate,2026-09-09T05:58:36+05:30*%
%TF.ProjectId,smove-r2-main,736d6f76-652d-4723-922d-6d61696e2e6b,rev?*%
%TF.SameCoordinates,Original*%
%TF.FileFunction,Copper,L1,Top*%
%TF.FilePolarity,Positive*%
%FSLAX46Y46*%
G04 Gerber Fmt 4.6, Leading zero omitted, Abs format (unit mm)*
G04 Created by KiCad (PCBNEW 9.0.8+dfsg-1) date 2026-09-09 05:58:36*
%MOMM*%
%LPD*%
G01*
G04 APERTURE LIST*
G04 Aperture macros list*
%AMRoundRect*
0 Rectangle with rounded corners*
0 $1 Rounding radius*
0 $2 $3 $4 $5 $6 $7 $8 $9 X,Y pos of 4 corners*
0 Add a 4 corners polygon primitive as box body*
4,1,4,$2,$3,$4,$5,$6,$7,$8,$9,$2,$3,0*
0 Add four circle primitives for the rounded corners*
1,1,$1+$1,$2,$3*
1,1,$1+$1,$4,$5*
1,1,$1+$1,$6,$7*
1,1,$1+$1,$8,$9*
0 Add four rect primitives between the rounded corners*
20,1,$1+$1,$2,$3,$4,$5,0*
20,1,$1+$1,$4,$5,$6,$7,0*
20,1,$1+$1,$6,$7,$8,$9,0*
20,1,$1+$1,$8,$9,$2,$3,0*%
%AMFreePoly0*
4,1,6,0.725000,-0.725000,-0.725000,-0.725000,-0.725000,0.125000,-0.125000,0.725000,0.725000,0.725000,0.725000,-0.725000,0.725000,-0.725000,$1*%
G04 Aperture macros list end*
%TA.AperFunction,SMDPad,CuDef*%
%ADD10RoundRect,0.135000X0.185000X-0.135000X0.185000X0.135000X-0.185000X0.135000X-0.185000X-0.135000X0*%
%TD*%
%TA.AperFunction,SMDPad,CuDef*%
%ADD11RoundRect,0.150000X-0.150000X0.512500X-0.150000X-0.512500X0.150000X-0.512500X0.150000X0.512500X0*%
%TD*%
%TA.AperFunction,SMDPad,CuDef*%
%ADD12RoundRect,0.157500X0.842500X-0.367500X0.842500X0.367500X-0.842500X0.367500X-0.842500X-0.367500X0*%
%TD*%
%TA.AperFunction,SMDPad,CuDef*%
%ADD13RoundRect,0.140000X0.170000X-0.140000X0.170000X0.140000X-0.170000X0.140000X-0.170000X-0.140000X0*%
%TD*%
%TA.AperFunction,SMDPad,CuDef*%
%ADD14RoundRect,0.140000X-0.170000X0.140000X-0.170000X-0.140000X0.170000X-0.140000X0.170000X0.140000X0*%
%TD*%
%TA.AperFunction,SMDPad,CuDef*%
%ADD15R,0.650000X0.850000*%
%TD*%
%TA.AperFunction,SMDPad,CuDef*%
%ADD16RoundRect,0.050000X-0.050000X0.225000X-0.050000X-0.225000X0.050000X-0.225000X0.050000X0.225000X0*%
%TD*%
%TA.AperFunction,SMDPad,CuDef*%
%ADD17RoundRect,0.050000X-0.225000X-0.050000X0.225000X-0.050000X0.225000X0.050000X-0.225000X0.050000X0*%
%TD*%
%TA.AperFunction,SMDPad,CuDef*%
%ADD18RoundRect,0.140000X0.140000X0.170000X-0.140000X0.170000X-0.140000X-0.170000X0.140000X-0.170000X0*%
%TD*%
%TA.AperFunction,SMDPad,CuDef*%
%ADD19RoundRect,0.135000X-0.135000X-0.185000X0.135000X-0.185000X0.135000X0.185000X-0.135000X0.185000X0*%
%TD*%
%TA.AperFunction,SMDPad,CuDef*%
%ADD20R,1.450000X0.600000*%
%TD*%
%TA.AperFunction,SMDPad,CuDef*%
%ADD21R,1.450000X0.300000*%
%TD*%
%TA.AperFunction,HeatsinkPad*%
%ADD22O,2.100000X1.000000*%
%TD*%
%TA.AperFunction,HeatsinkPad*%
%ADD23O,1.600000X1.000000*%
%TD*%
%TA.AperFunction,SMDPad,CuDef*%
%ADD24RoundRect,0.045000X-0.105000X0.380000X-0.105000X-0.380000X0.105000X-0.380000X0.105000X0.380000X0*%
%TD*%
%TA.AperFunction,SMDPad,CuDef*%
%ADD25RoundRect,0.250000X0.250000X0.475000X-0.250000X0.475000X-0.250000X-0.475000X0.250000X-0.475000X0*%
%TD*%
%TA.AperFunction,ComponentPad*%
%ADD26C,2.000000*%
%TD*%
%TA.AperFunction,SMDPad,CuDef*%
%ADD27RoundRect,0.150000X-0.512500X-0.150000X0.512500X-0.150000X0.512500X0.150000X-0.512500X0.150000X0*%
%TD*%
%TA.AperFunction,SMDPad,CuDef*%
%ADD28RoundRect,0.225000X-0.225000X-0.250000X0.225000X-0.250000X0.225000X0.250000X-0.225000X0.250000X0*%
%TD*%
%TA.AperFunction,SMDPad,CuDef*%
%ADD29RoundRect,0.225000X-0.250000X0.225000X-0.250000X-0.225000X0.250000X-0.225000X0.250000X0.225000X0*%
%TD*%
%TA.AperFunction,SMDPad,CuDef*%
%ADD30R,0.800000X0.400000*%
%TD*%
%TA.AperFunction,SMDPad,CuDef*%
%ADD31R,0.400000X0.800000*%
%TD*%
%TA.AperFunction,SMDPad,CuDef*%
%ADD32FreePoly0,0.000000*%
%TD*%
%TA.AperFunction,SMDPad,CuDef*%
%ADD33R,1.450000X1.450000*%
%TD*%
%TA.AperFunction,SMDPad,CuDef*%
%ADD34R,0.700000X0.700000*%
%TD*%
%TA.AperFunction,SMDPad,CuDef*%
%ADD35RoundRect,0.250000X0.475000X-0.250000X0.475000X0.250000X-0.475000X0.250000X-0.475000X-0.250000X0*%
%TD*%
%TA.AperFunction,SMDPad,CuDef*%
%ADD36RoundRect,0.135000X0.135000X0.185000X-0.135000X0.185000X-0.135000X-0.185000X0.135000X-0.185000X0*%
%TD*%
%TA.AperFunction,SMDPad,CuDef*%
%ADD37RoundRect,0.150000X0.150000X-0.587500X0.150000X0.587500X-0.150000X0.587500X-0.150000X-0.587500X0*%
%TD*%
%TA.AperFunction,SMDPad,CuDef*%
%ADD38RoundRect,0.036000X-0.264000X-0.084000X0.264000X-0.084000X0.264000X0.084000X-0.264000X0.084000X0*%
%TD*%
%TA.AperFunction,SMDPad,CuDef*%
%ADD39RoundRect,0.036000X-0.084000X-0.264000X0.084000X-0.264000X0.084000X0.264000X-0.084000X0.264000X0*%
%TD*%
%TA.AperFunction,SMDPad,CuDef*%
%ADD40RoundRect,0.252000X-0.588000X-0.588000X0.588000X-0.588000X0.588000X0.588000X-0.588000X0.588000X0*%
%TD*%
%TA.AperFunction,SMDPad,CuDef*%
%ADD41RoundRect,0.140000X-0.140000X-0.170000X0.140000X-0.170000X0.140000X0.170000X-0.140000X0.170000X0*%
%TD*%
%TA.AperFunction,ViaPad*%
%ADD42C,0.600000*%
%TD*%
%TA.AperFunction,ViaPad*%
%ADD43C,0.450000*%
%TD*%
%TA.AperFunction,Conductor*%
%ADD44C,0.200000*%
%TD*%
%TA.AperFunction,Conductor*%
%ADD45C,0.150000*%
%TD*%
%TA.AperFunction,Conductor*%
%ADD46C,0.500000*%
%TD*%
%TA.AperFunction,Conductor*%
%ADD47C,0.127000*%
%TD*%
G04 APERTURE END LIST*
D10*
%TO.P,R9,1*%
%TO.N,/3V3_MAIN*%
X23000000Y27990000D03*
%TO.P,R9,2*%
%TO.N,/Compute/STRAP2*%
X23000000Y29010000D03*
%TD*%
D11*
%TO.P,U5,1*%
%TO.N,/3V3_MAIN*%
X3950000Y19887500D03*
%TO.P,U5,2*%
%TO.N,GND*%
X3000000Y19887500D03*
%TO.P,U5,3*%
%TO.N,/3V3_MAIN*%
X2050000Y19887500D03*
%TO.P,U5,4*%
%TO.N,unconnected-(U5-NC-Pad4)*%
X2050000Y17612500D03*
%TO.P,U5,5*%
%TO.N,/IMU/1V8_IMU*%
X3950000Y17612500D03*
%TD*%
D12*
%TO.P,SW2,1*%
%TO.N,/Compute/MCU_EN*%
X21500000Y7575000D03*
%TO.P,SW2,2*%
%TO.N,GND*%
X21500000Y12025000D03*
%TD*%
D10*
%TO.P,R4,1*%
%TO.N,/USB_DP*%
X23000000Y25740000D03*
%TO.P,R4,2*%
%TO.N,/Compute/USB_DP_MCU*%
X23000000Y26760000D03*
%TD*%
D13*
%TO.P,C10,1*%
%TO.N,/Compute/MCU_EN*%
X7250000Y19770000D03*
%TO.P,C10,2*%
%TO.N,GND*%
X7250000Y20730000D03*
%TD*%
D10*
%TO.P,R17,1*%
%TO.N,/IMU/1V8_IMU*%
X7250000Y10490000D03*
%TO.P,R17,2*%
%TO.N,/IMU/SDA_1V8*%
X7250000Y11510000D03*
%TD*%
D14*
%TO.P,C8,1*%
%TO.N,/IMU/1V8_IMU*%
X9750000Y19980000D03*
%TO.P,C8,2*%
%TO.N,GND*%
X9750000Y19020000D03*
%TD*%
D15*
%TO.P,D1,1*%
%TO.N,/Compute/LED_R_K*%
X15575000Y8925000D03*
%TO.P,D1,2*%
%TO.N,/Compute/LED_G_K*%
X16425000Y8925000D03*
%TO.P,D1,3*%
%TO.N,/Compute/LED_B_K*%
X16425000Y7475000D03*
%TO.P,D1,4*%
%TO.N,/3V3_MAIN*%
X15575000Y7475000D03*
%TD*%
D16*
%TO.P,U2,1*%
%TO.N,unconnected-(U2-NC-Pad1)*%
X13500000Y19000000D03*
%TO.P,U2,2*%
%TO.N,unconnected-(U2-NC-Pad2)*%
X13100000Y19000000D03*
%TO.P,U2,3*%
%TO.N,unconnected-(U2-NC-Pad3)*%
X12700000Y19000000D03*
%TO.P,U2,4*%
%TO.N,unconnected-(U2-NC-Pad4)*%
X12300000Y19000000D03*
%TO.P,U2,5*%
%TO.N,unconnected-(U2-NC-Pad5)*%
X11900000Y19000000D03*
%TO.P,U2,6*%
%TO.N,unconnected-(U2-NC-Pad6)*%
X11500000Y19000000D03*
D17*
%TO.P,U2,7*%
%TO.N,unconnected-(U2-AUX_CL-Pad7)*%
X11000000Y18500000D03*
%TO.P,U2,8*%
%TO.N,/IMU/1V8_IMU*%
X11000000Y18100000D03*
%TO.P,U2,9*%
%TO.N,GND*%
X11000000Y17700000D03*
%TO.P,U2,10*%
%TO.N,/IMU/IMU_REGOUT*%
X11000000Y17300000D03*
%TO.P,U2,11*%
%TO.N,GND*%
X11000000Y16900000D03*
%TO.P,U2,12*%
%TO.N,unconnected-(U2-INT1-Pad12)*%
X11000000Y16500000D03*
D16*
%TO.P,U2,13*%
%TO.N,/IMU/1V8_IMU*%
X11500000Y16000000D03*
%TO.P,U2,14*%
%TO.N,unconnected-(U2-NC-Pad14)*%
X11900000Y16000000D03*
%TO.P,U2,15*%
%TO.N,unconnected-(U2-NC-Pad15)*%
X12300000Y16000000D03*
%TO.P,U2,16*%
%TO.N,unconnected-(U2-NC-Pad16)*%
X12700000Y16000000D03*
%TO.P,U2,17*%
%TO.N,unconnected-(U2-NC-Pad17)*%
X13100000Y16000000D03*
%TO.P,U2,18*%
%TO.N,GND*%
X13500000Y16000000D03*
D17*
%TO.P,U2,19*%
%TO.N,unconnected-(U2-RESV_NC-Pad19)*%
X14000000Y16500000D03*
%TO.P,U2,20*%
%TO.N,GND*%
X14000000Y16900000D03*
%TO.P,U2,21*%
%TO.N,unconnected-(U2-AUX_DA-Pad21)*%
X14000000Y17300000D03*
%TO.P,U2,22*%
%TO.N,/IMU/1V8_IMU*%
X14000000Y17700000D03*
%TO.P,U2,23*%
%TO.N,/IMU/SCL_1V8*%
X14000000Y18100000D03*
%TO.P,U2,24*%
%TO.N,/IMU/SDA_1V8*%
X14000000Y18500000D03*
%TD*%
D18*
%TO.P,C4,1*%
%TO.N,/3V3_MAIN*%
X6230000Y27000000D03*
%TO.P,C4,2*%
%TO.N,GND*%
X5270000Y27000000D03*
%TD*%
D19*
%TO.P,R5,1*%
%TO.N,/3V3_MAIN*%
X12490000Y13500000D03*
%TO.P,R5,2*%
%TO.N,/USB_POWER_N*%
X13510000Y13500000D03*
%TD*%
D20*
%TO.P,J1,A1*%
%TO.N,GND*%
X17055000Y14950000D03*
%TO.P,J1,A4*%
%TO.N,/VBUS*%
X17055000Y15750000D03*
D21*
%TO.P,J1,A5*%
%TO.N,/USB/CC1*%
X17055000Y16950000D03*
%TO.P,J1,A6*%
%TO.N,/USB_DP*%
X17055000Y17950000D03*
%TO.P,J1,A7*%
%TO.N,/USB_DM*%
X17055000Y18450000D03*
%TO.P,J1,A8*%
%TO.N,unconnected-(J1-SBU1-PadA8)*%
X17055000Y19450000D03*
D20*
%TO.P,J1,A9*%
%TO.N,/VBUS*%
X17055000Y20650000D03*
%TO.P,J1,A12*%
%TO.N,GND*%
X17055000Y21450000D03*
%TO.P,J1,B1*%
X17055000Y21450000D03*
%TO.P,J1,B4*%
%TO.N,/VBUS*%
X17055000Y20650000D03*
D21*
%TO.P,J1,B5*%
%TO.N,/USB/CC2*%
X17055000Y19950000D03*
%TO.P,J1,B6*%
%TO.N,/USB_DP*%
X17055000Y18950000D03*
%TO.P,J1,B7*%
%TO.N,/USB_DM*%
X17055000Y17450000D03*
%TO.P,J1,B8*%
%TO.N,unconnected-(J1-SBU2-PadB8)*%
X17055000Y16450000D03*
D20*
%TO.P,J1,B9*%
%TO.N,/VBUS*%
X17055000Y15750000D03*
%TO.P,J1,B12*%
%TO.N,GND*%
X17055000Y14950000D03*
D22*
%TO.P,J1,S1*%
X17970000Y13880000D03*
D23*
X22150000Y13880000D03*
D22*
X17970000Y22520000D03*
D23*
X22150000Y22520000D03*
%TD*%
D14*
%TO.P,C7,1*%
%TO.N,/IMU/1V8_IMU*%
X11250000Y14730000D03*
%TO.P,C7,2*%
%TO.N,GND*%
X11250000Y13770000D03*
%TD*%
D19*
%TO.P,R23,1*%
%TO.N,/Power/TS_NO_CELL_SENSING*%
X740000Y10500000D03*
%TO.P,R23,2*%
%TO.N,GND*%
X1760000Y10500000D03*
%TD*%
D24*
%TO.P,U3,1*%
%TO.N,GND*%
X6000000Y15050000D03*
%TO.P,U3,2*%
%TO.N,/IMU/1V8_IMU*%
X5500000Y15050000D03*
%TO.P,U3,3*%
%TO.N,/IMU/SCL_1V8*%
X5000000Y15050000D03*
%TO.P,U3,4*%
%TO.N,/IMU/SDA_1V8*%
X4500000Y15050000D03*
%TO.P,U3,5*%
%TO.N,/SDA_HOST*%
X4500000Y11950000D03*
%TO.P,U3,6*%
%TO.N,/SCL_HOST*%
X5000000Y11950000D03*
%TO.P,U3,7*%
%TO.N,/IMU/I2C_BIAS*%
X5500000Y11950000D03*
%TO.P,U3,8*%
X6000000Y11950000D03*
%TD*%
D18*
%TO.P,C9,1*%
%TO.N,/IMU/IMU_REGOUT*%
X9730000Y17250000D03*
%TO.P,C9,2*%
%TO.N,GND*%
X8770000Y17250000D03*
%TD*%
D19*
%TO.P,R3,1*%
%TO.N,/USB_DM*%
X21740000Y24500000D03*
%TO.P,R3,2*%
%TO.N,/Compute/USB_DM_MCU*%
X22760000Y24500000D03*
%TD*%
%TO.P,R18,1*%
%TO.N,/3V3_MAIN*%
X7490000Y18500000D03*
%TO.P,R18,2*%
%TO.N,/SCL_HOST*%
X8510000Y18500000D03*
%TD*%
%TO.P,R2,1*%
%TO.N,/USB/CC2*%
X17740000Y12000000D03*
%TO.P,R2,2*%
%TO.N,GND*%
X18760000Y12000000D03*
%TD*%
D10*
%TO.P,R15,1*%
%TO.N,/BAT_ADC*%
X10750000Y21740000D03*
%TO.P,R15,2*%
%TO.N,GND*%
X10750000Y22760000D03*
%TD*%
D25*
%TO.P,C3,1*%
%TO.N,/3V3_MAIN*%
X3700000Y26750000D03*
%TO.P,C3,2*%
%TO.N,GND*%
X1800000Y26750000D03*
%TD*%
D10*
%TO.P,R7,1*%
%TO.N,/3V3_MAIN*%
X2750000Y13240000D03*
%TO.P,R7,2*%
%TO.N,/Compute/MCU_EN*%
X2750000Y14260000D03*
%TD*%
D26*
%TO.P,J2,1*%
%TO.N,/Power/PACK_P*%
X11230000Y2400000D03*
%TO.P,J2,2*%
%TO.N,GND*%
X13770000Y2400000D03*
%TD*%
D27*
%TO.P,U4,1*%
%TO.N,/Power/SYS*%
X1862500Y24700000D03*
%TO.P,U4,2*%
%TO.N,GND*%
X1862500Y23750000D03*
%TO.P,U4,3*%
%TO.N,/Power/SYS*%
X1862500Y22800000D03*
%TO.P,U4,4*%
%TO.N,unconnected-(U4-NC-Pad4)*%
X4137500Y22800000D03*
%TO.P,U4,5*%
%TO.N,/3V3_MAIN*%
X4137500Y24700000D03*
%TD*%
D10*
%TO.P,R8,1*%
%TO.N,/3V3_MAIN*%
X21750000Y25740000D03*
%TO.P,R8,2*%
%TO.N,Net-(U1-GPIO9_{slash}_BOOT)*%
X21750000Y26760000D03*
%TD*%
D28*
%TO.P,C5,1*%
%TO.N,/3V3_MAIN*%
X1225000Y15750000D03*
%TO.P,C5,2*%
%TO.N,GND*%
X2775000Y15750000D03*
%TD*%
D29*
%TO.P,C6,1*%
%TO.N,/IMU/1V8_IMU*%
X5750000Y19525000D03*
%TO.P,C6,2*%
%TO.N,GND*%
X5750000Y17975000D03*
%TD*%
D30*
%TO.P,U1,1*%
%TO.N,GND*%
X8300000Y33400000D03*
%TO.P,U1,2*%
X8300000Y32600000D03*
%TO.P,U1,3*%
%TO.N,/3V3_MAIN*%
X8300000Y31800000D03*
%TO.P,U1,4*%
%TO.N,unconnected-(U1-NC-Pad4)*%
X8300000Y31000000D03*
%TO.P,U1,5*%
%TO.N,/Compute/STRAP2*%
X8300000Y30200000D03*
%TO.P,U1,6*%
%TO.N,unconnected-(U1-GPIO3-Pad6)*%
X8300000Y29400000D03*
%TO.P,U1,7*%
%TO.N,unconnected-(U1-NC-Pad7)*%
X8300000Y28600000D03*
%TO.P,U1,8*%
%TO.N,/Compute/MCU_EN*%
X8300000Y27800000D03*
%TO.P,U1,9*%
%TO.N,unconnected-(U1-NC-Pad9)*%
X8300000Y27000000D03*
%TO.P,U1,10*%
%TO.N,unconnected-(U1-NC-Pad10)*%
X8300000Y26200000D03*
%TO.P,U1,11*%
%TO.N,GND*%
X8300000Y25400000D03*
D31*
%TO.P,U1,12*%
%TO.N,/BAT_ADC*%
X9400000Y24500000D03*
%TO.P,U1,13*%
%TO.N,/USB_POWER_N*%
X10200000Y24500000D03*
%TO.P,U1,14*%
%TO.N,GND*%
X11000000Y24500000D03*
%TO.P,U1,15*%
%TO.N,unconnected-(U1-NC-Pad15)*%
X11800000Y24500000D03*
%TO.P,U1,16*%
%TO.N,/Compute/LED_B*%
X12600000Y24500000D03*
%TO.P,U1,17*%
%TO.N,unconnected-(U1-NC-Pad17)*%
X13400000Y24500000D03*
%TO.P,U1,18*%
%TO.N,/SCL_HOST*%
X14200000Y24500000D03*
%TO.P,U1,19*%
%TO.N,/SDA_HOST*%
X15000000Y24500000D03*
%TO.P,U1,20*%
%TO.N,/Compute/LED_R*%
X15800000Y24500000D03*
%TO.P,U1,21*%
%TO.N,/Compute/LED_G*%
X16600000Y24500000D03*
%TO.P,U1,22*%
%TO.N,/Compute/STRAP8*%
X17400000Y24500000D03*
%TO.P,U1,23*%
%TO.N,Net-(U1-GPIO9_{slash}_BOOT)*%
X18200000Y24500000D03*
%TO.P,U1,24*%
%TO.N,unconnected-(U1-NC-Pad24)*%
X19000000Y24500000D03*
D30*
%TO.P,U1,25*%
%TO.N,unconnected-(U1-NC-Pad25)*%
X20100000Y25400000D03*
%TO.P,U1,26*%
%TO.N,/Compute/USB_DM_MCU*%
X20100000Y26200000D03*
%TO.P,U1,27*%
%TO.N,/Compute/USB_DP_MCU*%
X20100000Y27000000D03*
%TO.P,U1,28*%
%TO.N,unconnected-(U1-NC-Pad28)*%
X20100000Y27800000D03*
%TO.P,U1,29*%
%TO.N,unconnected-(U1-NC-Pad29)*%
X20100000Y28600000D03*
%TO.P,U1,30*%
%TO.N,unconnected-(U1-GPIO20_{slash}_RX-Pad30)*%
X20100000Y29400000D03*
%TO.P,U1,31*%
%TO.N,unconnected-(U1-GPIO21_{slash}_TX-Pad31)*%
X20100000Y30200000D03*
%TO.P,U1,32*%
%TO.N,unconnected-(U1-NC-Pad32)*%
X20100000Y31000000D03*
%TO.P,U1,33*%
%TO.N,unconnected-(U1-NC-Pad33)*%
X20100000Y31800000D03*
%TO.P,U1,34*%
%TO.N,unconnected-(U1-NC-Pad34)*%
X20100000Y32600000D03*
%TO.P,U1,35*%
%TO.N,unconnected-(U1-NC-Pad35)*%
X20100000Y33400000D03*
D31*
%TO.P,U1,36*%
%TO.N,GND*%
X19000000Y34300000D03*
%TO.P,U1,37*%
X18200000Y34300000D03*
%TO.P,U1,38*%
X17400000Y34300000D03*
%TO.P,U1,39*%
X16600000Y34300000D03*
%TO.P,U1,40*%
X15800000Y34300000D03*
%TO.P,U1,41*%
X15000000Y34300000D03*
%TO.P,U1,42*%
X14200000Y34300000D03*
%TO.P,U1,43*%
X13400000Y34300000D03*
%TO.P,U1,44*%
X12600000Y34300000D03*
%TO.P,U1,45*%
X11800000Y34300000D03*
%TO.P,U1,46*%
X11000000Y34300000D03*
%TO.P,U1,47*%
X10200000Y34300000D03*
%TO.P,U1,48*%
X9400000Y34300000D03*
D32*
%TO.P,U1,49*%
X12225000Y31375000D03*
D33*
X12225000Y29400000D03*
X12225000Y27425000D03*
X14200000Y31375000D03*
X14200000Y29400000D03*
X14200000Y27425000D03*
X16175000Y31375000D03*
X16175000Y29400000D03*
X16175000Y27425000D03*
D34*
%TO.P,U1,50*%
X20150000Y34350000D03*
%TO.P,U1,51*%
X20150000Y24450000D03*
%TO.P,U1,52*%
X8250000Y24450000D03*
%TO.P,U1,53*%
X8250000Y34350000D03*
%TD*%
D28*
%TO.P,C1,1*%
%TO.N,/VBUS*%
X1975000Y5000000D03*
%TO.P,C1,2*%
%TO.N,GND*%
X3525000Y5000000D03*
%TD*%
D10*
%TO.P,R10,1*%
%TO.N,/3V3_MAIN*%
X8500000Y19990000D03*
%TO.P,R10,2*%
%TO.N,/Compute/STRAP8*%
X8500000Y21010000D03*
%TD*%
D35*
%TO.P,C13,1*%
%TO.N,/Power/SYS*%
X6250000Y23550000D03*
%TO.P,C13,2*%
%TO.N,GND*%
X6250000Y25450000D03*
%TD*%
D19*
%TO.P,R13,1*%
%TO.N,/Compute/LED_B*%
X15490000Y11000000D03*
%TO.P,R13,2*%
%TO.N,/Compute/LED_B_K*%
X16510000Y11000000D03*
%TD*%
D36*
%TO.P,R22,1*%
%TO.N,/Power/CHG_ILIM*%
X6260000Y5500000D03*
%TO.P,R22,2*%
%TO.N,GND*%
X5240000Y5500000D03*
%TD*%
D10*
%TO.P,R20,1*%
%TO.N,/3V3_MAIN*%
X1500000Y12490000D03*
%TO.P,R20,2*%
%TO.N,/IMU/I2C_BIAS*%
X1500000Y13510000D03*
%TD*%
D19*
%TO.P,R19,1*%
%TO.N,/3V3_MAIN*%
X12740000Y14750000D03*
%TO.P,R19,2*%
%TO.N,/SDA_HOST*%
X13760000Y14750000D03*
%TD*%
D37*
%TO.P,U9,1*%
%TO.N,/USB/CC1*%
X7550000Y13562500D03*
%TO.P,U9,2*%
%TO.N,/USB/CC2*%
X9450000Y13562500D03*
%TO.P,U9,3*%
%TO.N,GND*%
X8500000Y15437500D03*
%TD*%
D38*
%TO.P,U6,1*%
%TO.N,/Power/TS_NO_CELL_SENSING*%
X1350000Y8750000D03*
%TO.P,U6,2*%
%TO.N,/Power/PACK_P*%
X1350000Y8250000D03*
%TO.P,U6,3*%
X1350000Y7750000D03*
%TO.P,U6,4*%
%TO.N,GND*%
X1350000Y7250000D03*
D39*
%TO.P,U6,5*%
X2000000Y6600000D03*
%TO.P,U6,6*%
X2500000Y6600000D03*
%TO.P,U6,7*%
%TO.N,/USB_POWER_N*%
X3000000Y6600000D03*
%TO.P,U6,8*%
%TO.N,GND*%
X3500000Y6600000D03*
D38*
%TO.P,U6,9*%
%TO.N,unconnected-(U6-CHG_N-Pad9)*%
X4150000Y7250000D03*
%TO.P,U6,10*%
%TO.N,/Power/SYS*%
X4150000Y7750000D03*
%TO.P,U6,11*%
X4150000Y8250000D03*
%TO.P,U6,12*%
%TO.N,/Power/CHG_ILIM*%
X4150000Y8750000D03*
D39*
%TO.P,U6,13*%
%TO.N,/VBUS*%
X3500000Y9400000D03*
%TO.P,U6,14*%
%TO.N,unconnected-(U6-TMR-Pad14)*%
X3000000Y9400000D03*
%TO.P,U6,15*%
%TO.N,unconnected-(U6-ITERM-Pad15)*%
X2500000Y9400000D03*
%TO.P,U6,16*%
%TO.N,/Power/CHG_ISET*%
X2000000Y9400000D03*
D40*
%TO.P,U6,17*%
%TO.N,GND*%
X2750000Y8000000D03*
%TD*%
D10*
%TO.P,R12,1*%
%TO.N,/Compute/LED_G*%
X14200000Y6190000D03*
%TO.P,R12,2*%
%TO.N,/Compute/LED_G_K*%
X14200000Y7210000D03*
%TD*%
D27*
%TO.P,U8,1*%
%TO.N,/USB_DM*%
X12362500Y22450000D03*
%TO.P,U8,2*%
%TO.N,GND*%
X12362500Y21500000D03*
%TO.P,U8,3*%
%TO.N,/USB_DP*%
X12362500Y20550000D03*
%TO.P,U8,4*%
X14637500Y20550000D03*
%TO.P,U8,5*%
%TO.N,/VBUS*%
X14637500Y21500000D03*
%TO.P,U8,6*%
%TO.N,/USB_DM*%
X14637500Y22450000D03*
%TD*%
D10*
%TO.P,R11,1*%
%TO.N,/Compute/LED_R*%
X14200000Y8490000D03*
%TO.P,R11,2*%
%TO.N,/Compute/LED_R_K*%
X14200000Y9510000D03*
%TD*%
%TO.P,R1,1*%
%TO.N,/USB/CC1*%
X15000000Y12990000D03*
%TO.P,R1,2*%
%TO.N,GND*%
X15000000Y14010000D03*
%TD*%
D35*
%TO.P,C2,1*%
%TO.N,/Power/PACK_P*%
X6750000Y7050000D03*
%TO.P,C2,2*%
%TO.N,GND*%
X6750000Y8950000D03*
%TD*%
D19*
%TO.P,R16,1*%
%TO.N,/IMU/1V8_IMU*%
X4240000Y10500000D03*
%TO.P,R16,2*%
%TO.N,/IMU/SCL_1V8*%
X5260000Y10500000D03*
%TD*%
D41*
%TO.P,C11,1*%
%TO.N,/BAT_ADC*%
X5770000Y22000000D03*
%TO.P,C11,2*%
%TO.N,GND*%
X6730000Y22000000D03*
%TD*%
D10*
%TO.P,R21,1*%
%TO.N,/Power/CHG_ISET*%
X3000000Y10490000D03*
%TO.P,R21,2*%
%TO.N,GND*%
X3000000Y11510000D03*
%TD*%
D12*
%TO.P,SW3,1*%
%TO.N,Net-(U1-GPIO9_{slash}_BOOT)*%
X10000000Y5775000D03*
%TO.P,SW3,2*%
%TO.N,GND*%
X10000000Y10225000D03*
%TD*%
D19*
%TO.P,R14,1*%
%TO.N,/Power/PACK_P*%
X7990000Y22250000D03*
%TO.P,R14,2*%
%TO.N,/BAT_ADC*%
X9010000Y22250000D03*
%TD*%
D42*
%TO.N,/3V3_MAIN*%
X4708300Y19375800D03*
X7940500Y19223400D03*
X23235100Y16900000D03*
%TO.N,/BAT_ADC*%
X9435900Y23223900D03*
X5016600Y21919200D03*
%TO.N,/USB/CC1*%
X8355300Y12388800D03*
X18263200Y16908600D03*
X14466700Y10554100D03*
%TO.N,/USB/CC2*%
X18805000Y11162800D03*
X18262100Y19571800D03*
X10594600Y13098400D03*
%TO.N,/Compute/LED_B*%
X16711100Y12429900D03*
X14005800Y25393800D03*
D43*
X15100000Y11350000D03*
D42*
%TO.N,/Compute/LED_G*%
X14993000Y6533200D03*
D43*
X19224700Y23660400D03*
D42*
%TO.N,/Compute/LED_R*%
X13179000Y26196100D03*
X13399900Y9290100D03*
D43*
%TO.N,/Compute/MCU_EN*%
X10650000Y11500000D03*
D42*
X21236800Y8562700D03*
X3345500Y14855500D03*
X5529200Y21210200D03*
D43*
X8350000Y11600000D03*
D42*
X9159400Y27800000D03*
D43*
X6550000Y11850000D03*
D42*
%TO.N,/Power/PACK_P*%
X8407900Y23003900D03*
D43*
X8900000Y11900000D03*
D42*
%TO.N,/Compute/STRAP2*%
X23000000Y30466200D03*
X9175000Y30375000D03*
%TO.N,/Compute/STRAP8*%
X17344200Y26143300D03*
X9248900Y21438700D03*
%TO.N,/Power/SYS*%
X1477200Y2584100D03*
X2983900Y24360800D03*
X4637400Y23578000D03*
X4925500Y8041700D03*
%TO.N,/USB_DM*%
X19540700Y16910400D03*
X18403500Y18458300D03*
%TO.N,/Compute/USB_DP_MCU*%
X20968400Y27539700D03*
X23599800Y27359800D03*
%TO.N,/USB_POWER_N*%
X10536400Y23629400D03*
X14032200Y12863600D03*
X4092800Y6401500D03*
%TO.N,/VBUS*%
X2735400Y4239600D03*
X15840500Y20301200D03*
X15731400Y16690500D03*
X4699200Y9318800D03*
%TO.N,GND*%
X11800000Y33434800D03*
X10000000Y11209900D03*
D43*
X803900Y24354900D03*
X2750000Y16750000D03*
X13500000Y7000000D03*
X15750000Y21750000D03*
X6750000Y2750000D03*
D42*
X1760000Y11282200D03*
D43*
X21250000Y23250000D03*
D42*
%TO.N,/IMU/1V8_IMU*%
X11130300Y19835600D03*
X5556800Y15941800D03*
X10926600Y15911200D03*
X6086000Y20460700D03*
X15062500Y17539100D03*
%TO.N,/IMU/SCL_1V8*%
X15075400Y18607000D03*
X4781300Y15971000D03*
X5923100Y11012700D03*
%TO.N,/IMU/SDA_1V8*%
X14108100Y19478200D03*
X3960800Y15988600D03*
%TO.N,/SCL_HOST*%
X5265500Y12850800D03*
X14200000Y23304300D03*
X9624000Y20731200D03*
%TO.N,/SDA_HOST*%
X15377200Y23615500D03*
X14598600Y15294700D03*
X4500000Y13458800D03*
%TO.N,Net-(U1-GPIO9_{slash}_BOOT)*%
X11006400Y6781400D03*
X21751000Y28660600D03*
X18177800Y25385300D03*
%TD*%
D44*
%TO.N,/3V3_MAIN*%
X7490000Y14966400D02*
X8119500Y14336900D01*
X3950000Y20200400D02*
X3299200Y20851200D01*
X4137500Y26312500D02*
X3700000Y26750000D01*
X21750000Y25740000D02*
X22396300Y26386300D01*
X11504400Y12514400D02*
X12490000Y13500000D01*
X5641800Y27588200D02*
X6230000Y27000000D01*
X3700000Y26750000D02*
X4538200Y27588200D01*
X23769200Y17434100D02*
X23769200Y26589700D01*
X11504000Y7995900D02*
X11504000Y12514000D01*
X8119500Y14336900D02*
X8119500Y13519000D01*
X7490000Y18772900D02*
X7490000Y18500000D01*
X3950000Y19887500D02*
X4196600Y19887500D01*
X914600Y13075400D02*
X1500000Y12490000D01*
X1526700Y14463300D02*
X914600Y13851200D01*
X3950000Y19887500D02*
X3950000Y19888000D01*
X22396300Y27386300D02*
X23000000Y27990000D01*
X15575000Y6288200D02*
X14925200Y5638400D01*
X2050000Y19887500D02*
X1225000Y19062500D01*
X7490000Y18500000D02*
X7490000Y14966400D01*
X7643300Y29589700D02*
X5641800Y27588200D01*
X1225000Y14765000D02*
X1526700Y14463300D01*
X14925200Y5638400D02*
X13861500Y5638400D01*
X2050000Y19888000D02*
X2050000Y19887500D01*
X24166400Y27635400D02*
X23811800Y27990000D01*
X1225000Y15750000D02*
X1225000Y14765000D01*
X2050000Y20176000D02*
X2050000Y19887500D01*
X1526700Y14463300D02*
X2750000Y13240000D01*
X914600Y13851200D02*
X914600Y13075400D01*
X8500000Y19510000D02*
X7490000Y18500000D01*
X23811800Y27990000D02*
X23000000Y27990000D01*
X23235100Y16900000D02*
X23769200Y17434100D01*
X1225000Y19062500D02*
X1225000Y15750000D01*
X9124100Y12514400D02*
X11504400Y12514400D01*
X22396300Y26386300D02*
X22396300Y27386300D01*
X12740000Y14750000D02*
X12490000Y14500000D01*
X3208800Y20851200D02*
X3208800Y23771300D01*
X4196600Y19887500D02*
X4708300Y19375800D01*
X3208800Y23771300D02*
X4137500Y24700000D01*
X3950000Y19887500D02*
X3950000Y20200400D01*
X2725200Y20851200D02*
X2050000Y20176000D01*
X8500000Y19990000D02*
X8500000Y19510000D01*
X7643300Y31800000D02*
X7643300Y29589700D01*
X4137500Y24700000D02*
X4137500Y26312500D01*
X3299200Y20851200D02*
X3208800Y20851200D01*
X13861500Y5638400D02*
X11504000Y7995900D01*
X3208800Y20851200D02*
X2725200Y20851200D01*
X24166400Y26986900D02*
X24166400Y27635400D01*
X12490000Y14500000D02*
X12490000Y13500000D01*
X7940500Y19223400D02*
X7490000Y18772900D01*
X23769200Y26589700D02*
X24166400Y26986900D01*
X4538200Y27588200D02*
X5641800Y27588200D01*
X8119500Y13519000D02*
X9124100Y12514400D01*
X15575000Y7475000D02*
X15575000Y6288200D01*
X8300000Y31800000D02*
X7643300Y31800000D01*
%TO.N,/BAT_ADC*%
X9400000Y23223900D02*
X9400000Y22640000D01*
X5016600Y21919200D02*
X5689200Y21919200D01*
X9400000Y24500000D02*
X9400000Y23223900D01*
X9400000Y22640000D02*
X9850000Y22640000D01*
X9850000Y22640000D02*
X10750000Y21740000D01*
X9400000Y22640000D02*
X9010000Y22250000D01*
X5689200Y21919200D02*
X5770000Y22000000D01*
X9400000Y23223900D02*
X9435900Y23223900D01*
%TO.N,/USB/CC1*%
X14466700Y10554100D02*
X14466700Y12456700D01*
X18036700Y16950000D02*
X18078100Y16908600D01*
X7550000Y13562500D02*
X7550000Y13562000D01*
X18078100Y16908600D02*
X18263200Y16908600D01*
X17055000Y16950000D02*
X18036700Y16950000D01*
X7550000Y13562500D02*
X8355300Y12757200D01*
X14466700Y12456700D02*
X15000000Y12990000D01*
X8355300Y12757200D02*
X8355300Y12388800D01*
%TO.N,/USB/CC2*%
X18036700Y19797200D02*
X18262100Y19571800D01*
X9450000Y13562000D02*
X9450000Y13562500D01*
X9914100Y13098400D02*
X10594600Y13098400D01*
X18577200Y11162800D02*
X17740000Y12000000D01*
X9450000Y13562500D02*
X9914100Y13098400D01*
X18805000Y11162800D02*
X18577200Y11162800D01*
X17055000Y19950000D02*
X18036700Y19950000D01*
X18036700Y19950000D02*
X18036700Y19797200D01*
%TO.N,/Power/CHG_ILIM*%
X5765700Y8069400D02*
X5765700Y5994300D01*
X4150000Y8750000D02*
X5085100Y8750000D01*
X5085100Y8750000D02*
X5765700Y8069400D01*
X5765700Y5994300D02*
X6260000Y5500000D01*
%TO.N,/Power/CHG_ISET*%
X2000000Y9683900D02*
X2806100Y10490000D01*
X2000000Y9400000D02*
X2000000Y9683900D01*
X2806100Y10490000D02*
X3000000Y10490000D01*
%TO.N,/Compute/LED_B*%
X14005800Y25393800D02*
X12837100Y25393800D01*
X16711100Y12221100D02*
X16711100Y12429900D01*
D45*
X16200000Y12450000D02*
X15100000Y11350000D01*
X16650000Y12450000D02*
X16200000Y12450000D01*
D44*
X15490000Y11000000D02*
X16711100Y12221100D01*
X12837100Y25393800D02*
X12600000Y25156700D01*
X12600000Y24500000D02*
X12600000Y25156700D01*
%TO.N,/Compute/LED_B_K*%
X16425000Y7475000D02*
X17006700Y7475000D01*
X17006700Y10503300D02*
X17006700Y7475000D01*
X16510000Y11000000D02*
X17006700Y10503300D01*
%TO.N,/Compute/LED_G*%
X14993000Y6533200D02*
X14543200Y6533200D01*
X16600000Y24500000D02*
X16600000Y23843300D01*
X14543200Y6533200D02*
X14200000Y6190000D01*
X16782900Y23660400D02*
X16600000Y23843300D01*
X19224700Y23660400D02*
X16782900Y23660400D01*
D45*
%TO.N,/Compute/LED_G_K*%
X16155200Y8155200D02*
X16425000Y8425000D01*
D44*
X16425000Y8425000D02*
X16425000Y8925000D01*
X14200000Y7210000D02*
X14849000Y7859000D01*
X14849000Y7859000D02*
X14849000Y8155200D01*
D45*
X14849000Y8155200D02*
X16155200Y8155200D01*
D44*
%TO.N,/Compute/LED_R*%
X15593700Y25363000D02*
X15593700Y25624400D01*
X15800000Y25156700D02*
X15593700Y25363000D01*
X15593700Y25624400D02*
X15267600Y25950500D01*
X15800000Y24500000D02*
X15800000Y25156700D01*
X14760600Y26196100D02*
X13179000Y26196100D01*
X15267600Y25950500D02*
X15006200Y25950500D01*
X14200000Y8490000D02*
X13399900Y9290100D01*
X15006200Y25950500D02*
X14760600Y26196100D01*
%TO.N,/Compute/LED_R_K*%
X14200000Y9510000D02*
X14408300Y9510000D01*
X14408300Y9510000D02*
X14993300Y8925000D01*
X15575000Y8925000D02*
X14993300Y8925000D01*
D45*
%TO.N,/Compute/MCU_EN*%
X8500000Y11600000D02*
X8350000Y11600000D01*
X10150000Y11750000D02*
X10100000Y11800000D01*
X10350000Y11650000D02*
X10300000Y11700000D01*
X9000000Y11400000D02*
X8800000Y11400000D01*
X10500000Y11600000D02*
X10450000Y11600000D01*
X10550000Y11550000D02*
X10500000Y11600000D01*
X10400000Y11650000D02*
X10350000Y11650000D01*
D44*
X5601600Y21282600D02*
X5529200Y21210200D01*
D45*
X10100000Y11800000D02*
X9500000Y11800000D01*
X8700000Y11450000D02*
X8650000Y11500000D01*
X9050000Y11450000D02*
X9000000Y11400000D01*
D44*
X21500000Y7680700D02*
X21500000Y7575000D01*
D45*
X10650000Y11500000D02*
X10600000Y11550000D01*
D44*
X21236800Y8562700D02*
X21236800Y7944200D01*
X7631800Y21282600D02*
X5601600Y21282600D01*
D45*
X8750000Y11450000D02*
X8700000Y11450000D01*
X10250000Y11700000D02*
X10200000Y11750000D01*
D44*
X7870000Y21044400D02*
X7631800Y21282600D01*
D45*
X8800000Y11400000D02*
X8750000Y11450000D01*
X8650000Y11500000D02*
X8600000Y11500000D01*
X8600000Y11500000D02*
X8500000Y11600000D01*
X10300000Y11700000D02*
X10250000Y11700000D01*
X9100000Y11450000D02*
X9050000Y11450000D01*
D44*
X8300000Y27800000D02*
X9159400Y27800000D01*
D45*
X10600000Y11550000D02*
X10550000Y11550000D01*
X10450000Y11600000D02*
X10400000Y11650000D01*
X9200000Y11500000D02*
X9150000Y11500000D01*
D44*
X7870000Y20390000D02*
X7870000Y21044400D01*
X21236800Y7944200D02*
X21500000Y7681000D01*
D45*
X9150000Y11500000D02*
X9100000Y11450000D01*
X9500000Y11800000D02*
X9200000Y11500000D01*
D44*
X3345500Y14855500D02*
X2750000Y14260000D01*
X7250000Y19770000D02*
X7870000Y20390000D01*
D45*
X10200000Y11750000D02*
X10150000Y11750000D01*
D44*
%TO.N,/Power/PACK_P*%
X1350000Y7750000D02*
X1350000Y8250000D01*
X9520400Y1545200D02*
X3413900Y1545200D01*
D46*
X10375200Y2400000D02*
X9520400Y1545200D01*
D44*
X1063700Y7750000D02*
X1350000Y7750000D01*
X3413900Y1545200D02*
X761800Y4197300D01*
X761800Y4197300D02*
X761800Y7448100D01*
D46*
X10375200Y2400000D02*
X11230000Y2400000D01*
D44*
X6924900Y7050000D02*
X10375200Y3599700D01*
X6750000Y7050000D02*
X6924900Y7050000D01*
D46*
X10375200Y3599700D02*
X10375200Y2400000D01*
D44*
X7990000Y22586000D02*
X8407900Y23003900D01*
X761800Y7448100D02*
X1063700Y7750000D01*
X7990000Y22250000D02*
X7990000Y22586000D01*
%TO.N,/Compute/STRAP2*%
X8300000Y30200000D02*
X9000000Y30200000D01*
X9000000Y30200000D02*
X9175000Y30375000D01*
X23000000Y30466200D02*
X23000000Y29010000D01*
%TO.N,/Compute/STRAP8*%
X17400000Y24500000D02*
X17400000Y25156700D01*
X17344200Y25212500D02*
X17400000Y25156700D01*
X8500000Y21010000D02*
X8820200Y21010000D01*
X17344200Y26143300D02*
X17344200Y25212500D01*
X8820200Y21010000D02*
X9248900Y21438700D01*
%TO.N,/Power/SYS*%
X2760700Y24137600D02*
X2983900Y24360800D01*
X4150000Y8250000D02*
X4150000Y8041700D01*
X6250000Y23550000D02*
X4665400Y23550000D01*
X2842100Y23444600D02*
X2197500Y22800000D01*
X1862500Y24700000D02*
X2198200Y24700000D01*
X2760700Y24137600D02*
X2842100Y24056100D01*
X2198200Y24700000D02*
X2760700Y24137600D01*
X1862500Y24700000D02*
X1862000Y24700000D01*
X2842100Y24056100D02*
X2842100Y23444600D01*
X4150000Y8041700D02*
X4150000Y7750000D01*
X2197500Y22800000D02*
X1862500Y22800000D01*
X4150000Y8041700D02*
X4925500Y8041700D01*
X4665400Y23550000D02*
X4637400Y23578000D01*
%TO.N,/Power/TS_NO_CELL_SENSING*%
X740000Y9360000D02*
X740000Y10500000D01*
X1350000Y8750000D02*
X740000Y9360000D01*
%TO.N,/USB_DM*%
X18224300Y18637600D02*
X18036700Y18450000D01*
X14637500Y22450000D02*
X14638000Y22450000D01*
X14637500Y22450000D02*
X15438100Y22450000D01*
X17055000Y18450000D02*
X18036700Y18450000D01*
X15438100Y22450000D02*
X16290700Y23302600D01*
X19382100Y19795400D02*
X18224300Y18637600D01*
X20112800Y22872800D02*
X21740000Y24500000D01*
X19382100Y22872800D02*
X19382100Y19795400D01*
X14637500Y22450000D02*
X12362500Y22450000D01*
X18985700Y17465400D02*
X17070400Y17465400D01*
X18894100Y23302600D02*
X19323900Y22872800D01*
X18224300Y18637600D02*
X18403500Y18458300D01*
X19382100Y22872800D02*
X20112800Y22872800D01*
X19323900Y22872800D02*
X19382100Y22872800D01*
X16290700Y23302600D02*
X18894100Y23302600D01*
X17070400Y17465400D02*
X17055000Y17450000D01*
X19540700Y16910400D02*
X18985700Y17465400D01*
%TO.N,/Compute/USB_DM_MCU*%
X21533500Y25078400D02*
X22181600Y25078400D01*
X22181600Y25078400D02*
X22760000Y24500000D01*
X20756700Y25855200D02*
X21533500Y25078400D01*
X20100000Y26200000D02*
X20756700Y26200000D01*
X20756700Y26200000D02*
X20756700Y25855200D01*
%TO.N,/USB_DP*%
X17055000Y17950000D02*
X16073300Y17950000D01*
X16162900Y18950000D02*
X16073300Y18950000D01*
X12362500Y20550000D02*
X14637500Y20550000D01*
X23324000Y25416000D02*
X23324000Y22306800D01*
X23324000Y22306800D02*
X18903300Y17886100D01*
X18100600Y17886100D02*
X18036700Y17950000D01*
X17055000Y18950000D02*
X16162900Y18950000D01*
X14637500Y20385800D02*
X14637500Y20550000D01*
X18903300Y17886100D02*
X18100600Y17886100D01*
X23000000Y25740000D02*
X23324000Y25416000D01*
X16073300Y18950000D02*
X14637500Y20385800D01*
X17055000Y17950000D02*
X18036700Y17950000D01*
X16073300Y18950000D02*
X16073300Y17950000D01*
X14637500Y20550000D02*
X14638000Y20550000D01*
%TO.N,/Compute/USB_DP_MCU*%
X20968400Y27211700D02*
X20756700Y27000000D01*
X23000000Y26760000D02*
X23599800Y27359800D01*
X20100000Y27000000D02*
X20756700Y27000000D01*
X20968400Y27539700D02*
X20968400Y27211700D01*
%TO.N,/USB_POWER_N*%
X10200000Y24500000D02*
X10200000Y23843300D01*
X10200000Y23843300D02*
X10322500Y23843300D01*
X13510000Y13500000D02*
X13510000Y13385800D01*
X13510000Y13385800D02*
X14032200Y12863600D01*
X3721400Y6030100D02*
X4092800Y6401500D01*
X10322500Y23843300D02*
X10536400Y23629400D01*
X3000000Y6332300D02*
X3302200Y6030100D01*
X3000000Y6600000D02*
X3000000Y6332300D01*
X3302200Y6030100D02*
X3721400Y6030100D01*
%TO.N,/VBUS*%
X14638000Y21500000D02*
X14637500Y21500000D01*
X17055000Y15750000D02*
X16073300Y15750000D01*
X4618000Y9400000D02*
X4699200Y9318800D01*
X3500000Y9400000D02*
X4618000Y9400000D01*
X15840500Y20650000D02*
X17055000Y20650000D01*
X16073300Y16348600D02*
X15731400Y16690500D01*
X14990500Y21500000D02*
X15840500Y20650000D01*
X1975000Y5000000D02*
X2735400Y4239600D01*
X15840500Y20650000D02*
X15840500Y20301200D01*
X14637500Y21500000D02*
X14990500Y21500000D01*
X16073300Y15750000D02*
X16073300Y16348600D01*
%TO.N,GND*%
X16600000Y34300000D02*
X16600000Y33643300D01*
X1760000Y10500000D02*
X1760000Y11282200D01*
D45*
X10955400Y16855400D02*
X11000000Y16900000D01*
D44*
X2770000Y11510000D02*
X3000000Y11510000D01*
X6730000Y22249200D02*
X6730000Y22000000D01*
D47*
X10067000Y17744800D02*
X10104900Y17744800D01*
D44*
X8770000Y15940000D02*
X8500000Y15670000D01*
X14359500Y16900000D02*
X14000000Y16900000D01*
X4740000Y5000000D02*
X5240000Y5500000D01*
X16663300Y13880000D02*
X16417000Y14126300D01*
X8300000Y33400000D02*
X7643300Y33400000D01*
X884000Y25834000D02*
X884000Y24434800D01*
X10265500Y17744800D02*
X10265700Y17744600D01*
X13500000Y16000000D02*
X14227800Y16000000D01*
X6750000Y8950000D02*
X8725000Y8950000D01*
D45*
X10104900Y17744800D02*
X10265500Y17744800D01*
D44*
X1862000Y23750000D02*
X1862500Y23750000D01*
X9581800Y18061800D02*
X9750000Y18061800D01*
X14200000Y29400000D02*
X14200000Y27425000D01*
X12225000Y29400000D02*
X12225000Y27425000D01*
X13400000Y34300000D02*
X12600000Y34300000D01*
X19000000Y34300000D02*
X18200000Y34300000D01*
X18200000Y34300000D02*
X17400000Y34300000D01*
X11800000Y33434800D02*
X11800000Y33643000D01*
X20150000Y34350000D02*
X19543300Y34350000D01*
X8770000Y17250000D02*
X9581800Y18061800D01*
D45*
X10265700Y17744600D02*
X10955400Y17744600D01*
D44*
X2000000Y6600000D02*
X2000000Y7250000D01*
X7593300Y25450000D02*
X7643300Y25400000D01*
X1568800Y23750000D02*
X1862500Y23750000D01*
D45*
X10955400Y17744600D02*
X11000000Y17700000D01*
D44*
X16073300Y14126300D02*
X15116300Y14126300D01*
X8250000Y34046700D02*
X8250000Y33743300D01*
X7643300Y25400000D02*
X7986600Y25056700D01*
X21093300Y13880000D02*
X21093300Y12431700D01*
X9146700Y34046700D02*
X9400000Y34300000D01*
X12225000Y33268300D02*
X12225000Y31375000D01*
X8770000Y17250000D02*
X8770000Y15940000D01*
X10750000Y22760000D02*
X12010000Y21500000D01*
X12225000Y26443300D02*
X11181700Y25400000D01*
X12225000Y27425000D02*
X12225000Y26443300D01*
X7643300Y33400000D02*
X7643300Y32600000D01*
X9750000Y19020000D02*
X9750000Y18061800D01*
X12225000Y31375000D02*
X12225000Y29400000D01*
X6641500Y20121500D02*
X6641500Y18866500D01*
X3600000Y1925000D02*
X3600000Y4925000D01*
X10200000Y34300000D02*
X9400000Y34300000D01*
X11800000Y34300000D02*
X11000000Y34300000D01*
X5270000Y26430000D02*
X5270000Y27000000D01*
X10316000Y15940000D02*
X10316000Y16805400D01*
X7986600Y33743300D02*
X8250000Y33743300D01*
X3600000Y4925000D02*
X3525000Y5000000D01*
X9750000Y18061800D02*
X9960400Y17851400D01*
X11181700Y25400000D02*
X11000000Y25400000D01*
X15800000Y34300000D02*
X15000000Y34300000D01*
X8250000Y24450000D02*
X8250000Y23769200D01*
X13500000Y16000000D02*
X13500000Y15645800D01*
X3000000Y18590500D02*
X5134500Y18590500D01*
X8300000Y25400000D02*
X7643300Y25400000D01*
X17400000Y34300000D02*
X16600000Y34300000D01*
X8250000Y23769200D02*
X6730000Y22249200D01*
X1800000Y26750000D02*
X884000Y25834000D01*
X1350000Y7250000D02*
X2000000Y7250000D01*
X19493300Y34300000D02*
X19543300Y34350000D01*
X15000000Y34300000D02*
X14200000Y34300000D01*
X3000000Y18590500D02*
X3000000Y15975000D01*
X16175000Y29400000D02*
X16175000Y27425000D01*
X6440000Y4300000D02*
X9150000Y4300000D01*
X16663300Y22520000D02*
X16073300Y21930000D01*
X11000000Y34300000D02*
X10200000Y34300000D01*
X14227800Y16000000D02*
X14581600Y16353800D01*
X8725000Y8950000D02*
X10000000Y10225000D01*
X16417000Y14126300D02*
X16073300Y14126300D01*
X17055000Y21450000D02*
X16073300Y21450000D01*
X17055000Y14950000D02*
X16073300Y14950000D01*
X11995200Y14957100D02*
X11995200Y14515200D01*
X15116300Y14126300D02*
X15000000Y14010000D01*
X12600000Y33643300D02*
X12225000Y33268300D01*
X803900Y24354900D02*
X884000Y24435000D01*
X12435800Y15397700D02*
X11995200Y14957100D01*
X5750000Y17975000D02*
X6119900Y17605100D01*
D47*
X9960400Y17851400D02*
X10067000Y17744800D01*
D44*
X11800000Y34300000D02*
X11800000Y33643300D01*
X6250000Y25450000D02*
X7593300Y25450000D01*
X3500000Y6600000D02*
X3500000Y7250000D01*
X17970000Y22520000D02*
X16663300Y22520000D01*
X15800000Y33643300D02*
X16175000Y33268300D01*
X6119900Y15169900D02*
X6000000Y15050000D01*
X16175000Y31375000D02*
X16175000Y29400000D01*
X14200000Y31375000D02*
X14200000Y29400000D01*
X5134500Y18590500D02*
X5750000Y17975000D01*
X11000000Y25400000D02*
X8956700Y25400000D01*
X8250000Y24450000D02*
X8250000Y25056700D01*
X22150000Y13880000D02*
X21093300Y13880000D01*
X1760000Y10500000D02*
X2770000Y11510000D01*
X6250000Y25450000D02*
X5270000Y26430000D01*
X11995200Y14515200D02*
X11250000Y13770000D01*
X8300000Y25400000D02*
X8956700Y25400000D01*
X14581600Y16677900D02*
X14359500Y16900000D01*
X10316000Y16805400D02*
X10366000Y16855400D01*
X11000000Y25400000D02*
X11000000Y24500000D01*
X5240000Y5500000D02*
X6440000Y4300000D01*
X10750000Y22760000D02*
X11111500Y23121500D01*
X884000Y24434800D02*
X1568800Y23750000D01*
X8500000Y15438000D02*
X8500000Y15437500D01*
X14200000Y34300000D02*
X13400000Y34300000D01*
X14581600Y16353800D02*
X14581600Y16677900D01*
X10315800Y14704200D02*
X11250000Y13770000D01*
X7986600Y25056700D02*
X8250000Y25056700D01*
X15985400Y14950000D02*
X16073300Y14950000D01*
X21093300Y12431700D02*
X21500000Y12025000D01*
X15800000Y33851800D02*
X15800000Y33643300D01*
X16073300Y14126300D02*
X16073300Y14950000D01*
X19000000Y34300000D02*
X19493300Y34300000D01*
X7643300Y33400000D02*
X7986600Y33743300D01*
X3525000Y5000000D02*
X2500000Y6025000D01*
X16600000Y33643300D02*
X16008500Y33643300D01*
X14581600Y16353800D02*
X15985400Y14950000D01*
X6641500Y18866500D02*
X5750000Y17975000D01*
X16008500Y33643300D02*
X15800000Y33851800D01*
X8300000Y32600000D02*
X7643300Y32600000D01*
X12600000Y34300000D02*
X12600000Y33643300D01*
X10000000Y10225000D02*
X10000000Y11209900D01*
X14200000Y34300000D02*
X14200000Y31375000D01*
X2000000Y7250000D02*
X2750000Y8000000D01*
X3000000Y19887500D02*
X3000000Y18590500D01*
X15800000Y34300000D02*
X15800000Y33851800D01*
X11111500Y23121500D02*
X11111500Y24388500D01*
X8500000Y15670000D02*
X8500000Y15437500D01*
X2000000Y6600000D02*
X2500000Y6600000D01*
X2500000Y6025000D02*
X2500000Y6600000D01*
X19276700Y13880000D02*
X19276700Y12516700D01*
X3500000Y7250000D02*
X2750000Y8000000D01*
X3000000Y15975000D02*
X2775000Y15750000D01*
X7250000Y20730000D02*
X6641500Y20121500D01*
X13251900Y15397700D02*
X12435800Y15397700D01*
X10316000Y15940000D02*
X8770000Y15940000D01*
D45*
X10366000Y16855400D02*
X10955400Y16855400D01*
D44*
X17970000Y13880000D02*
X19276700Y13880000D01*
X13500000Y15645800D02*
X13251900Y15397700D01*
X12010000Y21500000D02*
X12362500Y21500000D01*
X12225000Y33268300D02*
X11850000Y33643300D01*
X19276700Y12516700D02*
X18760000Y12000000D01*
X16073300Y21930000D02*
X16073300Y21450000D01*
X16175000Y33268300D02*
X16175000Y31375000D01*
X17970000Y13880000D02*
X16663300Y13880000D01*
X10316000Y14704000D02*
X10316000Y15940000D01*
X8250000Y34046700D02*
X9146700Y34046700D01*
X8250000Y34350000D02*
X8250000Y34046700D01*
X11850000Y33643300D02*
X11800000Y33643300D01*
X6119900Y17605100D02*
X6119900Y15169900D01*
X3525000Y5000000D02*
X4740000Y5000000D01*
X12362500Y21500000D02*
X12362000Y21500000D01*
X11111500Y24388500D02*
X11000000Y24500000D01*
%TO.N,/IMU/1V8_IMU*%
X14901600Y17700000D02*
X15062500Y17539100D01*
X11500000Y16000000D02*
X11250000Y15750000D01*
X5500000Y15050000D02*
X5500000Y14197500D01*
X3950000Y17612500D02*
X5500000Y16062500D01*
X11130300Y19835600D02*
X10438700Y19835600D01*
X14000000Y17700000D02*
X14901600Y17700000D01*
X7837600Y11859900D02*
X7837600Y11077600D01*
X11000000Y18100000D02*
X10686700Y18100000D01*
X5500000Y14197500D02*
X7837600Y11859900D01*
X11250000Y15750000D02*
X11250000Y14730000D01*
X5500000Y15941800D02*
X5556800Y15941800D01*
X5500000Y15050000D02*
X5500000Y15941800D01*
X10438700Y19835600D02*
X9894400Y19835600D01*
X10438700Y18348000D02*
X10438700Y19835600D01*
X4836700Y9903300D02*
X4240000Y10500000D01*
X6663300Y9903300D02*
X4836700Y9903300D01*
X9894400Y19835600D02*
X9750000Y19980000D01*
X3950000Y17612500D02*
X3950000Y17612000D01*
X10926600Y15911200D02*
X11088800Y15911200D01*
X11088800Y15911200D02*
X11250000Y15750000D01*
X5750000Y19525000D02*
X6086000Y19861000D01*
X7250000Y10490000D02*
X6663300Y9903300D01*
X7837600Y11077600D02*
X7250000Y10490000D01*
X10686700Y18100000D02*
X10438700Y18348000D01*
X6086000Y19861000D02*
X6086000Y20460700D01*
X5500000Y16062500D02*
X5500000Y15941800D01*
%TO.N,/IMU/I2C_BIAS*%
X4126200Y11258400D02*
X3135200Y12249400D01*
X2760600Y12249400D02*
X1500000Y13510000D01*
X5500000Y11504200D02*
X5254200Y11258400D01*
X5500000Y11950000D02*
X5500000Y11504200D01*
X5254200Y11258400D02*
X4126200Y11258400D01*
X3135200Y12249400D02*
X2760600Y12249400D01*
X6000000Y11950000D02*
X5500000Y11950000D01*
D45*
%TO.N,/IMU/IMU_REGOUT*%
X11000000Y17300000D02*
X10150000Y17300000D01*
X10150000Y17300000D02*
X9730000Y17250000D01*
D44*
%TO.N,/IMU/SCL_1V8*%
X14568400Y18100000D02*
X14000000Y18100000D01*
X5000000Y15752300D02*
X4781300Y15971000D01*
X5923100Y11012700D02*
X5410400Y10500000D01*
X5000000Y15050000D02*
X5000000Y15752300D01*
X5410400Y10500000D02*
X5260000Y10500000D01*
X15075400Y18607000D02*
X14568400Y18100000D01*
%TO.N,/IMU/SDA_1V8*%
X4500000Y15050000D02*
X4500000Y15449400D01*
X4500000Y15449400D02*
X3960800Y15988600D01*
X14000000Y19370100D02*
X14000000Y18500000D01*
X4500000Y15050000D02*
X4500000Y14610000D01*
X4500000Y14610000D02*
X7250000Y11860000D01*
X14108100Y19478200D02*
X14000000Y19370100D01*
X7250000Y11860000D02*
X7250000Y11510000D01*
%TO.N,/SCL_HOST*%
X9145500Y19135500D02*
X8510000Y18500000D01*
X9624000Y20731200D02*
X9145500Y20252700D01*
X14200000Y24500000D02*
X14200000Y23843300D01*
X5000000Y12585300D02*
X5000000Y11950000D01*
X9145500Y20252700D02*
X9145500Y19135500D01*
X5265500Y12850800D02*
X5000000Y12585300D01*
X14200000Y23843300D02*
X14200000Y23304300D01*
%TO.N,/SDA_HOST*%
X13760000Y14750000D02*
X14053900Y14750000D01*
X14053900Y14750000D02*
X14598600Y15294700D01*
X15000000Y24500000D02*
X15000000Y23843300D01*
X15149400Y23843300D02*
X15377200Y23615500D01*
X15000000Y23843300D02*
X15149400Y23843300D01*
X4500000Y11950000D02*
X4500000Y13458800D01*
%TO.N,Net-(U1-GPIO9_{slash}_BOOT)*%
X21751000Y28660600D02*
X21751000Y26761000D01*
X21751000Y26761000D02*
X21750000Y26760000D01*
X18177800Y25178900D02*
X18200000Y25156700D01*
X18177800Y25385300D02*
X18177800Y25178900D01*
X18200000Y24500000D02*
X18200000Y25156700D01*
X11006400Y6781400D02*
X10000000Y5775000D01*
%TD*%
%TA.AperFunction,Conductor*%
%TO.N,GND*%
G36*
X22286825Y24618914D02*
G01*
X22317826Y24587913D01*
X22339500Y24535587D01*
X22339500Y24272378D01*
X22342269Y24248505D01*
X22342269Y24248503D01*
X22342270Y24248502D01*
X22385384Y24150859D01*
X22460859Y24075384D01*
X22558502Y24032270D01*
X22582377Y24029500D01*
X22937622Y24029501D01*
X22961498Y24032270D01*
X22969608Y24035852D01*
X23026228Y24037162D01*
X23067193Y23998052D01*
X23073500Y23968158D01*
X23073500Y22441213D01*
X23051826Y22388887D01*
X18973175Y18310237D01*
X18920849Y18288563D01*
X18868523Y18310237D01*
X18846849Y18362563D01*
X18849370Y18381713D01*
X18854000Y18398991D01*
X18854000Y18517609D01*
X18854000Y18517611D01*
X18853999Y18517612D01*
X18853743Y18518566D01*
X18830150Y18606617D01*
X18823300Y18632183D01*
X18823298Y18632188D01*
X18761564Y18739114D01*
X18763392Y18740170D01*
X18750580Y18787999D01*
X18771618Y18830659D01*
X19594464Y19653503D01*
X19632600Y19745572D01*
X19632600Y19845227D01*
X19632600Y22548300D01*
X19654274Y22600626D01*
X19706600Y22622300D01*
X20162627Y22622300D01*
X20162628Y22622300D01*
X20254697Y22660436D01*
X21602087Y24007828D01*
X21654413Y24029501D01*
X21917622Y24029501D01*
X21941498Y24032270D01*
X22039141Y24075384D01*
X22114616Y24150859D01*
X22157730Y24248502D01*
X22160500Y24272377D01*
X22160499Y24566589D01*
X22182173Y24618914D01*
X22234499Y24640588D01*
X22286825Y24618914D01*
G37*
%TD.AperFunction*%
%TA.AperFunction,Conductor*%
G36*
X18812013Y23030426D02*
G01*
X19109926Y22732513D01*
X19131600Y22680187D01*
X19131600Y21423210D01*
X19109926Y21370884D01*
X19057600Y21349210D01*
X19005274Y21370884D01*
X18993514Y21386209D01*
X18981498Y21407021D01*
X18960515Y21443365D01*
X18853365Y21550515D01*
X18853362Y21550517D01*
X18722139Y21626279D01*
X18722130Y21626283D01*
X18575768Y21665500D01*
X18575766Y21665500D01*
X18424234Y21665500D01*
X18424232Y21665500D01*
X18277869Y21626283D01*
X18277860Y21626279D01*
X18146637Y21550517D01*
X18039483Y21443363D01*
X17963721Y21312140D01*
X17963717Y21312131D01*
X17924500Y21165769D01*
X17924500Y21164874D01*
X17924327Y21164458D01*
X17923867Y21160959D01*
X17922929Y21161083D01*
X17902826Y21112548D01*
X17850500Y21090874D01*
X17836063Y21092296D01*
X17808423Y21097794D01*
X17794820Y21100500D01*
X16315180Y21100500D01*
X16301577Y21097794D01*
X16271277Y21091767D01*
X16221496Y21058505D01*
X16221495Y21058504D01*
X16188233Y21008723D01*
X16178791Y20961255D01*
X16176746Y20961662D01*
X16167978Y20945246D01*
X16158422Y20922174D01*
X16154870Y20920703D01*
X16153060Y20917313D01*
X16106096Y20900500D01*
X15974912Y20900500D01*
X15922586Y20922174D01*
X15472173Y21372587D01*
X15450499Y21424913D01*
X15450499Y21694864D01*
X15450499Y21694865D01*
X15447585Y21719991D01*
X15402206Y21822765D01*
X15322765Y21902206D01*
X15311215Y21907306D01*
X15272103Y21948268D01*
X15273411Y22004890D01*
X15311215Y22042695D01*
X15322765Y22047794D01*
X15402206Y22127235D01*
X15414637Y22155390D01*
X15455599Y22194503D01*
X15482332Y22199500D01*
X15487927Y22199500D01*
X15487928Y22199500D01*
X15579997Y22237636D01*
X16372787Y23030426D01*
X16425113Y23052100D01*
X18759687Y23052100D01*
X18812013Y23030426D01*
G37*
%TD.AperFunction*%
%TA.AperFunction,Conductor*%
G36*
X24727826Y34727826D02*
G01*
X24749500Y34675500D01*
X24749500Y23824500D01*
X24727826Y23772174D01*
X24675500Y23750500D01*
X24400172Y23750500D01*
X24308105Y23712366D01*
X24237634Y23641895D01*
X24199500Y23549830D01*
X24199500Y12850171D01*
X24237634Y12758106D01*
X24237637Y12758102D01*
X24308102Y12687637D01*
X24308105Y12687635D01*
X24313414Y12685436D01*
X24400172Y12649500D01*
X24675500Y12649500D01*
X24727826Y12627826D01*
X24749500Y12575500D01*
X24749500Y4390892D01*
X24727826Y4338566D01*
X24675500Y4316892D01*
X24623174Y4338566D01*
X24605427Y4367105D01*
X24587383Y4420260D01*
X24498701Y4600089D01*
X24387787Y4825000D01*
X24387784Y4825005D01*
X24387781Y4825010D01*
X24171298Y5148999D01*
X24137069Y5200227D01*
X23839518Y5539519D01*
X23500226Y5837070D01*
X23498551Y5838189D01*
X23125009Y6087783D01*
X23124998Y6087789D01*
X22720260Y6287384D01*
X22292928Y6432444D01*
X22292916Y6432448D01*
X21850322Y6520484D01*
X21850319Y6520485D01*
X21850315Y6520485D01*
X21400000Y6550000D01*
X21399999Y6550000D01*
X21345461Y6546426D01*
X20949684Y6520485D01*
X20949680Y6520485D01*
X20949676Y6520484D01*
X20507082Y6432448D01*
X20507069Y6432444D01*
X20079740Y6287385D01*
X19675001Y6087789D01*
X19674990Y6087783D01*
X19299775Y5837072D01*
X18960481Y5539519D01*
X18662928Y5200225D01*
X18412217Y4825010D01*
X18412211Y4824999D01*
X18212615Y4420260D01*
X18067556Y3992931D01*
X18067552Y3992918D01*
X17979516Y3550324D01*
X17979515Y3550320D01*
X17979515Y3550316D01*
X17950000Y3100000D01*
X17979515Y2649685D01*
X17979515Y2649681D01*
X17979516Y2649678D01*
X18067552Y2207084D01*
X18067556Y2207072D01*
X18212616Y1779740D01*
X18412211Y1375002D01*
X18412217Y1374991D01*
X18661811Y1001449D01*
X18662930Y999774D01*
X18960481Y660482D01*
X19299773Y362931D01*
X19423733Y280104D01*
X19674990Y112219D01*
X19674995Y112216D01*
X19675000Y112213D01*
X20079742Y-87384D01*
X20132895Y-105427D01*
X20175477Y-142771D01*
X20179181Y-199287D01*
X20141837Y-241869D01*
X20109108Y-249500D01*
X324500Y-249500D01*
X272174Y-227826D01*
X250500Y-175500D01*
X250500Y10087091D01*
X260607Y10111492D01*
X269346Y10136427D01*
X271330Y10137382D01*
X272174Y10139417D01*
X296580Y10149527D01*
X320387Y10160977D01*
X322383Y10160215D01*
X324500Y10161091D01*
X373836Y10142245D01*
X375371Y10140872D01*
X440859Y10075384D01*
X456106Y10068652D01*
X464836Y10060843D01*
X472419Y10045077D01*
X484502Y10032423D01*
X488314Y10012030D01*
X489386Y10009802D01*
X488958Y10008584D01*
X489500Y10005689D01*
X489500Y9310171D01*
X527634Y9218106D01*
X527637Y9218102D01*
X877826Y8867913D01*
X899500Y8815587D01*
X899500Y8647637D01*
X910321Y8593230D01*
X945145Y8541111D01*
X956194Y8485562D01*
X945145Y8458889D01*
X910321Y8406771D01*
X910321Y8406769D01*
X901317Y8361501D01*
X899500Y8352368D01*
X899500Y8147637D01*
X910320Y8093232D01*
X933598Y8058395D01*
X944647Y8002847D01*
X924395Y7964957D01*
X619903Y7660464D01*
X549434Y7589995D01*
X511300Y7497930D01*
X511300Y4147471D01*
X549434Y4055406D01*
X549437Y4055402D01*
X1447412Y3157427D01*
X1469086Y3105101D01*
X1447412Y3052775D01*
X1414239Y3033623D01*
X1303317Y3003901D01*
X1303312Y3003899D01*
X1200590Y2944592D01*
X1116708Y2860710D01*
X1057401Y2757988D01*
X1057399Y2757983D01*
X1026700Y2643412D01*
X1026700Y2524789D01*
X1057399Y2410218D01*
X1057401Y2410213D01*
X1116708Y2307491D01*
X1116709Y2307490D01*
X1116711Y2307487D01*
X1200587Y2223611D01*
X1303314Y2164301D01*
X1303315Y2164301D01*
X1303317Y2164300D01*
X1360602Y2148951D01*
X1417888Y2133601D01*
X1417889Y2133600D01*
X1417891Y2133600D01*
X1536511Y2133600D01*
X1536511Y2133601D01*
X1651086Y2164301D01*
X1753813Y2223611D01*
X1837689Y2307487D01*
X1896999Y2410214D01*
X1926722Y2521140D01*
X1961200Y2566073D01*
X2017353Y2573465D01*
X2050526Y2554313D01*
X3197315Y1407525D01*
X3197318Y1407521D01*
X3201535Y1403304D01*
X3201536Y1403303D01*
X3272003Y1332836D01*
X3298969Y1321666D01*
X3364072Y1294699D01*
X3364073Y1294699D01*
X3472340Y1294699D01*
X3472348Y1294700D01*
X9173855Y1294700D01*
X9226180Y1273026D01*
X9274486Y1224721D01*
X9274487Y1224720D01*
X9365812Y1171993D01*
X9467673Y1144700D01*
X9467674Y1144700D01*
X9573126Y1144700D01*
X9573127Y1144700D01*
X9674988Y1171993D01*
X9766313Y1224720D01*
X10223703Y1682112D01*
X10276028Y1703785D01*
X10328354Y1682111D01*
X10335894Y1673282D01*
X10352447Y1650499D01*
X10480499Y1522447D01*
X10627006Y1416004D01*
X10788361Y1333789D01*
X10788364Y1333788D01*
X10788363Y1333788D01*
X10960580Y1277832D01*
X10960586Y1277831D01*
X10960591Y1277829D01*
X11079833Y1258943D01*
X11139453Y1249500D01*
X11139454Y1249500D01*
X11320547Y1249500D01*
X11365261Y1256583D01*
X11499409Y1277829D01*
X11499416Y1277832D01*
X11499419Y1277832D01*
X11577601Y1303235D01*
X11671639Y1333789D01*
X11832994Y1416004D01*
X11979501Y1522447D01*
X12107553Y1650499D01*
X12213996Y1797006D01*
X12296211Y1958361D01*
X12352171Y2130591D01*
X12380500Y2309454D01*
X12380500Y2490546D01*
X12375076Y2524789D01*
X12356289Y2643409D01*
X12352171Y2669409D01*
X12352169Y2669414D01*
X12352168Y2669420D01*
X12296212Y2841636D01*
X12296211Y2841637D01*
X12296211Y2841639D01*
X12213996Y3002994D01*
X12213338Y3003899D01*
X12139811Y3105101D01*
X12107553Y3149501D01*
X11979501Y3277553D01*
X11894128Y3339580D01*
X11832996Y3383995D01*
X11671635Y3466213D01*
X11671636Y3466213D01*
X11499419Y3522169D01*
X11499406Y3522172D01*
X11320547Y3550500D01*
X11320546Y3550500D01*
X11139454Y3550500D01*
X11139453Y3550500D01*
X10960593Y3522172D01*
X10960576Y3522168D01*
X10872566Y3493572D01*
X10816104Y3498016D01*
X10779322Y3541084D01*
X10775700Y3563950D01*
X10775700Y3652429D01*
X10775699Y3652430D01*
X10748408Y3754283D01*
X10748407Y3754287D01*
X10695680Y3845613D01*
X10621113Y3920180D01*
X10546962Y3962991D01*
X10529791Y3972905D01*
X10529782Y3972909D01*
X10427929Y4000200D01*
X10427927Y4000200D01*
X10359613Y4000200D01*
X10307287Y4021874D01*
X9355987Y4973174D01*
X9334313Y5025500D01*
X9355987Y5077826D01*
X9408313Y5099500D01*
X10888480Y5099500D01*
X10888484Y5099500D01*
X10914238Y5102488D01*
X11019577Y5148999D01*
X11101001Y5230423D01*
X11147512Y5335762D01*
X11150500Y5361516D01*
X11150500Y6188484D01*
X11147512Y6214238D01*
X11127682Y6259148D01*
X11126375Y6315767D01*
X11165488Y6356730D01*
X11176220Y6360512D01*
X11180286Y6361601D01*
X11283013Y6420911D01*
X11366889Y6504787D01*
X11426199Y6607514D01*
X11456899Y6722089D01*
X11456900Y6722089D01*
X11456900Y6840711D01*
X11456899Y6840712D01*
X11453874Y6852000D01*
X11431161Y6936769D01*
X11426200Y6955283D01*
X11426198Y6955288D01*
X11366891Y7058010D01*
X11366890Y7058011D01*
X11366889Y7058013D01*
X11283013Y7141889D01*
X11283010Y7141891D01*
X11283009Y7141892D01*
X11180287Y7201199D01*
X11180282Y7201201D01*
X11065711Y7231900D01*
X11065709Y7231900D01*
X10947091Y7231900D01*
X10947089Y7231900D01*
X10832517Y7201201D01*
X10832512Y7201199D01*
X10729790Y7141892D01*
X10645908Y7058010D01*
X10586601Y6955288D01*
X10586599Y6955283D01*
X10555900Y6840712D01*
X10555900Y6717241D01*
X10553183Y6717241D01*
X10540774Y6670931D01*
X10534392Y6663654D01*
X10342913Y6472174D01*
X10290587Y6450500D01*
X9111516Y6450500D01*
X9090912Y6448110D01*
X9085761Y6447512D01*
X8980422Y6401001D01*
X8898999Y6319578D01*
X8852488Y6214239D01*
X8849500Y6188481D01*
X8849500Y5658313D01*
X8827826Y5605987D01*
X8775500Y5584313D01*
X8723174Y5605987D01*
X7643298Y6685863D01*
X7621624Y6738189D01*
X7622536Y6749768D01*
X7625500Y6768481D01*
X7625499Y7331518D01*
X7622902Y7347914D01*
X7610646Y7425305D01*
X7610645Y7425307D01*
X7572586Y7500000D01*
X7553050Y7538342D01*
X7463342Y7628050D01*
X7350304Y7685646D01*
X7350302Y7685647D01*
X7350301Y7685647D01*
X7256519Y7700500D01*
X6243480Y7700500D01*
X6149696Y7685647D01*
X6123795Y7672449D01*
X6067332Y7668006D01*
X6024265Y7704789D01*
X6016200Y7738384D01*
X6016200Y8010952D01*
X6016201Y8010961D01*
X6016201Y8119229D01*
X5997347Y8164743D01*
X5984281Y8196287D01*
X5978064Y8211297D01*
X5907597Y8281764D01*
X5907595Y8281765D01*
X5226997Y8962364D01*
X5226996Y8962365D01*
X5132744Y9001405D01*
X5092696Y9041454D01*
X5092696Y9098091D01*
X5096978Y9106773D01*
X5103247Y9117631D01*
X5118999Y9144914D01*
X5149699Y9259489D01*
X5149700Y9259489D01*
X5149700Y9378111D01*
X5149699Y9378112D01*
X5119000Y9492683D01*
X5118998Y9492688D01*
X5090643Y9541800D01*
X5083250Y9597952D01*
X5117729Y9642886D01*
X5154729Y9652800D01*
X6713127Y9652800D01*
X6713128Y9652800D01*
X6805197Y9690936D01*
X7162087Y10047828D01*
X7214413Y10069501D01*
X7477622Y10069501D01*
X7501498Y10072270D01*
X7599141Y10115384D01*
X7674616Y10190859D01*
X7717730Y10288502D01*
X7720500Y10312377D01*
X7720499Y10575589D01*
X7742172Y10627913D01*
X7969088Y10854830D01*
X7969091Y10854831D01*
X7979496Y10865236D01*
X7979497Y10865236D01*
X8049964Y10935703D01*
X8088100Y11027772D01*
X8088100Y11189447D01*
X8109774Y11241773D01*
X8162100Y11263447D01*
X8199102Y11253531D01*
X8205062Y11250090D01*
X8205064Y11250090D01*
X8205065Y11250089D01*
X8236101Y11241773D01*
X8300562Y11224501D01*
X8300563Y11224500D01*
X8300565Y11224500D01*
X8399437Y11224500D01*
X8399437Y11224501D01*
X8494938Y11250090D01*
X8504447Y11255581D01*
X8509514Y11256248D01*
X8513130Y11259863D01*
X8536964Y11259864D01*
X8560597Y11262977D01*
X8569767Y11259865D01*
X8572262Y11258832D01*
X8572264Y11258830D01*
X8594789Y11249500D01*
X8644019Y11229108D01*
X8668027Y11213067D01*
X8672264Y11208830D01*
X8694727Y11199526D01*
X8694728Y11199525D01*
X8694729Y11199525D01*
X8755146Y11174499D01*
X8755147Y11174499D01*
X8853467Y11174499D01*
X8853475Y11174500D01*
X8946525Y11174500D01*
X8946533Y11174499D01*
X8955145Y11174499D01*
X9044854Y11174499D01*
X9044855Y11174499D01*
X9118639Y11205062D01*
X9127736Y11208830D01*
X9137576Y11218671D01*
X9144234Y11222957D01*
X9147720Y11223590D01*
X9155975Y11229106D01*
X9205211Y11249500D01*
X9227736Y11258830D01*
X9231971Y11263066D01*
X9255977Y11279106D01*
X9255977Y11279107D01*
X9307782Y11300565D01*
X9327736Y11308830D01*
X9391170Y11372264D01*
X9391170Y11372265D01*
X9401575Y11382670D01*
X9401576Y11382673D01*
X9571731Y11552826D01*
X9624057Y11574500D01*
X9976364Y11574500D01*
X10008547Y11567135D01*
X10019014Y11562080D01*
X10022264Y11558830D01*
X10044729Y11549525D01*
X10094021Y11529108D01*
X10118027Y11513067D01*
X10122264Y11508830D01*
X10144789Y11499500D01*
X10194022Y11479107D01*
X10194025Y11479104D01*
X10218027Y11463067D01*
X10222264Y11458830D01*
X10242218Y11450565D01*
X10243457Y11450052D01*
X10244843Y11449477D01*
X10263968Y11430336D01*
X10284866Y11409434D01*
X10284872Y11409415D01*
X10284875Y11409412D01*
X10284874Y11409408D01*
X10287974Y11400276D01*
X10300089Y11355065D01*
X10300090Y11355061D01*
X10331553Y11300566D01*
X10349525Y11269438D01*
X10419438Y11199525D01*
X10505062Y11150090D01*
X10505063Y11150090D01*
X10505065Y11150089D01*
X10540520Y11140589D01*
X10600562Y11124501D01*
X10600563Y11124500D01*
X10600565Y11124500D01*
X10699437Y11124500D01*
X10699437Y11124501D01*
X10794938Y11150090D01*
X10880562Y11199525D01*
X10950475Y11269438D01*
X10999910Y11355062D01*
X11018547Y11424616D01*
X11025500Y11450563D01*
X11025500Y11549437D01*
X11025499Y11549438D01*
X11022982Y11558830D01*
X11008387Y11613300D01*
X10999911Y11644935D01*
X10999909Y11644940D01*
X10954271Y11723987D01*
X10950475Y11730562D01*
X10880562Y11800475D01*
X10794939Y11849910D01*
X10794934Y11849912D01*
X10699437Y11875500D01*
X10699435Y11875500D01*
X10600565Y11875500D01*
X10530278Y11856668D01*
X10482807Y11859781D01*
X10455977Y11870895D01*
X10431971Y11886935D01*
X10427738Y11891168D01*
X10427736Y11891170D01*
X10419926Y11894405D01*
X10403460Y11901226D01*
X10355978Y11920894D01*
X10331971Y11936935D01*
X10327738Y11941168D01*
X10327736Y11941170D01*
X10303460Y11951226D01*
X10255978Y11970894D01*
X10247524Y11975044D01*
X10238955Y11979951D01*
X10227736Y11991170D01*
X10201838Y12001897D01*
X10187616Y12007788D01*
X10144855Y12025501D01*
X10055145Y12025501D01*
X10046533Y12025501D01*
X10046525Y12025500D01*
X9553475Y12025500D01*
X9553467Y12025501D01*
X9544855Y12025501D01*
X9455145Y12025501D01*
X9400071Y12002688D01*
X9400067Y12002687D01*
X9398162Y12001897D01*
X9372264Y11991170D01*
X9368658Y11987565D01*
X9357559Y11982221D01*
X9334079Y11980905D01*
X9311018Y11976319D01*
X9306471Y11979358D01*
X9301010Y11979051D01*
X9283474Y11994726D01*
X9263928Y12007788D01*
X9260570Y12015200D01*
X9258784Y12016796D01*
X9258633Y12019474D01*
X9253981Y12029743D01*
X9249910Y12044938D01*
X9200475Y12130562D01*
X9193463Y12137574D01*
X9171789Y12189900D01*
X9193463Y12242226D01*
X9245789Y12263900D01*
X11179500Y12263900D01*
X11231826Y12242226D01*
X11253500Y12189900D01*
X11253500Y7946071D01*
X11291634Y7854006D01*
X11291635Y7854004D01*
X11291636Y7854003D01*
X13719603Y5426036D01*
X13811672Y5387900D01*
X13811673Y5387900D01*
X14975027Y5387900D01*
X14975028Y5387900D01*
X15067097Y5426036D01*
X15787364Y6146303D01*
X15825500Y6238372D01*
X15825500Y6338028D01*
X15825500Y6825500D01*
X15847174Y6877826D01*
X15884146Y6897890D01*
X15891737Y6899500D01*
X15914820Y6899500D01*
X15958722Y6908233D01*
X15970725Y6916254D01*
X15984646Y6919206D01*
X15999555Y6916436D01*
X16014429Y6919396D01*
X16039486Y6909017D01*
X16040330Y6908860D01*
X16040514Y6908591D01*
X16041113Y6908343D01*
X16041278Y6908233D01*
X16085180Y6899500D01*
X16085181Y6899500D01*
X16764819Y6899500D01*
X16764820Y6899500D01*
X16808722Y6908233D01*
X16858504Y6941496D01*
X16891767Y6991278D01*
X16900500Y7035180D01*
X16900500Y7150500D01*
X16922174Y7202826D01*
X16974500Y7224500D01*
X17056527Y7224500D01*
X17056528Y7224500D01*
X17148597Y7262636D01*
X17219064Y7333103D01*
X17257200Y7425172D01*
X17257200Y7988484D01*
X20349500Y7988484D01*
X20349500Y7161516D01*
X20352488Y7135762D01*
X20398999Y7030423D01*
X20480423Y6948999D01*
X20585762Y6902488D01*
X20611516Y6899500D01*
X20611520Y6899500D01*
X22388480Y6899500D01*
X22388484Y6899500D01*
X22414238Y6902488D01*
X22519577Y6948999D01*
X22601001Y7030423D01*
X22647512Y7135762D01*
X22650500Y7161516D01*
X22650500Y7988484D01*
X22647512Y8014238D01*
X22601001Y8119577D01*
X22519577Y8201001D01*
X22414238Y8247512D01*
X22414239Y8247512D01*
X22409087Y8248110D01*
X22388484Y8250500D01*
X22388480Y8250500D01*
X21704915Y8250500D01*
X21652589Y8272174D01*
X21630915Y8324500D01*
X21640828Y8361499D01*
X21656599Y8388814D01*
X21687299Y8503389D01*
X21687300Y8503389D01*
X21687300Y8622011D01*
X21687299Y8622012D01*
X21680434Y8647631D01*
X21663017Y8712635D01*
X21656600Y8736583D01*
X21656598Y8736588D01*
X21597291Y8839310D01*
X21597290Y8839311D01*
X21597289Y8839313D01*
X21513413Y8923189D01*
X21513410Y8923191D01*
X21513409Y8923192D01*
X21410687Y8982499D01*
X21410682Y8982501D01*
X21296111Y9013200D01*
X21296109Y9013200D01*
X21177491Y9013200D01*
X21177489Y9013200D01*
X21062917Y8982501D01*
X21062912Y8982499D01*
X20960190Y8923192D01*
X20876308Y8839310D01*
X20817001Y8736588D01*
X20816999Y8736583D01*
X20786300Y8622012D01*
X20786300Y8503389D01*
X20816999Y8388818D01*
X20817000Y8388817D01*
X20817001Y8388814D01*
X20832771Y8361500D01*
X20840164Y8305348D01*
X20805686Y8260414D01*
X20768685Y8250500D01*
X20611516Y8250500D01*
X20590912Y8248110D01*
X20585761Y8247512D01*
X20480422Y8201001D01*
X20398999Y8119578D01*
X20360128Y8031541D01*
X20352488Y8014238D01*
X20349500Y7988484D01*
X17257200Y7988484D01*
X17257200Y10553128D01*
X17219064Y10645197D01*
X17148597Y10715664D01*
X17144382Y10719879D01*
X17144375Y10719885D01*
X16952173Y10912087D01*
X16930499Y10964413D01*
X16930499Y11227623D01*
X16928858Y11241773D01*
X16927730Y11251498D01*
X16884616Y11349141D01*
X16809141Y11424616D01*
X16711498Y11467730D01*
X16687623Y11470500D01*
X16687619Y11470500D01*
X16493411Y11470500D01*
X16441085Y11492174D01*
X16419411Y11544500D01*
X16441084Y11596825D01*
X16829133Y11984874D01*
X16862303Y12004024D01*
X16884986Y12010101D01*
X16987713Y12069411D01*
X17071589Y12153287D01*
X17114506Y12227620D01*
X17319500Y12227620D01*
X17319500Y11772378D01*
X17322269Y11748505D01*
X17322269Y11748503D01*
X17322270Y11748502D01*
X17365384Y11650859D01*
X17440859Y11575384D01*
X17538502Y11532270D01*
X17562377Y11529500D01*
X17825586Y11529501D01*
X17877912Y11507827D01*
X18360615Y11025125D01*
X18360619Y11025121D01*
X18366929Y11018810D01*
X18366933Y11018800D01*
X18381944Y10992813D01*
X18383346Y10993393D01*
X18385201Y10988913D01*
X18444508Y10886191D01*
X18444509Y10886190D01*
X18444511Y10886187D01*
X18528387Y10802311D01*
X18528389Y10802310D01*
X18528390Y10802309D01*
X18616395Y10751499D01*
X18631114Y10743001D01*
X18631115Y10743001D01*
X18631117Y10743000D01*
X18656902Y10736091D01*
X18745688Y10712301D01*
X18745689Y10712300D01*
X18745691Y10712300D01*
X18864311Y10712300D01*
X18864311Y10712301D01*
X18978886Y10743001D01*
X19081613Y10802311D01*
X19165489Y10886187D01*
X19224799Y10988914D01*
X19255499Y11103489D01*
X19255500Y11103489D01*
X19255500Y11222111D01*
X19255499Y11222112D01*
X19254859Y11224499D01*
X19226359Y11330863D01*
X19224800Y11336683D01*
X19224798Y11336688D01*
X19165491Y11439410D01*
X19165490Y11439411D01*
X19165489Y11439413D01*
X19081613Y11523289D01*
X19081610Y11523291D01*
X19081609Y11523292D01*
X18978887Y11582599D01*
X18978882Y11582601D01*
X18864311Y11613300D01*
X18864309Y11613300D01*
X18745691Y11613300D01*
X18745689Y11613300D01*
X18631115Y11582600D01*
X18604557Y11567267D01*
X18548405Y11559876D01*
X18515233Y11579028D01*
X18182173Y11912088D01*
X18160499Y11964414D01*
X18160499Y12227623D01*
X18157730Y12251496D01*
X18157730Y12251498D01*
X18114616Y12349141D01*
X18039141Y12424616D01*
X17941498Y12467730D01*
X17917623Y12470500D01*
X17917619Y12470500D01*
X17562377Y12470500D01*
X17538504Y12467731D01*
X17440858Y12424616D01*
X17365385Y12349143D01*
X17322270Y12251499D01*
X17319500Y12227620D01*
X17114506Y12227620D01*
X17130899Y12256014D01*
X17161599Y12370589D01*
X17161600Y12370589D01*
X17161600Y12489211D01*
X17161599Y12489212D01*
X17130900Y12603783D01*
X17130898Y12603788D01*
X17071591Y12706510D01*
X17071590Y12706511D01*
X17071589Y12706513D01*
X16987713Y12790389D01*
X16987710Y12790391D01*
X16987709Y12790392D01*
X16884987Y12849699D01*
X16884982Y12849701D01*
X16770411Y12880400D01*
X16770409Y12880400D01*
X16651791Y12880400D01*
X16651789Y12880400D01*
X16537217Y12849701D01*
X16537212Y12849699D01*
X16434490Y12790392D01*
X16350613Y12706515D01*
X16349031Y12704452D01*
X16347895Y12703797D01*
X16347182Y12703083D01*
X16346990Y12703275D01*
X16344603Y12701896D01*
X16342648Y12697174D01*
X16320627Y12688053D01*
X16299982Y12676133D01*
X16290322Y12675500D01*
X16253475Y12675500D01*
X16253467Y12675501D01*
X16244855Y12675501D01*
X16155145Y12675501D01*
X16096566Y12651236D01*
X16096565Y12651236D01*
X16072266Y12641172D01*
X15178268Y11747174D01*
X15125942Y11725500D01*
X15050563Y11725500D01*
X14955065Y11699912D01*
X14955060Y11699910D01*
X14869437Y11650475D01*
X14843526Y11624563D01*
X14791200Y11602889D01*
X14738874Y11624563D01*
X14717200Y11676889D01*
X14717200Y12322288D01*
X14738873Y12374613D01*
X14912087Y12547828D01*
X14964413Y12569501D01*
X15227622Y12569501D01*
X15251498Y12572270D01*
X15349141Y12615384D01*
X15424616Y12690859D01*
X15467730Y12788502D01*
X15470500Y12812377D01*
X15470499Y13167622D01*
X15467730Y13191498D01*
X15424616Y13289141D01*
X15349141Y13364616D01*
X15251498Y13407730D01*
X15227623Y13410500D01*
X15227619Y13410500D01*
X14772377Y13410500D01*
X14748504Y13407731D01*
X14650858Y13364616D01*
X14575385Y13289143D01*
X14532270Y13191499D01*
X14529733Y13169633D01*
X14502171Y13120155D01*
X14447695Y13104657D01*
X14398217Y13132219D01*
X14393541Y13139103D01*
X14392692Y13140209D01*
X14392690Y13140211D01*
X14392689Y13140213D01*
X14308813Y13224089D01*
X14308810Y13224091D01*
X14308809Y13224092D01*
X14206087Y13283399D01*
X14206082Y13283401D01*
X14091511Y13314100D01*
X14091509Y13314100D01*
X14004499Y13314100D01*
X13952173Y13335774D01*
X13930499Y13388100D01*
X13930499Y13727623D01*
X13927730Y13751496D01*
X13927730Y13751498D01*
X13884616Y13849141D01*
X13809141Y13924616D01*
X13711498Y13967730D01*
X13687623Y13970500D01*
X13687619Y13970500D01*
X13332377Y13970500D01*
X13308504Y13967731D01*
X13210858Y13924616D01*
X13135385Y13849143D01*
X13135384Y13849142D01*
X13135384Y13849141D01*
X13092270Y13751498D01*
X13090083Y13732643D01*
X13089500Y13727620D01*
X13089500Y13272378D01*
X13092269Y13248505D01*
X13092269Y13248503D01*
X13092270Y13248502D01*
X13135384Y13150859D01*
X13210859Y13075384D01*
X13308502Y13032270D01*
X13332377Y13029500D01*
X13481386Y13029501D01*
X13533712Y13007827D01*
X13560192Y12981347D01*
X13581866Y12929021D01*
X13581700Y12926487D01*
X13581700Y12804289D01*
X13612399Y12689718D01*
X13612401Y12689713D01*
X13671708Y12586991D01*
X13671709Y12586990D01*
X13671711Y12586987D01*
X13755587Y12503111D01*
X13755589Y12503110D01*
X13755590Y12503109D01*
X13858312Y12443802D01*
X13858314Y12443801D01*
X13858315Y12443801D01*
X13858317Y12443800D01*
X13902673Y12431915D01*
X13972888Y12413101D01*
X13972889Y12413100D01*
X13972891Y12413100D01*
X14091511Y12413100D01*
X14091511Y12413101D01*
X14104855Y12416677D01*
X14123047Y12421550D01*
X14179200Y12414158D01*
X14213678Y12369225D01*
X14216200Y12350072D01*
X14216200Y10971119D01*
X14194526Y10918793D01*
X14192617Y10917120D01*
X14106208Y10830710D01*
X14046901Y10727988D01*
X14046899Y10727983D01*
X14016200Y10613412D01*
X14016200Y10494789D01*
X14046899Y10380218D01*
X14046901Y10380213D01*
X14106208Y10277491D01*
X14106209Y10277490D01*
X14106211Y10277487D01*
X14190087Y10193611D01*
X14190089Y10193610D01*
X14190090Y10193609D01*
X14292812Y10134302D01*
X14292814Y10134301D01*
X14292815Y10134301D01*
X14292817Y10134300D01*
X14350102Y10118951D01*
X14407388Y10103601D01*
X14407389Y10103600D01*
X14407391Y10103600D01*
X14526011Y10103600D01*
X14526011Y10103601D01*
X14640586Y10134301D01*
X14743313Y10193611D01*
X14827189Y10277487D01*
X14886499Y10380214D01*
X14917199Y10494789D01*
X14917200Y10494789D01*
X14917200Y10613411D01*
X14917199Y10613412D01*
X14907165Y10650858D01*
X14889801Y10715664D01*
X14886500Y10727983D01*
X14886498Y10727988D01*
X14827191Y10830710D01*
X14827190Y10830711D01*
X14827189Y10830713D01*
X14743313Y10914589D01*
X14743312Y10914590D01*
X14739884Y10918018D01*
X14740136Y10918271D01*
X14738874Y10918793D01*
X14729751Y10940818D01*
X14717833Y10961460D01*
X14717200Y10971119D01*
X14717200Y11023111D01*
X14738874Y11075437D01*
X14791200Y11097111D01*
X14843526Y11075437D01*
X14869438Y11049525D01*
X14955062Y11000090D01*
X15014655Y10984122D01*
X15059587Y10949644D01*
X15069501Y10912644D01*
X15069501Y10772378D01*
X15072269Y10748505D01*
X15072269Y10748503D01*
X15072270Y10748502D01*
X15115384Y10650859D01*
X15190859Y10575384D01*
X15288502Y10532270D01*
X15312377Y10529500D01*
X15667622Y10529501D01*
X15691498Y10532270D01*
X15789141Y10575384D01*
X15864616Y10650859D01*
X15907730Y10748502D01*
X15910500Y10772377D01*
X15910499Y11035589D01*
X15932172Y11087913D01*
X15963175Y11118916D01*
X16015500Y11140589D01*
X16067826Y11118915D01*
X16089500Y11066589D01*
X16089500Y10772378D01*
X16092269Y10748505D01*
X16092269Y10748503D01*
X16092270Y10748502D01*
X16135384Y10650859D01*
X16210859Y10575384D01*
X16308502Y10532270D01*
X16332377Y10529500D01*
X16595586Y10529501D01*
X16647912Y10507827D01*
X16734526Y10421214D01*
X16756200Y10368888D01*
X16756200Y9574500D01*
X16734526Y9522174D01*
X16682200Y9500500D01*
X16085180Y9500500D01*
X16076448Y9498764D01*
X16041279Y9491768D01*
X16041275Y9491766D01*
X16041107Y9491653D01*
X16040908Y9491614D01*
X16034546Y9488978D01*
X16034021Y9490245D01*
X15985557Y9480608D01*
X15958893Y9491653D01*
X15958724Y9491766D01*
X15958720Y9491768D01*
X15925720Y9498332D01*
X15914820Y9500500D01*
X15235180Y9500500D01*
X15213229Y9496134D01*
X15191277Y9491767D01*
X15141496Y9458505D01*
X15141495Y9458504D01*
X15108233Y9408723D01*
X15099500Y9364820D01*
X15099500Y9351713D01*
X15077826Y9299387D01*
X15025500Y9277713D01*
X14973174Y9299387D01*
X14692173Y9580388D01*
X14670499Y9632714D01*
X14670499Y9687623D01*
X14667730Y9711496D01*
X14667730Y9711498D01*
X14624616Y9809141D01*
X14549141Y9884616D01*
X14451498Y9927730D01*
X14427623Y9930500D01*
X14427619Y9930500D01*
X13972377Y9930500D01*
X13948504Y9927731D01*
X13850858Y9884616D01*
X13775383Y9809141D01*
X13732811Y9712726D01*
X13691848Y9673614D01*
X13635226Y9674923D01*
X13628117Y9678531D01*
X13573787Y9709899D01*
X13573782Y9709901D01*
X13459211Y9740600D01*
X13459209Y9740600D01*
X13340591Y9740600D01*
X13340589Y9740600D01*
X13226017Y9709901D01*
X13226012Y9709899D01*
X13123290Y9650592D01*
X13039408Y9566710D01*
X12980101Y9463988D01*
X12980099Y9463983D01*
X12949400Y9349412D01*
X12949400Y9230789D01*
X12980099Y9116218D01*
X12980101Y9116213D01*
X13039408Y9013491D01*
X13039409Y9013490D01*
X13039411Y9013487D01*
X13123287Y8929611D01*
X13123289Y8929610D01*
X13123290Y8929609D01*
X13226012Y8870302D01*
X13226014Y8870301D01*
X13226015Y8870301D01*
X13226017Y8870300D01*
X13283302Y8854951D01*
X13340588Y8839601D01*
X13340589Y8839600D01*
X13464060Y8839600D01*
X13464060Y8836883D01*
X13510370Y8824474D01*
X13517647Y8818092D01*
X13707826Y8627913D01*
X13729500Y8575587D01*
X13729500Y8312378D01*
X13732269Y8288505D01*
X13732269Y8288503D01*
X13732270Y8288502D01*
X13775384Y8190859D01*
X13850859Y8115384D01*
X13948502Y8072270D01*
X13972377Y8069500D01*
X14427622Y8069501D01*
X14451498Y8072270D01*
X14494610Y8091307D01*
X14510142Y8091666D01*
X14524500Y8097612D01*
X14537339Y8092294D01*
X14551231Y8092615D01*
X14562468Y8081885D01*
X14576826Y8075938D01*
X14582144Y8063099D01*
X14592194Y8053503D01*
X14598500Y8023612D01*
X14598500Y7993413D01*
X14576826Y7941087D01*
X14287912Y7652174D01*
X14235586Y7630500D01*
X13972377Y7630500D01*
X13948504Y7627731D01*
X13850858Y7584616D01*
X13775385Y7509143D01*
X13732270Y7411499D01*
X13729500Y7387620D01*
X13729500Y7032378D01*
X13732269Y7008505D01*
X13732269Y7008503D01*
X13732270Y7008502D01*
X13775384Y6910859D01*
X13850859Y6835384D01*
X13948502Y6792270D01*
X13972377Y6789500D01*
X14266587Y6789501D01*
X14318913Y6767827D01*
X14340587Y6715501D01*
X14318913Y6663175D01*
X14287912Y6632174D01*
X14235586Y6610500D01*
X13972377Y6610500D01*
X13948504Y6607731D01*
X13850858Y6564616D01*
X13775385Y6489143D01*
X13732270Y6391499D01*
X13729500Y6367620D01*
X13729500Y6303313D01*
X13707826Y6250987D01*
X13655500Y6229313D01*
X13603174Y6250987D01*
X11776174Y8077987D01*
X11754500Y8130313D01*
X11754500Y12379589D01*
X11776173Y12431914D01*
X12352086Y13007828D01*
X12404412Y13029501D01*
X12667622Y13029501D01*
X12691498Y13032270D01*
X12789141Y13075384D01*
X12864616Y13150859D01*
X12907730Y13248502D01*
X12910500Y13272377D01*
X12910499Y13727622D01*
X12907730Y13751498D01*
X12864616Y13849141D01*
X12789141Y13924616D01*
X12789139Y13924617D01*
X12789137Y13924619D01*
X12784609Y13926618D01*
X12745497Y13967581D01*
X12740500Y13994312D01*
X12740500Y14205501D01*
X12762174Y14257827D01*
X12814500Y14279501D01*
X12917622Y14279501D01*
X12941498Y14282270D01*
X13039141Y14325384D01*
X13114616Y14400859D01*
X13157730Y14498502D01*
X13160500Y14522377D01*
X13160499Y14977620D01*
X13339500Y14977620D01*
X13339500Y14522378D01*
X13342269Y14498505D01*
X13342269Y14498503D01*
X13342270Y14498502D01*
X13385384Y14400859D01*
X13460859Y14325384D01*
X13558502Y14282270D01*
X13582377Y14279500D01*
X13937622Y14279501D01*
X13961498Y14282270D01*
X14059141Y14325384D01*
X14134616Y14400859D01*
X14177730Y14498502D01*
X14177731Y14498507D01*
X14179190Y14503868D01*
X14180767Y14503439D01*
X14198704Y14540544D01*
X14480853Y14822694D01*
X14533178Y14844367D01*
X14535711Y14844200D01*
X14539291Y14844200D01*
X14657911Y14844200D01*
X14657911Y14844201D01*
X14772486Y14874901D01*
X14875213Y14934211D01*
X14959089Y15018087D01*
X15018399Y15120814D01*
X15049099Y15235389D01*
X15049100Y15235389D01*
X15049100Y15354011D01*
X15049099Y15354012D01*
X15018400Y15468583D01*
X15018398Y15468588D01*
X14959091Y15571310D01*
X14959090Y15571311D01*
X14959089Y15571313D01*
X14875213Y15655189D01*
X14875210Y15655191D01*
X14875209Y15655192D01*
X14772487Y15714499D01*
X14772482Y15714501D01*
X14657911Y15745200D01*
X14657909Y15745200D01*
X14539291Y15745200D01*
X14539289Y15745200D01*
X14424717Y15714501D01*
X14424712Y15714499D01*
X14321990Y15655192D01*
X14238108Y15571310D01*
X14178801Y15468588D01*
X14178799Y15468583D01*
X14148100Y15354012D01*
X14148100Y15248904D01*
X14126426Y15196578D01*
X14074100Y15174904D01*
X14044210Y15181209D01*
X13961500Y15217730D01*
X13953539Y15218654D01*
X13937623Y15220500D01*
X13937619Y15220500D01*
X13582377Y15220500D01*
X13558504Y15217731D01*
X13460858Y15174616D01*
X13385385Y15099143D01*
X13342270Y15001499D01*
X13339500Y14977620D01*
X13160499Y14977620D01*
X13160499Y14977622D01*
X13157730Y15001498D01*
X13114616Y15099141D01*
X13039141Y15174616D01*
X12941498Y15217730D01*
X12917623Y15220500D01*
X12917619Y15220500D01*
X12562377Y15220500D01*
X12538504Y15217731D01*
X12440858Y15174616D01*
X12365385Y15099143D01*
X12322270Y15001499D01*
X12319500Y14977620D01*
X12319500Y14714414D01*
X12297827Y14662089D01*
X12277637Y14641899D01*
X12277634Y14641895D01*
X12239500Y14549830D01*
X12239500Y13994312D01*
X12217826Y13941986D01*
X12195391Y13926618D01*
X12190862Y13924619D01*
X12190859Y13924616D01*
X12115384Y13849141D01*
X12072270Y13751498D01*
X12070083Y13732643D01*
X12069500Y13727620D01*
X12069500Y13464413D01*
X12047826Y13412087D01*
X11422313Y12786574D01*
X11369987Y12764900D01*
X11050418Y12764900D01*
X10998092Y12786574D01*
X10976418Y12838900D01*
X10986332Y12875900D01*
X11014398Y12924513D01*
X11014399Y12924514D01*
X11045099Y13039089D01*
X11045100Y13039089D01*
X11045100Y13157711D01*
X11045099Y13157712D01*
X11042443Y13167623D01*
X11016777Y13263412D01*
X11014400Y13272283D01*
X11014398Y13272288D01*
X10955091Y13375010D01*
X10955090Y13375011D01*
X10955089Y13375013D01*
X10871213Y13458889D01*
X10871210Y13458891D01*
X10871209Y13458892D01*
X10768487Y13518199D01*
X10768482Y13518201D01*
X10653911Y13548900D01*
X10653909Y13548900D01*
X10535291Y13548900D01*
X10535289Y13548900D01*
X10420717Y13518201D01*
X10420712Y13518199D01*
X10317990Y13458892D01*
X10230681Y13371583D01*
X10230429Y13371835D01*
X10229907Y13370574D01*
X10207891Y13361455D01*
X10187251Y13349534D01*
X10177581Y13348900D01*
X10048512Y13348900D01*
X9996186Y13370574D01*
X9922173Y13444587D01*
X9900499Y13496913D01*
X9900499Y14194864D01*
X9899265Y14205501D01*
X9897585Y14219991D01*
X9852206Y14322765D01*
X9772765Y14402206D01*
X9669991Y14447585D01*
X9669990Y14447586D01*
X9669988Y14447586D01*
X9648659Y14450060D01*
X9644865Y14450500D01*
X9644864Y14450500D01*
X9255136Y14450500D01*
X9230013Y14447586D01*
X9230007Y14447585D01*
X9127234Y14402206D01*
X9047794Y14322766D01*
X9002414Y14219989D01*
X8999500Y14194865D01*
X8999500Y13171913D01*
X8977826Y13119587D01*
X8925500Y13097913D01*
X8873174Y13119587D01*
X8391674Y13601087D01*
X8370000Y13653413D01*
X8370000Y14386728D01*
X8369999Y14386730D01*
X8362431Y14405000D01*
X8343585Y14450500D01*
X8331865Y14478795D01*
X8331863Y14478798D01*
X7762174Y15048487D01*
X7740500Y15100813D01*
X7740500Y15970512D01*
X10476100Y15970512D01*
X10476100Y15851889D01*
X10506799Y15737318D01*
X10506801Y15737313D01*
X10566108Y15634591D01*
X10566109Y15634590D01*
X10566111Y15634587D01*
X10649987Y15550711D01*
X10649989Y15550710D01*
X10649990Y15550709D01*
X10738686Y15499500D01*
X10752714Y15491401D01*
X10752715Y15491401D01*
X10752717Y15491400D01*
X10803376Y15477826D01*
X10867288Y15460701D01*
X10867289Y15460700D01*
X10925500Y15460700D01*
X10977826Y15439026D01*
X10999500Y15386700D01*
X10999500Y15200233D01*
X10977826Y15147907D01*
X10955391Y15132539D01*
X10912984Y15113814D01*
X10836187Y15037017D01*
X10792318Y14937663D01*
X10789500Y14913370D01*
X10789500Y14546628D01*
X10792317Y14522341D01*
X10792317Y14522339D01*
X10792318Y14522338D01*
X10836187Y14422984D01*
X10912984Y14346187D01*
X11012338Y14302318D01*
X11036627Y14299500D01*
X11463372Y14299501D01*
X11487662Y14302318D01*
X11587016Y14346187D01*
X11663813Y14422984D01*
X11707682Y14522338D01*
X11710500Y14546627D01*
X11710499Y14913372D01*
X11707682Y14937662D01*
X11663813Y15037016D01*
X11587016Y15113813D01*
X11587015Y15113814D01*
X11544609Y15132539D01*
X11505497Y15173502D01*
X11500500Y15200233D01*
X11500500Y15500611D01*
X11522174Y15552937D01*
X11549780Y15570360D01*
X11561462Y15574500D01*
X11569748Y15574500D01*
X11628231Y15586133D01*
X11666571Y15611752D01*
X11675280Y15614838D01*
X11695034Y15613808D01*
X11714435Y15617667D01*
X11727890Y15612095D01*
X11731841Y15611888D01*
X11733896Y15609607D01*
X11741111Y15606619D01*
X11771769Y15586133D01*
X11830252Y15574500D01*
X11830254Y15574500D01*
X11969746Y15574500D01*
X11969748Y15574500D01*
X12028231Y15586133D01*
X12058887Y15606618D01*
X12114435Y15617667D01*
X12141111Y15606619D01*
X12171769Y15586133D01*
X12230252Y15574500D01*
X12230254Y15574500D01*
X12369746Y15574500D01*
X12369748Y15574500D01*
X12428231Y15586133D01*
X12458887Y15606618D01*
X12514435Y15617667D01*
X12541111Y15606619D01*
X12571769Y15586133D01*
X12630252Y15574500D01*
X12630254Y15574500D01*
X12769746Y15574500D01*
X12769748Y15574500D01*
X12828231Y15586133D01*
X12858887Y15606618D01*
X12914435Y15617667D01*
X12941111Y15606619D01*
X12971769Y15586133D01*
X13030252Y15574500D01*
X13030254Y15574500D01*
X13169746Y15574500D01*
X13169748Y15574500D01*
X13228231Y15586133D01*
X13294552Y15630448D01*
X13338867Y15696769D01*
X13350500Y15755252D01*
X13350500Y16244748D01*
X13338867Y16303231D01*
X13337384Y16305450D01*
X13308223Y16349092D01*
X13294552Y16369552D01*
X13258887Y16393383D01*
X13228232Y16413867D01*
X13228233Y16413867D01*
X13198989Y16419684D01*
X13169748Y16425500D01*
X13030252Y16425500D01*
X13001010Y16419684D01*
X12971767Y16413867D01*
X12941112Y16393383D01*
X12885564Y16382334D01*
X12858888Y16393383D01*
X12828231Y16413867D01*
X12828233Y16413867D01*
X12798989Y16419684D01*
X12769748Y16425500D01*
X12630252Y16425500D01*
X12601010Y16419684D01*
X12571767Y16413867D01*
X12541112Y16393383D01*
X12485564Y16382334D01*
X12458888Y16393383D01*
X12428231Y16413867D01*
X12428233Y16413867D01*
X12398989Y16419684D01*
X12369748Y16425500D01*
X12230252Y16425500D01*
X12201010Y16419684D01*
X12171767Y16413867D01*
X12141112Y16393383D01*
X12085564Y16382334D01*
X12058888Y16393383D01*
X12028231Y16413867D01*
X12028233Y16413867D01*
X11998989Y16419684D01*
X11969748Y16425500D01*
X11830252Y16425500D01*
X11801010Y16419684D01*
X11771767Y16413867D01*
X11741112Y16393383D01*
X11685564Y16382334D01*
X11658888Y16393383D01*
X11628231Y16413867D01*
X11628233Y16413867D01*
X11598989Y16419684D01*
X11569748Y16425500D01*
X11499500Y16425500D01*
X11447174Y16447174D01*
X11425500Y16499500D01*
X11425500Y16569747D01*
X11425500Y16569748D01*
X13574500Y16569748D01*
X13574500Y16430252D01*
X13578847Y16408399D01*
X13586133Y16371768D01*
X13613046Y16331492D01*
X13630448Y16305448D01*
X13674560Y16275973D01*
X13696767Y16261134D01*
X13696768Y16261134D01*
X13696769Y16261133D01*
X13755252Y16249500D01*
X13755254Y16249500D01*
X14244746Y16249500D01*
X14244748Y16249500D01*
X14303231Y16261133D01*
X14369552Y16305448D01*
X14413867Y16371769D01*
X14425500Y16430252D01*
X14425500Y16569748D01*
X14413867Y16628231D01*
X14411890Y16631189D01*
X14393493Y16658722D01*
X14369552Y16694552D01*
X14347343Y16709392D01*
X14303232Y16738867D01*
X14303233Y16738867D01*
X14273989Y16744684D01*
X14244748Y16750500D01*
X13755252Y16750500D01*
X13726010Y16744684D01*
X13696767Y16738867D01*
X13630449Y16694553D01*
X13630447Y16694551D01*
X13586133Y16628233D01*
X13580928Y16602065D01*
X13574500Y16569748D01*
X11425500Y16569748D01*
X11414510Y16625000D01*
X11705000Y16625000D01*
X13295000Y16625000D01*
X13295000Y18375000D01*
X11705000Y18375000D01*
X11705000Y16625000D01*
X11414510Y16625000D01*
X11413867Y16628231D01*
X11411890Y16631189D01*
X11393493Y16658722D01*
X11369552Y16694552D01*
X11347343Y16709392D01*
X11303232Y16738867D01*
X11303233Y16738867D01*
X11273989Y16744684D01*
X11244748Y16750500D01*
X10755252Y16750500D01*
X10726010Y16744684D01*
X10696767Y16738867D01*
X10630449Y16694553D01*
X10630447Y16694551D01*
X10586133Y16628233D01*
X10580928Y16602065D01*
X10574500Y16569748D01*
X10574500Y16430252D01*
X10578847Y16408399D01*
X10586133Y16371768D01*
X10618055Y16323995D01*
X10629105Y16268447D01*
X10608854Y16230557D01*
X10566108Y16187810D01*
X10506801Y16085088D01*
X10506799Y16085083D01*
X10476100Y15970512D01*
X7740500Y15970512D01*
X7740500Y17463370D01*
X9299500Y17463370D01*
X9299500Y17036628D01*
X9302317Y17012341D01*
X9302317Y17012339D01*
X9302318Y17012338D01*
X9346187Y16912984D01*
X9422984Y16836187D01*
X9522338Y16792318D01*
X9546627Y16789500D01*
X9913372Y16789501D01*
X9937662Y16792318D01*
X10037016Y16836187D01*
X10113813Y16912984D01*
X10157682Y17012338D01*
X10157682Y17012347D01*
X10159142Y17017706D01*
X10161740Y17017000D01*
X10184846Y17058498D01*
X10230804Y17074500D01*
X10654316Y17074500D01*
X10689940Y17063694D01*
X10690035Y17063922D01*
X10692356Y17062961D01*
X10695427Y17062029D01*
X10696767Y17061134D01*
X10696769Y17061133D01*
X10755252Y17049500D01*
X10755254Y17049500D01*
X11244746Y17049500D01*
X11244748Y17049500D01*
X11303231Y17061133D01*
X11369552Y17105448D01*
X11413867Y17171769D01*
X11425500Y17230252D01*
X11425500Y17369748D01*
X11413867Y17428231D01*
X11399894Y17449142D01*
X11379415Y17479791D01*
X11369552Y17494552D01*
X11323236Y17525500D01*
X11303232Y17538867D01*
X11303233Y17538867D01*
X11273989Y17544684D01*
X11244748Y17550500D01*
X10755252Y17550500D01*
X10726010Y17544684D01*
X10696767Y17538867D01*
X10695427Y17537971D01*
X10692356Y17537040D01*
X10690035Y17536078D01*
X10689940Y17536307D01*
X10654316Y17525500D01*
X10191323Y17525500D01*
X10171295Y17528262D01*
X10168862Y17528946D01*
X10124355Y17563973D01*
X10121202Y17570281D01*
X10113813Y17587016D01*
X10037016Y17663813D01*
X9937662Y17707682D01*
X9937663Y17707682D01*
X9932804Y17708246D01*
X9913373Y17710500D01*
X9913369Y17710500D01*
X9546627Y17710500D01*
X9522340Y17707683D01*
X9422983Y17663813D01*
X9346187Y17587017D01*
X9302318Y17487663D01*
X9299500Y17463370D01*
X7740500Y17463370D01*
X7740500Y18005689D01*
X7762174Y18058015D01*
X7784608Y18073383D01*
X7789141Y18075384D01*
X7864616Y18150859D01*
X7907730Y18248502D01*
X7910500Y18272377D01*
X7910499Y18535589D01*
X7932172Y18587913D01*
X7963175Y18618916D01*
X8015500Y18640589D01*
X8067826Y18618915D01*
X8089500Y18566589D01*
X8089500Y18272378D01*
X8092269Y18248505D01*
X8092269Y18248503D01*
X8092270Y18248502D01*
X8135384Y18150859D01*
X8210859Y18075384D01*
X8308502Y18032270D01*
X8332377Y18029500D01*
X8687622Y18029501D01*
X8711498Y18032270D01*
X8809141Y18075384D01*
X8884616Y18150859D01*
X8927730Y18248502D01*
X8930500Y18272377D01*
X8930499Y18535589D01*
X8952172Y18587913D01*
X9276988Y18912730D01*
X9276991Y18912731D01*
X9287396Y18923136D01*
X9287397Y18923136D01*
X9357864Y18993603D01*
X9389017Y19068813D01*
X9393150Y19078789D01*
X9396001Y19085673D01*
X9396001Y19191286D01*
X9396000Y19191300D01*
X9396000Y19490120D01*
X9417674Y19542446D01*
X9470000Y19564120D01*
X9499890Y19557815D01*
X9512338Y19552318D01*
X9536627Y19549500D01*
X9963372Y19549501D01*
X9987662Y19552318D01*
X10047627Y19578796D01*
X10077516Y19585100D01*
X10114200Y19585100D01*
X10166526Y19563426D01*
X10188200Y19511100D01*
X10188200Y18298171D01*
X10226334Y18206106D01*
X10226335Y18206104D01*
X10226336Y18206103D01*
X10544803Y17887636D01*
X10636872Y17849500D01*
X10636873Y17849500D01*
X11244746Y17849500D01*
X11244748Y17849500D01*
X11303231Y17861133D01*
X11369552Y17905448D01*
X11413867Y17971769D01*
X11425500Y18030252D01*
X11425500Y18169748D01*
X11413867Y18228231D01*
X11393382Y18258888D01*
X11382333Y18314435D01*
X11385955Y18326854D01*
X11388888Y18334387D01*
X11413867Y18371769D01*
X11425500Y18430252D01*
X11425500Y18501836D01*
X11425549Y18503185D01*
X11436810Y18527806D01*
X11447174Y18552826D01*
X11448506Y18553379D01*
X11449107Y18554690D01*
X11474478Y18564136D01*
X11499500Y18574500D01*
X11569746Y18574500D01*
X11569748Y18574500D01*
X11628231Y18586133D01*
X11658887Y18606618D01*
X11714435Y18617667D01*
X11741111Y18606619D01*
X11771769Y18586133D01*
X11830252Y18574500D01*
X11830254Y18574500D01*
X11969746Y18574500D01*
X11969748Y18574500D01*
X12028231Y18586133D01*
X12058887Y18606618D01*
X12114435Y18617667D01*
X12141111Y18606619D01*
X12171769Y18586133D01*
X12230252Y18574500D01*
X12230254Y18574500D01*
X12369746Y18574500D01*
X12369748Y18574500D01*
X12428231Y18586133D01*
X12458887Y18606618D01*
X12514435Y18617667D01*
X12541111Y18606619D01*
X12571769Y18586133D01*
X12630252Y18574500D01*
X12630254Y18574500D01*
X12769746Y18574500D01*
X12769748Y18574500D01*
X12828231Y18586133D01*
X12858887Y18606618D01*
X12914435Y18617667D01*
X12941111Y18606619D01*
X12971769Y18586133D01*
X13030252Y18574500D01*
X13030254Y18574500D01*
X13169746Y18574500D01*
X13169748Y18574500D01*
X13228231Y18586133D01*
X13258887Y18606618D01*
X13314435Y18617667D01*
X13341111Y18606619D01*
X13371769Y18586133D01*
X13430252Y18574500D01*
X13430254Y18574500D01*
X13500500Y18574500D01*
X13552826Y18552826D01*
X13574500Y18500500D01*
X13574500Y18430252D01*
X13576025Y18422586D01*
X13586133Y18371768D01*
X13606617Y18341112D01*
X13617666Y18285564D01*
X13606617Y18258888D01*
X13586133Y18228233D01*
X13579521Y18194991D01*
X13574500Y18169748D01*
X13574500Y18030252D01*
X13582255Y17991264D01*
X13586133Y17971768D01*
X13606617Y17941112D01*
X13617666Y17885564D01*
X13606617Y17858888D01*
X13586133Y17828233D01*
X13586133Y17828231D01*
X13574500Y17769748D01*
X13574500Y17630252D01*
X13576889Y17618244D01*
X13586133Y17571768D01*
X13606617Y17541112D01*
X13617666Y17485564D01*
X13606617Y17458888D01*
X13586133Y17428233D01*
X13574500Y17369747D01*
X13574500Y17230254D01*
X13586133Y17171768D01*
X13606759Y17140900D01*
X13630448Y17105448D01*
X13664817Y17082483D01*
X13696767Y17061134D01*
X13696768Y17061134D01*
X13696769Y17061133D01*
X13755252Y17049500D01*
X13755254Y17049500D01*
X14244746Y17049500D01*
X14244748Y17049500D01*
X14303231Y17061133D01*
X14369552Y17105448D01*
X14413867Y17171769D01*
X14425500Y17230252D01*
X14425500Y17369748D01*
X14425500Y17373383D01*
X14426168Y17373383D01*
X14425291Y17375500D01*
X14434838Y17398551D01*
X14442077Y17422432D01*
X14445485Y17424256D01*
X14446965Y17427826D01*
X14470017Y17437375D01*
X14492021Y17449142D01*
X14499291Y17449500D01*
X14563334Y17449500D01*
X14615660Y17427826D01*
X14634812Y17394654D01*
X14642700Y17365217D01*
X14642701Y17365213D01*
X14702008Y17262491D01*
X14702009Y17262490D01*
X14702011Y17262487D01*
X14785887Y17178611D01*
X14785889Y17178610D01*
X14785890Y17178609D01*
X14882115Y17123053D01*
X14888614Y17119301D01*
X14888615Y17119301D01*
X14888617Y17119300D01*
X14940306Y17105450D01*
X15003188Y17088601D01*
X15003189Y17088600D01*
X15003191Y17088600D01*
X15121811Y17088600D01*
X15121811Y17088601D01*
X15236386Y17119301D01*
X15339113Y17178611D01*
X15422989Y17262487D01*
X15482299Y17365214D01*
X15512999Y17479789D01*
X15513000Y17479789D01*
X15513000Y17598411D01*
X15512999Y17598412D01*
X15508601Y17614824D01*
X15483720Y17707683D01*
X15482300Y17712983D01*
X15482298Y17712988D01*
X15422991Y17815710D01*
X15422990Y17815711D01*
X15422989Y17815713D01*
X15339113Y17899589D01*
X15339110Y17899591D01*
X15339109Y17899592D01*
X15236387Y17958899D01*
X15236382Y17958901D01*
X15121811Y17989600D01*
X15121809Y17989600D01*
X15003191Y17989600D01*
X15003189Y17989600D01*
X14999443Y17989107D01*
X14994508Y17990430D01*
X14989788Y17988474D01*
X14967763Y17997597D01*
X14944736Y18003767D01*
X14942181Y18008192D01*
X14937461Y18010147D01*
X14928337Y18032173D01*
X14916419Y18052817D01*
X14917741Y18057752D01*
X14915786Y18062472D01*
X14924908Y18084497D01*
X14931079Y18107524D01*
X14937459Y18114799D01*
X14957652Y18134993D01*
X15009976Y18156667D01*
X15012510Y18156500D01*
X15016091Y18156500D01*
X15134711Y18156500D01*
X15134711Y18156501D01*
X15249286Y18187201D01*
X15352013Y18246511D01*
X15435889Y18330387D01*
X15495199Y18433114D01*
X15525899Y18547689D01*
X15525900Y18547689D01*
X15525900Y18666311D01*
X15525899Y18666312D01*
X15518332Y18694551D01*
X15503657Y18749321D01*
X15495200Y18780883D01*
X15495198Y18780888D01*
X15435891Y18883610D01*
X15435890Y18883611D01*
X15435889Y18883613D01*
X15352013Y18967489D01*
X15352010Y18967491D01*
X15352009Y18967492D01*
X15249287Y19026799D01*
X15249282Y19026801D01*
X15134711Y19057500D01*
X15134709Y19057500D01*
X15016091Y19057500D01*
X15016089Y19057500D01*
X14901517Y19026801D01*
X14901512Y19026799D01*
X14798790Y18967492D01*
X14714908Y18883610D01*
X14655601Y18780888D01*
X14655599Y18780883D01*
X14624900Y18666312D01*
X14624900Y18542841D01*
X14624544Y18542841D01*
X14625066Y18541580D01*
X14615944Y18519558D01*
X14609774Y18496531D01*
X14603392Y18489254D01*
X14551826Y18437688D01*
X14499500Y18416014D01*
X14447174Y18437688D01*
X14425500Y18490014D01*
X14425500Y18569747D01*
X14422241Y18586133D01*
X14413867Y18628231D01*
X14411226Y18632183D01*
X14399027Y18650440D01*
X14369552Y18694552D01*
X14347343Y18709392D01*
X14303232Y18738867D01*
X14296500Y18741655D01*
X14298092Y18745500D01*
X14262953Y18769001D01*
X14250500Y18810086D01*
X14250500Y18997499D01*
X14272174Y19049825D01*
X14287497Y19061584D01*
X14384713Y19117711D01*
X14468589Y19201587D01*
X14527899Y19304314D01*
X14558600Y19418891D01*
X14558600Y19537509D01*
X14558600Y19537511D01*
X14558599Y19537512D01*
X14552619Y19559828D01*
X14538326Y19613171D01*
X14527900Y19652083D01*
X14527898Y19652088D01*
X14468591Y19754810D01*
X14468590Y19754811D01*
X14468589Y19754813D01*
X14384713Y19838689D01*
X14384710Y19838691D01*
X14384709Y19838692D01*
X14281987Y19897999D01*
X14281982Y19898001D01*
X14167411Y19928700D01*
X14167409Y19928700D01*
X14048791Y19928700D01*
X14048789Y19928700D01*
X13934217Y19898001D01*
X13934212Y19897999D01*
X13831490Y19838692D01*
X13747608Y19754810D01*
X13688301Y19652088D01*
X13688299Y19652083D01*
X13657600Y19537512D01*
X13657600Y19498195D01*
X13635926Y19445869D01*
X13583600Y19424195D01*
X13573368Y19425201D01*
X13573363Y19425144D01*
X13569750Y19425500D01*
X13569748Y19425500D01*
X13430252Y19425500D01*
X13401010Y19419684D01*
X13371767Y19413867D01*
X13341112Y19393383D01*
X13285564Y19382334D01*
X13258888Y19393383D01*
X13228231Y19413867D01*
X13228233Y19413867D01*
X13198989Y19419684D01*
X13169748Y19425500D01*
X13030252Y19425500D01*
X13001010Y19419684D01*
X12971767Y19413867D01*
X12941112Y19393383D01*
X12885564Y19382334D01*
X12858888Y19393383D01*
X12828231Y19413867D01*
X12828233Y19413867D01*
X12798989Y19419684D01*
X12769748Y19425500D01*
X12630252Y19425500D01*
X12601010Y19419684D01*
X12571767Y19413867D01*
X12541112Y19393383D01*
X12485564Y19382334D01*
X12458888Y19393383D01*
X12428231Y19413867D01*
X12428233Y19413867D01*
X12398989Y19419684D01*
X12369748Y19425500D01*
X12230252Y19425500D01*
X12201010Y19419684D01*
X12171767Y19413867D01*
X12141112Y19393383D01*
X12085564Y19382334D01*
X12058888Y19393383D01*
X12028231Y19413867D01*
X12028233Y19413867D01*
X11998989Y19419684D01*
X11969748Y19425500D01*
X11830252Y19425500D01*
X11801010Y19419684D01*
X11771767Y19413867D01*
X11741112Y19393383D01*
X11685564Y19382334D01*
X11658888Y19393383D01*
X11628231Y19413867D01*
X11628233Y19413867D01*
X11598989Y19419684D01*
X11569748Y19425500D01*
X11535953Y19425500D01*
X11483627Y19447174D01*
X11461953Y19499500D01*
X11483626Y19551825D01*
X11490789Y19558987D01*
X11550099Y19661714D01*
X11580799Y19776289D01*
X11580800Y19776289D01*
X11580800Y19894911D01*
X11580799Y19894912D01*
X11579660Y19899161D01*
X11550099Y20009486D01*
X11542422Y20022783D01*
X11490791Y20112210D01*
X11490790Y20112211D01*
X11490789Y20112213D01*
X11406913Y20196089D01*
X11406910Y20196091D01*
X11406909Y20196092D01*
X11304187Y20255399D01*
X11304182Y20255401D01*
X11189611Y20286100D01*
X11189609Y20286100D01*
X11070991Y20286100D01*
X11070989Y20286100D01*
X10956417Y20255401D01*
X10956412Y20255399D01*
X10853690Y20196092D01*
X10766381Y20108783D01*
X10764457Y20110707D01*
X10722951Y20086734D01*
X10713281Y20086100D01*
X10284499Y20086100D01*
X10232173Y20107774D01*
X10210499Y20160100D01*
X10210499Y20163373D01*
X10208530Y20180348D01*
X10207682Y20187662D01*
X10163813Y20287016D01*
X10087016Y20363813D01*
X10038969Y20385028D01*
X9999857Y20425990D01*
X10001165Y20482612D01*
X10004766Y20489710D01*
X10043799Y20557314D01*
X10074499Y20671889D01*
X10074500Y20671889D01*
X10074500Y20790511D01*
X10074499Y20790512D01*
X10073620Y20793791D01*
X10053772Y20867865D01*
X10043800Y20905083D01*
X10043798Y20905088D01*
X9984491Y21007810D01*
X9984490Y21007811D01*
X9984489Y21007813D01*
X9900613Y21091689D01*
X9900610Y21091691D01*
X9900609Y21091692D01*
X9797887Y21150999D01*
X9797883Y21151000D01*
X9720376Y21171769D01*
X9675444Y21206248D01*
X9668052Y21262400D01*
X9672770Y21280008D01*
X9699399Y21379389D01*
X9699400Y21379389D01*
X9699400Y21498011D01*
X9699399Y21498012D01*
X9668700Y21612583D01*
X9668698Y21612588D01*
X9609391Y21715310D01*
X9609390Y21715311D01*
X9609389Y21715313D01*
X9525513Y21799189D01*
X9525510Y21799191D01*
X9525509Y21799192D01*
X9434990Y21851453D01*
X9400511Y21896386D01*
X9404296Y21945430D01*
X9418903Y21978512D01*
X9427730Y21998502D01*
X9430500Y22022377D01*
X9430499Y22285588D01*
X9430742Y22286173D01*
X9442889Y22315499D01*
X9452173Y22337913D01*
X9452174Y22337914D01*
X9482088Y22367827D01*
X9489642Y22370956D01*
X9534413Y22389500D01*
X9715587Y22389500D01*
X9767913Y22367826D01*
X10257826Y21877913D01*
X10279500Y21825587D01*
X10279500Y21562378D01*
X10282269Y21538505D01*
X10282269Y21538503D01*
X10282270Y21538502D01*
X10325384Y21440859D01*
X10400859Y21365384D01*
X10498502Y21322270D01*
X10522377Y21319500D01*
X10977622Y21319501D01*
X11001498Y21322270D01*
X11099141Y21365384D01*
X11174616Y21440859D01*
X11217730Y21538502D01*
X11220500Y21562377D01*
X11220499Y21917622D01*
X11217730Y21941498D01*
X11174616Y22039141D01*
X11099141Y22114616D01*
X11001498Y22157730D01*
X10977623Y22160500D01*
X10977619Y22160500D01*
X10714413Y22160500D01*
X10662087Y22182174D01*
X9991898Y22852363D01*
X9991894Y22852366D01*
X9899828Y22890500D01*
X9891775Y22890500D01*
X9839449Y22912174D01*
X9817775Y22964500D01*
X9827688Y23001499D01*
X9855699Y23050014D01*
X9886399Y23164589D01*
X9886400Y23164589D01*
X9886400Y23283211D01*
X9886399Y23283212D01*
X9855700Y23397783D01*
X9855698Y23397788D01*
X9796391Y23500510D01*
X9796390Y23500511D01*
X9796389Y23500513D01*
X9712513Y23584389D01*
X9687498Y23598832D01*
X9653021Y23643767D01*
X9650500Y23662917D01*
X9650500Y23913185D01*
X9670046Y23963293D01*
X9676034Y23969801D01*
X9708504Y23991496D01*
X9741662Y24041122D01*
X9745546Y24045342D01*
X9766426Y24055026D01*
X9785562Y24067812D01*
X9791466Y24066638D01*
X9796927Y24069170D01*
X9818539Y24061253D01*
X9841111Y24056763D01*
X9847074Y24050800D01*
X9850108Y24049688D01*
X9851770Y24046104D01*
X9861529Y24036345D01*
X9891493Y23991499D01*
X9891496Y23991496D01*
X9916612Y23974714D01*
X9948078Y23927622D01*
X9949500Y23913185D01*
X9949500Y23793471D01*
X9987634Y23701406D01*
X9987637Y23701402D01*
X10063257Y23625782D01*
X10060539Y23623065D01*
X10084473Y23587270D01*
X10085900Y23572809D01*
X10085900Y23570089D01*
X10116599Y23455518D01*
X10116601Y23455513D01*
X10175908Y23352791D01*
X10175909Y23352790D01*
X10175911Y23352787D01*
X10259787Y23268911D01*
X10259789Y23268910D01*
X10259790Y23268909D01*
X10352404Y23215438D01*
X10362514Y23209601D01*
X10362515Y23209601D01*
X10362517Y23209600D01*
X10373941Y23206539D01*
X10477088Y23178901D01*
X10477089Y23178900D01*
X10477091Y23178900D01*
X10595711Y23178900D01*
X10595711Y23178901D01*
X10710286Y23209601D01*
X10813013Y23268911D01*
X10896889Y23352787D01*
X10956199Y23455514D01*
X10986899Y23570089D01*
X10986900Y23570089D01*
X10986900Y23688711D01*
X10986899Y23688712D01*
X10986764Y23689214D01*
X10969971Y23751888D01*
X10956200Y23803283D01*
X10956198Y23803288D01*
X10896891Y23906010D01*
X10896890Y23906011D01*
X10896889Y23906013D01*
X10813013Y23989889D01*
X10813010Y23989891D01*
X10813009Y23989892D01*
X10710287Y24049199D01*
X10710282Y24049201D01*
X10605347Y24077319D01*
X10560414Y24111798D01*
X10550500Y24148797D01*
X10550500Y24914820D01*
X11449500Y24914820D01*
X11449500Y24085180D01*
X11457273Y24046104D01*
X11458233Y24041278D01*
X11487284Y23997799D01*
X11491496Y23991496D01*
X11541278Y23958233D01*
X11585180Y23949500D01*
X11585181Y23949500D01*
X12014819Y23949500D01*
X12014820Y23949500D01*
X12058722Y23958233D01*
X12108504Y23991496D01*
X12109819Y23993466D01*
X12138471Y24036345D01*
X12185562Y24067812D01*
X12241111Y24056763D01*
X12261529Y24036345D01*
X12291493Y23991499D01*
X12291495Y23991497D01*
X12291496Y23991496D01*
X12341278Y23958233D01*
X12385180Y23949500D01*
X12385181Y23949500D01*
X12814819Y23949500D01*
X12814820Y23949500D01*
X12858722Y23958233D01*
X12908504Y23991496D01*
X12909819Y23993466D01*
X12938471Y24036345D01*
X12985562Y24067812D01*
X13041111Y24056763D01*
X13061529Y24036345D01*
X13091493Y23991499D01*
X13091495Y23991497D01*
X13091496Y23991496D01*
X13141278Y23958233D01*
X13185180Y23949500D01*
X13185181Y23949500D01*
X13614819Y23949500D01*
X13614820Y23949500D01*
X13658722Y23958233D01*
X13708504Y23991496D01*
X13709819Y23993466D01*
X13738471Y24036345D01*
X13785562Y24067812D01*
X13841111Y24056763D01*
X13854454Y24045342D01*
X13858337Y24041122D01*
X13891496Y23991496D01*
X13923965Y23969801D01*
X13929954Y23963293D01*
X13936884Y23944374D01*
X13948078Y23927622D01*
X13949500Y23913185D01*
X13949500Y23721319D01*
X13927826Y23668993D01*
X13925917Y23667320D01*
X13839508Y23580910D01*
X13780201Y23478188D01*
X13780199Y23478183D01*
X13749500Y23363612D01*
X13749500Y23244989D01*
X13780199Y23130418D01*
X13780201Y23130413D01*
X13839508Y23027691D01*
X13839509Y23027690D01*
X13839511Y23027687D01*
X13923387Y22943811D01*
X13923393Y22943808D01*
X13924599Y22942882D01*
X13924907Y22942348D01*
X13925500Y22942179D01*
X13926103Y22941096D01*
X13926817Y22940382D01*
X13926613Y22940179D01*
X13938998Y22917942D01*
X13952917Y22893832D01*
X13952757Y22893237D01*
X13953057Y22892698D01*
X13951128Y22887160D01*
X13938258Y22839125D01*
X13937555Y22838224D01*
X13934894Y22834866D01*
X13872794Y22772765D01*
X13856543Y22735960D01*
X13850673Y22728550D01*
X13833565Y22719023D01*
X13819401Y22705497D01*
X13804165Y22702650D01*
X13801192Y22700993D01*
X13798858Y22701658D01*
X13792668Y22700500D01*
X13207332Y22700500D01*
X13155006Y22722174D01*
X13139637Y22744611D01*
X13127206Y22772765D01*
X13047765Y22852206D01*
X13000222Y22873198D01*
X12944991Y22897585D01*
X12944990Y22897586D01*
X12944988Y22897586D01*
X12923659Y22900060D01*
X12919865Y22900500D01*
X12919864Y22900500D01*
X11805136Y22900500D01*
X11780013Y22897586D01*
X11780007Y22897585D01*
X11677234Y22852206D01*
X11597794Y22772766D01*
X11552414Y22669989D01*
X11549500Y22644865D01*
X11549500Y22255137D01*
X11552414Y22230014D01*
X11552415Y22230008D01*
X11565886Y22199500D01*
X11597794Y22127235D01*
X11677235Y22047794D01*
X11780009Y22002415D01*
X11805135Y21999500D01*
X12919864Y21999501D01*
X12944991Y22002415D01*
X13047765Y22047794D01*
X13127206Y22127235D01*
X13139637Y22155390D01*
X13180599Y22194503D01*
X13207332Y22199500D01*
X13792668Y22199500D01*
X13844994Y22177826D01*
X13860363Y22155389D01*
X13872793Y22127236D01*
X13952235Y22047794D01*
X13963784Y22042694D01*
X14002896Y22001731D01*
X14001587Y21945109D01*
X13963784Y21907306D01*
X13952235Y21902207D01*
X13872794Y21822766D01*
X13827414Y21719989D01*
X13824500Y21694865D01*
X13824500Y21305137D01*
X13827414Y21280014D01*
X13827415Y21280008D01*
X13872794Y21177235D01*
X13952235Y21097794D01*
X13963784Y21092694D01*
X14002896Y21051731D01*
X14001587Y20995109D01*
X13963784Y20957306D01*
X13952235Y20952207D01*
X13872793Y20872765D01*
X13860363Y20844611D01*
X13819401Y20805497D01*
X13792668Y20800500D01*
X13207332Y20800500D01*
X13155006Y20822174D01*
X13139637Y20844611D01*
X13127206Y20872765D01*
X13047765Y20952206D01*
X13047763Y20952207D01*
X12944991Y20997585D01*
X12944990Y20997586D01*
X12944988Y20997586D01*
X12923659Y21000060D01*
X12919865Y21000500D01*
X12919864Y21000500D01*
X11805136Y21000500D01*
X11780013Y20997586D01*
X11780007Y20997585D01*
X11677234Y20952206D01*
X11597794Y20872766D01*
X11552414Y20769989D01*
X11549500Y20744865D01*
X11549500Y20355137D01*
X11552414Y20330014D01*
X11552415Y20330008D01*
X11585358Y20255399D01*
X11597794Y20227235D01*
X11677235Y20147794D01*
X11780009Y20102415D01*
X11805135Y20099500D01*
X12919864Y20099501D01*
X12944991Y20102415D01*
X13047765Y20147794D01*
X13127206Y20227235D01*
X13139637Y20255390D01*
X13180599Y20294503D01*
X13207332Y20299500D01*
X13792668Y20299500D01*
X13844994Y20277826D01*
X13860363Y20255389D01*
X13872793Y20227236D01*
X13872794Y20227235D01*
X13952235Y20147794D01*
X14055009Y20102415D01*
X14080135Y20099500D01*
X14538886Y20099501D01*
X14591212Y20077827D01*
X15801126Y18867914D01*
X15822800Y18815588D01*
X15822800Y17900171D01*
X15860934Y17808106D01*
X15860935Y17808104D01*
X15860936Y17808103D01*
X15931403Y17737636D01*
X16023472Y17699500D01*
X16106194Y17699500D01*
X16158520Y17677826D01*
X16180194Y17625500D01*
X16179837Y17618244D01*
X16179500Y17614824D01*
X16179500Y17285181D01*
X16188232Y17241280D01*
X16188234Y17241276D01*
X16188347Y17241107D01*
X16188397Y17240883D01*
X16191022Y17234546D01*
X16189915Y17234088D01*
X16199993Y17189004D01*
X16197534Y17172644D01*
X16188233Y17158722D01*
X16179500Y17114820D01*
X16179500Y17052628D01*
X16178678Y17047157D01*
X16166709Y17027274D01*
X16157826Y17005827D01*
X16152462Y17003606D01*
X16149469Y16998632D01*
X16126943Y16993036D01*
X16105500Y16984153D01*
X16100136Y16986375D01*
X16094504Y16984975D01*
X16074620Y16996944D01*
X16053175Y17005827D01*
X16008013Y17050989D01*
X16008010Y17050991D01*
X16008009Y17050992D01*
X15905287Y17110299D01*
X15905282Y17110301D01*
X15790711Y17141000D01*
X15790709Y17141000D01*
X15672091Y17141000D01*
X15672089Y17141000D01*
X15557517Y17110301D01*
X15557512Y17110299D01*
X15454790Y17050992D01*
X15370908Y16967110D01*
X15311601Y16864388D01*
X15311599Y16864383D01*
X15280900Y16749812D01*
X15280900Y16631189D01*
X15311599Y16516618D01*
X15311601Y16516613D01*
X15370908Y16413891D01*
X15370909Y16413890D01*
X15370911Y16413887D01*
X15454787Y16330011D01*
X15454789Y16330010D01*
X15454790Y16330009D01*
X15557512Y16270702D01*
X15557514Y16270701D01*
X15557515Y16270701D01*
X15557517Y16270700D01*
X15580257Y16264607D01*
X15672088Y16240001D01*
X15672089Y16240000D01*
X15748800Y16240000D01*
X15801126Y16218326D01*
X15822800Y16166000D01*
X15822800Y15700171D01*
X15860934Y15608106D01*
X15860937Y15608102D01*
X15931402Y15537637D01*
X15931405Y15537635D01*
X15944693Y15532131D01*
X16023472Y15499500D01*
X16106096Y15499500D01*
X16158422Y15477826D01*
X16177060Y15438401D01*
X16178791Y15438745D01*
X16179500Y15435181D01*
X16179500Y15435180D01*
X16188233Y15391278D01*
X16221496Y15341496D01*
X16271278Y15308233D01*
X16315180Y15299500D01*
X16315181Y15299500D01*
X17794818Y15299500D01*
X17794820Y15299500D01*
X17836064Y15307705D01*
X17891611Y15296657D01*
X17923078Y15249565D01*
X17924500Y15235127D01*
X17924500Y15234232D01*
X17963717Y15087870D01*
X17963721Y15087861D01*
X18027368Y14977622D01*
X18039485Y14956635D01*
X18146635Y14849485D01*
X18277865Y14773719D01*
X18424231Y14734501D01*
X18424232Y14734500D01*
X18424234Y14734500D01*
X18575768Y14734500D01*
X18575768Y14734501D01*
X18722135Y14773719D01*
X18853365Y14849485D01*
X18960515Y14956635D01*
X19036281Y15087865D01*
X19075499Y15234232D01*
X19075500Y15234232D01*
X19075500Y15385768D01*
X19075499Y15385769D01*
X19058488Y15449254D01*
X19036281Y15532135D01*
X18960515Y15663365D01*
X18853365Y15770515D01*
X18853362Y15770517D01*
X18722139Y15846279D01*
X18722130Y15846283D01*
X18575768Y15885500D01*
X18575766Y15885500D01*
X18424234Y15885500D01*
X18424232Y15885500D01*
X18277869Y15846283D01*
X18277860Y15846279D01*
X18146637Y15770517D01*
X18146635Y15770516D01*
X18146635Y15770515D01*
X18056824Y15680705D01*
X18004500Y15659031D01*
X17952174Y15680705D01*
X17930500Y15733031D01*
X17930500Y16064820D01*
X17926469Y16085083D01*
X17921767Y16108722D01*
X17904951Y16133888D01*
X17893902Y16189436D01*
X17904952Y16216113D01*
X17906489Y16218413D01*
X17921767Y16241278D01*
X17930500Y16285180D01*
X17930500Y16452321D01*
X17952174Y16504647D01*
X18004500Y16526321D01*
X18041498Y16516408D01*
X18089314Y16488801D01*
X18089316Y16488801D01*
X18089317Y16488800D01*
X18121409Y16480201D01*
X18203888Y16458101D01*
X18203889Y16458100D01*
X18203891Y16458100D01*
X18322511Y16458100D01*
X18322511Y16458101D01*
X18437086Y16488801D01*
X18539813Y16548111D01*
X18623689Y16631987D01*
X18682999Y16734714D01*
X18713699Y16849289D01*
X18713700Y16849289D01*
X18713700Y16967911D01*
X18713699Y16967912D01*
X18713217Y16969709D01*
X18694210Y17040647D01*
X18683000Y17082483D01*
X18682999Y17082484D01*
X18682999Y17082486D01*
X18670636Y17103900D01*
X18668114Y17123053D01*
X18660722Y17140900D01*
X18664549Y17150140D01*
X18663244Y17160053D01*
X18675003Y17175378D01*
X18682396Y17193226D01*
X18691634Y17197053D01*
X18697722Y17204986D01*
X18734722Y17214900D01*
X18851287Y17214900D01*
X18903613Y17193226D01*
X18986540Y17110299D01*
X19068692Y17028148D01*
X19090366Y16975822D01*
X19090200Y16973286D01*
X19090200Y16851089D01*
X19120899Y16736518D01*
X19120901Y16736513D01*
X19180208Y16633791D01*
X19180209Y16633790D01*
X19180211Y16633787D01*
X19264087Y16549911D01*
X19264089Y16549910D01*
X19264090Y16549909D01*
X19366812Y16490602D01*
X19366814Y16490601D01*
X19366815Y16490601D01*
X19366817Y16490600D01*
X19373535Y16488800D01*
X19481388Y16459901D01*
X19481389Y16459900D01*
X19481391Y16459900D01*
X19600011Y16459900D01*
X19600011Y16459901D01*
X19714586Y16490601D01*
X19817313Y16549911D01*
X19901189Y16633787D01*
X19960499Y16736514D01*
X19991199Y16851089D01*
X19991200Y16851089D01*
X19991200Y16969711D01*
X19991199Y16969712D01*
X19990241Y16973286D01*
X19968310Y17055136D01*
X19960500Y17084283D01*
X19960498Y17084288D01*
X19901191Y17187010D01*
X19901190Y17187011D01*
X19901189Y17187013D01*
X19817313Y17270889D01*
X19817310Y17270891D01*
X19817309Y17270892D01*
X19714587Y17330199D01*
X19714582Y17330201D01*
X19600011Y17360900D01*
X19600009Y17360900D01*
X19481391Y17360900D01*
X19476541Y17360900D01*
X19476541Y17363613D01*
X19430217Y17376036D01*
X19422952Y17382408D01*
X19299912Y17505448D01*
X19140734Y17664627D01*
X19119061Y17716951D01*
X19140733Y17769274D01*
X23392374Y22020916D01*
X23444700Y22042589D01*
X23497026Y22020915D01*
X23518700Y21968589D01*
X23518700Y17568514D01*
X23497026Y17516188D01*
X23352846Y17372008D01*
X23300520Y17350334D01*
X23297987Y17350500D01*
X23294409Y17350500D01*
X23175791Y17350500D01*
X23175789Y17350500D01*
X23061217Y17319801D01*
X23061212Y17319799D01*
X22958490Y17260492D01*
X22874608Y17176610D01*
X22815301Y17073888D01*
X22815299Y17073883D01*
X22784600Y16959312D01*
X22784600Y16840689D01*
X22815299Y16726118D01*
X22815301Y16726113D01*
X22874608Y16623391D01*
X22874609Y16623390D01*
X22874611Y16623387D01*
X22958487Y16539511D01*
X22958489Y16539510D01*
X22958490Y16539509D01*
X23046318Y16488801D01*
X23061214Y16480201D01*
X23061215Y16480201D01*
X23061217Y16480200D01*
X23086267Y16473488D01*
X23175788Y16449501D01*
X23175789Y16449500D01*
X23175791Y16449500D01*
X23294411Y16449500D01*
X23294411Y16449501D01*
X23408986Y16480201D01*
X23511713Y16539511D01*
X23595589Y16623387D01*
X23654899Y16726114D01*
X23685599Y16840689D01*
X23685600Y16840689D01*
X23685600Y16964160D01*
X23688330Y16964160D01*
X23700695Y17010431D01*
X23707099Y17017740D01*
X23981564Y17292203D01*
X24019700Y17384272D01*
X24019700Y17483927D01*
X24019700Y26455289D01*
X24041373Y26507614D01*
X24297888Y26764130D01*
X24297891Y26764131D01*
X24308296Y26774536D01*
X24308297Y26774536D01*
X24378764Y26845003D01*
X24405397Y26909300D01*
X24416901Y26937073D01*
X24416901Y27036728D01*
X24416901Y27042686D01*
X24416900Y27042700D01*
X24416900Y27685228D01*
X24416899Y27685230D01*
X24401980Y27721247D01*
X24378764Y27777297D01*
X24308297Y27847764D01*
X23953697Y28202364D01*
X23953696Y28202365D01*
X23953694Y28202366D01*
X23861628Y28240500D01*
X23494311Y28240500D01*
X23441985Y28262174D01*
X23426617Y28284609D01*
X23424616Y28289141D01*
X23349141Y28364616D01*
X23251498Y28407730D01*
X23227623Y28410500D01*
X23227619Y28410500D01*
X22772377Y28410500D01*
X22748504Y28407731D01*
X22650858Y28364616D01*
X22575385Y28289143D01*
X22532270Y28191499D01*
X22529500Y28167620D01*
X22529500Y27904414D01*
X22507826Y27852088D01*
X22183937Y27528199D01*
X22183934Y27528195D01*
X22143867Y27431462D01*
X22103819Y27391413D01*
X22047182Y27391413D01*
X22007133Y27431461D01*
X22001500Y27459780D01*
X22001500Y28243581D01*
X22023174Y28295907D01*
X22025082Y28297581D01*
X22027610Y28300110D01*
X22027613Y28300111D01*
X22111489Y28383987D01*
X22170799Y28486714D01*
X22201499Y28601289D01*
X22201500Y28601289D01*
X22201500Y28719911D01*
X22201499Y28719912D01*
X22170800Y28834483D01*
X22170798Y28834488D01*
X22111491Y28937210D01*
X22111490Y28937211D01*
X22111489Y28937213D01*
X22027613Y29021089D01*
X22027610Y29021091D01*
X22027609Y29021092D01*
X21924887Y29080399D01*
X21924882Y29080401D01*
X21810311Y29111100D01*
X21810309Y29111100D01*
X21691691Y29111100D01*
X21691689Y29111100D01*
X21577117Y29080401D01*
X21577112Y29080399D01*
X21474390Y29021092D01*
X21390508Y28937210D01*
X21331201Y28834488D01*
X21331199Y28834483D01*
X21300500Y28719912D01*
X21300500Y28601289D01*
X21331199Y28486718D01*
X21331201Y28486713D01*
X21390508Y28383991D01*
X21390509Y28383990D01*
X21390511Y28383987D01*
X21474387Y28300111D01*
X21477817Y28296681D01*
X21475893Y28294758D01*
X21499866Y28253251D01*
X21500500Y28243581D01*
X21500500Y27795247D01*
X21478826Y27742921D01*
X21426500Y27721247D01*
X21374174Y27742921D01*
X21362414Y27758247D01*
X21328891Y27816310D01*
X21328890Y27816311D01*
X21328889Y27816313D01*
X21245013Y27900189D01*
X21245010Y27900191D01*
X21245009Y27900192D01*
X21142287Y27959499D01*
X21142282Y27959501D01*
X21027711Y27990200D01*
X21027709Y27990200D01*
X20909091Y27990200D01*
X20909089Y27990200D01*
X20794517Y27959501D01*
X20794508Y27959497D01*
X20761499Y27940439D01*
X20705347Y27933047D01*
X20660414Y27967526D01*
X20650500Y28004525D01*
X20650500Y28014820D01*
X20641767Y28058722D01*
X20608504Y28108504D01*
X20608503Y28108505D01*
X20608501Y28108507D01*
X20563655Y28138471D01*
X20532188Y28185562D01*
X20543237Y28241111D01*
X20563655Y28261529D01*
X20608501Y28291494D01*
X20608500Y28291494D01*
X20608504Y28291496D01*
X20641767Y28341278D01*
X20650500Y28385180D01*
X20650500Y28814820D01*
X20641767Y28858722D01*
X20608504Y28908504D01*
X20608503Y28908505D01*
X20608501Y28908507D01*
X20563655Y28938471D01*
X20532188Y28985562D01*
X20543237Y29041111D01*
X20563655Y29061529D01*
X20608501Y29091494D01*
X20608500Y29091494D01*
X20608504Y29091496D01*
X20641767Y29141278D01*
X20650500Y29185180D01*
X20650500Y29187620D01*
X22529500Y29187620D01*
X22529500Y28832378D01*
X22532269Y28808505D01*
X22532269Y28808503D01*
X22532270Y28808502D01*
X22575384Y28710859D01*
X22650859Y28635384D01*
X22748502Y28592270D01*
X22772377Y28589500D01*
X23227622Y28589501D01*
X23251498Y28592270D01*
X23349141Y28635384D01*
X23424616Y28710859D01*
X23467730Y28808502D01*
X23470500Y28832377D01*
X23470499Y29187622D01*
X23467730Y29211498D01*
X23424616Y29309141D01*
X23349141Y29384616D01*
X23294608Y29408695D01*
X23255497Y29449658D01*
X23250500Y29476389D01*
X23250500Y30049181D01*
X23272174Y30101507D01*
X23274082Y30103181D01*
X23276610Y30105710D01*
X23276613Y30105711D01*
X23360489Y30189587D01*
X23419799Y30292314D01*
X23450499Y30406889D01*
X23450500Y30406889D01*
X23450500Y30525511D01*
X23450499Y30525512D01*
X23444235Y30548888D01*
X23419799Y30640086D01*
X23407419Y30661529D01*
X23360491Y30742810D01*
X23360490Y30742811D01*
X23360489Y30742813D01*
X23276613Y30826689D01*
X23276610Y30826691D01*
X23276609Y30826692D01*
X23173887Y30885999D01*
X23173882Y30886001D01*
X23059311Y30916700D01*
X23059309Y30916700D01*
X22940691Y30916700D01*
X22940689Y30916700D01*
X22826117Y30886001D01*
X22826112Y30885999D01*
X22723390Y30826692D01*
X22639508Y30742810D01*
X22580201Y30640088D01*
X22580199Y30640083D01*
X22549500Y30525512D01*
X22549500Y30406889D01*
X22580199Y30292318D01*
X22580201Y30292313D01*
X22639508Y30189591D01*
X22639509Y30189590D01*
X22639511Y30189587D01*
X22696205Y30132893D01*
X22726817Y30102281D01*
X22724893Y30100358D01*
X22748866Y30058851D01*
X22749500Y30049181D01*
X22749500Y29476389D01*
X22727826Y29424063D01*
X22705392Y29408696D01*
X22650859Y29384616D01*
X22650857Y29384615D01*
X22575385Y29309143D01*
X22532270Y29211499D01*
X22529500Y29187620D01*
X20650500Y29187620D01*
X20650500Y29614820D01*
X20641767Y29658722D01*
X20608504Y29708504D01*
X20608503Y29708505D01*
X20608501Y29708507D01*
X20563655Y29738471D01*
X20532188Y29785562D01*
X20543237Y29841111D01*
X20563655Y29861529D01*
X20608501Y29891494D01*
X20608500Y29891494D01*
X20608504Y29891496D01*
X20641767Y29941278D01*
X20650500Y29985180D01*
X20650500Y30414820D01*
X20641767Y30458722D01*
X20608504Y30508504D01*
X20608503Y30508505D01*
X20608501Y30508507D01*
X20563655Y30538471D01*
X20532188Y30585562D01*
X20543237Y30641111D01*
X20563655Y30661529D01*
X20608501Y30691494D01*
X20608500Y30691494D01*
X20608504Y30691496D01*
X20641767Y30741278D01*
X20650500Y30785180D01*
X20650500Y31214820D01*
X20641767Y31258722D01*
X20608504Y31308504D01*
X20608503Y31308505D01*
X20608501Y31308507D01*
X20563655Y31338471D01*
X20532188Y31385562D01*
X20543237Y31441111D01*
X20563655Y31461529D01*
X20608501Y31491494D01*
X20608500Y31491494D01*
X20608504Y31491496D01*
X20641767Y31541278D01*
X20650500Y31585180D01*
X20650500Y32014820D01*
X20641767Y32058722D01*
X20608504Y32108504D01*
X20608503Y32108505D01*
X20608501Y32108507D01*
X20563655Y32138471D01*
X20532188Y32185562D01*
X20543237Y32241111D01*
X20563655Y32261529D01*
X20608501Y32291494D01*
X20608500Y32291494D01*
X20608504Y32291496D01*
X20641767Y32341278D01*
X20650500Y32385180D01*
X20650500Y32814820D01*
X20641767Y32858722D01*
X20608504Y32908504D01*
X20608503Y32908505D01*
X20608501Y32908507D01*
X20563655Y32938471D01*
X20532188Y32985562D01*
X20543237Y33041111D01*
X20563655Y33061529D01*
X20608501Y33091494D01*
X20608500Y33091494D01*
X20608504Y33091496D01*
X20641767Y33141278D01*
X20650500Y33185180D01*
X20650500Y33614820D01*
X20641767Y33658722D01*
X20608504Y33708504D01*
X20558722Y33741767D01*
X20514820Y33750500D01*
X19685180Y33750500D01*
X19663229Y33746134D01*
X19641277Y33741767D01*
X19591496Y33708505D01*
X19591495Y33708504D01*
X19558233Y33658723D01*
X19549500Y33614820D01*
X19549500Y33185181D01*
X19558233Y33141278D01*
X19591495Y33091497D01*
X19591496Y33091496D01*
X19636345Y33061529D01*
X19667811Y33014437D01*
X19656762Y32958888D01*
X19636345Y32938471D01*
X19591496Y32908505D01*
X19591495Y32908504D01*
X19558233Y32858723D01*
X19549500Y32814820D01*
X19549500Y32385181D01*
X19558233Y32341278D01*
X19591495Y32291497D01*
X19591496Y32291496D01*
X19636345Y32261529D01*
X19667811Y32214437D01*
X19656762Y32158888D01*
X19636345Y32138471D01*
X19591496Y32108505D01*
X19591495Y32108504D01*
X19558233Y32058723D01*
X19549500Y32014820D01*
X19549500Y31585181D01*
X19558233Y31541278D01*
X19591495Y31491497D01*
X19591496Y31491496D01*
X19636345Y31461529D01*
X19667811Y31414437D01*
X19656762Y31358888D01*
X19636345Y31338471D01*
X19591496Y31308505D01*
X19591495Y31308504D01*
X19558233Y31258723D01*
X19549500Y31214820D01*
X19549500Y30785181D01*
X19558233Y30741278D01*
X19591495Y30691497D01*
X19591496Y30691496D01*
X19636345Y30661529D01*
X19667811Y30614437D01*
X19656762Y30558888D01*
X19636345Y30538471D01*
X19591496Y30508505D01*
X19591495Y30508504D01*
X19558233Y30458723D01*
X19558233Y30458722D01*
X19549500Y30414820D01*
X19549500Y29985180D01*
X19556880Y29948078D01*
X19558233Y29941278D01*
X19591495Y29891497D01*
X19591496Y29891496D01*
X19636345Y29861529D01*
X19667811Y29814437D01*
X19656762Y29758888D01*
X19636345Y29738471D01*
X19591496Y29708505D01*
X19591495Y29708504D01*
X19558233Y29658723D01*
X19549500Y29614820D01*
X19549500Y29185181D01*
X19558233Y29141278D01*
X19591495Y29091497D01*
X19591496Y29091496D01*
X19636345Y29061529D01*
X19667811Y29014437D01*
X19656762Y28958888D01*
X19636345Y28938471D01*
X19591496Y28908505D01*
X19591495Y28908504D01*
X19558233Y28858723D01*
X19558233Y28858722D01*
X19549500Y28814820D01*
X19549500Y28385180D01*
X19553591Y28364616D01*
X19558233Y28341278D01*
X19591495Y28291497D01*
X19591496Y28291496D01*
X19636345Y28261529D01*
X19667811Y28214437D01*
X19656762Y28158888D01*
X19636345Y28138471D01*
X19591496Y28108505D01*
X19591495Y28108504D01*
X19558233Y28058723D01*
X19558233Y28058722D01*
X19549500Y28014820D01*
X19549500Y27585180D01*
X19552619Y27569501D01*
X19558233Y27541278D01*
X19591495Y27491497D01*
X19591496Y27491496D01*
X19636345Y27461529D01*
X19667811Y27414437D01*
X19656762Y27358888D01*
X19636345Y27338471D01*
X19591496Y27308505D01*
X19591495Y27308504D01*
X19558233Y27258723D01*
X19558233Y27258722D01*
X19549500Y27214820D01*
X19549500Y26785180D01*
X19556880Y26748078D01*
X19558233Y26741278D01*
X19591495Y26691497D01*
X19591496Y26691496D01*
X19636345Y26661529D01*
X19667811Y26614437D01*
X19656762Y26558888D01*
X19636345Y26538471D01*
X19591496Y26508505D01*
X19591495Y26508504D01*
X19558233Y26458723D01*
X19549500Y26414820D01*
X19549500Y25985180D01*
X19557104Y25946952D01*
X19558233Y25941278D01*
X19591495Y25891497D01*
X19591496Y25891496D01*
X19636345Y25861529D01*
X19667811Y25814437D01*
X19656762Y25758888D01*
X19636345Y25738471D01*
X19591496Y25708505D01*
X19591495Y25708504D01*
X19558233Y25658723D01*
X19558233Y25658722D01*
X19549500Y25614820D01*
X19549500Y25185180D01*
X19558233Y25141278D01*
X19591496Y25091496D01*
X19641278Y25058233D01*
X19685180Y25049500D01*
X19685181Y25049500D01*
X20514819Y25049500D01*
X20514820Y25049500D01*
X20558722Y25058233D01*
X20608504Y25091496D01*
X20641767Y25141278D01*
X20650500Y25185180D01*
X20650500Y25428487D01*
X20672174Y25480813D01*
X20724500Y25502487D01*
X20776826Y25480813D01*
X21342745Y24914894D01*
X21364419Y24862568D01*
X21358114Y24832678D01*
X21322270Y24751501D01*
X21319500Y24727620D01*
X21319500Y24464414D01*
X21297826Y24412088D01*
X20030713Y23144974D01*
X19978387Y23123300D01*
X19458313Y23123300D01*
X19405987Y23144974D01*
X19355942Y23195019D01*
X19334268Y23247345D01*
X19355942Y23299671D01*
X19371268Y23311431D01*
X19383285Y23318369D01*
X19455262Y23359925D01*
X19525175Y23429838D01*
X19574610Y23515462D01*
X19600199Y23610963D01*
X19600200Y23610963D01*
X19600200Y23709837D01*
X19600199Y23709838D01*
X19574611Y23805335D01*
X19574609Y23805340D01*
X19546161Y23854613D01*
X19525175Y23890962D01*
X19455262Y23960875D01*
X19391304Y23997801D01*
X19385036Y24001420D01*
X19350557Y24046353D01*
X19349458Y24079944D01*
X19350500Y24085182D01*
X19350500Y24914820D01*
X19346811Y24933364D01*
X19341767Y24958722D01*
X19308504Y25008504D01*
X19294904Y25017591D01*
X19258722Y25041767D01*
X19254801Y25042547D01*
X19214820Y25050500D01*
X18785180Y25050500D01*
X18763229Y25046134D01*
X18741277Y25041767D01*
X18691496Y25008505D01*
X18691495Y25008504D01*
X18661529Y24963655D01*
X18649289Y24955478D01*
X18641112Y24943238D01*
X18626675Y24940367D01*
X18614437Y24932189D01*
X18600000Y24935061D01*
X18585563Y24932189D01*
X18573324Y24940367D01*
X18558888Y24943238D01*
X18538471Y24963655D01*
X18514046Y25000210D01*
X18502997Y25055759D01*
X18523251Y25093649D01*
X18538289Y25108687D01*
X18540231Y25112050D01*
X18597599Y25211414D01*
X18628299Y25325989D01*
X18628300Y25325989D01*
X18628300Y25444611D01*
X18628299Y25444612D01*
X18626021Y25453112D01*
X18603141Y25538502D01*
X18597600Y25559183D01*
X18597598Y25559188D01*
X18538291Y25661910D01*
X18538290Y25661911D01*
X18538289Y25661913D01*
X18454413Y25745789D01*
X18454410Y25745791D01*
X18454409Y25745792D01*
X18351687Y25805099D01*
X18351682Y25805101D01*
X18237111Y25835800D01*
X18237109Y25835800D01*
X18118491Y25835800D01*
X18118489Y25835800D01*
X18003917Y25805101D01*
X18003912Y25805099D01*
X17901190Y25745792D01*
X17817308Y25661910D01*
X17758001Y25559188D01*
X17757999Y25559183D01*
X17740178Y25492673D01*
X17705700Y25447740D01*
X17649547Y25440348D01*
X17604614Y25474826D01*
X17594700Y25511826D01*
X17594700Y25726281D01*
X17616374Y25778607D01*
X17618282Y25780281D01*
X17620810Y25782810D01*
X17620813Y25782811D01*
X17704689Y25866687D01*
X17763999Y25969414D01*
X17794699Y26083989D01*
X17794700Y26083989D01*
X17794700Y26202611D01*
X17794699Y26202612D01*
X17789323Y26222674D01*
X17763999Y26317186D01*
X17751115Y26339501D01*
X17704691Y26419910D01*
X17704690Y26419911D01*
X17704689Y26419913D01*
X17620813Y26503789D01*
X17620810Y26503791D01*
X17620809Y26503792D01*
X17518087Y26563099D01*
X17518082Y26563101D01*
X17403511Y26593800D01*
X17403509Y26593800D01*
X17284891Y26593800D01*
X17284889Y26593800D01*
X17170317Y26563101D01*
X17170312Y26563099D01*
X17067590Y26503792D01*
X16983708Y26419910D01*
X16924401Y26317188D01*
X16924399Y26317183D01*
X16893700Y26202612D01*
X16893700Y26083989D01*
X16924399Y25969418D01*
X16924401Y25969413D01*
X16983708Y25866691D01*
X16983709Y25866690D01*
X16983711Y25866687D01*
X17031124Y25819274D01*
X17071017Y25779381D01*
X17069093Y25777458D01*
X17093066Y25735951D01*
X17093700Y25726281D01*
X17093700Y25162671D01*
X17119997Y25099184D01*
X17119997Y25042547D01*
X17109948Y25025314D01*
X17102627Y25015942D01*
X17091496Y25008504D01*
X17060008Y24961380D01*
X17058318Y24959215D01*
X17035879Y24946517D01*
X17014437Y24932189D01*
X17011570Y24932760D01*
X17009027Y24931320D01*
X16984182Y24938207D01*
X16958888Y24943238D01*
X16956148Y24945978D01*
X16954448Y24946449D01*
X16952845Y24949281D01*
X16938471Y24963655D01*
X16908504Y25008504D01*
X16908503Y25008505D01*
X16858722Y25041767D01*
X16854801Y25042547D01*
X16814820Y25050500D01*
X16385180Y25050500D01*
X16363229Y25046134D01*
X16341277Y25041767D01*
X16291496Y25008505D01*
X16291495Y25008504D01*
X16261529Y24963655D01*
X16214437Y24932189D01*
X16158888Y24943238D01*
X16145546Y24954659D01*
X16141660Y24958882D01*
X16108504Y25008504D01*
X16076034Y25030200D01*
X16070046Y25036707D01*
X16063115Y25055627D01*
X16051922Y25072378D01*
X16050500Y25086815D01*
X16050500Y25206528D01*
X16050499Y25206530D01*
X16048476Y25211413D01*
X16012364Y25298597D01*
X15941897Y25369064D01*
X15865874Y25445087D01*
X15844200Y25497413D01*
X15844200Y25674228D01*
X15844199Y25674230D01*
X15842502Y25678326D01*
X15806064Y25766297D01*
X15735597Y25836764D01*
X15409497Y26162864D01*
X15409496Y26162865D01*
X15409494Y26162866D01*
X15317428Y26201000D01*
X15140612Y26201000D01*
X15088286Y26222674D01*
X15045459Y26265501D01*
X14902497Y26408464D01*
X14902495Y26408465D01*
X14902493Y26408466D01*
X14810428Y26446600D01*
X13596019Y26446600D01*
X13543693Y26468274D01*
X13542019Y26470183D01*
X13503695Y26508507D01*
X13455613Y26556589D01*
X13455610Y26556591D01*
X13455609Y26556592D01*
X13352887Y26615899D01*
X13352882Y26615901D01*
X13238311Y26646600D01*
X13238309Y26646600D01*
X13119691Y26646600D01*
X13119689Y26646600D01*
X13005117Y26615901D01*
X13005112Y26615899D01*
X12902390Y26556592D01*
X12818508Y26472710D01*
X12759201Y26369988D01*
X12759199Y26369983D01*
X12728500Y26255412D01*
X12728500Y26136789D01*
X12759199Y26022218D01*
X12759201Y26022213D01*
X12818508Y25919491D01*
X12818509Y25919490D01*
X12818511Y25919487D01*
X12902387Y25835611D01*
X12902389Y25835610D01*
X12902390Y25835609D01*
X12994574Y25782386D01*
X13029053Y25737452D01*
X13021660Y25681300D01*
X12976726Y25646821D01*
X12957574Y25644300D01*
X12787272Y25644300D01*
X12695205Y25606166D01*
X12387634Y25298595D01*
X12349500Y25206530D01*
X12349500Y25086815D01*
X12329954Y25036707D01*
X12323965Y25030200D01*
X12291496Y25008504D01*
X12258339Y24958882D01*
X12254454Y24954659D01*
X12233573Y24944976D01*
X12214437Y24932189D01*
X12208533Y24933364D01*
X12203073Y24930831D01*
X12181461Y24938748D01*
X12158888Y24943238D01*
X12152923Y24949203D01*
X12149892Y24950313D01*
X12148230Y24953896D01*
X12138471Y24963655D01*
X12108504Y25008504D01*
X12108503Y25008505D01*
X12058722Y25041767D01*
X12054801Y25042547D01*
X12014820Y25050500D01*
X11585180Y25050500D01*
X11563229Y25046134D01*
X11541277Y25041767D01*
X11491496Y25008505D01*
X11491495Y25008504D01*
X11458233Y24958723D01*
X11455291Y24943933D01*
X11449500Y24914820D01*
X10550500Y24914820D01*
X10546811Y24933364D01*
X10541767Y24958722D01*
X10508504Y25008504D01*
X10494904Y25017591D01*
X10458722Y25041767D01*
X10454801Y25042547D01*
X10414820Y25050500D01*
X9985180Y25050500D01*
X9963229Y25046134D01*
X9941277Y25041767D01*
X9891496Y25008505D01*
X9891495Y25008504D01*
X9861529Y24963655D01*
X9814437Y24932189D01*
X9758888Y24943238D01*
X9738471Y24963655D01*
X9708504Y25008504D01*
X9708503Y25008505D01*
X9658722Y25041767D01*
X9654801Y25042547D01*
X9614820Y25050500D01*
X9185180Y25050500D01*
X9163229Y25046134D01*
X9141277Y25041767D01*
X9091496Y25008505D01*
X9091495Y25008504D01*
X9058233Y24958723D01*
X9055291Y24943933D01*
X9049500Y24914820D01*
X9049500Y24085180D01*
X9057273Y24046104D01*
X9058233Y24041278D01*
X9091495Y23991497D01*
X9091496Y23991496D01*
X9116612Y23974714D01*
X9148078Y23927622D01*
X9149500Y23913185D01*
X9149500Y23605254D01*
X9127826Y23552929D01*
X9075411Y23500514D01*
X9075409Y23500511D01*
X9016101Y23397788D01*
X9016099Y23397783D01*
X8985400Y23283212D01*
X8985400Y23164589D01*
X9016099Y23050018D01*
X9016101Y23050013D01*
X9075408Y22947291D01*
X9075409Y22947290D01*
X9075411Y22947287D01*
X9127826Y22894872D01*
X9149500Y22842547D01*
X9149500Y22794500D01*
X9127826Y22742174D01*
X9075500Y22720500D01*
X8892642Y22720500D01*
X8840316Y22742174D01*
X8818642Y22794500D01*
X8826849Y22825114D01*
X8825842Y22825531D01*
X8827696Y22830010D01*
X8827699Y22830014D01*
X8858399Y22944589D01*
X8858400Y22944589D01*
X8858400Y23063211D01*
X8858399Y23063212D01*
X8827700Y23177783D01*
X8827698Y23177788D01*
X8768391Y23280510D01*
X8768390Y23280511D01*
X8768389Y23280513D01*
X8684513Y23364389D01*
X8684510Y23364391D01*
X8684509Y23364392D01*
X8581787Y23423699D01*
X8581782Y23423701D01*
X8467211Y23454400D01*
X8467209Y23454400D01*
X8348591Y23454400D01*
X8348589Y23454400D01*
X8234017Y23423701D01*
X8234012Y23423699D01*
X8131290Y23364392D01*
X8047408Y23280510D01*
X7988101Y23177788D01*
X7988099Y23177783D01*
X7957400Y23063212D01*
X7957400Y22939741D01*
X7954683Y22939741D01*
X7942274Y22893431D01*
X7935892Y22886154D01*
X7777632Y22727894D01*
X7775402Y22724556D01*
X7743768Y22697979D01*
X7690862Y22674619D01*
X7690859Y22674616D01*
X7615384Y22599141D01*
X7606936Y22580008D01*
X7581845Y22523182D01*
X7572270Y22501498D01*
X7569946Y22481461D01*
X7569500Y22477620D01*
X7569500Y22022378D01*
X7572269Y21998505D01*
X7572269Y21998503D01*
X7572270Y21998502D01*
X7615384Y21900859D01*
X7690859Y21825384D01*
X7788502Y21782270D01*
X7812377Y21779500D01*
X8167622Y21779501D01*
X8191498Y21782270D01*
X8289141Y21825384D01*
X8364616Y21900859D01*
X8407730Y21998502D01*
X8410500Y22022377D01*
X8410499Y22477622D01*
X8410499Y22477623D01*
X8410499Y22479759D01*
X8411449Y22479759D01*
X8417534Y22497253D01*
X8420317Y22518396D01*
X8426553Y22523182D01*
X8429136Y22530605D01*
X8465250Y22552875D01*
X8467209Y22553400D01*
X8497284Y22561459D01*
X8553436Y22554068D01*
X8587915Y22509135D01*
X8589945Y22481461D01*
X8589500Y22477622D01*
X8589500Y22022378D01*
X8592269Y21998505D01*
X8592269Y21998503D01*
X8592270Y21998502D01*
X8635384Y21900859D01*
X8710859Y21825384D01*
X8808502Y21782270D01*
X8808504Y21782270D01*
X8808506Y21782269D01*
X8813868Y21780810D01*
X8813429Y21779197D01*
X8857236Y21754800D01*
X8872738Y21700326D01*
X8863317Y21671850D01*
X8829101Y21612588D01*
X8829099Y21612583D01*
X8798400Y21498012D01*
X8797983Y21494843D01*
X8797176Y21493447D01*
X8797144Y21493324D01*
X8797111Y21493333D01*
X8769666Y21445793D01*
X8724616Y21430500D01*
X8272377Y21430500D01*
X8248504Y21427731D01*
X8150858Y21384616D01*
X8115453Y21349210D01*
X8075384Y21309141D01*
X8075383Y21309140D01*
X8070536Y21304292D01*
X8067927Y21306901D01*
X8031126Y21282967D01*
X7975719Y21294706D01*
X7965267Y21303393D01*
X7889271Y21379389D01*
X7773697Y21494964D01*
X7773694Y21494966D01*
X7681628Y21533100D01*
X6202581Y21533100D01*
X6150255Y21554774D01*
X6128581Y21607100D01*
X6150255Y21659426D01*
X6153813Y21662984D01*
X6197682Y21762338D01*
X6200500Y21786627D01*
X6200499Y22213372D01*
X6197682Y22237662D01*
X6153813Y22337016D01*
X6077016Y22413813D01*
X5977662Y22457682D01*
X5977663Y22457682D01*
X5972804Y22458246D01*
X5953373Y22460500D01*
X5953369Y22460500D01*
X5586627Y22460500D01*
X5562340Y22457683D01*
X5462983Y22413813D01*
X5386187Y22337017D01*
X5380428Y22323974D01*
X5339463Y22284863D01*
X5282841Y22286173D01*
X5275734Y22289781D01*
X5190487Y22338999D01*
X5190482Y22339001D01*
X5075911Y22369700D01*
X5075909Y22369700D01*
X4968291Y22369700D01*
X4915965Y22391374D01*
X4894291Y22443700D01*
X4900596Y22473590D01*
X4902204Y22477234D01*
X4902206Y22477235D01*
X4947585Y22580009D01*
X4950500Y22605135D01*
X4950499Y22994864D01*
X4947585Y23019991D01*
X4902206Y23122765D01*
X4902205Y23122766D01*
X4899436Y23129038D01*
X4901397Y23129905D01*
X4898676Y23142806D01*
X4890265Y23163113D01*
X4893000Y23169717D01*
X4891525Y23176711D01*
X4911940Y23215438D01*
X4974329Y23277826D01*
X4990958Y23284714D01*
X5026654Y23299500D01*
X5306386Y23299500D01*
X5358712Y23277826D01*
X5379475Y23237075D01*
X5389353Y23174696D01*
X5389354Y23174694D01*
X5437495Y23080214D01*
X5446950Y23061658D01*
X5536658Y22971950D01*
X5649696Y22914354D01*
X5743481Y22899500D01*
X6756518Y22899501D01*
X6756519Y22899501D01*
X6850304Y22914354D01*
X6850306Y22914355D01*
X6857346Y22917942D01*
X6963342Y22971950D01*
X7053050Y23061658D01*
X7110646Y23174696D01*
X7125500Y23268481D01*
X7125499Y23831518D01*
X7124393Y23838500D01*
X7110646Y23925305D01*
X7110645Y23925307D01*
X7061709Y24021347D01*
X7053050Y24038342D01*
X6963342Y24128050D01*
X6850304Y24185646D01*
X6850302Y24185647D01*
X6850301Y24185647D01*
X6756519Y24200500D01*
X5743480Y24200500D01*
X5649695Y24185647D01*
X5649693Y24185646D01*
X5536657Y24128050D01*
X5446951Y24038344D01*
X5389353Y23925302D01*
X5379474Y23862924D01*
X5349881Y23814633D01*
X5306385Y23800500D01*
X5071855Y23800500D01*
X5019529Y23822174D01*
X5007769Y23837500D01*
X5007192Y23838500D01*
X4997889Y23854613D01*
X4914013Y23938489D01*
X4914010Y23938491D01*
X4914009Y23938492D01*
X4811287Y23997799D01*
X4811282Y23997801D01*
X4696711Y24028500D01*
X4696709Y24028500D01*
X4578091Y24028500D01*
X4578089Y24028500D01*
X4463517Y23997801D01*
X4463512Y23997799D01*
X4360790Y23938492D01*
X4276908Y23854610D01*
X4217601Y23751888D01*
X4217599Y23751883D01*
X4186900Y23637312D01*
X4186900Y23518689D01*
X4217599Y23404118D01*
X4217601Y23404113D01*
X4242204Y23361500D01*
X4249596Y23305347D01*
X4215118Y23260414D01*
X4178118Y23250500D01*
X3580136Y23250500D01*
X3555008Y23247586D01*
X3552721Y23246963D01*
X3551256Y23247151D01*
X3549479Y23246944D01*
X3549427Y23247384D01*
X3496541Y23254145D01*
X3461894Y23298948D01*
X3459300Y23318369D01*
X3459300Y23636888D01*
X3480973Y23689213D01*
X4019587Y24227828D01*
X4071913Y24249501D01*
X4694863Y24249501D01*
X4694864Y24249501D01*
X4719991Y24252415D01*
X4822765Y24297794D01*
X4902206Y24377235D01*
X4947585Y24480009D01*
X4950500Y24505135D01*
X4950499Y24894864D01*
X4947585Y24919991D01*
X4902206Y25022765D01*
X4822765Y25102206D01*
X4719991Y25147585D01*
X4719990Y25147586D01*
X4719988Y25147586D01*
X4694865Y25150500D01*
X4462000Y25150500D01*
X4409674Y25172174D01*
X4388000Y25224500D01*
X4388000Y26362328D01*
X4387999Y26362330D01*
X4356132Y26439265D01*
X4350499Y26467583D01*
X4350499Y27015587D01*
X4372173Y27067913D01*
X4620286Y27316026D01*
X4672612Y27337700D01*
X5507387Y27337700D01*
X5559713Y27316026D01*
X5777826Y27097913D01*
X5799500Y27045587D01*
X5799500Y26786628D01*
X5802317Y26762341D01*
X5802317Y26762339D01*
X5802318Y26762338D01*
X5846187Y26662984D01*
X5922984Y26586187D01*
X6022338Y26542318D01*
X6046627Y26539500D01*
X6413372Y26539501D01*
X6437662Y26542318D01*
X6537016Y26586187D01*
X6613813Y26662984D01*
X6657682Y26762338D01*
X6660500Y26786627D01*
X6660499Y27213372D01*
X6657682Y27237662D01*
X6613813Y27337016D01*
X6537016Y27413813D01*
X6437662Y27457682D01*
X6437663Y27457682D01*
X6432804Y27458246D01*
X6413373Y27460500D01*
X6413369Y27460500D01*
X6154413Y27460500D01*
X6102087Y27482174D01*
X6048387Y27535874D01*
X6026713Y27588200D01*
X6048387Y27640526D01*
X6820080Y28412219D01*
X7625648Y29217788D01*
X7677973Y29239461D01*
X7730299Y29217787D01*
X7750551Y29179898D01*
X7758233Y29141278D01*
X7791495Y29091497D01*
X7791496Y29091496D01*
X7836345Y29061529D01*
X7867811Y29014437D01*
X7856762Y28958888D01*
X7836345Y28938471D01*
X7791496Y28908505D01*
X7791495Y28908504D01*
X7758233Y28858723D01*
X7758233Y28858722D01*
X7749500Y28814820D01*
X7749500Y28385180D01*
X7753591Y28364616D01*
X7758233Y28341278D01*
X7791495Y28291497D01*
X7791496Y28291496D01*
X7836345Y28261529D01*
X7867811Y28214437D01*
X7856762Y28158888D01*
X7836345Y28138471D01*
X7791496Y28108505D01*
X7791495Y28108504D01*
X7758233Y28058723D01*
X7758233Y28058722D01*
X7749500Y28014820D01*
X7749500Y27585180D01*
X7752619Y27569501D01*
X7758233Y27541278D01*
X7791495Y27491497D01*
X7791496Y27491496D01*
X7836345Y27461529D01*
X7867811Y27414437D01*
X7856762Y27358888D01*
X7836345Y27338471D01*
X7791496Y27308505D01*
X7791495Y27308504D01*
X7758233Y27258723D01*
X7758233Y27258722D01*
X7749500Y27214820D01*
X7749500Y26785180D01*
X7756880Y26748078D01*
X7758233Y26741278D01*
X7791495Y26691497D01*
X7791496Y26691496D01*
X7836345Y26661529D01*
X7867811Y26614437D01*
X7856762Y26558888D01*
X7836345Y26538471D01*
X7791496Y26508505D01*
X7791495Y26508504D01*
X7758233Y26458723D01*
X7749500Y26414820D01*
X7749500Y25985180D01*
X7757104Y25946952D01*
X7758233Y25941278D01*
X7780067Y25908600D01*
X7791496Y25891496D01*
X7841278Y25858233D01*
X7885180Y25849500D01*
X7885181Y25849500D01*
X8714819Y25849500D01*
X8714820Y25849500D01*
X8758722Y25858233D01*
X8808504Y25891496D01*
X8841767Y25941278D01*
X8850500Y25985180D01*
X8850500Y26414820D01*
X8841767Y26458722D01*
X8808504Y26508504D01*
X8808503Y26508505D01*
X8808501Y26508507D01*
X8763655Y26538471D01*
X8732188Y26585562D01*
X8743237Y26641111D01*
X8763655Y26661529D01*
X8808501Y26691494D01*
X8808500Y26691494D01*
X8808504Y26691496D01*
X8841767Y26741278D01*
X8850500Y26785180D01*
X8850500Y27214820D01*
X8841767Y27258722D01*
X8808504Y27308504D01*
X8808503Y27308505D01*
X8763654Y27338472D01*
X8732188Y27385564D01*
X8743237Y27441113D01*
X8763649Y27461526D01*
X8771378Y27466690D01*
X8826924Y27477738D01*
X8864810Y27457488D01*
X8882787Y27439511D01*
X8882789Y27439510D01*
X8882790Y27439509D01*
X8966094Y27391413D01*
X8985514Y27380201D01*
X8985515Y27380201D01*
X8985517Y27380200D01*
X9039207Y27365814D01*
X9100088Y27349501D01*
X9100089Y27349500D01*
X9100091Y27349500D01*
X9218711Y27349500D01*
X9218711Y27349501D01*
X9333286Y27380201D01*
X9436013Y27439511D01*
X9519889Y27523387D01*
X9579199Y27626114D01*
X9609899Y27740689D01*
X9609900Y27740689D01*
X9609900Y27859311D01*
X9609899Y27859312D01*
X9609614Y27860374D01*
X9583054Y27959499D01*
X9579200Y27973883D01*
X9579198Y27973888D01*
X9519891Y28076610D01*
X9519890Y28076611D01*
X9519889Y28076613D01*
X9436013Y28160489D01*
X9436010Y28160491D01*
X9436009Y28160492D01*
X9333287Y28219799D01*
X9333282Y28219801D01*
X9218711Y28250500D01*
X9218709Y28250500D01*
X9100091Y28250500D01*
X9100089Y28250500D01*
X8985517Y28219801D01*
X8985512Y28219799D01*
X8882786Y28160489D01*
X8864812Y28142515D01*
X8812485Y28120842D01*
X8771380Y28133310D01*
X8763659Y28138468D01*
X8732189Y28185557D01*
X8743234Y28241107D01*
X8763655Y28261529D01*
X8808501Y28291494D01*
X8808500Y28291494D01*
X8808504Y28291496D01*
X8841767Y28341278D01*
X8850500Y28385180D01*
X8850500Y28814820D01*
X8841767Y28858722D01*
X8808504Y28908504D01*
X8808503Y28908505D01*
X8808501Y28908507D01*
X8763655Y28938471D01*
X8732188Y28985562D01*
X8743237Y29041111D01*
X8763655Y29061529D01*
X8808501Y29091494D01*
X8808500Y29091494D01*
X8808504Y29091496D01*
X8841767Y29141278D01*
X8850500Y29185180D01*
X8850500Y29614820D01*
X8841767Y29658722D01*
X8808504Y29708504D01*
X8808503Y29708505D01*
X8808501Y29708507D01*
X8763655Y29738471D01*
X8732188Y29785562D01*
X8743237Y29841111D01*
X8754658Y29854454D01*
X8758878Y29858338D01*
X8808504Y29891496D01*
X8830199Y29923966D01*
X8836707Y29929954D01*
X8855626Y29936885D01*
X8872378Y29948078D01*
X8886815Y29949500D01*
X8950172Y29949500D01*
X9012649Y29949500D01*
X9031802Y29946978D01*
X9115688Y29924501D01*
X9115689Y29924500D01*
X9115691Y29924500D01*
X9234311Y29924500D01*
X9234311Y29924501D01*
X9348886Y29955201D01*
X9451613Y30014511D01*
X9535489Y30098387D01*
X9594799Y30201114D01*
X9625499Y30315689D01*
X9625500Y30315689D01*
X9625500Y30434311D01*
X9625499Y30434312D01*
X9618958Y30458722D01*
X9594799Y30548886D01*
X9542143Y30640088D01*
X9535491Y30651610D01*
X9535490Y30651611D01*
X9535489Y30651613D01*
X9451613Y30735489D01*
X9451610Y30735491D01*
X9451609Y30735492D01*
X9348887Y30794799D01*
X9348882Y30794801D01*
X9234311Y30825500D01*
X9234309Y30825500D01*
X9115691Y30825500D01*
X9115689Y30825500D01*
X9001117Y30794801D01*
X9001112Y30794799D01*
X8961500Y30771928D01*
X8905347Y30764535D01*
X8860414Y30799014D01*
X8850500Y30836014D01*
X8850500Y31214820D01*
X8841767Y31258722D01*
X8808504Y31308504D01*
X8808503Y31308505D01*
X8808501Y31308507D01*
X8763655Y31338471D01*
X8732188Y31385562D01*
X8743237Y31441111D01*
X8763655Y31461529D01*
X8808501Y31491494D01*
X8808500Y31491494D01*
X8808504Y31491496D01*
X8841767Y31541278D01*
X8850500Y31585180D01*
X8850500Y32014820D01*
X8841767Y32058722D01*
X8808504Y32108504D01*
X8758722Y32141767D01*
X8714820Y32150500D01*
X7885180Y32150500D01*
X7863229Y32146134D01*
X7841277Y32141767D01*
X7791496Y32108505D01*
X7791495Y32108504D01*
X7774714Y32083388D01*
X7727622Y32051922D01*
X7713185Y32050500D01*
X7593472Y32050500D01*
X7501405Y32012366D01*
X7430934Y31941895D01*
X7392800Y31849830D01*
X7392800Y29724113D01*
X7371126Y29671787D01*
X5559713Y27860374D01*
X5507387Y27838700D01*
X4488372Y27838700D01*
X4396305Y27800566D01*
X4325835Y27730096D01*
X4200157Y27604419D01*
X4147831Y27582745D01*
X4114237Y27590810D01*
X4075305Y27610646D01*
X3981519Y27625500D01*
X3418480Y27625500D01*
X3324695Y27610647D01*
X3324693Y27610646D01*
X3211657Y27553050D01*
X3121951Y27463344D01*
X3064353Y27350302D01*
X3049500Y27256520D01*
X3049500Y26243481D01*
X3064353Y26149696D01*
X3064354Y26149694D01*
X3106397Y26067182D01*
X3121950Y26036658D01*
X3211658Y25946950D01*
X3324696Y25889354D01*
X3418481Y25874500D01*
X3813000Y25874501D01*
X3865326Y25852827D01*
X3887000Y25800501D01*
X3887000Y25224500D01*
X3865326Y25172174D01*
X3813000Y25150500D01*
X3580136Y25150500D01*
X3555013Y25147586D01*
X3555007Y25147585D01*
X3452234Y25102206D01*
X3372794Y25022766D01*
X3327414Y24919989D01*
X3324500Y24894865D01*
X3324500Y24812519D01*
X3302826Y24760193D01*
X3250500Y24738519D01*
X3213500Y24748433D01*
X3157787Y24780599D01*
X3157782Y24780601D01*
X3043211Y24811300D01*
X3043209Y24811300D01*
X2924591Y24811300D01*
X2924589Y24811300D01*
X2810017Y24780601D01*
X2810011Y24780598D01*
X2786499Y24767023D01*
X2730346Y24759631D01*
X2685413Y24794109D01*
X2675499Y24831109D01*
X2675499Y24894864D01*
X2673714Y24910257D01*
X2672585Y24919991D01*
X2627206Y25022765D01*
X2547765Y25102206D01*
X2444991Y25147585D01*
X2444990Y25147586D01*
X2444988Y25147586D01*
X2423659Y25150060D01*
X2419865Y25150500D01*
X2419864Y25150500D01*
X1305136Y25150500D01*
X1280013Y25147586D01*
X1280007Y25147585D01*
X1177234Y25102206D01*
X1097794Y25022766D01*
X1052414Y24919989D01*
X1049500Y24894865D01*
X1049500Y24505137D01*
X1052414Y24480014D01*
X1052415Y24480008D01*
X1072835Y24433762D01*
X1097794Y24377235D01*
X1177235Y24297794D01*
X1280009Y24252415D01*
X1305135Y24249500D01*
X2263838Y24249501D01*
X2316159Y24227832D01*
X2454274Y24089743D01*
X2569921Y23974116D01*
X2591600Y23921793D01*
X2591600Y23579014D01*
X2569926Y23526688D01*
X2315412Y23272174D01*
X2263086Y23250500D01*
X1305136Y23250500D01*
X1280013Y23247586D01*
X1280007Y23247585D01*
X1177234Y23202206D01*
X1097794Y23122766D01*
X1052414Y23019989D01*
X1049500Y22994865D01*
X1049500Y22605137D01*
X1052414Y22580014D01*
X1052415Y22580008D01*
X1066416Y22548300D01*
X1097794Y22477235D01*
X1177235Y22397794D01*
X1280009Y22352415D01*
X1305135Y22349500D01*
X2419864Y22349501D01*
X2444991Y22352415D01*
X2547765Y22397794D01*
X2627206Y22477235D01*
X2672585Y22580009D01*
X2675500Y22605135D01*
X2675499Y22893089D01*
X2697172Y22945413D01*
X2831974Y23080215D01*
X2884300Y23101888D01*
X2936626Y23080214D01*
X2958300Y23027888D01*
X2958300Y21175700D01*
X2936626Y21123374D01*
X2884300Y21101700D01*
X2675372Y21101700D01*
X2583305Y21063566D01*
X2583301Y21063563D01*
X2241911Y20722174D01*
X2189585Y20700500D01*
X1855136Y20700500D01*
X1830013Y20697586D01*
X1830007Y20697585D01*
X1727234Y20652206D01*
X1647794Y20572766D01*
X1602414Y20469989D01*
X1599500Y20444865D01*
X1599500Y19821914D01*
X1577826Y19769588D01*
X1083103Y19274864D01*
X1012634Y19204395D01*
X974500Y19112330D01*
X974500Y16440977D01*
X952826Y16388651D01*
X911170Y16367750D01*
X891374Y16364866D01*
X891373Y16364866D01*
X778789Y16309827D01*
X690173Y16221211D01*
X635134Y16108627D01*
X635134Y16108626D01*
X624500Y16035641D01*
X624500Y15464360D01*
X635134Y15391375D01*
X635134Y15391374D01*
X690173Y15278790D01*
X690174Y15278789D01*
X778789Y15190174D01*
X891375Y15135134D01*
X911169Y15132251D01*
X959822Y15103260D01*
X974500Y15059024D01*
X974500Y14715171D01*
X1012634Y14623106D01*
X1012637Y14623102D01*
X1120113Y14515626D01*
X1141787Y14463300D01*
X1120113Y14410974D01*
X702234Y13993095D01*
X664100Y13901030D01*
X664100Y13025571D01*
X702234Y12933506D01*
X702236Y12933503D01*
X1007826Y12627914D01*
X1029500Y12575588D01*
X1029500Y12312378D01*
X1032269Y12288505D01*
X1032269Y12288503D01*
X1032270Y12288502D01*
X1075384Y12190859D01*
X1150859Y12115384D01*
X1248502Y12072270D01*
X1272377Y12069500D01*
X1727622Y12069501D01*
X1751498Y12072270D01*
X1849141Y12115384D01*
X1924616Y12190859D01*
X1967730Y12288502D01*
X1970500Y12312377D01*
X1970499Y12506590D01*
X1992173Y12558914D01*
X2044499Y12580588D01*
X2096825Y12558914D01*
X2544015Y12111725D01*
X2544018Y12111721D01*
X2548236Y12107503D01*
X2618703Y12037036D01*
X2646551Y12025501D01*
X2710773Y11998899D01*
X2710774Y11998899D01*
X2819040Y11998899D01*
X2819048Y11998900D01*
X3000787Y11998900D01*
X3053113Y11977226D01*
X3481427Y11548913D01*
X3913835Y11116505D01*
X3913836Y11116503D01*
X3933228Y11097111D01*
X3945969Y11084370D01*
X3978838Y11051501D01*
X3999612Y11001346D01*
X4000512Y10999174D01*
X3984943Y10961588D01*
X3978838Y10946849D01*
X3956406Y10931482D01*
X3940859Y10924617D01*
X3865385Y10849143D01*
X3831490Y10772378D01*
X3822270Y10751498D01*
X3819543Y10727988D01*
X3819500Y10727620D01*
X3819500Y10272378D01*
X3822269Y10248505D01*
X3822269Y10248503D01*
X3822270Y10248502D01*
X3865384Y10150859D01*
X3940859Y10075384D01*
X4038502Y10032270D01*
X4062377Y10029500D01*
X4325586Y10029501D01*
X4377912Y10007827D01*
X4534355Y9851384D01*
X4537666Y9843389D01*
X4544720Y9838375D01*
X4548151Y9818077D01*
X4556029Y9799058D01*
X4552717Y9791064D01*
X4554160Y9782530D01*
X4542829Y9767192D01*
X4534355Y9746732D01*
X4521346Y9736367D01*
X4520162Y9735625D01*
X4422587Y9679289D01*
X4409552Y9666255D01*
X4402464Y9661809D01*
X4382165Y9658378D01*
X4363147Y9650500D01*
X3837569Y9650500D01*
X3785243Y9672174D01*
X3764991Y9710065D01*
X3759680Y9736767D01*
X3749999Y9751255D01*
X3718459Y9798459D01*
X3712954Y9802137D01*
X3656769Y9839679D01*
X3602369Y9850500D01*
X3602367Y9850500D01*
X3397636Y9850500D01*
X3343229Y9839679D01*
X3291111Y9804855D01*
X3235562Y9793806D01*
X3208889Y9804855D01*
X3156770Y9839679D01*
X3138118Y9843389D01*
X3102369Y9850500D01*
X3102367Y9850500D01*
X2897636Y9850500D01*
X2843229Y9839679D01*
X2791111Y9804855D01*
X2777442Y9802137D01*
X2766025Y9794140D01*
X2751209Y9796919D01*
X2735562Y9793806D01*
X2710247Y9803968D01*
X2709546Y9804415D01*
X2656769Y9839679D01*
X2652999Y9840429D01*
X2643899Y9846225D01*
X2631082Y9864526D01*
X2615284Y9880324D01*
X2615284Y9887082D01*
X2611408Y9892616D01*
X2615285Y9914621D01*
X2615286Y9936962D01*
X2620631Y9944962D01*
X2621236Y9948394D01*
X2624410Y9950618D01*
X2631324Y9960966D01*
X2718186Y10047828D01*
X2770511Y10069501D01*
X2772368Y10069501D01*
X2772377Y10069500D01*
X3227622Y10069501D01*
X3251498Y10072270D01*
X3349141Y10115384D01*
X3424616Y10190859D01*
X3467730Y10288502D01*
X3470500Y10312377D01*
X3470499Y10667622D01*
X3467730Y10691498D01*
X3424616Y10789141D01*
X3349141Y10864616D01*
X3251498Y10907730D01*
X3227623Y10910500D01*
X3227619Y10910500D01*
X2772377Y10910500D01*
X2748504Y10907731D01*
X2650858Y10864616D01*
X2575385Y10789143D01*
X2532270Y10691499D01*
X2529500Y10667620D01*
X2529500Y10598314D01*
X2507826Y10545988D01*
X1847694Y9885856D01*
X1787635Y9825796D01*
X1787632Y9825791D01*
X1770571Y9784604D01*
X1763736Y9771815D01*
X1740321Y9736770D01*
X1740320Y9736768D01*
X1729500Y9682368D01*
X1729500Y9117637D01*
X1729501Y9117632D01*
X1732013Y9104999D01*
X1720962Y9049452D01*
X1673869Y9017987D01*
X1645000Y9017988D01*
X1632370Y9020500D01*
X1632369Y9020500D01*
X1464413Y9020500D01*
X1412087Y9042174D01*
X1012174Y9442087D01*
X990500Y9494413D01*
X990500Y10005689D01*
X1012174Y10058015D01*
X1034608Y10073383D01*
X1039141Y10075384D01*
X1114616Y10150859D01*
X1157730Y10248502D01*
X1160500Y10272377D01*
X1160499Y10727622D01*
X1157730Y10751498D01*
X1114616Y10849141D01*
X1039141Y10924616D01*
X941498Y10967730D01*
X917623Y10970500D01*
X917619Y10970500D01*
X562377Y10970500D01*
X538504Y10967731D01*
X440858Y10924616D01*
X376826Y10860583D01*
X324500Y10838909D01*
X272174Y10860583D01*
X250500Y10912909D01*
X250500Y30109107D01*
X272174Y30161433D01*
X324500Y30183107D01*
X376826Y30161433D01*
X394573Y30132893D01*
X412614Y30079745D01*
X612211Y29675003D01*
X612217Y29674992D01*
X856671Y29309141D01*
X862930Y29299774D01*
X1160481Y28960482D01*
X1499773Y28662931D01*
X1605525Y28592270D01*
X1874990Y28412219D01*
X1874995Y28412216D01*
X1875000Y28412213D01*
X2279742Y28212616D01*
X2707074Y28067556D01*
X2707078Y28067556D01*
X2707082Y28067554D01*
X2928379Y28023536D01*
X3149684Y27979516D01*
X3600000Y27950000D01*
X4050315Y27979516D01*
X4379319Y28044959D01*
X4492916Y28067554D01*
X4492917Y28067555D01*
X4492925Y28067556D01*
X4920257Y28212616D01*
X5324999Y28412213D01*
X5700226Y28662931D01*
X6039518Y28960482D01*
X6337069Y29299774D01*
X6587787Y29675001D01*
X6787384Y30079743D01*
X6932444Y30507075D01*
X6932729Y30508505D01*
X6969127Y30691496D01*
X7020484Y30949685D01*
X7050000Y31400000D01*
X7020484Y31850316D01*
X6949499Y32207185D01*
X6932446Y32292918D01*
X6932444Y32292922D01*
X6932444Y32292926D01*
X6787384Y32720258D01*
X6587787Y33125001D01*
X6587784Y33125006D01*
X6587781Y33125011D01*
X6337070Y33500225D01*
X6337069Y33500227D01*
X6039518Y33839519D01*
X5700226Y34137070D01*
X5698553Y34138188D01*
X5325008Y34387783D01*
X5324997Y34387789D01*
X4920255Y34587386D01*
X4867107Y34605427D01*
X4824524Y34642771D01*
X4820820Y34699286D01*
X4858164Y34741869D01*
X4890893Y34749500D01*
X24675500Y34749500D01*
X24727826Y34727826D01*
G37*
%TD.AperFunction*%
%TA.AperFunction,Conductor*%
G36*
X3291109Y8995148D02*
G01*
X3343231Y8960321D01*
X3397631Y8949500D01*
X3602368Y8949501D01*
X3614999Y8952014D01*
X3670545Y8940966D01*
X3702012Y8893874D01*
X3702013Y8865002D01*
X3699500Y8852367D01*
X3699500Y8647637D01*
X3710321Y8593230D01*
X3745145Y8541111D01*
X3756194Y8485562D01*
X3745145Y8458889D01*
X3710321Y8406771D01*
X3710321Y8406769D01*
X3701317Y8361501D01*
X3699500Y8352368D01*
X3699500Y8147637D01*
X3710321Y8093230D01*
X3745145Y8041111D01*
X3756194Y7985562D01*
X3745145Y7958889D01*
X3710321Y7906771D01*
X3699500Y7852368D01*
X3699500Y7647637D01*
X3710321Y7593230D01*
X3745145Y7541111D01*
X3756194Y7485562D01*
X3745145Y7458889D01*
X3710321Y7406771D01*
X3699500Y7352368D01*
X3699500Y7147637D01*
X3710320Y7093232D01*
X3750982Y7032378D01*
X3751541Y7031541D01*
X3813231Y6990321D01*
X3867631Y6979500D01*
X3947243Y6979501D01*
X3999567Y6957828D01*
X4021242Y6905502D01*
X3999569Y6853176D01*
X3966396Y6834023D01*
X3918916Y6821300D01*
X3918912Y6821299D01*
X3816190Y6761992D01*
X3732308Y6678110D01*
X3673001Y6575388D01*
X3672999Y6575383D01*
X3642300Y6460812D01*
X3642300Y6354600D01*
X3620626Y6302274D01*
X3568300Y6280600D01*
X3436613Y6280600D01*
X3384287Y6302274D01*
X3292173Y6394388D01*
X3270499Y6446714D01*
X3270499Y6882364D01*
X3270499Y6882368D01*
X3259679Y6936769D01*
X3218459Y6998459D01*
X3156769Y7039679D01*
X3102369Y7050500D01*
X3102367Y7050500D01*
X2897636Y7050500D01*
X2843231Y7039680D01*
X2781541Y6998460D01*
X2781540Y6998459D01*
X2740321Y6936770D01*
X2729500Y6882368D01*
X2729500Y6317637D01*
X2740320Y6263232D01*
X2781389Y6201768D01*
X2786773Y6191695D01*
X2787635Y6190405D01*
X2787636Y6190403D01*
X3089836Y5888203D01*
X3160303Y5817736D01*
X3252372Y5779600D01*
X3252373Y5779600D01*
X3771227Y5779600D01*
X3771228Y5779600D01*
X3863297Y5817736D01*
X3975054Y5929494D01*
X4027378Y5951167D01*
X4029911Y5951000D01*
X4033491Y5951000D01*
X4152111Y5951000D01*
X4152111Y5951001D01*
X4266686Y5981701D01*
X4369413Y6041011D01*
X4453289Y6124887D01*
X4512599Y6227614D01*
X4543299Y6342189D01*
X4543300Y6342189D01*
X4543300Y6460811D01*
X4543299Y6460812D01*
X4512600Y6575383D01*
X4512598Y6575388D01*
X4453291Y6678110D01*
X4453290Y6678111D01*
X4453289Y6678113D01*
X4369413Y6761989D01*
X4369410Y6761991D01*
X4369409Y6761992D01*
X4266687Y6821299D01*
X4266682Y6821301D01*
X4219202Y6834023D01*
X4174269Y6868501D01*
X4166877Y6924654D01*
X4201355Y6969587D01*
X4238353Y6979501D01*
X4432368Y6979501D01*
X4486769Y6990321D01*
X4548459Y7031541D01*
X4589679Y7093231D01*
X4600500Y7147631D01*
X4600499Y7352368D01*
X4589679Y7406769D01*
X4554853Y7458889D01*
X4552608Y7470174D01*
X4545385Y7479133D01*
X4547748Y7494606D01*
X4543804Y7514436D01*
X4551424Y7535447D01*
X4553005Y7538347D01*
X4589679Y7593231D01*
X4593535Y7612618D01*
X4598949Y7622538D01*
X4612864Y7633758D01*
X4622794Y7648619D01*
X4634080Y7650865D01*
X4643040Y7658088D01*
X4660813Y7656182D01*
X4678343Y7659669D01*
X4698285Y7652164D01*
X4699354Y7652049D01*
X4699686Y7651637D01*
X4700906Y7651178D01*
X4707038Y7647637D01*
X4750510Y7622538D01*
X4751614Y7621901D01*
X4751615Y7621901D01*
X4751617Y7621900D01*
X4805016Y7607592D01*
X4866188Y7591201D01*
X4866189Y7591200D01*
X4866191Y7591200D01*
X4984811Y7591200D01*
X4984811Y7591201D01*
X5099386Y7621901D01*
X5202113Y7681211D01*
X5285989Y7765087D01*
X5345299Y7867814D01*
X5368703Y7955162D01*
X5380462Y7970486D01*
X5387855Y7988333D01*
X5397093Y7992160D01*
X5403181Y8000093D01*
X5422334Y8002615D01*
X5440181Y8010007D01*
X5449418Y8006181D01*
X5459333Y8007486D01*
X5492507Y7988333D01*
X5493526Y7987314D01*
X5515200Y7934988D01*
X5515200Y5944471D01*
X5553334Y5852406D01*
X5553336Y5852403D01*
X5817826Y5587914D01*
X5839500Y5535588D01*
X5839500Y5272378D01*
X5842269Y5248505D01*
X5842269Y5248503D01*
X5842270Y5248502D01*
X5885384Y5150859D01*
X5960859Y5075384D01*
X6058502Y5032270D01*
X6082377Y5029500D01*
X6437622Y5029501D01*
X6461498Y5032270D01*
X6559141Y5075384D01*
X6634616Y5150859D01*
X6677730Y5248502D01*
X6680500Y5272377D01*
X6680499Y5727622D01*
X6677730Y5751498D01*
X6634616Y5849141D01*
X6559141Y5924616D01*
X6461498Y5967730D01*
X6437623Y5970500D01*
X6437619Y5970500D01*
X6174413Y5970500D01*
X6122087Y5992174D01*
X6037874Y6076387D01*
X6016200Y6128713D01*
X6016200Y6361618D01*
X6037874Y6413944D01*
X6090200Y6435618D01*
X6123790Y6427554D01*
X6149696Y6414354D01*
X6243481Y6399500D01*
X7190486Y6399501D01*
X7242812Y6377827D01*
X9953026Y3667613D01*
X9974700Y3615287D01*
X9974700Y2596545D01*
X9953026Y2544219D01*
X9226181Y1817374D01*
X9173855Y1795700D01*
X3548312Y1795700D01*
X3495986Y1817374D01*
X1033974Y4279387D01*
X1012300Y4331713D01*
X1012300Y5285641D01*
X1374500Y5285641D01*
X1374500Y4714360D01*
X1385134Y4641375D01*
X1385134Y4641374D01*
X1440173Y4528790D01*
X1440174Y4528789D01*
X1528789Y4440174D01*
X1641375Y4385134D01*
X1714364Y4374500D01*
X1714370Y4374500D01*
X2210900Y4374500D01*
X2263226Y4352826D01*
X2284900Y4300500D01*
X2284900Y4180289D01*
X2315599Y4065718D01*
X2315601Y4065713D01*
X2374908Y3962991D01*
X2374909Y3962990D01*
X2374911Y3962987D01*
X2458787Y3879111D01*
X2458789Y3879110D01*
X2458790Y3879109D01*
X2561512Y3819802D01*
X2561514Y3819801D01*
X2561515Y3819801D01*
X2561517Y3819800D01*
X2618802Y3804451D01*
X2676088Y3789101D01*
X2676089Y3789100D01*
X2676091Y3789100D01*
X2794711Y3789100D01*
X2794711Y3789101D01*
X2909286Y3819801D01*
X3012013Y3879111D01*
X3095889Y3962987D01*
X3155199Y4065714D01*
X3185899Y4180289D01*
X3185900Y4180289D01*
X3185900Y4298911D01*
X3185899Y4298912D01*
X3185473Y4300500D01*
X3155199Y4413486D01*
X3095889Y4516213D01*
X3012013Y4600089D01*
X3012010Y4600091D01*
X3012009Y4600092D01*
X2909287Y4659399D01*
X2909282Y4659401D01*
X2794711Y4690100D01*
X2794709Y4690100D01*
X2676091Y4690100D01*
X2671241Y4690100D01*
X2671241Y4690457D01*
X2669979Y4689934D01*
X2647951Y4699059D01*
X2624924Y4705231D01*
X2617653Y4711608D01*
X2597174Y4732087D01*
X2575500Y4784413D01*
X2575500Y5285630D01*
X2575500Y5285636D01*
X2564866Y5358625D01*
X2509826Y5471211D01*
X2421211Y5559826D01*
X2421210Y5559827D01*
X2308626Y5614866D01*
X2235640Y5625500D01*
X2235636Y5625500D01*
X1714364Y5625500D01*
X1714359Y5625500D01*
X1641374Y5614866D01*
X1641373Y5614866D01*
X1528789Y5559827D01*
X1440173Y5471211D01*
X1385134Y5358627D01*
X1385134Y5358626D01*
X1374500Y5285641D01*
X1012300Y5285641D01*
X1012300Y7313688D01*
X1033973Y7366013D01*
X1125787Y7457828D01*
X1178113Y7479501D01*
X1632364Y7479501D01*
X1632368Y7479501D01*
X1686769Y7490321D01*
X1748459Y7531541D01*
X1789679Y7593231D01*
X1800500Y7647631D01*
X1800499Y7852368D01*
X1789679Y7906769D01*
X1754853Y7958889D01*
X1743804Y8014436D01*
X1754853Y8041111D01*
X1789679Y8093231D01*
X1800500Y8147631D01*
X1800499Y8352368D01*
X1789679Y8406769D01*
X1754853Y8458889D01*
X1743804Y8514436D01*
X1754853Y8541111D01*
X1789679Y8593231D01*
X1800500Y8647631D01*
X1800499Y8852368D01*
X1797986Y8865000D01*
X1809035Y8920546D01*
X1856126Y8952013D01*
X1884997Y8952013D01*
X1897631Y8949500D01*
X2102368Y8949501D01*
X2156769Y8960321D01*
X2208888Y8995147D01*
X2264436Y9006196D01*
X2291109Y8995148D01*
X2343231Y8960321D01*
X2397631Y8949500D01*
X2602368Y8949501D01*
X2656769Y8960321D01*
X2708888Y8995147D01*
X2764436Y9006196D01*
X2791109Y8995148D01*
X2843231Y8960321D01*
X2897631Y8949500D01*
X3102368Y8949501D01*
X3156769Y8960321D01*
X3208888Y8995147D01*
X3264436Y9006196D01*
X3291109Y8995148D01*
G37*
%TD.AperFunction*%
%TA.AperFunction,Conductor*%
G36*
X7549712Y21010426D02*
G01*
X7597825Y20962314D01*
X7619500Y20909989D01*
X7619500Y20524414D01*
X7597826Y20472088D01*
X7347911Y20222174D01*
X7295585Y20200500D01*
X7036627Y20200500D01*
X7012340Y20197683D01*
X6912983Y20153813D01*
X6836187Y20077017D01*
X6792318Y19977663D01*
X6789500Y19953370D01*
X6789500Y19586628D01*
X6792317Y19562341D01*
X6792317Y19562339D01*
X6792318Y19562338D01*
X6836187Y19462984D01*
X6912984Y19386187D01*
X7012338Y19342318D01*
X7036627Y19339500D01*
X7416000Y19339501D01*
X7442002Y19328731D01*
X7468245Y19317908D01*
X7468268Y19317851D01*
X7468326Y19317827D01*
X7490000Y19265615D01*
X7490000Y19164091D01*
X7490157Y19163503D01*
X7490166Y19158094D01*
X7481057Y19136008D01*
X7474874Y19112931D01*
X7468581Y19105757D01*
X7468573Y19105735D01*
X7468557Y19105729D01*
X7468492Y19105654D01*
X7354301Y18991463D01*
X7310501Y18970282D01*
X7288504Y18967731D01*
X7190858Y18924616D01*
X7115385Y18849143D01*
X7072270Y18751499D01*
X7069500Y18727620D01*
X7069500Y18272378D01*
X7072269Y18248505D01*
X7072269Y18248503D01*
X7072270Y18248502D01*
X7115384Y18150859D01*
X7190859Y18075384D01*
X7195389Y18073384D01*
X7234502Y18032423D01*
X7239500Y18005689D01*
X7239500Y14916571D01*
X7277634Y14824506D01*
X7277637Y14824502D01*
X7525313Y14576826D01*
X7546987Y14524500D01*
X7525313Y14472174D01*
X7472988Y14450500D01*
X7355136Y14450500D01*
X7330013Y14447586D01*
X7330007Y14447585D01*
X7227234Y14402206D01*
X7147794Y14322766D01*
X7102414Y14219989D01*
X7099500Y14194865D01*
X7099500Y13130913D01*
X7077826Y13078587D01*
X7025500Y13056913D01*
X6973174Y13078587D01*
X5772174Y14279587D01*
X5750500Y14331913D01*
X5750500Y14513418D01*
X5762971Y14554530D01*
X5766052Y14559141D01*
X5789157Y14593720D01*
X5800500Y14650745D01*
X5800499Y15449254D01*
X5790673Y15498658D01*
X5801725Y15554205D01*
X5826250Y15577177D01*
X5833413Y15581311D01*
X5917289Y15665187D01*
X5976599Y15767914D01*
X6007299Y15882489D01*
X6007300Y15882489D01*
X6007300Y16001111D01*
X6007299Y16001112D01*
X5976600Y16115683D01*
X5976598Y16115688D01*
X5917291Y16218410D01*
X5917290Y16218411D01*
X5917289Y16218413D01*
X5833413Y16302289D01*
X5833410Y16302291D01*
X5833409Y16302292D01*
X5730687Y16361599D01*
X5730682Y16361601D01*
X5616111Y16392300D01*
X5616109Y16392300D01*
X5555113Y16392300D01*
X5502787Y16413974D01*
X4422173Y17494588D01*
X4400499Y17546914D01*
X4400499Y18169864D01*
X4399128Y18181687D01*
X4397585Y18194991D01*
X4352206Y18297765D01*
X4272765Y18377206D01*
X4169991Y18422585D01*
X4169990Y18422586D01*
X4169988Y18422586D01*
X4148659Y18425060D01*
X4144865Y18425500D01*
X4144864Y18425500D01*
X3755136Y18425500D01*
X3730013Y18422586D01*
X3730007Y18422585D01*
X3627234Y18377206D01*
X3547794Y18297766D01*
X3502414Y18194989D01*
X3499500Y18169865D01*
X3499500Y17055137D01*
X3502414Y17030014D01*
X3502415Y17030008D01*
X3530392Y16966647D01*
X3547794Y16927235D01*
X3627235Y16847794D01*
X3730009Y16802415D01*
X3755135Y16799500D01*
X4144864Y16799501D01*
X4169991Y16802415D01*
X4272765Y16847794D01*
X4272768Y16847798D01*
X4274105Y16848712D01*
X4275519Y16849011D01*
X4279038Y16850564D01*
X4279365Y16849822D01*
X4329523Y16860402D01*
X4368251Y16839988D01*
X4682425Y16525814D01*
X4704099Y16473488D01*
X4682425Y16421162D01*
X4649252Y16402010D01*
X4607417Y16390801D01*
X4607412Y16390799D01*
X4504690Y16331492D01*
X4431806Y16258608D01*
X4379480Y16236934D01*
X4327154Y16258608D01*
X4321894Y16264607D01*
X4321290Y16265211D01*
X4321289Y16265213D01*
X4237413Y16349089D01*
X4237410Y16349091D01*
X4237409Y16349092D01*
X4134687Y16408399D01*
X4134682Y16408401D01*
X4020111Y16439100D01*
X4020109Y16439100D01*
X3901491Y16439100D01*
X3901489Y16439100D01*
X3786917Y16408401D01*
X3786912Y16408399D01*
X3684190Y16349092D01*
X3600308Y16265210D01*
X3541001Y16162488D01*
X3540999Y16162483D01*
X3510300Y16047912D01*
X3510300Y15929289D01*
X3540999Y15814718D01*
X3541001Y15814713D01*
X3600308Y15711991D01*
X3600309Y15711990D01*
X3600311Y15711987D01*
X3684187Y15628111D01*
X3684189Y15628110D01*
X3684190Y15628109D01*
X3786912Y15568802D01*
X3786914Y15568801D01*
X3786915Y15568801D01*
X3786917Y15568800D01*
X3841387Y15554205D01*
X3901488Y15538101D01*
X3901489Y15538100D01*
X4024960Y15538100D01*
X4024960Y15537745D01*
X4026221Y15538267D01*
X4048220Y15529155D01*
X4071224Y15523010D01*
X4078547Y15516593D01*
X4177826Y15417314D01*
X4199500Y15364988D01*
X4199500Y14650751D01*
X4210842Y14593722D01*
X4210843Y14593719D01*
X4254049Y14529055D01*
X4257877Y14525227D01*
X4273918Y14501220D01*
X4287635Y14468105D01*
X4287637Y14468102D01*
X4757801Y13997938D01*
X4779475Y13945612D01*
X4757801Y13893286D01*
X4705475Y13871612D01*
X4677161Y13877243D01*
X4673885Y13878600D01*
X4559311Y13909300D01*
X4559309Y13909300D01*
X4440691Y13909300D01*
X4440689Y13909300D01*
X4326117Y13878601D01*
X4326112Y13878599D01*
X4223390Y13819292D01*
X4139508Y13735410D01*
X4080201Y13632688D01*
X4080199Y13632683D01*
X4049500Y13518112D01*
X4049500Y13399489D01*
X4080199Y13284918D01*
X4080201Y13284913D01*
X4139508Y13182191D01*
X4139509Y13182190D01*
X4139511Y13182187D01*
X4189479Y13132219D01*
X4226817Y13094881D01*
X4224893Y13092958D01*
X4248866Y13051451D01*
X4249500Y13041781D01*
X4249500Y12486583D01*
X4237030Y12445474D01*
X4227971Y12431915D01*
X4210842Y12406279D01*
X4199500Y12349254D01*
X4199500Y11718013D01*
X4177826Y11665687D01*
X4125500Y11644013D01*
X4073174Y11665687D01*
X3277098Y12461763D01*
X3277094Y12461766D01*
X3185028Y12499900D01*
X2895012Y12499900D01*
X2842686Y12521574D01*
X2671086Y12693175D01*
X2649412Y12745501D01*
X2671086Y12797827D01*
X2723412Y12819501D01*
X2977622Y12819501D01*
X3001498Y12822270D01*
X3099141Y12865384D01*
X3174616Y12940859D01*
X3217730Y13038502D01*
X3220500Y13062377D01*
X3220499Y13417622D01*
X3217730Y13441498D01*
X3174616Y13539141D01*
X3099141Y13614616D01*
X3001498Y13657730D01*
X2977623Y13660500D01*
X2977619Y13660500D01*
X2714413Y13660500D01*
X2662087Y13682174D01*
X2631086Y13713175D01*
X2609412Y13765501D01*
X2631086Y13817827D01*
X2683410Y13839501D01*
X2977622Y13839501D01*
X3001498Y13842270D01*
X3099141Y13885384D01*
X3174616Y13960859D01*
X3217730Y14058502D01*
X3220500Y14082377D01*
X3220499Y14331001D01*
X3242173Y14383326D01*
X3294499Y14405000D01*
X3404811Y14405000D01*
X3404811Y14405001D01*
X3519386Y14435701D01*
X3622113Y14495011D01*
X3705989Y14578887D01*
X3765299Y14681614D01*
X3795999Y14796189D01*
X3796000Y14796189D01*
X3796000Y14914811D01*
X3795999Y14914812D01*
X3795527Y14916572D01*
X3765299Y15029386D01*
X3754271Y15048487D01*
X3705991Y15132110D01*
X3705990Y15132111D01*
X3705989Y15132113D01*
X3622113Y15215989D01*
X3622110Y15215991D01*
X3622109Y15215992D01*
X3519387Y15275299D01*
X3519382Y15275301D01*
X3404811Y15306000D01*
X3404809Y15306000D01*
X3286191Y15306000D01*
X3286189Y15306000D01*
X3171617Y15275301D01*
X3171612Y15275299D01*
X3068890Y15215992D01*
X2985008Y15132110D01*
X2925701Y15029388D01*
X2925699Y15029383D01*
X2895000Y14914812D01*
X2895000Y14791341D01*
X2894643Y14791341D01*
X2895165Y14790080D01*
X2886033Y14768035D01*
X2879838Y14744985D01*
X2873491Y14737754D01*
X2837911Y14702174D01*
X2785585Y14680500D01*
X2522377Y14680500D01*
X2498504Y14677731D01*
X2400858Y14634616D01*
X2325385Y14559143D01*
X2325384Y14559142D01*
X2325384Y14559141D01*
X2317174Y14540547D01*
X2282270Y14461499D01*
X2279500Y14437620D01*
X2279500Y14243413D01*
X2257826Y14191087D01*
X2205500Y14169413D01*
X2153174Y14191087D01*
X1497174Y14847087D01*
X1475500Y14899413D01*
X1475500Y15059024D01*
X1497174Y15111350D01*
X1538830Y15132251D01*
X1558625Y15135134D01*
X1671211Y15190174D01*
X1759826Y15278789D01*
X1814866Y15391375D01*
X1825500Y15464364D01*
X1825500Y16035636D01*
X1814866Y16108625D01*
X1759826Y16221211D01*
X1671211Y16309826D01*
X1671210Y16309827D01*
X1558626Y16364866D01*
X1538830Y16367750D01*
X1490176Y16396743D01*
X1475500Y16440977D01*
X1475500Y16966647D01*
X1497174Y17018973D01*
X1549500Y17040647D01*
X1601826Y17018973D01*
X1617192Y16996540D01*
X1647794Y16927235D01*
X1727235Y16847794D01*
X1830009Y16802415D01*
X1855135Y16799500D01*
X2244864Y16799501D01*
X2269991Y16802415D01*
X2372765Y16847794D01*
X2452206Y16927235D01*
X2497585Y17030009D01*
X2500500Y17055135D01*
X2500499Y18169864D01*
X2497585Y18194991D01*
X2452206Y18297765D01*
X2372765Y18377206D01*
X2269991Y18422585D01*
X2269990Y18422586D01*
X2269988Y18422586D01*
X2248659Y18425060D01*
X2244865Y18425500D01*
X2244864Y18425500D01*
X1855136Y18425500D01*
X1830013Y18422586D01*
X1830007Y18422585D01*
X1727234Y18377206D01*
X1647794Y18297766D01*
X1617195Y18228464D01*
X1576232Y18189351D01*
X1519610Y18190659D01*
X1480497Y18231622D01*
X1475500Y18258354D01*
X1475500Y18928087D01*
X1497174Y18980413D01*
X1561261Y19044500D01*
X1631749Y19114989D01*
X1684074Y19136662D01*
X1720836Y19125280D01*
X1720962Y19125564D01*
X1723411Y19124483D01*
X1725890Y19123715D01*
X1727233Y19122795D01*
X1727234Y19122795D01*
X1727235Y19122794D01*
X1830009Y19077415D01*
X1855135Y19074500D01*
X2244864Y19074501D01*
X2269991Y19077415D01*
X2372765Y19122794D01*
X2452206Y19202235D01*
X2497585Y19305009D01*
X2500500Y19330135D01*
X2500499Y20241588D01*
X2522173Y20293913D01*
X2807287Y20579026D01*
X2859613Y20600700D01*
X3158972Y20600700D01*
X3164787Y20600700D01*
X3217113Y20579026D01*
X3477826Y20318313D01*
X3499500Y20265987D01*
X3499500Y19330137D01*
X3502414Y19305014D01*
X3502415Y19305008D01*
X3510266Y19287227D01*
X3547794Y19202235D01*
X3627235Y19122794D01*
X3730009Y19077415D01*
X3755135Y19074500D01*
X4144864Y19074501D01*
X4169991Y19077415D01*
X4262093Y19118083D01*
X4318714Y19119390D01*
X4343002Y19101238D01*
X4344382Y19102617D01*
X4347809Y19099190D01*
X4347811Y19099187D01*
X4431687Y19015311D01*
X4431689Y19015310D01*
X4431690Y19015309D01*
X4534412Y18956002D01*
X4534414Y18956001D01*
X4534415Y18956001D01*
X4534417Y18956000D01*
X4591702Y18940651D01*
X4648988Y18925301D01*
X4648989Y18925300D01*
X4648991Y18925300D01*
X4767611Y18925300D01*
X4767611Y18925301D01*
X4882186Y18956001D01*
X4984913Y19015311D01*
X5068789Y19099187D01*
X5068791Y19099192D01*
X5070332Y19100732D01*
X5122658Y19122406D01*
X5174984Y19100732D01*
X5189139Y19080906D01*
X5190173Y19078790D01*
X5190174Y19078789D01*
X5278789Y18990174D01*
X5391375Y18935134D01*
X5464364Y18924500D01*
X5464370Y18924500D01*
X6035630Y18924500D01*
X6035636Y18924500D01*
X6108625Y18935134D01*
X6221211Y18990174D01*
X6309826Y19078789D01*
X6364866Y19191375D01*
X6375500Y19264364D01*
X6375500Y19785636D01*
X6364866Y19858625D01*
X6358174Y19872313D01*
X6344019Y19901269D01*
X6336500Y19933769D01*
X6336500Y20043681D01*
X6358174Y20096007D01*
X6360082Y20097681D01*
X6362610Y20100210D01*
X6362613Y20100211D01*
X6446489Y20184087D01*
X6505799Y20286814D01*
X6536499Y20401389D01*
X6536500Y20401389D01*
X6536500Y20520011D01*
X6536499Y20520012D01*
X6535319Y20524414D01*
X6510506Y20617021D01*
X6505800Y20634583D01*
X6505798Y20634588D01*
X6446491Y20737310D01*
X6446490Y20737311D01*
X6446489Y20737313D01*
X6362613Y20821189D01*
X6362610Y20821191D01*
X6362609Y20821192D01*
X6259887Y20880499D01*
X6259882Y20880501D01*
X6237036Y20886622D01*
X6192103Y20921100D01*
X6184711Y20977253D01*
X6219189Y21022186D01*
X6256189Y21032100D01*
X7497387Y21032100D01*
X7549712Y21010426D01*
G37*
%TD.AperFunction*%
%TD*%
M02*
