%TF.GenerationSoftware,KiCad,Pcbnew,9.0.8+dfsg-1*%
%TF.CreationDate,2026-09-08T08:42:20+05:30*%
%TF.ProjectId,smove-r2-main,736d6f76-652d-4723-922d-6d61696e2e6b,rev?*%
%TF.SameCoordinates,Original*%
%TF.FileFunction,Copper,L3,Inr*%
%TF.FilePolarity,Positive*%
%FSLAX46Y46*%
G04 Gerber Fmt 4.6, Leading zero omitted, Abs format (unit mm)*
G04 Created by KiCad (PCBNEW 9.0.8+dfsg-1) date 2026-09-08 08:42:20*
%MOMM*%
%LPD*%
G01*
G04 APERTURE LIST*
%TA.AperFunction,HeatsinkPad*%
%ADD10O,1.000000X2.100000*%
%TD*%
%TA.AperFunction,HeatsinkPad*%
%ADD11O,1.000000X1.600000*%
%TD*%
%TA.AperFunction,ComponentPad*%
%ADD12C,1.000000*%
%TD*%
%TA.AperFunction,ViaPad*%
%ADD13C,0.500000*%
%TD*%
%TA.AperFunction,ViaPad*%
%ADD14C,0.450000*%
%TD*%
%TA.AperFunction,Conductor*%
%ADD15C,0.350000*%
%TD*%
%TA.AperFunction,Conductor*%
%ADD16C,0.180000*%
%TD*%
%TA.AperFunction,Conductor*%
%ADD17C,0.250000*%
%TD*%
G04 APERTURE END LIST*
D10*
%TO.N,GND*%
%TO.C,J1*%
X15560000Y6130000D03*
D11*
X15560000Y1950000D03*
D10*
X24200000Y6130000D03*
D11*
X24200000Y1950000D03*
%TD*%
D12*
%TO.N,GND*%
%TO.C,J3*%
X22000000Y33800000D03*
%TO.N,/UART_RX*%
X22000000Y32530000D03*
%TO.N,/UART_TX*%
X22000000Y31260000D03*
%TO.N,/MCU_EN*%
X22000000Y29990000D03*
%TO.N,/BOOT*%
X22000000Y28720000D03*
%TD*%
D13*
%TO.N,/3V3_MAIN*%
X13015000Y23341900D03*
X7688800Y26730700D03*
X15042000Y18494200D03*
X19045500Y10670200D03*
%TO.N,/BOOT*%
X19872700Y20917100D03*
%TO.N,/CC2*%
X21508800Y5271300D03*
X18163800Y8369600D03*
%TO.N,/CHG_ISET*%
X11770200Y19626300D03*
X6434700Y21358800D03*
%TO.N,/LED_B*%
X10882400Y23466200D03*
X10316300Y7146400D03*
%TO.N,/LED_B_K*%
X11678800Y5400000D03*
X14151600Y7599200D03*
X14205900Y10207200D03*
X17613300Y12128200D03*
%TO.N,/LED_G*%
X14533700Y2166300D03*
X15650000Y25483800D03*
%TO.N,/LED_G_K*%
X15650000Y3563800D03*
X19389400Y14198900D03*
X19850000Y5102900D03*
%TO.N,/LED_R*%
X20520200Y8513500D03*
X14951400Y25817000D03*
%TO.N,/LED_R_K*%
X18563900Y10205900D03*
X17693600Y13366900D03*
%TO.N,/MCU_EN*%
X12072500Y12240400D03*
X7688800Y27488800D03*
%TO.N,/PACK_P*%
X5476400Y18699700D03*
X5691600Y20771400D03*
D14*
X12350000Y15550000D03*
D13*
X13550000Y18614300D03*
%TO.N,/SCL_HOST*%
X11939700Y23667100D03*
X10436300Y9312700D03*
%TO.N,/SDA_HOST*%
X10734400Y12237000D03*
X13125200Y25447000D03*
%TO.N,/STRAP2*%
X1216300Y33733800D03*
X921300Y25098800D03*
X5263400Y29531600D03*
%TO.N,/STRAP8*%
X14320700Y23667700D03*
X14320700Y20064500D03*
%TO.N,/SYS*%
X2941500Y20431600D03*
D14*
X4600000Y21000000D03*
D13*
X10116200Y19283400D03*
%TO.N,/UART_RX*%
X19810400Y29344600D03*
%TO.N,/USB_DM*%
X19241300Y8234400D03*
D14*
X23450000Y8300000D03*
X20850000Y11750000D03*
D13*
%TO.N,/USB_DM_MCU*%
X20743600Y24701500D03*
X16647000Y25447000D03*
%TO.N,/USB_DP*%
X21490000Y8725800D03*
X22794000Y8479100D03*
X20782700Y14535700D03*
%TO.N,/USB_POWER_N*%
X12756300Y21343900D03*
X9092400Y23541400D03*
X11095100Y16612900D03*
%TO.N,/VBUS*%
X22500000Y10298900D03*
X9216700Y14200000D03*
D14*
X9100000Y21700000D03*
D13*
X17407500Y8273800D03*
D14*
X7050000Y15950000D03*
D13*
X10093500Y21713200D03*
%TO.N,GND*%
X7300000Y23300000D03*
D14*
X20400000Y10900000D03*
D13*
X16700000Y20500000D03*
X14475000Y28412500D03*
X12500000Y30387500D03*
D14*
X12400000Y16400000D03*
D13*
X10525000Y30387500D03*
X14475000Y30387500D03*
X18400000Y23700000D03*
X3700000Y23000000D03*
X12500000Y28412500D03*
D14*
X8000000Y19900000D03*
X3700000Y20900000D03*
D13*
X12300000Y17900000D03*
D14*
X8600000Y15950000D03*
D13*
X10525000Y28412500D03*
D14*
X3500000Y24000000D03*
%TD*%
D15*
%TO.N,/3V3_MAIN*%
X7688800Y26730700D02*
X9698900Y26730700D01*
X18680400Y14855800D02*
X15042000Y18494200D01*
X9698900Y26730700D02*
X13015000Y23414600D01*
X13015000Y23414600D02*
X13015000Y23341900D01*
X19045500Y10670200D02*
X18680400Y11035300D01*
X18680400Y11035300D02*
X18680400Y14855800D01*
D16*
%TO.N,/BOOT*%
X22000000Y23044400D02*
X19872700Y20917100D01*
X22000000Y28720000D02*
X22000000Y23044400D01*
%TO.N,/CC2*%
X21262100Y5271300D02*
X21508800Y5271300D01*
X18163800Y8369600D02*
X21262100Y5271300D01*
%TO.N,/CHG_ISET*%
X10180000Y21216500D02*
X11770200Y19626300D01*
X6577000Y21216500D02*
X10180000Y21216500D01*
X6434700Y21358800D02*
X6577000Y21216500D01*
%TO.N,/LED_B_K*%
X16126900Y12128200D02*
X14205900Y10207200D01*
X17613300Y12128200D02*
X16126900Y12128200D01*
X14151600Y7599200D02*
X11952400Y5400000D01*
X11952400Y5400000D02*
X11678800Y5400000D01*
%TO.N,/LED_G_K*%
X15650000Y3563800D02*
X18310900Y3563800D01*
X18310900Y3563800D02*
X19850000Y5102900D01*
%TO.N,/LED_R*%
X14951400Y25817000D02*
X14951400Y19404800D01*
X21451000Y9444300D02*
X20520200Y8513500D01*
X23018400Y10074400D02*
X22388300Y9444300D01*
X22388300Y9444300D02*
X21451000Y9444300D01*
X14951400Y19404800D02*
X23018400Y11337800D01*
X23018400Y11337800D02*
X23018400Y10074400D01*
%TO.N,/LED_R_K*%
X18129800Y12930700D02*
X18129800Y10640000D01*
X18129800Y10640000D02*
X18563900Y10205900D01*
X17693600Y13366900D02*
X18129800Y12930700D01*
%TO.N,/MCU_EN*%
X13824000Y27488800D02*
X7688800Y27488800D01*
X19498800Y27488800D02*
X13824000Y27488800D01*
X22000000Y29990000D02*
X19498800Y27488800D01*
X13824000Y27488800D02*
X13824000Y19858800D01*
X13824000Y19858800D02*
X14107700Y19575100D01*
X14107700Y19575100D02*
X14107700Y14275600D01*
X14107700Y14275600D02*
X12072500Y12240400D01*
D17*
%TO.N,/PACK_P*%
X9500000Y16900000D02*
X9450000Y16900000D01*
X9300000Y16950000D02*
X9250000Y17000000D01*
D15*
X13550000Y18614300D02*
X5561800Y18614300D01*
D17*
X9250000Y17000000D02*
X9200000Y17000000D01*
X9050000Y17100000D02*
X9000000Y17100000D01*
X8950000Y17150000D02*
X8900000Y17150000D01*
X9700000Y16850000D02*
X9550000Y16850000D01*
X7300000Y18700000D02*
X5476400Y18699700D01*
X8900000Y17150000D02*
X8850000Y17200000D01*
X9450000Y16900000D02*
X9400000Y16950000D01*
X9550000Y16850000D02*
X9500000Y16900000D01*
X12100000Y15700000D02*
X10850000Y15700000D01*
X8850000Y17200000D02*
X8800000Y17200000D01*
X9100000Y17050000D02*
X9050000Y17100000D01*
X10850000Y15700000D02*
X9700000Y16850000D01*
X12200000Y15650000D02*
X12150000Y15650000D01*
X9400000Y16950000D02*
X9300000Y16950000D01*
X9200000Y17000000D02*
X9150000Y17050000D01*
X12350000Y15550000D02*
X12300000Y15600000D01*
X12300000Y15600000D02*
X12250000Y15600000D01*
X8800000Y17200000D02*
X7300000Y18700000D01*
X9000000Y17100000D02*
X8950000Y17150000D01*
X12150000Y15650000D02*
X12100000Y15700000D01*
X9150000Y17050000D02*
X9100000Y17050000D01*
D15*
X5561800Y18614300D02*
X5476400Y18699700D01*
D17*
X12250000Y15600000D02*
X12200000Y15650000D01*
D16*
%TO.N,/STRAP2*%
X5263400Y29440900D02*
X5263400Y29531600D01*
X921300Y25098800D02*
X5263400Y29440900D01*
D17*
%TO.N,/SYS*%
X7700000Y19400000D02*
X7750000Y19400000D01*
D15*
X4089700Y19283400D02*
X2941500Y20431600D01*
D17*
X7800000Y19350000D02*
X10050000Y19350000D01*
D15*
X10116200Y19283400D02*
X4089700Y19283400D01*
D17*
X5250000Y20350000D02*
X5250000Y20300000D01*
X10050000Y19350000D02*
X10116200Y19283400D01*
X5500000Y20150000D02*
X6900000Y20150000D01*
X5400000Y20200000D02*
X5450000Y20200000D01*
X7600000Y19450000D02*
X7650000Y19450000D01*
X4600000Y21000000D02*
X5250000Y20350000D01*
X5250000Y20300000D02*
X5300000Y20300000D01*
X7650000Y19450000D02*
X7700000Y19400000D01*
X5300000Y20300000D02*
X5400000Y20200000D01*
X7750000Y19400000D02*
X7800000Y19350000D01*
X6900000Y20150000D02*
X7600000Y19450000D01*
X5450000Y20200000D02*
X5500000Y20150000D01*
D16*
%TO.N,/UART_RX*%
X22000000Y32530000D02*
X19810400Y30340400D01*
X19810400Y30340400D02*
X19810400Y29344600D01*
%TO.N,/USB_DM*%
X19241300Y8234400D02*
X19550000Y8250000D01*
X22950000Y7950000D02*
X23000000Y8000000D01*
X23050000Y8000000D02*
X23100000Y8050000D01*
X20300000Y7950000D02*
X22950000Y7950000D01*
X23400000Y8300000D02*
X23450000Y8300000D01*
X23000000Y8000000D02*
X23050000Y8000000D01*
X20000000Y8150000D02*
X20100000Y8050000D01*
X20200000Y8000000D02*
X20250000Y8000000D01*
X20150000Y8050000D02*
X20200000Y8000000D01*
X20100000Y8050000D02*
X20150000Y8050000D01*
X23100000Y8050000D02*
X23150000Y8050000D01*
X20250000Y8000000D02*
X20300000Y7950000D01*
X19650000Y8150000D02*
X20000000Y8150000D01*
X23150000Y8050000D02*
X23400000Y8300000D01*
X19550000Y8250000D02*
X19650000Y8150000D01*
%TO.N,/USB_DM_MCU*%
X17392500Y24701500D02*
X20743600Y24701500D01*
X16647000Y25447000D02*
X17392500Y24701500D01*
%TO.N,/USB_DP*%
X20782700Y14535700D02*
X23424000Y11894400D01*
X23424000Y9109100D02*
X22794000Y8479100D01*
X22794000Y8479100D02*
X21736700Y8479100D01*
X21736700Y8479100D02*
X21490000Y8725800D01*
X23424000Y11894400D02*
X23424000Y9109100D01*
%TO.N,/USB_POWER_N*%
X9092400Y23541400D02*
X11289900Y21343900D01*
X11289900Y21343900D02*
X12756300Y21343900D01*
D15*
%TO.N,/VBUS*%
X2324600Y20184200D02*
X2324600Y20651200D01*
X9594100Y14200000D02*
X9216700Y14200000D01*
X15142900Y8273800D02*
X11316100Y12100600D01*
X22500000Y10298900D02*
X19496900Y10298900D01*
X17922900Y8951300D02*
X17407500Y8435900D01*
X19496900Y10298900D02*
X18149300Y8951300D01*
X18149300Y8951300D02*
X17922900Y8951300D01*
X17407500Y8273800D02*
X15142900Y8273800D01*
X8308800Y14200000D02*
X2324600Y20184200D01*
X17407500Y8435900D02*
X17407500Y8273800D01*
X9831600Y21975100D02*
X10093500Y21713200D01*
X11316100Y12478000D02*
X9594100Y14200000D01*
X11316100Y12100600D02*
X11316100Y12478000D01*
X9216700Y14200000D02*
X8308800Y14200000D01*
X2324600Y20651200D02*
X3648500Y21975100D01*
X3648500Y21975100D02*
X9831600Y21975100D01*
%TD*%
%TA.AperFunction,Conductor*%
%TO.N,GND*%
G36*
X19897439Y14118643D02*
G01*
X22756226Y11259856D01*
X22777900Y11207530D01*
X22777900Y10729085D01*
X22756226Y10676759D01*
X22703900Y10655085D01*
X22666902Y10664998D01*
X22654593Y10672104D01*
X22654589Y10672106D01*
X22654587Y10672107D01*
X22654585Y10672108D01*
X22654582Y10672109D01*
X22552729Y10699400D01*
X22552727Y10699400D01*
X22447273Y10699400D01*
X22447271Y10699400D01*
X22345417Y10672109D01*
X22345408Y10672105D01*
X22279954Y10634314D01*
X22242954Y10624400D01*
X19520000Y10624400D01*
X19467674Y10646074D01*
X19446000Y10698400D01*
X19446000Y10722929D01*
X19445999Y10722930D01*
X19418708Y10824783D01*
X19418707Y10824787D01*
X19365980Y10916113D01*
X19291413Y10990680D01*
X19200087Y11043407D01*
X19127075Y11062971D01*
X19093905Y11082122D01*
X19027574Y11148453D01*
X19005900Y11200779D01*
X19005900Y11799438D01*
X20474500Y11799438D01*
X20474500Y11700563D01*
X20500088Y11605066D01*
X20500090Y11605061D01*
X20536680Y11541686D01*
X20549525Y11519438D01*
X20619438Y11449525D01*
X20705062Y11400090D01*
X20705063Y11400090D01*
X20705065Y11400089D01*
X20752813Y11387295D01*
X20800562Y11374501D01*
X20800563Y11374500D01*
X20800565Y11374500D01*
X20899437Y11374500D01*
X20899437Y11374501D01*
X20994938Y11400090D01*
X21080562Y11449525D01*
X21150475Y11519438D01*
X21199910Y11605062D01*
X21225499Y11700563D01*
X21225500Y11700563D01*
X21225500Y11799437D01*
X21225499Y11799438D01*
X21199911Y11894935D01*
X21199909Y11894940D01*
X21185486Y11919921D01*
X21150475Y11980562D01*
X21080562Y12050475D01*
X21025244Y12082413D01*
X20994939Y12099910D01*
X20994934Y12099912D01*
X20899437Y12125500D01*
X20899435Y12125500D01*
X20800565Y12125500D01*
X20800563Y12125500D01*
X20705065Y12099912D01*
X20705060Y12099910D01*
X20619437Y12050475D01*
X20549525Y11980563D01*
X20500090Y11894940D01*
X20500088Y11894935D01*
X20474500Y11799438D01*
X19005900Y11799438D01*
X19005900Y13837355D01*
X19027574Y13889681D01*
X19079900Y13911355D01*
X19132226Y13889681D01*
X19143487Y13878420D01*
X19234813Y13825693D01*
X19336670Y13798401D01*
X19336671Y13798400D01*
X19336673Y13798400D01*
X19442129Y13798400D01*
X19442129Y13798401D01*
X19543987Y13825693D01*
X19635313Y13878420D01*
X19709880Y13952987D01*
X19762607Y14044313D01*
X19773635Y14085472D01*
X19808113Y14130403D01*
X19864266Y14137796D01*
X19897439Y14118643D01*
G37*
%TD.AperFunction*%
%TA.AperFunction,Conductor*%
G36*
X5087688Y18936226D02*
G01*
X5109362Y18883900D01*
X5104406Y18858983D01*
X5104448Y18858971D01*
X5104278Y18858337D01*
X5103731Y18855586D01*
X5103192Y18854287D01*
X5075900Y18752430D01*
X5075900Y18646971D01*
X5103191Y18545118D01*
X5103192Y18545115D01*
X5103193Y18545113D01*
X5155920Y18453787D01*
X5230487Y18379220D01*
X5321813Y18326493D01*
X5423670Y18299201D01*
X5423671Y18299200D01*
X5423673Y18299200D01*
X5470390Y18299200D01*
X5489541Y18296680D01*
X5518947Y18288800D01*
X5604653Y18288800D01*
X7290933Y18288800D01*
X7343258Y18267127D01*
X8643941Y16966443D01*
X8672050Y16954800D01*
X8715698Y16936721D01*
X8715702Y16936717D01*
X8739704Y16920680D01*
X8743942Y16916442D01*
X8815700Y16886720D01*
X8839703Y16870681D01*
X8843942Y16866442D01*
X8915728Y16836708D01*
X8920471Y16834543D01*
X8931211Y16829173D01*
X8943942Y16816442D01*
X9018135Y16785711D01*
X9020471Y16784543D01*
X9022556Y16782138D01*
X9039703Y16770681D01*
X9043942Y16766442D01*
X9115700Y16736720D01*
X9139703Y16720681D01*
X9143942Y16716442D01*
X9245200Y16674500D01*
X9259769Y16674500D01*
X9288087Y16668867D01*
X9310654Y16659520D01*
X9365696Y16636721D01*
X9389703Y16620681D01*
X9393942Y16616442D01*
X9495200Y16574500D01*
X9555233Y16574500D01*
X9607558Y16552827D01*
X10693942Y15466442D01*
X10795200Y15424500D01*
X10904800Y15424500D01*
X11946143Y15424500D01*
X11998469Y15402826D01*
X12010229Y15387500D01*
X12049525Y15319438D01*
X12119438Y15249525D01*
X12205062Y15200090D01*
X12205063Y15200090D01*
X12205065Y15200089D01*
X12252813Y15187295D01*
X12300562Y15174501D01*
X12300563Y15174500D01*
X12300565Y15174500D01*
X12399437Y15174500D01*
X12399437Y15174501D01*
X12494938Y15200090D01*
X12580562Y15249525D01*
X12650475Y15319438D01*
X12699910Y15405062D01*
X12725499Y15500563D01*
X12725500Y15500563D01*
X12725500Y15599437D01*
X12725499Y15599438D01*
X12699911Y15694935D01*
X12699909Y15694940D01*
X12650474Y15780563D01*
X12580562Y15850475D01*
X12494939Y15899910D01*
X12494934Y15899912D01*
X12399437Y15925500D01*
X12399435Y15925500D01*
X12300565Y15925500D01*
X12295715Y15925500D01*
X12295715Y15926812D01*
X12264195Y15934159D01*
X12262791Y15930768D01*
X12256058Y15933557D01*
X12154800Y15975500D01*
X12154799Y15975500D01*
X10994768Y15975500D01*
X10942442Y15997174D01*
X10938412Y16001204D01*
X10768724Y16170892D01*
X10747051Y16223216D01*
X10768725Y16275542D01*
X10821051Y16297216D01*
X10858051Y16287302D01*
X10918490Y16252408D01*
X10940513Y16239693D01*
X11042370Y16212401D01*
X11042371Y16212400D01*
X11042373Y16212400D01*
X11147829Y16212400D01*
X11147829Y16212401D01*
X11249687Y16239693D01*
X11341013Y16292420D01*
X11415580Y16366987D01*
X11468307Y16458313D01*
X11495599Y16560171D01*
X11495600Y16560171D01*
X11495600Y16665629D01*
X11495599Y16665630D01*
X11495381Y16666442D01*
X11468307Y16767487D01*
X11415580Y16858813D01*
X11341013Y16933380D01*
X11335226Y16936721D01*
X11249691Y16986105D01*
X11249682Y16986109D01*
X11147829Y17013400D01*
X11147827Y17013400D01*
X11042373Y17013400D01*
X11042371Y17013400D01*
X10940517Y16986109D01*
X10940508Y16986105D01*
X10849186Y16933380D01*
X10774620Y16858814D01*
X10721895Y16767492D01*
X10721891Y16767483D01*
X10694600Y16665630D01*
X10694600Y16560171D01*
X10721891Y16458318D01*
X10721895Y16458309D01*
X10769502Y16375852D01*
X10776895Y16319700D01*
X10742416Y16274766D01*
X10686264Y16267373D01*
X10653090Y16286526D01*
X9856059Y17083556D01*
X9856057Y17083558D01*
X9796742Y17108127D01*
X9754800Y17125500D01*
X9754799Y17125500D01*
X9690230Y17125500D01*
X9661911Y17131133D01*
X9584299Y17163282D01*
X9560292Y17179323D01*
X9556058Y17183557D01*
X9454800Y17225500D01*
X9454799Y17225500D01*
X9440230Y17225500D01*
X9411911Y17231133D01*
X9334299Y17263282D01*
X9310292Y17279323D01*
X9306058Y17283557D01*
X9234298Y17313282D01*
X9210292Y17329323D01*
X9206058Y17333557D01*
X9134298Y17363282D01*
X9110292Y17379323D01*
X9106058Y17383557D01*
X9034298Y17413282D01*
X9029524Y17415461D01*
X9018785Y17420831D01*
X9006058Y17433557D01*
X8931871Y17464287D01*
X8929527Y17465459D01*
X8927440Y17467865D01*
X8910295Y17479321D01*
X8227141Y18162474D01*
X8205467Y18214800D01*
X8227141Y18267126D01*
X8279467Y18288800D01*
X13292954Y18288800D01*
X13329953Y18278887D01*
X13395413Y18241093D01*
X13497270Y18213801D01*
X13497271Y18213800D01*
X13497273Y18213800D01*
X13602729Y18213800D01*
X13602729Y18213801D01*
X13704587Y18241093D01*
X13756200Y18270893D01*
X13812352Y18278285D01*
X13857286Y18243806D01*
X13867200Y18206806D01*
X13867200Y14405872D01*
X13845526Y14353546D01*
X12154554Y12662574D01*
X12102228Y12640900D01*
X12019771Y12640900D01*
X11917917Y12613609D01*
X11917908Y12613605D01*
X11826586Y12560880D01*
X11762865Y12497159D01*
X11748242Y12491103D01*
X11736707Y12480266D01*
X11723107Y12480692D01*
X11710538Y12475485D01*
X11695916Y12481542D01*
X11680098Y12482036D01*
X11672155Y12491384D01*
X11658213Y12497159D01*
X11641320Y12523317D01*
X11640017Y12526762D01*
X11619418Y12603639D01*
X11597905Y12640900D01*
X11576565Y12677862D01*
X11515962Y12738465D01*
X11513383Y12741044D01*
X11513372Y12741054D01*
X10732934Y13521492D01*
X9793962Y14460465D01*
X9793959Y14460467D01*
X9793958Y14460468D01*
X9719743Y14503316D01*
X9719741Y14503317D01*
X9719740Y14503318D01*
X9719739Y14503318D01*
X9636953Y14525500D01*
X9636951Y14525500D01*
X9473746Y14525500D01*
X9436746Y14535414D01*
X9416377Y14547174D01*
X9407328Y14552399D01*
X9371291Y14573205D01*
X9371282Y14573209D01*
X9269429Y14600500D01*
X9269427Y14600500D01*
X9163973Y14600500D01*
X9163971Y14600500D01*
X9062117Y14573209D01*
X9062108Y14573205D01*
X8996654Y14535414D01*
X8959654Y14525500D01*
X8474278Y14525500D01*
X8421952Y14547174D01*
X7352407Y15616719D01*
X7330733Y15669045D01*
X7349412Y15714143D01*
X7347524Y15715592D01*
X7350475Y15719438D01*
X7385765Y15780562D01*
X7399910Y15805062D01*
X7425499Y15900563D01*
X7425500Y15900563D01*
X7425500Y15999437D01*
X7425499Y15999438D01*
X7399911Y16094935D01*
X7399909Y16094940D01*
X7350474Y16180563D01*
X7280562Y16250475D01*
X7194939Y16299910D01*
X7194934Y16299912D01*
X7099437Y16325500D01*
X7099435Y16325500D01*
X7000565Y16325500D01*
X7000563Y16325500D01*
X6905065Y16299912D01*
X6905060Y16299910D01*
X6819435Y16250474D01*
X6815589Y16247522D01*
X6814142Y16249408D01*
X6769019Y16230734D01*
X6716718Y16252408D01*
X4137553Y18831574D01*
X4115879Y18883900D01*
X4137553Y18936226D01*
X4189879Y18957900D01*
X5035362Y18957900D01*
X5087688Y18936226D01*
G37*
%TD.AperFunction*%
%TA.AperFunction,Conductor*%
G36*
X24727826Y34727826D02*
G01*
X24749500Y34675500D01*
X24749500Y30874000D01*
X24727826Y30821674D01*
X24675500Y30800000D01*
X23900000Y30800000D01*
X23900000Y29000000D01*
X24675500Y29000000D01*
X24727826Y28978326D01*
X24749500Y28926000D01*
X24749500Y324500D01*
X24727826Y272174D01*
X24675500Y250500D01*
X324500Y250500D01*
X272174Y272174D01*
X250500Y324500D01*
X250500Y2219030D01*
X14133200Y2219030D01*
X14133200Y2113571D01*
X14160491Y2011718D01*
X14160492Y2011715D01*
X14160493Y2011713D01*
X14213220Y1920387D01*
X14287787Y1845820D01*
X14379113Y1793093D01*
X14480970Y1765801D01*
X14480971Y1765800D01*
X14480973Y1765800D01*
X14586429Y1765800D01*
X14586429Y1765801D01*
X14688287Y1793093D01*
X14779613Y1845820D01*
X14854180Y1920387D01*
X14906907Y2011713D01*
X14934199Y2113571D01*
X14934200Y2113571D01*
X14934200Y2219029D01*
X14934199Y2219030D01*
X14906908Y2320883D01*
X14906907Y2320887D01*
X14854180Y2412213D01*
X14779613Y2486780D01*
X14688291Y2539505D01*
X14688282Y2539509D01*
X14586429Y2566800D01*
X14586427Y2566800D01*
X14480973Y2566800D01*
X14480971Y2566800D01*
X14379117Y2539509D01*
X14379108Y2539505D01*
X14287786Y2486780D01*
X14213220Y2412214D01*
X14160495Y2320892D01*
X14160491Y2320883D01*
X14133200Y2219030D01*
X250500Y2219030D01*
X250500Y3616530D01*
X15249500Y3616530D01*
X15249500Y3511071D01*
X15276791Y3409218D01*
X15276792Y3409215D01*
X15276793Y3409213D01*
X15329520Y3317887D01*
X15404087Y3243320D01*
X15495413Y3190593D01*
X15597270Y3163301D01*
X15597271Y3163300D01*
X15597273Y3163300D01*
X15702729Y3163300D01*
X15702729Y3163301D01*
X15804587Y3190593D01*
X15895913Y3243320D01*
X15954219Y3301626D01*
X16006545Y3323300D01*
X18358738Y3323300D01*
X18358739Y3323300D01*
X18447133Y3359914D01*
X19767944Y4680727D01*
X19820270Y4702400D01*
X19902729Y4702400D01*
X19902729Y4702401D01*
X20004587Y4729693D01*
X20095913Y4782420D01*
X20170480Y4856987D01*
X20223207Y4948313D01*
X20250499Y5050171D01*
X20250500Y5050171D01*
X20250500Y5155629D01*
X20250499Y5155630D01*
X20223208Y5257483D01*
X20223207Y5257487D01*
X20170480Y5348813D01*
X20095913Y5423380D01*
X20091562Y5425892D01*
X20004591Y5476105D01*
X20004582Y5476109D01*
X19902729Y5503400D01*
X19902727Y5503400D01*
X19797273Y5503400D01*
X19797271Y5503400D01*
X19695417Y5476109D01*
X19695408Y5476105D01*
X19604086Y5423380D01*
X19529520Y5348814D01*
X19476795Y5257492D01*
X19476791Y5257483D01*
X19449500Y5155630D01*
X19449500Y5073172D01*
X19427826Y5020846D01*
X18232955Y3825974D01*
X18180629Y3804300D01*
X16006545Y3804300D01*
X15954219Y3825974D01*
X15895913Y3884280D01*
X15804591Y3937005D01*
X15804582Y3937009D01*
X15702729Y3964300D01*
X15702727Y3964300D01*
X15597273Y3964300D01*
X15597271Y3964300D01*
X15495417Y3937009D01*
X15495408Y3937005D01*
X15404086Y3884280D01*
X15329520Y3809714D01*
X15276795Y3718392D01*
X15276791Y3718383D01*
X15249500Y3616530D01*
X250500Y3616530D01*
X250500Y5452730D01*
X11278300Y5452730D01*
X11278300Y5347271D01*
X11305591Y5245418D01*
X11305595Y5245409D01*
X11334056Y5196114D01*
X11358320Y5154087D01*
X11432887Y5079520D01*
X11524213Y5026793D01*
X11626070Y4999501D01*
X11626071Y4999500D01*
X11626073Y4999500D01*
X11731529Y4999500D01*
X11731529Y4999501D01*
X11833387Y5026793D01*
X11924713Y5079520D01*
X11997438Y5152246D01*
X12021437Y5168282D01*
X12088633Y5196114D01*
X12568287Y5675769D01*
X16414500Y5675769D01*
X16414500Y5524232D01*
X16453717Y5377870D01*
X16453721Y5377861D01*
X16523222Y5257483D01*
X16529485Y5246635D01*
X16636635Y5139485D01*
X16767865Y5063719D01*
X16914231Y5024501D01*
X16914232Y5024500D01*
X16914234Y5024500D01*
X17065768Y5024500D01*
X17065768Y5024501D01*
X17212135Y5063719D01*
X17343365Y5139485D01*
X17450515Y5246635D01*
X17526281Y5377865D01*
X17565499Y5524232D01*
X17565500Y5524232D01*
X17565500Y5675768D01*
X17565499Y5675769D01*
X17539391Y5773205D01*
X17526281Y5822135D01*
X17450515Y5953365D01*
X17343365Y6060515D01*
X17343362Y6060517D01*
X17212139Y6136279D01*
X17212130Y6136283D01*
X17065768Y6175500D01*
X17065766Y6175500D01*
X16914234Y6175500D01*
X16914232Y6175500D01*
X16767869Y6136283D01*
X16767860Y6136279D01*
X16636637Y6060517D01*
X16529483Y5953363D01*
X16453721Y5822140D01*
X16453717Y5822131D01*
X16414500Y5675769D01*
X12568287Y5675769D01*
X14069543Y7177027D01*
X14121869Y7198700D01*
X14204329Y7198700D01*
X14204329Y7198701D01*
X14306187Y7225993D01*
X14397513Y7278720D01*
X14472080Y7353287D01*
X14524807Y7444613D01*
X14552099Y7546471D01*
X14552100Y7546471D01*
X14552100Y7651929D01*
X14552099Y7651930D01*
X14537189Y7707574D01*
X14524807Y7753787D01*
X14472080Y7845113D01*
X14397513Y7919680D01*
X14354588Y7944463D01*
X14306191Y7972405D01*
X14306182Y7972409D01*
X14204329Y7999700D01*
X14204327Y7999700D01*
X14098873Y7999700D01*
X14098871Y7999700D01*
X13997017Y7972409D01*
X13997008Y7972405D01*
X13905686Y7919680D01*
X13831120Y7845114D01*
X13778395Y7753792D01*
X13778391Y7753783D01*
X13751100Y7651930D01*
X13751100Y7569471D01*
X13729426Y7517145D01*
X11969966Y5757686D01*
X11917640Y5736012D01*
X11880640Y5745926D01*
X11833391Y5773205D01*
X11833382Y5773209D01*
X11731529Y5800500D01*
X11731527Y5800500D01*
X11626073Y5800500D01*
X11626071Y5800500D01*
X11524217Y5773209D01*
X11524208Y5773205D01*
X11432886Y5720480D01*
X11358320Y5645914D01*
X11305595Y5554592D01*
X11305591Y5554583D01*
X11278300Y5452730D01*
X250500Y5452730D01*
X250500Y7199130D01*
X9915800Y7199130D01*
X9915800Y7093671D01*
X9943091Y6991818D01*
X9943092Y6991815D01*
X9943093Y6991813D01*
X9995820Y6900487D01*
X10070387Y6825920D01*
X10161713Y6773193D01*
X10263570Y6745901D01*
X10263571Y6745900D01*
X10263573Y6745900D01*
X10369029Y6745900D01*
X10369029Y6745901D01*
X10470887Y6773193D01*
X10562213Y6825920D01*
X10636780Y6900487D01*
X10689507Y6991813D01*
X10716799Y7093671D01*
X10716800Y7093671D01*
X10716800Y7199129D01*
X10716799Y7199130D01*
X10709601Y7225992D01*
X10689507Y7300987D01*
X10636780Y7392313D01*
X10562213Y7466880D01*
X10470891Y7519605D01*
X10470882Y7519609D01*
X10369029Y7546900D01*
X10369027Y7546900D01*
X10263573Y7546900D01*
X10263571Y7546900D01*
X10161717Y7519609D01*
X10161708Y7519605D01*
X10070386Y7466880D01*
X9995820Y7392314D01*
X9943095Y7300992D01*
X9943091Y7300983D01*
X9915800Y7199130D01*
X250500Y7199130D01*
X250500Y9365430D01*
X10035800Y9365430D01*
X10035800Y9259971D01*
X10063091Y9158118D01*
X10063092Y9158115D01*
X10063093Y9158113D01*
X10115820Y9066787D01*
X10190387Y8992220D01*
X10281713Y8939493D01*
X10383570Y8912201D01*
X10383571Y8912200D01*
X10383573Y8912200D01*
X10489029Y8912200D01*
X10489029Y8912201D01*
X10590887Y8939493D01*
X10682213Y8992220D01*
X10756780Y9066787D01*
X10809507Y9158113D01*
X10836799Y9259971D01*
X10836800Y9259971D01*
X10836800Y9365429D01*
X10836799Y9365430D01*
X10809508Y9467283D01*
X10809507Y9467287D01*
X10756780Y9558613D01*
X10682213Y9633180D01*
X10656218Y9648188D01*
X10590891Y9685905D01*
X10590882Y9685909D01*
X10489029Y9713200D01*
X10489027Y9713200D01*
X10383573Y9713200D01*
X10383571Y9713200D01*
X10281717Y9685909D01*
X10281708Y9685905D01*
X10190386Y9633180D01*
X10115820Y9558614D01*
X10063095Y9467292D01*
X10063091Y9467283D01*
X10035800Y9365430D01*
X250500Y9365430D01*
X250500Y20694053D01*
X1999100Y20694053D01*
X1999100Y20227053D01*
X1999100Y20141347D01*
X2021282Y20058561D01*
X2021283Y20058559D01*
X2021284Y20058557D01*
X2064132Y19984342D01*
X2064133Y19984341D01*
X2064135Y19984338D01*
X5062365Y16986109D01*
X8045746Y14002728D01*
X8045751Y14002722D01*
X8048335Y14000138D01*
X8108938Y13939535D01*
X8146048Y13918110D01*
X8146050Y13918108D01*
X8146050Y13918109D01*
X8183161Y13896682D01*
X8265947Y13874500D01*
X8959654Y13874500D01*
X8996653Y13864587D01*
X9062113Y13826793D01*
X9163970Y13799501D01*
X9163971Y13799500D01*
X9163973Y13799500D01*
X9269429Y13799500D01*
X9269429Y13799501D01*
X9371287Y13826793D01*
X9408138Y13848070D01*
X9464290Y13855462D01*
X9497464Y13836309D01*
X10603151Y12730623D01*
X10624825Y12678297D01*
X10603151Y12625971D01*
X10583783Y12613030D01*
X10584013Y12612632D01*
X10488486Y12557480D01*
X10413920Y12482914D01*
X10361195Y12391592D01*
X10361191Y12391583D01*
X10333900Y12289730D01*
X10333900Y12184271D01*
X10361191Y12082418D01*
X10361192Y12082415D01*
X10361193Y12082413D01*
X10413920Y11991087D01*
X10488487Y11916520D01*
X10579813Y11863793D01*
X10681670Y11836501D01*
X10681671Y11836500D01*
X10681673Y11836500D01*
X10787129Y11836500D01*
X10787129Y11836501D01*
X10888987Y11863793D01*
X10968887Y11909924D01*
X11025037Y11917316D01*
X11058208Y11898165D01*
X14882434Y8073939D01*
X14882435Y8073938D01*
X14943038Y8013335D01*
X15017262Y7970482D01*
X15100044Y7948301D01*
X15100045Y7948300D01*
X15100047Y7948300D01*
X17150454Y7948300D01*
X17187453Y7938387D01*
X17252913Y7900593D01*
X17354770Y7873301D01*
X17354771Y7873300D01*
X17354773Y7873300D01*
X17460229Y7873300D01*
X17460229Y7873301D01*
X17562087Y7900593D01*
X17653413Y7953320D01*
X17727980Y8027887D01*
X17757044Y8078230D01*
X17801974Y8112705D01*
X17858127Y8105314D01*
X17873454Y8093553D01*
X17917887Y8049120D01*
X18009213Y7996393D01*
X18111070Y7969101D01*
X18111071Y7969100D01*
X18193529Y7969100D01*
X18245855Y7947426D01*
X21125867Y5067414D01*
X21152851Y5056237D01*
X21184447Y5028530D01*
X21185367Y5029235D01*
X21188319Y5025388D01*
X21188320Y5025387D01*
X21262887Y4950820D01*
X21354213Y4898093D01*
X21456070Y4870801D01*
X21456071Y4870800D01*
X21456073Y4870800D01*
X21561529Y4870800D01*
X21561529Y4870801D01*
X21663387Y4898093D01*
X21754713Y4950820D01*
X21829280Y5025387D01*
X21882007Y5116713D01*
X21909299Y5218571D01*
X21909300Y5218571D01*
X21909300Y5324029D01*
X21909299Y5324030D01*
X21882008Y5425883D01*
X21882007Y5425887D01*
X21829280Y5517213D01*
X21754713Y5591780D01*
X21693587Y5627071D01*
X21663391Y5644505D01*
X21663382Y5644509D01*
X21561529Y5671800D01*
X21561527Y5671800D01*
X21456073Y5671800D01*
X21456071Y5671800D01*
X21354217Y5644509D01*
X21354210Y5644506D01*
X21324011Y5627071D01*
X21267858Y5619680D01*
X21234687Y5638832D01*
X21197750Y5675769D01*
X22194500Y5675769D01*
X22194500Y5524232D01*
X22233717Y5377870D01*
X22233721Y5377861D01*
X22303222Y5257483D01*
X22309485Y5246635D01*
X22416635Y5139485D01*
X22547865Y5063719D01*
X22694231Y5024501D01*
X22694232Y5024500D01*
X22694234Y5024500D01*
X22845768Y5024500D01*
X22845768Y5024501D01*
X22992135Y5063719D01*
X23123365Y5139485D01*
X23230515Y5246635D01*
X23306281Y5377865D01*
X23345499Y5524232D01*
X23345500Y5524232D01*
X23345500Y5675768D01*
X23345499Y5675769D01*
X23319391Y5773205D01*
X23306281Y5822135D01*
X23230515Y5953365D01*
X23123365Y6060515D01*
X23123362Y6060517D01*
X22992139Y6136279D01*
X22992130Y6136283D01*
X22845768Y6175500D01*
X22845766Y6175500D01*
X22694234Y6175500D01*
X22694232Y6175500D01*
X22547869Y6136283D01*
X22547860Y6136279D01*
X22416637Y6060517D01*
X22309483Y5953363D01*
X22233721Y5822140D01*
X22233717Y5822131D01*
X22194500Y5675769D01*
X21197750Y5675769D01*
X19165945Y7707574D01*
X19144271Y7759900D01*
X19165945Y7812226D01*
X19218271Y7833900D01*
X19294029Y7833900D01*
X19294029Y7833901D01*
X19395887Y7861193D01*
X19487213Y7913920D01*
X19487219Y7913927D01*
X19489866Y7915957D01*
X19544572Y7930623D01*
X19563236Y7925624D01*
X19602162Y7909500D01*
X19869729Y7909500D01*
X19915607Y7893562D01*
X19919000Y7890881D01*
X19963767Y7846114D01*
X19979255Y7839699D01*
X20035523Y7816393D01*
X20059530Y7800352D01*
X20063768Y7796114D01*
X20135523Y7766393D01*
X20159530Y7750352D01*
X20163768Y7746114D01*
X20252162Y7709500D01*
X20252163Y7709500D01*
X22997838Y7709500D01*
X22997839Y7709500D01*
X23086233Y7746114D01*
X23090471Y7750352D01*
X23109702Y7764214D01*
X23112037Y7765382D01*
X23186233Y7796114D01*
X23198962Y7808845D01*
X23209702Y7814214D01*
X23211397Y7814335D01*
X23214476Y7816393D01*
X23286233Y7846114D01*
X23342995Y7902878D01*
X23395320Y7924552D01*
X23396110Y7924500D01*
X23400565Y7924500D01*
X23499437Y7924500D01*
X23499437Y7924501D01*
X23594938Y7950090D01*
X23680562Y7999525D01*
X23750475Y8069438D01*
X23799910Y8155062D01*
X23825499Y8250563D01*
X23825500Y8250563D01*
X23825500Y8349437D01*
X23825499Y8349438D01*
X23799911Y8444935D01*
X23799909Y8444940D01*
X23766078Y8503536D01*
X23750475Y8530562D01*
X23680562Y8600475D01*
X23674164Y8604169D01*
X23594939Y8649910D01*
X23594934Y8649912D01*
X23499438Y8675500D01*
X23498942Y8675565D01*
X23498723Y8675692D01*
X23494750Y8676756D01*
X23495035Y8677821D01*
X23449893Y8703883D01*
X23435234Y8758591D01*
X23456274Y8801257D01*
X23627886Y8972868D01*
X23664500Y9061262D01*
X23664500Y9156939D01*
X23664500Y11942238D01*
X23650946Y11974962D01*
X23627886Y12030633D01*
X21204874Y14453645D01*
X21183200Y14505971D01*
X21183200Y14588429D01*
X21183199Y14588430D01*
X21155908Y14690283D01*
X21155907Y14690287D01*
X21103180Y14781613D01*
X21028613Y14856180D01*
X21023500Y14859132D01*
X20937291Y14908905D01*
X20937282Y14908909D01*
X20835429Y14936200D01*
X20835427Y14936200D01*
X20729973Y14936200D01*
X20729971Y14936200D01*
X20628117Y14908909D01*
X20628108Y14908905D01*
X20536786Y14856180D01*
X20462220Y14781614D01*
X20409495Y14690292D01*
X20409491Y14690283D01*
X20382200Y14588430D01*
X20382200Y14492771D01*
X20360526Y14440445D01*
X20308200Y14418771D01*
X20255874Y14440445D01*
X15213574Y19482745D01*
X15191900Y19535071D01*
X15191900Y25200081D01*
X15213574Y25252407D01*
X15265900Y25274081D01*
X15318226Y25252407D01*
X15326471Y25241660D01*
X15326568Y25241734D01*
X15329518Y25237889D01*
X15329520Y25237887D01*
X15404087Y25163320D01*
X15495413Y25110593D01*
X15597270Y25083301D01*
X15597271Y25083300D01*
X15597273Y25083300D01*
X15702729Y25083300D01*
X15702729Y25083301D01*
X15804587Y25110593D01*
X15895913Y25163320D01*
X15970480Y25237887D01*
X16023207Y25329213D01*
X16050499Y25431071D01*
X16050500Y25431071D01*
X16050500Y25499730D01*
X16246500Y25499730D01*
X16246500Y25394271D01*
X16273791Y25292418D01*
X16273795Y25292409D01*
X16306880Y25235104D01*
X16326520Y25201087D01*
X16401087Y25126520D01*
X16492413Y25073793D01*
X16594270Y25046501D01*
X16594271Y25046500D01*
X16676729Y25046500D01*
X16729055Y25024826D01*
X17256267Y24497614D01*
X17344661Y24461000D01*
X17344662Y24461000D01*
X20387055Y24461000D01*
X20439381Y24439326D01*
X20497687Y24381020D01*
X20589013Y24328293D01*
X20690870Y24301001D01*
X20690871Y24301000D01*
X20690873Y24301000D01*
X20796329Y24301000D01*
X20796329Y24301001D01*
X20898187Y24328293D01*
X20989513Y24381020D01*
X21064080Y24455587D01*
X21116807Y24546913D01*
X21144099Y24648771D01*
X21144100Y24648771D01*
X21144100Y24754229D01*
X21144099Y24754230D01*
X21116808Y24856083D01*
X21116807Y24856087D01*
X21064080Y24947413D01*
X20989513Y25021980D01*
X20947043Y25046500D01*
X20898191Y25074705D01*
X20898182Y25074709D01*
X20796329Y25102000D01*
X20796327Y25102000D01*
X20690873Y25102000D01*
X20690871Y25102000D01*
X20589017Y25074709D01*
X20589008Y25074705D01*
X20497686Y25021980D01*
X20439381Y24963674D01*
X20387055Y24942000D01*
X17522771Y24942000D01*
X17470445Y24963674D01*
X17069174Y25364945D01*
X17047500Y25417271D01*
X17047500Y25499729D01*
X17047499Y25499730D01*
X17037639Y25536527D01*
X17020207Y25601587D01*
X16967480Y25692913D01*
X16892913Y25767480D01*
X16801591Y25820205D01*
X16801582Y25820209D01*
X16699729Y25847500D01*
X16699727Y25847500D01*
X16594273Y25847500D01*
X16594271Y25847500D01*
X16492417Y25820209D01*
X16492408Y25820205D01*
X16401086Y25767480D01*
X16326520Y25692914D01*
X16273795Y25601592D01*
X16273791Y25601583D01*
X16246500Y25499730D01*
X16050500Y25499730D01*
X16050500Y25536529D01*
X16050499Y25536530D01*
X16046041Y25553166D01*
X16023207Y25638387D01*
X15970480Y25729713D01*
X15895913Y25804280D01*
X15821054Y25847500D01*
X15804591Y25857005D01*
X15804582Y25857009D01*
X15702729Y25884300D01*
X15702727Y25884300D01*
X15597273Y25884300D01*
X15597271Y25884300D01*
X15495417Y25857009D01*
X15495410Y25857006D01*
X15457596Y25835174D01*
X15401443Y25827783D01*
X15356510Y25862262D01*
X15349119Y25880108D01*
X15324608Y25971583D01*
X15324607Y25971587D01*
X15271880Y26062913D01*
X15197313Y26137480D01*
X15105991Y26190205D01*
X15105982Y26190209D01*
X15004129Y26217500D01*
X15004127Y26217500D01*
X14898673Y26217500D01*
X14898671Y26217500D01*
X14796817Y26190209D01*
X14796808Y26190205D01*
X14705486Y26137480D01*
X14630920Y26062914D01*
X14578195Y25971592D01*
X14578191Y25971583D01*
X14550900Y25869730D01*
X14550900Y25764271D01*
X14578191Y25662418D01*
X14578195Y25662409D01*
X14630920Y25571087D01*
X14689226Y25512781D01*
X14710900Y25460455D01*
X14710900Y24022545D01*
X14689226Y23970219D01*
X14636900Y23948545D01*
X14584574Y23970219D01*
X14566613Y23988180D01*
X14475291Y24040905D01*
X14475282Y24040909D01*
X14373429Y24068200D01*
X14373427Y24068200D01*
X14267973Y24068200D01*
X14267971Y24068200D01*
X14161429Y24039652D01*
X14161015Y24041195D01*
X14110165Y24041207D01*
X14070126Y24081265D01*
X14064500Y24109567D01*
X14064500Y27174300D01*
X14086174Y27226626D01*
X14138500Y27248300D01*
X19546638Y27248300D01*
X19546639Y27248300D01*
X19635033Y27284914D01*
X21230469Y28880351D01*
X21282793Y28902024D01*
X21335119Y28880350D01*
X21356793Y28828024D01*
X21355371Y28813589D01*
X21349500Y28784070D01*
X21349500Y28655933D01*
X21374497Y28530261D01*
X21374498Y28530258D01*
X21374499Y28530256D01*
X21423535Y28411873D01*
X21494724Y28305331D01*
X21585331Y28214724D01*
X21691873Y28143535D01*
X21691878Y28143533D01*
X21691877Y28143533D01*
X21713818Y28134445D01*
X21753867Y28094397D01*
X21759500Y28066078D01*
X21759500Y23174672D01*
X21737826Y23122346D01*
X19954754Y21339274D01*
X19902428Y21317600D01*
X19819971Y21317600D01*
X19718117Y21290309D01*
X19718108Y21290305D01*
X19626786Y21237580D01*
X19552220Y21163014D01*
X19499495Y21071692D01*
X19499491Y21071683D01*
X19472200Y20969830D01*
X19472200Y20864371D01*
X19499491Y20762518D01*
X19499495Y20762509D01*
X19502618Y20757100D01*
X19552220Y20671187D01*
X19626787Y20596620D01*
X19718113Y20543893D01*
X19819970Y20516601D01*
X19819971Y20516600D01*
X19819973Y20516600D01*
X19925429Y20516600D01*
X19925429Y20516601D01*
X20027287Y20543893D01*
X20118613Y20596620D01*
X20193180Y20671187D01*
X20245907Y20762513D01*
X20273199Y20864371D01*
X20273200Y20864371D01*
X20273200Y20946830D01*
X20294874Y20999156D01*
X22203885Y22908167D01*
X22203886Y22908168D01*
X22240500Y22996562D01*
X22240500Y23092239D01*
X22240500Y28066078D01*
X22262174Y28118404D01*
X22286182Y28134445D01*
X22308122Y28143533D01*
X22308121Y28143533D01*
X22308127Y28143535D01*
X22414669Y28214724D01*
X22505276Y28305331D01*
X22576465Y28411873D01*
X22625501Y28530256D01*
X22650500Y28655931D01*
X22650500Y28784069D01*
X22625501Y28909744D01*
X22576465Y29028127D01*
X22505276Y29134669D01*
X22414669Y29225276D01*
X22312604Y29293474D01*
X22281140Y29340563D01*
X22292189Y29396112D01*
X22312602Y29416526D01*
X22414669Y29484724D01*
X22505276Y29575331D01*
X22576465Y29681873D01*
X22625501Y29800256D01*
X22650500Y29925931D01*
X22650500Y30054069D01*
X22625501Y30179744D01*
X22576465Y30298127D01*
X22505276Y30404669D01*
X22414669Y30495276D01*
X22312604Y30563474D01*
X22281140Y30610563D01*
X22292189Y30666112D01*
X22312602Y30686526D01*
X22414669Y30754724D01*
X22505276Y30845331D01*
X22576465Y30951873D01*
X22625501Y31070256D01*
X22650500Y31195931D01*
X22650500Y31324069D01*
X22625501Y31449744D01*
X22576465Y31568127D01*
X22505276Y31674669D01*
X22414669Y31765276D01*
X22312604Y31833474D01*
X22281140Y31880563D01*
X22292189Y31936112D01*
X22312602Y31956526D01*
X22414669Y32024724D01*
X22505276Y32115331D01*
X22576465Y32221873D01*
X22625501Y32340256D01*
X22650500Y32465931D01*
X22650500Y32594069D01*
X22625501Y32719744D01*
X22576465Y32838127D01*
X22505276Y32944669D01*
X22414669Y33035276D01*
X22308127Y33106465D01*
X22308124Y33106467D01*
X22308123Y33106467D01*
X22189742Y33155502D01*
X22189739Y33155503D01*
X22099696Y33173414D01*
X22064069Y33180500D01*
X21935931Y33180500D01*
X21904726Y33174293D01*
X21810260Y33155503D01*
X21810257Y33155502D01*
X21691876Y33106467D01*
X21585331Y33035277D01*
X21585330Y33035275D01*
X21494725Y32944670D01*
X21494723Y32944669D01*
X21423533Y32838124D01*
X21374498Y32719743D01*
X21374497Y32719740D01*
X21349500Y32594068D01*
X21349500Y32465933D01*
X21374497Y32340262D01*
X21374500Y32340252D01*
X21383588Y32318312D01*
X21383588Y32261674D01*
X21367547Y32237668D01*
X19606514Y30476634D01*
X19600881Y30463034D01*
X19569900Y30388240D01*
X19569900Y29701145D01*
X19548226Y29648819D01*
X19489920Y29590514D01*
X19437195Y29499192D01*
X19437191Y29499183D01*
X19409900Y29397330D01*
X19409900Y29291871D01*
X19437191Y29190018D01*
X19437195Y29190009D01*
X19489920Y29098687D01*
X19564487Y29024120D01*
X19655813Y28971393D01*
X19757670Y28944101D01*
X19757671Y28944100D01*
X19757673Y28944100D01*
X19863129Y28944100D01*
X19863129Y28944101D01*
X19964987Y28971393D01*
X20056313Y29024120D01*
X20130880Y29098687D01*
X20183607Y29190013D01*
X20210899Y29291871D01*
X20210900Y29291871D01*
X20210900Y29397329D01*
X20210899Y29397330D01*
X20209834Y29401303D01*
X20183607Y29499187D01*
X20130880Y29590513D01*
X20072574Y29648819D01*
X20050900Y29701145D01*
X20050900Y30210130D01*
X20072573Y30262455D01*
X21230469Y31420351D01*
X21282793Y31442024D01*
X21335119Y31420350D01*
X21356793Y31368024D01*
X21355371Y31353589D01*
X21349500Y31324070D01*
X21349500Y31195933D01*
X21374497Y31070261D01*
X21374498Y31070258D01*
X21374499Y31070256D01*
X21423535Y30951873D01*
X21494724Y30845331D01*
X21585331Y30754724D01*
X21687393Y30686528D01*
X21718859Y30639437D01*
X21707810Y30583888D01*
X21687394Y30563473D01*
X21650612Y30538896D01*
X21585331Y30495277D01*
X21585330Y30495275D01*
X21494725Y30404670D01*
X21494723Y30404669D01*
X21423533Y30298124D01*
X21374498Y30179743D01*
X21374497Y30179740D01*
X21353043Y30071883D01*
X21349500Y30054069D01*
X21349500Y29925931D01*
X21357757Y29884420D01*
X21374497Y29800262D01*
X21374500Y29800252D01*
X21383588Y29778312D01*
X21383588Y29721674D01*
X21367547Y29697668D01*
X19420855Y27750974D01*
X19368529Y27729300D01*
X8045345Y27729300D01*
X7993019Y27750974D01*
X7934713Y27809280D01*
X7843391Y27862005D01*
X7843382Y27862009D01*
X7741529Y27889300D01*
X7741527Y27889300D01*
X7636073Y27889300D01*
X7636071Y27889300D01*
X7534217Y27862009D01*
X7534208Y27862005D01*
X7442886Y27809280D01*
X7368320Y27734714D01*
X7315595Y27643392D01*
X7315591Y27643383D01*
X7288300Y27541530D01*
X7288300Y27436071D01*
X7315591Y27334218D01*
X7315595Y27334209D01*
X7368320Y27242887D01*
X7446317Y27164890D01*
X7445334Y27163908D01*
X7471025Y27119406D01*
X7456365Y27064700D01*
X7446296Y27054631D01*
X7446317Y27054610D01*
X7368320Y26976614D01*
X7315595Y26885292D01*
X7315591Y26885283D01*
X7288300Y26783430D01*
X7288300Y26677971D01*
X7315591Y26576118D01*
X7315592Y26576115D01*
X7315593Y26576113D01*
X7368320Y26484787D01*
X7442887Y26410220D01*
X7534213Y26357493D01*
X7636070Y26330201D01*
X7636071Y26330200D01*
X7636073Y26330200D01*
X7741529Y26330200D01*
X7741529Y26330201D01*
X7843387Y26357493D01*
X7908846Y26395287D01*
X7945846Y26405200D01*
X9533421Y26405200D01*
X9585747Y26383526D01*
X10731386Y25237887D01*
X11808521Y24160753D01*
X11830195Y24108427D01*
X11808521Y24056101D01*
X11789091Y24043116D01*
X11789313Y24042732D01*
X11693786Y23987580D01*
X11619220Y23913014D01*
X11566495Y23821692D01*
X11566491Y23821683D01*
X11539200Y23719830D01*
X11539200Y23614371D01*
X11566491Y23512518D01*
X11566495Y23512509D01*
X11618874Y23421787D01*
X11619220Y23421187D01*
X11693787Y23346620D01*
X11785113Y23293893D01*
X11886970Y23266601D01*
X11886971Y23266600D01*
X11886973Y23266600D01*
X11992429Y23266600D01*
X11992429Y23266601D01*
X12094287Y23293893D01*
X12185613Y23346620D01*
X12260180Y23421187D01*
X12312907Y23512513D01*
X12312906Y23512513D01*
X12315332Y23516713D01*
X12316680Y23515935D01*
X12352702Y23551961D01*
X12409339Y23551966D01*
X12433352Y23535922D01*
X12592826Y23376448D01*
X12614500Y23324122D01*
X12614500Y23289171D01*
X12641791Y23187318D01*
X12641795Y23187309D01*
X12679302Y23122346D01*
X12694520Y23095987D01*
X12769087Y23021420D01*
X12860413Y22968693D01*
X12962270Y22941401D01*
X12962271Y22941400D01*
X12962273Y22941400D01*
X13067729Y22941400D01*
X13067729Y22941401D01*
X13169587Y22968693D01*
X13260913Y23021420D01*
X13335480Y23095987D01*
X13388207Y23187313D01*
X13415499Y23289171D01*
X13415500Y23289171D01*
X13415500Y23394629D01*
X13415499Y23394630D01*
X13408222Y23421787D01*
X13388207Y23496487D01*
X13335480Y23587813D01*
X13260913Y23662380D01*
X13190403Y23703089D01*
X13175077Y23714849D01*
X11545212Y25344714D01*
X9898762Y26991165D01*
X9898759Y26991167D01*
X9898758Y26991168D01*
X9824543Y27034016D01*
X9824541Y27034017D01*
X9824540Y27034018D01*
X9824539Y27034018D01*
X9741753Y27056200D01*
X9741751Y27056200D01*
X8001245Y27056200D01*
X7948919Y27077874D01*
X7927245Y27130200D01*
X7948919Y27182526D01*
X7993019Y27226626D01*
X8045345Y27248300D01*
X13509500Y27248300D01*
X13561826Y27226626D01*
X13583500Y27174300D01*
X13583500Y25730374D01*
X13561826Y25678048D01*
X13509500Y25656374D01*
X13457174Y25678048D01*
X13448686Y25689108D01*
X13448632Y25689066D01*
X13445681Y25692912D01*
X13371113Y25767480D01*
X13279791Y25820205D01*
X13279782Y25820209D01*
X13177929Y25847500D01*
X13177927Y25847500D01*
X13072473Y25847500D01*
X13072471Y25847500D01*
X12970617Y25820209D01*
X12970608Y25820205D01*
X12879286Y25767480D01*
X12804720Y25692914D01*
X12751995Y25601592D01*
X12751991Y25601583D01*
X12724700Y25499730D01*
X12724700Y25394271D01*
X12751991Y25292418D01*
X12751995Y25292409D01*
X12785080Y25235104D01*
X12804720Y25201087D01*
X12879287Y25126520D01*
X12970613Y25073793D01*
X13072470Y25046501D01*
X13072471Y25046500D01*
X13072473Y25046500D01*
X13177929Y25046500D01*
X13177929Y25046501D01*
X13279787Y25073793D01*
X13371113Y25126520D01*
X13445680Y25201087D01*
X13445681Y25201090D01*
X13448632Y25204934D01*
X13449830Y25204015D01*
X13490343Y25235104D01*
X13546496Y25227715D01*
X13580977Y25182784D01*
X13583500Y25163627D01*
X13583500Y19810961D01*
X13594810Y19783655D01*
X13620114Y19722567D01*
X13769109Y19573573D01*
X13845526Y19497156D01*
X13867200Y19444830D01*
X13867200Y19021795D01*
X13845526Y18969469D01*
X13793200Y18947795D01*
X13756201Y18957709D01*
X13704595Y18987504D01*
X13704582Y18987509D01*
X13602729Y19014800D01*
X13602727Y19014800D01*
X13497273Y19014800D01*
X13497271Y19014800D01*
X13395417Y18987509D01*
X13395408Y18987505D01*
X13329954Y18949714D01*
X13292954Y18939800D01*
X10508452Y18939800D01*
X10456126Y18961474D01*
X10434452Y19013800D01*
X10444366Y19050800D01*
X10489407Y19128813D01*
X10516699Y19230671D01*
X10516700Y19230671D01*
X10516700Y19336129D01*
X10516699Y19336130D01*
X10511117Y19356961D01*
X10489407Y19437987D01*
X10436680Y19529313D01*
X10362113Y19603880D01*
X10315878Y19630574D01*
X10270791Y19656605D01*
X10270782Y19656609D01*
X10168929Y19683900D01*
X10168927Y19683900D01*
X10063473Y19683900D01*
X10063471Y19683900D01*
X9961617Y19656609D01*
X9961609Y19656605D01*
X9924906Y19635414D01*
X9887906Y19625500D01*
X7940229Y19625500D01*
X7911910Y19631133D01*
X7877708Y19645300D01*
X7877707Y19645301D01*
X7834296Y19663284D01*
X7810294Y19679321D01*
X7806058Y19683557D01*
X7806052Y19683561D01*
X7805231Y19683901D01*
X7805231Y19683900D01*
X7734301Y19713281D01*
X7710294Y19729322D01*
X7056059Y20383556D01*
X7056058Y20383557D01*
X7038729Y20390735D01*
X6954800Y20425500D01*
X6954799Y20425500D01*
X6082524Y20425500D01*
X6030198Y20447174D01*
X6008524Y20499500D01*
X6018438Y20536500D01*
X6022706Y20543892D01*
X6064807Y20616813D01*
X6092099Y20718671D01*
X6092100Y20718671D01*
X6092100Y20824129D01*
X6092099Y20824130D01*
X6089963Y20832100D01*
X6064807Y20925987D01*
X6012080Y21017313D01*
X5937513Y21091880D01*
X5901128Y21112887D01*
X5846191Y21144605D01*
X5846182Y21144609D01*
X5744329Y21171900D01*
X5744327Y21171900D01*
X5638873Y21171900D01*
X5638871Y21171900D01*
X5537017Y21144609D01*
X5537008Y21144605D01*
X5445686Y21091880D01*
X5371120Y21017314D01*
X5318395Y20925992D01*
X5318392Y20925985D01*
X5297727Y20848864D01*
X5263248Y20803932D01*
X5207095Y20796540D01*
X5173923Y20815692D01*
X5134554Y20855061D01*
X4997174Y20992442D01*
X4975500Y21044768D01*
X4975500Y21049437D01*
X4975499Y21049438D01*
X4969537Y21071687D01*
X4951230Y21140013D01*
X4949911Y21144935D01*
X4949909Y21144940D01*
X4915690Y21204209D01*
X4900475Y21230562D01*
X4830562Y21300475D01*
X4744939Y21349910D01*
X4744934Y21349912D01*
X4649437Y21375500D01*
X4649435Y21375500D01*
X4550565Y21375500D01*
X4550563Y21375500D01*
X4455065Y21349912D01*
X4455060Y21349910D01*
X4369437Y21300475D01*
X4299525Y21230563D01*
X4250090Y21144940D01*
X4250088Y21144935D01*
X4224500Y21049438D01*
X4224500Y20950563D01*
X4250088Y20855066D01*
X4250090Y20855061D01*
X4295249Y20776844D01*
X4299525Y20769438D01*
X4369438Y20699525D01*
X4455062Y20650090D01*
X4455063Y20650090D01*
X4455065Y20650089D01*
X4502813Y20637295D01*
X4550562Y20624501D01*
X4550563Y20624500D01*
X4550565Y20624500D01*
X4555233Y20624500D01*
X4607558Y20602827D01*
X4791039Y20419345D01*
X4970678Y20239706D01*
X4986719Y20215699D01*
X5016441Y20143946D01*
X5016443Y20143942D01*
X5093941Y20066444D01*
X5093944Y20066442D01*
X5165697Y20036721D01*
X5189705Y20020679D01*
X5243937Y19966446D01*
X5243941Y19966443D01*
X5273600Y19954158D01*
X5315695Y19936722D01*
X5339703Y19920681D01*
X5343941Y19916443D01*
X5343944Y19916441D01*
X5367609Y19906639D01*
X5445200Y19874500D01*
X5554800Y19874500D01*
X6755233Y19874500D01*
X6807559Y19852826D01*
X6925159Y19735226D01*
X6946833Y19682900D01*
X6925159Y19630574D01*
X6872833Y19608900D01*
X4255179Y19608900D01*
X4202853Y19630574D01*
X3353421Y20480006D01*
X3334269Y20513178D01*
X3314707Y20586187D01*
X3261980Y20677513D01*
X3187413Y20752080D01*
X3178716Y20757101D01*
X3096091Y20804805D01*
X3096082Y20804809D01*
X3095632Y20804929D01*
X3095445Y20805073D01*
X3091609Y20806661D01*
X3092034Y20807690D01*
X3050699Y20839407D01*
X3043307Y20895560D01*
X3062457Y20928731D01*
X3761653Y21627926D01*
X3813979Y21649600D01*
X6011964Y21649600D01*
X6064290Y21627926D01*
X6085964Y21575600D01*
X6076050Y21538602D01*
X6069075Y21526519D01*
X6061493Y21513388D01*
X6061491Y21513383D01*
X6034200Y21411530D01*
X6034200Y21306071D01*
X6061491Y21204218D01*
X6061495Y21204209D01*
X6100396Y21136830D01*
X6100397Y21136828D01*
X6114220Y21112887D01*
X6188787Y21038320D01*
X6280113Y20985593D01*
X6381970Y20958301D01*
X6381971Y20958300D01*
X6381973Y20958300D01*
X6487427Y20958300D01*
X6533675Y20970692D01*
X6544076Y20973480D01*
X6563228Y20976000D01*
X6624839Y20976000D01*
X10049729Y20976000D01*
X10102055Y20954326D01*
X11348026Y19708356D01*
X11369700Y19656030D01*
X11369700Y19573571D01*
X11396991Y19471718D01*
X11396995Y19471709D01*
X11416467Y19437983D01*
X11449720Y19380387D01*
X11524287Y19305820D01*
X11615613Y19253093D01*
X11717470Y19225801D01*
X11717471Y19225800D01*
X11717473Y19225800D01*
X11822929Y19225800D01*
X11822929Y19225801D01*
X11924787Y19253093D01*
X12016113Y19305820D01*
X12090680Y19380387D01*
X12143407Y19471713D01*
X12170699Y19573571D01*
X12170700Y19573571D01*
X12170700Y19679029D01*
X12170699Y19679030D01*
X12167412Y19691296D01*
X12143407Y19780887D01*
X12090680Y19872213D01*
X12016113Y19946780D01*
X11982056Y19966443D01*
X11924791Y19999505D01*
X11924782Y19999509D01*
X11822929Y20026800D01*
X11822927Y20026800D01*
X11740470Y20026800D01*
X11688144Y20048474D01*
X10393981Y21342637D01*
X10372307Y21394963D01*
X10393980Y21447288D01*
X10413980Y21467287D01*
X10466707Y21558613D01*
X10490245Y21646460D01*
X10524723Y21691392D01*
X10580875Y21698785D01*
X10614049Y21679632D01*
X11153667Y21140014D01*
X11242061Y21103400D01*
X11242062Y21103400D01*
X12399755Y21103400D01*
X12452081Y21081726D01*
X12510387Y21023420D01*
X12601713Y20970693D01*
X12703570Y20943401D01*
X12703571Y20943400D01*
X12703573Y20943400D01*
X12809029Y20943400D01*
X12809029Y20943401D01*
X12910887Y20970693D01*
X13002213Y21023420D01*
X13076780Y21097987D01*
X13129507Y21189313D01*
X13156799Y21291171D01*
X13156800Y21291171D01*
X13156800Y21396629D01*
X13156799Y21396630D01*
X13152807Y21411527D01*
X13129507Y21498487D01*
X13076780Y21589813D01*
X13002213Y21664380D01*
X12942622Y21698785D01*
X12910891Y21717105D01*
X12910882Y21717109D01*
X12809029Y21744400D01*
X12809027Y21744400D01*
X12703573Y21744400D01*
X12703571Y21744400D01*
X12601717Y21717109D01*
X12601708Y21717105D01*
X12510386Y21664380D01*
X12452081Y21606074D01*
X12399755Y21584400D01*
X11420171Y21584400D01*
X11367845Y21606074D01*
X9514574Y23459345D01*
X9492900Y23511671D01*
X9492900Y23518930D01*
X10481900Y23518930D01*
X10481900Y23413471D01*
X10509191Y23311618D01*
X10509195Y23311609D01*
X10535181Y23266600D01*
X10561920Y23220287D01*
X10636487Y23145720D01*
X10727813Y23092993D01*
X10829670Y23065701D01*
X10829671Y23065700D01*
X10829673Y23065700D01*
X10935129Y23065700D01*
X10935129Y23065701D01*
X11036987Y23092993D01*
X11128313Y23145720D01*
X11202880Y23220287D01*
X11255607Y23311613D01*
X11282899Y23413471D01*
X11282900Y23413471D01*
X11282900Y23518929D01*
X11282899Y23518930D01*
X11255608Y23620783D01*
X11255607Y23620787D01*
X11202880Y23712113D01*
X11128313Y23786680D01*
X11067679Y23821687D01*
X11036991Y23839405D01*
X11036982Y23839409D01*
X10935129Y23866700D01*
X10935127Y23866700D01*
X10829673Y23866700D01*
X10829671Y23866700D01*
X10727817Y23839409D01*
X10727808Y23839405D01*
X10636486Y23786680D01*
X10561920Y23712114D01*
X10509195Y23620792D01*
X10509191Y23620783D01*
X10481900Y23518930D01*
X9492900Y23518930D01*
X9492900Y23594129D01*
X9492899Y23594130D01*
X9485757Y23620783D01*
X9465607Y23695987D01*
X9412880Y23787313D01*
X9338313Y23861880D01*
X9249748Y23913013D01*
X9246991Y23914605D01*
X9246982Y23914609D01*
X9145129Y23941900D01*
X9145127Y23941900D01*
X9039673Y23941900D01*
X9039671Y23941900D01*
X8937817Y23914609D01*
X8937808Y23914605D01*
X8846486Y23861880D01*
X8771920Y23787314D01*
X8719195Y23695992D01*
X8719191Y23695983D01*
X8691900Y23594130D01*
X8691900Y23488671D01*
X8719191Y23386818D01*
X8719195Y23386809D01*
X8742051Y23347221D01*
X8771920Y23295487D01*
X8846487Y23220920D01*
X8937813Y23168193D01*
X9039670Y23140901D01*
X9039671Y23140900D01*
X9122129Y23140900D01*
X9174455Y23119226D01*
X9866755Y22426926D01*
X9888429Y22374600D01*
X9866755Y22322274D01*
X9814429Y22300600D01*
X3605645Y22300600D01*
X3522866Y22278420D01*
X3522860Y22278417D01*
X3448637Y22235565D01*
X2064132Y20851059D01*
X2021284Y20776844D01*
X2021281Y20776836D01*
X2015992Y20757101D01*
X2015993Y20757100D01*
X1999100Y20694053D01*
X250500Y20694053D01*
X250500Y25151530D01*
X520800Y25151530D01*
X520800Y25046071D01*
X548091Y24944218D01*
X548095Y24944209D01*
X598970Y24856092D01*
X600820Y24852887D01*
X675387Y24778320D01*
X766713Y24725593D01*
X868570Y24698301D01*
X868571Y24698300D01*
X868573Y24698300D01*
X974029Y24698300D01*
X974029Y24698301D01*
X1075887Y24725593D01*
X1167213Y24778320D01*
X1241780Y24852887D01*
X1294507Y24944213D01*
X1321799Y25046071D01*
X1321800Y25046071D01*
X1321800Y25128530D01*
X1343474Y25180856D01*
X3292818Y27130200D01*
X5272559Y29109942D01*
X5311615Y29129198D01*
X5311442Y29129844D01*
X5314692Y29130715D01*
X5315236Y29130983D01*
X5316124Y29131100D01*
X5316127Y29131100D01*
X5316129Y29131101D01*
X5316132Y29131101D01*
X5367057Y29144747D01*
X5417987Y29158393D01*
X5509313Y29211120D01*
X5583880Y29285687D01*
X5636607Y29377013D01*
X5663899Y29478871D01*
X5663900Y29478871D01*
X5663900Y29584329D01*
X5663899Y29584330D01*
X5646619Y29648819D01*
X5636607Y29686187D01*
X5583880Y29777513D01*
X5509313Y29852080D01*
X5417991Y29904805D01*
X5417982Y29904809D01*
X5316129Y29932100D01*
X5316127Y29932100D01*
X5210673Y29932100D01*
X5210671Y29932100D01*
X5108817Y29904809D01*
X5108808Y29904805D01*
X5017486Y29852080D01*
X4942920Y29777514D01*
X4890195Y29686192D01*
X4890191Y29686183D01*
X4862900Y29584330D01*
X4862900Y29478871D01*
X4872626Y29442569D01*
X4865232Y29386417D01*
X4853473Y29371093D01*
X1003354Y25520974D01*
X951028Y25499300D01*
X868571Y25499300D01*
X766717Y25472009D01*
X766708Y25472005D01*
X675386Y25419280D01*
X600820Y25344714D01*
X548095Y25253392D01*
X548091Y25253383D01*
X520800Y25151530D01*
X250500Y25151530D01*
X250500Y28926000D01*
X272174Y28978326D01*
X324500Y29000000D01*
X1100000Y29000000D01*
X1100000Y30800000D01*
X324500Y30800000D01*
X272174Y30821674D01*
X250500Y30874000D01*
X250500Y33786530D01*
X815800Y33786530D01*
X815800Y33681071D01*
X843091Y33579218D01*
X843092Y33579215D01*
X843093Y33579213D01*
X895820Y33487887D01*
X970387Y33413320D01*
X1061713Y33360593D01*
X1163570Y33333301D01*
X1163571Y33333300D01*
X1163573Y33333300D01*
X1269029Y33333300D01*
X1269029Y33333301D01*
X1370887Y33360593D01*
X1462213Y33413320D01*
X1536780Y33487887D01*
X1589507Y33579213D01*
X1616799Y33681071D01*
X1616800Y33681071D01*
X1616800Y33786529D01*
X1616799Y33786530D01*
X1589508Y33888383D01*
X1589507Y33888387D01*
X1536780Y33979713D01*
X1462213Y34054280D01*
X1370891Y34107005D01*
X1370882Y34107009D01*
X1269029Y34134300D01*
X1269027Y34134300D01*
X1163573Y34134300D01*
X1163571Y34134300D01*
X1061717Y34107009D01*
X1061708Y34107005D01*
X970386Y34054280D01*
X895820Y33979714D01*
X843095Y33888392D01*
X843091Y33888383D01*
X815800Y33786530D01*
X250500Y33786530D01*
X250500Y34675500D01*
X272174Y34727826D01*
X324500Y34749500D01*
X24675500Y34749500D01*
X24727826Y34727826D01*
G37*
%TD.AperFunction*%
%TD*%
M02*
