%TF.GenerationSoftware,KiCad,Pcbnew,9.0.8+dfsg-1*%
%TF.CreationDate,2026-09-08T08:42:20+05:30*%
%TF.ProjectId,smove-r2-main,736d6f76-652d-4723-922d-6d61696e2e6b,rev?*%
%TF.SameCoordinates,Original*%
%TF.FileFunction,Legend,Top*%
%TF.FilePolarity,Positive*%
%FSLAX46Y46*%
G04 Gerber Fmt 4.6, Leading zero omitted, Abs format (unit mm)*
G04 Created by KiCad (PCBNEW 9.0.8+dfsg-1) date 2026-09-08 08:42:20*
%MOMM*%
%LPD*%
G01*
G04 APERTURE LIST*
%ADD10C,0.120000*%
G04 APERTURE END LIST*
D10*
%TO.C,R9*%
X820000Y31846359D02*
X820000Y32153641D01*
X1580000Y31846359D02*
X1580000Y32153641D01*
%TO.C,R4*%
X20246359Y27580000D02*
X20553641Y27580000D01*
X20246359Y26820000D02*
X20553641Y26820000D01*
%TO.C,C10*%
X3440000Y19892164D02*
X3440000Y20107836D01*
X4160000Y19892164D02*
X4160000Y20107836D01*
%TO.C,D1*%
X18200000Y12650000D02*
X18200000Y11500000D01*
X20100000Y13100000D02*
X20100000Y11500000D01*
%TO.C,C4*%
X4640000Y31692164D02*
X4640000Y31907836D01*
X5360000Y31692164D02*
X5360000Y31907836D01*
%TO.C,R5*%
X12646359Y22980000D02*
X12953641Y22980000D01*
X12646359Y22220000D02*
X12953641Y22220000D01*
%TO.C,R23*%
X4646359Y17980000D02*
X4953641Y17980000D01*
X4646359Y17220000D02*
X4953641Y17220000D01*
%TO.C,R3*%
X20246359Y26380000D02*
X20553641Y26380000D01*
X20246359Y25620000D02*
X20553641Y25620000D01*
%TO.C,R2*%
X18046359Y9580000D02*
X18353641Y9580000D01*
X18046359Y8820000D02*
X18353641Y8820000D01*
%TO.C,R15*%
X10246359Y22980000D02*
X10553641Y22980000D01*
X10246359Y22220000D02*
X10553641Y22220000D01*
%TO.C,C3*%
X2065000Y31738748D02*
X2065000Y32261252D01*
X3535000Y31738748D02*
X3535000Y32261252D01*
%TO.C,R7*%
X1620000Y19846359D02*
X1620000Y20153641D01*
X2380000Y19846359D02*
X2380000Y20153641D01*
%TO.C,U4*%
X1890000Y28860000D02*
X3710000Y28860000D01*
X1890000Y28810000D02*
X1890000Y28860000D01*
X1890000Y25740000D02*
X1890000Y25790000D01*
X3710000Y28860000D02*
X3710000Y28810000D01*
X3710000Y27690000D02*
X3710000Y26910000D01*
X3710000Y25790000D02*
X3710000Y25740000D01*
X3710000Y25740000D02*
X1890000Y25740000D01*
X1350000Y28810000D02*
X1110000Y29140000D01*
X1590000Y29140000D01*
X1350000Y28810000D01*
G36*
X1350000Y28810000D02*
G01*
X1110000Y29140000D01*
X1590000Y29140000D01*
X1350000Y28810000D01*
G37*
%TO.C,R8*%
X14020000Y22246359D02*
X14020000Y22553641D01*
X14780000Y22246359D02*
X14780000Y22553641D01*
%TO.C,C1*%
X7659420Y17110000D02*
X7940580Y17110000D01*
X7659420Y16090000D02*
X7940580Y16090000D01*
%TO.C,R10*%
X13846359Y21180000D02*
X14153641Y21180000D01*
X13846359Y20420000D02*
X14153641Y20420000D01*
%TO.C,C13*%
X2938748Y24735000D02*
X3461252Y24735000D01*
X2938748Y23265000D02*
X3461252Y23265000D01*
%TO.C,R13*%
X11046359Y1980000D02*
X11353641Y1980000D01*
X11046359Y1220000D02*
X11353641Y1220000D01*
%TO.C,R22*%
X10620000Y18153641D02*
X10620000Y17846359D01*
X11380000Y18153641D02*
X11380000Y17846359D01*
%TO.C,U9*%
X14640000Y12760000D02*
X15640000Y12760000D01*
X14640000Y11240000D02*
X14640000Y12760000D01*
X14690000Y11240000D02*
X14640000Y11240000D01*
X16590000Y11240000D02*
X15810000Y11240000D01*
X16760000Y12760000D02*
X17760000Y12760000D01*
X17760000Y12760000D02*
X17760000Y11240000D01*
X17760000Y11240000D02*
X17710000Y11240000D01*
X16150000Y10460000D02*
X15820000Y10700000D01*
X16150000Y10940000D01*
X16150000Y10460000D01*
G36*
X16150000Y10460000D02*
G01*
X15820000Y10700000D01*
X16150000Y10940000D01*
X16150000Y10460000D01*
G37*
%TO.C,R12*%
X13246359Y1980000D02*
X13553641Y1980000D01*
X13246359Y1220000D02*
X13553641Y1220000D01*
%TO.C,U8*%
X21590000Y11960000D02*
X23410000Y11960000D01*
X21590000Y11910000D02*
X21590000Y11960000D01*
X21590000Y8840000D02*
X21590000Y8890000D01*
X23410000Y11960000D02*
X23410000Y11910000D01*
X23410000Y8890000D02*
X23410000Y8840000D01*
X23410000Y8840000D02*
X21590000Y8840000D01*
X21050000Y11910000D02*
X20810000Y12240000D01*
X21290000Y12240000D01*
X21050000Y11910000D01*
G36*
X21050000Y11910000D02*
G01*
X20810000Y12240000D01*
X21290000Y12240000D01*
X21050000Y11910000D01*
G37*
%TO.C,R11*%
X19420000Y9246359D02*
X19420000Y9553641D01*
X20180000Y9246359D02*
X20180000Y9553641D01*
%TO.C,R1*%
X15246359Y9580000D02*
X15553641Y9580000D01*
X15246359Y8820000D02*
X15553641Y8820000D01*
%TO.C,C2*%
X12065000Y15738748D02*
X12065000Y16261252D01*
X13535000Y15738748D02*
X13535000Y16261252D01*
%TO.C,C11*%
X6092164Y22960000D02*
X6307836Y22960000D01*
X6092164Y22240000D02*
X6307836Y22240000D01*
%TO.C,R21*%
X10620000Y20446359D02*
X10620000Y20753641D01*
X11380000Y20446359D02*
X11380000Y20753641D01*
%TO.C,R14*%
X8046359Y22980000D02*
X8353641Y22980000D01*
X8046359Y22220000D02*
X8353641Y22220000D01*
%TD*%
M02*
