%TF.GenerationSoftware,KiCad,Pcbnew,9.0.8+dfsg-1*%
%TF.CreationDate,2026-09-09T05:58:36+05:30*%
%TF.ProjectId,smove-r2-main,736d6f76-652d-4723-922d-6d61696e2e6b,rev?*%
%TF.SameCoordinates,Original*%
%TF.FileFunction,Soldermask,Top*%
%TF.FilePolarity,Negative*%
%FSLAX46Y46*%
G04 Gerber Fmt 4.6, Leading zero omitted, Abs format (unit mm)*
G04 Created by KiCad (PCBNEW 9.0.8+dfsg-1) date 2026-09-09 05:58:36*
%MOMM*%
%LPD*%
G01*
G04 APERTURE LIST*
G04 Aperture macros list*
%AMRoundRect*
0 Rectangle with rounded corners*
0 $1 Rounding radius*
0 $2 $3 $4 $5 $6 $7 $8 $9 X,Y pos of 4 corners*
0 Add a 4 corners polygon primitive as box body*
4,1,4,$2,$3,$4,$5,$6,$7,$8,$9,$2,$3,0*
0 Add four circle primitives for the rounded corners*
1,1,$1+$1,$2,$3*
1,1,$1+$1,$4,$5*
1,1,$1+$1,$6,$7*
1,1,$1+$1,$8,$9*
0 Add four rect primitives between the rounded corners*
20,1,$1+$1,$2,$3,$4,$5,0*
20,1,$1+$1,$4,$5,$6,$7,0*
20,1,$1+$1,$6,$7,$8,$9,0*
20,1,$1+$1,$8,$9,$2,$3,0*%
%AMFreePoly0*
4,1,14,0.753284,0.753284,0.765000,0.725000,0.765000,-0.725000,0.753284,-0.753284,0.725000,-0.765000,-0.725000,-0.765000,-0.753284,-0.753284,-0.765000,-0.725000,-0.765000,0.125000,-0.753284,0.153284,-0.153284,0.753284,-0.125000,0.765000,0.725000,0.765000,0.753284,0.753284,0.753284,0.753284,$1*%
G04 Aperture macros list end*
%ADD10RoundRect,0.135000X0.185000X-0.135000X0.185000X0.135000X-0.185000X0.135000X-0.185000X-0.135000X0*%
%ADD11RoundRect,0.170000X-0.170000X0.532500X-0.170000X-0.532500X0.170000X-0.532500X0.170000X0.532500X0*%
%ADD12RoundRect,0.169500X0.870500X-0.395500X0.870500X0.395500X-0.870500X0.395500X-0.870500X-0.395500X0*%
%ADD13RoundRect,0.140000X0.170000X-0.140000X0.170000X0.140000X-0.170000X0.140000X-0.170000X-0.140000X0*%
%ADD14RoundRect,0.155000X0.205000X-0.155000X0.205000X0.155000X-0.205000X0.155000X-0.205000X-0.155000X0*%
%ADD15RoundRect,0.160000X-0.190000X0.160000X-0.190000X-0.160000X0.190000X-0.160000X0.190000X0.160000X0*%
%ADD16R,0.650000X0.850000*%
%ADD17RoundRect,0.070000X-0.070000X0.245000X-0.070000X-0.245000X0.070000X-0.245000X0.070000X0.245000X0*%
%ADD18RoundRect,0.070000X-0.245000X-0.070000X0.245000X-0.070000X0.245000X0.070000X-0.245000X0.070000X0*%
%ADD19RoundRect,0.140000X0.140000X0.170000X-0.140000X0.170000X-0.140000X-0.170000X0.140000X-0.170000X0*%
%ADD20RoundRect,0.135000X-0.135000X-0.185000X0.135000X-0.185000X0.135000X0.185000X-0.135000X0.185000X0*%
%ADD21C,0.650000*%
%ADD22R,1.450000X0.600000*%
%ADD23R,1.450000X0.300000*%
%ADD24O,2.100000X1.000000*%
%ADD25O,1.600000X1.000000*%
%ADD26RoundRect,0.057000X-0.133000X0.408000X-0.133000X-0.408000X0.133000X-0.408000X0.133000X0.408000X0*%
%ADD27RoundRect,0.160000X0.160000X0.190000X-0.160000X0.190000X-0.160000X-0.190000X0.160000X-0.190000X0*%
%ADD28RoundRect,0.155000X-0.155000X-0.205000X0.155000X-0.205000X0.155000X0.205000X-0.155000X0.205000X0*%
%ADD29RoundRect,0.250000X0.250000X0.475000X-0.250000X0.475000X-0.250000X-0.475000X0.250000X-0.475000X0*%
%ADD30C,2.100000*%
%ADD31RoundRect,0.150000X-0.512500X-0.150000X0.512500X-0.150000X0.512500X0.150000X-0.512500X0.150000X0*%
%ADD32RoundRect,0.245000X-0.245000X-0.270000X0.245000X-0.270000X0.245000X0.270000X-0.245000X0.270000X0*%
%ADD33RoundRect,0.245000X-0.270000X0.245000X-0.270000X-0.245000X0.270000X-0.245000X0.270000X0.245000X0*%
%ADD34RoundRect,0.040000X0.400000X-0.200000X0.400000X0.200000X-0.400000X0.200000X-0.400000X-0.200000X0*%
%ADD35RoundRect,0.040000X-0.200000X-0.400000X0.200000X-0.400000X0.200000X0.400000X-0.200000X0.400000X0*%
%ADD36FreePoly0,0.000000*%
%ADD37RoundRect,0.040000X0.725000X-0.725000X0.725000X0.725000X-0.725000X0.725000X-0.725000X-0.725000X0*%
%ADD38RoundRect,0.040000X0.350000X-0.350000X0.350000X0.350000X-0.350000X0.350000X-0.350000X-0.350000X0*%
%ADD39RoundRect,0.225000X-0.225000X-0.250000X0.225000X-0.250000X0.225000X0.250000X-0.225000X0.250000X0*%
%ADD40RoundRect,0.250000X0.475000X-0.250000X0.475000X0.250000X-0.475000X0.250000X-0.475000X-0.250000X0*%
%ADD41RoundRect,0.135000X0.135000X0.185000X-0.135000X0.185000X-0.135000X-0.185000X0.135000X-0.185000X0*%
%ADD42RoundRect,0.150000X0.150000X-0.587500X0.150000X0.587500X-0.150000X0.587500X-0.150000X-0.587500X0*%
%ADD43RoundRect,0.048000X-0.292000X-0.112000X0.292000X-0.112000X0.292000X0.112000X-0.292000X0.112000X0*%
%ADD44RoundRect,0.048000X-0.112000X-0.292000X0.112000X-0.292000X0.112000X0.292000X-0.112000X0.292000X0*%
%ADD45RoundRect,0.264000X-0.616000X-0.616000X0.616000X-0.616000X0.616000X0.616000X-0.616000X0.616000X0*%
%ADD46RoundRect,0.140000X-0.140000X-0.170000X0.140000X-0.170000X0.140000X0.170000X-0.140000X0.170000X0*%
G04 APERTURE END LIST*
D10*
%TO.C,R9*%
X23000000Y27990000D03*
X23000000Y29010000D03*
%TD*%
D11*
%TO.C,U5*%
X3950000Y19887500D03*
X3000000Y19887500D03*
X2050000Y19887500D03*
X2050000Y17612500D03*
X3950000Y17612500D03*
%TD*%
D12*
%TO.C,SW2*%
X21500000Y7575000D03*
X21500000Y12025000D03*
%TD*%
D10*
%TO.C,R4*%
X23000000Y25740000D03*
X23000000Y26760000D03*
%TD*%
D13*
%TO.C,C10*%
X7250000Y19770000D03*
X7250000Y20730000D03*
%TD*%
D14*
%TO.C,R17*%
X7250000Y10490000D03*
X7250000Y11510000D03*
%TD*%
D15*
%TO.C,C8*%
X9750000Y19980000D03*
X9750000Y19020000D03*
%TD*%
D16*
%TO.C,D1*%
X15575000Y8925000D03*
X16425000Y8925000D03*
X16425000Y7475000D03*
X15575000Y7475000D03*
%TD*%
D17*
%TO.C,U2*%
X13500000Y19000000D03*
X13100000Y19000000D03*
X12700000Y19000000D03*
X12300000Y19000000D03*
X11900000Y19000000D03*
X11500000Y19000000D03*
D18*
X11000000Y18500000D03*
X11000000Y18100000D03*
X11000000Y17700000D03*
X11000000Y17300000D03*
X11000000Y16900000D03*
X11000000Y16500000D03*
D17*
X11500000Y16000000D03*
X11900000Y16000000D03*
X12300000Y16000000D03*
X12700000Y16000000D03*
X13100000Y16000000D03*
X13500000Y16000000D03*
D18*
X14000000Y16500000D03*
X14000000Y16900000D03*
X14000000Y17300000D03*
X14000000Y17700000D03*
X14000000Y18100000D03*
X14000000Y18500000D03*
%TD*%
D19*
%TO.C,C4*%
X6230000Y27000000D03*
X5270000Y27000000D03*
%TD*%
D20*
%TO.C,R5*%
X12490000Y13500000D03*
X13510000Y13500000D03*
%TD*%
D21*
%TO.C,J1*%
X18500000Y15310000D03*
X18500000Y21090000D03*
D22*
X17055000Y14950000D03*
X17055000Y15750000D03*
D23*
X17055000Y16950000D03*
X17055000Y17950000D03*
X17055000Y18450000D03*
X17055000Y19450000D03*
D22*
X17055000Y20650000D03*
X17055000Y21450000D03*
X17055000Y21450000D03*
X17055000Y20650000D03*
D23*
X17055000Y19950000D03*
X17055000Y18950000D03*
X17055000Y17450000D03*
X17055000Y16450000D03*
D22*
X17055000Y15750000D03*
X17055000Y14950000D03*
D24*
X17970000Y13880000D03*
D25*
X22150000Y13880000D03*
D24*
X17970000Y22520000D03*
D25*
X22150000Y22520000D03*
%TD*%
D15*
%TO.C,C7*%
X11250000Y14730000D03*
X11250000Y13770000D03*
%TD*%
D20*
%TO.C,R23*%
X740000Y10500000D03*
X1760000Y10500000D03*
%TD*%
D26*
%TO.C,U3*%
X6000000Y15050000D03*
X5500000Y15050000D03*
X5000000Y15050000D03*
X4500000Y15050000D03*
X4500000Y11950000D03*
X5000000Y11950000D03*
X5500000Y11950000D03*
X6000000Y11950000D03*
%TD*%
D27*
%TO.C,C9*%
X9730000Y17250000D03*
X8770000Y17250000D03*
%TD*%
D20*
%TO.C,R3*%
X21740000Y24500000D03*
X22760000Y24500000D03*
%TD*%
D28*
%TO.C,R18*%
X7490000Y18500000D03*
X8510000Y18500000D03*
%TD*%
D20*
%TO.C,R2*%
X17740000Y12000000D03*
X18760000Y12000000D03*
%TD*%
D10*
%TO.C,R15*%
X10750000Y21740000D03*
X10750000Y22760000D03*
%TD*%
D29*
%TO.C,C3*%
X3700000Y26750000D03*
X1800000Y26750000D03*
%TD*%
D10*
%TO.C,R7*%
X2750000Y13240000D03*
X2750000Y14260000D03*
%TD*%
D30*
%TO.C,J2*%
X11230000Y2400000D03*
X13770000Y2400000D03*
%TD*%
D31*
%TO.C,U4*%
X1862500Y24700000D03*
X1862500Y23750000D03*
X1862500Y22800000D03*
X4137500Y22800000D03*
X4137500Y24700000D03*
%TD*%
D10*
%TO.C,R8*%
X21750000Y25740000D03*
X21750000Y26760000D03*
%TD*%
D32*
%TO.C,C5*%
X1225000Y15750000D03*
X2775000Y15750000D03*
%TD*%
D33*
%TO.C,C6*%
X5750000Y19525000D03*
X5750000Y17975000D03*
%TD*%
D34*
%TO.C,U1*%
X8300000Y33400000D03*
X8300000Y32600000D03*
X8300000Y31800000D03*
X8300000Y31000000D03*
X8300000Y30200000D03*
X8300000Y29400000D03*
X8300000Y28600000D03*
X8300000Y27800000D03*
X8300000Y27000000D03*
X8300000Y26200000D03*
X8300000Y25400000D03*
D35*
X9400000Y24500000D03*
X10200000Y24500000D03*
X11000000Y24500000D03*
X11800000Y24500000D03*
X12600000Y24500000D03*
X13400000Y24500000D03*
X14200000Y24500000D03*
X15000000Y24500000D03*
X15800000Y24500000D03*
X16600000Y24500000D03*
X17400000Y24500000D03*
X18200000Y24500000D03*
X19000000Y24500000D03*
D34*
X20100000Y25400000D03*
X20100000Y26200000D03*
X20100000Y27000000D03*
X20100000Y27800000D03*
X20100000Y28600000D03*
X20100000Y29400000D03*
X20100000Y30200000D03*
X20100000Y31000000D03*
X20100000Y31800000D03*
X20100000Y32600000D03*
X20100000Y33400000D03*
D35*
X19000000Y34300000D03*
X18200000Y34300000D03*
X17400000Y34300000D03*
X16600000Y34300000D03*
X15800000Y34300000D03*
X15000000Y34300000D03*
X14200000Y34300000D03*
X13400000Y34300000D03*
X12600000Y34300000D03*
X11800000Y34300000D03*
X11000000Y34300000D03*
X10200000Y34300000D03*
X9400000Y34300000D03*
D36*
X12225000Y31375000D03*
D37*
X12225000Y29400000D03*
X12225000Y27425000D03*
X14200000Y31375000D03*
X14200000Y29400000D03*
X14200000Y27425000D03*
X16175000Y31375000D03*
X16175000Y29400000D03*
X16175000Y27425000D03*
D38*
X20150000Y34350000D03*
X20150000Y24450000D03*
X8250000Y24450000D03*
X8250000Y34350000D03*
%TD*%
D39*
%TO.C,C1*%
X1975000Y5000000D03*
X3525000Y5000000D03*
%TD*%
D10*
%TO.C,R10*%
X8500000Y19990000D03*
X8500000Y21010000D03*
%TD*%
D40*
%TO.C,C13*%
X6250000Y23550000D03*
X6250000Y25450000D03*
%TD*%
D20*
%TO.C,R13*%
X15490000Y11000000D03*
X16510000Y11000000D03*
%TD*%
D41*
%TO.C,R22*%
X6260000Y5500000D03*
X5240000Y5500000D03*
%TD*%
D14*
%TO.C,R20*%
X1500000Y12490000D03*
X1500000Y13510000D03*
%TD*%
D28*
%TO.C,R19*%
X12740000Y14750000D03*
X13760000Y14750000D03*
%TD*%
D42*
%TO.C,U9*%
X7550000Y13562500D03*
X9450000Y13562500D03*
X8500000Y15437500D03*
%TD*%
D43*
%TO.C,U6*%
X1350000Y8750000D03*
X1350000Y8250000D03*
X1350000Y7750000D03*
X1350000Y7250000D03*
D44*
X2000000Y6600000D03*
X2500000Y6600000D03*
X3000000Y6600000D03*
X3500000Y6600000D03*
D43*
X4150000Y7250000D03*
X4150000Y7750000D03*
X4150000Y8250000D03*
X4150000Y8750000D03*
D44*
X3500000Y9400000D03*
X3000000Y9400000D03*
X2500000Y9400000D03*
X2000000Y9400000D03*
D45*
X2750000Y8000000D03*
%TD*%
D10*
%TO.C,R12*%
X14200000Y6190000D03*
X14200000Y7210000D03*
%TD*%
D31*
%TO.C,U8*%
X12362500Y22450000D03*
X12362500Y21500000D03*
X12362500Y20550000D03*
X14637500Y20550000D03*
X14637500Y21500000D03*
X14637500Y22450000D03*
%TD*%
D10*
%TO.C,R11*%
X14200000Y8490000D03*
X14200000Y9510000D03*
%TD*%
%TO.C,R1*%
X15000000Y12990000D03*
X15000000Y14010000D03*
%TD*%
D40*
%TO.C,C2*%
X6750000Y7050000D03*
X6750000Y8950000D03*
%TD*%
D28*
%TO.C,R16*%
X4240000Y10500000D03*
X5260000Y10500000D03*
%TD*%
D46*
%TO.C,C11*%
X5770000Y22000000D03*
X6730000Y22000000D03*
%TD*%
D10*
%TO.C,R21*%
X3000000Y10490000D03*
X3000000Y11510000D03*
%TD*%
D12*
%TO.C,SW3*%
X10000000Y5775000D03*
X10000000Y10225000D03*
%TD*%
D20*
%TO.C,R14*%
X7990000Y22250000D03*
X9010000Y22250000D03*
%TD*%
M02*
