%TF.GenerationSoftware,KiCad,Pcbnew,9.0.8+dfsg-1*%
%TF.CreationDate,2026-09-09T10:26:55+05:30*%
%TF.ProjectId,smove-r2-main,736d6f76-652d-4723-922d-6d61696e2e6b,rev?*%
%TF.SameCoordinates,Original*%
%TF.FileFunction,Copper,L1,Top*%
%TF.FilePolarity,Positive*%
%FSLAX46Y46*%
G04 Gerber Fmt 4.6, Leading zero omitted, Abs format (unit mm)*
G04 Created by KiCad (PCBNEW 9.0.8+dfsg-1) date 2026-09-09 10:26:55*
%MOMM*%
%LPD*%
G01*
G04 APERTURE LIST*
G04 Aperture macros list*
%AMRoundRect*
0 Rectangle with rounded corners*
0 $1 Rounding radius*
0 $2 $3 $4 $5 $6 $7 $8 $9 X,Y pos of 4 corners*
0 Add a 4 corners polygon primitive as box body*
4,1,4,$2,$3,$4,$5,$6,$7,$8,$9,$2,$3,0*
0 Add four circle primitives for the rounded corners*
1,1,$1+$1,$2,$3*
1,1,$1+$1,$4,$5*
1,1,$1+$1,$6,$7*
1,1,$1+$1,$8,$9*
0 Add four rect primitives between the rounded corners*
20,1,$1+$1,$2,$3,$4,$5,0*
20,1,$1+$1,$4,$5,$6,$7,0*
20,1,$1+$1,$6,$7,$8,$9,0*
20,1,$1+$1,$8,$9,$2,$3,0*%
%AMFreePoly0*
4,1,6,0.725000,-0.725000,-0.725000,-0.725000,-0.725000,0.125000,-0.125000,0.725000,0.725000,0.725000,0.725000,-0.725000,0.725000,-0.725000,$1*%
G04 Aperture macros list end*
%TA.AperFunction,SMDPad,CuDef*%
%ADD10RoundRect,0.135000X0.185000X-0.135000X0.185000X0.135000X-0.185000X0.135000X-0.185000X-0.135000X0*%
%TD*%
%TA.AperFunction,SMDPad,CuDef*%
%ADD11RoundRect,0.150000X-0.150000X0.512500X-0.150000X-0.512500X0.150000X-0.512500X0.150000X0.512500X0*%
%TD*%
%TA.AperFunction,SMDPad,CuDef*%
%ADD12RoundRect,0.157500X-0.367500X-0.842500X0.367500X-0.842500X0.367500X0.842500X-0.367500X0.842500X0*%
%TD*%
%TA.AperFunction,SMDPad,CuDef*%
%ADD13RoundRect,0.140000X0.170000X-0.140000X0.170000X0.140000X-0.170000X0.140000X-0.170000X-0.140000X0*%
%TD*%
%TA.AperFunction,SMDPad,CuDef*%
%ADD14RoundRect,0.135000X-0.135000X-0.185000X0.135000X-0.185000X0.135000X0.185000X-0.135000X0.185000X0*%
%TD*%
%TA.AperFunction,SMDPad,CuDef*%
%ADD15RoundRect,0.140000X-0.170000X0.140000X-0.170000X-0.140000X0.170000X-0.140000X0.170000X0.140000X0*%
%TD*%
%TA.AperFunction,SMDPad,CuDef*%
%ADD16R,0.850000X0.650000*%
%TD*%
%TA.AperFunction,SMDPad,CuDef*%
%ADD17RoundRect,0.050000X-0.050000X0.225000X-0.050000X-0.225000X0.050000X-0.225000X0.050000X0.225000X0*%
%TD*%
%TA.AperFunction,SMDPad,CuDef*%
%ADD18RoundRect,0.050000X-0.225000X-0.050000X0.225000X-0.050000X0.225000X0.050000X-0.225000X0.050000X0*%
%TD*%
%TA.AperFunction,SMDPad,CuDef*%
%ADD19RoundRect,0.140000X0.140000X0.170000X-0.140000X0.170000X-0.140000X-0.170000X0.140000X-0.170000X0*%
%TD*%
%TA.AperFunction,SMDPad,CuDef*%
%ADD20R,1.450000X0.600000*%
%TD*%
%TA.AperFunction,SMDPad,CuDef*%
%ADD21R,1.450000X0.300000*%
%TD*%
%TA.AperFunction,HeatsinkPad*%
%ADD22O,2.100000X1.000000*%
%TD*%
%TA.AperFunction,HeatsinkPad*%
%ADD23O,1.600000X1.000000*%
%TD*%
%TA.AperFunction,SMDPad,CuDef*%
%ADD24RoundRect,0.045000X-0.105000X0.380000X-0.105000X-0.380000X0.105000X-0.380000X0.105000X0.380000X0*%
%TD*%
%TA.AperFunction,SMDPad,CuDef*%
%ADD25RoundRect,0.250000X0.250000X0.475000X-0.250000X0.475000X-0.250000X-0.475000X0.250000X-0.475000X0*%
%TD*%
%TA.AperFunction,ComponentPad*%
%ADD26C,2.000000*%
%TD*%
%TA.AperFunction,SMDPad,CuDef*%
%ADD27RoundRect,0.150000X-0.512500X-0.150000X0.512500X-0.150000X0.512500X0.150000X-0.512500X0.150000X0*%
%TD*%
%TA.AperFunction,SMDPad,CuDef*%
%ADD28RoundRect,0.225000X-0.225000X-0.250000X0.225000X-0.250000X0.225000X0.250000X-0.225000X0.250000X0*%
%TD*%
%TA.AperFunction,SMDPad,CuDef*%
%ADD29RoundRect,0.225000X-0.250000X0.225000X-0.250000X-0.225000X0.250000X-0.225000X0.250000X0.225000X0*%
%TD*%
%TA.AperFunction,SMDPad,CuDef*%
%ADD30R,0.800000X0.400000*%
%TD*%
%TA.AperFunction,SMDPad,CuDef*%
%ADD31R,0.400000X0.800000*%
%TD*%
%TA.AperFunction,SMDPad,CuDef*%
%ADD32FreePoly0,0.000000*%
%TD*%
%TA.AperFunction,SMDPad,CuDef*%
%ADD33R,1.450000X1.450000*%
%TD*%
%TA.AperFunction,SMDPad,CuDef*%
%ADD34R,0.700000X0.700000*%
%TD*%
%TA.AperFunction,SMDPad,CuDef*%
%ADD35RoundRect,0.250000X0.475000X-0.250000X0.475000X0.250000X-0.475000X0.250000X-0.475000X-0.250000X0*%
%TD*%
%TA.AperFunction,SMDPad,CuDef*%
%ADD36RoundRect,0.150000X0.150000X-0.587500X0.150000X0.587500X-0.150000X0.587500X-0.150000X-0.587500X0*%
%TD*%
%TA.AperFunction,SMDPad,CuDef*%
%ADD37RoundRect,0.036000X-0.264000X-0.084000X0.264000X-0.084000X0.264000X0.084000X-0.264000X0.084000X0*%
%TD*%
%TA.AperFunction,SMDPad,CuDef*%
%ADD38RoundRect,0.036000X-0.084000X-0.264000X0.084000X-0.264000X0.084000X0.264000X-0.084000X0.264000X0*%
%TD*%
%TA.AperFunction,SMDPad,CuDef*%
%ADD39RoundRect,0.252000X-0.588000X-0.588000X0.588000X-0.588000X0.588000X0.588000X-0.588000X0.588000X0*%
%TD*%
%TA.AperFunction,SMDPad,CuDef*%
%ADD40RoundRect,0.250000X-0.250000X-0.475000X0.250000X-0.475000X0.250000X0.475000X-0.250000X0.475000X0*%
%TD*%
%TA.AperFunction,SMDPad,CuDef*%
%ADD41RoundRect,0.140000X-0.140000X-0.170000X0.140000X-0.170000X0.140000X0.170000X-0.140000X0.170000X0*%
%TD*%
%TA.AperFunction,ViaPad*%
%ADD42C,0.450000*%
%TD*%
%TA.AperFunction,ViaPad*%
%ADD43C,0.600000*%
%TD*%
%TA.AperFunction,Conductor*%
%ADD44C,0.250000*%
%TD*%
%TA.AperFunction,Conductor*%
%ADD45C,0.200000*%
%TD*%
%TA.AperFunction,Conductor*%
%ADD46C,0.150000*%
%TD*%
%TA.AperFunction,Conductor*%
%ADD47C,0.127000*%
%TD*%
G04 APERTURE END LIST*
D10*
%TO.P,R9,1*%
%TO.N,/3V3_MAIN*%
X23000000Y27990000D03*
%TO.P,R9,2*%
%TO.N,/Compute/STRAP2*%
X23000000Y29010000D03*
%TD*%
D11*
%TO.P,U5,1*%
%TO.N,/3V3_MAIN*%
X3950000Y19887500D03*
%TO.P,U5,2*%
%TO.N,GND*%
X3000000Y19887500D03*
%TO.P,U5,3*%
%TO.N,/3V3_MAIN*%
X2050000Y19887500D03*
%TO.P,U5,4*%
%TO.N,unconnected-(U5-NC-Pad4)*%
X2050000Y17612500D03*
%TO.P,U5,5*%
%TO.N,/IMU/1V8_IMU*%
X3950000Y17612500D03*
%TD*%
D12*
%TO.P,SW2,1*%
%TO.N,/Compute/MCU_EN*%
X19275000Y10950000D03*
%TO.P,SW2,2*%
%TO.N,GND*%
X23725000Y10950000D03*
%TD*%
D10*
%TO.P,R4,1*%
%TO.N,/USB_DP*%
X23000000Y25740000D03*
%TO.P,R4,2*%
%TO.N,/Compute/USB_DP_MCU*%
X23000000Y26760000D03*
%TD*%
D13*
%TO.P,C10,1*%
%TO.N,/Compute/MCU_EN*%
X7250000Y19770000D03*
%TO.P,C10,2*%
%TO.N,GND*%
X7250000Y20730000D03*
%TD*%
D14*
%TO.P,R17,1*%
%TO.N,/IMU/1V8_IMU*%
X6190000Y8100000D03*
%TO.P,R17,2*%
%TO.N,/IMU/SDA_1V8*%
X7210000Y8100000D03*
%TD*%
D15*
%TO.P,C8,1*%
%TO.N,/IMU/1V8_IMU*%
X9750000Y19980000D03*
%TO.P,C8,2*%
%TO.N,GND*%
X9750000Y19020000D03*
%TD*%
D16*
%TO.P,D1,1*%
%TO.N,/Compute/LED_R_K*%
X16125000Y7475000D03*
%TO.P,D1,2*%
%TO.N,/Compute/LED_G_K*%
X16125000Y8325000D03*
%TO.P,D1,3*%
%TO.N,/Compute/LED_B_K*%
X17575000Y8325000D03*
%TO.P,D1,4*%
%TO.N,/3V3_MAIN*%
X17575000Y7475000D03*
%TD*%
D17*
%TO.P,U2,1*%
%TO.N,unconnected-(U2-NC-Pad1)*%
X13500000Y19000000D03*
%TO.P,U2,2*%
%TO.N,unconnected-(U2-NC-Pad2)*%
X13100000Y19000000D03*
%TO.P,U2,3*%
%TO.N,unconnected-(U2-NC-Pad3)*%
X12700000Y19000000D03*
%TO.P,U2,4*%
%TO.N,unconnected-(U2-NC-Pad4)*%
X12300000Y19000000D03*
%TO.P,U2,5*%
%TO.N,unconnected-(U2-NC-Pad5)*%
X11900000Y19000000D03*
%TO.P,U2,6*%
%TO.N,unconnected-(U2-NC-Pad6)*%
X11500000Y19000000D03*
D18*
%TO.P,U2,7*%
%TO.N,unconnected-(U2-AUX_CL-Pad7)*%
X11000000Y18500000D03*
%TO.P,U2,8*%
%TO.N,/IMU/1V8_IMU*%
X11000000Y18100000D03*
%TO.P,U2,9*%
%TO.N,GND*%
X11000000Y17700000D03*
%TO.P,U2,10*%
%TO.N,/IMU/IMU_REGOUT*%
X11000000Y17300000D03*
%TO.P,U2,11*%
%TO.N,GND*%
X11000000Y16900000D03*
%TO.P,U2,12*%
%TO.N,unconnected-(U2-INT1-Pad12)*%
X11000000Y16500000D03*
D17*
%TO.P,U2,13*%
%TO.N,/IMU/1V8_IMU*%
X11500000Y16000000D03*
%TO.P,U2,14*%
%TO.N,unconnected-(U2-NC-Pad14)*%
X11900000Y16000000D03*
%TO.P,U2,15*%
%TO.N,unconnected-(U2-NC-Pad15)*%
X12300000Y16000000D03*
%TO.P,U2,16*%
%TO.N,unconnected-(U2-NC-Pad16)*%
X12700000Y16000000D03*
%TO.P,U2,17*%
%TO.N,unconnected-(U2-NC-Pad17)*%
X13100000Y16000000D03*
%TO.P,U2,18*%
%TO.N,GND*%
X13500000Y16000000D03*
D18*
%TO.P,U2,19*%
%TO.N,unconnected-(U2-RESV_NC-Pad19)*%
X14000000Y16500000D03*
%TO.P,U2,20*%
%TO.N,GND*%
X14000000Y16900000D03*
%TO.P,U2,21*%
%TO.N,unconnected-(U2-AUX_DA-Pad21)*%
X14000000Y17300000D03*
%TO.P,U2,22*%
%TO.N,/IMU/1V8_IMU*%
X14000000Y17700000D03*
%TO.P,U2,23*%
%TO.N,/IMU/SCL_1V8*%
X14000000Y18100000D03*
%TO.P,U2,24*%
%TO.N,/IMU/SDA_1V8*%
X14000000Y18500000D03*
%TD*%
D19*
%TO.P,C4,1*%
%TO.N,/3V3_MAIN*%
X6230000Y27000000D03*
%TO.P,C4,2*%
%TO.N,GND*%
X5270000Y27000000D03*
%TD*%
D14*
%TO.P,R5,1*%
%TO.N,/3V3_MAIN*%
X12490000Y13500000D03*
%TO.P,R5,2*%
%TO.N,/USB_POWER_N*%
X13510000Y13500000D03*
%TD*%
D20*
%TO.P,J1,A1*%
%TO.N,GND*%
X17055000Y14950000D03*
%TO.P,J1,A4*%
%TO.N,/VBUS*%
X17055000Y15750000D03*
D21*
%TO.P,J1,A5*%
%TO.N,/USB/CC1*%
X17055000Y16950000D03*
%TO.P,J1,A6*%
%TO.N,/USB_DP*%
X17055000Y17950000D03*
%TO.P,J1,A7*%
%TO.N,/USB_DM*%
X17055000Y18450000D03*
%TO.P,J1,A8*%
%TO.N,unconnected-(J1-SBU1-PadA8)*%
X17055000Y19450000D03*
D20*
%TO.P,J1,A9*%
%TO.N,/VBUS*%
X17055000Y20650000D03*
%TO.P,J1,A12*%
%TO.N,GND*%
X17055000Y21450000D03*
%TO.P,J1,B1*%
X17055000Y21450000D03*
%TO.P,J1,B4*%
%TO.N,/VBUS*%
X17055000Y20650000D03*
D21*
%TO.P,J1,B5*%
%TO.N,/USB/CC2*%
X17055000Y19950000D03*
%TO.P,J1,B6*%
%TO.N,/USB_DP*%
X17055000Y18950000D03*
%TO.P,J1,B7*%
%TO.N,/USB_DM*%
X17055000Y17450000D03*
%TO.P,J1,B8*%
%TO.N,unconnected-(J1-SBU2-PadB8)*%
X17055000Y16450000D03*
D20*
%TO.P,J1,B9*%
%TO.N,/VBUS*%
X17055000Y15750000D03*
%TO.P,J1,B12*%
%TO.N,GND*%
X17055000Y14950000D03*
D22*
%TO.P,J1,S1*%
X17970000Y13880000D03*
D23*
X22150000Y13880000D03*
D22*
X17970000Y22520000D03*
D23*
X22150000Y22520000D03*
%TD*%
D15*
%TO.P,C7,1*%
%TO.N,/IMU/1V8_IMU*%
X11250000Y14730000D03*
%TO.P,C7,2*%
%TO.N,GND*%
X11250000Y13770000D03*
%TD*%
D14*
%TO.P,R23,1*%
%TO.N,/Power/TS_NO_CELL_SENSING*%
X2740000Y10600000D03*
%TO.P,R23,2*%
%TO.N,GND*%
X3760000Y10600000D03*
%TD*%
D24*
%TO.P,U3,1*%
%TO.N,GND*%
X6000000Y15050000D03*
%TO.P,U3,2*%
%TO.N,/IMU/1V8_IMU*%
X5500000Y15050000D03*
%TO.P,U3,3*%
%TO.N,/IMU/SCL_1V8*%
X5000000Y15050000D03*
%TO.P,U3,4*%
%TO.N,/IMU/SDA_1V8*%
X4500000Y15050000D03*
%TO.P,U3,5*%
%TO.N,/SDA_HOST*%
X4500000Y11950000D03*
%TO.P,U3,6*%
%TO.N,/SCL_HOST*%
X5000000Y11950000D03*
%TO.P,U3,7*%
%TO.N,/IMU/I2C_BIAS*%
X5500000Y11950000D03*
%TO.P,U3,8*%
X6000000Y11950000D03*
%TD*%
D19*
%TO.P,C9,1*%
%TO.N,/IMU/IMU_REGOUT*%
X9730000Y17250000D03*
%TO.P,C9,2*%
%TO.N,GND*%
X8770000Y17250000D03*
%TD*%
D14*
%TO.P,R3,1*%
%TO.N,/USB_DM*%
X21740000Y24500000D03*
%TO.P,R3,2*%
%TO.N,/Compute/USB_DM_MCU*%
X22760000Y24500000D03*
%TD*%
%TO.P,R18,1*%
%TO.N,/3V3_MAIN*%
X7490000Y18500000D03*
%TO.P,R18,2*%
%TO.N,/SCL_HOST*%
X8510000Y18500000D03*
%TD*%
D10*
%TO.P,R2,1*%
%TO.N,/USB/CC2*%
X16800000Y11190000D03*
%TO.P,R2,2*%
%TO.N,GND*%
X16800000Y12210000D03*
%TD*%
%TO.P,R15,1*%
%TO.N,/BAT_ADC*%
X10750000Y21740000D03*
%TO.P,R15,2*%
%TO.N,GND*%
X10750000Y22760000D03*
%TD*%
D25*
%TO.P,C3,1*%
%TO.N,/3V3_MAIN*%
X3700000Y26750000D03*
%TO.P,C3,2*%
%TO.N,GND*%
X1800000Y26750000D03*
%TD*%
D10*
%TO.P,R7,1*%
%TO.N,/3V3_MAIN*%
X2750000Y13240000D03*
%TO.P,R7,2*%
%TO.N,/Compute/MCU_EN*%
X2750000Y14260000D03*
%TD*%
D26*
%TO.P,J2,1*%
%TO.N,/Power/PACK_P*%
X4500000Y29430000D03*
%TO.P,J2,2*%
%TO.N,GND*%
X4500000Y31970000D03*
%TD*%
D27*
%TO.P,U4,1*%
%TO.N,/Power/SYS*%
X1862500Y24700000D03*
%TO.P,U4,2*%
%TO.N,GND*%
X1862500Y23750000D03*
%TO.P,U4,3*%
%TO.N,/Power/SYS*%
X1862500Y22800000D03*
%TO.P,U4,4*%
%TO.N,unconnected-(U4-NC-Pad4)*%
X4137500Y22800000D03*
%TO.P,U4,5*%
%TO.N,/3V3_MAIN*%
X4137500Y24700000D03*
%TD*%
D10*
%TO.P,R8,1*%
%TO.N,/3V3_MAIN*%
X21750000Y25740000D03*
%TO.P,R8,2*%
%TO.N,Net-(U1-GPIO9_{slash}_BOOT)*%
X21750000Y26760000D03*
%TD*%
D28*
%TO.P,C5,1*%
%TO.N,/3V3_MAIN*%
X1225000Y15750000D03*
%TO.P,C5,2*%
%TO.N,GND*%
X2775000Y15750000D03*
%TD*%
D29*
%TO.P,C6,1*%
%TO.N,/IMU/1V8_IMU*%
X5750000Y19525000D03*
%TO.P,C6,2*%
%TO.N,GND*%
X5750000Y17975000D03*
%TD*%
D30*
%TO.P,U1,1*%
%TO.N,GND*%
X8300000Y33400000D03*
%TO.P,U1,2*%
X8300000Y32600000D03*
%TO.P,U1,3*%
%TO.N,/3V3_MAIN*%
X8300000Y31800000D03*
%TO.P,U1,4*%
%TO.N,unconnected-(U1-NC-Pad4)*%
X8300000Y31000000D03*
%TO.P,U1,5*%
%TO.N,/Compute/STRAP2*%
X8300000Y30200000D03*
%TO.P,U1,6*%
%TO.N,unconnected-(U1-GPIO3-Pad6)*%
X8300000Y29400000D03*
%TO.P,U1,7*%
%TO.N,unconnected-(U1-NC-Pad7)*%
X8300000Y28600000D03*
%TO.P,U1,8*%
%TO.N,/Compute/MCU_EN*%
X8300000Y27800000D03*
%TO.P,U1,9*%
%TO.N,unconnected-(U1-NC-Pad9)*%
X8300000Y27000000D03*
%TO.P,U1,10*%
%TO.N,unconnected-(U1-NC-Pad10)*%
X8300000Y26200000D03*
%TO.P,U1,11*%
%TO.N,GND*%
X8300000Y25400000D03*
D31*
%TO.P,U1,12*%
%TO.N,/BAT_ADC*%
X9400000Y24500000D03*
%TO.P,U1,13*%
%TO.N,/USB_POWER_N*%
X10200000Y24500000D03*
%TO.P,U1,14*%
%TO.N,GND*%
X11000000Y24500000D03*
%TO.P,U1,15*%
%TO.N,unconnected-(U1-NC-Pad15)*%
X11800000Y24500000D03*
%TO.P,U1,16*%
%TO.N,/Compute/LED_B*%
X12600000Y24500000D03*
%TO.P,U1,17*%
%TO.N,unconnected-(U1-NC-Pad17)*%
X13400000Y24500000D03*
%TO.P,U1,18*%
%TO.N,/SCL_HOST*%
X14200000Y24500000D03*
%TO.P,U1,19*%
%TO.N,/SDA_HOST*%
X15000000Y24500000D03*
%TO.P,U1,20*%
%TO.N,/Compute/LED_R*%
X15800000Y24500000D03*
%TO.P,U1,21*%
%TO.N,/Compute/LED_G*%
X16600000Y24500000D03*
%TO.P,U1,22*%
%TO.N,/Compute/STRAP8*%
X17400000Y24500000D03*
%TO.P,U1,23*%
%TO.N,Net-(U1-GPIO9_{slash}_BOOT)*%
X18200000Y24500000D03*
%TO.P,U1,24*%
%TO.N,unconnected-(U1-NC-Pad24)*%
X19000000Y24500000D03*
D30*
%TO.P,U1,25*%
%TO.N,unconnected-(U1-NC-Pad25)*%
X20100000Y25400000D03*
%TO.P,U1,26*%
%TO.N,/Compute/USB_DM_MCU*%
X20100000Y26200000D03*
%TO.P,U1,27*%
%TO.N,/Compute/USB_DP_MCU*%
X20100000Y27000000D03*
%TO.P,U1,28*%
%TO.N,unconnected-(U1-NC-Pad28)*%
X20100000Y27800000D03*
%TO.P,U1,29*%
%TO.N,unconnected-(U1-NC-Pad29)*%
X20100000Y28600000D03*
%TO.P,U1,30*%
%TO.N,unconnected-(U1-GPIO20_{slash}_RX-Pad30)*%
X20100000Y29400000D03*
%TO.P,U1,31*%
%TO.N,unconnected-(U1-GPIO21_{slash}_TX-Pad31)*%
X20100000Y30200000D03*
%TO.P,U1,32*%
%TO.N,unconnected-(U1-NC-Pad32)*%
X20100000Y31000000D03*
%TO.P,U1,33*%
%TO.N,unconnected-(U1-NC-Pad33)*%
X20100000Y31800000D03*
%TO.P,U1,34*%
%TO.N,unconnected-(U1-NC-Pad34)*%
X20100000Y32600000D03*
%TO.P,U1,35*%
%TO.N,unconnected-(U1-NC-Pad35)*%
X20100000Y33400000D03*
D31*
%TO.P,U1,36*%
%TO.N,GND*%
X19000000Y34300000D03*
%TO.P,U1,37*%
X18200000Y34300000D03*
%TO.P,U1,38*%
X17400000Y34300000D03*
%TO.P,U1,39*%
X16600000Y34300000D03*
%TO.P,U1,40*%
X15800000Y34300000D03*
%TO.P,U1,41*%
X15000000Y34300000D03*
%TO.P,U1,42*%
X14200000Y34300000D03*
%TO.P,U1,43*%
X13400000Y34300000D03*
%TO.P,U1,44*%
X12600000Y34300000D03*
%TO.P,U1,45*%
X11800000Y34300000D03*
%TO.P,U1,46*%
X11000000Y34300000D03*
%TO.P,U1,47*%
X10200000Y34300000D03*
%TO.P,U1,48*%
X9400000Y34300000D03*
D32*
%TO.P,U1,49*%
X12225000Y31375000D03*
D33*
X12225000Y29400000D03*
X12225000Y27425000D03*
X14200000Y31375000D03*
X14200000Y29400000D03*
X14200000Y27425000D03*
X16175000Y31375000D03*
X16175000Y29400000D03*
X16175000Y27425000D03*
D34*
%TO.P,U1,50*%
X20150000Y34350000D03*
%TO.P,U1,51*%
X20150000Y24450000D03*
%TO.P,U1,52*%
X8250000Y24450000D03*
%TO.P,U1,53*%
X8250000Y34350000D03*
%TD*%
D28*
%TO.P,C1,1*%
%TO.N,/VBUS*%
X5725000Y9500000D03*
%TO.P,C1,2*%
%TO.N,GND*%
X7275000Y9500000D03*
%TD*%
D10*
%TO.P,R10,1*%
%TO.N,/3V3_MAIN*%
X8500000Y19990000D03*
%TO.P,R10,2*%
%TO.N,/Compute/STRAP8*%
X8500000Y21010000D03*
%TD*%
D35*
%TO.P,C13,1*%
%TO.N,/Power/SYS*%
X6250000Y23550000D03*
%TO.P,C13,2*%
%TO.N,GND*%
X6250000Y25450000D03*
%TD*%
D14*
%TO.P,R13,1*%
%TO.N,/Compute/LED_B*%
X16590000Y5750000D03*
%TO.P,R13,2*%
%TO.N,/Compute/LED_B_K*%
X17610000Y5750000D03*
%TD*%
%TO.P,R22,1*%
%TO.N,/Power/CHG_ILIM*%
X1540000Y5750000D03*
%TO.P,R22,2*%
%TO.N,GND*%
X2560000Y5750000D03*
%TD*%
D10*
%TO.P,R20,1*%
%TO.N,/3V3_MAIN*%
X1500000Y12490000D03*
%TO.P,R20,2*%
%TO.N,/IMU/I2C_BIAS*%
X1500000Y13510000D03*
%TD*%
D14*
%TO.P,R19,1*%
%TO.N,/3V3_MAIN*%
X12740000Y14750000D03*
%TO.P,R19,2*%
%TO.N,/SDA_HOST*%
X13760000Y14750000D03*
%TD*%
D36*
%TO.P,U9,1*%
%TO.N,/USB/CC1*%
X7550000Y13812500D03*
%TO.P,U9,2*%
%TO.N,/USB/CC2*%
X9450000Y13812500D03*
%TO.P,U9,3*%
%TO.N,GND*%
X8500000Y15687500D03*
%TD*%
D37*
%TO.P,U6,1*%
%TO.N,/Power/TS_NO_CELL_SENSING*%
X1350000Y8900000D03*
%TO.P,U6,2*%
%TO.N,/Power/PACK_P*%
X1350000Y8400000D03*
%TO.P,U6,3*%
X1350000Y7900000D03*
%TO.P,U6,4*%
%TO.N,GND*%
X1350000Y7400000D03*
D38*
%TO.P,U6,5*%
X2000000Y6750000D03*
%TO.P,U6,6*%
X2500000Y6750000D03*
%TO.P,U6,7*%
%TO.N,/USB_POWER_N*%
X3000000Y6750000D03*
%TO.P,U6,8*%
%TO.N,GND*%
X3500000Y6750000D03*
D37*
%TO.P,U6,9*%
%TO.N,unconnected-(U6-CHG_N-Pad9)*%
X4150000Y7400000D03*
%TO.P,U6,10*%
%TO.N,/Power/SYS*%
X4150000Y7900000D03*
%TO.P,U6,11*%
X4150000Y8400000D03*
%TO.P,U6,12*%
%TO.N,/Power/CHG_ILIM*%
X4150000Y8900000D03*
D38*
%TO.P,U6,13*%
%TO.N,/VBUS*%
X3500000Y9550000D03*
%TO.P,U6,14*%
%TO.N,unconnected-(U6-TMR-Pad14)*%
X3000000Y9550000D03*
%TO.P,U6,15*%
%TO.N,unconnected-(U6-ITERM-Pad15)*%
X2500000Y9550000D03*
%TO.P,U6,16*%
%TO.N,/Power/CHG_ISET*%
X2000000Y9550000D03*
D39*
%TO.P,U6,17*%
%TO.N,GND*%
X2750000Y8150000D03*
%TD*%
D14*
%TO.P,R12,1*%
%TO.N,/Compute/LED_G*%
X16890000Y9800000D03*
%TO.P,R12,2*%
%TO.N,/Compute/LED_G_K*%
X17910000Y9800000D03*
%TD*%
D27*
%TO.P,U8,1*%
%TO.N,/USB_DM*%
X12362500Y22450000D03*
%TO.P,U8,2*%
%TO.N,GND*%
X12362500Y21500000D03*
%TO.P,U8,3*%
%TO.N,/USB_DP*%
X12362500Y20550000D03*
%TO.P,U8,4*%
X14637500Y20550000D03*
%TO.P,U8,5*%
%TO.N,/VBUS*%
X14637500Y21500000D03*
%TO.P,U8,6*%
%TO.N,/USB_DM*%
X14637500Y22450000D03*
%TD*%
D10*
%TO.P,R11,1*%
%TO.N,/Compute/LED_R*%
X17900000Y11240000D03*
%TO.P,R11,2*%
%TO.N,/Compute/LED_R_K*%
X17900000Y12260000D03*
%TD*%
%TO.P,R1,1*%
%TO.N,/USB/CC1*%
X15000000Y12990000D03*
%TO.P,R1,2*%
%TO.N,GND*%
X15000000Y14010000D03*
%TD*%
D40*
%TO.P,C2,1*%
%TO.N,/Power/PACK_P*%
X5400000Y6400000D03*
%TO.P,C2,2*%
%TO.N,GND*%
X7300000Y6400000D03*
%TD*%
D14*
%TO.P,R16,1*%
%TO.N,/IMU/1V8_IMU*%
X14290000Y5750000D03*
%TO.P,R16,2*%
%TO.N,/IMU/SCL_1V8*%
X15310000Y5750000D03*
%TD*%
D41*
%TO.P,C11,1*%
%TO.N,/BAT_ADC*%
X5770000Y22000000D03*
%TO.P,C11,2*%
%TO.N,GND*%
X6730000Y22000000D03*
%TD*%
D10*
%TO.P,R21,1*%
%TO.N,/Power/CHG_ISET*%
X1500000Y10490000D03*
%TO.P,R21,2*%
%TO.N,GND*%
X1500000Y11510000D03*
%TD*%
D12*
%TO.P,SW3,1*%
%TO.N,Net-(U1-GPIO9_{slash}_BOOT)*%
X18825000Y7000000D03*
%TO.P,SW3,2*%
%TO.N,GND*%
X23275000Y7000000D03*
%TD*%
D14*
%TO.P,R14,1*%
%TO.N,/Power/PACK_P*%
X7990000Y22250000D03*
%TO.P,R14,2*%
%TO.N,/BAT_ADC*%
X9010000Y22250000D03*
%TD*%
D42*
%TO.N,/3V3_MAIN*%
X4600000Y19850000D03*
X6850000Y18350000D03*
X9700000Y12550000D03*
X17800000Y6800000D03*
X22300000Y26200000D03*
X8100000Y16950000D03*
D43*
%TO.N,/BAT_ADC*%
X9435900Y23223900D03*
X5016600Y21919200D03*
%TO.N,/USB/CC1*%
X8329700Y13224000D03*
X18259700Y16737800D03*
X15858700Y13383000D03*
X14206100Y12661600D03*
D42*
%TO.N,/USB/CC2*%
X16100000Y12350000D03*
X16000000Y19800000D03*
X16250000Y12800000D03*
X8850000Y14600000D03*
X15050000Y16900000D03*
%TO.N,/Power/CHG_ILIM*%
X4800000Y8900000D03*
X1500000Y6400000D03*
%TO.N,/Compute/LED_B*%
X16100000Y6250000D03*
X15250000Y25500000D03*
%TO.N,/Compute/LED_G*%
X16950000Y23800000D03*
X17550000Y10450000D03*
%TO.N,/Compute/LED_R*%
X18550000Y12650000D03*
X16050000Y23750000D03*
%TO.N,/Compute/MCU_EN*%
X7950000Y20500000D03*
X7800000Y21400000D03*
X19900000Y12250000D03*
X12550000Y25450000D03*
X13950000Y25450000D03*
X3600000Y16100000D03*
X7550000Y26550000D03*
%TO.N,/Power/PACK_P*%
X4550000Y6400000D03*
X8100000Y22900000D03*
X700000Y7900000D03*
X950000Y11000000D03*
D43*
%TO.N,/Compute/STRAP2*%
X23000000Y30466200D03*
X9175000Y30375000D03*
%TO.N,/Compute/STRAP8*%
X17344200Y26143300D03*
X9248900Y21438700D03*
%TO.N,/Power/SYS*%
X1975000Y21354100D03*
X6245000Y7304000D03*
X4934400Y23784000D03*
%TO.N,/Power/TS_NO_CELL_SENSING*%
X2291500Y11333300D03*
X1326600Y9553100D03*
%TO.N,/USB_DM*%
X19540700Y16910400D03*
X18403500Y18458300D03*
%TO.N,/Compute/USB_DP_MCU*%
X20968400Y27539700D03*
X23599800Y27359800D03*
D42*
%TO.N,/USB_POWER_N*%
X8500000Y6650000D03*
X14150000Y13450000D03*
X11150000Y20250000D03*
X4000000Y5750000D03*
X10200000Y23750000D03*
D43*
%TO.N,/VBUS*%
X15824800Y20821800D03*
X6339500Y10669200D03*
X15581400Y16435200D03*
%TO.N,GND*%
X11800000Y33434800D03*
D42*
X2750000Y16750000D03*
X803900Y24354900D03*
X20000000Y23500000D03*
X15750000Y21750000D03*
X21250000Y23250000D03*
X8500000Y6000000D03*
X750000Y6750000D03*
%TO.N,/IMU/1V8_IMU*%
X15000000Y17700000D03*
X5200000Y15850000D03*
X10650000Y19000000D03*
X10400000Y20000000D03*
X10350000Y18300000D03*
X11700000Y19650000D03*
X6150000Y20300000D03*
X4950000Y19100000D03*
X5550000Y7900000D03*
X11050000Y16000000D03*
X8050000Y5500000D03*
X4600000Y18100000D03*
X5700000Y8600000D03*
%TO.N,/IMU/SCL_1V8*%
X15100000Y18300000D03*
X19200000Y23700000D03*
X14600000Y25500000D03*
X5950000Y20900000D03*
X13650000Y21900000D03*
X15300000Y7400000D03*
X6400000Y15750000D03*
D43*
%TO.N,/IMU/SDA_1V8*%
X6231500Y13381400D03*
X14000000Y19762800D03*
%TO.N,/SCL_HOST*%
X5477400Y13052600D03*
X14200000Y23304300D03*
X9624000Y20731200D03*
%TO.N,/SDA_HOST*%
X15377200Y23615500D03*
X14598600Y15294700D03*
X4712900Y13075000D03*
D42*
%TO.N,Net-(U1-GPIO9_{slash}_BOOT)*%
X18550000Y23800000D03*
X21100000Y26600000D03*
X19300000Y25300000D03*
X19400000Y8350000D03*
%TD*%
D44*
%TO.N,/3V3_MAIN*%
X4500000Y19850000D02*
X4600000Y19850000D01*
X7000000Y28700000D02*
X7000000Y28600000D01*
X11100000Y13050000D02*
X11300000Y13050000D01*
X11350000Y13100000D02*
X11650000Y13100000D01*
X7000000Y13050000D02*
X6950000Y13100000D01*
X7450000Y18350000D02*
X7450000Y18450000D01*
X5000000Y27600000D02*
X5550000Y27600000D01*
X9950000Y12600000D02*
X10000000Y12650000D01*
X17750000Y6850000D02*
X17800000Y6800000D01*
X3850000Y24000000D02*
X3850000Y24050000D01*
X8450000Y12650000D02*
X8400000Y12600000D01*
X8550000Y12650000D02*
X8450000Y12650000D01*
X11800000Y13450000D02*
X11800000Y13400000D01*
X7350000Y29450000D02*
X7350000Y29400000D01*
X7300000Y29350000D02*
X7300000Y29300000D01*
X3700000Y23750000D02*
X3750000Y23800000D01*
X7350000Y12750000D02*
X7300000Y12800000D01*
X12050000Y13300000D02*
X12100000Y13300000D01*
X7150000Y17700000D02*
X7150000Y17750000D01*
X7350000Y12750000D02*
X7300000Y12800000D01*
X7000000Y28600000D02*
X6950000Y28550000D01*
X11900000Y13250000D02*
X12000000Y13250000D01*
X1750000Y14100000D02*
X1800000Y14050000D01*
X4050000Y24450000D02*
X4050000Y24500000D01*
X7400000Y29500000D02*
X7350000Y29450000D01*
X1500000Y12600000D02*
X900000Y13200000D01*
X7550000Y29900000D02*
X7550000Y29850000D01*
X3800000Y23900000D02*
X3800000Y23950000D01*
X3850000Y20100000D02*
X3900000Y20050000D01*
X10300000Y12800000D02*
X10350000Y12800000D01*
X22250000Y26350000D02*
X22350000Y26450000D01*
X7900000Y16400000D02*
X7950000Y16450000D01*
X11550000Y13200000D02*
X10200000Y13200000D01*
X6950000Y14550000D02*
X7050000Y14650000D01*
X3300000Y20850000D02*
X3400000Y20750000D01*
X3750000Y26650000D02*
X3750000Y26700000D01*
X3800000Y20250000D02*
X3800000Y20200000D01*
X22400000Y26650000D02*
X22400000Y27050000D01*
X8100000Y12650000D02*
X8050000Y12700000D01*
X1150000Y14050000D02*
X1200000Y14050000D01*
X10650000Y12900000D02*
X10700000Y12950000D01*
X7650000Y18850000D02*
X7650000Y18800000D01*
X7400000Y18250000D02*
X7400000Y18300000D01*
X2600000Y20750000D02*
X2700000Y20850000D01*
X7000000Y17450000D02*
X7050000Y17500000D01*
X7100000Y28850000D02*
X7050000Y28800000D01*
X1200000Y15750000D02*
X1700000Y15250000D01*
X22750000Y27500000D02*
X22800000Y27550000D01*
X6500000Y27500000D02*
X6450000Y27450000D01*
X3700000Y20400000D02*
X3750000Y20350000D01*
X7200000Y17850000D02*
X7250000Y17900000D01*
X7300000Y18050000D02*
X7300000Y18100000D01*
X6600000Y27750000D02*
X6550000Y27700000D01*
X11800000Y13200000D02*
X11850000Y13200000D01*
X7250000Y18400000D02*
X7300000Y18400000D01*
X4250000Y26900000D02*
X4900000Y27550000D01*
X10850000Y13000000D02*
X11050000Y13000000D01*
X10350000Y12800000D02*
X10400000Y12850000D01*
X8400000Y12600000D02*
X8250000Y12600000D01*
X21800000Y25800000D02*
X21750000Y25750000D01*
X12650000Y14550000D02*
X12700000Y14600000D01*
X11700000Y13150000D02*
X11750000Y13150000D01*
X3850000Y26750000D02*
X4000000Y26900000D01*
X950000Y13900000D02*
X1050000Y14000000D01*
X7000000Y17350000D02*
X7000000Y17450000D01*
X4000000Y24400000D02*
X4050000Y24450000D01*
X8000000Y12700000D02*
X7950000Y12750000D01*
X7450000Y29650000D02*
X7450000Y29600000D01*
X6400000Y27300000D02*
X6350000Y27250000D01*
X3200000Y22550000D02*
X3150000Y22600000D01*
X3900000Y19950000D02*
X3950000Y19900000D01*
X3650000Y23600000D02*
X3650000Y23650000D01*
X7250000Y29150000D02*
X7200000Y29100000D01*
X8650000Y12700000D02*
X8600000Y12700000D01*
X12250000Y13400000D02*
X12300000Y13400000D01*
X22900000Y27750000D02*
X22900000Y27800000D01*
X3950000Y19900000D02*
X4450000Y19900000D01*
X1500000Y18350000D02*
X1500000Y18300000D01*
X22800000Y27600000D02*
X22850000Y27650000D01*
X9650000Y12750000D02*
X8700000Y12750000D01*
X21750000Y25750000D02*
X22200000Y26200000D01*
X3400000Y20750000D02*
X3450000Y20750000D01*
X6600000Y27800000D02*
X6600000Y27750000D01*
X6850000Y18350000D02*
X7200000Y18350000D01*
X22750000Y27450000D02*
X22750000Y27500000D01*
X3700000Y20500000D02*
X3700000Y20400000D01*
X22250000Y26300000D02*
X22250000Y26350000D01*
X5600000Y27550000D02*
X5650000Y27550000D01*
X5650000Y27550000D02*
X6150000Y27050000D01*
X7450000Y18450000D02*
X7500000Y18500000D01*
X3800000Y20200000D02*
X3850000Y20150000D01*
X12750000Y14750000D02*
X12750000Y14600000D01*
X6550000Y27700000D02*
X6550000Y27650000D01*
X8100000Y16650000D02*
X8100000Y16950000D01*
X11850000Y13200000D02*
X11900000Y13250000D01*
X7450000Y18450000D02*
X7500000Y18500000D01*
X8600000Y12700000D02*
X8550000Y12650000D01*
X6900000Y28400000D02*
X6850000Y28350000D01*
X12600000Y13900000D02*
X12600000Y14250000D01*
X6550000Y27650000D02*
X6500000Y27600000D01*
X6950000Y13100000D02*
X6950000Y17300000D01*
X3200000Y23050000D02*
X3200000Y23150000D01*
X3900000Y20050000D02*
X3900000Y19950000D01*
X12750000Y14600000D02*
X12600000Y14450000D01*
X6700000Y28000000D02*
X6700000Y27950000D01*
X22850000Y27700000D02*
X22900000Y27750000D01*
X7750000Y19000000D02*
X7700000Y18950000D01*
X7100000Y17650000D02*
X7150000Y17700000D01*
X6450000Y27400000D02*
X6400000Y27350000D01*
X1300000Y15950000D02*
X1250000Y15900000D01*
X7900000Y19350000D02*
X7850000Y19300000D01*
X3450000Y20750000D02*
X3700000Y20500000D01*
X7950000Y16500000D02*
X8100000Y16650000D01*
X7150000Y29000000D02*
X7150000Y28950000D01*
X22950000Y27950000D02*
X23000000Y28000000D01*
X10000000Y12650000D02*
X10050000Y12650000D01*
X6950000Y13100000D02*
X6950000Y14550000D01*
X12150000Y13350000D02*
X12200000Y13350000D01*
X2500000Y20650000D02*
X2500000Y20700000D01*
X6950000Y17300000D02*
X7000000Y17350000D01*
X6500000Y27600000D02*
X6500000Y27500000D01*
X7200000Y12800000D02*
X7000000Y13000000D01*
X11650000Y13250000D02*
X11600000Y13250000D01*
X8000000Y31500000D02*
X7800000Y31500000D01*
X2700000Y13350000D02*
X2700000Y13300000D01*
X12750000Y14750000D02*
X12350000Y14350000D01*
X3950000Y24250000D02*
X3950000Y24300000D01*
X7200000Y29100000D02*
X7200000Y29050000D01*
X11850000Y13500000D02*
X11800000Y13450000D01*
X4450000Y19900000D02*
X4500000Y19850000D01*
X11850000Y13800000D02*
X11850000Y13500000D01*
X7050000Y17500000D02*
X7050000Y17550000D01*
X8250000Y12600000D02*
X8200000Y12650000D01*
X10150000Y12700000D02*
X10200000Y12750000D01*
X22800000Y27550000D02*
X22800000Y27600000D01*
X10400000Y12850000D02*
X10500000Y12850000D01*
X12100000Y13300000D02*
X12150000Y13350000D01*
X7200000Y29050000D02*
X7150000Y29000000D01*
X12650000Y14300000D02*
X12650000Y14550000D01*
X7050000Y17550000D02*
X7100000Y17600000D01*
X1450000Y18250000D02*
X1450000Y16250000D01*
X2650000Y13300000D02*
X2700000Y13300000D01*
X6750000Y28150000D02*
X6750000Y28050000D01*
X7600000Y18700000D02*
X7550000Y18650000D01*
X4900000Y27550000D02*
X4950000Y27550000D01*
X4150000Y24700000D02*
X4150000Y25800000D01*
X4100000Y25850000D02*
X4100000Y26300000D01*
X9700000Y12800000D02*
X9650000Y12750000D01*
X11600000Y13250000D02*
X11550000Y13200000D01*
X6650000Y27900000D02*
X6650000Y27850000D01*
X1850000Y14050000D02*
X1900000Y14000000D01*
X7250000Y18000000D02*
X7300000Y18050000D01*
X7000000Y13050000D02*
X6950000Y13100000D01*
X10700000Y12950000D02*
X10800000Y12950000D01*
X7350000Y18450000D02*
X7450000Y18450000D01*
X10200000Y12750000D02*
X10250000Y12750000D01*
X3900000Y24100000D02*
X3900000Y24200000D01*
X7700000Y18900000D02*
X7650000Y18850000D01*
X8200000Y12650000D02*
X8100000Y12650000D01*
X7600000Y29950000D02*
X7550000Y29900000D01*
X7150000Y17750000D02*
X7200000Y17800000D01*
X8600000Y12700000D02*
X8550000Y12650000D01*
X1250000Y14100000D02*
X1750000Y14100000D01*
X2500000Y20700000D02*
X2550000Y20750000D01*
X1250000Y15800000D02*
X1200000Y15750000D01*
X3750000Y23800000D02*
X3750000Y23850000D01*
X7000000Y13000000D02*
X7000000Y13050000D01*
X1300000Y16000000D02*
X1300000Y15950000D01*
X4000000Y24350000D02*
X4000000Y24400000D01*
X8200000Y12650000D02*
X8100000Y12650000D01*
X3700000Y26750000D02*
X3850000Y26750000D01*
X7350000Y18150000D02*
X7350000Y18200000D01*
X3850000Y24050000D02*
X3900000Y24100000D01*
X12600000Y14250000D02*
X12650000Y14300000D01*
X12600000Y14200000D02*
X11650000Y13250000D01*
X9900000Y12600000D02*
X9950000Y12600000D01*
X22350000Y26600000D02*
X22400000Y26650000D01*
X3850000Y20150000D02*
X3850000Y20100000D01*
X6950000Y28500000D02*
X6900000Y28450000D01*
X7300000Y12800000D02*
X7200000Y12800000D01*
X3200000Y22450000D02*
X3200000Y22550000D01*
X7100000Y28900000D02*
X7100000Y28850000D01*
X7500000Y29700000D02*
X7450000Y29650000D01*
X22450000Y27150000D02*
X22750000Y27450000D01*
X7850000Y19300000D02*
X7850000Y19250000D01*
X2400000Y20250000D02*
X2400000Y20550000D01*
X4950000Y27550000D02*
X5000000Y27600000D01*
X7300000Y18400000D02*
X7350000Y18450000D01*
X12700000Y14700000D02*
X12750000Y14750000D01*
X3950000Y19900000D02*
X3950000Y21700000D01*
X8100000Y12650000D02*
X8050000Y12700000D01*
X22950000Y27850000D02*
X22950000Y27950000D01*
X7050000Y14700000D02*
X7900000Y15550000D01*
X7550000Y29850000D02*
X7500000Y29800000D01*
X7950000Y16450000D02*
X7950000Y16500000D01*
X1700000Y15250000D02*
X1700000Y14350000D01*
X22900000Y27800000D02*
X22950000Y27850000D01*
X1900000Y18750000D02*
X1500000Y18350000D01*
X12000000Y13250000D02*
X12050000Y13300000D01*
X7600000Y18750000D02*
X7600000Y18700000D01*
X8450000Y12650000D02*
X8400000Y12600000D01*
X12700000Y14600000D02*
X12700000Y14700000D01*
X950000Y13850000D02*
X950000Y13900000D01*
X8050000Y12700000D02*
X8000000Y12700000D01*
X10550000Y12900000D02*
X10650000Y12900000D01*
X1900000Y19100000D02*
X1900000Y18750000D01*
X9700000Y12550000D02*
X9850000Y12550000D01*
X1050000Y14000000D02*
X1100000Y14000000D01*
X22850000Y27650000D02*
X22850000Y27700000D01*
X7550000Y18550000D02*
X7500000Y18500000D01*
X11650000Y13100000D02*
X11700000Y13150000D01*
X4100000Y24650000D02*
X4150000Y24700000D01*
X17750000Y7200000D02*
X17750000Y6850000D01*
X7900000Y15550000D02*
X7900000Y16400000D01*
X22450000Y27100000D02*
X22450000Y27150000D01*
X7800000Y19200000D02*
X7800000Y19150000D01*
X3750000Y20300000D02*
X3800000Y20250000D01*
X11650000Y13250000D02*
X11600000Y13250000D01*
X7800000Y31500000D02*
X7600000Y31300000D01*
X6450000Y27450000D02*
X6450000Y27400000D01*
X4050000Y24500000D02*
X4100000Y24550000D01*
X6950000Y28550000D02*
X6950000Y28500000D01*
X12500000Y13500000D02*
X12500000Y13800000D01*
X3950000Y24300000D02*
X4000000Y24350000D01*
X12450000Y13450000D02*
X12500000Y13500000D01*
X6750000Y28050000D02*
X6700000Y28000000D01*
X900000Y13200000D02*
X900000Y13800000D01*
X8000000Y12700000D02*
X7950000Y12750000D01*
X7300000Y29300000D02*
X7250000Y29250000D01*
X8300000Y31800000D02*
X8000000Y31500000D01*
X17600000Y7350000D02*
X17750000Y7200000D01*
X8550000Y12650000D02*
X8450000Y12650000D01*
X3150000Y22600000D02*
X3150000Y23000000D01*
X3750000Y26700000D02*
X3700000Y26750000D01*
X2400000Y20550000D02*
X2500000Y20650000D01*
X3750000Y20350000D02*
X3750000Y20300000D01*
X9700000Y12800000D02*
X9650000Y12750000D01*
X5550000Y27600000D02*
X5600000Y27550000D01*
X3900000Y24200000D02*
X3950000Y24250000D01*
X3700000Y23700000D02*
X3700000Y23750000D01*
X7250000Y29250000D02*
X7250000Y29150000D01*
X2050000Y19900000D02*
X2400000Y20250000D01*
X7550000Y18650000D02*
X7550000Y18550000D01*
X9800000Y12800000D02*
X9700000Y12800000D01*
X7600000Y31300000D02*
X7600000Y29950000D01*
X11750000Y13150000D02*
X11800000Y13200000D01*
X1350000Y16050000D02*
X1300000Y16000000D01*
X7050000Y14650000D02*
X7050000Y14700000D01*
X3800000Y23950000D02*
X3850000Y24000000D01*
X12350000Y13450000D02*
X12450000Y13450000D01*
X1200000Y14050000D02*
X1250000Y14100000D01*
X4100000Y26300000D02*
X3750000Y26650000D01*
X7050000Y28750000D02*
X7000000Y28700000D01*
X22200000Y26250000D02*
X22250000Y26300000D01*
X10500000Y12850000D02*
X10550000Y12900000D01*
X12350000Y14300000D02*
X11850000Y13800000D01*
X7900000Y19400000D02*
X7900000Y19350000D01*
X12500000Y13800000D02*
X12600000Y13900000D01*
X7300000Y18100000D02*
X7350000Y18150000D01*
X7350000Y18200000D02*
X7400000Y18250000D01*
X8250000Y12600000D02*
X8200000Y12650000D01*
X12600000Y14450000D02*
X12600000Y14200000D01*
X7200000Y18350000D02*
X7250000Y18400000D01*
X11550000Y13200000D02*
X10200000Y13200000D01*
X12300000Y13400000D02*
X12350000Y13450000D01*
X6300000Y27050000D02*
X6250000Y27000000D01*
X7250000Y17900000D02*
X7250000Y18000000D01*
X22300000Y26200000D02*
X21900000Y25800000D01*
X7150000Y28950000D02*
X7100000Y28900000D01*
X11300000Y13050000D02*
X11350000Y13100000D01*
X6200000Y27050000D02*
X6250000Y27000000D01*
X7700000Y18950000D02*
X7700000Y18900000D01*
X17600000Y7500000D02*
X17600000Y7350000D01*
X1450000Y16250000D02*
X1400000Y16200000D01*
X1250000Y15900000D02*
X1250000Y15800000D01*
X9800000Y12800000D02*
X9700000Y12800000D01*
X8700000Y12750000D02*
X8650000Y12700000D01*
X1500000Y18300000D02*
X1450000Y18250000D01*
X8700000Y12750000D02*
X8650000Y12700000D01*
X3950000Y21700000D02*
X3200000Y22450000D01*
X22400000Y27050000D02*
X22450000Y27100000D01*
X9850000Y12550000D02*
X9900000Y12600000D01*
X900000Y13800000D02*
X950000Y13850000D01*
X1500000Y12500000D02*
X1500000Y12600000D01*
X4100000Y24550000D02*
X4100000Y24650000D01*
X3150000Y23000000D02*
X3200000Y23050000D01*
X2700000Y13300000D02*
X2750000Y13250000D01*
X1950000Y14000000D02*
X2650000Y13300000D01*
X6350000Y27250000D02*
X6350000Y27200000D01*
X6150000Y27050000D02*
X6200000Y27050000D01*
X7850000Y19250000D02*
X7800000Y19200000D01*
X7050000Y28800000D02*
X7050000Y28750000D01*
X8500000Y20000000D02*
X7900000Y19400000D01*
X2700000Y20850000D02*
X3300000Y20850000D01*
X6300000Y27150000D02*
X6300000Y27050000D01*
X1700000Y14350000D02*
X2700000Y13350000D01*
X6900000Y28450000D02*
X6900000Y28400000D01*
X11050000Y13000000D02*
X11100000Y13050000D01*
X1800000Y14050000D02*
X1850000Y14050000D01*
X10800000Y12950000D02*
X10850000Y13000000D01*
X22350000Y26450000D02*
X22350000Y26600000D01*
X10050000Y12650000D02*
X10100000Y12700000D01*
X2050000Y19600000D02*
X1950000Y19500000D01*
X2050000Y19900000D02*
X2050000Y19600000D01*
X7450000Y29600000D02*
X7400000Y29550000D01*
X6800000Y28200000D02*
X6750000Y28150000D01*
X2700000Y13300000D02*
X2750000Y13250000D01*
X6850000Y28350000D02*
X6850000Y28300000D01*
X10200000Y13200000D02*
X9800000Y12800000D01*
X1100000Y14000000D02*
X1150000Y14050000D01*
X7750000Y19100000D02*
X7750000Y19000000D01*
X6850000Y28300000D02*
X6800000Y28250000D01*
X4150000Y25800000D02*
X4100000Y25850000D01*
X2550000Y20750000D02*
X2600000Y20750000D01*
X1900000Y14000000D02*
X1950000Y14000000D01*
X4000000Y26900000D02*
X4250000Y26900000D01*
X7000000Y13000000D02*
X7000000Y13050000D01*
X3750000Y23850000D02*
X3800000Y23900000D01*
X7800000Y19150000D02*
X7750000Y19100000D01*
X8050000Y12700000D02*
X8000000Y12700000D01*
X9650000Y12750000D02*
X8700000Y12750000D01*
X12350000Y14350000D02*
X12350000Y14300000D01*
X7300000Y12800000D02*
X7200000Y12800000D01*
X12200000Y13350000D02*
X12250000Y13400000D01*
X6400000Y27350000D02*
X6400000Y27300000D01*
X6800000Y28250000D02*
X6800000Y28200000D01*
X7200000Y17800000D02*
X7200000Y17850000D01*
X1400000Y16150000D02*
X1350000Y16100000D01*
X22200000Y26200000D02*
X22200000Y26250000D01*
X6700000Y27950000D02*
X6650000Y27900000D01*
X7950000Y12750000D02*
X7350000Y12750000D01*
X3200000Y23150000D02*
X3650000Y23600000D01*
X10200000Y13200000D02*
X9800000Y12800000D01*
X1400000Y16200000D02*
X1400000Y16150000D01*
X8400000Y12600000D02*
X8250000Y12600000D01*
X1950000Y19150000D02*
X1900000Y19100000D01*
X1950000Y19500000D02*
X1950000Y19150000D01*
X10250000Y12750000D02*
X10300000Y12800000D01*
X11600000Y13250000D02*
X11550000Y13200000D01*
X7650000Y18800000D02*
X7600000Y18750000D01*
X21900000Y25800000D02*
X21800000Y25800000D01*
X7400000Y18300000D02*
X7450000Y18350000D01*
X1350000Y16100000D02*
X1350000Y16050000D01*
X7100000Y17600000D02*
X7100000Y17650000D01*
X10100000Y12700000D02*
X10150000Y12700000D01*
X7500000Y29800000D02*
X7500000Y29700000D01*
X8650000Y12700000D02*
X8600000Y12700000D01*
X3650000Y23650000D02*
X3700000Y23700000D01*
X7400000Y29550000D02*
X7400000Y29500000D01*
X7200000Y12800000D02*
X7000000Y13000000D01*
X6650000Y27850000D02*
X6600000Y27800000D01*
X6350000Y27200000D02*
X6300000Y27150000D01*
X7350000Y29400000D02*
X7300000Y29350000D01*
X11800000Y13400000D02*
X11650000Y13250000D01*
X7950000Y12750000D02*
X7350000Y12750000D01*
D45*
%TO.N,/BAT_ADC*%
X9400000Y23223900D02*
X9400000Y22640000D01*
X5016600Y21919200D02*
X5689200Y21919200D01*
X9400000Y24500000D02*
X9400000Y23223900D01*
X9400000Y22640000D02*
X9850000Y22640000D01*
X9850000Y22640000D02*
X10750000Y21740000D01*
X9400000Y22640000D02*
X9010000Y22250000D01*
X5689200Y21919200D02*
X5770000Y22000000D01*
X9400000Y23223900D02*
X9435900Y23223900D01*
%TO.N,/USB/CC1*%
X18047500Y16950000D02*
X18259700Y16737800D01*
X8138400Y13224100D02*
X8329700Y13224100D01*
X8329700Y13224100D02*
X8329700Y13224000D01*
X7550000Y13812500D02*
X8138400Y13224100D01*
X15000000Y12990000D02*
X14671600Y12661600D01*
X17055000Y16950000D02*
X18047500Y16950000D01*
X14671600Y12661600D02*
X14206100Y12661600D01*
X15000000Y12990000D02*
X15465700Y12990000D01*
X15465700Y12990000D02*
X15858700Y13383000D01*
D46*
%TO.N,/USB/CC2*%
X16200000Y19800000D02*
X16250000Y19850000D01*
X16800000Y11350000D02*
X16250000Y11900000D01*
X16900000Y19900000D02*
X17000000Y19900000D01*
X16700000Y11400000D02*
X16750000Y11350000D01*
X16750000Y11250000D02*
X16800000Y11200000D01*
X9300000Y14150000D02*
X8850000Y14600000D01*
X16700000Y11450000D02*
X16700000Y11400000D01*
X16250000Y11900000D02*
X16250000Y12800000D01*
X16850000Y19850000D02*
X16900000Y19900000D01*
X16250000Y11900000D02*
X16700000Y11450000D01*
X9450000Y13800000D02*
X9450000Y13950000D01*
X17000000Y19900000D02*
X17050000Y19950000D01*
X16250000Y19850000D02*
X16850000Y19850000D01*
X16750000Y11350000D02*
X16750000Y11250000D01*
D45*
X9450000Y13812500D02*
X9450000Y13399700D01*
D46*
X16800000Y11200000D02*
X16800000Y11350000D01*
X16100000Y12350000D02*
X16250000Y12200000D01*
X9450000Y13950000D02*
X9300000Y14100000D01*
X9300000Y14100000D02*
X9300000Y14150000D01*
X16000000Y19800000D02*
X16200000Y19800000D01*
X16250000Y12200000D02*
X16250000Y11900000D01*
%TO.N,/Power/CHG_ILIM*%
X4150000Y8900000D02*
X4800000Y8900000D01*
X1700000Y6200000D02*
X1500000Y6400000D01*
X1700000Y6100000D02*
X1700000Y6200000D01*
X1600000Y5850000D02*
X1700000Y5950000D01*
X1700000Y5950000D02*
X1700000Y6100000D01*
X1600000Y5800000D02*
X1600000Y5850000D01*
X1550000Y5750000D02*
X1600000Y5800000D01*
D45*
%TO.N,/Power/CHG_ISET*%
X2000000Y9990000D02*
X1500000Y10490000D01*
X2000000Y9550000D02*
X2000000Y9990000D01*
D46*
%TO.N,/Compute/LED_B*%
X12600000Y24500000D02*
X12600000Y24650000D01*
X12450000Y24800000D02*
X12450000Y24900000D01*
X12600000Y24650000D02*
X12450000Y24800000D01*
X12350000Y25900000D02*
X12450000Y25900000D01*
X12100000Y25350000D02*
X12050000Y25400000D01*
X12450000Y24900000D02*
X12100000Y25250000D01*
X13750000Y26000000D02*
X14650000Y26000000D01*
X13700000Y25950000D02*
X13750000Y26000000D01*
X12450000Y25900000D02*
X12500000Y25950000D01*
X14800000Y25950000D02*
X15250000Y25500000D01*
X12100000Y25250000D02*
X12100000Y25350000D01*
X14700000Y25950000D02*
X14800000Y25950000D01*
X12500000Y25950000D02*
X13700000Y25950000D01*
X14650000Y26000000D02*
X14700000Y25950000D01*
X12050000Y25600000D02*
X12350000Y25900000D01*
X16100000Y6250000D02*
X16600000Y5750000D01*
X12050000Y25400000D02*
X12050000Y25600000D01*
%TO.N,/Compute/LED_B_K*%
X17500000Y5950000D02*
X17550000Y5900000D01*
X17350000Y6250000D02*
X17400000Y6200000D01*
X17600000Y8300000D02*
X17350000Y8050000D01*
X17200000Y6600000D02*
X17250000Y6550000D01*
X17450000Y6100000D02*
X17450000Y6050000D01*
X17200000Y6650000D02*
X17200000Y6600000D01*
X17300000Y6400000D02*
X17350000Y6350000D01*
X16900000Y7050000D02*
X17100000Y6850000D01*
X17250000Y6500000D02*
X17300000Y6450000D01*
X17350000Y8050000D02*
X17050000Y8050000D01*
X17250000Y6550000D02*
X17250000Y6500000D01*
X17150000Y6750000D02*
X17150000Y6700000D01*
X17100000Y6850000D02*
X17100000Y6800000D01*
X17400000Y6150000D02*
X17450000Y6100000D01*
X17300000Y6450000D02*
X17300000Y6400000D01*
X17350000Y6350000D02*
X17350000Y6250000D01*
X17100000Y6800000D02*
X17150000Y6750000D01*
X17500000Y6000000D02*
X17500000Y5950000D01*
X17550000Y5800000D02*
X17600000Y5750000D01*
X17550000Y5900000D02*
X17550000Y5800000D01*
X17150000Y6700000D02*
X17200000Y6650000D01*
X17400000Y6200000D02*
X17400000Y6150000D01*
X17450000Y6050000D02*
X17500000Y6000000D01*
X16900000Y7900000D02*
X16900000Y7050000D01*
X17600000Y8300000D02*
X17350000Y8050000D01*
X17050000Y8050000D02*
X16900000Y7900000D01*
%TO.N,/Compute/LED_G*%
X17550000Y10450000D02*
X16900000Y9800000D01*
X16600000Y24350000D02*
X16750000Y24200000D01*
X16750000Y24200000D02*
X16750000Y24000000D01*
X16750000Y24000000D02*
X16950000Y23800000D01*
X16600000Y24500000D02*
X16600000Y24350000D01*
%TO.N,/Compute/LED_G_K*%
X17050000Y9250000D02*
X17250000Y9250000D01*
X17850000Y9750000D02*
X17900000Y9800000D01*
X17750000Y9750000D02*
X17850000Y9750000D01*
X17250000Y9250000D02*
X17750000Y9750000D01*
X16100000Y8300000D02*
X17050000Y9250000D01*
%TO.N,/Compute/LED_R*%
X18550000Y12650000D02*
X18500000Y12600000D01*
X18000000Y11500000D02*
X18000000Y11450000D01*
X17950000Y11400000D02*
X17950000Y11300000D01*
X18450000Y12500000D02*
X18450000Y11950000D01*
X15950000Y23850000D02*
X16050000Y23750000D01*
X17950000Y11300000D02*
X17900000Y11250000D01*
X15950000Y24200000D02*
X15950000Y23850000D01*
X18450000Y11950000D02*
X18000000Y11500000D01*
X15800000Y24350000D02*
X15950000Y24200000D01*
X18500000Y12600000D02*
X18500000Y12550000D01*
X18000000Y11450000D02*
X17950000Y11400000D01*
X15800000Y24500000D02*
X15800000Y24350000D01*
X18500000Y12550000D02*
X18450000Y12500000D01*
%TO.N,/Compute/LED_R_K*%
X17350000Y11550000D02*
X17800000Y12000000D01*
X16900000Y10650000D02*
X17050000Y10650000D01*
X17850000Y12200000D02*
X17900000Y12250000D01*
X17350000Y10900000D02*
X17350000Y11550000D01*
X15600000Y7750000D02*
X15450000Y7900000D01*
X17850000Y12100000D02*
X17850000Y12200000D01*
X17050000Y10650000D02*
X17100000Y10700000D01*
X17150000Y10700000D02*
X17350000Y10900000D01*
X15850000Y7750000D02*
X15600000Y7750000D01*
X16400000Y10100000D02*
X16400000Y10150000D01*
X16100000Y7500000D02*
X15850000Y7750000D01*
X17800000Y12050000D02*
X17850000Y12100000D01*
X15450000Y8750000D02*
X16350000Y9650000D01*
X15450000Y7900000D02*
X15450000Y8750000D01*
X17800000Y12000000D02*
X17800000Y12050000D01*
X16400000Y10150000D02*
X16900000Y10650000D01*
X16350000Y9650000D02*
X16350000Y10050000D01*
X17100000Y10700000D02*
X17150000Y10700000D01*
X16350000Y10050000D02*
X16400000Y10100000D01*
%TO.N,/Compute/MCU_EN*%
X3550000Y16050000D02*
X3550000Y16000000D01*
X19400000Y11150000D02*
X19350000Y11100000D01*
X19750000Y11900000D02*
X19700000Y11850000D01*
X19600000Y11600000D02*
X19550000Y11550000D01*
X8100000Y27700000D02*
X8150000Y27750000D01*
X7250000Y19750000D02*
X7250000Y19800000D01*
X19500000Y11400000D02*
X19500000Y11350000D01*
X2950000Y14650000D02*
X2900000Y14600000D01*
X3000000Y14850000D02*
X3000000Y14750000D01*
X19650000Y11700000D02*
X19600000Y11650000D01*
X19900000Y12250000D02*
X19850000Y12200000D01*
X3500000Y15450000D02*
X3450000Y15400000D01*
X7750000Y20350000D02*
X7750000Y20400000D01*
X2900000Y14550000D02*
X2850000Y14500000D01*
X19500000Y11350000D02*
X19450000Y11300000D01*
X19650000Y11750000D02*
X19650000Y11700000D01*
X3500000Y15950000D02*
X3500000Y15450000D01*
X7750000Y20400000D02*
X7800000Y20450000D01*
X19800000Y12000000D02*
X19750000Y11950000D01*
X19750000Y11950000D02*
X19750000Y11900000D01*
X7650000Y27300000D02*
X8050000Y27700000D01*
X2900000Y14600000D02*
X2900000Y14550000D01*
X7250000Y19800000D02*
X7950000Y20500000D01*
X7550000Y26550000D02*
X7650000Y26650000D01*
X19550000Y11450000D02*
X19500000Y11400000D01*
X19700000Y11800000D02*
X19650000Y11750000D01*
X19600000Y11650000D02*
X19600000Y11600000D01*
X7650000Y26650000D02*
X7650000Y27300000D01*
X2850000Y14500000D02*
X2850000Y14450000D01*
X19700000Y11850000D02*
X19700000Y11800000D01*
X8150000Y27750000D02*
X8250000Y27750000D01*
X7250000Y19750000D02*
X7250000Y19850000D01*
X19450000Y11250000D02*
X19400000Y11200000D01*
X7250000Y19850000D02*
X7750000Y20350000D01*
X19350000Y11100000D02*
X19350000Y11000000D01*
X2800000Y14300000D02*
X2750000Y14250000D01*
X19550000Y11550000D02*
X19550000Y11450000D01*
X19850000Y12150000D02*
X19800000Y12100000D01*
X7250000Y19800000D02*
X7950000Y20500000D01*
X3000000Y14750000D02*
X2950000Y14700000D01*
X2850000Y14450000D02*
X2800000Y14400000D01*
X8050000Y27700000D02*
X8100000Y27700000D01*
X19850000Y12200000D02*
X19850000Y12150000D01*
X19400000Y11200000D02*
X19400000Y11150000D01*
X2800000Y14400000D02*
X2800000Y14300000D01*
X19350000Y11000000D02*
X19300000Y10950000D01*
X12550000Y25450000D02*
X13950000Y25450000D01*
X19800000Y12100000D02*
X19800000Y12000000D01*
X3450000Y15300000D02*
X3000000Y14850000D01*
X7800000Y20450000D02*
X7800000Y21400000D01*
X3450000Y15400000D02*
X3450000Y15300000D01*
X3550000Y16000000D02*
X3500000Y15950000D01*
X8250000Y27750000D02*
X8300000Y27800000D01*
X2950000Y14700000D02*
X2950000Y14650000D01*
X3600000Y16100000D02*
X3550000Y16050000D01*
X19450000Y11300000D02*
X19450000Y11250000D01*
D45*
%TO.N,/Power/PACK_P*%
X900000Y8550000D02*
X950000Y8550000D01*
X750000Y9700000D02*
X750000Y8800000D01*
X800000Y8650000D02*
X900000Y8550000D01*
X950000Y8550000D02*
X1000000Y8500000D01*
X800000Y9800000D02*
X800000Y9750000D01*
X1150000Y8500000D02*
X1200000Y8450000D01*
X8100000Y22650000D02*
X8100000Y22900000D01*
X800000Y8750000D02*
X800000Y8650000D01*
X1350000Y8400000D02*
X1350000Y7900000D01*
X4550000Y6400000D02*
X5400000Y6400000D01*
X950000Y10800000D02*
X900000Y10750000D01*
X750000Y8800000D02*
X800000Y8750000D01*
X8000000Y22550000D02*
X8100000Y22650000D01*
X850000Y9850000D02*
X800000Y9800000D01*
X1200000Y8450000D02*
X1300000Y8450000D01*
X1000000Y8500000D02*
X1150000Y8500000D01*
X1350000Y7900000D02*
X700000Y7900000D01*
X8000000Y22250000D02*
X8000000Y22550000D01*
X900000Y10750000D02*
X900000Y9950000D01*
X900000Y9950000D02*
X850000Y9900000D01*
X800000Y9750000D02*
X750000Y9700000D01*
X850000Y9900000D02*
X850000Y9850000D01*
X1300000Y8450000D02*
X1350000Y8400000D01*
X950000Y11000000D02*
X950000Y10800000D01*
%TO.N,/Compute/STRAP2*%
X8300000Y30200000D02*
X9000000Y30200000D01*
X9000000Y30200000D02*
X9175000Y30375000D01*
X23000000Y30466200D02*
X23000000Y29010000D01*
%TO.N,/Compute/STRAP8*%
X17400000Y24500000D02*
X17400000Y25156700D01*
X17344200Y25212500D02*
X17400000Y25156700D01*
X8500000Y21010000D02*
X8820200Y21010000D01*
X17344200Y26143300D02*
X17344200Y25212500D01*
X8820200Y21010000D02*
X9248900Y21438700D01*
%TO.N,/Power/SYS*%
X6250000Y23550000D02*
X5168400Y23550000D01*
X6166300Y7382700D02*
X6245000Y7304000D01*
X2221200Y22800000D02*
X2802100Y23380900D01*
X1975000Y21354100D02*
X1975000Y22800000D01*
X1862500Y22800000D02*
X1975000Y22800000D01*
X4150000Y7900000D02*
X4711800Y7900000D01*
X4711800Y7900000D02*
X5229100Y7382700D01*
X2802100Y24077900D02*
X2180000Y24700000D01*
X2180000Y24700000D02*
X1862500Y24700000D01*
X5168400Y23550000D02*
X4934400Y23784000D01*
X5229100Y7382700D02*
X6166300Y7382700D01*
X1975000Y22800000D02*
X2221200Y22800000D01*
X2802100Y23380900D02*
X2802100Y24077900D01*
X4150000Y7900000D02*
X4150000Y8400000D01*
%TO.N,/Power/TS_NO_CELL_SENSING*%
X2740000Y10600000D02*
X2291500Y11048500D01*
X1350000Y8900000D02*
X1350000Y9529700D01*
X1350000Y9529700D02*
X1326600Y9553100D01*
X2291500Y11048500D02*
X2291500Y11333300D01*
%TO.N,/USB_DM*%
X18224300Y18637600D02*
X18036700Y18450000D01*
X14637500Y22450000D02*
X14638000Y22450000D01*
X14637500Y22450000D02*
X15438100Y22450000D01*
X17055000Y18450000D02*
X18036700Y18450000D01*
X15438100Y22450000D02*
X16290700Y23302600D01*
X19382100Y19795400D02*
X18224300Y18637600D01*
X20112800Y22872800D02*
X21740000Y24500000D01*
X19382100Y22872800D02*
X19382100Y19795400D01*
X14637500Y22450000D02*
X12362500Y22450000D01*
X18985700Y17465400D02*
X17070400Y17465400D01*
X18894100Y23302600D02*
X19323900Y22872800D01*
X18224300Y18637600D02*
X18403500Y18458300D01*
X19382100Y22872800D02*
X20112800Y22872800D01*
X19323900Y22872800D02*
X19382100Y22872800D01*
X16290700Y23302600D02*
X18894100Y23302600D01*
X17070400Y17465400D02*
X17055000Y17450000D01*
X19540700Y16910400D02*
X18985700Y17465400D01*
%TO.N,/Compute/USB_DM_MCU*%
X21533500Y25078400D02*
X22181600Y25078400D01*
X22181600Y25078400D02*
X22760000Y24500000D01*
X20756700Y25855200D02*
X21533500Y25078400D01*
X20100000Y26200000D02*
X20756700Y26200000D01*
X20756700Y26200000D02*
X20756700Y25855200D01*
%TO.N,/USB_DP*%
X17055000Y17950000D02*
X16073300Y17950000D01*
X16162900Y18950000D02*
X16073300Y18950000D01*
X12362500Y20550000D02*
X14637500Y20550000D01*
X23324000Y25416000D02*
X23324000Y22306800D01*
X23324000Y22306800D02*
X18903300Y17886100D01*
X18100600Y17886100D02*
X18036700Y17950000D01*
X17055000Y18950000D02*
X16162900Y18950000D01*
X14637500Y20385800D02*
X14637500Y20550000D01*
X18903300Y17886100D02*
X18100600Y17886100D01*
X23000000Y25740000D02*
X23324000Y25416000D01*
X16073300Y18950000D02*
X14637500Y20385800D01*
X17055000Y17950000D02*
X18036700Y17950000D01*
X16073300Y18950000D02*
X16073300Y17950000D01*
X14637500Y20550000D02*
X14638000Y20550000D01*
%TO.N,/Compute/USB_DP_MCU*%
X20968400Y27211700D02*
X20756700Y27000000D01*
X23000000Y26760000D02*
X23599800Y27359800D01*
X20100000Y27000000D02*
X20756700Y27000000D01*
X20968400Y27539700D02*
X20968400Y27211700D01*
D46*
%TO.N,/USB_POWER_N*%
X3050000Y6700000D02*
X3000000Y6750000D01*
X3200000Y5550000D02*
X3200000Y5600000D01*
X3100000Y6500000D02*
X3100000Y6550000D01*
X3200000Y5600000D02*
X3150000Y5650000D01*
X3600000Y5400000D02*
X3400000Y5400000D01*
X14050000Y13500000D02*
X13500000Y13500000D01*
X13500000Y13500000D02*
X14050000Y13500000D01*
X10200000Y24500000D02*
X10200000Y23750000D01*
X14050000Y13500000D02*
X14100000Y13450000D01*
X4000000Y5750000D02*
X3700000Y5450000D01*
X3300000Y5450000D02*
X3200000Y5550000D01*
X3000000Y6750000D02*
X3000000Y6450000D01*
X3100000Y6550000D02*
X3050000Y6600000D01*
X3400000Y5400000D02*
X3350000Y5450000D01*
X3350000Y5450000D02*
X3300000Y5450000D01*
X3150000Y5650000D02*
X3150000Y6450000D01*
X3150000Y6450000D02*
X3100000Y6500000D01*
X3700000Y5450000D02*
X3650000Y5450000D01*
X3650000Y5450000D02*
X3600000Y5400000D01*
X14100000Y13450000D02*
X14150000Y13450000D01*
X3050000Y6600000D02*
X3050000Y6700000D01*
D45*
%TO.N,/VBUS*%
X15824800Y20821800D02*
X15901500Y20821800D01*
X5725000Y9500000D02*
X5675000Y9550000D01*
X5675000Y9550000D02*
X3500000Y9550000D01*
X16073300Y15943300D02*
X15581400Y16435200D01*
X16073300Y15750000D02*
X16073300Y15943300D01*
X14637500Y21500000D02*
X15146600Y21500000D01*
X17055000Y20650000D02*
X16073300Y20650000D01*
X15901500Y20821800D02*
X16073300Y20650000D01*
X5725000Y9500000D02*
X5725000Y10054700D01*
X5725000Y10054700D02*
X6339500Y10669200D01*
X15146600Y21500000D02*
X15824800Y20821800D01*
X17055000Y15750000D02*
X16073300Y15750000D01*
%TO.N,GND*%
X16600000Y34300000D02*
X16600000Y33643300D01*
D46*
X10955400Y16855400D02*
X11000000Y16900000D01*
D45*
X6730000Y22249200D02*
X6730000Y22000000D01*
D46*
X10150000Y5950000D02*
X10200000Y5950000D01*
D47*
X10067000Y17744800D02*
X10104900Y17744800D01*
D45*
X8770000Y15940000D02*
X8500000Y15670000D01*
X7783300Y8991700D02*
X7783300Y6883300D01*
X14359500Y16900000D02*
X14000000Y16900000D01*
X2750000Y16750000D02*
X3000000Y16750000D01*
X3500000Y7020000D02*
X3500000Y6750000D01*
X16663300Y13880000D02*
X16417000Y14126300D01*
X8300000Y33400000D02*
X7643300Y33400000D01*
X884000Y25834000D02*
X884000Y24434800D01*
X10265500Y17744800D02*
X10265700Y17744600D01*
D46*
X8000000Y8100000D02*
X8000000Y6200000D01*
X8250000Y5950000D02*
X8300000Y5900000D01*
D45*
X13500000Y16000000D02*
X14227800Y16000000D01*
D46*
X10104900Y17744800D02*
X10265500Y17744800D01*
D45*
X2750000Y8150000D02*
X2560000Y7960000D01*
D46*
X10350000Y6050000D02*
X10400000Y6050000D01*
D45*
X9581800Y18061800D02*
X9750000Y18061800D01*
X14200000Y29400000D02*
X14200000Y27425000D01*
D46*
X8000000Y6200000D02*
X8050000Y6150000D01*
D45*
X2560000Y7960000D02*
X2000000Y7400000D01*
X12225000Y29400000D02*
X12225000Y27425000D01*
X13400000Y34300000D02*
X12600000Y34300000D01*
X1500000Y11510000D02*
X1899400Y11909400D01*
X1862000Y23750000D02*
X1862500Y23750000D01*
X19000000Y34300000D02*
X18200000Y34300000D01*
X18200000Y34300000D02*
X17400000Y34300000D01*
X11800000Y33434800D02*
X11800000Y33643000D01*
X20150000Y34350000D02*
X19543300Y34350000D01*
X8770000Y17250000D02*
X9581800Y18061800D01*
D46*
X10265700Y17744600D02*
X10955400Y17744600D01*
D45*
X7593300Y25450000D02*
X7643300Y25400000D01*
X1568800Y23750000D02*
X1862500Y23750000D01*
D46*
X8350000Y8500000D02*
X8050000Y8200000D01*
X10955400Y17744600D02*
X11000000Y17700000D01*
D45*
X16073300Y14126300D02*
X15116300Y14126300D01*
X8250000Y34046700D02*
X8250000Y33743300D01*
X7643300Y25400000D02*
X7986600Y25056700D01*
X9146700Y34046700D02*
X9400000Y34300000D01*
X12225000Y33268300D02*
X12225000Y31375000D01*
X8770000Y17250000D02*
X8770000Y15940000D01*
X10750000Y22760000D02*
X12010000Y21500000D01*
X12225000Y26443300D02*
X11181700Y25400000D01*
D46*
X8050000Y8200000D02*
X8050000Y8150000D01*
D45*
X12225000Y27425000D02*
X12225000Y26443300D01*
X7643300Y33400000D02*
X7643300Y32600000D01*
X9750000Y19020000D02*
X9750000Y18061800D01*
X12225000Y31375000D02*
X12225000Y29400000D01*
X6641500Y20121500D02*
X6641500Y18866500D01*
D46*
X8200000Y5950000D02*
X8250000Y5950000D01*
D45*
X10200000Y34300000D02*
X9400000Y34300000D01*
X3510000Y6740000D02*
X3510000Y5750000D01*
X11800000Y34300000D02*
X11000000Y34300000D01*
X7783300Y6883300D02*
X7300000Y6400000D01*
X5270000Y26430000D02*
X5270000Y27000000D01*
X10316000Y15940000D02*
X10316000Y16805400D01*
X7986600Y33743300D02*
X8250000Y33743300D01*
D46*
X10200000Y5950000D02*
X10250000Y6000000D01*
D45*
X9750000Y18061800D02*
X9960400Y17851400D01*
X11181700Y25400000D02*
X11000000Y25400000D01*
X15800000Y34300000D02*
X15000000Y34300000D01*
X8250000Y24450000D02*
X8250000Y23769200D01*
X13500000Y16000000D02*
X13500000Y15645800D01*
X3000000Y18590500D02*
X5134500Y18590500D01*
X8300000Y25400000D02*
X7643300Y25400000D01*
X3760000Y10700800D02*
X3760000Y10600000D01*
X17400000Y34300000D02*
X16600000Y34300000D01*
D46*
X8050000Y8150000D02*
X8000000Y8100000D01*
D45*
X8250000Y23769200D02*
X6730000Y22249200D01*
X1800000Y26750000D02*
X884000Y25834000D01*
X19493300Y34300000D02*
X19543300Y34350000D01*
X15000000Y34300000D02*
X14200000Y34300000D01*
X3000000Y18590500D02*
X3000000Y15975000D01*
X16175000Y29400000D02*
X16175000Y27425000D01*
X16663300Y22520000D02*
X16073300Y21930000D01*
X11000000Y34300000D02*
X10200000Y34300000D01*
X14227800Y16000000D02*
X14581600Y16353800D01*
X16417000Y14126300D02*
X16073300Y14126300D01*
X17055000Y21450000D02*
X16073300Y21450000D01*
X17055000Y14950000D02*
X16073300Y14950000D01*
X11995200Y14957100D02*
X11995200Y14515200D01*
X15116300Y14126300D02*
X15000000Y14010000D01*
D46*
X10100000Y5900000D02*
X10150000Y5950000D01*
X8300000Y5900000D02*
X10100000Y5900000D01*
D45*
X2551400Y11909400D02*
X3760000Y10700800D01*
X12600000Y33643300D02*
X12225000Y33268300D01*
X803900Y24354900D02*
X884000Y24435000D01*
X12435800Y15397700D02*
X11995200Y14957100D01*
X5750000Y17975000D02*
X6119900Y17605100D01*
D47*
X9960400Y17851400D02*
X10067000Y17744800D01*
D45*
X11800000Y34300000D02*
X11800000Y33643300D01*
X6250000Y25450000D02*
X7593300Y25450000D01*
X17970000Y22520000D02*
X16663300Y22520000D01*
X15800000Y33643300D02*
X16175000Y33268300D01*
X6119900Y15169900D02*
X6000000Y15050000D01*
X16175000Y31375000D02*
X16175000Y29400000D01*
X14200000Y31375000D02*
X14200000Y29400000D01*
X5134500Y18590500D02*
X5750000Y17975000D01*
D46*
X8050000Y6100000D02*
X8200000Y5950000D01*
D45*
X11000000Y25400000D02*
X8956700Y25400000D01*
X3500000Y6750000D02*
X3510000Y6740000D01*
X1899400Y11909400D02*
X2551400Y11909400D01*
X8250000Y24450000D02*
X8250000Y25056700D01*
X22150000Y13880000D02*
X21093300Y13880000D01*
X16800000Y13402500D02*
X16800000Y12210000D01*
X6250000Y25450000D02*
X5270000Y26430000D01*
D46*
X8050000Y6150000D02*
X8050000Y6100000D01*
D45*
X11995200Y14515200D02*
X11250000Y13770000D01*
X8300000Y25400000D02*
X8956700Y25400000D01*
X14581600Y16677900D02*
X14359500Y16900000D01*
X10316000Y16805400D02*
X10366000Y16855400D01*
X11000000Y25400000D02*
X11000000Y24500000D01*
X10750000Y22760000D02*
X11111500Y23121500D01*
X2000000Y6750000D02*
X2500000Y6750000D01*
X884000Y24434800D02*
X1568800Y23750000D01*
X8500000Y15438000D02*
X8500000Y15437500D01*
X14200000Y34300000D02*
X13400000Y34300000D01*
X14581600Y16353800D02*
X14581600Y16677900D01*
X7275000Y9500000D02*
X7783300Y8991700D01*
D46*
X10300000Y6000000D02*
X10350000Y6050000D01*
D45*
X10315800Y14704200D02*
X11250000Y13770000D01*
X7986600Y25056700D02*
X8250000Y25056700D01*
X15985400Y14950000D02*
X16073300Y14950000D01*
X8500000Y15554000D02*
X8500000Y15687500D01*
X15800000Y33851800D02*
X15800000Y33643300D01*
X16073300Y14126300D02*
X16073300Y14950000D01*
X19000000Y34300000D02*
X19493300Y34300000D01*
X7643300Y33400000D02*
X7986600Y33743300D01*
X16600000Y33643300D02*
X16008500Y33643300D01*
X2000000Y6750000D02*
X2000000Y7400000D01*
X14581600Y16353800D02*
X15985400Y14950000D01*
X6641500Y18866500D02*
X5750000Y17975000D01*
X16008500Y33643300D02*
X15800000Y33851800D01*
X17277500Y13880000D02*
X16800000Y13402500D01*
X8300000Y32600000D02*
X7643300Y32600000D01*
X12600000Y34300000D02*
X12600000Y33643300D01*
X14200000Y34300000D02*
X14200000Y31375000D01*
X2560000Y7960000D02*
X3500000Y7020000D01*
X3000000Y19887500D02*
X3000000Y18590500D01*
X15800000Y34300000D02*
X15800000Y33851800D01*
X11111500Y23121500D02*
X11111500Y24388500D01*
X8500000Y15670000D02*
X8500000Y15437500D01*
X3000000Y15975000D02*
X2775000Y15750000D01*
X7250000Y20730000D02*
X6641500Y20121500D01*
X13251900Y15397700D02*
X12435800Y15397700D01*
X10316000Y15940000D02*
X8770000Y15940000D01*
D46*
X10366000Y16855400D02*
X10955400Y16855400D01*
D45*
X1350000Y7400000D02*
X2000000Y7400000D01*
X17970000Y13880000D02*
X19276700Y13880000D01*
X13500000Y15645800D02*
X13251900Y15397700D01*
X12010000Y21500000D02*
X12362500Y21500000D01*
D46*
X10250000Y6000000D02*
X10300000Y6000000D01*
D45*
X12225000Y33268300D02*
X11850000Y33643300D01*
X16073300Y21930000D02*
X16073300Y21450000D01*
X16175000Y33268300D02*
X16175000Y31375000D01*
X17970000Y13880000D02*
X16663300Y13880000D01*
X10316000Y14704000D02*
X10316000Y15940000D01*
X8250000Y34046700D02*
X9146700Y34046700D01*
X8250000Y34350000D02*
X8250000Y34046700D01*
X11850000Y33643300D02*
X11800000Y33643300D01*
X12362500Y21500000D02*
X12362000Y21500000D01*
X11111500Y24388500D02*
X11000000Y24500000D01*
D46*
%TO.N,/IMU/1V8_IMU*%
X8050000Y5500000D02*
X14400000Y5500000D01*
X14450000Y5550000D02*
X14500000Y5550000D01*
X5150000Y15850000D02*
X5150000Y15800000D01*
X5450000Y15200000D02*
X5450000Y15100000D01*
X5950000Y19950000D02*
X5900000Y19900000D01*
X5100000Y15950000D02*
X5100000Y15900000D01*
X5300000Y19100000D02*
X4950000Y19100000D01*
X10350000Y18300000D02*
X10500000Y18300000D01*
X11300000Y19500000D02*
X10800000Y19000000D01*
X11500000Y15700000D02*
X11400000Y15600000D01*
X10800000Y19000000D02*
X10650000Y19000000D01*
X5900000Y19850000D02*
X5850000Y19800000D01*
X10500000Y18350000D02*
X10500000Y18300000D01*
X6200000Y8100000D02*
X6050000Y8100000D01*
X11350000Y14950000D02*
X11300000Y14900000D01*
X14000000Y17700000D02*
X15000000Y17700000D01*
X5400000Y15250000D02*
X5450000Y15200000D01*
X11050000Y16000000D02*
X11500000Y16000000D01*
X11300000Y14800000D02*
X11250000Y14750000D01*
X5600000Y7950000D02*
X5550000Y7900000D01*
X11500000Y16000000D02*
X11500000Y15700000D01*
X10300000Y18650000D02*
X10450000Y18500000D01*
X10950000Y18150000D02*
X11000000Y18100000D01*
X11700000Y19650000D02*
X11600000Y19550000D01*
X4700000Y16850000D02*
X4700000Y16350000D01*
X3950000Y17600000D02*
X4700000Y16850000D01*
X14500000Y5550000D02*
X14550000Y5600000D01*
X14400000Y5500000D02*
X14450000Y5550000D01*
X4600000Y18100000D02*
X4200000Y17700000D01*
X5400000Y15550000D02*
X5400000Y15250000D01*
X11400000Y15600000D02*
X11400000Y15250000D01*
X4700000Y16350000D02*
X5100000Y15950000D01*
X5100000Y15900000D02*
X5150000Y15850000D01*
X5450000Y15100000D02*
X5500000Y15050000D01*
X5400000Y15250000D02*
X5450000Y15200000D01*
X5850000Y19800000D02*
X5850000Y19750000D01*
X10450000Y18500000D02*
X10450000Y18400000D01*
X5800000Y19600000D02*
X5750000Y19550000D01*
X5950000Y20000000D02*
X5950000Y19950000D01*
X5800000Y19700000D02*
X5800000Y19600000D01*
X5900000Y7950000D02*
X5600000Y7950000D01*
X11350000Y15200000D02*
X11350000Y14950000D01*
X5200000Y15750000D02*
X5400000Y15550000D01*
X6200000Y8100000D02*
X5700000Y8600000D01*
X5850000Y19750000D02*
X5800000Y19700000D01*
X4200000Y17700000D02*
X4150000Y17700000D01*
X6000000Y20150000D02*
X6000000Y20050000D01*
X6150000Y20300000D02*
X6000000Y20150000D01*
X5400000Y15550000D02*
X5400000Y15250000D01*
X10500000Y18300000D02*
X10650000Y18150000D01*
X9750000Y20000000D02*
X10300000Y19450000D01*
X10650000Y18150000D02*
X10950000Y18150000D01*
X11500000Y16000000D02*
X11050000Y16000000D01*
X11400000Y15250000D02*
X11350000Y15200000D01*
X5150000Y15800000D02*
X5400000Y15550000D01*
X5200000Y15850000D02*
X5200000Y15750000D01*
X5450000Y15100000D02*
X5500000Y15050000D01*
X14550000Y5600000D02*
X14600000Y5600000D01*
X5750000Y19550000D02*
X5300000Y19100000D01*
X10300000Y19450000D02*
X10300000Y18650000D01*
X11400000Y19550000D02*
X11350000Y19500000D01*
X9750000Y20000000D02*
X10400000Y20000000D01*
X6050000Y8100000D02*
X5900000Y7950000D01*
X10650000Y18150000D02*
X10950000Y18150000D01*
X5450000Y15200000D02*
X5450000Y15100000D01*
X11350000Y19500000D02*
X11300000Y19500000D01*
X6000000Y20050000D02*
X5950000Y20000000D01*
X4100000Y17650000D02*
X4000000Y17650000D01*
X5900000Y19900000D02*
X5900000Y19850000D01*
X10950000Y18150000D02*
X11000000Y18100000D01*
X10500000Y18300000D02*
X10650000Y18150000D01*
X4150000Y17700000D02*
X4100000Y17650000D01*
X4000000Y17650000D02*
X3950000Y17600000D01*
X11600000Y19550000D02*
X11400000Y19550000D01*
X11300000Y14900000D02*
X11300000Y14800000D01*
X10450000Y18400000D02*
X10500000Y18350000D01*
D45*
%TO.N,/IMU/I2C_BIAS*%
X5500000Y11950000D02*
X5500000Y11481200D01*
X5286900Y11268100D02*
X3741900Y11268100D01*
X6000000Y11950000D02*
X5500000Y11950000D01*
X5500000Y11481200D02*
X5286900Y11268100D01*
X3741900Y11268100D02*
X1500000Y13510000D01*
D46*
%TO.N,/IMU/IMU_REGOUT*%
X11000000Y17300000D02*
X10150000Y17300000D01*
X10150000Y17300000D02*
X9730000Y17250000D01*
%TO.N,/IMU/SCL_1V8*%
X5050000Y15000000D02*
X5050000Y14950000D01*
X15400000Y6500000D02*
X15450000Y6550000D01*
X5350000Y14350000D02*
X6200000Y14350000D01*
X5000000Y15050000D02*
X5050000Y15000000D01*
X5300000Y14400000D02*
X5350000Y14350000D01*
X14500000Y18300000D02*
X14350000Y18150000D01*
X15450000Y7250000D02*
X15300000Y7400000D01*
X6450000Y15700000D02*
X6400000Y15750000D01*
X5250000Y14400000D02*
X5300000Y14400000D01*
X5100000Y14550000D02*
X5250000Y14400000D01*
X14050000Y18150000D02*
X14000000Y18100000D01*
X5100000Y14900000D02*
X5100000Y14550000D01*
X15300000Y5750000D02*
X15300000Y6050000D01*
X15400000Y6150000D02*
X15400000Y6500000D01*
X6450000Y14600000D02*
X6450000Y15700000D01*
X6200000Y14350000D02*
X6450000Y14600000D01*
X15300000Y6050000D02*
X15400000Y6150000D01*
X14350000Y18150000D02*
X14050000Y18150000D01*
X5050000Y14950000D02*
X5100000Y14900000D01*
X15450000Y6550000D02*
X15450000Y7250000D01*
X15100000Y18300000D02*
X14500000Y18300000D01*
D45*
%TO.N,/IMU/SDA_1V8*%
X7210000Y8100000D02*
X6567400Y8742600D01*
X6896200Y12343000D02*
X6231500Y13007700D01*
X6231500Y13007700D02*
X6231500Y13381400D01*
X4500000Y14601400D02*
X4500000Y15050000D01*
X5900400Y13712500D02*
X5388900Y13712500D01*
X5388900Y13712500D02*
X4500000Y14601400D01*
X6567400Y10109800D02*
X6896200Y10438600D01*
X14000000Y18500000D02*
X14000000Y19762800D01*
X6567400Y8742600D02*
X6567400Y10109800D01*
X6231500Y13381400D02*
X5900400Y13712500D01*
X6896200Y10438600D02*
X6896200Y12343000D01*
%TO.N,/SCL_HOST*%
X5000000Y11950000D02*
X5000000Y12474100D01*
X9145500Y19135500D02*
X8510000Y18500000D01*
X5477400Y12951500D02*
X5477400Y13052600D01*
X9624000Y20731200D02*
X9145500Y20252700D01*
X14200000Y24500000D02*
X14200000Y23843300D01*
X9145500Y20252700D02*
X9145500Y19135500D01*
X5000000Y12474100D02*
X5477400Y12951500D01*
X14200000Y23843300D02*
X14200000Y23304300D01*
%TO.N,/SDA_HOST*%
X13760000Y14750000D02*
X14053900Y14750000D01*
X4500000Y11950000D02*
X4500000Y12862100D01*
X4500000Y12862100D02*
X4712900Y13075000D01*
X14053900Y14750000D02*
X14598600Y15294700D01*
X15000000Y24500000D02*
X15000000Y23843300D01*
X15149400Y23843300D02*
X15377200Y23615500D01*
X15000000Y23843300D02*
X15149400Y23843300D01*
D46*
%TO.N,Net-(U1-GPIO9_{slash}_BOOT)*%
X18250000Y24650000D02*
X18250000Y24550000D01*
X19050000Y7550000D02*
X19000000Y7500000D01*
X19150000Y7850000D02*
X19150000Y7800000D01*
X19300000Y8200000D02*
X19300000Y8100000D01*
X21700000Y26700000D02*
X21650000Y26700000D01*
X18900000Y7250000D02*
X18850000Y7200000D01*
X18950000Y7400000D02*
X18950000Y7350000D01*
X18300000Y24700000D02*
X18250000Y24650000D01*
X18900000Y7300000D02*
X18900000Y7250000D01*
X19150000Y25150000D02*
X18700000Y25150000D01*
X19050000Y7650000D02*
X19050000Y7550000D01*
X19250000Y8000000D02*
X19200000Y7950000D01*
X18300000Y24750000D02*
X18300000Y24700000D01*
X19350000Y8300000D02*
X19350000Y8250000D01*
X18350000Y24000000D02*
X18550000Y23800000D01*
X18950000Y7350000D02*
X18900000Y7300000D01*
X19350000Y8250000D02*
X19300000Y8200000D01*
X19000000Y7450000D02*
X18950000Y7400000D01*
X21650000Y26700000D02*
X21550000Y26600000D01*
X19300000Y25300000D02*
X19150000Y25150000D01*
X19100000Y7750000D02*
X19100000Y7700000D01*
X18850000Y7200000D02*
X18850000Y7100000D01*
X18350000Y24200000D02*
X18350000Y24000000D01*
X19100000Y7700000D02*
X19050000Y7650000D01*
X21750000Y26750000D02*
X21700000Y26700000D01*
X19300000Y8100000D02*
X19250000Y8050000D01*
X21550000Y26600000D02*
X21100000Y26600000D01*
X18250000Y24550000D02*
X18200000Y24500000D01*
X19250000Y8050000D02*
X19250000Y8000000D01*
X18200000Y24350000D02*
X18350000Y24200000D01*
X19200000Y7950000D02*
X19200000Y7900000D01*
X18850000Y7100000D02*
X18800000Y7050000D01*
X18200000Y24500000D02*
X18200000Y24350000D01*
X18700000Y25150000D02*
X18300000Y24750000D01*
X19400000Y8350000D02*
X19350000Y8300000D01*
X19000000Y7500000D02*
X19000000Y7450000D01*
X19150000Y7800000D02*
X19100000Y7750000D01*
X19200000Y7900000D02*
X19150000Y7850000D01*
%TD*%
%TA.AperFunction,Conductor*%
%TO.N,GND*%
G36*
X3291109Y9145148D02*
G01*
X3343231Y9110321D01*
X3397631Y9099500D01*
X3602368Y9099501D01*
X3614999Y9102014D01*
X3670545Y9090966D01*
X3702012Y9043874D01*
X3702013Y9015002D01*
X3699500Y9002367D01*
X3699500Y8797637D01*
X3710321Y8743230D01*
X3745145Y8691111D01*
X3756194Y8635562D01*
X3745145Y8608889D01*
X3710321Y8556771D01*
X3703925Y8524616D01*
X3700641Y8508102D01*
X3699500Y8502368D01*
X3699500Y8297637D01*
X3710321Y8243230D01*
X3745145Y8191111D01*
X3756194Y8135562D01*
X3745145Y8108889D01*
X3710321Y8056771D01*
X3699500Y8002368D01*
X3699500Y7797637D01*
X3710321Y7743230D01*
X3745145Y7691111D01*
X3756194Y7635562D01*
X3745145Y7608889D01*
X3710321Y7556771D01*
X3699500Y7502368D01*
X3699500Y7297637D01*
X3710320Y7243232D01*
X3746103Y7189680D01*
X3751541Y7181541D01*
X3813231Y7140321D01*
X3867631Y7129500D01*
X4432368Y7129501D01*
X4486769Y7140321D01*
X4548459Y7181541D01*
X4589679Y7243231D01*
X4600500Y7297631D01*
X4600499Y7478390D01*
X4622173Y7530715D01*
X4674499Y7552389D01*
X4726823Y7530716D01*
X4808102Y7449438D01*
X4934257Y7323282D01*
X4955931Y7270956D01*
X4934257Y7218630D01*
X4915530Y7205024D01*
X4911661Y7203053D01*
X4911658Y7203051D01*
X4821951Y7113344D01*
X4821950Y7113342D01*
X4780692Y7032368D01*
X4764353Y7000302D01*
X4749500Y6906520D01*
X4749500Y6831729D01*
X4727826Y6779403D01*
X4675500Y6757729D01*
X4656347Y6760251D01*
X4599437Y6775500D01*
X4599435Y6775500D01*
X4500565Y6775500D01*
X4500563Y6775500D01*
X4405065Y6749912D01*
X4405060Y6749910D01*
X4319437Y6700475D01*
X4249525Y6630563D01*
X4200090Y6544940D01*
X4200088Y6544935D01*
X4174500Y6449438D01*
X4174500Y6350563D01*
X4200088Y6255066D01*
X4200090Y6255061D01*
X4226828Y6208750D01*
X4234220Y6152597D01*
X4199742Y6107664D01*
X4143589Y6100272D01*
X4049437Y6125500D01*
X4049435Y6125500D01*
X3950565Y6125500D01*
X3950563Y6125500D01*
X3855065Y6099912D01*
X3855060Y6099910D01*
X3769437Y6050475D01*
X3699525Y5980563D01*
X3650090Y5894940D01*
X3650088Y5894935D01*
X3624500Y5799438D01*
X3624500Y5732964D01*
X3618867Y5719367D01*
X3618868Y5704647D01*
X3608459Y5694238D01*
X3602826Y5680638D01*
X3578820Y5664597D01*
X3569056Y5660553D01*
X3556595Y5655391D01*
X3556593Y5655390D01*
X3528316Y5643678D01*
X3471680Y5643679D01*
X3453460Y5651226D01*
X3453460Y5651227D01*
X3444842Y5654796D01*
X3404794Y5694843D01*
X3399001Y5708830D01*
X3391170Y5727736D01*
X3391167Y5727739D01*
X3387970Y5732525D01*
X3375500Y5773636D01*
X3375500Y6396525D01*
X3375501Y6396534D01*
X3375501Y6494854D01*
X3367529Y6514101D01*
X3344607Y6569438D01*
X3341170Y6577736D01*
X3331426Y6587480D01*
X3327185Y6594015D01*
X3326533Y6597539D01*
X3320892Y6605981D01*
X3299001Y6658830D01*
X3293437Y6672262D01*
X3291170Y6677736D01*
X3291169Y6677737D01*
X3291169Y6677738D01*
X3287970Y6682526D01*
X3275899Y6715967D01*
X3275501Y6719788D01*
X3275501Y6744854D01*
X3272012Y6753276D01*
X3270897Y6763982D01*
X3271572Y6766255D01*
X3270499Y6771650D01*
X3270499Y7032364D01*
X3270499Y7032368D01*
X3259679Y7086769D01*
X3218459Y7148459D01*
X3156769Y7189679D01*
X3102369Y7200500D01*
X3102367Y7200500D01*
X2897636Y7200500D01*
X2843231Y7189680D01*
X2781541Y7148460D01*
X2781540Y7148459D01*
X2740321Y7086770D01*
X2729500Y7032368D01*
X2729500Y6467637D01*
X2740320Y6413232D01*
X2781539Y6351543D01*
X2781540Y6351543D01*
X2781541Y6351541D01*
X2783844Y6350002D01*
X2793258Y6342539D01*
X2804963Y6331599D01*
X2808830Y6322264D01*
X2872264Y6258830D01*
X2891222Y6250978D01*
X2901029Y6241812D01*
X2907612Y6227323D01*
X2918866Y6216070D01*
X2923648Y6192030D01*
X2924458Y6190248D01*
X2924160Y6189456D01*
X2924500Y6187749D01*
X2924500Y5700827D01*
X2924499Y5700813D01*
X2924499Y5605144D01*
X2948773Y5546542D01*
X2958829Y5522266D01*
X2958832Y5522262D01*
X2963065Y5518029D01*
X2979105Y5494023D01*
X2993683Y5458831D01*
X2993684Y5458830D01*
X3008829Y5422265D01*
X3054268Y5376826D01*
X3075942Y5324500D01*
X3054268Y5272174D01*
X3001942Y5250500D01*
X1942909Y5250500D01*
X1890583Y5272174D01*
X1868909Y5324500D01*
X1890583Y5376826D01*
X1914616Y5400859D01*
X1957730Y5498502D01*
X1960500Y5522377D01*
X1960499Y5977622D01*
X1957730Y6001498D01*
X1936434Y6049729D01*
X1931805Y6060213D01*
X1925500Y6090103D01*
X1925500Y6146525D01*
X1925501Y6146534D01*
X1925501Y6244854D01*
X1925500Y6244856D01*
X1917492Y6264188D01*
X1904256Y6296144D01*
X1891170Y6327736D01*
X1891169Y6327737D01*
X1887972Y6332522D01*
X1875500Y6373635D01*
X1875500Y6449437D01*
X1875499Y6449438D01*
X1873970Y6455143D01*
X1849910Y6544938D01*
X1800475Y6630562D01*
X1730562Y6700475D01*
X1703729Y6715967D01*
X1644939Y6749910D01*
X1644934Y6749912D01*
X1549437Y6775500D01*
X1549435Y6775500D01*
X1450565Y6775500D01*
X1450563Y6775500D01*
X1355065Y6749912D01*
X1355060Y6749910D01*
X1269437Y6700475D01*
X1199525Y6630563D01*
X1150090Y6544940D01*
X1150088Y6544935D01*
X1124500Y6449438D01*
X1124500Y6350563D01*
X1150088Y6255066D01*
X1150092Y6255057D01*
X1184367Y6195690D01*
X1191759Y6139538D01*
X1185811Y6124314D01*
X1180573Y6114331D01*
X1165384Y6099141D01*
X1126993Y6012197D01*
X1125829Y6009976D01*
X1105847Y5993318D01*
X1087030Y5975350D01*
X1084370Y5975412D01*
X1082327Y5973708D01*
X1056415Y5976058D01*
X1030408Y5976659D01*
X1027451Y5978685D01*
X1025922Y5978823D01*
X1024155Y5980943D01*
X1007973Y5992027D01*
X1000000Y6000000D01*
X324500Y6000000D01*
X272174Y6021674D01*
X250500Y6074000D01*
X250500Y7651386D01*
X272174Y7703712D01*
X324500Y7725386D01*
X376826Y7703712D01*
X388586Y7688385D01*
X396091Y7675385D01*
X399525Y7669438D01*
X469438Y7599525D01*
X502195Y7580613D01*
X543493Y7556769D01*
X555062Y7550090D01*
X555063Y7550090D01*
X555065Y7550089D01*
X602813Y7537295D01*
X650562Y7524501D01*
X650563Y7524500D01*
X650565Y7524500D01*
X749437Y7524500D01*
X749437Y7524501D01*
X844938Y7550090D01*
X930562Y7599525D01*
X950336Y7619300D01*
X1002660Y7640974D01*
X1017094Y7639553D01*
X1067631Y7629500D01*
X1632368Y7629501D01*
X1686769Y7640321D01*
X1748459Y7681541D01*
X1789679Y7743231D01*
X1800500Y7797631D01*
X1800499Y8002368D01*
X1789679Y8056769D01*
X1754853Y8108889D01*
X1743804Y8164436D01*
X1754853Y8191111D01*
X1789679Y8243231D01*
X1800500Y8297631D01*
X1800499Y8502368D01*
X1789679Y8556769D01*
X1754853Y8608889D01*
X1743804Y8664436D01*
X1754853Y8691111D01*
X1789679Y8743231D01*
X1800500Y8797631D01*
X1800499Y9002368D01*
X1797986Y9015000D01*
X1809035Y9070546D01*
X1856126Y9102013D01*
X1884997Y9102013D01*
X1897631Y9099500D01*
X2102368Y9099501D01*
X2156769Y9110321D01*
X2208888Y9145147D01*
X2264436Y9156196D01*
X2291109Y9145148D01*
X2343231Y9110321D01*
X2397631Y9099500D01*
X2602368Y9099501D01*
X2656769Y9110321D01*
X2708888Y9145147D01*
X2764436Y9156196D01*
X2791109Y9145148D01*
X2843231Y9110321D01*
X2897631Y9099500D01*
X3102368Y9099501D01*
X3156769Y9110321D01*
X3208888Y9145147D01*
X3264436Y9156196D01*
X3291109Y9145148D01*
G37*
%TD.AperFunction*%
%TA.AperFunction,Conductor*%
G36*
X7295200Y12474500D02*
G01*
X7809769Y12474500D01*
X7838087Y12468867D01*
X7843942Y12466442D01*
X7915696Y12436721D01*
X7939703Y12420681D01*
X7943942Y12416442D01*
X8045200Y12374500D01*
X8059769Y12374500D01*
X8088087Y12368867D01*
X8135438Y12349254D01*
X8195200Y12324500D01*
X8195201Y12324500D01*
X8454798Y12324500D01*
X8454800Y12324500D01*
X8556058Y12366443D01*
X8556058Y12366444D01*
X8561910Y12368867D01*
X8590229Y12374500D01*
X8604799Y12374500D01*
X8604800Y12374500D01*
X8706058Y12416443D01*
X8710290Y12420676D01*
X8734298Y12436720D01*
X8799704Y12463811D01*
X8811911Y12468867D01*
X8840229Y12474500D01*
X9274702Y12474500D01*
X9327028Y12452826D01*
X9346179Y12419656D01*
X9349764Y12406280D01*
X9350091Y12405060D01*
X9392799Y12331087D01*
X9399525Y12319438D01*
X9469438Y12249525D01*
X9532117Y12213337D01*
X9554242Y12200563D01*
X9555062Y12200090D01*
X9630893Y12179772D01*
X9675826Y12145293D01*
X9683219Y12089141D01*
X9660532Y12052657D01*
X9360481Y11789520D01*
X9062928Y11450225D01*
X8812217Y11075010D01*
X8812211Y11074999D01*
X8612615Y10670260D01*
X8467556Y10242931D01*
X8467552Y10242918D01*
X8379516Y9800324D01*
X8379515Y9800320D01*
X8379515Y9800316D01*
X8349999Y9350000D01*
X8379515Y8899685D01*
X8379515Y8899681D01*
X8379516Y8899678D01*
X8467552Y8457084D01*
X8467556Y8457071D01*
X8612615Y8029742D01*
X8812211Y7625003D01*
X8812217Y7624992D01*
X9030949Y7297637D01*
X9062930Y7249774D01*
X9360481Y6910482D01*
X9699773Y6612931D01*
X9801655Y6544856D01*
X10074990Y6362219D01*
X10074995Y6362216D01*
X10075000Y6362213D01*
X10479742Y6162616D01*
X10907074Y6017556D01*
X10907078Y6017556D01*
X10907082Y6017554D01*
X11115700Y5976058D01*
X11349684Y5929516D01*
X11800000Y5900000D01*
X12250315Y5929516D01*
X12591608Y5997403D01*
X12692916Y6017554D01*
X12692917Y6017555D01*
X12692925Y6017556D01*
X13120257Y6162616D01*
X13524999Y6362213D01*
X13900226Y6612931D01*
X14239518Y6910482D01*
X14537069Y7249774D01*
X14787787Y7625001D01*
X14987384Y8029743D01*
X15080427Y8303838D01*
X15117771Y8346420D01*
X15174287Y8350124D01*
X15216869Y8312780D01*
X15224500Y8280051D01*
X15224500Y7944858D01*
X15224499Y7944855D01*
X15224499Y7855145D01*
X15229472Y7843139D01*
X15230062Y7830171D01*
X15224504Y7814816D01*
X15224503Y7798487D01*
X15215243Y7789229D01*
X15210786Y7776914D01*
X15195998Y7769987D01*
X15184452Y7758441D01*
X15175294Y7755332D01*
X15155061Y7749910D01*
X15155060Y7749910D01*
X15069437Y7700475D01*
X14999525Y7630563D01*
X14950090Y7544940D01*
X14950088Y7544935D01*
X14924500Y7449438D01*
X14924500Y7350563D01*
X14950088Y7255066D01*
X14950090Y7255061D01*
X14980119Y7203050D01*
X14999525Y7169438D01*
X15069438Y7099525D01*
X15155062Y7050090D01*
X15169651Y7046181D01*
X15214585Y7011705D01*
X15224500Y6974703D01*
X15224500Y6673636D01*
X15216707Y6640581D01*
X15211752Y6630659D01*
X15208830Y6627736D01*
X15202698Y6612931D01*
X15201708Y6610542D01*
X15201701Y6610527D01*
X15174499Y6544856D01*
X15174499Y6446534D01*
X15174500Y6446525D01*
X15174500Y6291298D01*
X15152826Y6238972D01*
X15113647Y6220027D01*
X15113875Y6219192D01*
X15109409Y6217978D01*
X15109025Y6217791D01*
X15108504Y6217731D01*
X15010858Y6174616D01*
X14935385Y6099143D01*
X14892271Y6001500D01*
X14892270Y6001498D01*
X14889624Y5978685D01*
X14889500Y5977620D01*
X14889500Y5808058D01*
X14867826Y5755732D01*
X14815500Y5734058D01*
X14763174Y5755732D01*
X14732173Y5786733D01*
X14710499Y5839059D01*
X14710499Y5977623D01*
X14707730Y6001496D01*
X14707730Y6001498D01*
X14664616Y6099141D01*
X14589141Y6174616D01*
X14491498Y6217730D01*
X14467623Y6220500D01*
X14467619Y6220500D01*
X14112377Y6220500D01*
X14088504Y6217731D01*
X13990858Y6174616D01*
X13915385Y6099143D01*
X13872271Y6001500D01*
X13872270Y6001498D01*
X13869500Y5977623D01*
X13869500Y5852488D01*
X13869501Y5799500D01*
X13847827Y5747174D01*
X13795501Y5725500D01*
X8386189Y5725500D01*
X8333863Y5747174D01*
X8280562Y5800475D01*
X8194939Y5849910D01*
X8194934Y5849912D01*
X8099437Y5875500D01*
X8099435Y5875500D01*
X8000565Y5875500D01*
X8000563Y5875500D01*
X7905065Y5849912D01*
X7905060Y5849910D01*
X7819437Y5800475D01*
X7749525Y5730563D01*
X7700090Y5644940D01*
X7700088Y5644935D01*
X7674500Y5549438D01*
X7674500Y5450563D01*
X7700088Y5355066D01*
X7701020Y5352817D01*
X7701019Y5351591D01*
X7701345Y5350377D01*
X7701019Y5350290D01*
X7701018Y5296180D01*
X7660969Y5256132D01*
X7632652Y5250500D01*
X4148746Y5250500D01*
X4096420Y5272174D01*
X4074746Y5324500D01*
X4096420Y5376826D01*
X4129590Y5395978D01*
X4144938Y5400090D01*
X4230562Y5449525D01*
X4300475Y5519438D01*
X4349910Y5605062D01*
X4375499Y5700563D01*
X4375500Y5700563D01*
X4375500Y5799437D01*
X4375499Y5799438D01*
X4375482Y5799500D01*
X4355386Y5874501D01*
X4349911Y5894935D01*
X4349909Y5894940D01*
X4323171Y5941251D01*
X4315778Y5997403D01*
X4350257Y6042337D01*
X4406406Y6049730D01*
X4500562Y6024501D01*
X4500563Y6024500D01*
X4500565Y6024500D01*
X4599436Y6024500D01*
X4614953Y6028659D01*
X4656347Y6039750D01*
X4712499Y6032359D01*
X4746978Y5987426D01*
X4749500Y5968273D01*
X4749500Y5893481D01*
X4764353Y5799696D01*
X4764354Y5799694D01*
X4814738Y5700813D01*
X4821950Y5686658D01*
X4911658Y5596950D01*
X5024696Y5539354D01*
X5118481Y5524500D01*
X5681518Y5524501D01*
X5681519Y5524501D01*
X5775304Y5539354D01*
X5775306Y5539355D01*
X5806295Y5555145D01*
X5888342Y5596950D01*
X5978050Y5686658D01*
X6035646Y5799696D01*
X6050500Y5893481D01*
X6050499Y6699438D01*
X8124500Y6699438D01*
X8124500Y6600563D01*
X8150088Y6505066D01*
X8150090Y6505061D01*
X8182205Y6449437D01*
X8199525Y6419438D01*
X8269438Y6349525D01*
X8355062Y6300090D01*
X8355063Y6300090D01*
X8355065Y6300089D01*
X8375924Y6294500D01*
X8450562Y6274501D01*
X8450563Y6274500D01*
X8450565Y6274500D01*
X8549437Y6274500D01*
X8549437Y6274501D01*
X8644938Y6300090D01*
X8730562Y6349525D01*
X8800475Y6419438D01*
X8849910Y6505062D01*
X8875499Y6600563D01*
X8875500Y6600563D01*
X8875500Y6699437D01*
X8875499Y6699438D01*
X8849911Y6794935D01*
X8849909Y6794940D01*
X8816099Y6853500D01*
X8800475Y6880562D01*
X8730562Y6950475D01*
X8683189Y6977826D01*
X8644939Y6999910D01*
X8644934Y6999912D01*
X8549437Y7025500D01*
X8549435Y7025500D01*
X8450565Y7025500D01*
X8450563Y7025500D01*
X8355065Y6999912D01*
X8355060Y6999910D01*
X8269437Y6950475D01*
X8199525Y6880563D01*
X8150090Y6794940D01*
X8150088Y6794935D01*
X8124500Y6699438D01*
X6050499Y6699438D01*
X6050499Y6793287D01*
X6072173Y6845612D01*
X6124499Y6867286D01*
X6143652Y6864764D01*
X6165799Y6858830D01*
X6185688Y6853501D01*
X6185689Y6853500D01*
X6185691Y6853500D01*
X6304311Y6853500D01*
X6304311Y6853501D01*
X6418886Y6884201D01*
X6521613Y6943511D01*
X6605489Y7027387D01*
X6664799Y7130114D01*
X6695499Y7244689D01*
X6695500Y7244689D01*
X6695500Y7363311D01*
X6695499Y7363312D01*
X6664800Y7477883D01*
X6664798Y7477888D01*
X6605491Y7580610D01*
X6605490Y7580611D01*
X6605489Y7580613D01*
X6552253Y7633849D01*
X6530580Y7686173D01*
X6552252Y7738496D01*
X6564616Y7750859D01*
X6607730Y7848502D01*
X6610500Y7872377D01*
X6610499Y8166590D01*
X6632173Y8218915D01*
X6684499Y8240589D01*
X6736825Y8218915D01*
X6767826Y8187914D01*
X6789500Y8135588D01*
X6789500Y7872378D01*
X6792269Y7848505D01*
X6792269Y7848503D01*
X6792270Y7848502D01*
X6835384Y7750859D01*
X6910859Y7675384D01*
X7008502Y7632270D01*
X7032377Y7629500D01*
X7387622Y7629501D01*
X7411498Y7632270D01*
X7509141Y7675384D01*
X7584616Y7750859D01*
X7627730Y7848502D01*
X7630500Y7872377D01*
X7630499Y8327622D01*
X7627730Y8351498D01*
X7584616Y8449141D01*
X7509141Y8524616D01*
X7411498Y8567730D01*
X7387623Y8570500D01*
X7387619Y8570500D01*
X7124413Y8570500D01*
X7072087Y8592174D01*
X6839574Y8824687D01*
X6817900Y8877013D01*
X6817900Y9975387D01*
X6839574Y10027713D01*
X7108563Y10296702D01*
X7108564Y10296703D01*
X7146700Y10388772D01*
X7146700Y10488427D01*
X7146700Y12284552D01*
X7146701Y12284561D01*
X7146701Y12392827D01*
X7146700Y12392830D01*
X7143477Y12400611D01*
X7143476Y12400613D01*
X7143476Y12441331D01*
X7143475Y12457248D01*
X7143476Y12457250D01*
X7163499Y12477274D01*
X7183523Y12497297D01*
X7183524Y12497298D01*
X7211841Y12497298D01*
X7240157Y12497299D01*
X7295200Y12474500D01*
G37*
%TD.AperFunction*%
%TA.AperFunction,Conductor*%
G36*
X24727826Y34727826D02*
G01*
X24749500Y34675500D01*
X24749500Y23824500D01*
X24727826Y23772174D01*
X24675500Y23750500D01*
X24400172Y23750500D01*
X24308105Y23712366D01*
X24237634Y23641895D01*
X24199500Y23549830D01*
X24199500Y12850171D01*
X24237634Y12758106D01*
X24237637Y12758102D01*
X24308102Y12687637D01*
X24308105Y12687635D01*
X24332016Y12677731D01*
X24400172Y12649500D01*
X24675500Y12649500D01*
X24727826Y12627826D01*
X24749500Y12575500D01*
X24749500Y6074000D01*
X24727826Y6021674D01*
X24675500Y6000000D01*
X24000000Y6000000D01*
X24000000Y5324500D01*
X23978326Y5272174D01*
X23926000Y5250500D01*
X18012909Y5250500D01*
X17960583Y5272174D01*
X17938909Y5324500D01*
X17960583Y5376826D01*
X17984616Y5400859D01*
X18027730Y5498502D01*
X18030500Y5522377D01*
X18030499Y5977622D01*
X18027730Y6001498D01*
X17984616Y6099141D01*
X17909141Y6174616D01*
X17811498Y6217730D01*
X17787623Y6220500D01*
X17787619Y6220500D01*
X17685034Y6220500D01*
X17672402Y6225733D01*
X17658734Y6225331D01*
X17647847Y6235904D01*
X17632708Y6242174D01*
X17617527Y6264188D01*
X17617083Y6265177D01*
X17604256Y6296144D01*
X17591170Y6327736D01*
X17587217Y6331689D01*
X17581994Y6343321D01*
X17581704Y6353185D01*
X17575501Y6373633D01*
X17575501Y6374970D01*
X17580696Y6387514D01*
X17580332Y6399933D01*
X17590156Y6410352D01*
X17597175Y6427296D01*
X17611876Y6433386D01*
X17619189Y6441140D01*
X17631467Y6441501D01*
X17649501Y6448970D01*
X17668654Y6446448D01*
X17750562Y6424501D01*
X17750563Y6424500D01*
X17750565Y6424500D01*
X17849437Y6424500D01*
X17849437Y6424501D01*
X17944938Y6450090D01*
X18030562Y6499525D01*
X18030562Y6499526D01*
X18034762Y6501950D01*
X18035440Y6500776D01*
X18085150Y6514101D01*
X18134203Y6485789D01*
X18149500Y6440733D01*
X18149500Y6111516D01*
X18152488Y6085762D01*
X18198999Y5980423D01*
X18280423Y5898999D01*
X18385762Y5852488D01*
X18411516Y5849500D01*
X18411520Y5849500D01*
X19238480Y5849500D01*
X19238484Y5849500D01*
X19264238Y5852488D01*
X19369577Y5898999D01*
X19451001Y5980423D01*
X19497512Y6085762D01*
X19500500Y6111516D01*
X19500500Y7888484D01*
X19497512Y7914238D01*
X19497511Y7914240D01*
X19496870Y7919766D01*
X19499605Y7920084D01*
X19505595Y7967045D01*
X19541513Y7998672D01*
X19544927Y8000088D01*
X19544938Y8000090D01*
X19630562Y8049525D01*
X19700475Y8119438D01*
X19749910Y8205062D01*
X19775499Y8300563D01*
X19775500Y8300563D01*
X19775500Y8399437D01*
X19775499Y8399438D01*
X19749911Y8494935D01*
X19749909Y8494940D01*
X19722582Y8542272D01*
X19700475Y8580562D01*
X19630562Y8650475D01*
X19591863Y8672818D01*
X19544939Y8699910D01*
X19544934Y8699912D01*
X19449437Y8725500D01*
X19449435Y8725500D01*
X19350565Y8725500D01*
X19350563Y8725500D01*
X19255065Y8699912D01*
X19255060Y8699910D01*
X19169437Y8650475D01*
X19099525Y8580563D01*
X19050090Y8494940D01*
X19050088Y8494935D01*
X19024500Y8399438D01*
X19024500Y8300563D01*
X19039749Y8243653D01*
X19032357Y8187500D01*
X18987424Y8153022D01*
X18968271Y8150500D01*
X18411516Y8150500D01*
X18390912Y8148110D01*
X18385761Y8147512D01*
X18280422Y8101001D01*
X18276826Y8097404D01*
X18224500Y8075730D01*
X18172174Y8097404D01*
X18150500Y8149730D01*
X18150500Y8664820D01*
X18145270Y8691111D01*
X18141767Y8708722D01*
X18108504Y8758504D01*
X18072902Y8782292D01*
X18058722Y8791767D01*
X18037477Y8795993D01*
X18014820Y8800500D01*
X17135180Y8800500D01*
X17135179Y8800500D01*
X17105084Y8794514D01*
X17097650Y8795993D01*
X17090648Y8793092D01*
X17070704Y8801353D01*
X17049535Y8805564D01*
X17045324Y8811866D01*
X17038322Y8814766D01*
X17030061Y8834710D01*
X17018070Y8852656D01*
X17019548Y8860090D01*
X17016648Y8867092D01*
X17024908Y8887036D01*
X17029120Y8908205D01*
X17038317Y8919413D01*
X17121731Y9002826D01*
X17174057Y9024500D01*
X17196525Y9024500D01*
X17196533Y9024499D01*
X17205145Y9024499D01*
X17294854Y9024499D01*
X17294855Y9024499D01*
X17357625Y9050500D01*
X17377736Y9058830D01*
X17441170Y9122264D01*
X17441170Y9122265D01*
X17451575Y9132670D01*
X17451577Y9132673D01*
X17633091Y9314188D01*
X17685416Y9335861D01*
X17704839Y9333266D01*
X17708495Y9332272D01*
X17708498Y9332272D01*
X17708502Y9332270D01*
X17732377Y9329500D01*
X18087622Y9329501D01*
X18111498Y9332270D01*
X18209141Y9375384D01*
X18284616Y9450859D01*
X18327730Y9548502D01*
X18330500Y9572377D01*
X18330499Y10027622D01*
X18330488Y10027713D01*
X18327730Y10051496D01*
X18327730Y10051498D01*
X18284616Y10149141D01*
X18209141Y10224616D01*
X18111498Y10267730D01*
X18087623Y10270500D01*
X18087619Y10270500D01*
X17987088Y10270500D01*
X17934762Y10292174D01*
X17913088Y10344500D01*
X17915610Y10363653D01*
X17925499Y10400563D01*
X17925500Y10400563D01*
X17925500Y10499437D01*
X17925499Y10499438D01*
X17899911Y10594935D01*
X17899909Y10594940D01*
X17876441Y10635588D01*
X17850475Y10680562D01*
X17837862Y10693175D01*
X17816188Y10745501D01*
X17837862Y10797827D01*
X17890186Y10819501D01*
X18127622Y10819501D01*
X18151498Y10822270D01*
X18249141Y10865384D01*
X18324616Y10940859D01*
X18367730Y11038502D01*
X18370500Y11062377D01*
X18370499Y11417622D01*
X18367730Y11441498D01*
X18355329Y11469581D01*
X18354022Y11526201D01*
X18370697Y11551794D01*
X18473174Y11654270D01*
X18525500Y11675944D01*
X18577826Y11654270D01*
X18599500Y11601944D01*
X18599500Y10061516D01*
X18602488Y10035762D01*
X18648999Y9930423D01*
X18730423Y9848999D01*
X18835762Y9802488D01*
X18861516Y9799500D01*
X18861520Y9799500D01*
X19688480Y9799500D01*
X19688484Y9799500D01*
X19714238Y9802488D01*
X19819577Y9848999D01*
X19901001Y9930423D01*
X19947512Y10035762D01*
X19950500Y10061516D01*
X19950500Y11780070D01*
X19956133Y11808388D01*
X19958768Y11814751D01*
X19970893Y11844021D01*
X19986930Y11868025D01*
X19991170Y11872264D01*
X19991170Y11872266D01*
X19995479Y11876574D01*
X20028655Y11895727D01*
X20036049Y11897709D01*
X20044934Y11900089D01*
X20044935Y11900089D01*
X20044935Y11900090D01*
X20044938Y11900090D01*
X20130562Y11949525D01*
X20200475Y12019438D01*
X20249910Y12105062D01*
X20275499Y12200563D01*
X20275500Y12200563D01*
X20275500Y12299437D01*
X20275499Y12299438D01*
X20268783Y12324501D01*
X20262078Y12349526D01*
X20249911Y12394935D01*
X20249909Y12394940D01*
X20229039Y12431088D01*
X20200475Y12480562D01*
X20130562Y12550475D01*
X20044939Y12599910D01*
X20044934Y12599912D01*
X19949437Y12625500D01*
X19949435Y12625500D01*
X19850565Y12625500D01*
X19850563Y12625500D01*
X19755065Y12599912D01*
X19755060Y12599910D01*
X19669437Y12550475D01*
X19599525Y12480563D01*
X19550090Y12394940D01*
X19550088Y12394935D01*
X19524500Y12299438D01*
X19524500Y12200563D01*
X19526352Y12193650D01*
X19518958Y12137498D01*
X19474023Y12103021D01*
X19454873Y12100500D01*
X18861516Y12100500D01*
X18844346Y12098508D01*
X18835760Y12097512D01*
X18835759Y12097511D01*
X18779389Y12072622D01*
X18763855Y12072264D01*
X18749500Y12066317D01*
X18736661Y12071635D01*
X18722767Y12071314D01*
X18711528Y12082046D01*
X18697174Y12087991D01*
X18691855Y12100831D01*
X18681805Y12110428D01*
X18675500Y12140317D01*
X18675500Y12246144D01*
X18697174Y12298470D01*
X18712496Y12310228D01*
X18780562Y12349525D01*
X18850475Y12419438D01*
X18899910Y12505062D01*
X18925499Y12600563D01*
X18925500Y12600563D01*
X18925500Y12699437D01*
X18925499Y12699438D01*
X18899911Y12794935D01*
X18899909Y12794940D01*
X18876498Y12835488D01*
X18850475Y12880562D01*
X18780562Y12950475D01*
X18767750Y12957872D01*
X18694939Y12999910D01*
X18694934Y12999912D01*
X18599437Y13025500D01*
X18599435Y13025500D01*
X18500565Y13025500D01*
X18500563Y13025500D01*
X18405065Y12999912D01*
X18405060Y12999910D01*
X18319437Y12950475D01*
X18249525Y12880563D01*
X18200090Y12794940D01*
X18200088Y12794935D01*
X18184122Y12735347D01*
X18149644Y12690414D01*
X18112644Y12680500D01*
X17672377Y12680500D01*
X17648504Y12677731D01*
X17550858Y12634616D01*
X17475385Y12559143D01*
X17432270Y12461499D01*
X17429500Y12437620D01*
X17429500Y12082378D01*
X17432269Y12058504D01*
X17432270Y12058502D01*
X17444668Y12030421D01*
X17445975Y11973799D01*
X17429299Y11948206D01*
X17224727Y11743634D01*
X17224722Y11743629D01*
X17222265Y11741171D01*
X17222264Y11741170D01*
X17158830Y11677736D01*
X17151691Y11660500D01*
X17147433Y11650222D01*
X17147429Y11650216D01*
X17146699Y11648452D01*
X17142477Y11644231D01*
X17140337Y11641644D01*
X17139388Y11641142D01*
X17106649Y11608405D01*
X17057453Y11608409D01*
X17056871Y11606268D01*
X17051499Y11607730D01*
X17045680Y11608405D01*
X17027623Y11610500D01*
X17027619Y11610500D01*
X16889058Y11610500D01*
X16836732Y11632174D01*
X16497174Y11971732D01*
X16475500Y12024058D01*
X16475500Y12146525D01*
X16475501Y12146534D01*
X16475501Y12250813D01*
X16475500Y12250827D01*
X16475500Y12463811D01*
X16497174Y12516137D01*
X16518771Y12537734D01*
X16550475Y12569438D01*
X16599910Y12655062D01*
X16625499Y12750563D01*
X16625500Y12750563D01*
X16625500Y12849437D01*
X16625499Y12849438D01*
X16625302Y12850172D01*
X16604101Y12929298D01*
X16599911Y12944935D01*
X16599909Y12944940D01*
X16571993Y12993291D01*
X16550475Y13030562D01*
X16480562Y13100475D01*
X16459970Y13112364D01*
X16394939Y13149910D01*
X16394934Y13149912D01*
X16342976Y13163834D01*
X16298043Y13198313D01*
X16290651Y13254465D01*
X16299942Y13289141D01*
X16309199Y13323689D01*
X16309200Y13323689D01*
X16309200Y13442311D01*
X16309199Y13442312D01*
X16307619Y13448207D01*
X16278499Y13556886D01*
X16256531Y13594935D01*
X16219191Y13659610D01*
X16219190Y13659611D01*
X16219189Y13659613D01*
X16135313Y13743489D01*
X16135310Y13743491D01*
X16135309Y13743492D01*
X16032587Y13802799D01*
X16032582Y13802801D01*
X15918011Y13833500D01*
X15918009Y13833500D01*
X15799391Y13833500D01*
X15799389Y13833500D01*
X15684817Y13802801D01*
X15684812Y13802799D01*
X15582090Y13743492D01*
X15498208Y13659610D01*
X15438901Y13556888D01*
X15438899Y13556883D01*
X15408199Y13442308D01*
X15408181Y13442171D01*
X15408146Y13442111D01*
X15406944Y13437624D01*
X15405741Y13437947D01*
X15379859Y13393124D01*
X15325151Y13378469D01*
X15304925Y13384140D01*
X15251500Y13407730D01*
X15243539Y13408654D01*
X15227623Y13410500D01*
X15227619Y13410500D01*
X14772377Y13410500D01*
X14748504Y13407731D01*
X14650855Y13364615D01*
X14645201Y13360741D01*
X14644081Y13362376D01*
X14599500Y13343909D01*
X14547174Y13365583D01*
X14525500Y13417909D01*
X14525500Y13499437D01*
X14525499Y13499438D01*
X14523283Y13507707D01*
X14510106Y13556886D01*
X14499911Y13594935D01*
X14499909Y13594940D01*
X14486663Y13617883D01*
X14450475Y13680562D01*
X14380562Y13750475D01*
X14354536Y13765501D01*
X14294939Y13799910D01*
X14294934Y13799912D01*
X14199437Y13825500D01*
X14199435Y13825500D01*
X14100565Y13825500D01*
X14100563Y13825500D01*
X14005066Y13799912D01*
X14005059Y13799909D01*
X13997795Y13795715D01*
X13941642Y13788327D01*
X13896711Y13822809D01*
X13893105Y13829915D01*
X13891073Y13834516D01*
X13884616Y13849141D01*
X13809141Y13924616D01*
X13711498Y13967730D01*
X13687623Y13970500D01*
X13687619Y13970500D01*
X13332377Y13970500D01*
X13308504Y13967731D01*
X13210858Y13924616D01*
X13135385Y13849143D01*
X13135384Y13849142D01*
X13135384Y13849141D01*
X13128970Y13834615D01*
X13092270Y13751499D01*
X13089500Y13727620D01*
X13089500Y13272378D01*
X13092269Y13248505D01*
X13092269Y13248503D01*
X13092270Y13248502D01*
X13135384Y13150859D01*
X13210859Y13075384D01*
X13308502Y13032270D01*
X13332377Y13029500D01*
X13687622Y13029501D01*
X13711498Y13032270D01*
X13758650Y13053091D01*
X13815271Y13054399D01*
X13856234Y13015287D01*
X13857543Y12958665D01*
X13847249Y12940349D01*
X13845612Y12938216D01*
X13786301Y12835488D01*
X13786299Y12835483D01*
X13755600Y12720912D01*
X13755600Y12602289D01*
X13786299Y12487718D01*
X13786301Y12487713D01*
X13845608Y12384991D01*
X13845609Y12384990D01*
X13845611Y12384987D01*
X13929487Y12301111D01*
X13929489Y12301110D01*
X13929490Y12301109D01*
X14026919Y12244858D01*
X14032214Y12241801D01*
X14032215Y12241801D01*
X14032217Y12241800D01*
X14089502Y12226451D01*
X14146788Y12211101D01*
X14146789Y12211100D01*
X14146791Y12211100D01*
X14265411Y12211100D01*
X14265411Y12211101D01*
X14379986Y12241801D01*
X14482713Y12301111D01*
X14566589Y12384987D01*
X14566589Y12384988D01*
X14570019Y12388417D01*
X14571942Y12386494D01*
X14613449Y12410466D01*
X14623119Y12411100D01*
X14721427Y12411100D01*
X14721428Y12411100D01*
X14813497Y12449236D01*
X14912087Y12547828D01*
X14964413Y12569501D01*
X15227622Y12569501D01*
X15251498Y12572270D01*
X15349141Y12615384D01*
X15424616Y12690859D01*
X15426616Y12695390D01*
X15467577Y12734502D01*
X15494311Y12739500D01*
X15515527Y12739500D01*
X15515528Y12739500D01*
X15607597Y12777636D01*
X15740953Y12910994D01*
X15741741Y12911321D01*
X15742086Y12912104D01*
X15749455Y12914516D01*
X15793276Y12932667D01*
X15794865Y12932650D01*
X15799176Y12932558D01*
X15799391Y12932500D01*
X15801851Y12932500D01*
X15802643Y12932483D01*
X15803979Y12931896D01*
X15804234Y12931862D01*
X15804224Y12931788D01*
X15827896Y12921382D01*
X15853381Y12910826D01*
X15853708Y12910036D01*
X15854492Y12909691D01*
X15864500Y12883982D01*
X15875055Y12858500D01*
X15874963Y12857104D01*
X15875038Y12856912D01*
X15874935Y12856680D01*
X15874500Y12850031D01*
X15874500Y12849435D01*
X15874500Y12750565D01*
X15882446Y12720909D01*
X15883524Y12716887D01*
X15876131Y12660734D01*
X15864371Y12645409D01*
X15799525Y12580563D01*
X15750090Y12494940D01*
X15750088Y12494935D01*
X15724500Y12399438D01*
X15724500Y12300563D01*
X15750088Y12205066D01*
X15750090Y12205061D01*
X15789098Y12137498D01*
X15799525Y12119438D01*
X15869438Y12049525D01*
X15955062Y12000090D01*
X15969651Y11996181D01*
X16014584Y11961704D01*
X16023427Y11937255D01*
X16024499Y11931027D01*
X16024499Y11855145D01*
X16043684Y11808830D01*
X16046843Y11801202D01*
X16046844Y11801200D01*
X16058829Y11772265D01*
X16132671Y11698423D01*
X16132673Y11698422D01*
X16329300Y11501795D01*
X16350974Y11449469D01*
X16344669Y11419579D01*
X16332270Y11391499D01*
X16329500Y11367620D01*
X16329500Y11012378D01*
X16332269Y10988505D01*
X16332269Y10988503D01*
X16332270Y10988502D01*
X16375384Y10890859D01*
X16450859Y10815384D01*
X16548502Y10772270D01*
X16548503Y10772270D01*
X16553594Y10770022D01*
X16552807Y10768241D01*
X16591909Y10738003D01*
X16599091Y10681823D01*
X16580011Y10648918D01*
X16274304Y10343211D01*
X16274298Y10343205D01*
X16272265Y10341171D01*
X16272264Y10341170D01*
X16208830Y10277736D01*
X16204410Y10267064D01*
X16199917Y10256218D01*
X16199914Y10256214D01*
X16179105Y10205978D01*
X16163068Y10181975D01*
X16158830Y10177737D01*
X16152463Y10162364D01*
X16124499Y10094856D01*
X16124499Y9996534D01*
X16124500Y9996525D01*
X16124500Y9774058D01*
X16102826Y9721732D01*
X15355281Y8974188D01*
X15302955Y8952514D01*
X15250629Y8974188D01*
X15228955Y9026514D01*
X15229111Y9031316D01*
X15250000Y9350000D01*
X15220484Y9800316D01*
X15168864Y10059827D01*
X15132446Y10242918D01*
X15132444Y10242922D01*
X15132444Y10242926D01*
X14987384Y10670258D01*
X14787787Y11075001D01*
X14787784Y11075006D01*
X14787781Y11075011D01*
X14611185Y11339304D01*
X14537069Y11450227D01*
X14239518Y11789519D01*
X13900226Y12087070D01*
X13876354Y12103021D01*
X13525008Y12337783D01*
X13524997Y12337789D01*
X13120258Y12537385D01*
X12692929Y12682444D01*
X12692916Y12682448D01*
X12250322Y12770484D01*
X12250319Y12770485D01*
X12250315Y12770485D01*
X12042728Y12784092D01*
X11953226Y12789958D01*
X11929841Y12801491D01*
X11905746Y12811468D01*
X11904753Y12813864D01*
X11902430Y12815009D01*
X11894047Y12839702D01*
X11884066Y12863792D01*
X11885057Y12866186D01*
X11884224Y12868640D01*
X11905734Y12916120D01*
X11906056Y12916443D01*
X11906058Y12916443D01*
X11910292Y12920678D01*
X11934298Y12936720D01*
X11987280Y12958665D01*
X12011911Y12968867D01*
X12040229Y12974500D01*
X12054799Y12974500D01*
X12054800Y12974500D01*
X12156058Y13016443D01*
X12160293Y13020679D01*
X12184296Y13036719D01*
X12203617Y13044723D01*
X12260252Y13044723D01*
X12261795Y13044063D01*
X12288502Y13032270D01*
X12312377Y13029500D01*
X12667622Y13029501D01*
X12691498Y13032270D01*
X12789141Y13075384D01*
X12864616Y13150859D01*
X12907730Y13248502D01*
X12910500Y13272377D01*
X12910499Y13727622D01*
X12907730Y13751498D01*
X12881805Y13810213D01*
X12875500Y13840103D01*
X12875500Y14109768D01*
X12881029Y14137834D01*
X12883515Y14143900D01*
X12883558Y14143942D01*
X12925500Y14245200D01*
X12925500Y14246328D01*
X12928646Y14254003D01*
X12943934Y14269406D01*
X12955983Y14287451D01*
X12967218Y14293627D01*
X13039141Y14325384D01*
X13114616Y14400859D01*
X13157730Y14498502D01*
X13160500Y14522377D01*
X13160499Y14977620D01*
X13339500Y14977620D01*
X13339500Y14522378D01*
X13342269Y14498505D01*
X13342269Y14498503D01*
X13342270Y14498502D01*
X13385384Y14400859D01*
X13460859Y14325384D01*
X13558502Y14282270D01*
X13582377Y14279500D01*
X13937622Y14279501D01*
X13961498Y14282270D01*
X14059141Y14325384D01*
X14134616Y14400859D01*
X14177730Y14498502D01*
X14177731Y14498507D01*
X14179190Y14503868D01*
X14180767Y14503439D01*
X14198704Y14540544D01*
X14480853Y14822694D01*
X14533178Y14844367D01*
X14535711Y14844200D01*
X14539291Y14844200D01*
X14657911Y14844200D01*
X14657911Y14844201D01*
X14772486Y14874901D01*
X14875213Y14934211D01*
X14959089Y15018087D01*
X15018399Y15120814D01*
X15049099Y15235389D01*
X15049100Y15235389D01*
X15049100Y15354011D01*
X15049099Y15354012D01*
X15018400Y15468583D01*
X15018398Y15468588D01*
X14959091Y15571310D01*
X14959090Y15571311D01*
X14959089Y15571313D01*
X14875213Y15655189D01*
X14875210Y15655191D01*
X14875209Y15655192D01*
X14772487Y15714499D01*
X14772482Y15714501D01*
X14657911Y15745200D01*
X14657909Y15745200D01*
X14539291Y15745200D01*
X14539289Y15745200D01*
X14424717Y15714501D01*
X14424712Y15714499D01*
X14321990Y15655192D01*
X14238108Y15571310D01*
X14178801Y15468588D01*
X14178799Y15468583D01*
X14148100Y15354012D01*
X14148100Y15248904D01*
X14126426Y15196578D01*
X14074100Y15174904D01*
X14044210Y15181209D01*
X13961500Y15217730D01*
X13953539Y15218654D01*
X13937623Y15220500D01*
X13937619Y15220500D01*
X13582377Y15220500D01*
X13558504Y15217731D01*
X13460858Y15174616D01*
X13385385Y15099143D01*
X13349595Y15018087D01*
X13342270Y15001498D01*
X13339514Y14977737D01*
X13339500Y14977620D01*
X13160499Y14977620D01*
X13160499Y14977622D01*
X13157730Y15001498D01*
X13114616Y15099141D01*
X13039141Y15174616D01*
X12941498Y15217730D01*
X12917623Y15220500D01*
X12917619Y15220500D01*
X12562377Y15220500D01*
X12538504Y15217731D01*
X12440858Y15174616D01*
X12365385Y15099143D01*
X12329595Y15018087D01*
X12322270Y15001498D01*
X12319514Y14977737D01*
X12319500Y14977620D01*
X12319500Y14739768D01*
X12297826Y14687444D01*
X12216980Y14606595D01*
X12193942Y14583557D01*
X12116442Y14506057D01*
X12116441Y14506055D01*
X12086720Y14434303D01*
X12070679Y14410296D01*
X11693942Y14033557D01*
X11616442Y13956057D01*
X11574500Y13854800D01*
X11574500Y13640230D01*
X11568867Y13611910D01*
X11542292Y13547755D01*
X11502243Y13507708D01*
X11502242Y13507708D01*
X11502241Y13507708D01*
X11438088Y13481133D01*
X11409769Y13475500D01*
X10145200Y13475500D01*
X10137714Y13472399D01*
X10084990Y13450561D01*
X10084984Y13450558D01*
X10079310Y13448207D01*
X10043941Y13433557D01*
X10020869Y13410486D01*
X10013718Y13406016D01*
X9993467Y13402626D01*
X9974497Y13394768D01*
X9966449Y13398102D01*
X9957858Y13396663D01*
X9941141Y13408586D01*
X9922172Y13416443D01*
X9918838Y13424492D01*
X9911747Y13429549D01*
X9908356Y13449798D01*
X9900499Y13468768D01*
X9900499Y14444864D01*
X9897585Y14469987D01*
X9897585Y14469991D01*
X9852206Y14572765D01*
X9772765Y14652206D01*
X9669991Y14697585D01*
X9669990Y14697586D01*
X9669988Y14697586D01*
X9644865Y14700500D01*
X9267762Y14700500D01*
X9215436Y14722174D01*
X9202838Y14741029D01*
X9202335Y14740738D01*
X9183293Y14773719D01*
X9150475Y14830562D01*
X9080562Y14900475D01*
X9058222Y14913373D01*
X8994939Y14949910D01*
X8994934Y14949912D01*
X8899437Y14975500D01*
X8899435Y14975500D01*
X8800565Y14975500D01*
X8800563Y14975500D01*
X8705065Y14949912D01*
X8705060Y14949910D01*
X8619437Y14900475D01*
X8549525Y14830563D01*
X8500090Y14744940D01*
X8500088Y14744935D01*
X8474500Y14649438D01*
X8474500Y14550563D01*
X8500088Y14455066D01*
X8500090Y14455061D01*
X8543848Y14379270D01*
X8549525Y14369438D01*
X8619438Y14299525D01*
X8705062Y14250090D01*
X8705063Y14250090D01*
X8705065Y14250089D01*
X8752813Y14237295D01*
X8800562Y14224501D01*
X8800563Y14224500D01*
X8875943Y14224500D01*
X8928269Y14202826D01*
X8977826Y14153269D01*
X8999500Y14100943D01*
X8999500Y13180137D01*
X9002414Y13155014D01*
X9002415Y13155008D01*
X9013727Y13129390D01*
X9014085Y13113856D01*
X9020032Y13099500D01*
X9014714Y13086662D01*
X9015035Y13072768D01*
X9004304Y13061530D01*
X8998358Y13047174D01*
X8985519Y13041856D01*
X8975922Y13031805D01*
X8946032Y13025500D01*
X8839343Y13025500D01*
X8787017Y13047174D01*
X8765343Y13099500D01*
X8767864Y13118652D01*
X8776240Y13149912D01*
X8780200Y13164691D01*
X8780200Y13283309D01*
X8780200Y13283311D01*
X8780199Y13283312D01*
X8749500Y13397883D01*
X8749498Y13397888D01*
X8690191Y13500610D01*
X8690190Y13500611D01*
X8690189Y13500613D01*
X8606313Y13584489D01*
X8606310Y13584491D01*
X8606309Y13584492D01*
X8503587Y13643799D01*
X8503582Y13643801D01*
X8389011Y13674500D01*
X8389009Y13674500D01*
X8270391Y13674500D01*
X8270389Y13674500D01*
X8155817Y13643801D01*
X8155807Y13643797D01*
X8152455Y13641861D01*
X8133306Y13639343D01*
X8115462Y13631951D01*
X8106219Y13635780D01*
X8096301Y13634475D01*
X8063136Y13653625D01*
X8022173Y13694588D01*
X8000499Y13746914D01*
X8000499Y14444864D01*
X7997585Y14469987D01*
X7997585Y14469991D01*
X7952206Y14572765D01*
X7872765Y14652206D01*
X7769991Y14697585D01*
X7769990Y14697586D01*
X7769988Y14697586D01*
X7744865Y14700500D01*
X7618766Y14700500D01*
X7566440Y14722174D01*
X7544766Y14774500D01*
X7566440Y14826826D01*
X7592833Y14853219D01*
X8133558Y15393942D01*
X8175500Y15495200D01*
X8175500Y15604800D01*
X8175500Y16259768D01*
X8181132Y16288085D01*
X8183558Y16293942D01*
X8213281Y16365704D01*
X8229321Y16389707D01*
X8333553Y16493938D01*
X8333553Y16493939D01*
X8333557Y16493942D01*
X8333792Y16494509D01*
X8333796Y16494518D01*
X8346215Y16524501D01*
X8364957Y16569748D01*
X10574500Y16569748D01*
X10574500Y16430252D01*
X10575680Y16424321D01*
X10586133Y16371768D01*
X10613666Y16330563D01*
X10630448Y16305448D01*
X10659271Y16286189D01*
X10689948Y16265691D01*
X10721413Y16218599D01*
X10712921Y16167164D01*
X10700092Y16144944D01*
X10700088Y16144935D01*
X10674500Y16049438D01*
X10674500Y15950563D01*
X10700088Y15855066D01*
X10700090Y15855061D01*
X10732206Y15799435D01*
X10749525Y15769438D01*
X10819438Y15699525D01*
X10857178Y15677736D01*
X10902219Y15651731D01*
X10905062Y15650090D01*
X10905063Y15650090D01*
X10905065Y15650089D01*
X10947936Y15638602D01*
X11000562Y15624501D01*
X11000563Y15624500D01*
X11100499Y15624500D01*
X11127076Y15613492D01*
X11152812Y15602839D01*
X11152815Y15602830D01*
X11152825Y15602826D01*
X11169050Y15563668D01*
X11172290Y15564477D01*
X11172291Y15564473D01*
X11173801Y15552204D01*
X11174499Y15550519D01*
X11174500Y15546544D01*
X11174499Y15546542D01*
X11174499Y15546534D01*
X11174500Y15546525D01*
X11174500Y15373636D01*
X11162032Y15332528D01*
X11158830Y15327736D01*
X11150752Y15308233D01*
X11124499Y15244855D01*
X11124499Y15234500D01*
X11102825Y15182174D01*
X11050504Y15160500D01*
X11036628Y15160500D01*
X11012340Y15157683D01*
X10912983Y15113813D01*
X10836187Y15037017D01*
X10792318Y14937663D01*
X10789500Y14913370D01*
X10789500Y14546628D01*
X10792317Y14522341D01*
X10792317Y14522339D01*
X10792318Y14522338D01*
X10836187Y14422984D01*
X10912984Y14346187D01*
X11012338Y14302318D01*
X11036627Y14299500D01*
X11463372Y14299501D01*
X11487662Y14302318D01*
X11587016Y14346187D01*
X11663813Y14422984D01*
X11707682Y14522338D01*
X11710500Y14546627D01*
X11710499Y14913372D01*
X11707682Y14937662D01*
X11663813Y15037016D01*
X11622441Y15078388D01*
X11600767Y15130714D01*
X11606406Y15159046D01*
X11607008Y15160499D01*
X11625050Y15204058D01*
X11625501Y15205146D01*
X11625501Y15294855D01*
X11625501Y15300813D01*
X11625500Y15300827D01*
X11625500Y15475943D01*
X11647173Y15528268D01*
X11656542Y15537637D01*
X11689621Y15570716D01*
X11741944Y15592389D01*
X11770259Y15586758D01*
X11771766Y15586134D01*
X11771768Y15586134D01*
X11771769Y15586133D01*
X11830252Y15574500D01*
X11830254Y15574500D01*
X11969746Y15574500D01*
X11969748Y15574500D01*
X12028231Y15586133D01*
X12058887Y15606618D01*
X12114435Y15617667D01*
X12141111Y15606619D01*
X12171769Y15586133D01*
X12230252Y15574500D01*
X12230254Y15574500D01*
X12369746Y15574500D01*
X12369748Y15574500D01*
X12428231Y15586133D01*
X12458887Y15606618D01*
X12514435Y15617667D01*
X12541111Y15606619D01*
X12571769Y15586133D01*
X12630252Y15574500D01*
X12630254Y15574500D01*
X12769746Y15574500D01*
X12769748Y15574500D01*
X12828231Y15586133D01*
X12858887Y15606618D01*
X12914435Y15617667D01*
X12941111Y15606619D01*
X12971769Y15586133D01*
X13030252Y15574500D01*
X13030254Y15574500D01*
X13169746Y15574500D01*
X13169748Y15574500D01*
X13228231Y15586133D01*
X13294552Y15630448D01*
X13338867Y15696769D01*
X13350500Y15755252D01*
X13350500Y16244748D01*
X13338867Y16303231D01*
X13337835Y16304775D01*
X13316429Y16336811D01*
X13294552Y16369552D01*
X13272343Y16384392D01*
X13228232Y16413867D01*
X13228233Y16413867D01*
X13198989Y16419684D01*
X13169748Y16425500D01*
X13030252Y16425500D01*
X13001010Y16419684D01*
X12971767Y16413867D01*
X12941112Y16393383D01*
X12885564Y16382334D01*
X12858888Y16393383D01*
X12828231Y16413867D01*
X12828233Y16413867D01*
X12798989Y16419684D01*
X12769748Y16425500D01*
X12630252Y16425500D01*
X12601010Y16419684D01*
X12571767Y16413867D01*
X12541112Y16393383D01*
X12485564Y16382334D01*
X12458888Y16393383D01*
X12428231Y16413867D01*
X12428233Y16413867D01*
X12398989Y16419684D01*
X12369748Y16425500D01*
X12230252Y16425500D01*
X12201010Y16419684D01*
X12171767Y16413867D01*
X12141112Y16393383D01*
X12085564Y16382334D01*
X12058888Y16393383D01*
X12028231Y16413867D01*
X12028233Y16413867D01*
X11998989Y16419684D01*
X11969748Y16425500D01*
X11830252Y16425500D01*
X11801010Y16419684D01*
X11771767Y16413867D01*
X11741112Y16393383D01*
X11685564Y16382334D01*
X11658888Y16393383D01*
X11628231Y16413867D01*
X11628233Y16413867D01*
X11598989Y16419684D01*
X11569748Y16425500D01*
X11499500Y16425500D01*
X11447174Y16447174D01*
X11425500Y16499500D01*
X11425500Y16569747D01*
X11425500Y16569748D01*
X13574500Y16569748D01*
X13574500Y16430252D01*
X13575680Y16424321D01*
X13586133Y16371768D01*
X13613666Y16330563D01*
X13630448Y16305448D01*
X13657608Y16287300D01*
X13696767Y16261134D01*
X13696768Y16261134D01*
X13696769Y16261133D01*
X13755252Y16249500D01*
X13755254Y16249500D01*
X14244746Y16249500D01*
X14244748Y16249500D01*
X14303231Y16261133D01*
X14369552Y16305448D01*
X14413867Y16371769D01*
X14425500Y16430252D01*
X14425500Y16569748D01*
X14413867Y16628231D01*
X14369552Y16694552D01*
X14343720Y16711813D01*
X14303232Y16738867D01*
X14303233Y16738867D01*
X14273989Y16744684D01*
X14244748Y16750500D01*
X13755252Y16750500D01*
X13726010Y16744684D01*
X13696767Y16738867D01*
X13630449Y16694553D01*
X13630447Y16694551D01*
X13586133Y16628233D01*
X13586133Y16628231D01*
X13574500Y16569748D01*
X11425500Y16569748D01*
X11425310Y16570702D01*
X11414510Y16625000D01*
X11705000Y16625000D01*
X13295000Y16625000D01*
X13295000Y18375000D01*
X11705000Y18375000D01*
X11705000Y16625000D01*
X11414510Y16625000D01*
X11413867Y16628231D01*
X11369552Y16694552D01*
X11343720Y16711813D01*
X11303232Y16738867D01*
X11303233Y16738867D01*
X11273989Y16744684D01*
X11244748Y16750500D01*
X10755252Y16750500D01*
X10726010Y16744684D01*
X10696767Y16738867D01*
X10630449Y16694553D01*
X10630447Y16694551D01*
X10586133Y16628233D01*
X10586133Y16628231D01*
X10574500Y16569748D01*
X8364957Y16569748D01*
X8375500Y16595200D01*
X8375500Y16665017D01*
X8375539Y16666216D01*
X8386764Y16691005D01*
X8397174Y16716137D01*
X8400475Y16719438D01*
X8449910Y16805062D01*
X8475499Y16900563D01*
X8475500Y16900563D01*
X8475500Y16999437D01*
X8475499Y16999438D01*
X8449911Y17094935D01*
X8449909Y17094940D01*
X8423374Y17140900D01*
X8400475Y17180562D01*
X8330562Y17250475D01*
X8295199Y17270892D01*
X8244939Y17299910D01*
X8244934Y17299912D01*
X8149437Y17325500D01*
X8149435Y17325500D01*
X8050565Y17325500D01*
X8050563Y17325500D01*
X7955065Y17299912D01*
X7955060Y17299910D01*
X7869437Y17250475D01*
X7799525Y17180563D01*
X7750090Y17094940D01*
X7750088Y17094935D01*
X7724500Y16999438D01*
X7724500Y16900563D01*
X7750089Y16805063D01*
X7763922Y16781103D01*
X7771314Y16724950D01*
X7752163Y16691779D01*
X7716443Y16656059D01*
X7686718Y16584299D01*
X7670680Y16560296D01*
X7666443Y16556060D01*
X7624500Y16454800D01*
X7624500Y15694768D01*
X7602826Y15642442D01*
X7351826Y15391442D01*
X7299500Y15369768D01*
X7247174Y15391442D01*
X7225500Y15443768D01*
X7225500Y17159768D01*
X7231133Y17188086D01*
X7267340Y17275500D01*
X7275500Y17295200D01*
X7275500Y17309768D01*
X7281132Y17338085D01*
X7286661Y17351434D01*
X7313279Y17415700D01*
X7329325Y17439709D01*
X7333556Y17443940D01*
X7333556Y17443941D01*
X7333558Y17443942D01*
X7341605Y17463370D01*
X9299500Y17463370D01*
X9299500Y17036628D01*
X9302317Y17012341D01*
X9302317Y17012339D01*
X9302318Y17012338D01*
X9346187Y16912984D01*
X9422984Y16836187D01*
X9522338Y16792318D01*
X9546627Y16789500D01*
X9913372Y16789501D01*
X9937662Y16792318D01*
X10037016Y16836187D01*
X10113813Y16912984D01*
X10157682Y17012338D01*
X10157682Y17012347D01*
X10159142Y17017706D01*
X10161740Y17017000D01*
X10184846Y17058498D01*
X10230804Y17074500D01*
X10654316Y17074500D01*
X10689940Y17063694D01*
X10690035Y17063922D01*
X10692356Y17062961D01*
X10695427Y17062029D01*
X10696767Y17061134D01*
X10696769Y17061133D01*
X10755252Y17049500D01*
X10755254Y17049500D01*
X11244746Y17049500D01*
X11244748Y17049500D01*
X11303231Y17061133D01*
X11369552Y17105448D01*
X11413867Y17171769D01*
X11425500Y17230252D01*
X11425500Y17369748D01*
X11413867Y17428231D01*
X11403370Y17443940D01*
X11390385Y17463373D01*
X11369552Y17494552D01*
X11323236Y17525500D01*
X11303232Y17538867D01*
X11303233Y17538867D01*
X11273989Y17544684D01*
X11244748Y17550500D01*
X10755252Y17550500D01*
X10726010Y17544684D01*
X10696767Y17538867D01*
X10695427Y17537971D01*
X10692356Y17537040D01*
X10690035Y17536078D01*
X10689940Y17536307D01*
X10654316Y17525500D01*
X10191323Y17525500D01*
X10171295Y17528262D01*
X10168862Y17528946D01*
X10124355Y17563973D01*
X10121202Y17570281D01*
X10113813Y17587016D01*
X10037016Y17663813D01*
X9937662Y17707682D01*
X9937663Y17707682D01*
X9932804Y17708246D01*
X9913373Y17710500D01*
X9913369Y17710500D01*
X9546627Y17710500D01*
X9522340Y17707683D01*
X9422983Y17663813D01*
X9346187Y17587017D01*
X9302318Y17487663D01*
X9299500Y17463370D01*
X7341605Y17463370D01*
X7363280Y17515701D01*
X7379325Y17539709D01*
X7383556Y17543940D01*
X7383556Y17543941D01*
X7383558Y17543942D01*
X7413279Y17615700D01*
X7429325Y17639709D01*
X7433556Y17643940D01*
X7433556Y17643941D01*
X7433558Y17643942D01*
X7463279Y17715700D01*
X7479320Y17739705D01*
X7483558Y17743942D01*
X7525500Y17845200D01*
X7525500Y17859768D01*
X7531132Y17888085D01*
X7536274Y17900500D01*
X7563280Y17965702D01*
X7579323Y17989708D01*
X7583558Y17993942D01*
X7583558Y17993944D01*
X7583560Y17993945D01*
X7585345Y17996615D01*
X7588017Y17998401D01*
X7588717Y17999100D01*
X7588856Y17998961D01*
X7632438Y18028080D01*
X7646872Y18029501D01*
X7667622Y18029501D01*
X7691498Y18032270D01*
X7789141Y18075384D01*
X7864616Y18150859D01*
X7907730Y18248502D01*
X7910500Y18272377D01*
X7910499Y18690232D01*
X7918876Y18724431D01*
X7924132Y18734518D01*
X7933558Y18743942D01*
X7951037Y18786143D01*
X7952536Y18789018D01*
X7971933Y18805279D01*
X7989839Y18823185D01*
X7993294Y18823186D01*
X7995940Y18825403D01*
X8021152Y18823186D01*
X8046476Y18823186D01*
X8048918Y18820744D01*
X8052359Y18820441D01*
X8068619Y18801044D01*
X8086526Y18783138D01*
X8087104Y18778994D01*
X8088744Y18777037D01*
X8088215Y18771027D01*
X8091665Y18746291D01*
X8090956Y18740170D01*
X8089500Y18727621D01*
X8089500Y18272378D01*
X8092269Y18248505D01*
X8092269Y18248503D01*
X8092270Y18248502D01*
X8135384Y18150859D01*
X8210859Y18075384D01*
X8308502Y18032270D01*
X8332377Y18029500D01*
X8687622Y18029501D01*
X8711498Y18032270D01*
X8809141Y18075384D01*
X8884616Y18150859D01*
X8927730Y18248502D01*
X8930500Y18272377D01*
X8930499Y18535589D01*
X8952172Y18587913D01*
X9276988Y18912730D01*
X9276991Y18912731D01*
X9287396Y18923136D01*
X9287397Y18923136D01*
X9357864Y18993603D01*
X9381458Y19050565D01*
X9396001Y19085673D01*
X9396001Y19185328D01*
X9396001Y19191286D01*
X9396000Y19191300D01*
X9396000Y19490120D01*
X9417674Y19542446D01*
X9470000Y19564120D01*
X9499890Y19557815D01*
X9512338Y19552318D01*
X9536627Y19549500D01*
X9850941Y19549501D01*
X9903267Y19527827D01*
X10052826Y19378269D01*
X10074500Y19325943D01*
X10074500Y18694858D01*
X10074499Y18694855D01*
X10074499Y18605145D01*
X10076225Y18600978D01*
X10076424Y18589395D01*
X10068291Y18568767D01*
X10063965Y18547014D01*
X10055785Y18537048D01*
X10055651Y18536705D01*
X10055424Y18536607D01*
X10054764Y18535802D01*
X10049525Y18530564D01*
X10000090Y18444940D01*
X10000088Y18444935D01*
X9974500Y18349438D01*
X9974500Y18250563D01*
X10000088Y18155066D01*
X10000090Y18155061D01*
X10046092Y18075384D01*
X10049525Y18069438D01*
X10119438Y17999525D01*
X10205062Y17950090D01*
X10205063Y17950090D01*
X10205065Y17950089D01*
X10211406Y17948390D01*
X10300562Y17924501D01*
X10300563Y17924500D01*
X10300565Y17924500D01*
X10399437Y17924500D01*
X10399437Y17924501D01*
X10488594Y17948390D01*
X10499623Y17951345D01*
X10500414Y17948391D01*
X10519373Y17948391D01*
X10547365Y17948433D01*
X10602221Y17925710D01*
X10626223Y17909673D01*
X10630445Y17905452D01*
X10630448Y17905448D01*
X10680073Y17872289D01*
X10696767Y17861134D01*
X10696768Y17861134D01*
X10696769Y17861133D01*
X10755252Y17849500D01*
X10755254Y17849500D01*
X11244746Y17849500D01*
X11244748Y17849500D01*
X11303231Y17861133D01*
X11369552Y17905448D01*
X11413867Y17971769D01*
X11425500Y18030252D01*
X11425500Y18169748D01*
X11413867Y18228231D01*
X11393382Y18258888D01*
X11382333Y18314435D01*
X11385955Y18326854D01*
X11388888Y18334387D01*
X11413867Y18371769D01*
X11425500Y18430252D01*
X11425500Y18501836D01*
X11425549Y18503185D01*
X11436810Y18527806D01*
X11447174Y18552826D01*
X11448506Y18553379D01*
X11449107Y18554690D01*
X11474478Y18564136D01*
X11499500Y18574500D01*
X11569746Y18574500D01*
X11569748Y18574500D01*
X11628231Y18586133D01*
X11658887Y18606618D01*
X11714435Y18617667D01*
X11741111Y18606619D01*
X11771769Y18586133D01*
X11830252Y18574500D01*
X11830254Y18574500D01*
X11969746Y18574500D01*
X11969748Y18574500D01*
X12028231Y18586133D01*
X12058887Y18606618D01*
X12114435Y18617667D01*
X12141111Y18606619D01*
X12171769Y18586133D01*
X12230252Y18574500D01*
X12230254Y18574500D01*
X12369746Y18574500D01*
X12369748Y18574500D01*
X12428231Y18586133D01*
X12458887Y18606618D01*
X12514435Y18617667D01*
X12541111Y18606619D01*
X12571769Y18586133D01*
X12630252Y18574500D01*
X12630254Y18574500D01*
X12769746Y18574500D01*
X12769748Y18574500D01*
X12828231Y18586133D01*
X12858887Y18606618D01*
X12914435Y18617667D01*
X12941111Y18606619D01*
X12971769Y18586133D01*
X13030252Y18574500D01*
X13030254Y18574500D01*
X13169746Y18574500D01*
X13169748Y18574500D01*
X13228231Y18586133D01*
X13258887Y18606618D01*
X13314435Y18617667D01*
X13341111Y18606619D01*
X13371769Y18586133D01*
X13430252Y18574500D01*
X13430254Y18574500D01*
X13500500Y18574500D01*
X13552826Y18552826D01*
X13574500Y18500500D01*
X13574500Y18430252D01*
X13580423Y18400475D01*
X13586133Y18371768D01*
X13606617Y18341112D01*
X13617666Y18285564D01*
X13606617Y18258888D01*
X13586133Y18228233D01*
X13579521Y18194991D01*
X13574500Y18169748D01*
X13574500Y18030252D01*
X13574650Y18029500D01*
X13586133Y17971768D01*
X13606617Y17941112D01*
X13617666Y17885564D01*
X13606617Y17858888D01*
X13586133Y17828233D01*
X13580423Y17799526D01*
X13574500Y17769748D01*
X13574500Y17630252D01*
X13579867Y17603269D01*
X13586133Y17571768D01*
X13606617Y17541112D01*
X13617666Y17485564D01*
X13606617Y17458888D01*
X13586133Y17428233D01*
X13586133Y17428231D01*
X13574500Y17369748D01*
X13574500Y17230252D01*
X13577554Y17214900D01*
X13586133Y17171768D01*
X13595601Y17157599D01*
X13630448Y17105448D01*
X13662116Y17084288D01*
X13696767Y17061134D01*
X13696768Y17061134D01*
X13696769Y17061133D01*
X13755252Y17049500D01*
X13755254Y17049500D01*
X14244746Y17049500D01*
X14244748Y17049500D01*
X14303231Y17061133D01*
X14369552Y17105448D01*
X14413867Y17171769D01*
X14425500Y17230252D01*
X14425500Y17369748D01*
X14422254Y17386065D01*
X14433302Y17441611D01*
X14480394Y17473078D01*
X14494832Y17474500D01*
X14663811Y17474500D01*
X14716137Y17452826D01*
X14769438Y17399525D01*
X14855062Y17350090D01*
X14855064Y17350090D01*
X14855820Y17349653D01*
X14890298Y17304720D01*
X14882906Y17248567D01*
X14855821Y17221482D01*
X14819438Y17200476D01*
X14749525Y17130563D01*
X14700090Y17044940D01*
X14700088Y17044935D01*
X14674500Y16949438D01*
X14674500Y16850564D01*
X14700088Y16755066D01*
X14700090Y16755061D01*
X14731880Y16700000D01*
X14749525Y16669438D01*
X14819438Y16599525D01*
X14905062Y16550090D01*
X14905063Y16550090D01*
X14905065Y16550089D01*
X14905737Y16549909D01*
X15000562Y16524501D01*
X15000563Y16524500D01*
X15056900Y16524500D01*
X15109226Y16502826D01*
X15130900Y16450500D01*
X15130900Y16375889D01*
X15161599Y16261318D01*
X15161601Y16261314D01*
X15220908Y16158591D01*
X15220909Y16158590D01*
X15220911Y16158587D01*
X15304787Y16074711D01*
X15304789Y16074710D01*
X15304790Y16074709D01*
X15407512Y16015402D01*
X15407514Y16015401D01*
X15407515Y16015401D01*
X15407517Y16015400D01*
X15464802Y16000051D01*
X15522088Y15984701D01*
X15522089Y15984700D01*
X15645560Y15984700D01*
X15645560Y15984345D01*
X15646821Y15984867D01*
X15668820Y15975755D01*
X15691824Y15969610D01*
X15699147Y15963193D01*
X15801126Y15861214D01*
X15822800Y15808888D01*
X15822800Y15700171D01*
X15860934Y15608106D01*
X15860937Y15608102D01*
X15931402Y15537637D01*
X15931405Y15537635D01*
X15944693Y15532131D01*
X16023472Y15499500D01*
X16106096Y15499500D01*
X16158422Y15477826D01*
X16177060Y15438401D01*
X16178791Y15438745D01*
X16188233Y15391278D01*
X16220219Y15343406D01*
X16221496Y15341496D01*
X16271278Y15308233D01*
X16315180Y15299500D01*
X16315181Y15299500D01*
X17794818Y15299500D01*
X17794820Y15299500D01*
X17836064Y15307705D01*
X17891611Y15296657D01*
X17923078Y15249565D01*
X17924500Y15235127D01*
X17924500Y15234232D01*
X17963717Y15087870D01*
X17963721Y15087861D01*
X18027368Y14977622D01*
X18039485Y14956635D01*
X18146635Y14849485D01*
X18277865Y14773719D01*
X18424231Y14734501D01*
X18424232Y14734500D01*
X18424234Y14734500D01*
X18575768Y14734500D01*
X18575768Y14734501D01*
X18722135Y14773719D01*
X18853365Y14849485D01*
X18960515Y14956635D01*
X19036281Y15087865D01*
X19075499Y15234232D01*
X19075500Y15234232D01*
X19075500Y15385768D01*
X19075499Y15385773D01*
X19036282Y15532131D01*
X19036281Y15532135D01*
X18960515Y15663365D01*
X18853365Y15770515D01*
X18853362Y15770517D01*
X18722139Y15846279D01*
X18722130Y15846283D01*
X18575768Y15885500D01*
X18575766Y15885500D01*
X18424234Y15885500D01*
X18424232Y15885500D01*
X18277869Y15846283D01*
X18277860Y15846279D01*
X18146637Y15770517D01*
X18146635Y15770516D01*
X18146635Y15770515D01*
X18056824Y15680705D01*
X18004500Y15659031D01*
X17952174Y15680705D01*
X17930500Y15733031D01*
X17930500Y16064820D01*
X17928532Y16074711D01*
X17921767Y16108722D01*
X17904951Y16133888D01*
X17893902Y16189436D01*
X17896890Y16200165D01*
X17899949Y16208626D01*
X17921767Y16241278D01*
X17930500Y16285180D01*
X17930500Y16293109D01*
X17934719Y16304775D01*
X17948044Y16319379D01*
X17957362Y16336811D01*
X17966475Y16339576D01*
X17972896Y16346612D01*
X17992643Y16347516D01*
X18011559Y16353254D01*
X18024837Y16348988D01*
X18029474Y16349200D01*
X18032352Y16346574D01*
X18041309Y16343696D01*
X18085814Y16318001D01*
X18085815Y16318001D01*
X18085817Y16318000D01*
X18135174Y16304775D01*
X18200388Y16287301D01*
X18200389Y16287300D01*
X18200391Y16287300D01*
X18319011Y16287300D01*
X18319011Y16287301D01*
X18433586Y16318001D01*
X18536313Y16377311D01*
X18620189Y16461187D01*
X18679499Y16563914D01*
X18710199Y16678489D01*
X18710200Y16678489D01*
X18710200Y16797111D01*
X18710199Y16797112D01*
X18679500Y16911683D01*
X18679498Y16911688D01*
X18620191Y17014410D01*
X18620190Y17014411D01*
X18620189Y17014413D01*
X18546026Y17088576D01*
X18524353Y17140900D01*
X18546027Y17193226D01*
X18598353Y17214900D01*
X18851287Y17214900D01*
X18903613Y17193226D01*
X19068692Y17028148D01*
X19090366Y16975822D01*
X19090200Y16973286D01*
X19090200Y16851089D01*
X19120899Y16736518D01*
X19120901Y16736513D01*
X19180208Y16633791D01*
X19180209Y16633790D01*
X19180211Y16633787D01*
X19264087Y16549911D01*
X19264089Y16549910D01*
X19264090Y16549909D01*
X19360040Y16494512D01*
X19366814Y16490601D01*
X19366815Y16490601D01*
X19366817Y16490600D01*
X19423171Y16475500D01*
X19481388Y16459901D01*
X19481389Y16459900D01*
X19481391Y16459900D01*
X19600011Y16459900D01*
X19600011Y16459901D01*
X19714586Y16490601D01*
X19817313Y16549911D01*
X19901189Y16633787D01*
X19960499Y16736514D01*
X19991199Y16851089D01*
X19991200Y16851089D01*
X19991200Y16969711D01*
X19991199Y16969712D01*
X19990241Y16973286D01*
X19968310Y17055136D01*
X19960500Y17084283D01*
X19960498Y17084288D01*
X19901191Y17187010D01*
X19901190Y17187011D01*
X19901189Y17187013D01*
X19817313Y17270889D01*
X19817310Y17270891D01*
X19817309Y17270892D01*
X19714587Y17330199D01*
X19714582Y17330201D01*
X19600011Y17360900D01*
X19600009Y17360900D01*
X19481391Y17360900D01*
X19476541Y17360900D01*
X19476541Y17363613D01*
X19430217Y17376036D01*
X19422952Y17382408D01*
X19299912Y17505448D01*
X19140734Y17664627D01*
X19119061Y17716951D01*
X19140733Y17769274D01*
X23455488Y22084030D01*
X23455491Y22084031D01*
X23465896Y22094436D01*
X23465897Y22094436D01*
X23536364Y22164903D01*
X23574500Y22256972D01*
X23574500Y25465828D01*
X23555432Y25511863D01*
X23536365Y25557895D01*
X23536363Y25557898D01*
X23492173Y25602088D01*
X23470499Y25654414D01*
X23470499Y25917623D01*
X23468218Y25937287D01*
X23467730Y25941498D01*
X23424616Y26039141D01*
X23349141Y26114616D01*
X23251498Y26157730D01*
X23227623Y26160500D01*
X23227619Y26160500D01*
X22772383Y26160500D01*
X22760182Y26159085D01*
X22758021Y26158835D01*
X22756130Y26159373D01*
X22754367Y26158502D01*
X22729159Y26167049D01*
X22703548Y26174338D01*
X22702590Y26176057D01*
X22700729Y26176688D01*
X22694118Y26191271D01*
X22675992Y26223820D01*
X22675660Y26227475D01*
X22675500Y26229903D01*
X22675500Y26249435D01*
X22673792Y26255809D01*
X22673314Y26263064D01*
X22680247Y26283514D01*
X22683062Y26304921D01*
X22689068Y26309532D01*
X22691500Y26316702D01*
X22710862Y26326260D01*
X22727990Y26339406D01*
X22739155Y26340226D01*
X22742287Y26341771D01*
X22745477Y26340690D01*
X22755677Y26341438D01*
X22772377Y26339500D01*
X23227622Y26339501D01*
X23251498Y26342270D01*
X23349141Y26385384D01*
X23424616Y26460859D01*
X23467730Y26558502D01*
X23470500Y26582377D01*
X23470499Y26835301D01*
X23492173Y26887626D01*
X23544499Y26909300D01*
X23659111Y26909300D01*
X23659111Y26909301D01*
X23773686Y26940001D01*
X23876413Y26999311D01*
X23960289Y27083187D01*
X24019599Y27185914D01*
X24050299Y27300489D01*
X24050300Y27300489D01*
X24050300Y27419111D01*
X24050299Y27419112D01*
X24044404Y27441111D01*
X24019599Y27533686D01*
X24004236Y27560296D01*
X23960291Y27636410D01*
X23960290Y27636411D01*
X23960289Y27636413D01*
X23876413Y27720289D01*
X23876410Y27720291D01*
X23876409Y27720292D01*
X23773687Y27779599D01*
X23773682Y27779601D01*
X23659111Y27810300D01*
X23659109Y27810300D01*
X23544500Y27810300D01*
X23492174Y27831974D01*
X23470500Y27884300D01*
X23470499Y28167623D01*
X23467730Y28191496D01*
X23467730Y28191498D01*
X23424616Y28289141D01*
X23349141Y28364616D01*
X23251498Y28407730D01*
X23227623Y28410500D01*
X23227619Y28410500D01*
X22772377Y28410500D01*
X22748504Y28407731D01*
X22650858Y28364616D01*
X22575385Y28289143D01*
X22532270Y28191499D01*
X22529500Y28167620D01*
X22529500Y27812378D01*
X22532269Y27788504D01*
X22532270Y27788502D01*
X22544048Y27761826D01*
X22544069Y27760906D01*
X22544721Y27760254D01*
X22544720Y27732735D01*
X22545356Y27705204D01*
X22544719Y27703617D01*
X22536717Y27684300D01*
X22520682Y27660300D01*
X22516445Y27656063D01*
X22516443Y27656060D01*
X22486720Y27584303D01*
X22470679Y27560296D01*
X22293942Y27383557D01*
X22216442Y27306057D01*
X22216442Y27306056D01*
X22186718Y27234299D01*
X22181523Y27224080D01*
X22176921Y27216537D01*
X22166443Y27206058D01*
X22157802Y27185198D01*
X22154805Y27180285D01*
X22136218Y27166725D01*
X22119949Y27150456D01*
X22113921Y27150457D01*
X22109051Y27146903D01*
X22086319Y27150458D01*
X22063312Y27150458D01*
X22061743Y27151129D01*
X22001500Y27177730D01*
X21993539Y27178654D01*
X21977623Y27180500D01*
X21977619Y27180500D01*
X21522377Y27180500D01*
X21498504Y27177731D01*
X21404073Y27136035D01*
X21347451Y27134727D01*
X21306488Y27173840D01*
X21305180Y27230462D01*
X21321855Y27256054D01*
X21328889Y27263087D01*
X21388199Y27365814D01*
X21418899Y27480389D01*
X21418900Y27480389D01*
X21418900Y27599011D01*
X21418899Y27599012D01*
X21415781Y27610647D01*
X21388199Y27713586D01*
X21363678Y27756058D01*
X21328891Y27816310D01*
X21328890Y27816311D01*
X21328889Y27816313D01*
X21245013Y27900189D01*
X21245010Y27900191D01*
X21245009Y27900192D01*
X21142287Y27959499D01*
X21142282Y27959501D01*
X21027711Y27990200D01*
X21027709Y27990200D01*
X20909091Y27990200D01*
X20909089Y27990200D01*
X20794517Y27959501D01*
X20794508Y27959497D01*
X20761499Y27940439D01*
X20705347Y27933047D01*
X20660414Y27967526D01*
X20650500Y28004525D01*
X20650500Y28014820D01*
X20641767Y28058722D01*
X20608504Y28108504D01*
X20608503Y28108505D01*
X20608501Y28108507D01*
X20563655Y28138471D01*
X20532188Y28185562D01*
X20543237Y28241111D01*
X20563655Y28261529D01*
X20608501Y28291494D01*
X20608500Y28291494D01*
X20608504Y28291496D01*
X20641767Y28341278D01*
X20650500Y28385180D01*
X20650500Y28814820D01*
X20641767Y28858722D01*
X20608504Y28908504D01*
X20608503Y28908505D01*
X20608501Y28908507D01*
X20563655Y28938471D01*
X20532188Y28985562D01*
X20543237Y29041111D01*
X20563655Y29061529D01*
X20608501Y29091494D01*
X20608500Y29091494D01*
X20608504Y29091496D01*
X20641767Y29141278D01*
X20650500Y29185180D01*
X20650500Y29187620D01*
X22529500Y29187620D01*
X22529500Y28832378D01*
X22532269Y28808505D01*
X22532269Y28808503D01*
X22532270Y28808502D01*
X22575384Y28710859D01*
X22650859Y28635384D01*
X22748502Y28592270D01*
X22772377Y28589500D01*
X23227622Y28589501D01*
X23251498Y28592270D01*
X23349141Y28635384D01*
X23424616Y28710859D01*
X23467730Y28808502D01*
X23470500Y28832377D01*
X23470499Y29187622D01*
X23467730Y29211498D01*
X23424616Y29309141D01*
X23349141Y29384616D01*
X23294608Y29408695D01*
X23255497Y29449658D01*
X23250500Y29476389D01*
X23250500Y30049181D01*
X23272174Y30101507D01*
X23274082Y30103181D01*
X23276610Y30105710D01*
X23276613Y30105711D01*
X23360489Y30189587D01*
X23419799Y30292314D01*
X23450499Y30406889D01*
X23450500Y30406889D01*
X23450500Y30525511D01*
X23450499Y30525512D01*
X23444235Y30548888D01*
X23419799Y30640086D01*
X23407419Y30661529D01*
X23360491Y30742810D01*
X23360490Y30742811D01*
X23360489Y30742813D01*
X23276613Y30826689D01*
X23276610Y30826691D01*
X23276609Y30826692D01*
X23173887Y30885999D01*
X23173882Y30886001D01*
X23059311Y30916700D01*
X23059309Y30916700D01*
X22940691Y30916700D01*
X22940689Y30916700D01*
X22826117Y30886001D01*
X22826112Y30885999D01*
X22723390Y30826692D01*
X22639508Y30742810D01*
X22580201Y30640088D01*
X22580199Y30640083D01*
X22549500Y30525512D01*
X22549500Y30406889D01*
X22580199Y30292318D01*
X22580201Y30292313D01*
X22639508Y30189591D01*
X22639509Y30189590D01*
X22639511Y30189587D01*
X22723387Y30105711D01*
X22726817Y30102281D01*
X22724893Y30100358D01*
X22748866Y30058851D01*
X22749500Y30049181D01*
X22749500Y29476389D01*
X22727826Y29424063D01*
X22705392Y29408696D01*
X22650859Y29384616D01*
X22650857Y29384615D01*
X22575385Y29309143D01*
X22532270Y29211499D01*
X22529500Y29187620D01*
X20650500Y29187620D01*
X20650500Y29614820D01*
X20641767Y29658722D01*
X20608504Y29708504D01*
X20608503Y29708505D01*
X20608501Y29708507D01*
X20563655Y29738471D01*
X20532188Y29785562D01*
X20543237Y29841111D01*
X20563655Y29861529D01*
X20608501Y29891494D01*
X20608500Y29891494D01*
X20608504Y29891496D01*
X20641767Y29941278D01*
X20650500Y29985180D01*
X20650500Y30414820D01*
X20641767Y30458722D01*
X20608504Y30508504D01*
X20608503Y30508505D01*
X20608501Y30508507D01*
X20563655Y30538471D01*
X20532188Y30585562D01*
X20543237Y30641111D01*
X20563655Y30661529D01*
X20608501Y30691494D01*
X20608500Y30691494D01*
X20608504Y30691496D01*
X20641767Y30741278D01*
X20650500Y30785180D01*
X20650500Y31214820D01*
X20641767Y31258722D01*
X20608504Y31308504D01*
X20608503Y31308505D01*
X20608501Y31308507D01*
X20563655Y31338471D01*
X20532188Y31385562D01*
X20543237Y31441111D01*
X20563655Y31461529D01*
X20608501Y31491494D01*
X20608500Y31491494D01*
X20608504Y31491496D01*
X20641767Y31541278D01*
X20650500Y31585180D01*
X20650500Y32014820D01*
X20641767Y32058722D01*
X20608504Y32108504D01*
X20608503Y32108505D01*
X20608501Y32108507D01*
X20563655Y32138471D01*
X20532188Y32185562D01*
X20543237Y32241111D01*
X20563655Y32261529D01*
X20608501Y32291494D01*
X20608500Y32291494D01*
X20608504Y32291496D01*
X20641767Y32341278D01*
X20650500Y32385180D01*
X20650500Y32814820D01*
X20641767Y32858722D01*
X20608504Y32908504D01*
X20608503Y32908505D01*
X20608501Y32908507D01*
X20563655Y32938471D01*
X20532188Y32985562D01*
X20543237Y33041111D01*
X20563655Y33061529D01*
X20608501Y33091494D01*
X20608500Y33091494D01*
X20608504Y33091496D01*
X20641767Y33141278D01*
X20650500Y33185180D01*
X20650500Y33614820D01*
X20641767Y33658722D01*
X20608504Y33708504D01*
X20558722Y33741767D01*
X20514820Y33750500D01*
X19685180Y33750500D01*
X19663229Y33746134D01*
X19641277Y33741767D01*
X19591496Y33708505D01*
X19591495Y33708504D01*
X19558233Y33658723D01*
X19549500Y33614820D01*
X19549500Y33185181D01*
X19558233Y33141278D01*
X19591495Y33091497D01*
X19591496Y33091496D01*
X19636345Y33061529D01*
X19667811Y33014437D01*
X19656762Y32958888D01*
X19636345Y32938471D01*
X19591496Y32908505D01*
X19591495Y32908504D01*
X19558233Y32858723D01*
X19549500Y32814820D01*
X19549500Y32385181D01*
X19558233Y32341278D01*
X19591495Y32291497D01*
X19591496Y32291496D01*
X19636345Y32261529D01*
X19667811Y32214437D01*
X19656762Y32158888D01*
X19636345Y32138471D01*
X19591496Y32108505D01*
X19591495Y32108504D01*
X19558233Y32058723D01*
X19549500Y32014820D01*
X19549500Y31585181D01*
X19558233Y31541278D01*
X19591495Y31491497D01*
X19591496Y31491496D01*
X19636345Y31461529D01*
X19667811Y31414437D01*
X19656762Y31358888D01*
X19636345Y31338471D01*
X19591496Y31308505D01*
X19591495Y31308504D01*
X19558233Y31258723D01*
X19549500Y31214820D01*
X19549500Y30785181D01*
X19558233Y30741278D01*
X19591495Y30691497D01*
X19591496Y30691496D01*
X19636345Y30661529D01*
X19667811Y30614437D01*
X19656762Y30558888D01*
X19636345Y30538471D01*
X19591496Y30508505D01*
X19591495Y30508504D01*
X19558233Y30458723D01*
X19558233Y30458722D01*
X19549500Y30414820D01*
X19549500Y29985180D01*
X19556880Y29948078D01*
X19558233Y29941278D01*
X19591495Y29891497D01*
X19591496Y29891496D01*
X19636345Y29861529D01*
X19667811Y29814437D01*
X19656762Y29758888D01*
X19636345Y29738471D01*
X19591496Y29708505D01*
X19591495Y29708504D01*
X19558233Y29658723D01*
X19549500Y29614820D01*
X19549500Y29185181D01*
X19558233Y29141278D01*
X19591495Y29091497D01*
X19591496Y29091496D01*
X19636345Y29061529D01*
X19667811Y29014437D01*
X19656762Y28958888D01*
X19636345Y28938471D01*
X19591496Y28908505D01*
X19591495Y28908504D01*
X19558233Y28858723D01*
X19549500Y28814820D01*
X19549500Y28385181D01*
X19558233Y28341278D01*
X19591495Y28291497D01*
X19591496Y28291496D01*
X19636345Y28261529D01*
X19667811Y28214437D01*
X19656762Y28158888D01*
X19636345Y28138471D01*
X19591496Y28108505D01*
X19591495Y28108504D01*
X19558233Y28058723D01*
X19558233Y28058722D01*
X19549500Y28014820D01*
X19549500Y27585180D01*
X19550670Y27579297D01*
X19558233Y27541278D01*
X19591495Y27491497D01*
X19591496Y27491496D01*
X19636345Y27461529D01*
X19667811Y27414437D01*
X19656762Y27358888D01*
X19636345Y27338471D01*
X19591496Y27308505D01*
X19591495Y27308504D01*
X19558233Y27258723D01*
X19552380Y27229297D01*
X19549500Y27214820D01*
X19549500Y26785180D01*
X19557505Y26744938D01*
X19558233Y26741278D01*
X19591495Y26691497D01*
X19591496Y26691496D01*
X19636345Y26661529D01*
X19667811Y26614437D01*
X19656762Y26558888D01*
X19636345Y26538471D01*
X19591496Y26508505D01*
X19591495Y26508504D01*
X19558233Y26458723D01*
X19549567Y26415157D01*
X19549500Y26414820D01*
X19549500Y25985180D01*
X19555293Y25956058D01*
X19558233Y25941278D01*
X19591495Y25891497D01*
X19591496Y25891496D01*
X19636345Y25861529D01*
X19667811Y25814437D01*
X19656762Y25758888D01*
X19647637Y25747752D01*
X19641766Y25741865D01*
X19641278Y25741767D01*
X19591496Y25708504D01*
X19558233Y25658722D01*
X19558073Y25657921D01*
X19551826Y25651654D01*
X19531847Y25643344D01*
X19513859Y25631324D01*
X19506050Y25632614D01*
X19499533Y25629902D01*
X19484222Y25636217D01*
X19462423Y25639816D01*
X19444943Y25649908D01*
X19444934Y25649912D01*
X19349437Y25675500D01*
X19349435Y25675500D01*
X19250565Y25675500D01*
X19250563Y25675500D01*
X19155065Y25649912D01*
X19155060Y25649910D01*
X19069437Y25600475D01*
X18999525Y25530563D01*
X18950091Y25444941D01*
X18950090Y25444939D01*
X18950090Y25444938D01*
X18946179Y25430346D01*
X18911702Y25385414D01*
X18874702Y25375500D01*
X18655145Y25375500D01*
X18572266Y25341172D01*
X18572263Y25341170D01*
X18303269Y25072174D01*
X18250943Y25050500D01*
X17985180Y25050500D01*
X17963229Y25046134D01*
X17941277Y25041767D01*
X17891496Y25008505D01*
X17891495Y25008504D01*
X17861529Y24963655D01*
X17814437Y24932189D01*
X17758888Y24943238D01*
X17745546Y24954659D01*
X17741660Y24958882D01*
X17708504Y25008504D01*
X17676034Y25030200D01*
X17670046Y25036707D01*
X17663115Y25055627D01*
X17651922Y25072378D01*
X17650500Y25086815D01*
X17650500Y25206528D01*
X17650499Y25206530D01*
X17645152Y25219438D01*
X17612364Y25298597D01*
X17612362Y25298599D01*
X17608314Y25304658D01*
X17611359Y25306693D01*
X17594700Y25346913D01*
X17594700Y25726281D01*
X17616374Y25778607D01*
X17618282Y25780281D01*
X17620810Y25782810D01*
X17620813Y25782811D01*
X17704689Y25866687D01*
X17763999Y25969414D01*
X17794699Y26083989D01*
X17794700Y26083989D01*
X17794700Y26202611D01*
X17794699Y26202612D01*
X17793954Y26205391D01*
X17777848Y26265501D01*
X17764000Y26317183D01*
X17763998Y26317188D01*
X17704691Y26419910D01*
X17704690Y26419911D01*
X17704689Y26419913D01*
X17620813Y26503789D01*
X17620810Y26503791D01*
X17620809Y26503792D01*
X17518087Y26563099D01*
X17518082Y26563101D01*
X17403511Y26593800D01*
X17403509Y26593800D01*
X17284891Y26593800D01*
X17284889Y26593800D01*
X17170317Y26563101D01*
X17170312Y26563099D01*
X17067590Y26503792D01*
X16983708Y26419910D01*
X16924401Y26317188D01*
X16924399Y26317183D01*
X16893700Y26202612D01*
X16893700Y26083989D01*
X16924399Y25969418D01*
X16924401Y25969413D01*
X16983708Y25866691D01*
X16983709Y25866690D01*
X16983711Y25866687D01*
X17035961Y25814437D01*
X17071017Y25779381D01*
X17069093Y25777458D01*
X17093066Y25735951D01*
X17093700Y25726281D01*
X17093700Y25162671D01*
X17119997Y25099184D01*
X17119997Y25042547D01*
X17109948Y25025314D01*
X17102627Y25015942D01*
X17091496Y25008504D01*
X17060008Y24961380D01*
X17058318Y24959215D01*
X17035879Y24946517D01*
X17014437Y24932189D01*
X17011570Y24932760D01*
X17009027Y24931320D01*
X16984182Y24938207D01*
X16958888Y24943238D01*
X16956148Y24945978D01*
X16954448Y24946449D01*
X16952845Y24949281D01*
X16938471Y24963655D01*
X16908504Y25008504D01*
X16908503Y25008505D01*
X16858722Y25041767D01*
X16854057Y25042695D01*
X16814820Y25050500D01*
X16385180Y25050500D01*
X16363229Y25046134D01*
X16341277Y25041767D01*
X16291496Y25008505D01*
X16291495Y25008504D01*
X16261529Y24963655D01*
X16214437Y24932189D01*
X16158888Y24943238D01*
X16138471Y24963655D01*
X16108504Y25008504D01*
X16108503Y25008505D01*
X16058722Y25041767D01*
X16054057Y25042695D01*
X16014820Y25050500D01*
X15585180Y25050500D01*
X15563229Y25046134D01*
X15541277Y25041767D01*
X15491496Y25008505D01*
X15491495Y25008504D01*
X15461529Y24963655D01*
X15450187Y24956077D01*
X15442955Y24944510D01*
X15427566Y24940962D01*
X15414437Y24932189D01*
X15401058Y24934850D01*
X15387766Y24931785D01*
X15375011Y24940031D01*
X15358888Y24943238D01*
X15339743Y24961812D01*
X15339094Y24962722D01*
X15308504Y25008504D01*
X15304597Y25011115D01*
X15297804Y25020644D01*
X15292719Y25042695D01*
X15284061Y25063599D01*
X15286527Y25069553D01*
X15285079Y25075833D01*
X15297075Y25095021D01*
X15305735Y25115925D01*
X15312639Y25119912D01*
X15315106Y25123856D01*
X15322374Y25125532D01*
X15338905Y25135077D01*
X15394938Y25150090D01*
X15480562Y25199525D01*
X15550475Y25269438D01*
X15599910Y25355062D01*
X15625499Y25450563D01*
X15625500Y25450563D01*
X15625500Y25549437D01*
X15625499Y25549438D01*
X15623970Y25555143D01*
X15602247Y25636217D01*
X15599911Y25644935D01*
X15599909Y25644940D01*
X15575821Y25686661D01*
X15550475Y25730562D01*
X15480562Y25800475D01*
X15456379Y25814437D01*
X15394939Y25849910D01*
X15394934Y25849912D01*
X15299437Y25875500D01*
X15299435Y25875500D01*
X15224057Y25875500D01*
X15171731Y25897174D01*
X15001578Y26067327D01*
X15001578Y26067328D01*
X14927737Y26141169D01*
X14927733Y26141172D01*
X14901590Y26152000D01*
X14901589Y26152001D01*
X14897109Y26153856D01*
X14844855Y26175501D01*
X14813891Y26175501D01*
X14804480Y26178023D01*
X14797394Y26183461D01*
X14782523Y26187971D01*
X14777737Y26191169D01*
X14777736Y26191170D01*
X14777493Y26191271D01*
X14753458Y26201227D01*
X14753458Y26201228D01*
X14694855Y26225501D01*
X14605145Y26225501D01*
X14596533Y26225501D01*
X14596525Y26225500D01*
X13803475Y26225500D01*
X13803467Y26225501D01*
X13794855Y26225501D01*
X13705146Y26225501D01*
X13656594Y26205392D01*
X13656595Y26205391D01*
X13622264Y26191171D01*
X13617481Y26187974D01*
X13576365Y26175500D01*
X12553475Y26175500D01*
X12553467Y26175501D01*
X12544855Y26175501D01*
X12455146Y26175501D01*
X12418930Y26160501D01*
X12418931Y26160500D01*
X12372264Y26141170D01*
X12367478Y26137972D01*
X12345073Y26127905D01*
X12335872Y26125501D01*
X12305145Y26125501D01*
X12257343Y26105700D01*
X12252655Y26103759D01*
X12252650Y26103757D01*
X12222265Y26091171D01*
X12222263Y26091169D01*
X11858829Y25727736D01*
X11858829Y25727735D01*
X11852853Y25713306D01*
X11852852Y25713303D01*
X11824499Y25644856D01*
X11824499Y25546534D01*
X11824500Y25546525D01*
X11824500Y25450827D01*
X11824499Y25450813D01*
X11824499Y25444855D01*
X11824499Y25355145D01*
X11843684Y25308830D01*
X11858830Y25272264D01*
X11862445Y25268649D01*
X11867597Y25257572D01*
X11868016Y25247736D01*
X11874499Y25226366D01*
X11874499Y25205145D01*
X11875460Y25202826D01*
X11893684Y25158830D01*
X11893683Y25158830D01*
X11896173Y25152820D01*
X11896175Y25096183D01*
X11856127Y25056134D01*
X11827807Y25050500D01*
X11585180Y25050500D01*
X11563229Y25046134D01*
X11541277Y25041767D01*
X11491496Y25008505D01*
X11491495Y25008504D01*
X11458233Y24958723D01*
X11458233Y24958722D01*
X11449500Y24914820D01*
X11449500Y24085180D01*
X11454388Y24060609D01*
X11458233Y24041278D01*
X11488296Y23996284D01*
X11491496Y23991496D01*
X11541278Y23958233D01*
X11585180Y23949500D01*
X11585181Y23949500D01*
X12014819Y23949500D01*
X12014820Y23949500D01*
X12058722Y23958233D01*
X12108504Y23991496D01*
X12138471Y24036345D01*
X12185562Y24067812D01*
X12241111Y24056763D01*
X12261529Y24036345D01*
X12291493Y23991499D01*
X12291495Y23991497D01*
X12291496Y23991496D01*
X12341278Y23958233D01*
X12385180Y23949500D01*
X12385181Y23949500D01*
X12814819Y23949500D01*
X12814820Y23949500D01*
X12858722Y23958233D01*
X12908504Y23991496D01*
X12938471Y24036345D01*
X12985562Y24067812D01*
X13041111Y24056763D01*
X13061529Y24036345D01*
X13091493Y23991499D01*
X13091495Y23991497D01*
X13091496Y23991496D01*
X13141278Y23958233D01*
X13185180Y23949500D01*
X13185181Y23949500D01*
X13614819Y23949500D01*
X13614820Y23949500D01*
X13658722Y23958233D01*
X13708504Y23991496D01*
X13738471Y24036345D01*
X13785562Y24067812D01*
X13841111Y24056763D01*
X13854454Y24045342D01*
X13858337Y24041122D01*
X13891496Y23991496D01*
X13923965Y23969801D01*
X13929954Y23963293D01*
X13936884Y23944374D01*
X13948078Y23927622D01*
X13949500Y23913185D01*
X13949500Y23721319D01*
X13927826Y23668993D01*
X13925917Y23667320D01*
X13839508Y23580910D01*
X13780201Y23478188D01*
X13780199Y23478183D01*
X13749500Y23363612D01*
X13749500Y23244989D01*
X13780199Y23130418D01*
X13780201Y23130413D01*
X13839508Y23027691D01*
X13839509Y23027690D01*
X13839511Y23027687D01*
X13923387Y22943811D01*
X13923393Y22943808D01*
X13924599Y22942882D01*
X13924907Y22942348D01*
X13925500Y22942179D01*
X13926103Y22941096D01*
X13926817Y22940382D01*
X13926613Y22940179D01*
X13938998Y22917942D01*
X13952917Y22893832D01*
X13952757Y22893237D01*
X13953057Y22892698D01*
X13951128Y22887160D01*
X13938258Y22839125D01*
X13937555Y22838224D01*
X13934894Y22834866D01*
X13872794Y22772765D01*
X13856543Y22735960D01*
X13850673Y22728550D01*
X13833565Y22719023D01*
X13819401Y22705497D01*
X13804165Y22702650D01*
X13801192Y22700993D01*
X13798858Y22701658D01*
X13792668Y22700500D01*
X13207332Y22700500D01*
X13155006Y22722174D01*
X13139637Y22744611D01*
X13127206Y22772765D01*
X13047765Y22852206D01*
X13000222Y22873198D01*
X12944991Y22897585D01*
X12944990Y22897586D01*
X12944988Y22897586D01*
X12923659Y22900060D01*
X12919865Y22900500D01*
X12919864Y22900500D01*
X11805136Y22900500D01*
X11780013Y22897586D01*
X11780007Y22897585D01*
X11677234Y22852206D01*
X11597794Y22772766D01*
X11552414Y22669989D01*
X11549500Y22644865D01*
X11549500Y22255137D01*
X11552414Y22230014D01*
X11552415Y22230008D01*
X11573536Y22182174D01*
X11597794Y22127235D01*
X11677235Y22047794D01*
X11780009Y22002415D01*
X11805135Y21999500D01*
X12919864Y21999501D01*
X12944991Y22002415D01*
X13047765Y22047794D01*
X13127206Y22127235D01*
X13139637Y22155390D01*
X13149687Y22164987D01*
X13155006Y22177826D01*
X13169360Y22183772D01*
X13180599Y22194503D01*
X13207332Y22199500D01*
X13261155Y22199500D01*
X13313481Y22177826D01*
X13335155Y22125500D01*
X13325241Y22088503D01*
X13301739Y22047794D01*
X13300089Y22044936D01*
X13300088Y22044935D01*
X13274500Y21949438D01*
X13274500Y21850563D01*
X13300088Y21755066D01*
X13300090Y21755061D01*
X13323039Y21715313D01*
X13349525Y21669438D01*
X13419438Y21599525D01*
X13505062Y21550090D01*
X13505063Y21550090D01*
X13505065Y21550089D01*
X13544584Y21539500D01*
X13600562Y21524501D01*
X13600563Y21524500D01*
X13600565Y21524500D01*
X13699436Y21524500D01*
X13712452Y21527988D01*
X13731347Y21533051D01*
X13787499Y21525660D01*
X13821978Y21480727D01*
X13824500Y21461573D01*
X13824500Y21305137D01*
X13827414Y21280014D01*
X13827415Y21280008D01*
X13872794Y21177235D01*
X13952235Y21097794D01*
X13963784Y21092694D01*
X14002896Y21051731D01*
X14001587Y20995109D01*
X13963784Y20957306D01*
X13952235Y20952207D01*
X13872793Y20872765D01*
X13860363Y20844611D01*
X13819401Y20805497D01*
X13792668Y20800500D01*
X13207332Y20800500D01*
X13155006Y20822174D01*
X13139637Y20844611D01*
X13127206Y20872765D01*
X13047765Y20952206D01*
X13047763Y20952207D01*
X12944991Y20997585D01*
X12944990Y20997586D01*
X12944988Y20997586D01*
X12923659Y21000060D01*
X12919865Y21000500D01*
X12919864Y21000500D01*
X11805136Y21000500D01*
X11780013Y20997586D01*
X11780007Y20997585D01*
X11677234Y20952206D01*
X11597794Y20872766D01*
X11552414Y20769989D01*
X11549500Y20744865D01*
X11549500Y20560189D01*
X11527826Y20507863D01*
X11475500Y20486189D01*
X11423174Y20507863D01*
X11380562Y20550475D01*
X11294939Y20599910D01*
X11294934Y20599912D01*
X11199437Y20625500D01*
X11199435Y20625500D01*
X11100565Y20625500D01*
X11100563Y20625500D01*
X11005065Y20599912D01*
X11005060Y20599910D01*
X10919437Y20550475D01*
X10849525Y20480563D01*
X10800090Y20394940D01*
X10800089Y20394936D01*
X10777474Y20310539D01*
X10742995Y20265607D01*
X10686842Y20258215D01*
X10653670Y20277367D01*
X10630562Y20300475D01*
X10544939Y20349910D01*
X10544934Y20349912D01*
X10449437Y20375500D01*
X10449435Y20375500D01*
X10350565Y20375500D01*
X10350563Y20375500D01*
X10255065Y20349912D01*
X10255060Y20349910D01*
X10206514Y20321881D01*
X10150361Y20314489D01*
X10128614Y20324297D01*
X10122432Y20328397D01*
X10087016Y20363813D01*
X10033207Y20387572D01*
X10027960Y20391052D01*
X10015396Y20409716D01*
X9999857Y20425990D01*
X10000009Y20432574D01*
X9996332Y20438036D01*
X10000645Y20460118D01*
X10001165Y20482612D01*
X10004766Y20489710D01*
X10043799Y20557314D01*
X10074499Y20671889D01*
X10074500Y20671889D01*
X10074500Y20790511D01*
X10074499Y20790512D01*
X10073620Y20793791D01*
X10053598Y20868516D01*
X10043800Y20905083D01*
X10043798Y20905088D01*
X9984491Y21007810D01*
X9984490Y21007811D01*
X9984489Y21007813D01*
X9900613Y21091689D01*
X9900610Y21091691D01*
X9900609Y21091692D01*
X9797887Y21150999D01*
X9797883Y21151000D01*
X9720376Y21171769D01*
X9675444Y21206248D01*
X9668052Y21262400D01*
X9672770Y21280008D01*
X9699399Y21379389D01*
X9699400Y21379389D01*
X9699400Y21498011D01*
X9699399Y21498012D01*
X9691179Y21528688D01*
X9682151Y21562381D01*
X9668700Y21612583D01*
X9668698Y21612588D01*
X9609391Y21715310D01*
X9609390Y21715311D01*
X9609389Y21715313D01*
X9525513Y21799189D01*
X9525510Y21799191D01*
X9525509Y21799192D01*
X9434990Y21851453D01*
X9400511Y21896386D01*
X9404296Y21945430D01*
X9405549Y21948268D01*
X9427730Y21998502D01*
X9430500Y22022377D01*
X9430499Y22285588D01*
X9430742Y22286173D01*
X9444629Y22319700D01*
X9452173Y22337913D01*
X9452174Y22337914D01*
X9482088Y22367827D01*
X9489642Y22370956D01*
X9534413Y22389500D01*
X9715587Y22389500D01*
X9767913Y22367826D01*
X10257826Y21877913D01*
X10279500Y21825587D01*
X10279500Y21562378D01*
X10282269Y21538505D01*
X10282269Y21538503D01*
X10282270Y21538502D01*
X10325384Y21440859D01*
X10400859Y21365384D01*
X10498502Y21322270D01*
X10522377Y21319500D01*
X10977622Y21319501D01*
X11001498Y21322270D01*
X11099141Y21365384D01*
X11174616Y21440859D01*
X11217730Y21538502D01*
X11220500Y21562377D01*
X11220499Y21917622D01*
X11217730Y21941498D01*
X11174616Y22039141D01*
X11099141Y22114616D01*
X11001498Y22157730D01*
X10977623Y22160500D01*
X10977619Y22160500D01*
X10714413Y22160500D01*
X10662087Y22182174D01*
X9991898Y22852363D01*
X9991894Y22852366D01*
X9899828Y22890500D01*
X9891775Y22890500D01*
X9839449Y22912174D01*
X9817775Y22964500D01*
X9827688Y23001499D01*
X9855699Y23050014D01*
X9886399Y23164589D01*
X9886400Y23164589D01*
X9886400Y23283211D01*
X9886399Y23283212D01*
X9873309Y23332063D01*
X9864721Y23364116D01*
X9872113Y23420267D01*
X9917046Y23454746D01*
X9973198Y23447354D01*
X10055062Y23400090D01*
X10055063Y23400090D01*
X10055065Y23400089D01*
X10080858Y23393178D01*
X10150562Y23374501D01*
X10150563Y23374500D01*
X10150565Y23374500D01*
X10249437Y23374500D01*
X10249437Y23374501D01*
X10344938Y23400090D01*
X10430562Y23449525D01*
X10500475Y23519438D01*
X10549910Y23605062D01*
X10575499Y23700563D01*
X10575500Y23700563D01*
X10575500Y23799437D01*
X10575499Y23799438D01*
X10569801Y23820702D01*
X10555986Y23872263D01*
X10549911Y23894935D01*
X10549909Y23894940D01*
X10523818Y23940131D01*
X10516426Y23996284D01*
X10526376Y24018244D01*
X10541767Y24041278D01*
X10550500Y24085180D01*
X10550500Y24914820D01*
X10541767Y24958722D01*
X10508504Y25008504D01*
X10487159Y25022766D01*
X10458722Y25041767D01*
X10454057Y25042695D01*
X10414820Y25050500D01*
X9985180Y25050500D01*
X9963229Y25046134D01*
X9941277Y25041767D01*
X9891496Y25008505D01*
X9891495Y25008504D01*
X9861529Y24963655D01*
X9814437Y24932189D01*
X9758888Y24943238D01*
X9738471Y24963655D01*
X9708504Y25008504D01*
X9708503Y25008505D01*
X9658722Y25041767D01*
X9654057Y25042695D01*
X9614820Y25050500D01*
X9185180Y25050500D01*
X9163229Y25046134D01*
X9141277Y25041767D01*
X9091496Y25008505D01*
X9091495Y25008504D01*
X9058233Y24958723D01*
X9058233Y24958722D01*
X9049500Y24914820D01*
X9049500Y24085180D01*
X9054388Y24060609D01*
X9058233Y24041278D01*
X9091495Y23991497D01*
X9091496Y23991496D01*
X9116612Y23974714D01*
X9148078Y23927622D01*
X9149500Y23913185D01*
X9149500Y23605254D01*
X9127826Y23552929D01*
X9075411Y23500514D01*
X9075409Y23500511D01*
X9016101Y23397788D01*
X9016099Y23397783D01*
X8985400Y23283212D01*
X8985400Y23164589D01*
X9016099Y23050018D01*
X9016101Y23050013D01*
X9075408Y22947291D01*
X9075409Y22947290D01*
X9075411Y22947287D01*
X9127826Y22894872D01*
X9149500Y22842547D01*
X9149500Y22794500D01*
X9127826Y22742174D01*
X9075500Y22720500D01*
X8832377Y22720500D01*
X8808504Y22717731D01*
X8710858Y22674616D01*
X8635385Y22599143D01*
X8592270Y22501499D01*
X8589500Y22477620D01*
X8589500Y22022378D01*
X8592269Y21998505D01*
X8592269Y21998503D01*
X8592270Y21998502D01*
X8635384Y21900859D01*
X8710859Y21825384D01*
X8808502Y21782270D01*
X8808504Y21782270D01*
X8808506Y21782269D01*
X8813868Y21780810D01*
X8813429Y21779197D01*
X8857236Y21754800D01*
X8872738Y21700326D01*
X8863317Y21671850D01*
X8829101Y21612588D01*
X8829099Y21612583D01*
X8798400Y21498012D01*
X8797983Y21494843D01*
X8797176Y21493447D01*
X8797144Y21493324D01*
X8797111Y21493333D01*
X8769666Y21445793D01*
X8724616Y21430500D01*
X8272385Y21430500D01*
X8259716Y21429031D01*
X8248502Y21427730D01*
X8248501Y21427730D01*
X8246805Y21427533D01*
X8192331Y21443037D01*
X8166804Y21481887D01*
X8149910Y21544938D01*
X8146935Y21550090D01*
X8136663Y21567883D01*
X8100475Y21630562D01*
X8077862Y21653175D01*
X8056188Y21705501D01*
X8077862Y21757827D01*
X8130187Y21779501D01*
X8167622Y21779501D01*
X8191498Y21782270D01*
X8289141Y21825384D01*
X8364616Y21900859D01*
X8407730Y21998502D01*
X8410500Y22022377D01*
X8410499Y22477622D01*
X8407730Y22501498D01*
X8374542Y22576659D01*
X8373234Y22633280D01*
X8389911Y22658875D01*
X8400475Y22669438D01*
X8449910Y22755062D01*
X8475499Y22850563D01*
X8475500Y22850563D01*
X8475500Y22949437D01*
X8475499Y22949438D01*
X8469466Y22971952D01*
X8454763Y23026826D01*
X8449911Y23044935D01*
X8449909Y23044940D01*
X8436663Y23067883D01*
X8400475Y23130562D01*
X8330562Y23200475D01*
X8314274Y23209879D01*
X8244939Y23249910D01*
X8244934Y23249912D01*
X8149437Y23275500D01*
X8149435Y23275500D01*
X8050565Y23275500D01*
X8050563Y23275500D01*
X7955065Y23249912D01*
X7955060Y23249910D01*
X7869437Y23200475D01*
X7799525Y23130563D01*
X7750090Y23044940D01*
X7750088Y23044935D01*
X7724500Y22949438D01*
X7724500Y22850563D01*
X7746689Y22767753D01*
X7739297Y22711600D01*
X7705102Y22680906D01*
X7690862Y22674619D01*
X7690859Y22674616D01*
X7615384Y22599141D01*
X7591307Y22544613D01*
X7572270Y22501499D01*
X7569500Y22477620D01*
X7569500Y22022378D01*
X7572269Y21998505D01*
X7572269Y21998503D01*
X7572270Y21998502D01*
X7594451Y21948268D01*
X7615384Y21900859D01*
X7657412Y21858831D01*
X7679086Y21806505D01*
X7657412Y21754179D01*
X7642086Y21742419D01*
X7569437Y21700475D01*
X7499525Y21630563D01*
X7450090Y21544940D01*
X7450088Y21544935D01*
X7424500Y21449438D01*
X7424500Y21350563D01*
X7450088Y21255066D01*
X7450090Y21255061D01*
X7499525Y21169438D01*
X7552826Y21116137D01*
X7574500Y21063811D01*
X7574500Y20573636D01*
X7566593Y20540353D01*
X7561668Y20530575D01*
X7558830Y20527736D01*
X7553348Y20514500D01*
X7552304Y20511982D01*
X7552303Y20511978D01*
X7529106Y20455977D01*
X7513065Y20431971D01*
X7303267Y20222174D01*
X7250941Y20200500D01*
X7036627Y20200500D01*
X7012340Y20197683D01*
X6912983Y20153813D01*
X6836187Y20077017D01*
X6797104Y19988501D01*
X6792318Y19977662D01*
X6789796Y19955919D01*
X6789500Y19953370D01*
X6789500Y19586628D01*
X6792317Y19562341D01*
X6792317Y19562339D01*
X6792318Y19562338D01*
X6836187Y19462984D01*
X6912984Y19386187D01*
X7012338Y19342318D01*
X7036627Y19339500D01*
X7440257Y19339501D01*
X7451027Y19335040D01*
X7462642Y19336034D01*
X7476202Y19324613D01*
X7492583Y19317827D01*
X7497044Y19307057D01*
X7505960Y19299547D01*
X7506627Y19283921D01*
X7514257Y19265501D01*
X7510790Y19243116D01*
X7509832Y19240100D01*
X7474500Y19154800D01*
X7474500Y19128770D01*
X7471033Y19117845D01*
X7469741Y19116312D01*
X7468866Y19111910D01*
X7436716Y19034298D01*
X7420681Y19010298D01*
X7416443Y19006060D01*
X7414657Y19003386D01*
X7411986Y19001602D01*
X7411294Y19000909D01*
X7411156Y19001047D01*
X7367564Y18971921D01*
X7353132Y18970500D01*
X7312378Y18970500D01*
X7288504Y18967731D01*
X7190858Y18924616D01*
X7115385Y18849143D01*
X7115384Y18849142D01*
X7115384Y18849141D01*
X7079999Y18769001D01*
X7070022Y18746406D01*
X7067371Y18747577D01*
X7038612Y18710419D01*
X6982728Y18703182D01*
X6899437Y18725500D01*
X6899435Y18725500D01*
X6800565Y18725500D01*
X6800563Y18725500D01*
X6705065Y18699912D01*
X6705060Y18699910D01*
X6619437Y18650475D01*
X6549525Y18580563D01*
X6500090Y18494940D01*
X6500088Y18494935D01*
X6474500Y18399438D01*
X6474500Y18300563D01*
X6500088Y18205066D01*
X6500090Y18205061D01*
X6549525Y18119438D01*
X6619438Y18049525D01*
X6705062Y18000090D01*
X6705063Y18000090D01*
X6705065Y18000089D01*
X6752813Y17987295D01*
X6800562Y17974501D01*
X6800563Y17974500D01*
X6834043Y17974500D01*
X6847643Y17968867D01*
X6862363Y17968866D01*
X6872769Y17958459D01*
X6886369Y17952826D01*
X6892002Y17939226D01*
X6902411Y17928817D01*
X6902410Y17914099D01*
X6908043Y17900500D01*
X6902409Y17872180D01*
X6886717Y17834299D01*
X6870680Y17810296D01*
X6866442Y17806059D01*
X6866442Y17806058D01*
X6836717Y17734299D01*
X6820680Y17710296D01*
X6816442Y17706059D01*
X6816442Y17706058D01*
X6786717Y17634299D01*
X6770680Y17610296D01*
X6766443Y17606060D01*
X6724500Y17504800D01*
X6724500Y17490229D01*
X6718867Y17461910D01*
X6674500Y17354800D01*
X6674500Y16153280D01*
X6652826Y16100954D01*
X6600500Y16079280D01*
X6563501Y16089193D01*
X6556563Y16093198D01*
X6544938Y16099910D01*
X6544936Y16099911D01*
X6544934Y16099912D01*
X6449437Y16125500D01*
X6449435Y16125500D01*
X6350565Y16125500D01*
X6350563Y16125500D01*
X6255065Y16099912D01*
X6255060Y16099910D01*
X6169437Y16050475D01*
X6099525Y15980563D01*
X6050090Y15894940D01*
X6050088Y15894935D01*
X6024500Y15799438D01*
X6024500Y15700563D01*
X6050088Y15605066D01*
X6050090Y15605061D01*
X6092194Y15532135D01*
X6099525Y15519438D01*
X6169438Y15449525D01*
X6187499Y15439098D01*
X6221978Y15394167D01*
X6224500Y15375012D01*
X6224500Y14724058D01*
X6202826Y14671732D01*
X6128269Y14597174D01*
X6075943Y14575500D01*
X5874500Y14575500D01*
X5822174Y14597174D01*
X5800500Y14649500D01*
X5800499Y15449250D01*
X5800499Y15449254D01*
X5789157Y15506280D01*
X5789156Y15506282D01*
X5745950Y15570946D01*
X5745947Y15570949D01*
X5681280Y15614157D01*
X5681275Y15614158D01*
X5650571Y15620266D01*
X5603480Y15651731D01*
X5603063Y15652362D01*
X5599286Y15658142D01*
X5599001Y15658830D01*
X5591170Y15677736D01*
X5577639Y15691267D01*
X5573444Y15697687D01*
X5569514Y15718553D01*
X5561390Y15738168D01*
X5563213Y15752017D01*
X5562963Y15753346D01*
X5563489Y15754118D01*
X5563911Y15757317D01*
X5575500Y15800565D01*
X5575500Y15899435D01*
X5575500Y15899437D01*
X5575499Y15899438D01*
X5573970Y15905143D01*
X5553762Y15980563D01*
X5549911Y15994935D01*
X5549909Y15994940D01*
X5517794Y16050565D01*
X5500475Y16080562D01*
X5430562Y16150475D01*
X5421573Y16155665D01*
X5344939Y16199910D01*
X5344934Y16199912D01*
X5249437Y16225500D01*
X5249435Y16225500D01*
X5174058Y16225500D01*
X5121732Y16247174D01*
X4947174Y16421732D01*
X4925500Y16474058D01*
X4925500Y16894855D01*
X4925499Y16894857D01*
X4922100Y16903062D01*
X4891170Y16977736D01*
X4827736Y17041170D01*
X4823521Y17045385D01*
X4823514Y17045391D01*
X4422173Y17446732D01*
X4400499Y17499058D01*
X4400499Y17550943D01*
X4422173Y17603269D01*
X4521731Y17702826D01*
X4574057Y17724500D01*
X4649437Y17724500D01*
X4649437Y17724501D01*
X4744938Y17750090D01*
X4830562Y17799525D01*
X4900475Y17869438D01*
X4949910Y17955062D01*
X4975499Y18050563D01*
X4975500Y18050563D01*
X4975500Y18149437D01*
X4975499Y18149438D01*
X4973992Y18155061D01*
X4949910Y18244938D01*
X4946662Y18250563D01*
X4934068Y18272377D01*
X4900475Y18330562D01*
X4830562Y18400475D01*
X4820892Y18406058D01*
X4744939Y18449910D01*
X4744934Y18449912D01*
X4649437Y18475500D01*
X4649435Y18475500D01*
X4550565Y18475500D01*
X4550563Y18475500D01*
X4455065Y18449912D01*
X4455060Y18449910D01*
X4369437Y18400475D01*
X4359527Y18390565D01*
X4307200Y18368893D01*
X4277313Y18375198D01*
X4242510Y18390565D01*
X4169991Y18422585D01*
X4169990Y18422586D01*
X4169988Y18422586D01*
X4148659Y18425060D01*
X4144865Y18425500D01*
X4144864Y18425500D01*
X3755136Y18425500D01*
X3730013Y18422586D01*
X3730007Y18422585D01*
X3627234Y18377206D01*
X3547794Y18297766D01*
X3502414Y18194989D01*
X3499500Y18169865D01*
X3499500Y17055137D01*
X3502414Y17030014D01*
X3502415Y17030008D01*
X3529039Y16969711D01*
X3547794Y16927235D01*
X3627235Y16847794D01*
X3730009Y16802415D01*
X3755135Y16799500D01*
X4144864Y16799501D01*
X4169991Y16802415D01*
X4272765Y16847794D01*
X4275707Y16850736D01*
X4328033Y16872410D01*
X4380359Y16850736D01*
X4452826Y16778269D01*
X4474500Y16725943D01*
X4474500Y16400827D01*
X4474499Y16400813D01*
X4474499Y16305145D01*
X4492655Y16261314D01*
X4508829Y16222265D01*
X4582671Y16148423D01*
X4582672Y16148423D01*
X4802826Y15928268D01*
X4824500Y15875943D01*
X4824500Y15800563D01*
X4851345Y15700377D01*
X4849540Y15699894D01*
X4849540Y15684804D01*
X4853752Y15663631D01*
X4849541Y15657331D01*
X4849542Y15649753D01*
X4822285Y15616540D01*
X4791111Y15595711D01*
X4735562Y15584662D01*
X4708889Y15595710D01*
X4694886Y15605066D01*
X4681280Y15614157D01*
X4624255Y15625500D01*
X4624253Y15625500D01*
X4375750Y15625500D01*
X4318721Y15614158D01*
X4318718Y15614157D01*
X4254054Y15570951D01*
X4254051Y15570948D01*
X4210843Y15506281D01*
X4199500Y15449254D01*
X4199500Y14650751D01*
X4210842Y14593722D01*
X4210843Y14593719D01*
X4258101Y14522991D01*
X4257583Y14522646D01*
X4267836Y14507304D01*
X4269259Y14503868D01*
X4286809Y14461498D01*
X4287636Y14459503D01*
X4762465Y13984674D01*
X5217079Y13530060D01*
X5238753Y13477734D01*
X5217079Y13425408D01*
X5215205Y13423599D01*
X5209041Y13417855D01*
X5200787Y13413089D01*
X5157770Y13370073D01*
X5156801Y13369169D01*
X5131402Y13359682D01*
X5106347Y13349304D01*
X5105054Y13349840D01*
X5103744Y13349350D01*
X5079083Y13360598D01*
X5054024Y13370978D01*
X4989513Y13435489D01*
X4989510Y13435491D01*
X4989509Y13435492D01*
X4886787Y13494799D01*
X4886782Y13494801D01*
X4772211Y13525500D01*
X4772209Y13525500D01*
X4653591Y13525500D01*
X4653589Y13525500D01*
X4539017Y13494801D01*
X4539012Y13494799D01*
X4436290Y13435492D01*
X4352408Y13351610D01*
X4293101Y13248888D01*
X4293099Y13248883D01*
X4262400Y13134312D01*
X4262400Y13015689D01*
X4267713Y12995861D01*
X4264602Y12948391D01*
X4251237Y12916120D01*
X4249500Y12911927D01*
X4249500Y12486583D01*
X4237030Y12445474D01*
X4227419Y12431088D01*
X4210842Y12406279D01*
X4203401Y12368867D01*
X4199500Y12349255D01*
X4199500Y11961704D01*
X4199501Y11592600D01*
X4177827Y11540274D01*
X4125501Y11518600D01*
X3876313Y11518600D01*
X3823987Y11540274D01*
X2671086Y12693175D01*
X2649412Y12745501D01*
X2671086Y12797827D01*
X2723412Y12819501D01*
X2977622Y12819501D01*
X3001498Y12822270D01*
X3099141Y12865384D01*
X3174616Y12940859D01*
X3217730Y13038502D01*
X3220500Y13062377D01*
X3220499Y13417622D01*
X3217730Y13441498D01*
X3174616Y13539141D01*
X3099141Y13614616D01*
X3001498Y13657730D01*
X2977623Y13660500D01*
X2977619Y13660500D01*
X2809768Y13660500D01*
X2757442Y13682174D01*
X2726441Y13713175D01*
X2704767Y13765501D01*
X2726441Y13817827D01*
X2778767Y13839501D01*
X2977622Y13839501D01*
X3001498Y13842270D01*
X3099141Y13885384D01*
X3174616Y13960859D01*
X3217730Y14058502D01*
X3220500Y14082377D01*
X3220499Y14437622D01*
X3217730Y14461498D01*
X3186909Y14531300D01*
X3180827Y14545075D01*
X3179519Y14601697D01*
X3181575Y14606495D01*
X3187071Y14618166D01*
X3191170Y14622264D01*
X3206316Y14658830D01*
X3225501Y14705146D01*
X3225501Y14725945D01*
X3247174Y14778270D01*
X3567327Y15098424D01*
X3567330Y15098425D01*
X3577735Y15108830D01*
X3577736Y15108830D01*
X3641170Y15172264D01*
X3656316Y15208830D01*
X3675501Y15255145D01*
X3675501Y15285792D01*
X3677863Y15294914D01*
X3683324Y15302158D01*
X3687972Y15317478D01*
X3691165Y15322260D01*
X3691170Y15322264D01*
X3717473Y15385766D01*
X3725501Y15405146D01*
X3725501Y15494855D01*
X3725501Y15500813D01*
X3725500Y15500827D01*
X3725500Y15696144D01*
X3747174Y15748470D01*
X3762496Y15760228D01*
X3830562Y15799525D01*
X3900475Y15869438D01*
X3949910Y15955062D01*
X3975499Y16050563D01*
X3975500Y16050563D01*
X3975500Y16149437D01*
X3975499Y16149438D01*
X3973046Y16158591D01*
X3956268Y16221211D01*
X3949911Y16244935D01*
X3949909Y16244940D01*
X3924999Y16288085D01*
X3900475Y16330562D01*
X3830562Y16400475D01*
X3829952Y16400827D01*
X3744939Y16449910D01*
X3744934Y16449912D01*
X3649437Y16475500D01*
X3649435Y16475500D01*
X3550565Y16475500D01*
X3550563Y16475500D01*
X3455065Y16449912D01*
X3455060Y16449910D01*
X3369437Y16400475D01*
X3299525Y16330563D01*
X3250090Y16244940D01*
X3250088Y16244935D01*
X3224500Y16149438D01*
X3224500Y16050563D01*
X3250088Y15955066D01*
X3250091Y15955059D01*
X3264585Y15929956D01*
X3274500Y15892955D01*
X3274500Y15573636D01*
X3267088Y15541356D01*
X3262042Y15530949D01*
X3258830Y15527736D01*
X3249943Y15506280D01*
X3249120Y15504295D01*
X3249113Y15504279D01*
X3224499Y15444855D01*
X3224499Y15424057D01*
X3202825Y15371731D01*
X2808830Y14977737D01*
X2804067Y14966237D01*
X2802463Y14962364D01*
X2774499Y14894855D01*
X2774499Y14863225D01*
X2771627Y14853219D01*
X2766261Y14846478D01*
X2762029Y14832524D01*
X2758828Y14827735D01*
X2753044Y14813767D01*
X2753042Y14813763D01*
X2729105Y14755978D01*
X2721303Y14741777D01*
X2717607Y14736514D01*
X2708830Y14727736D01*
X2708830Y14727735D01*
X2705067Y14718654D01*
X2700382Y14711979D01*
X2682833Y14700831D01*
X2668133Y14686131D01*
X2655850Y14683689D01*
X2652576Y14681608D01*
X2649188Y14682364D01*
X2639819Y14680500D01*
X2522377Y14680500D01*
X2498504Y14677731D01*
X2400858Y14634616D01*
X2325385Y14559143D01*
X2325384Y14559142D01*
X2325384Y14559141D01*
X2319173Y14545075D01*
X2282270Y14461499D01*
X2279500Y14437620D01*
X2279500Y14338768D01*
X2257826Y14286442D01*
X2205500Y14264768D01*
X2153174Y14286442D01*
X1997174Y14442442D01*
X1975500Y14494768D01*
X1975500Y15304800D01*
X1975499Y15304802D01*
X1966000Y15327736D01*
X1933559Y15406056D01*
X1933557Y15406059D01*
X1847174Y15492442D01*
X1825500Y15544768D01*
X1825500Y16035630D01*
X1825500Y16035636D01*
X1814866Y16108625D01*
X1759826Y16221211D01*
X1747174Y16233863D01*
X1725500Y16286189D01*
X1725500Y16734994D01*
X1747174Y16787320D01*
X1799500Y16808994D01*
X1824594Y16803700D01*
X1824642Y16803875D01*
X1827674Y16803050D01*
X1829392Y16802688D01*
X1830009Y16802415D01*
X1855135Y16799500D01*
X2244864Y16799501D01*
X2269991Y16802415D01*
X2372765Y16847794D01*
X2452206Y16927235D01*
X2497585Y17030009D01*
X2500500Y17055135D01*
X2500499Y18169864D01*
X2497585Y18194991D01*
X2452206Y18297765D01*
X2372765Y18377206D01*
X2269991Y18422585D01*
X2269990Y18422586D01*
X2269988Y18422586D01*
X2244865Y18425500D01*
X2143767Y18425500D01*
X2091441Y18447174D01*
X2069767Y18499500D01*
X2091441Y18551826D01*
X2133557Y18593941D01*
X2156740Y18649910D01*
X2175500Y18695200D01*
X2175500Y18959768D01*
X2181132Y18988085D01*
X2187470Y19003386D01*
X2198874Y19030920D01*
X2238921Y19070968D01*
X2258712Y19076107D01*
X2269991Y19077415D01*
X2372765Y19122794D01*
X2452206Y19202235D01*
X2497585Y19305009D01*
X2500500Y19330135D01*
X2500499Y19930234D01*
X2522172Y19982558D01*
X2633558Y20093942D01*
X2675500Y20195200D01*
X2675500Y20304800D01*
X2675500Y20405234D01*
X2695860Y20456211D01*
X2696503Y20456889D01*
X2733557Y20493941D01*
X2734978Y20497373D01*
X2742281Y20505057D01*
X2745839Y20506639D01*
X2754813Y20515612D01*
X2756051Y20516441D01*
X2756058Y20516443D01*
X2792441Y20552826D01*
X2844767Y20574500D01*
X3155232Y20574500D01*
X3199805Y20559570D01*
X3203916Y20556468D01*
X3243941Y20516443D01*
X3264076Y20508103D01*
X3315697Y20486722D01*
X3339704Y20470681D01*
X3402826Y20407559D01*
X3424500Y20355233D01*
X3424500Y20345200D01*
X3433159Y20324297D01*
X3460990Y20257106D01*
X3460991Y20257104D01*
X3463700Y20250565D01*
X3466443Y20243942D01*
X3475975Y20234410D01*
X3480105Y20228154D01*
X3480799Y20224561D01*
X3486716Y20215705D01*
X3493866Y20198446D01*
X3499500Y20170124D01*
X3499500Y19330137D01*
X3502414Y19305014D01*
X3502415Y19305008D01*
X3531445Y19239261D01*
X3547794Y19202235D01*
X3627235Y19122794D01*
X3730009Y19077415D01*
X3755135Y19074500D01*
X4144864Y19074501D01*
X4169991Y19077415D01*
X4272765Y19122794D01*
X4352206Y19202235D01*
X4397585Y19305009D01*
X4400500Y19330135D01*
X4400499Y19418273D01*
X4402383Y19422822D01*
X4401086Y19427571D01*
X4412987Y19448420D01*
X4422173Y19470597D01*
X4426721Y19472482D01*
X4429163Y19476758D01*
X4444509Y19479850D01*
X4474498Y19492272D01*
X4483798Y19491685D01*
X4488789Y19491053D01*
X4550565Y19474500D01*
X4619476Y19474500D01*
X4624110Y19473913D01*
X4644956Y19462014D01*
X4667137Y19452826D01*
X4669021Y19448277D01*
X4673297Y19445836D01*
X4679622Y19422682D01*
X4688811Y19400500D01*
X4686926Y19395951D01*
X4688224Y19391201D01*
X4676324Y19370355D01*
X4667137Y19348174D01*
X4649525Y19330563D01*
X4600090Y19244940D01*
X4600088Y19244935D01*
X4574500Y19149438D01*
X4574500Y19050564D01*
X4600088Y18955066D01*
X4600090Y18955061D01*
X4626782Y18908830D01*
X4649525Y18869438D01*
X4719438Y18799525D01*
X4805062Y18750090D01*
X4805063Y18750090D01*
X4805065Y18750089D01*
X4836542Y18741655D01*
X4900562Y18724501D01*
X4900563Y18724500D01*
X4900565Y18724500D01*
X4999437Y18724500D01*
X4999437Y18724501D01*
X5094938Y18750090D01*
X5180562Y18799525D01*
X5233862Y18852825D01*
X5286188Y18874499D01*
X5344854Y18874499D01*
X5344855Y18874499D01*
X5406833Y18900172D01*
X5427736Y18908830D01*
X5430929Y18912024D01*
X5441302Y18917062D01*
X5451025Y18917642D01*
X5473635Y18924500D01*
X6035630Y18924500D01*
X6035636Y18924500D01*
X6108625Y18935134D01*
X6221211Y18990174D01*
X6309826Y19078789D01*
X6364866Y19191375D01*
X6375500Y19264364D01*
X6375500Y19785636D01*
X6364866Y19858625D01*
X6344935Y19899393D01*
X6341426Y19955919D01*
X6374418Y19995979D01*
X6380562Y19999525D01*
X6450475Y20069438D01*
X6499910Y20155062D01*
X6525500Y20250565D01*
X6525500Y20349435D01*
X6525500Y20349437D01*
X6525499Y20349438D01*
X6499911Y20444935D01*
X6499909Y20444940D01*
X6485446Y20469991D01*
X6450475Y20530562D01*
X6380562Y20600475D01*
X6317219Y20637046D01*
X6282742Y20681978D01*
X6290133Y20738130D01*
X6299910Y20755062D01*
X6325499Y20850563D01*
X6325500Y20850563D01*
X6325500Y20949437D01*
X6325499Y20949438D01*
X6324757Y20952206D01*
X6308393Y21013280D01*
X6299911Y21044935D01*
X6299909Y21044940D01*
X6281118Y21077487D01*
X6250475Y21130562D01*
X6180562Y21200475D01*
X6170563Y21206248D01*
X6094939Y21249910D01*
X6094934Y21249912D01*
X5999437Y21275500D01*
X5999435Y21275500D01*
X5900565Y21275500D01*
X5900563Y21275500D01*
X5805065Y21249912D01*
X5805060Y21249910D01*
X5719437Y21200475D01*
X5649525Y21130563D01*
X5600090Y21044940D01*
X5600088Y21044935D01*
X5574500Y20949438D01*
X5574500Y20850563D01*
X5600088Y20755066D01*
X5600090Y20755061D01*
X5628382Y20706058D01*
X5649525Y20669438D01*
X5719438Y20599525D01*
X5782778Y20562956D01*
X5817257Y20518023D01*
X5809866Y20461871D01*
X5800090Y20444938D01*
X5800088Y20444935D01*
X5774500Y20349438D01*
X5774500Y20250565D01*
X5777062Y20241001D01*
X5777740Y20205438D01*
X5776348Y20199321D01*
X5774499Y20194855D01*
X5774499Y20191190D01*
X5772656Y20183087D01*
X5760724Y20166245D01*
X5752825Y20147174D01*
X5744884Y20143885D01*
X5739916Y20136872D01*
X5719569Y20133400D01*
X5700499Y20125500D01*
X5464359Y20125500D01*
X5391374Y20114866D01*
X5391373Y20114866D01*
X5278789Y20059827D01*
X5190173Y19971211D01*
X5135134Y19858627D01*
X5135134Y19858626D01*
X5124500Y19785641D01*
X5124500Y19538428D01*
X5102826Y19486102D01*
X5050500Y19464428D01*
X5043427Y19464767D01*
X5037292Y19465356D01*
X4999435Y19475500D01*
X4931647Y19475500D01*
X4928116Y19475839D01*
X4906001Y19487590D01*
X4882863Y19497174D01*
X4881423Y19500650D01*
X4878101Y19502415D01*
X4870772Y19526363D01*
X4861189Y19549500D01*
X4862628Y19552976D01*
X4861528Y19556573D01*
X4873278Y19578688D01*
X4882863Y19601826D01*
X4889792Y19608755D01*
X4900475Y19619438D01*
X4949910Y19705062D01*
X4975499Y19800563D01*
X4975500Y19800563D01*
X4975500Y19899437D01*
X4975499Y19899438D01*
X4964203Y19941594D01*
X4952735Y19984394D01*
X4949911Y19994935D01*
X4949909Y19994940D01*
X4912446Y20059827D01*
X4900475Y20080562D01*
X4830562Y20150475D01*
X4796529Y20170124D01*
X4744939Y20199910D01*
X4744934Y20199912D01*
X4649437Y20225500D01*
X4649435Y20225500D01*
X4550565Y20225500D01*
X4493651Y20210250D01*
X4437499Y20217643D01*
X4403020Y20262577D01*
X4400499Y20281729D01*
X4400499Y20444864D01*
X4400490Y20444940D01*
X4397585Y20469991D01*
X4352206Y20572765D01*
X4272765Y20652206D01*
X4272764Y20652207D01*
X4269603Y20653603D01*
X4267479Y20655827D01*
X4267109Y20656081D01*
X4267162Y20656160D01*
X4230494Y20694570D01*
X4225500Y20721295D01*
X4225500Y21754800D01*
X4190540Y21839200D01*
X4190540Y21839201D01*
X4183558Y21856057D01*
X4183556Y21856060D01*
X3816441Y22223175D01*
X3794767Y22275501D01*
X3816441Y22327827D01*
X3868767Y22349501D01*
X4631148Y22349501D01*
X4683474Y22327827D01*
X4705148Y22275501D01*
X4683474Y22223177D01*
X4659799Y22199501D01*
X4656108Y22195810D01*
X4596801Y22093088D01*
X4596799Y22093083D01*
X4566100Y21978512D01*
X4566100Y21859889D01*
X4596799Y21745318D01*
X4596801Y21745313D01*
X4656108Y21642591D01*
X4656109Y21642590D01*
X4656111Y21642587D01*
X4739987Y21558711D01*
X4739989Y21558710D01*
X4739990Y21558709D01*
X4842712Y21499402D01*
X4842714Y21499401D01*
X4842715Y21499401D01*
X4842717Y21499400D01*
X4900002Y21484051D01*
X4957288Y21468701D01*
X4957289Y21468700D01*
X4957291Y21468700D01*
X5075911Y21468700D01*
X5075911Y21468701D01*
X5190486Y21499401D01*
X5293213Y21558711D01*
X5339511Y21605010D01*
X5391836Y21626683D01*
X5444162Y21605009D01*
X5462984Y21586187D01*
X5562338Y21542318D01*
X5586627Y21539500D01*
X5953372Y21539501D01*
X5977662Y21542318D01*
X6077016Y21586187D01*
X6153813Y21662984D01*
X6197682Y21762338D01*
X6200500Y21786627D01*
X6200499Y22213372D01*
X6197682Y22237662D01*
X6153813Y22337016D01*
X6077016Y22413813D01*
X5977662Y22457682D01*
X5977663Y22457682D01*
X5972804Y22458246D01*
X5953373Y22460500D01*
X5953369Y22460500D01*
X5586627Y22460500D01*
X5562340Y22457683D01*
X5462983Y22413813D01*
X5386187Y22337017D01*
X5380428Y22323974D01*
X5339463Y22284863D01*
X5282841Y22286173D01*
X5275734Y22289781D01*
X5190487Y22338999D01*
X5190482Y22339001D01*
X5075911Y22369700D01*
X5075909Y22369700D01*
X4968291Y22369700D01*
X4915965Y22391374D01*
X4894291Y22443700D01*
X4900596Y22473590D01*
X4902204Y22477234D01*
X4902206Y22477235D01*
X4947585Y22580009D01*
X4950500Y22605135D01*
X4950499Y22994864D01*
X4947585Y23019991D01*
X4902206Y23122765D01*
X4822765Y23202206D01*
X4817916Y23207055D01*
X4820739Y23209879D01*
X4797256Y23246097D01*
X4809073Y23301488D01*
X4856595Y23332300D01*
X4868516Y23333514D01*
X4874576Y23333638D01*
X4875091Y23333500D01*
X4993709Y23333500D01*
X5004093Y23336283D01*
X5013063Y23336466D01*
X5024339Y23332063D01*
X5042890Y23330849D01*
X5118572Y23299500D01*
X5218228Y23299500D01*
X5306386Y23299500D01*
X5358712Y23277826D01*
X5379475Y23237075D01*
X5389353Y23174696D01*
X5389354Y23174694D01*
X5415814Y23122765D01*
X5446950Y23061658D01*
X5536658Y22971950D01*
X5649696Y22914354D01*
X5743481Y22899500D01*
X6756518Y22899501D01*
X6756519Y22899501D01*
X6850304Y22914354D01*
X6850306Y22914355D01*
X6864749Y22921714D01*
X6963342Y22971950D01*
X7053050Y23061658D01*
X7110646Y23174696D01*
X7125500Y23268481D01*
X7125499Y23831518D01*
X7123531Y23843942D01*
X7110646Y23925305D01*
X7110645Y23925307D01*
X7072344Y24000475D01*
X7053050Y24038342D01*
X6963342Y24128050D01*
X6850304Y24185646D01*
X6850302Y24185647D01*
X6850301Y24185647D01*
X6756519Y24200500D01*
X5743480Y24200500D01*
X5649695Y24185647D01*
X5649693Y24185646D01*
X5536657Y24128050D01*
X5446950Y24038343D01*
X5443565Y24031699D01*
X5400495Y23994919D01*
X5344033Y23999365D01*
X5313546Y24028299D01*
X5294892Y24060608D01*
X5294892Y24060609D01*
X5294890Y24060611D01*
X5294889Y24060613D01*
X5211013Y24144489D01*
X5211010Y24144491D01*
X5211009Y24144492D01*
X5108287Y24203799D01*
X5108282Y24203801D01*
X4993711Y24234500D01*
X4993709Y24234500D01*
X4938123Y24234500D01*
X4885797Y24256174D01*
X4864123Y24308500D01*
X4885797Y24360826D01*
X4902206Y24377235D01*
X4947585Y24480009D01*
X4950500Y24505135D01*
X4950499Y24894864D01*
X4947585Y24919991D01*
X4902206Y25022765D01*
X4822765Y25102206D01*
X4719991Y25147585D01*
X4719990Y25147586D01*
X4719988Y25147586D01*
X4694865Y25150500D01*
X4499500Y25150500D01*
X4447174Y25172174D01*
X4425500Y25224500D01*
X4425500Y25854798D01*
X4425500Y25854800D01*
X4418266Y25872265D01*
X4407229Y25898912D01*
X4381133Y25961914D01*
X4375500Y25990232D01*
X4375500Y26354800D01*
X4375499Y26354802D01*
X4367340Y26374500D01*
X4356132Y26401558D01*
X4350499Y26429877D01*
X4350499Y26593985D01*
X4372173Y26646311D01*
X4396179Y26662352D01*
X4406058Y26666443D01*
X4483557Y26743942D01*
X4483556Y26743942D01*
X5010297Y27270683D01*
X5034300Y27286721D01*
X5085350Y27307866D01*
X5111911Y27318867D01*
X5140229Y27324500D01*
X5409769Y27324500D01*
X5438087Y27318867D01*
X5443942Y27316442D01*
X5515698Y27286721D01*
X5539705Y27270680D01*
X5777826Y27032558D01*
X5799500Y26980232D01*
X5799500Y26786628D01*
X5802317Y26762341D01*
X5802317Y26762339D01*
X5802318Y26762338D01*
X5846187Y26662984D01*
X5922984Y26586187D01*
X6022338Y26542318D01*
X6046627Y26539500D01*
X6413372Y26539501D01*
X6437662Y26542318D01*
X6537016Y26586187D01*
X6613813Y26662984D01*
X6657682Y26762338D01*
X6660500Y26786627D01*
X6660499Y27190232D01*
X6667925Y27222540D01*
X6673365Y27233750D01*
X6683558Y27243942D01*
X6714119Y27317726D01*
X6715071Y27319687D01*
X6717219Y27321596D01*
X6729320Y27339705D01*
X6733558Y27343942D01*
X6775500Y27445200D01*
X6775500Y27459768D01*
X6781132Y27488085D01*
X6783558Y27493942D01*
X6813279Y27565700D01*
X6829325Y27589709D01*
X6833556Y27593940D01*
X6833556Y27593941D01*
X6833558Y27593942D01*
X6863279Y27665700D01*
X6879325Y27689709D01*
X6883556Y27693940D01*
X6883556Y27693941D01*
X6883558Y27693942D01*
X6913279Y27765700D01*
X6929325Y27789709D01*
X6933556Y27793940D01*
X6933556Y27793941D01*
X6933558Y27793942D01*
X6963279Y27865700D01*
X6979320Y27889705D01*
X6983558Y27893942D01*
X7025500Y27995200D01*
X7025500Y28009768D01*
X7031132Y28038085D01*
X7039680Y28058723D01*
X7063279Y28115700D01*
X7079325Y28139709D01*
X7083556Y28143940D01*
X7083556Y28143941D01*
X7083558Y28143942D01*
X7113279Y28215700D01*
X7129325Y28239709D01*
X7133556Y28243940D01*
X7133556Y28243941D01*
X7133558Y28243942D01*
X7163279Y28315700D01*
X7179325Y28339709D01*
X7183556Y28343940D01*
X7183556Y28343941D01*
X7183558Y28343942D01*
X7213279Y28415700D01*
X7229320Y28439705D01*
X7233558Y28443942D01*
X7275500Y28545200D01*
X7275500Y28559768D01*
X7281132Y28588085D01*
X7288577Y28606059D01*
X7313279Y28665700D01*
X7329325Y28689709D01*
X7333556Y28693940D01*
X7333556Y28693941D01*
X7333558Y28693942D01*
X7363279Y28765700D01*
X7379325Y28789709D01*
X7383556Y28793940D01*
X7383556Y28793941D01*
X7383558Y28793942D01*
X7413279Y28865700D01*
X7429325Y28889709D01*
X7433556Y28893940D01*
X7433556Y28893941D01*
X7433558Y28893942D01*
X7463279Y28965700D01*
X7479320Y28989705D01*
X7483558Y28993942D01*
X7525500Y29095200D01*
X7525500Y29109768D01*
X7531132Y29138085D01*
X7538577Y29156059D01*
X7563279Y29215700D01*
X7579325Y29239709D01*
X7580273Y29240658D01*
X7583558Y29243942D01*
X7607133Y29300861D01*
X7647180Y29340908D01*
X7703818Y29340909D01*
X7743867Y29300861D01*
X7749500Y29272541D01*
X7749500Y29185181D01*
X7758233Y29141278D01*
X7791495Y29091497D01*
X7791496Y29091496D01*
X7836345Y29061529D01*
X7867811Y29014437D01*
X7856762Y28958888D01*
X7836345Y28938471D01*
X7791496Y28908505D01*
X7791495Y28908504D01*
X7758233Y28858723D01*
X7749500Y28814820D01*
X7749500Y28385181D01*
X7758233Y28341278D01*
X7791495Y28291497D01*
X7791496Y28291496D01*
X7836345Y28261529D01*
X7867811Y28214437D01*
X7856762Y28158888D01*
X7836345Y28138471D01*
X7791496Y28108505D01*
X7791495Y28108504D01*
X7758233Y28058723D01*
X7749500Y28014820D01*
X7749500Y27749058D01*
X7727826Y27696732D01*
X7458831Y27427737D01*
X7458829Y27427736D01*
X7453063Y27413813D01*
X7424499Y27344855D01*
X7424499Y27246534D01*
X7424500Y27246525D01*
X7424500Y26953857D01*
X7402826Y26901531D01*
X7387500Y26889771D01*
X7319437Y26850475D01*
X7249525Y26780563D01*
X7200090Y26694940D01*
X7200088Y26694935D01*
X7174500Y26599438D01*
X7174500Y26500563D01*
X7200088Y26405066D01*
X7200090Y26405061D01*
X7237942Y26339500D01*
X7249525Y26319438D01*
X7319438Y26249525D01*
X7382117Y26213337D01*
X7403092Y26201227D01*
X7405062Y26200090D01*
X7405063Y26200090D01*
X7405065Y26200089D01*
X7437975Y26191271D01*
X7500562Y26174501D01*
X7500563Y26174500D01*
X7500565Y26174500D01*
X7599436Y26174500D01*
X7614953Y26178659D01*
X7656347Y26189750D01*
X7712499Y26182359D01*
X7746978Y26137426D01*
X7749500Y26118272D01*
X7749500Y25985180D01*
X7755293Y25956058D01*
X7758233Y25941278D01*
X7774040Y25917620D01*
X7791496Y25891496D01*
X7841278Y25858233D01*
X7885180Y25849500D01*
X7885181Y25849500D01*
X8714819Y25849500D01*
X8714820Y25849500D01*
X8758722Y25858233D01*
X8808504Y25891496D01*
X8841767Y25941278D01*
X8850500Y25985180D01*
X8850500Y26414820D01*
X8841767Y26458722D01*
X8808504Y26508504D01*
X8808503Y26508505D01*
X8808501Y26508507D01*
X8763655Y26538471D01*
X8732188Y26585562D01*
X8743237Y26641111D01*
X8763655Y26661529D01*
X8808501Y26691494D01*
X8808500Y26691494D01*
X8808504Y26691496D01*
X8841767Y26741278D01*
X8850500Y26785180D01*
X8850500Y27214820D01*
X8841767Y27258722D01*
X8808504Y27308504D01*
X8808503Y27308505D01*
X8808501Y27308507D01*
X8763655Y27338471D01*
X8732188Y27385562D01*
X8743237Y27441111D01*
X8763655Y27461529D01*
X8808501Y27491494D01*
X8808500Y27491494D01*
X8808504Y27491496D01*
X8841767Y27541278D01*
X8850500Y27585180D01*
X8850500Y28014820D01*
X8841767Y28058722D01*
X8808504Y28108504D01*
X8808503Y28108505D01*
X8808501Y28108507D01*
X8763655Y28138471D01*
X8732188Y28185562D01*
X8743237Y28241111D01*
X8763655Y28261529D01*
X8808501Y28291494D01*
X8808500Y28291494D01*
X8808504Y28291496D01*
X8841767Y28341278D01*
X8850500Y28385180D01*
X8850500Y28814820D01*
X8841767Y28858722D01*
X8808504Y28908504D01*
X8808503Y28908505D01*
X8808501Y28908507D01*
X8763655Y28938471D01*
X8732188Y28985562D01*
X8743237Y29041111D01*
X8763655Y29061529D01*
X8808501Y29091494D01*
X8808500Y29091494D01*
X8808504Y29091496D01*
X8841767Y29141278D01*
X8850500Y29185180D01*
X8850500Y29614820D01*
X8841767Y29658722D01*
X8808504Y29708504D01*
X8808503Y29708505D01*
X8808501Y29708507D01*
X8763655Y29738471D01*
X8732188Y29785562D01*
X8743237Y29841111D01*
X8754658Y29854454D01*
X8758878Y29858338D01*
X8808504Y29891496D01*
X8830199Y29923966D01*
X8836707Y29929954D01*
X8855626Y29936885D01*
X8872378Y29948078D01*
X8886815Y29949500D01*
X8950172Y29949500D01*
X9012649Y29949500D01*
X9031802Y29946978D01*
X9115688Y29924501D01*
X9115689Y29924500D01*
X9115691Y29924500D01*
X9234311Y29924500D01*
X9234311Y29924501D01*
X9348886Y29955201D01*
X9451613Y30014511D01*
X9535489Y30098387D01*
X9594799Y30201114D01*
X9625499Y30315689D01*
X9625500Y30315689D01*
X9625500Y30434311D01*
X9625499Y30434312D01*
X9618958Y30458722D01*
X9596432Y30542793D01*
X9594800Y30548883D01*
X9594798Y30548888D01*
X9535491Y30651610D01*
X9535490Y30651611D01*
X9535489Y30651613D01*
X9451613Y30735489D01*
X9451610Y30735491D01*
X9451609Y30735492D01*
X9348887Y30794799D01*
X9348882Y30794801D01*
X9234311Y30825500D01*
X9234309Y30825500D01*
X9115691Y30825500D01*
X9115689Y30825500D01*
X9001117Y30794801D01*
X9001112Y30794799D01*
X8961500Y30771928D01*
X8905347Y30764535D01*
X8860414Y30799014D01*
X8850500Y30836014D01*
X8850500Y31214820D01*
X8841767Y31258722D01*
X8808504Y31308504D01*
X8808503Y31308505D01*
X8808501Y31308507D01*
X8763655Y31338471D01*
X8732188Y31385562D01*
X8743237Y31441111D01*
X8763655Y31461529D01*
X8808501Y31491494D01*
X8808500Y31491494D01*
X8808504Y31491496D01*
X8841767Y31541278D01*
X8850500Y31585180D01*
X8850500Y32014820D01*
X8841767Y32058722D01*
X8808504Y32108504D01*
X8758722Y32141767D01*
X8714820Y32150500D01*
X7885180Y32150500D01*
X7863229Y32146134D01*
X7841277Y32141767D01*
X7791496Y32108505D01*
X7791495Y32108504D01*
X7758233Y32058723D01*
X7749500Y32014820D01*
X7749500Y31826727D01*
X7727826Y31774401D01*
X7703819Y31758360D01*
X7643943Y31733559D01*
X7643941Y31733558D01*
X7443942Y31533557D01*
X7366442Y31456057D01*
X7324500Y31354800D01*
X7324500Y30090230D01*
X7318867Y30061910D01*
X7286718Y29984299D01*
X7270680Y29960296D01*
X7266443Y29956060D01*
X7224500Y29854800D01*
X7224500Y29840230D01*
X7218867Y29811910D01*
X7186718Y29734299D01*
X7170680Y29710296D01*
X7166442Y29706059D01*
X7166442Y29706058D01*
X7136717Y29634299D01*
X7134539Y29629525D01*
X7129168Y29618785D01*
X7116443Y29606058D01*
X7085715Y29531878D01*
X7084539Y29529525D01*
X7082133Y29527439D01*
X7070680Y29510296D01*
X7066442Y29506059D01*
X7066442Y29506058D01*
X7036717Y29434299D01*
X7020680Y29410296D01*
X7016443Y29406060D01*
X6974500Y29304800D01*
X6974500Y29290230D01*
X6968867Y29261910D01*
X6936718Y29184299D01*
X6920680Y29160296D01*
X6916442Y29156059D01*
X6916442Y29156058D01*
X6886717Y29084299D01*
X6884539Y29079525D01*
X6879168Y29068785D01*
X6866443Y29056058D01*
X6835715Y28981878D01*
X6834539Y28979525D01*
X6832133Y28977439D01*
X6820680Y28960296D01*
X6816442Y28956059D01*
X6816442Y28956058D01*
X6786717Y28884299D01*
X6770680Y28860296D01*
X6766443Y28856060D01*
X6724500Y28754800D01*
X6724500Y28740230D01*
X6718867Y28711910D01*
X6686718Y28634299D01*
X6670680Y28610296D01*
X6666442Y28606059D01*
X6666442Y28606058D01*
X6636717Y28534299D01*
X6620680Y28510296D01*
X6616442Y28506059D01*
X6616442Y28506058D01*
X6586717Y28434299D01*
X6584539Y28429525D01*
X6579168Y28418785D01*
X6566443Y28406058D01*
X6535715Y28331878D01*
X6534539Y28329525D01*
X6532133Y28327439D01*
X6520680Y28310296D01*
X6516443Y28306060D01*
X6474500Y28204800D01*
X6474500Y28190230D01*
X6468867Y28161910D01*
X6436718Y28084299D01*
X6420680Y28060296D01*
X6416442Y28056059D01*
X6416442Y28056058D01*
X6386717Y27984299D01*
X6384539Y27979525D01*
X6379168Y27968785D01*
X6366443Y27956058D01*
X6335715Y27881878D01*
X6334539Y27879525D01*
X6332133Y27877439D01*
X6320680Y27860296D01*
X6316442Y27856059D01*
X6316442Y27856058D01*
X6286717Y27784299D01*
X6270680Y27760296D01*
X6266443Y27756060D01*
X6224500Y27654800D01*
X6224500Y27640230D01*
X6218867Y27611910D01*
X6190613Y27543702D01*
X6150563Y27503654D01*
X6093926Y27503655D01*
X6069920Y27519696D01*
X6004435Y27585181D01*
X5806058Y27783557D01*
X5806056Y27783558D01*
X5806053Y27783560D01*
X5794121Y27788502D01*
X5794119Y27788503D01*
X5734297Y27813284D01*
X5710294Y27829321D01*
X5706057Y27833558D01*
X5706051Y27833560D01*
X5706037Y27833567D01*
X5604800Y27875500D01*
X5054800Y27875500D01*
X4945200Y27875500D01*
X4843943Y27833559D01*
X4843938Y27833556D01*
X4839702Y27829319D01*
X4815698Y27813281D01*
X4743943Y27783559D01*
X4743940Y27783557D01*
X4399241Y27438859D01*
X4346915Y27417185D01*
X4294589Y27438859D01*
X4280979Y27457593D01*
X4278050Y27463342D01*
X4188343Y27553049D01*
X4188342Y27553050D01*
X4075304Y27610646D01*
X4075302Y27610647D01*
X4075301Y27610647D01*
X3981519Y27625500D01*
X3418480Y27625500D01*
X3324695Y27610647D01*
X3324693Y27610646D01*
X3211657Y27553050D01*
X3121951Y27463344D01*
X3064353Y27350302D01*
X3049500Y27256520D01*
X3049500Y26243481D01*
X3064353Y26149696D01*
X3064354Y26149694D01*
X3101020Y26077735D01*
X3121950Y26036658D01*
X3211658Y25946950D01*
X3324696Y25889354D01*
X3418481Y25874500D01*
X3750500Y25874501D01*
X3802826Y25852827D01*
X3820230Y25825275D01*
X3824500Y25813257D01*
X3824500Y25795200D01*
X3853786Y25724499D01*
X3866443Y25693942D01*
X3867138Y25693247D01*
X3870230Y25684546D01*
X3870094Y25681918D01*
X3874500Y25659772D01*
X3874500Y25224500D01*
X3852826Y25172174D01*
X3800500Y25150500D01*
X3580136Y25150500D01*
X3555013Y25147586D01*
X3555007Y25147585D01*
X3452234Y25102206D01*
X3372794Y25022766D01*
X3327414Y24919989D01*
X3324500Y24894865D01*
X3324500Y24505137D01*
X3327414Y24480014D01*
X3327415Y24480008D01*
X3347835Y24433762D01*
X3372794Y24377235D01*
X3452235Y24297794D01*
X3555009Y24252415D01*
X3555012Y24252415D01*
X3557027Y24251525D01*
X3576044Y24231608D01*
X3595504Y24212148D01*
X3595504Y24211229D01*
X3596140Y24210562D01*
X3595504Y24155511D01*
X3586718Y24134300D01*
X3570680Y24110296D01*
X3566442Y24106059D01*
X3566442Y24106058D01*
X3536717Y24034299D01*
X3534539Y24029525D01*
X3529168Y24018785D01*
X3516443Y24006058D01*
X3485715Y23931878D01*
X3484539Y23929525D01*
X3482133Y23927439D01*
X3470680Y23910296D01*
X3466442Y23906059D01*
X3466442Y23906058D01*
X3436717Y23834299D01*
X3434539Y23829525D01*
X3429168Y23818785D01*
X3416443Y23806058D01*
X3385715Y23731879D01*
X3384541Y23729529D01*
X3382136Y23727444D01*
X3370679Y23710297D01*
X3178926Y23518543D01*
X3126600Y23496869D01*
X3074274Y23518543D01*
X3052600Y23570869D01*
X3052600Y24127728D01*
X3052599Y24127730D01*
X3052466Y24128050D01*
X3026926Y24189710D01*
X3014465Y24219795D01*
X3014463Y24219798D01*
X2697173Y24537088D01*
X2675499Y24589414D01*
X2675499Y24894864D01*
X2673714Y24910257D01*
X2672585Y24919991D01*
X2627206Y25022765D01*
X2547765Y25102206D01*
X2444991Y25147585D01*
X2444990Y25147586D01*
X2444988Y25147586D01*
X2423390Y25150091D01*
X2419865Y25150500D01*
X2419864Y25150500D01*
X1305136Y25150500D01*
X1280013Y25147586D01*
X1280007Y25147585D01*
X1177234Y25102206D01*
X1097794Y25022766D01*
X1052414Y24919989D01*
X1049500Y24894865D01*
X1049500Y24505137D01*
X1052414Y24480014D01*
X1052415Y24480008D01*
X1072835Y24433762D01*
X1097794Y24377235D01*
X1177235Y24297794D01*
X1280009Y24252415D01*
X1305135Y24249500D01*
X2245586Y24249501D01*
X2297912Y24227827D01*
X2529926Y23995813D01*
X2551600Y23943487D01*
X2551600Y23515313D01*
X2529926Y23462987D01*
X2339112Y23272174D01*
X2286786Y23250500D01*
X1305136Y23250500D01*
X1280013Y23247586D01*
X1280007Y23247585D01*
X1177234Y23202206D01*
X1097794Y23122766D01*
X1052414Y23019989D01*
X1049500Y22994865D01*
X1049500Y22605137D01*
X1052414Y22580014D01*
X1052415Y22580008D01*
X1087080Y22501499D01*
X1097794Y22477235D01*
X1177235Y22397794D01*
X1280009Y22352415D01*
X1305135Y22349500D01*
X1650500Y22349501D01*
X1702826Y22327827D01*
X1724500Y22275501D01*
X1724500Y21771119D01*
X1702826Y21718793D01*
X1700917Y21717120D01*
X1614508Y21630710D01*
X1555201Y21527988D01*
X1555199Y21527983D01*
X1524500Y21413412D01*
X1524500Y21294789D01*
X1555199Y21180218D01*
X1555201Y21180213D01*
X1614508Y21077491D01*
X1614509Y21077490D01*
X1614511Y21077487D01*
X1698387Y20993611D01*
X1698389Y20993610D01*
X1698390Y20993609D01*
X1770100Y20952207D01*
X1801114Y20934301D01*
X1801115Y20934301D01*
X1801117Y20934300D01*
X1830123Y20926528D01*
X1915688Y20903601D01*
X1915689Y20903600D01*
X1915691Y20903600D01*
X2034311Y20903600D01*
X2034311Y20903601D01*
X2148886Y20934301D01*
X2157193Y20939098D01*
X2162261Y20939765D01*
X2165878Y20943381D01*
X2189712Y20943381D01*
X2213343Y20946494D01*
X2217401Y20943381D01*
X2222515Y20943381D01*
X2239368Y20926528D01*
X2258279Y20912019D01*
X2258946Y20906949D01*
X2262563Y20903332D01*
X2262563Y20879499D01*
X2265676Y20855867D01*
X2262563Y20846695D01*
X2236717Y20784299D01*
X2220676Y20760292D01*
X2182558Y20722174D01*
X2130232Y20700500D01*
X1855136Y20700500D01*
X1830013Y20697586D01*
X1830007Y20697585D01*
X1727234Y20652206D01*
X1647794Y20572766D01*
X1602414Y20469989D01*
X1599500Y20444865D01*
X1599500Y19330137D01*
X1602414Y19305014D01*
X1602414Y19305011D01*
X1602415Y19305009D01*
X1602415Y19305008D01*
X1602416Y19305006D01*
X1633125Y19235455D01*
X1634433Y19178833D01*
X1633798Y19177250D01*
X1624500Y19154802D01*
X1624500Y18894768D01*
X1602826Y18842442D01*
X1343942Y18583557D01*
X1266442Y18506057D01*
X1266442Y18506056D01*
X1236718Y18434299D01*
X1220680Y18410296D01*
X1216443Y18406060D01*
X1174500Y18304800D01*
X1174500Y16449500D01*
X1152826Y16397174D01*
X1100500Y16375500D01*
X964359Y16375500D01*
X891374Y16364866D01*
X891373Y16364866D01*
X778789Y16309827D01*
X690173Y16221211D01*
X635134Y16108627D01*
X635134Y16108626D01*
X624500Y16035641D01*
X624500Y15464360D01*
X635134Y15391375D01*
X635134Y15391374D01*
X690173Y15278790D01*
X690174Y15278789D01*
X778789Y15190174D01*
X891375Y15135134D01*
X964364Y15124500D01*
X1350500Y15124500D01*
X1402826Y15102826D01*
X1424500Y15050500D01*
X1424500Y14449500D01*
X1402826Y14397174D01*
X1350500Y14375500D01*
X1195200Y14375500D01*
X1093943Y14333559D01*
X1093938Y14333556D01*
X1089702Y14329319D01*
X1070473Y14315460D01*
X1068122Y14314285D01*
X993942Y14283558D01*
X981214Y14270832D01*
X970472Y14265460D01*
X968778Y14265340D01*
X965699Y14263282D01*
X923601Y14245843D01*
X923598Y14245842D01*
X893943Y14233559D01*
X893941Y14233558D01*
X793942Y14133557D01*
X716442Y14056057D01*
X716442Y14056056D01*
X686718Y13984299D01*
X670680Y13960296D01*
X666443Y13956060D01*
X637169Y13885385D01*
X624500Y13854800D01*
X624500Y13145200D01*
X665104Y13047174D01*
X665920Y13045205D01*
X665920Y13045202D01*
X666440Y13043946D01*
X666442Y13043944D01*
X666443Y13043942D01*
X1007826Y12702558D01*
X1029500Y12650233D01*
X1029500Y12312378D01*
X1032269Y12288505D01*
X1032269Y12288503D01*
X1032270Y12288502D01*
X1075384Y12190859D01*
X1150859Y12115384D01*
X1248502Y12072270D01*
X1272377Y12069500D01*
X1727622Y12069501D01*
X1751498Y12072270D01*
X1849141Y12115384D01*
X1924616Y12190859D01*
X1967730Y12288502D01*
X1970500Y12312377D01*
X1970499Y12506590D01*
X1992173Y12558914D01*
X2044499Y12580588D01*
X2096825Y12558914D01*
X3600003Y11055736D01*
X3692072Y11017600D01*
X3692073Y11017600D01*
X5336727Y11017600D01*
X5336728Y11017600D01*
X5428797Y11055736D01*
X5631488Y11258430D01*
X5631491Y11258431D01*
X5641896Y11268836D01*
X5641897Y11268836D01*
X5712364Y11339303D01*
X5716074Y11348262D01*
X5756121Y11388311D01*
X5812758Y11388313D01*
X5812762Y11388311D01*
X5818718Y11385844D01*
X5818720Y11385843D01*
X5875745Y11374500D01*
X6124254Y11374501D01*
X6181280Y11385843D01*
X6245948Y11429052D01*
X6289157Y11493720D01*
X6300500Y11550745D01*
X6300499Y12349254D01*
X6289694Y12403581D01*
X6300744Y12459128D01*
X6347837Y12490593D01*
X6403385Y12479543D01*
X6414598Y12470341D01*
X6624026Y12260914D01*
X6645700Y12208588D01*
X6645700Y11140780D01*
X6624026Y11088454D01*
X6571700Y11066780D01*
X6534701Y11076694D01*
X6513391Y11088997D01*
X6513382Y11089001D01*
X6398811Y11119700D01*
X6398809Y11119700D01*
X6280191Y11119700D01*
X6280189Y11119700D01*
X6165617Y11089001D01*
X6165612Y11088999D01*
X6062890Y11029692D01*
X5979008Y10945810D01*
X5919701Y10843088D01*
X5919699Y10843083D01*
X5889000Y10728512D01*
X5889000Y10605041D01*
X5886298Y10605041D01*
X5873838Y10558685D01*
X5867491Y10551454D01*
X5583103Y10267064D01*
X5512635Y10196596D01*
X5500486Y10167265D01*
X5460437Y10127217D01*
X5442789Y10122357D01*
X5391374Y10114866D01*
X5391373Y10114866D01*
X5278789Y10059827D01*
X5190173Y9971211D01*
X5135133Y9858625D01*
X5133438Y9853136D01*
X5130131Y9854158D01*
X5106893Y9815171D01*
X5062666Y9800500D01*
X3837569Y9800500D01*
X3785243Y9822174D01*
X3764991Y9860065D01*
X3759680Y9886767D01*
X3749999Y9901255D01*
X3718459Y9948459D01*
X3706360Y9956543D01*
X3656769Y9989679D01*
X3602369Y10000500D01*
X3602367Y10000500D01*
X3397636Y10000500D01*
X3343229Y9989679D01*
X3291111Y9954855D01*
X3235562Y9943806D01*
X3208889Y9954855D01*
X3156770Y9989679D01*
X3138635Y9993286D01*
X3102369Y10000500D01*
X3102367Y10000500D01*
X2993863Y10000500D01*
X2941537Y10022174D01*
X2919863Y10074500D01*
X2941537Y10126826D01*
X2963967Y10142192D01*
X3039141Y10175384D01*
X3114616Y10250859D01*
X3157730Y10348502D01*
X3160500Y10372377D01*
X3160499Y10827622D01*
X3157730Y10851498D01*
X3114616Y10949141D01*
X3039141Y11024616D01*
X2941498Y11067730D01*
X2917623Y11070500D01*
X2917619Y11070500D01*
X2783913Y11070500D01*
X2731587Y11092174D01*
X2709913Y11144500D01*
X2712435Y11163653D01*
X2730363Y11230563D01*
X2741999Y11273989D01*
X2742000Y11273989D01*
X2742000Y11392611D01*
X2741999Y11392612D01*
X2711300Y11507183D01*
X2711298Y11507188D01*
X2651991Y11609910D01*
X2651990Y11609911D01*
X2651989Y11609913D01*
X2568113Y11693789D01*
X2568110Y11693791D01*
X2568109Y11693792D01*
X2465387Y11753099D01*
X2465382Y11753101D01*
X2350811Y11783800D01*
X2350809Y11783800D01*
X2232191Y11783800D01*
X2232189Y11783800D01*
X2117617Y11753101D01*
X2117612Y11753099D01*
X2014890Y11693792D01*
X1931008Y11609910D01*
X1871701Y11507188D01*
X1871699Y11507183D01*
X1841000Y11392612D01*
X1841000Y11273989D01*
X1871699Y11159418D01*
X1871701Y11159413D01*
X1931008Y11056691D01*
X1931009Y11056690D01*
X1931011Y11056687D01*
X2014887Y10972811D01*
X2033693Y10961954D01*
X2041531Y10957428D01*
X2072897Y10921663D01*
X2078669Y10907730D01*
X2079136Y10906603D01*
X2213470Y10772270D01*
X2297826Y10687914D01*
X2319500Y10635588D01*
X2319500Y10372378D01*
X2322269Y10348505D01*
X2322269Y10348503D01*
X2322270Y10348502D01*
X2365384Y10250859D01*
X2440859Y10175384D01*
X2516025Y10142195D01*
X2555138Y10101232D01*
X2553830Y10044610D01*
X2512867Y10005497D01*
X2486136Y10000500D01*
X2397636Y10000500D01*
X2336201Y9988281D01*
X2280653Y9999333D01*
X2253368Y10032617D01*
X2250501Y10039561D01*
X2250501Y10039828D01*
X2215889Y10123386D01*
X2212364Y10131897D01*
X2141897Y10202364D01*
X2137682Y10206579D01*
X2137675Y10206585D01*
X1992173Y10352087D01*
X1970499Y10404413D01*
X1970499Y10667623D01*
X1968852Y10681823D01*
X1967730Y10691498D01*
X1924616Y10789141D01*
X1849141Y10864616D01*
X1751498Y10907730D01*
X1727623Y10910500D01*
X1727619Y10910500D01*
X1399500Y10910500D01*
X1347174Y10932174D01*
X1325500Y10984500D01*
X1325500Y11049437D01*
X1325499Y11049438D01*
X1323811Y11055736D01*
X1301024Y11140780D01*
X1299911Y11144935D01*
X1299909Y11144940D01*
X1250474Y11230563D01*
X1180562Y11300475D01*
X1094939Y11349910D01*
X1094934Y11349912D01*
X999437Y11375500D01*
X999435Y11375500D01*
X900565Y11375500D01*
X900563Y11375500D01*
X805065Y11349912D01*
X805060Y11349910D01*
X719437Y11300475D01*
X649525Y11230563D01*
X600090Y11144940D01*
X600088Y11144935D01*
X574500Y11049438D01*
X574500Y10950563D01*
X600088Y10855066D01*
X600090Y10855061D01*
X620621Y10819501D01*
X638149Y10789142D01*
X639586Y10786654D01*
X649500Y10749654D01*
X649500Y10082101D01*
X643485Y10052877D01*
X639616Y10043878D01*
X637636Y10041897D01*
X607741Y9969725D01*
X607531Y9969236D01*
X606893Y9968616D01*
X591875Y9946137D01*
X587636Y9941898D01*
X557913Y9870141D01*
X541875Y9846137D01*
X537638Y9841901D01*
X537636Y9841898D01*
X499500Y9749828D01*
X499500Y8750171D01*
X540425Y8651369D01*
X539467Y8650973D01*
X549500Y8617900D01*
X549500Y8600171D01*
X587634Y8508106D01*
X587637Y8508102D01*
X694393Y8401346D01*
X716067Y8349020D01*
X694393Y8296694D01*
X655099Y8277317D01*
X655250Y8276756D01*
X652430Y8276001D01*
X651726Y8275653D01*
X650561Y8275500D01*
X555065Y8249912D01*
X555060Y8249910D01*
X469437Y8200475D01*
X399525Y8130563D01*
X388586Y8111615D01*
X343652Y8077136D01*
X287500Y8084529D01*
X253021Y8129463D01*
X250500Y8148615D01*
X250500Y29520547D01*
X3349500Y29520547D01*
X3349500Y29339454D01*
X3377828Y29160594D01*
X3377831Y29160581D01*
X3433787Y28988365D01*
X3433788Y28988362D01*
X3433789Y28988361D01*
X3513267Y28832377D01*
X3516005Y28827005D01*
X3516005Y28827004D01*
X3529448Y28808502D01*
X3622447Y28680499D01*
X3750499Y28552447D01*
X3897006Y28446004D01*
X4058361Y28363789D01*
X4058364Y28363788D01*
X4058363Y28363788D01*
X4230580Y28307832D01*
X4230586Y28307831D01*
X4230591Y28307829D01*
X4333708Y28291497D01*
X4409453Y28279500D01*
X4409454Y28279500D01*
X4590547Y28279500D01*
X4651423Y28289142D01*
X4769409Y28307829D01*
X4769416Y28307832D01*
X4769419Y28307832D01*
X4880555Y28343942D01*
X4941639Y28363789D01*
X5102994Y28446004D01*
X5249501Y28552447D01*
X5377553Y28680499D01*
X5483996Y28827006D01*
X5566211Y28988361D01*
X5614144Y29135885D01*
X5622168Y29160581D01*
X5622168Y29160584D01*
X5622171Y29160591D01*
X5650500Y29339454D01*
X5650500Y29520546D01*
X5646794Y29543942D01*
X5636956Y29606058D01*
X5622171Y29699409D01*
X5622169Y29699414D01*
X5622168Y29699420D01*
X5566212Y29871636D01*
X5566211Y29871637D01*
X5566211Y29871639D01*
X5483996Y30032994D01*
X5377553Y30179501D01*
X5249501Y30307553D01*
X5164128Y30369580D01*
X5102996Y30413995D01*
X4941635Y30496213D01*
X4941636Y30496213D01*
X4769419Y30552169D01*
X4769406Y30552172D01*
X4590547Y30580500D01*
X4590546Y30580500D01*
X4409454Y30580500D01*
X4409453Y30580500D01*
X4230593Y30552172D01*
X4230580Y30552169D01*
X4058364Y30496213D01*
X3897004Y30413995D01*
X3897003Y30413995D01*
X3761700Y30315691D01*
X3750499Y30307553D01*
X3622447Y30179501D01*
X3622444Y30179498D01*
X3622444Y30179497D01*
X3516005Y30032997D01*
X3516005Y30032996D01*
X3433787Y29871636D01*
X3377831Y29699420D01*
X3377828Y29699407D01*
X3349500Y29520547D01*
X250500Y29520547D01*
X250500Y34675500D01*
X272174Y34727826D01*
X324500Y34749500D01*
X24675500Y34749500D01*
X24727826Y34727826D01*
G37*
%TD.AperFunction*%
%TA.AperFunction,Conductor*%
G36*
X22286825Y24618914D02*
G01*
X22317826Y24587913D01*
X22339500Y24535587D01*
X22339500Y24272378D01*
X22342269Y24248505D01*
X22342269Y24248503D01*
X22342270Y24248502D01*
X22385384Y24150859D01*
X22460859Y24075384D01*
X22558502Y24032270D01*
X22582377Y24029500D01*
X22937622Y24029501D01*
X22961498Y24032270D01*
X22969608Y24035852D01*
X23026228Y24037162D01*
X23067193Y23998052D01*
X23073500Y23968158D01*
X23073500Y22441213D01*
X23051826Y22388887D01*
X18973175Y18310237D01*
X18920849Y18288563D01*
X18868523Y18310237D01*
X18846849Y18362563D01*
X18849370Y18381713D01*
X18854000Y18398991D01*
X18854000Y18517609D01*
X18854000Y18517611D01*
X18853999Y18517612D01*
X18851885Y18525500D01*
X18830150Y18606617D01*
X18823300Y18632183D01*
X18823298Y18632188D01*
X18761564Y18739114D01*
X18763392Y18740170D01*
X18750580Y18787999D01*
X18771618Y18830659D01*
X19594464Y19653503D01*
X19632600Y19745572D01*
X19632600Y19845227D01*
X19632600Y22548300D01*
X19654274Y22600626D01*
X19706600Y22622300D01*
X20162627Y22622300D01*
X20162628Y22622300D01*
X20254697Y22660436D01*
X21602087Y24007828D01*
X21654413Y24029501D01*
X21917622Y24029501D01*
X21941498Y24032270D01*
X22039141Y24075384D01*
X22114616Y24150859D01*
X22157730Y24248502D01*
X22160500Y24272377D01*
X22160499Y24566589D01*
X22182173Y24618914D01*
X22234499Y24640588D01*
X22286825Y24618914D01*
G37*
%TD.AperFunction*%
%TA.AperFunction,Conductor*%
G36*
X18812013Y23030426D02*
G01*
X19109926Y22732513D01*
X19131600Y22680187D01*
X19131600Y21423210D01*
X19109926Y21370884D01*
X19057600Y21349210D01*
X19005274Y21370884D01*
X18993514Y21386209D01*
X18960515Y21443365D01*
X18853365Y21550515D01*
X18853362Y21550517D01*
X18722139Y21626279D01*
X18722130Y21626283D01*
X18575768Y21665500D01*
X18575766Y21665500D01*
X18424234Y21665500D01*
X18424232Y21665500D01*
X18277869Y21626283D01*
X18277860Y21626279D01*
X18146637Y21550517D01*
X18039483Y21443363D01*
X17963721Y21312140D01*
X17963717Y21312131D01*
X17924500Y21165769D01*
X17924500Y21164874D01*
X17924327Y21164458D01*
X17923867Y21160959D01*
X17922929Y21161083D01*
X17902826Y21112548D01*
X17850500Y21090874D01*
X17836063Y21092296D01*
X17825229Y21094451D01*
X17794820Y21100500D01*
X16315180Y21100500D01*
X16301577Y21097794D01*
X16271276Y21091767D01*
X16264544Y21088978D01*
X16263463Y21091586D01*
X16218644Y21082681D01*
X16180772Y21102930D01*
X16153139Y21130563D01*
X16101413Y21182289D01*
X16101410Y21182291D01*
X16101409Y21182292D01*
X15998687Y21241599D01*
X15998682Y21241601D01*
X15884111Y21272300D01*
X15884109Y21272300D01*
X15765491Y21272300D01*
X15760641Y21272300D01*
X15760641Y21275013D01*
X15714317Y21287436D01*
X15707052Y21293808D01*
X15472173Y21528688D01*
X15450499Y21581014D01*
X15450499Y21694864D01*
X15447585Y21719991D01*
X15402206Y21822765D01*
X15322765Y21902206D01*
X15311215Y21907306D01*
X15272103Y21948268D01*
X15273411Y22004890D01*
X15311215Y22042695D01*
X15322765Y22047794D01*
X15402206Y22127235D01*
X15414637Y22155390D01*
X15455599Y22194503D01*
X15482332Y22199500D01*
X15487927Y22199500D01*
X15487928Y22199500D01*
X15579997Y22237636D01*
X16372787Y23030426D01*
X16425113Y23052100D01*
X18759687Y23052100D01*
X18812013Y23030426D01*
G37*
%TD.AperFunction*%
%TA.AperFunction,Conductor*%
G36*
X20776826Y25480813D02*
G01*
X21342745Y24914894D01*
X21364419Y24862568D01*
X21358114Y24832678D01*
X21322270Y24751501D01*
X21319500Y24727620D01*
X21319500Y24464414D01*
X21297826Y24412088D01*
X20030713Y23144974D01*
X19978387Y23123300D01*
X19458313Y23123300D01*
X19405987Y23144974D01*
X19321378Y23229583D01*
X19299704Y23281909D01*
X19321378Y23334235D01*
X19340944Y23347307D01*
X19340738Y23347665D01*
X19358817Y23358103D01*
X19430562Y23399525D01*
X19500475Y23469438D01*
X19549910Y23555062D01*
X19575499Y23650563D01*
X19575500Y23650563D01*
X19575500Y23749437D01*
X19575499Y23749438D01*
X19575214Y23750500D01*
X19551311Y23839709D01*
X19549911Y23844935D01*
X19549909Y23844940D01*
X19528021Y23882851D01*
X19500475Y23930562D01*
X19430562Y24000475D01*
X19417828Y24007827D01*
X19387500Y24025337D01*
X19353021Y24070271D01*
X19350500Y24089423D01*
X19350500Y24868004D01*
X19372174Y24920330D01*
X19405344Y24939481D01*
X19444938Y24950090D01*
X19530562Y24999525D01*
X19569929Y25038893D01*
X19622254Y25060567D01*
X19636692Y25059145D01*
X19663627Y25053788D01*
X19685180Y25049500D01*
X19685181Y25049500D01*
X20514819Y25049500D01*
X20514820Y25049500D01*
X20558722Y25058233D01*
X20608504Y25091496D01*
X20641767Y25141278D01*
X20650500Y25185180D01*
X20650500Y25428487D01*
X20672174Y25480813D01*
X20724500Y25502487D01*
X20776826Y25480813D01*
G37*
%TD.AperFunction*%
%TD*%
M02*
