%TF.GenerationSoftware,KiCad,Pcbnew,9.0.8+dfsg-1*%
%TF.CreationDate,2026-09-08T08:42:20+05:30*%
%TF.ProjectId,smove-r2-main,736d6f76-652d-4723-922d-6d61696e2e6b,rev?*%
%TF.SameCoordinates,Original*%
%TF.FileFunction,Paste,Top*%
%TF.FilePolarity,Positive*%
%FSLAX46Y46*%
G04 Gerber Fmt 4.6, Leading zero omitted, Abs format (unit mm)*
G04 Created by KiCad (PCBNEW 9.0.8+dfsg-1) date 2026-09-08 08:42:20*
%MOMM*%
%LPD*%
G01*
G04 APERTURE LIST*
G04 Aperture macros list*
%AMRoundRect*
0 Rectangle with rounded corners*
0 $1 Rounding radius*
0 $2 $3 $4 $5 $6 $7 $8 $9 X,Y pos of 4 corners*
0 Add a 4 corners polygon primitive as box body*
4,1,4,$2,$3,$4,$5,$6,$7,$8,$9,$2,$3,0*
0 Add four circle primitives for the rounded corners*
1,1,$1+$1,$2,$3*
1,1,$1+$1,$4,$5*
1,1,$1+$1,$6,$7*
1,1,$1+$1,$8,$9*
0 Add four rect primitives between the rounded corners*
20,1,$1+$1,$2,$3,$4,$5,0*
20,1,$1+$1,$4,$5,$6,$7,0*
20,1,$1+$1,$6,$7,$8,$9,0*
20,1,$1+$1,$8,$9,$2,$3,0*%
%AMFreePoly0*
4,1,6,0.725000,-0.725000,-0.725000,-0.725000,-0.725000,0.125000,-0.125000,0.725000,0.725000,0.725000,0.725000,-0.725000,0.725000,-0.725000,$1*%
G04 Aperture macros list end*
%ADD10RoundRect,0.135000X0.185000X-0.135000X0.185000X0.135000X-0.185000X0.135000X-0.185000X-0.135000X0*%
%ADD11RoundRect,0.157500X0.842500X-0.367500X0.842500X0.367500X-0.842500X0.367500X-0.842500X-0.367500X0*%
%ADD12RoundRect,0.135000X-0.135000X-0.185000X0.135000X-0.185000X0.135000X0.185000X-0.135000X0.185000X0*%
%ADD13RoundRect,0.140000X0.170000X-0.140000X0.170000X0.140000X-0.170000X0.140000X-0.170000X-0.140000X0*%
%ADD14R,0.650000X0.850000*%
%ADD15R,0.600000X1.450000*%
%ADD16R,0.300000X1.450000*%
%ADD17RoundRect,0.250000X0.475000X-0.250000X0.475000X0.250000X-0.475000X0.250000X-0.475000X-0.250000X0*%
%ADD18RoundRect,0.250000X1.500000X-0.250000X1.500000X0.250000X-1.500000X0.250000X-1.500000X-0.250000X0*%
%ADD19RoundRect,0.250001X1.449999X-0.499999X1.449999X0.499999X-1.449999X0.499999X-1.449999X-0.499999X0*%
%ADD20RoundRect,0.150000X-0.512500X-0.150000X0.512500X-0.150000X0.512500X0.150000X-0.512500X0.150000X0*%
%ADD21RoundRect,0.250000X-1.500000X0.250000X-1.500000X-0.250000X1.500000X-0.250000X1.500000X0.250000X0*%
%ADD22RoundRect,0.250001X-1.449999X0.499999X-1.449999X-0.499999X1.449999X-0.499999X1.449999X0.499999X0*%
%ADD23R,0.800000X0.400000*%
%ADD24R,0.400000X0.800000*%
%ADD25FreePoly0,0.000000*%
%ADD26R,1.450000X1.450000*%
%ADD27R,0.700000X0.700000*%
%ADD28RoundRect,0.225000X-0.225000X-0.250000X0.225000X-0.250000X0.225000X0.250000X-0.225000X0.250000X0*%
%ADD29RoundRect,0.250000X-0.250000X-0.475000X0.250000X-0.475000X0.250000X0.475000X-0.250000X0.475000X0*%
%ADD30RoundRect,0.135000X-0.185000X0.135000X-0.185000X-0.135000X0.185000X-0.135000X0.185000X0.135000X0*%
%ADD31RoundRect,0.150000X0.150000X-0.587500X0.150000X0.587500X-0.150000X0.587500X-0.150000X-0.587500X0*%
%ADD32RoundRect,0.099000X-0.231000X-0.231000X0.231000X-0.231000X0.231000X0.231000X-0.231000X0.231000X0*%
%ADD33RoundRect,0.036000X-0.264000X-0.084000X0.264000X-0.084000X0.264000X0.084000X-0.264000X0.084000X0*%
%ADD34RoundRect,0.036000X-0.084000X-0.264000X0.084000X-0.264000X0.084000X0.264000X-0.084000X0.264000X0*%
%ADD35RoundRect,0.140000X-0.140000X-0.170000X0.140000X-0.170000X0.140000X0.170000X-0.140000X0.170000X0*%
G04 APERTURE END LIST*
D10*
%TO.C,R9*%
X1200000Y31490000D03*
X1200000Y32510000D03*
%TD*%
D11*
%TO.C,SW2*%
X12300000Y9075000D03*
X12300000Y13525000D03*
%TD*%
D12*
%TO.C,R4*%
X19890000Y27200000D03*
X20910000Y27200000D03*
%TD*%
D13*
%TO.C,C10*%
X3800000Y19520000D03*
X3800000Y20480000D03*
%TD*%
D14*
%TO.C,D1*%
X18725000Y13025000D03*
X19575000Y13025000D03*
X19575000Y11575000D03*
X18725000Y11575000D03*
%TD*%
D13*
%TO.C,C4*%
X5000000Y31320000D03*
X5000000Y32280000D03*
%TD*%
D12*
%TO.C,R5*%
X12290000Y22600000D03*
X13310000Y22600000D03*
%TD*%
D15*
%TO.C,J1*%
X16630000Y7045000D03*
X17430000Y7045000D03*
D16*
X18630000Y7045000D03*
X19630000Y7045000D03*
X20130000Y7045000D03*
X21130000Y7045000D03*
D15*
X22330000Y7045000D03*
X23130000Y7045000D03*
X23130000Y7045000D03*
X22330000Y7045000D03*
D16*
X21630000Y7045000D03*
X20630000Y7045000D03*
X19130000Y7045000D03*
X18130000Y7045000D03*
D15*
X17430000Y7045000D03*
X16630000Y7045000D03*
%TD*%
D12*
%TO.C,R23*%
X4290000Y17600000D03*
X5310000Y17600000D03*
%TD*%
%TO.C,R3*%
X19890000Y26000000D03*
X20910000Y26000000D03*
%TD*%
%TO.C,R2*%
X17690000Y9200000D03*
X18710000Y9200000D03*
%TD*%
%TO.C,R15*%
X9890000Y22600000D03*
X10910000Y22600000D03*
%TD*%
D17*
%TO.C,C3*%
X2800000Y31050000D03*
X2800000Y32950000D03*
%TD*%
D10*
%TO.C,R7*%
X2000000Y19490000D03*
X2000000Y20510000D03*
%TD*%
D18*
%TO.C,J2*%
X17250000Y17500000D03*
X17250000Y19500000D03*
D19*
X23000000Y15150000D03*
X23000000Y21850000D03*
%TD*%
D20*
%TO.C,U4*%
X1662500Y28250000D03*
X1662500Y27300000D03*
X1662500Y26350000D03*
X3937500Y26350000D03*
X3937500Y28250000D03*
%TD*%
D21*
%TO.C,J4*%
X7750000Y12000000D03*
X7750000Y10000000D03*
X7750000Y8000000D03*
X7750000Y6000000D03*
D22*
X2000000Y14350000D03*
X2000000Y3650000D03*
%TD*%
D10*
%TO.C,R8*%
X14400000Y21890000D03*
X14400000Y22910000D03*
%TD*%
D23*
%TO.C,U1*%
X6600000Y33400000D03*
X6600000Y32600000D03*
X6600000Y31800000D03*
X6600000Y31000000D03*
X6600000Y30200000D03*
X6600000Y29400000D03*
X6600000Y28600000D03*
X6600000Y27800000D03*
X6600000Y27000000D03*
X6600000Y26200000D03*
X6600000Y25400000D03*
D24*
X7700000Y24500000D03*
X8500000Y24500000D03*
X9300000Y24500000D03*
X10100000Y24500000D03*
X10900000Y24500000D03*
X11700000Y24500000D03*
X12500000Y24500000D03*
X13300000Y24500000D03*
X14100000Y24500000D03*
X14900000Y24500000D03*
X15700000Y24500000D03*
X16500000Y24500000D03*
X17300000Y24500000D03*
D23*
X18400000Y25400000D03*
X18400000Y26200000D03*
X18400000Y27000000D03*
X18400000Y27800000D03*
X18400000Y28600000D03*
X18400000Y29400000D03*
X18400000Y30200000D03*
X18400000Y31000000D03*
X18400000Y31800000D03*
X18400000Y32600000D03*
X18400000Y33400000D03*
D24*
X17300000Y34300000D03*
X16500000Y34300000D03*
X15700000Y34300000D03*
X14900000Y34300000D03*
X14100000Y34300000D03*
X13300000Y34300000D03*
X12500000Y34300000D03*
X11700000Y34300000D03*
X10900000Y34300000D03*
X10100000Y34300000D03*
X9300000Y34300000D03*
X8500000Y34300000D03*
X7700000Y34300000D03*
D25*
X10525000Y31375000D03*
D26*
X10525000Y29400000D03*
X10525000Y27425000D03*
X12500000Y31375000D03*
X12500000Y29400000D03*
X12500000Y27425000D03*
X14475000Y31375000D03*
X14475000Y29400000D03*
X14475000Y27425000D03*
D27*
X18450000Y34350000D03*
X18450000Y24450000D03*
X6550000Y24450000D03*
X6550000Y34350000D03*
%TD*%
D28*
%TO.C,C1*%
X7025000Y16600000D03*
X8575000Y16600000D03*
%TD*%
D12*
%TO.C,R10*%
X13490000Y20800000D03*
X14510000Y20800000D03*
%TD*%
D29*
%TO.C,C13*%
X2250000Y24000000D03*
X4150000Y24000000D03*
%TD*%
D12*
%TO.C,R13*%
X10690000Y1600000D03*
X11710000Y1600000D03*
%TD*%
D30*
%TO.C,R22*%
X11000000Y18510000D03*
X11000000Y17490000D03*
%TD*%
D31*
%TO.C,U9*%
X15250000Y11062500D03*
X17150000Y11062500D03*
X16200000Y12937500D03*
%TD*%
D32*
%TO.C,U6*%
X7570000Y20330000D03*
X7570000Y19470000D03*
X8430000Y20330000D03*
X8430000Y19470000D03*
D33*
X6600000Y20650000D03*
X6600000Y20150000D03*
X6600000Y19650000D03*
X6600000Y19150000D03*
D34*
X7250000Y18500000D03*
X7750000Y18500000D03*
X8250000Y18500000D03*
X8750000Y18500000D03*
D33*
X9400000Y19150000D03*
X9400000Y19650000D03*
X9400000Y20150000D03*
X9400000Y20650000D03*
D34*
X8750000Y21300000D03*
X8250000Y21300000D03*
X7750000Y21300000D03*
X7250000Y21300000D03*
%TD*%
D12*
%TO.C,R12*%
X12890000Y1600000D03*
X13910000Y1600000D03*
%TD*%
D20*
%TO.C,U8*%
X21362500Y11350000D03*
X21362500Y10400000D03*
X21362500Y9450000D03*
X23637500Y9450000D03*
X23637500Y10400000D03*
X23637500Y11350000D03*
%TD*%
D10*
%TO.C,R11*%
X19800000Y8890000D03*
X19800000Y9910000D03*
%TD*%
D12*
%TO.C,R1*%
X14890000Y9200000D03*
X15910000Y9200000D03*
%TD*%
D17*
%TO.C,C2*%
X12800000Y15050000D03*
X12800000Y16950000D03*
%TD*%
D35*
%TO.C,C11*%
X5720000Y22600000D03*
X6680000Y22600000D03*
%TD*%
D10*
%TO.C,R21*%
X11000000Y20090000D03*
X11000000Y21110000D03*
%TD*%
D11*
%TO.C,SW3*%
X12300000Y2775000D03*
X12300000Y7225000D03*
%TD*%
D12*
%TO.C,R14*%
X7690000Y22600000D03*
X8710000Y22600000D03*
%TD*%
M02*
