%TF.GenerationSoftware,KiCad,Pcbnew,9.0.8+dfsg-1*%
%TF.CreationDate,2026-09-09T05:58:36+05:30*%
%TF.ProjectId,smove-r2-main,736d6f76-652d-4723-922d-6d61696e2e6b,rev?*%
%TF.SameCoordinates,Original*%
%TF.FileFunction,Copper,L3,Inr*%
%TF.FilePolarity,Positive*%
%FSLAX46Y46*%
G04 Gerber Fmt 4.6, Leading zero omitted, Abs format (unit mm)*
G04 Created by KiCad (PCBNEW 9.0.8+dfsg-1) date 2026-09-09 05:58:36*
%MOMM*%
%LPD*%
G01*
G04 APERTURE LIST*
%TA.AperFunction,HeatsinkPad*%
%ADD10O,2.100000X1.000000*%
%TD*%
%TA.AperFunction,HeatsinkPad*%
%ADD11O,1.600000X1.000000*%
%TD*%
%TA.AperFunction,ComponentPad*%
%ADD12C,2.000000*%
%TD*%
%TA.AperFunction,ViaPad*%
%ADD13C,0.600000*%
%TD*%
%TA.AperFunction,ViaPad*%
%ADD14C,0.450000*%
%TD*%
%TA.AperFunction,Conductor*%
%ADD15C,0.200000*%
%TD*%
%TA.AperFunction,Conductor*%
%ADD16C,0.150000*%
%TD*%
G04 APERTURE END LIST*
D10*
%TO.N,GND*%
%TO.C,J1*%
X17970000Y13880000D03*
D11*
X22150000Y13880000D03*
D10*
X17970000Y22520000D03*
D11*
X22150000Y22520000D03*
%TD*%
D12*
%TO.N,/Power/PACK_P*%
%TO.C,J2*%
X11230000Y2400000D03*
%TO.N,GND*%
X13770000Y2400000D03*
%TD*%
D13*
%TO.N,/3V3_MAIN*%
X4708300Y19375800D03*
X7940500Y19223400D03*
X23235100Y16900000D03*
%TO.N,/BAT_ADC*%
X9435900Y23223900D03*
X5016600Y21919200D03*
%TO.N,/USB/CC1*%
X8355300Y12388800D03*
X18263200Y16908600D03*
X14466700Y10554100D03*
%TO.N,/USB/CC2*%
X18805000Y11162800D03*
X18262100Y19571800D03*
X10594600Y13098400D03*
%TO.N,/Compute/LED_B*%
X16711100Y12429900D03*
X14005800Y25393800D03*
D14*
X15100000Y11350000D03*
D13*
%TO.N,/Compute/LED_G*%
X14993000Y6533200D03*
D14*
X19224700Y23660400D03*
D13*
%TO.N,/Compute/LED_R*%
X13179000Y26196100D03*
X13399900Y9290100D03*
D14*
%TO.N,/Compute/MCU_EN*%
X10650000Y11500000D03*
D13*
X21236800Y8562700D03*
X3345500Y14855500D03*
X5529200Y21210200D03*
D14*
X8350000Y11600000D03*
D13*
X9159400Y27800000D03*
D14*
X6550000Y11850000D03*
D13*
%TO.N,/Power/PACK_P*%
X8407900Y23003900D03*
D14*
X8900000Y11900000D03*
D13*
%TO.N,/Compute/STRAP2*%
X23000000Y30466200D03*
X9175000Y30375000D03*
%TO.N,/Compute/STRAP8*%
X17344200Y26143300D03*
X9248900Y21438700D03*
%TO.N,/Power/SYS*%
X1477200Y2584100D03*
X2983900Y24360800D03*
X4637400Y23578000D03*
X4925500Y8041700D03*
%TO.N,/USB_DM*%
X19540700Y16910400D03*
X18403500Y18458300D03*
%TO.N,/Compute/USB_DP_MCU*%
X20968400Y27539700D03*
X23599800Y27359800D03*
%TO.N,/USB_POWER_N*%
X10536400Y23629400D03*
X14032200Y12863600D03*
X4092800Y6401500D03*
%TO.N,/VBUS*%
X2735400Y4239600D03*
X15840500Y20301200D03*
X15731400Y16690500D03*
X4699200Y9318800D03*
%TO.N,GND*%
X11800000Y33434800D03*
X10000000Y11209900D03*
D14*
X803900Y24354900D03*
X2750000Y16750000D03*
X13500000Y7000000D03*
X15750000Y21750000D03*
X6750000Y2750000D03*
D13*
X1760000Y11282200D03*
D14*
X21250000Y23250000D03*
D13*
%TO.N,/IMU/1V8_IMU*%
X11130300Y19835600D03*
X5556800Y15941800D03*
X10926600Y15911200D03*
X6086000Y20460700D03*
X15062500Y17539100D03*
%TO.N,/IMU/SCL_1V8*%
X15075400Y18607000D03*
X4781300Y15971000D03*
X5923100Y11012700D03*
%TO.N,/IMU/SDA_1V8*%
X14108100Y19478200D03*
X3960800Y15988600D03*
%TO.N,/SCL_HOST*%
X5265500Y12850800D03*
X14200000Y23304300D03*
X9624000Y20731200D03*
%TO.N,/SDA_HOST*%
X15377200Y23615500D03*
X14598600Y15294700D03*
X4500000Y13458800D03*
%TO.N,Net-(U1-GPIO9_{slash}_BOOT)*%
X11006400Y6781400D03*
X21751000Y28660600D03*
X18177800Y25385300D03*
%TD*%
D15*
%TO.N,/USB/CC2*%
X19362600Y11720400D02*
X19362600Y16301300D01*
X19362600Y16301300D02*
X18984000Y16679900D01*
X18984000Y18849900D02*
X18262100Y19571800D01*
X18805000Y11162800D02*
X19362600Y11720400D01*
X18984000Y16679900D02*
X18984000Y18849900D01*
D16*
%TO.N,/Compute/LED_B*%
X13800000Y24950000D02*
X13800000Y25000000D01*
X14100000Y15050000D02*
X14050000Y15100000D01*
X15050000Y13450000D02*
X15050000Y14050000D01*
X13550000Y19300000D02*
X13550000Y24450000D01*
X15050000Y14050000D02*
X14100000Y15000000D01*
X15100000Y11350000D02*
X15100000Y13400000D01*
X13650000Y24600000D02*
X13650000Y24650000D01*
X13600000Y24550000D02*
X13650000Y24600000D01*
X13600000Y19250000D02*
X13550000Y19300000D01*
X13600000Y24500000D02*
X13600000Y24550000D01*
X14050000Y18750000D02*
X13600000Y19200000D01*
X13950000Y25250000D02*
X13950000Y25350000D01*
X13700000Y24700000D02*
X13700000Y24750000D01*
X13900000Y25150000D02*
X13900000Y25200000D01*
X13900000Y25200000D02*
X13950000Y25250000D01*
X14050000Y15100000D02*
X14050000Y18750000D01*
X15100000Y13400000D02*
X15050000Y13450000D01*
X13700000Y24750000D02*
X13750000Y24800000D01*
X13750000Y24800000D02*
X13750000Y24900000D01*
X13750000Y24900000D02*
X13800000Y24950000D01*
X13800000Y25000000D02*
X13850000Y25050000D01*
X13850000Y25100000D02*
X13900000Y25150000D01*
X14100000Y15000000D02*
X14100000Y15050000D01*
X13850000Y25050000D02*
X13850000Y25100000D01*
X13550000Y24450000D02*
X13600000Y24500000D01*
X13600000Y19200000D02*
X13600000Y19250000D01*
X13650000Y24650000D02*
X13700000Y24700000D01*
X13950000Y25350000D02*
X14000000Y25400000D01*
D15*
%TO.N,/Compute/LED_G*%
X18841100Y20251000D02*
X19402400Y20812300D01*
X18132200Y20251000D02*
X18841100Y20251000D01*
X16154300Y7694500D02*
X16154300Y14377800D01*
X19402400Y23482700D02*
X19224700Y23660400D01*
X19402400Y20812300D02*
X19402400Y23482700D01*
X17509200Y19628000D02*
X18132200Y20251000D01*
X16154300Y14377800D02*
X17509200Y15732700D01*
X17509200Y15732700D02*
X17509200Y19628000D01*
X14993000Y6533200D02*
X16154300Y7694500D01*
%TO.N,/Compute/LED_R*%
X14661400Y12131500D02*
X13399900Y10870000D01*
X13399900Y10870000D02*
X13399900Y9290100D01*
X13179000Y15068600D02*
X14661400Y13586200D01*
X14661400Y13586200D02*
X14661400Y12131500D01*
X13179000Y26196100D02*
X13179000Y15068600D01*
D16*
%TO.N,/Compute/MCU_EN*%
X8350000Y11600000D02*
X8100000Y11850000D01*
D15*
X9159400Y24840400D02*
X5529200Y21210200D01*
X3345500Y19026500D02*
X5529200Y21210200D01*
X9159400Y27800000D02*
X9324500Y27800000D01*
X9159400Y27800000D02*
X9159400Y24840400D01*
X3345500Y14855500D02*
X3345500Y19026500D01*
D16*
X8100000Y11850000D02*
X6550000Y11850000D01*
%TO.N,/Power/PACK_P*%
X9800000Y21300000D02*
X10150000Y20950000D01*
X9950000Y16200000D02*
X9950000Y15000000D01*
X9800000Y21550000D02*
X9800000Y21300000D01*
X10100000Y20000000D02*
X10050000Y19950000D01*
X9900000Y13650000D02*
X9700000Y13450000D01*
X10000000Y16300000D02*
X10000000Y16250000D01*
X9900000Y14950000D02*
X9900000Y13650000D01*
X10050000Y19950000D02*
X10050000Y16350000D01*
X9700000Y12700000D02*
X8900000Y11900000D01*
X9700000Y13450000D02*
X9700000Y12700000D01*
X9950000Y15000000D02*
X9900000Y14950000D01*
X9750000Y21700000D02*
X9750000Y21600000D01*
X10150000Y20100000D02*
X10100000Y20050000D01*
X8700000Y22700000D02*
X8750000Y22700000D01*
X10000000Y16250000D02*
X9950000Y16200000D01*
X9750000Y21600000D02*
X9800000Y21550000D01*
X8450000Y22950000D02*
X8700000Y22700000D01*
X10150000Y20950000D02*
X10150000Y20100000D01*
X10100000Y20050000D02*
X10100000Y20000000D01*
X8750000Y22700000D02*
X9750000Y21700000D01*
X10050000Y16350000D02*
X10000000Y16300000D01*
D15*
%TO.N,/Power/SYS*%
X4637400Y23578000D02*
X3766700Y23578000D01*
X3766700Y23578000D02*
X2983900Y24360800D01*
X1183500Y2877800D02*
X1183500Y22560400D01*
X1477200Y2584100D02*
X1183500Y2877800D01*
X1183500Y22560400D02*
X2983900Y24360800D01*
%TO.N,/Compute/USB_DP_MCU*%
X23599800Y27359800D02*
X22859600Y28100000D01*
X22859600Y28100000D02*
X21528700Y28100000D01*
X21528700Y28100000D02*
X20968400Y27539700D01*
%TO.N,/USB_POWER_N*%
X10391400Y16217300D02*
X10315800Y16141700D01*
X10556100Y21319200D02*
X10556100Y20003300D01*
X12421100Y12863600D02*
X12099200Y12541700D01*
X10315800Y14947500D02*
X10262000Y14893700D01*
X12099200Y12541700D02*
X10364100Y12541700D01*
X10364100Y12541700D02*
X10298600Y12607300D01*
X10391400Y19838600D02*
X10391400Y16217300D01*
X10315800Y16141700D02*
X10315800Y14947500D01*
X4092800Y6401500D02*
X10298600Y12607300D01*
X10262000Y14893700D02*
X10262000Y13553000D01*
X10538000Y21337300D02*
X10556100Y21319200D01*
X14032200Y12863600D02*
X12421100Y12863600D01*
X10556100Y20003300D02*
X10391400Y19838600D01*
X10538000Y23627800D02*
X10538000Y21337300D01*
X10037900Y12867900D02*
X10298600Y12607300D01*
X10536400Y23629400D02*
X10538000Y23627800D01*
X10262000Y13553000D02*
X10037900Y13328900D01*
X10037900Y13328900D02*
X10037900Y12867900D01*
%TO.N,/IMU/1V8_IMU*%
X6086000Y16471000D02*
X6086000Y20460700D01*
X11130300Y16114900D02*
X11130300Y19835600D01*
X5556800Y15941800D02*
X6086000Y16471000D01*
X10926600Y15911200D02*
X11130300Y16114900D01*
%TO.N,/IMU/SCL_1V8*%
X5923100Y11012700D02*
X3941700Y12994100D01*
X3941700Y15131400D02*
X4781300Y15971000D01*
X3941700Y12994100D02*
X3941700Y15131400D01*
%TO.N,/SCL_HOST*%
X9624000Y17209300D02*
X9624000Y20731200D01*
X5265500Y12850800D02*
X9624000Y17209300D01*
%TO.N,/SDA_HOST*%
X14664800Y22903100D02*
X15377200Y23615500D01*
X14664800Y19247600D02*
X14664800Y22903100D01*
X14598600Y15294700D02*
X14493700Y15399600D01*
X14493700Y19076500D02*
X14664800Y19247600D01*
X14493700Y15399600D02*
X14493700Y19076500D01*
%TO.N,Net-(U1-GPIO9_{slash}_BOOT)*%
X15620200Y14349200D02*
X16503000Y15232000D01*
X16503000Y23710500D02*
X18177800Y25385300D01*
X15620200Y10718300D02*
X15620200Y14349200D01*
X11683300Y6781400D02*
X15620200Y10718300D01*
X16503000Y15232000D02*
X16503000Y23710500D01*
X11006400Y6781400D02*
X11683300Y6781400D01*
%TD*%
%TA.AperFunction,Conductor*%
%TO.N,GND*%
G36*
X24727826Y34727826D02*
G01*
X24749500Y34675500D01*
X24749500Y23824500D01*
X24727826Y23772174D01*
X24675500Y23750500D01*
X24400172Y23750500D01*
X24308105Y23712366D01*
X24237634Y23641895D01*
X24199500Y23549830D01*
X24199500Y12850171D01*
X24237634Y12758106D01*
X24237635Y12758104D01*
X24237636Y12758103D01*
X24308103Y12687636D01*
X24400172Y12649500D01*
X24675500Y12649500D01*
X24727826Y12627826D01*
X24749500Y12575500D01*
X24749500Y4390892D01*
X24727826Y4338566D01*
X24675500Y4316892D01*
X24623174Y4338566D01*
X24605427Y4367105D01*
X24587383Y4420260D01*
X24498701Y4600089D01*
X24387787Y4825000D01*
X24387784Y4825005D01*
X24387781Y4825010D01*
X24137070Y5200225D01*
X24137069Y5200227D01*
X23839518Y5539519D01*
X23500226Y5837070D01*
X23329718Y5951000D01*
X23125009Y6087783D01*
X23124998Y6087789D01*
X22720260Y6287384D01*
X22292928Y6432444D01*
X22292916Y6432448D01*
X21850322Y6520484D01*
X21850319Y6520485D01*
X21850315Y6520485D01*
X21400000Y6550000D01*
X21399999Y6550000D01*
X21345461Y6546426D01*
X20949684Y6520485D01*
X20949680Y6520485D01*
X20949676Y6520484D01*
X20507082Y6432448D01*
X20507069Y6432444D01*
X20079740Y6287385D01*
X19675001Y6087789D01*
X19674990Y6087783D01*
X19299775Y5837072D01*
X18960481Y5539519D01*
X18662928Y5200225D01*
X18412217Y4825010D01*
X18412211Y4824999D01*
X18212615Y4420260D01*
X18067556Y3992931D01*
X18067552Y3992918D01*
X17979516Y3550324D01*
X17979515Y3550320D01*
X17979515Y3550316D01*
X17950000Y3100000D01*
X17979515Y2649685D01*
X17979515Y2649681D01*
X17979516Y2649678D01*
X18067552Y2207084D01*
X18067556Y2207072D01*
X18212616Y1779740D01*
X18412211Y1375002D01*
X18412217Y1374991D01*
X18496068Y1249500D01*
X18662930Y999774D01*
X18960481Y660482D01*
X19299773Y362931D01*
X19423733Y280104D01*
X19674990Y112219D01*
X19674995Y112216D01*
X19675000Y112213D01*
X20079742Y-87384D01*
X20132895Y-105427D01*
X20175477Y-142771D01*
X20179181Y-199287D01*
X20141837Y-241869D01*
X20109108Y-249500D01*
X324500Y-249500D01*
X272174Y-227826D01*
X250500Y-175500D01*
X250500Y22610230D01*
X933000Y22610230D01*
X933000Y2827971D01*
X971134Y2735906D01*
X971137Y2735902D01*
X1005192Y2701847D01*
X1026866Y2649521D01*
X1026700Y2646987D01*
X1026700Y2524789D01*
X1057399Y2410218D01*
X1057401Y2410213D01*
X1116708Y2307491D01*
X1116709Y2307490D01*
X1116711Y2307487D01*
X1200587Y2223611D01*
X1303314Y2164301D01*
X1303315Y2164301D01*
X1303317Y2164300D01*
X1360602Y2148951D01*
X1417888Y2133601D01*
X1417889Y2133600D01*
X1417891Y2133600D01*
X1536511Y2133600D01*
X1536511Y2133601D01*
X1651086Y2164301D01*
X1753813Y2223611D01*
X1837689Y2307487D01*
X1896999Y2410214D01*
X1898871Y2417204D01*
X1918525Y2490547D01*
X10079500Y2490547D01*
X10079500Y2309454D01*
X10107828Y2130594D01*
X10107831Y2130581D01*
X10163787Y1958365D01*
X10163788Y1958362D01*
X10163789Y1958361D01*
X10246004Y1797006D01*
X10352447Y1650499D01*
X10480499Y1522447D01*
X10627006Y1416004D01*
X10788361Y1333789D01*
X10788364Y1333788D01*
X10788363Y1333788D01*
X10960580Y1277832D01*
X10960586Y1277831D01*
X10960591Y1277829D01*
X11079833Y1258943D01*
X11139453Y1249500D01*
X11139454Y1249500D01*
X11320547Y1249500D01*
X11365261Y1256583D01*
X11499409Y1277829D01*
X11499416Y1277832D01*
X11499419Y1277832D01*
X11577601Y1303235D01*
X11671639Y1333789D01*
X11832994Y1416004D01*
X11979501Y1522447D01*
X12107553Y1650499D01*
X12213996Y1797006D01*
X12296211Y1958361D01*
X12352171Y2130591D01*
X12380500Y2309454D01*
X12380500Y2490546D01*
X12375076Y2524789D01*
X12356289Y2643409D01*
X12352171Y2669409D01*
X12352169Y2669414D01*
X12352168Y2669420D01*
X12296212Y2841636D01*
X12296211Y2841637D01*
X12296211Y2841639D01*
X12213996Y3002994D01*
X12213338Y3003899D01*
X12137269Y3108600D01*
X12107553Y3149501D01*
X11979501Y3277553D01*
X11894128Y3339580D01*
X11832996Y3383995D01*
X11671635Y3466213D01*
X11671636Y3466213D01*
X11499419Y3522169D01*
X11499406Y3522172D01*
X11320547Y3550500D01*
X11320546Y3550500D01*
X11139454Y3550500D01*
X11139453Y3550500D01*
X10960593Y3522172D01*
X10960580Y3522169D01*
X10788364Y3466213D01*
X10627004Y3383995D01*
X10627003Y3383995D01*
X10480503Y3277556D01*
X10480499Y3277553D01*
X10352447Y3149501D01*
X10352444Y3149498D01*
X10352444Y3149497D01*
X10246005Y3002997D01*
X10246005Y3002996D01*
X10163787Y2841636D01*
X10107831Y2669420D01*
X10107828Y2669407D01*
X10079500Y2490547D01*
X1918525Y2490547D01*
X1924436Y2512606D01*
X1927700Y2524790D01*
X1927700Y2643411D01*
X1927699Y2643412D01*
X1897000Y2757983D01*
X1896998Y2757988D01*
X1837691Y2860710D01*
X1837690Y2860711D01*
X1837689Y2860713D01*
X1753813Y2944589D01*
X1753810Y2944591D01*
X1753809Y2944592D01*
X1651087Y3003899D01*
X1651082Y3003901D01*
X1536511Y3034600D01*
X1536509Y3034600D01*
X1508000Y3034600D01*
X1455674Y3056274D01*
X1434000Y3108600D01*
X1434000Y4298912D01*
X2284900Y4298912D01*
X2284900Y4180289D01*
X2315599Y4065718D01*
X2315601Y4065713D01*
X2374908Y3962991D01*
X2374909Y3962990D01*
X2374911Y3962987D01*
X2458787Y3879111D01*
X2561514Y3819801D01*
X2561515Y3819801D01*
X2561517Y3819800D01*
X2618802Y3804451D01*
X2676088Y3789101D01*
X2676089Y3789100D01*
X2676091Y3789100D01*
X2794711Y3789100D01*
X2794711Y3789101D01*
X2909286Y3819801D01*
X3012013Y3879111D01*
X3095889Y3962987D01*
X3155199Y4065714D01*
X3185899Y4180289D01*
X3185900Y4180289D01*
X3185900Y4298911D01*
X3185899Y4298912D01*
X3155200Y4413483D01*
X3155198Y4413488D01*
X3095891Y4516210D01*
X3095890Y4516211D01*
X3095889Y4516213D01*
X3012013Y4600089D01*
X3012010Y4600091D01*
X3012009Y4600092D01*
X2909287Y4659399D01*
X2909282Y4659401D01*
X2794711Y4690100D01*
X2794709Y4690100D01*
X2676091Y4690100D01*
X2676089Y4690100D01*
X2561517Y4659401D01*
X2561512Y4659399D01*
X2458790Y4600092D01*
X2374908Y4516210D01*
X2315601Y4413488D01*
X2315599Y4413483D01*
X2284900Y4298912D01*
X1434000Y4298912D01*
X1434000Y9378112D01*
X4248700Y9378112D01*
X4248700Y9259489D01*
X4279399Y9144918D01*
X4279401Y9144913D01*
X4338708Y9042191D01*
X4338709Y9042190D01*
X4338711Y9042187D01*
X4422587Y8958311D01*
X4422589Y8958310D01*
X4422590Y8958309D01*
X4525312Y8899002D01*
X4525314Y8899001D01*
X4525315Y8899001D01*
X4525317Y8899000D01*
X4582602Y8883651D01*
X4639888Y8868301D01*
X4639889Y8868300D01*
X4639891Y8868300D01*
X4758511Y8868300D01*
X4758511Y8868301D01*
X4873086Y8899001D01*
X4975813Y8958311D01*
X5059689Y9042187D01*
X5118999Y9144914D01*
X5149699Y9259489D01*
X5149700Y9259489D01*
X5149700Y9378111D01*
X5149699Y9378112D01*
X5119000Y9492683D01*
X5118998Y9492688D01*
X5059691Y9595410D01*
X5059690Y9595411D01*
X5059689Y9595413D01*
X4975813Y9679289D01*
X4975810Y9679291D01*
X4975809Y9679292D01*
X4873087Y9738599D01*
X4873082Y9738601D01*
X4758511Y9769300D01*
X4758509Y9769300D01*
X4639891Y9769300D01*
X4639889Y9769300D01*
X4525317Y9738601D01*
X4525312Y9738599D01*
X4422590Y9679292D01*
X4338708Y9595410D01*
X4279401Y9492688D01*
X4279399Y9492683D01*
X4248700Y9378112D01*
X1434000Y9378112D01*
X1434000Y14914812D01*
X2895000Y14914812D01*
X2895000Y14796189D01*
X2925699Y14681618D01*
X2925701Y14681613D01*
X2985008Y14578891D01*
X2985009Y14578890D01*
X2985011Y14578887D01*
X3068887Y14495011D01*
X3068889Y14495010D01*
X3068890Y14495009D01*
X3157714Y14443726D01*
X3171614Y14435701D01*
X3171615Y14435701D01*
X3171617Y14435700D01*
X3228902Y14420351D01*
X3286188Y14405001D01*
X3286189Y14405000D01*
X3286191Y14405000D01*
X3404811Y14405000D01*
X3404811Y14405001D01*
X3519386Y14435701D01*
X3555038Y14456285D01*
X3580200Y14470812D01*
X3636352Y14478205D01*
X3681286Y14443726D01*
X3691200Y14406726D01*
X3691200Y12944271D01*
X3729334Y12852206D01*
X3729336Y12852203D01*
X4602139Y11979400D01*
X5451092Y11130448D01*
X5472766Y11078122D01*
X5472600Y11075586D01*
X5472600Y10953389D01*
X5503299Y10838818D01*
X5503301Y10838813D01*
X5562608Y10736091D01*
X5562609Y10736090D01*
X5562611Y10736087D01*
X5646487Y10652211D01*
X5749214Y10592901D01*
X5749215Y10592901D01*
X5749217Y10592900D01*
X5806502Y10577551D01*
X5863788Y10562201D01*
X5863789Y10562200D01*
X5863791Y10562200D01*
X5982411Y10562200D01*
X5982411Y10562201D01*
X6096986Y10592901D01*
X6199713Y10652211D01*
X6283589Y10736087D01*
X6342899Y10838814D01*
X6373599Y10953389D01*
X6373600Y10953389D01*
X6373600Y11072011D01*
X6373599Y11072012D01*
X6372641Y11075586D01*
X6342899Y11186586D01*
X6333523Y11202826D01*
X6283591Y11289310D01*
X6283590Y11289311D01*
X6283589Y11289313D01*
X6199713Y11373189D01*
X6199710Y11373191D01*
X6199709Y11373192D01*
X6096987Y11432499D01*
X6096982Y11432501D01*
X5982411Y11463200D01*
X5982409Y11463200D01*
X5863791Y11463200D01*
X5858941Y11463200D01*
X5858941Y11465913D01*
X5812617Y11478336D01*
X5805352Y11484708D01*
X5014560Y12275500D01*
X4938838Y12351222D01*
X4917165Y12403547D01*
X4938839Y12455873D01*
X4991165Y12477547D01*
X5028165Y12467633D01*
X5086629Y12433879D01*
X5091614Y12431001D01*
X5091615Y12431001D01*
X5091617Y12431000D01*
X5148902Y12415651D01*
X5206188Y12400301D01*
X5206189Y12400300D01*
X5206191Y12400300D01*
X5324811Y12400300D01*
X5324811Y12400301D01*
X5439386Y12431001D01*
X5542113Y12490311D01*
X5625989Y12574187D01*
X5685299Y12676914D01*
X5715999Y12791489D01*
X5716000Y12791489D01*
X5716000Y12914960D01*
X5718730Y12914960D01*
X5731095Y12961231D01*
X5737499Y12968540D01*
X9698174Y16929216D01*
X9750500Y16950889D01*
X9802826Y16929215D01*
X9824500Y16876889D01*
X9824500Y16473636D01*
X9818107Y16443547D01*
X9812866Y16431773D01*
X9808830Y16427736D01*
X9798774Y16403461D01*
X9778742Y16355100D01*
X9778346Y16354209D01*
X9777189Y16353111D01*
X9763068Y16331975D01*
X9758830Y16327738D01*
X9753559Y16315009D01*
X9753558Y16315007D01*
X9724499Y16244855D01*
X9724499Y16146534D01*
X9724500Y16146525D01*
X9724500Y15124058D01*
X9716731Y15091051D01*
X9711351Y15080258D01*
X9708830Y15077736D01*
X9708830Y15077735D01*
X9702607Y15062714D01*
X9702604Y15062706D01*
X9674499Y14994856D01*
X9674499Y14896533D01*
X9674500Y14896526D01*
X9674500Y13774058D01*
X9652826Y13721732D01*
X9508830Y13577737D01*
X9504554Y13567413D01*
X9474499Y13494856D01*
X9474499Y13396534D01*
X9474500Y13396525D01*
X9474500Y12824058D01*
X9452826Y12771732D01*
X8978268Y12297174D01*
X8925942Y12275500D01*
X8879800Y12275500D01*
X8827474Y12297174D01*
X8805800Y12349500D01*
X8805800Y12448111D01*
X8805799Y12448112D01*
X8803719Y12455873D01*
X8775099Y12562686D01*
X8761069Y12586987D01*
X8715791Y12665410D01*
X8715790Y12665411D01*
X8715789Y12665413D01*
X8631913Y12749289D01*
X8631910Y12749291D01*
X8631909Y12749292D01*
X8529187Y12808599D01*
X8529182Y12808601D01*
X8414611Y12839300D01*
X8414609Y12839300D01*
X8295991Y12839300D01*
X8295989Y12839300D01*
X8181417Y12808601D01*
X8181412Y12808599D01*
X8078690Y12749292D01*
X7994808Y12665410D01*
X7935501Y12562688D01*
X7935499Y12562683D01*
X7904800Y12448112D01*
X7904800Y12329489D01*
X7935499Y12214918D01*
X7935501Y12214913D01*
X7951906Y12186500D01*
X7959299Y12130348D01*
X7924820Y12085414D01*
X7887820Y12075500D01*
X6886189Y12075500D01*
X6833863Y12097174D01*
X6780562Y12150475D01*
X6694939Y12199910D01*
X6694934Y12199912D01*
X6599437Y12225500D01*
X6599435Y12225500D01*
X6500565Y12225500D01*
X6500563Y12225500D01*
X6405065Y12199912D01*
X6405060Y12199910D01*
X6319437Y12150475D01*
X6249525Y12080563D01*
X6200090Y11994940D01*
X6200088Y11994935D01*
X6174500Y11899438D01*
X6174500Y11800563D01*
X6200088Y11705066D01*
X6200090Y11705061D01*
X6234804Y11644935D01*
X6249525Y11619438D01*
X6319438Y11549525D01*
X6405062Y11500090D01*
X6405063Y11500090D01*
X6405065Y11500089D01*
X6452813Y11487295D01*
X6500562Y11474501D01*
X6500563Y11474500D01*
X6500565Y11474500D01*
X6599437Y11474500D01*
X6599437Y11474501D01*
X6694938Y11500090D01*
X6780562Y11549525D01*
X6833863Y11602826D01*
X6886189Y11624500D01*
X7900500Y11624500D01*
X7952826Y11602826D01*
X7972553Y11555200D01*
X7973867Y11555372D01*
X7974500Y11550563D01*
X8000088Y11455066D01*
X8000090Y11455061D01*
X8032206Y11399435D01*
X8049525Y11369438D01*
X8119438Y11299525D01*
X8205062Y11250090D01*
X8205063Y11250090D01*
X8205065Y11250089D01*
X8252813Y11237295D01*
X8300562Y11224501D01*
X8300563Y11224500D01*
X8382888Y11224500D01*
X8435214Y11202826D01*
X8456888Y11150500D01*
X8435214Y11098174D01*
X5479743Y8142705D01*
X5427417Y8121031D01*
X5375091Y8142705D01*
X5355939Y8175876D01*
X5345299Y8215586D01*
X5285989Y8318313D01*
X5202113Y8402189D01*
X5202110Y8402191D01*
X5202109Y8402192D01*
X5099387Y8461499D01*
X5099382Y8461501D01*
X4984811Y8492200D01*
X4984809Y8492200D01*
X4866191Y8492200D01*
X4866189Y8492200D01*
X4751617Y8461501D01*
X4751612Y8461499D01*
X4648890Y8402192D01*
X4565008Y8318310D01*
X4505701Y8215588D01*
X4505699Y8215583D01*
X4475000Y8101012D01*
X4475000Y7982389D01*
X4505699Y7867818D01*
X4505701Y7867813D01*
X4565008Y7765091D01*
X4565009Y7765090D01*
X4565011Y7765087D01*
X4648887Y7681211D01*
X4751614Y7621901D01*
X4791323Y7611261D01*
X4836255Y7576783D01*
X4843648Y7520630D01*
X4824495Y7487457D01*
X4210546Y6873509D01*
X4158220Y6851835D01*
X4155685Y6852000D01*
X4152109Y6852000D01*
X4033491Y6852000D01*
X4033489Y6852000D01*
X3918917Y6821301D01*
X3918912Y6821299D01*
X3816190Y6761992D01*
X3732308Y6678110D01*
X3673001Y6575388D01*
X3672999Y6575383D01*
X3642300Y6460812D01*
X3642300Y6342189D01*
X3672999Y6227618D01*
X3673001Y6227613D01*
X3732308Y6124891D01*
X3732309Y6124890D01*
X3732311Y6124887D01*
X3816187Y6041011D01*
X3918914Y5981701D01*
X3918915Y5981701D01*
X3918917Y5981700D01*
X3976202Y5966351D01*
X4033488Y5951001D01*
X4033489Y5951000D01*
X4033491Y5951000D01*
X4152111Y5951000D01*
X4152111Y5951001D01*
X4266686Y5981701D01*
X4369413Y6041011D01*
X4453289Y6124887D01*
X4512599Y6227614D01*
X4543299Y6342189D01*
X4543300Y6342189D01*
X4543300Y6465660D01*
X4546030Y6465660D01*
X4558395Y6511931D01*
X4564799Y6519240D01*
X9594997Y11549438D01*
X10274500Y11549438D01*
X10274500Y11450563D01*
X10300088Y11355066D01*
X10300090Y11355061D01*
X10332154Y11299525D01*
X10349525Y11269438D01*
X10419438Y11199525D01*
X10505062Y11150090D01*
X10505063Y11150090D01*
X10505065Y11150089D01*
X10552813Y11137295D01*
X10600562Y11124501D01*
X10600563Y11124500D01*
X10600565Y11124500D01*
X10699437Y11124500D01*
X10699437Y11124501D01*
X10794938Y11150090D01*
X10880562Y11199525D01*
X10950475Y11269438D01*
X10999910Y11355062D01*
X11025499Y11450563D01*
X11025500Y11450563D01*
X11025500Y11549437D01*
X11025499Y11549438D01*
X11025475Y11549526D01*
X11011194Y11602826D01*
X10999911Y11644935D01*
X10999909Y11644940D01*
X10950474Y11730563D01*
X10880562Y11800475D01*
X10794939Y11849910D01*
X10794934Y11849912D01*
X10699437Y11875500D01*
X10699435Y11875500D01*
X10600565Y11875500D01*
X10600563Y11875500D01*
X10505065Y11849912D01*
X10505060Y11849910D01*
X10419437Y11800475D01*
X10349525Y11730563D01*
X10300090Y11644940D01*
X10300088Y11644935D01*
X10274500Y11549438D01*
X9594997Y11549438D01*
X10315084Y12269525D01*
X10367404Y12291198D01*
X10413737Y12291162D01*
X10413828Y12291200D01*
X10421184Y12291200D01*
X12149027Y12291200D01*
X12149028Y12291200D01*
X12241097Y12329336D01*
X12503187Y12591426D01*
X12555513Y12613100D01*
X13615181Y12613100D01*
X13667507Y12591426D01*
X13669180Y12589518D01*
X13671710Y12586988D01*
X13671711Y12586987D01*
X13755587Y12503111D01*
X13755589Y12503110D01*
X13755590Y12503109D01*
X13811414Y12470879D01*
X13858314Y12443801D01*
X13858315Y12443801D01*
X13858317Y12443800D01*
X13895343Y12433879D01*
X13972888Y12413101D01*
X13972889Y12413100D01*
X13972891Y12413100D01*
X14091511Y12413100D01*
X14091511Y12413101D01*
X14206086Y12443801D01*
X14299900Y12497965D01*
X14356052Y12505358D01*
X14400986Y12470879D01*
X14410900Y12433879D01*
X14410900Y12265913D01*
X14389226Y12213587D01*
X13187534Y11011895D01*
X13149400Y10919830D01*
X13149400Y9707119D01*
X13127726Y9654793D01*
X13125817Y9653120D01*
X13039408Y9566710D01*
X12980101Y9463988D01*
X12980099Y9463983D01*
X12949400Y9349412D01*
X12949400Y9230789D01*
X12980099Y9116218D01*
X12980101Y9116213D01*
X13039408Y9013491D01*
X13039409Y9013490D01*
X13039411Y9013487D01*
X13123287Y8929611D01*
X13123289Y8929610D01*
X13123290Y8929609D01*
X13176306Y8899000D01*
X13226014Y8870301D01*
X13253576Y8862916D01*
X13298509Y8828440D01*
X13305903Y8772287D01*
X13286750Y8739112D01*
X11601213Y7053574D01*
X11548887Y7031900D01*
X11423419Y7031900D01*
X11371093Y7053574D01*
X11369419Y7055483D01*
X11366889Y7058013D01*
X11283013Y7141889D01*
X11283010Y7141891D01*
X11283009Y7141892D01*
X11180287Y7201199D01*
X11180282Y7201201D01*
X11065711Y7231900D01*
X11065709Y7231900D01*
X10947091Y7231900D01*
X10947089Y7231900D01*
X10832517Y7201201D01*
X10832512Y7201199D01*
X10729790Y7141892D01*
X10645908Y7058010D01*
X10586601Y6955288D01*
X10586599Y6955283D01*
X10555900Y6840712D01*
X10555900Y6722089D01*
X10586599Y6607518D01*
X10586601Y6607513D01*
X10645908Y6504791D01*
X10645909Y6504790D01*
X10645911Y6504787D01*
X10729787Y6420911D01*
X10832514Y6361601D01*
X10832515Y6361601D01*
X10832517Y6361600D01*
X10889802Y6346251D01*
X10947088Y6330901D01*
X10947089Y6330900D01*
X10947091Y6330900D01*
X11065711Y6330900D01*
X11065711Y6330901D01*
X11180286Y6361601D01*
X11283013Y6420911D01*
X11366889Y6504787D01*
X11366889Y6504788D01*
X11370319Y6508217D01*
X11372242Y6506294D01*
X11413749Y6530266D01*
X11423419Y6530900D01*
X11733127Y6530900D01*
X11733128Y6530900D01*
X11825197Y6569036D01*
X15777474Y10521313D01*
X15829800Y10542987D01*
X15882126Y10521313D01*
X15903800Y10468987D01*
X15903800Y7828914D01*
X15882126Y7776588D01*
X15110746Y7005209D01*
X15058420Y6983535D01*
X15055885Y6983700D01*
X15052309Y6983700D01*
X14933691Y6983700D01*
X14933689Y6983700D01*
X14819117Y6953001D01*
X14819112Y6952999D01*
X14716390Y6893692D01*
X14632508Y6809810D01*
X14573201Y6707088D01*
X14573199Y6707083D01*
X14542500Y6592512D01*
X14542500Y6473889D01*
X14573199Y6359318D01*
X14573201Y6359313D01*
X14632508Y6256591D01*
X14632509Y6256590D01*
X14632511Y6256587D01*
X14716387Y6172711D01*
X14819114Y6113401D01*
X14819115Y6113401D01*
X14819117Y6113400D01*
X14876402Y6098051D01*
X14933688Y6082701D01*
X14933689Y6082700D01*
X14933691Y6082700D01*
X15052311Y6082700D01*
X15052311Y6082701D01*
X15166886Y6113401D01*
X15269613Y6172711D01*
X15353489Y6256587D01*
X15412799Y6359314D01*
X15443499Y6473889D01*
X15443500Y6473889D01*
X15443500Y6597360D01*
X15446230Y6597360D01*
X15458595Y6643631D01*
X15464999Y6650940D01*
X16366664Y7552603D01*
X16404800Y7644672D01*
X16404800Y7744328D01*
X16404800Y8622012D01*
X20786300Y8622012D01*
X20786300Y8503389D01*
X20816999Y8388818D01*
X20817001Y8388813D01*
X20876308Y8286091D01*
X20876309Y8286090D01*
X20876311Y8286087D01*
X20960187Y8202211D01*
X20960189Y8202210D01*
X20960190Y8202209D01*
X21062912Y8142902D01*
X21062914Y8142901D01*
X21062915Y8142901D01*
X21062917Y8142900D01*
X21063645Y8142705D01*
X21177488Y8112201D01*
X21177489Y8112200D01*
X21177491Y8112200D01*
X21296111Y8112200D01*
X21296111Y8112201D01*
X21410686Y8142901D01*
X21513413Y8202211D01*
X21597289Y8286087D01*
X21656599Y8388814D01*
X21687299Y8503389D01*
X21687300Y8503389D01*
X21687300Y8622011D01*
X21687299Y8622012D01*
X21656600Y8736583D01*
X21656598Y8736588D01*
X21597291Y8839310D01*
X21597290Y8839311D01*
X21597289Y8839313D01*
X21513413Y8923189D01*
X21513410Y8923191D01*
X21513409Y8923192D01*
X21410687Y8982499D01*
X21410682Y8982501D01*
X21296111Y9013200D01*
X21296109Y9013200D01*
X21177491Y9013200D01*
X21177489Y9013200D01*
X21062917Y8982501D01*
X21062912Y8982499D01*
X20960190Y8923192D01*
X20876308Y8839310D01*
X20817001Y8736588D01*
X20816999Y8736583D01*
X20786300Y8622012D01*
X16404800Y8622012D01*
X16404800Y11958379D01*
X16426474Y12010705D01*
X16478800Y12032379D01*
X16515801Y12022464D01*
X16537210Y12010103D01*
X16537212Y12010103D01*
X16537214Y12010101D01*
X16537215Y12010101D01*
X16537217Y12010100D01*
X16593795Y11994940D01*
X16651788Y11979401D01*
X16651789Y11979400D01*
X16651791Y11979400D01*
X16770411Y11979400D01*
X16770411Y11979401D01*
X16884986Y12010101D01*
X16987713Y12069411D01*
X17071589Y12153287D01*
X17130899Y12256014D01*
X17161599Y12370589D01*
X17161600Y12370589D01*
X17161600Y12489211D01*
X17161599Y12489212D01*
X17156342Y12508830D01*
X17146249Y12546498D01*
X17130900Y12603783D01*
X17130898Y12603788D01*
X17071591Y12706510D01*
X17071590Y12706511D01*
X17071589Y12706513D01*
X16987713Y12790389D01*
X16987710Y12790391D01*
X16987709Y12790392D01*
X16884987Y12849699D01*
X16884982Y12849701D01*
X16770411Y12880400D01*
X16770409Y12880400D01*
X16651791Y12880400D01*
X16651789Y12880400D01*
X16537217Y12849701D01*
X16537211Y12849698D01*
X16515800Y12837336D01*
X16459647Y12829944D01*
X16414714Y12864422D01*
X16404800Y12901422D01*
X16404800Y14243387D01*
X16426474Y14295713D01*
X17721563Y15590802D01*
X17721564Y15590803D01*
X17759700Y15682872D01*
X17759700Y15782528D01*
X17759700Y16603517D01*
X17781374Y16655843D01*
X17833700Y16677517D01*
X17886026Y16655843D01*
X17897786Y16640516D01*
X17902707Y16631992D01*
X17902709Y16631990D01*
X17902711Y16631987D01*
X17986587Y16548111D01*
X17986589Y16548110D01*
X17986590Y16548109D01*
X18086196Y16490601D01*
X18089314Y16488801D01*
X18089315Y16488801D01*
X18089317Y16488800D01*
X18121409Y16480201D01*
X18203888Y16458101D01*
X18203889Y16458100D01*
X18203891Y16458100D01*
X18322511Y16458100D01*
X18322511Y16458101D01*
X18437086Y16488801D01*
X18539813Y16548111D01*
X18622467Y16630766D01*
X18674790Y16652438D01*
X18727116Y16630764D01*
X18743157Y16606757D01*
X18771635Y16538005D01*
X18771637Y16538002D01*
X19090426Y16219213D01*
X19112100Y16166887D01*
X19112100Y15676985D01*
X19090426Y15624659D01*
X19038100Y15602985D01*
X18985774Y15624659D01*
X18974015Y15639984D01*
X18960517Y15663362D01*
X18960516Y15663363D01*
X18960515Y15663365D01*
X18853365Y15770515D01*
X18739144Y15836461D01*
X18722139Y15846279D01*
X18722130Y15846283D01*
X18575768Y15885500D01*
X18575766Y15885500D01*
X18424234Y15885500D01*
X18424232Y15885500D01*
X18277869Y15846283D01*
X18277860Y15846279D01*
X18146637Y15770517D01*
X18039483Y15663363D01*
X17963721Y15532140D01*
X17963717Y15532131D01*
X17924500Y15385769D01*
X17924500Y15234232D01*
X17963717Y15087870D01*
X17963721Y15087861D01*
X18039483Y14956638D01*
X18039485Y14956635D01*
X18146635Y14849485D01*
X18277865Y14773719D01*
X18424231Y14734501D01*
X18424232Y14734500D01*
X18424234Y14734500D01*
X18575768Y14734500D01*
X18575768Y14734501D01*
X18722135Y14773719D01*
X18853365Y14849485D01*
X18960515Y14956635D01*
X18974014Y14980017D01*
X19018948Y15014495D01*
X19075100Y15007102D01*
X19109579Y14962168D01*
X19112100Y14943016D01*
X19112100Y11854814D01*
X19090426Y11802488D01*
X18922746Y11634808D01*
X18870420Y11613134D01*
X18867887Y11613300D01*
X18864309Y11613300D01*
X18745691Y11613300D01*
X18745689Y11613300D01*
X18631117Y11582601D01*
X18631112Y11582599D01*
X18528390Y11523292D01*
X18444508Y11439410D01*
X18385201Y11336688D01*
X18385199Y11336683D01*
X18354500Y11222112D01*
X18354500Y11103489D01*
X18385199Y10988918D01*
X18385201Y10988913D01*
X18444508Y10886191D01*
X18444509Y10886190D01*
X18444511Y10886187D01*
X18528387Y10802311D01*
X18528389Y10802310D01*
X18528390Y10802309D01*
X18587595Y10768127D01*
X18631114Y10743001D01*
X18631115Y10743001D01*
X18631117Y10743000D01*
X18656902Y10736091D01*
X18745688Y10712301D01*
X18745689Y10712300D01*
X18745691Y10712300D01*
X18864311Y10712300D01*
X18864311Y10712301D01*
X18978886Y10743001D01*
X19081613Y10802311D01*
X19165489Y10886187D01*
X19224799Y10988914D01*
X19255499Y11103489D01*
X19255500Y11103489D01*
X19255500Y11226960D01*
X19258230Y11226960D01*
X19270595Y11273231D01*
X19276999Y11280540D01*
X19574964Y11578503D01*
X19613100Y11670572D01*
X19613100Y11770227D01*
X19613100Y16351128D01*
X19603529Y16374235D01*
X19603529Y16430870D01*
X19643577Y16470919D01*
X19652735Y16474029D01*
X19714586Y16490601D01*
X19817313Y16549911D01*
X19901189Y16633787D01*
X19960499Y16736514D01*
X19991199Y16851089D01*
X19991200Y16851089D01*
X19991200Y16959312D01*
X22784600Y16959312D01*
X22784600Y16840689D01*
X22815299Y16726118D01*
X22815301Y16726113D01*
X22874608Y16623391D01*
X22874609Y16623390D01*
X22874611Y16623387D01*
X22958487Y16539511D01*
X22958489Y16539510D01*
X22958490Y16539509D01*
X23046318Y16488801D01*
X23061214Y16480201D01*
X23061215Y16480201D01*
X23061217Y16480200D01*
X23118502Y16464851D01*
X23175788Y16449501D01*
X23175789Y16449500D01*
X23175791Y16449500D01*
X23294411Y16449500D01*
X23294411Y16449501D01*
X23408986Y16480201D01*
X23511713Y16539511D01*
X23595589Y16623387D01*
X23654899Y16726114D01*
X23685599Y16840689D01*
X23685600Y16840689D01*
X23685600Y16959311D01*
X23685599Y16959312D01*
X23683295Y16967909D01*
X23661034Y17050989D01*
X23654900Y17073883D01*
X23654898Y17073888D01*
X23595591Y17176610D01*
X23595590Y17176611D01*
X23595589Y17176613D01*
X23511713Y17260489D01*
X23511710Y17260491D01*
X23511709Y17260492D01*
X23408987Y17319799D01*
X23408982Y17319801D01*
X23294411Y17350500D01*
X23294409Y17350500D01*
X23175791Y17350500D01*
X23175789Y17350500D01*
X23061217Y17319801D01*
X23061212Y17319799D01*
X22958490Y17260492D01*
X22874608Y17176610D01*
X22815301Y17073888D01*
X22815299Y17073883D01*
X22784600Y16959312D01*
X19991200Y16959312D01*
X19991200Y16969711D01*
X19991199Y16969712D01*
X19983904Y16996936D01*
X19968202Y17055539D01*
X19960500Y17084283D01*
X19960498Y17084288D01*
X19901191Y17187010D01*
X19901190Y17187011D01*
X19901189Y17187013D01*
X19817313Y17270889D01*
X19817310Y17270891D01*
X19817309Y17270892D01*
X19714587Y17330199D01*
X19714582Y17330201D01*
X19600011Y17360900D01*
X19600009Y17360900D01*
X19481391Y17360900D01*
X19481389Y17360900D01*
X19366817Y17330201D01*
X19366808Y17330197D01*
X19345499Y17317894D01*
X19289346Y17310502D01*
X19244414Y17344981D01*
X19234500Y17381980D01*
X19234500Y18791452D01*
X19234501Y18791461D01*
X19234501Y18899728D01*
X19206433Y18967489D01*
X19196365Y18991794D01*
X19196364Y18991796D01*
X19196364Y18991797D01*
X19125897Y19062264D01*
X19125896Y19062265D01*
X19121682Y19066479D01*
X19121675Y19066485D01*
X18734107Y19454053D01*
X18712433Y19506379D01*
X18712600Y19508911D01*
X18712600Y19631111D01*
X18712599Y19631112D01*
X18706891Y19652413D01*
X18697249Y19688398D01*
X18681900Y19745683D01*
X18681898Y19745688D01*
X18622591Y19848410D01*
X18622590Y19848411D01*
X18622589Y19848413D01*
X18596826Y19874176D01*
X18575153Y19926500D01*
X18596827Y19978826D01*
X18649153Y20000500D01*
X18890927Y20000500D01*
X18890928Y20000500D01*
X18982997Y20038636D01*
X19614764Y20670403D01*
X19652900Y20762472D01*
X19652900Y20862128D01*
X19652900Y23424252D01*
X19652901Y23424261D01*
X19652901Y23532529D01*
X19632860Y23580910D01*
X19620573Y23610572D01*
X19614764Y23624597D01*
X19612272Y23627089D01*
X19607805Y23636166D01*
X19607179Y23645836D01*
X19600200Y23668842D01*
X19600200Y23709837D01*
X19600199Y23709838D01*
X19574611Y23805335D01*
X19574609Y23805340D01*
X19548141Y23851183D01*
X19525175Y23890962D01*
X19455262Y23960875D01*
X19429079Y23975992D01*
X19369639Y24010310D01*
X19369634Y24010312D01*
X19274137Y24035900D01*
X19274135Y24035900D01*
X19175265Y24035900D01*
X19175263Y24035900D01*
X19079765Y24010312D01*
X19079760Y24010310D01*
X18994137Y23960875D01*
X18924225Y23890963D01*
X18874790Y23805340D01*
X18874788Y23805335D01*
X18849200Y23709838D01*
X18849200Y23610963D01*
X18874788Y23515466D01*
X18874790Y23515461D01*
X18910044Y23454400D01*
X18924225Y23429838D01*
X18994138Y23359925D01*
X19079762Y23310490D01*
X19097053Y23305857D01*
X19141986Y23271379D01*
X19151900Y23234379D01*
X19151900Y21388049D01*
X19130226Y21335723D01*
X19077900Y21314049D01*
X19025574Y21335723D01*
X19013814Y21351049D01*
X18986056Y21399127D01*
X18960515Y21443365D01*
X18853365Y21550515D01*
X18839173Y21558709D01*
X18722139Y21626279D01*
X18722130Y21626283D01*
X18575768Y21665500D01*
X18575766Y21665500D01*
X18424234Y21665500D01*
X18424232Y21665500D01*
X18277869Y21626283D01*
X18277860Y21626279D01*
X18146637Y21550517D01*
X18039483Y21443363D01*
X17963721Y21312140D01*
X17963717Y21312131D01*
X17924500Y21165769D01*
X17924500Y21014232D01*
X17963717Y20867870D01*
X17963721Y20867861D01*
X18039095Y20737310D01*
X18039485Y20736635D01*
X18146635Y20629485D01*
X18146637Y20629484D01*
X18148295Y20627826D01*
X18169969Y20575500D01*
X18148295Y20523174D01*
X18095969Y20501500D01*
X18082372Y20501500D01*
X17990305Y20463366D01*
X17296834Y19769895D01*
X17258700Y19677830D01*
X17258700Y15867113D01*
X17237026Y15814787D01*
X16879826Y15457587D01*
X16827500Y15435913D01*
X16775174Y15457587D01*
X16753500Y15509913D01*
X16753500Y23576089D01*
X16775173Y23628414D01*
X18060052Y24913294D01*
X18112377Y24934967D01*
X18114914Y24934800D01*
X18118491Y24934800D01*
X18237111Y24934800D01*
X18237111Y24934801D01*
X18351686Y24965501D01*
X18454413Y25024811D01*
X18538289Y25108687D01*
X18597599Y25211414D01*
X18628299Y25325989D01*
X18628300Y25325989D01*
X18628300Y25444611D01*
X18628299Y25444612D01*
X18626021Y25453112D01*
X18597599Y25559186D01*
X18592693Y25567683D01*
X18538291Y25661910D01*
X18538290Y25661911D01*
X18538289Y25661913D01*
X18454413Y25745789D01*
X18454410Y25745791D01*
X18454409Y25745792D01*
X18351687Y25805099D01*
X18351682Y25805101D01*
X18237111Y25835800D01*
X18237109Y25835800D01*
X18118491Y25835800D01*
X18118489Y25835800D01*
X18003917Y25805101D01*
X18003912Y25805099D01*
X17901190Y25745792D01*
X17817308Y25661910D01*
X17758001Y25559188D01*
X17757999Y25559183D01*
X17727300Y25444612D01*
X17727300Y25321141D01*
X17724583Y25321141D01*
X17712174Y25274831D01*
X17705792Y25267554D01*
X16290637Y23852399D01*
X16290634Y23852395D01*
X16252500Y23760330D01*
X16252500Y20704953D01*
X16230826Y20652627D01*
X16178500Y20630953D01*
X16126175Y20652627D01*
X16117113Y20661689D01*
X16117110Y20661691D01*
X16117109Y20661692D01*
X16014387Y20720999D01*
X16014382Y20721001D01*
X15899811Y20751700D01*
X15899809Y20751700D01*
X15781191Y20751700D01*
X15781189Y20751700D01*
X15666617Y20721001D01*
X15666612Y20720999D01*
X15563890Y20661692D01*
X15480008Y20577810D01*
X15420701Y20475088D01*
X15420699Y20475083D01*
X15390000Y20360512D01*
X15390000Y20241889D01*
X15420699Y20127318D01*
X15420701Y20127313D01*
X15480008Y20024591D01*
X15480009Y20024590D01*
X15480011Y20024587D01*
X15563887Y19940711D01*
X15563889Y19940710D01*
X15563890Y19940709D01*
X15659178Y19885694D01*
X15666614Y19881401D01*
X15666615Y19881401D01*
X15666617Y19881400D01*
X15693585Y19874174D01*
X15781188Y19850701D01*
X15781189Y19850700D01*
X15781191Y19850700D01*
X15899811Y19850700D01*
X15899811Y19850701D01*
X16014386Y19881401D01*
X16117113Y19940711D01*
X16126175Y19949774D01*
X16178500Y19971447D01*
X16230826Y19949773D01*
X16252500Y19897447D01*
X16252500Y16965100D01*
X16230826Y16912774D01*
X16178500Y16891100D01*
X16126174Y16912774D01*
X16114414Y16928100D01*
X16091891Y16967110D01*
X16091890Y16967111D01*
X16091889Y16967113D01*
X16008013Y17050989D01*
X16008010Y17050991D01*
X16008009Y17050992D01*
X15905287Y17110299D01*
X15905282Y17110301D01*
X15790711Y17141000D01*
X15790709Y17141000D01*
X15672091Y17141000D01*
X15672089Y17141000D01*
X15557517Y17110301D01*
X15557512Y17110299D01*
X15454790Y17050992D01*
X15370908Y16967110D01*
X15311601Y16864388D01*
X15311599Y16864383D01*
X15280900Y16749812D01*
X15280900Y16631189D01*
X15311599Y16516618D01*
X15311601Y16516613D01*
X15370908Y16413891D01*
X15370909Y16413890D01*
X15370911Y16413887D01*
X15454787Y16330011D01*
X15454789Y16330010D01*
X15454790Y16330009D01*
X15557512Y16270702D01*
X15557514Y16270701D01*
X15557515Y16270701D01*
X15557517Y16270700D01*
X15577995Y16265213D01*
X15672088Y16240001D01*
X15672089Y16240000D01*
X15672091Y16240000D01*
X15790711Y16240000D01*
X15790711Y16240001D01*
X15905286Y16270701D01*
X16008013Y16330011D01*
X16091889Y16413887D01*
X16114414Y16452901D01*
X16159347Y16487379D01*
X16215500Y16479987D01*
X16249978Y16435054D01*
X16252500Y16415901D01*
X16252500Y15366414D01*
X16230826Y15314088D01*
X15407837Y14491099D01*
X15407834Y14491095D01*
X15369700Y14399030D01*
X15369700Y14227859D01*
X15348026Y14175532D01*
X15295701Y14153858D01*
X15295700Y14153859D01*
X15295700Y14153858D01*
X15243374Y14175532D01*
X15241170Y14177736D01*
X15177736Y14241170D01*
X15177734Y14241171D01*
X14682919Y14735986D01*
X14661245Y14788312D01*
X14682919Y14840638D01*
X14716089Y14859790D01*
X14772486Y14874901D01*
X14875213Y14934211D01*
X14959089Y15018087D01*
X15018399Y15120814D01*
X15049099Y15235389D01*
X15049100Y15235389D01*
X15049100Y15354011D01*
X15049099Y15354012D01*
X15018400Y15468583D01*
X15018398Y15468588D01*
X14959091Y15571310D01*
X14959090Y15571311D01*
X14959089Y15571313D01*
X14875213Y15655189D01*
X14875210Y15655191D01*
X14781199Y15709469D01*
X14746721Y15754403D01*
X14744200Y15773555D01*
X14744200Y17074507D01*
X14765874Y17126833D01*
X14818200Y17148507D01*
X14855201Y17138592D01*
X14888609Y17119303D01*
X14888617Y17119300D01*
X14945902Y17103951D01*
X15003188Y17088601D01*
X15003189Y17088600D01*
X15003191Y17088600D01*
X15121811Y17088600D01*
X15121811Y17088601D01*
X15236386Y17119301D01*
X15339113Y17178611D01*
X15422989Y17262487D01*
X15482299Y17365214D01*
X15512999Y17479789D01*
X15513000Y17479789D01*
X15513000Y17598411D01*
X15512999Y17598412D01*
X15482300Y17712983D01*
X15482298Y17712988D01*
X15422991Y17815710D01*
X15422990Y17815711D01*
X15422989Y17815713D01*
X15339113Y17899589D01*
X15339110Y17899591D01*
X15339109Y17899592D01*
X15236387Y17958899D01*
X15236382Y17958901D01*
X15121811Y17989600D01*
X15121809Y17989600D01*
X15003191Y17989600D01*
X15003189Y17989600D01*
X14888617Y17958901D01*
X14888608Y17958897D01*
X14855199Y17939608D01*
X14836048Y17937087D01*
X14818200Y17929694D01*
X14808960Y17933522D01*
X14799047Y17932216D01*
X14783723Y17943975D01*
X14765874Y17951368D01*
X14762046Y17960608D01*
X14754114Y17966695D01*
X14744200Y18003694D01*
X14744200Y18149855D01*
X14765874Y18202181D01*
X14818200Y18223855D01*
X14855201Y18213940D01*
X14901509Y18187203D01*
X14901517Y18187200D01*
X14922077Y18181691D01*
X15016088Y18156501D01*
X15016089Y18156500D01*
X15016091Y18156500D01*
X15134711Y18156500D01*
X15134711Y18156501D01*
X15249286Y18187201D01*
X15352013Y18246511D01*
X15435889Y18330387D01*
X15495199Y18433114D01*
X15525899Y18547689D01*
X15525900Y18547689D01*
X15525900Y18666311D01*
X15525899Y18666312D01*
X15495200Y18780883D01*
X15495198Y18780888D01*
X15435891Y18883610D01*
X15435890Y18883611D01*
X15435889Y18883613D01*
X15352013Y18967489D01*
X15352010Y18967491D01*
X15352009Y18967492D01*
X15249287Y19026799D01*
X15249282Y19026801D01*
X15134711Y19057500D01*
X15134709Y19057500D01*
X15016091Y19057500D01*
X14982303Y19048447D01*
X14926150Y19055841D01*
X14891672Y19100774D01*
X14894783Y19148241D01*
X14915300Y19197772D01*
X14915300Y22768689D01*
X14936973Y22821014D01*
X15259452Y23143494D01*
X15311777Y23165167D01*
X15314314Y23165000D01*
X15317891Y23165000D01*
X15436511Y23165000D01*
X15436511Y23165001D01*
X15551086Y23195701D01*
X15653813Y23255011D01*
X15737689Y23338887D01*
X15796999Y23441614D01*
X15827699Y23556189D01*
X15827700Y23556189D01*
X15827700Y23674811D01*
X15827699Y23674812D01*
X15797000Y23789383D01*
X15796998Y23789388D01*
X15737691Y23892110D01*
X15737690Y23892111D01*
X15737689Y23892113D01*
X15653813Y23975989D01*
X15653810Y23975991D01*
X15653809Y23975992D01*
X15551087Y24035299D01*
X15551082Y24035301D01*
X15436511Y24066000D01*
X15436509Y24066000D01*
X15317891Y24066000D01*
X15317889Y24066000D01*
X15203317Y24035301D01*
X15203312Y24035299D01*
X15100590Y23975992D01*
X15016708Y23892110D01*
X14957401Y23789388D01*
X14957399Y23789383D01*
X14926700Y23674812D01*
X14926700Y23551341D01*
X14923983Y23551341D01*
X14911574Y23505031D01*
X14905192Y23497754D01*
X14766605Y23359168D01*
X14714279Y23337494D01*
X14661953Y23359168D01*
X14642801Y23392339D01*
X14619799Y23478186D01*
X14606910Y23500510D01*
X14560491Y23580910D01*
X14560490Y23580911D01*
X14560489Y23580913D01*
X14476613Y23664789D01*
X14476610Y23664791D01*
X14476609Y23664792D01*
X14373887Y23724099D01*
X14373882Y23724101D01*
X14259311Y23754800D01*
X14259309Y23754800D01*
X14140691Y23754800D01*
X14140689Y23754800D01*
X14026117Y23724101D01*
X14026112Y23724099D01*
X13923390Y23664792D01*
X13923387Y23664790D01*
X13923387Y23664789D01*
X13901824Y23643227D01*
X13849500Y23621553D01*
X13797174Y23643227D01*
X13775500Y23695553D01*
X13775500Y24326365D01*
X13781893Y24356453D01*
X13787132Y24368227D01*
X13791170Y24372264D01*
X13807061Y24410628D01*
X13821271Y24444935D01*
X13821652Y24445790D01*
X13822807Y24446887D01*
X13836933Y24468028D01*
X13841170Y24472264D01*
X13870897Y24544034D01*
X13873505Y24549650D01*
X13878787Y24559882D01*
X13891170Y24572264D01*
X13914271Y24628036D01*
X13920895Y24644029D01*
X13936932Y24668027D01*
X13941170Y24672264D01*
X13964147Y24727736D01*
X13975501Y24755146D01*
X13975501Y24784437D01*
X13977241Y24792318D01*
X13982716Y24800153D01*
X13987972Y24817478D01*
X13991165Y24822260D01*
X13991170Y24822264D01*
X14014147Y24877736D01*
X14020893Y24894023D01*
X14036316Y24917403D01*
X14036607Y24917702D01*
X14041170Y24922264D01*
X14041248Y24922455D01*
X14046182Y24927506D01*
X14061630Y24934122D01*
X14079970Y24947283D01*
X14179686Y24974001D01*
X14282413Y25033311D01*
X14366289Y25117187D01*
X14425599Y25219914D01*
X14456299Y25334489D01*
X14456300Y25334489D01*
X14456300Y25453111D01*
X14456299Y25453112D01*
X14425600Y25567683D01*
X14425598Y25567688D01*
X14366291Y25670410D01*
X14366290Y25670411D01*
X14366289Y25670413D01*
X14282413Y25754289D01*
X14282410Y25754291D01*
X14282409Y25754292D01*
X14179687Y25813599D01*
X14179682Y25813601D01*
X14065111Y25844300D01*
X14065109Y25844300D01*
X13946491Y25844300D01*
X13946489Y25844300D01*
X13831917Y25813601D01*
X13831912Y25813599D01*
X13729190Y25754292D01*
X13645308Y25670410D01*
X13586001Y25567688D01*
X13585999Y25567683D01*
X13574978Y25526550D01*
X13540500Y25481617D01*
X13484347Y25474225D01*
X13439414Y25508703D01*
X13429500Y25545703D01*
X13429500Y25779081D01*
X13451174Y25831407D01*
X13453082Y25833081D01*
X13455610Y25835610D01*
X13455613Y25835611D01*
X13539489Y25919487D01*
X13598799Y26022214D01*
X13629499Y26136789D01*
X13629500Y26136789D01*
X13629500Y26202612D01*
X16893700Y26202612D01*
X16893700Y26083989D01*
X16924399Y25969418D01*
X16924401Y25969413D01*
X16983708Y25866691D01*
X16983709Y25866690D01*
X16983711Y25866687D01*
X17067587Y25782811D01*
X17170314Y25723501D01*
X17170315Y25723501D01*
X17170317Y25723500D01*
X17227602Y25708151D01*
X17284888Y25692801D01*
X17284889Y25692800D01*
X17284891Y25692800D01*
X17403511Y25692800D01*
X17403511Y25692801D01*
X17518086Y25723501D01*
X17620813Y25782811D01*
X17704689Y25866687D01*
X17763999Y25969414D01*
X17794699Y26083989D01*
X17794700Y26083989D01*
X17794700Y26202611D01*
X17794699Y26202612D01*
X17764000Y26317183D01*
X17763998Y26317188D01*
X17704691Y26419910D01*
X17704690Y26419911D01*
X17704689Y26419913D01*
X17620813Y26503789D01*
X17620810Y26503791D01*
X17620809Y26503792D01*
X17518087Y26563099D01*
X17518082Y26563101D01*
X17403511Y26593800D01*
X17403509Y26593800D01*
X17284891Y26593800D01*
X17284889Y26593800D01*
X17170317Y26563101D01*
X17170312Y26563099D01*
X17067590Y26503792D01*
X16983708Y26419910D01*
X16924401Y26317188D01*
X16924399Y26317183D01*
X16893700Y26202612D01*
X13629500Y26202612D01*
X13629500Y26255411D01*
X13629499Y26255412D01*
X13598800Y26369983D01*
X13598798Y26369988D01*
X13539491Y26472710D01*
X13539490Y26472711D01*
X13539489Y26472713D01*
X13455613Y26556589D01*
X13455610Y26556591D01*
X13455609Y26556592D01*
X13352887Y26615899D01*
X13352882Y26615901D01*
X13238311Y26646600D01*
X13238309Y26646600D01*
X13119691Y26646600D01*
X13119689Y26646600D01*
X13005117Y26615901D01*
X13005112Y26615899D01*
X12902390Y26556592D01*
X12818508Y26472710D01*
X12759201Y26369988D01*
X12759199Y26369983D01*
X12728500Y26255412D01*
X12728500Y26136789D01*
X12759199Y26022218D01*
X12759201Y26022213D01*
X12818508Y25919491D01*
X12818509Y25919490D01*
X12818511Y25919487D01*
X12871307Y25866691D01*
X12905817Y25832181D01*
X12903893Y25830258D01*
X12927866Y25788751D01*
X12928500Y25779081D01*
X12928500Y15018771D01*
X12966634Y14926706D01*
X12966637Y14926702D01*
X14389226Y13504113D01*
X14410900Y13451787D01*
X14410900Y13293322D01*
X14389226Y13240996D01*
X14336900Y13219322D01*
X14299900Y13229236D01*
X14206087Y13283399D01*
X14206082Y13283401D01*
X14091511Y13314100D01*
X14091509Y13314100D01*
X13972891Y13314100D01*
X13972889Y13314100D01*
X13858317Y13283401D01*
X13858312Y13283399D01*
X13755590Y13224092D01*
X13668281Y13136783D01*
X13666357Y13138707D01*
X13624851Y13114734D01*
X13615181Y13114100D01*
X12371272Y13114100D01*
X12279205Y13075966D01*
X12017113Y12813874D01*
X11964787Y12792200D01*
X11066179Y12792200D01*
X11013853Y12813874D01*
X10992179Y12866200D01*
X11002094Y12903201D01*
X11014397Y12924511D01*
X11014399Y12924514D01*
X11045099Y13039089D01*
X11045100Y13039089D01*
X11045100Y13157711D01*
X11045099Y13157712D01*
X11014400Y13272283D01*
X11014398Y13272288D01*
X10955091Y13375010D01*
X10955090Y13375011D01*
X10955089Y13375013D01*
X10871213Y13458889D01*
X10871210Y13458891D01*
X10871209Y13458892D01*
X10768487Y13518199D01*
X10768482Y13518201D01*
X10653911Y13548900D01*
X10653909Y13548900D01*
X10586500Y13548900D01*
X10534174Y13570574D01*
X10512500Y13622900D01*
X10512500Y14759713D01*
X10518770Y14789523D01*
X10524025Y14801465D01*
X10528164Y14805603D01*
X10564862Y14894200D01*
X10566301Y14897673D01*
X10566301Y14997328D01*
X10566301Y15003286D01*
X10566300Y15003300D01*
X10566300Y15470856D01*
X10587974Y15523182D01*
X10640300Y15544856D01*
X10677298Y15534943D01*
X10752714Y15491401D01*
X10752716Y15491401D01*
X10752717Y15491400D01*
X10794453Y15480217D01*
X10867288Y15460701D01*
X10867289Y15460700D01*
X10867291Y15460700D01*
X10985911Y15460700D01*
X10985911Y15460701D01*
X11100486Y15491401D01*
X11203213Y15550711D01*
X11287089Y15634587D01*
X11346399Y15737314D01*
X11377099Y15851889D01*
X11377100Y15851889D01*
X11377100Y15970510D01*
X11369669Y15998240D01*
X11372780Y16045714D01*
X11380800Y16065072D01*
X11380800Y16164727D01*
X11380800Y19418581D01*
X11402474Y19470907D01*
X11404382Y19472581D01*
X11406910Y19475110D01*
X11406913Y19475111D01*
X11490789Y19558987D01*
X11550099Y19661714D01*
X11580799Y19776289D01*
X11580800Y19776289D01*
X11580800Y19894911D01*
X11580799Y19894912D01*
X11579972Y19897997D01*
X11550099Y20009486D01*
X11550098Y20009488D01*
X11490791Y20112210D01*
X11490790Y20112211D01*
X11490789Y20112213D01*
X11406913Y20196089D01*
X11406910Y20196091D01*
X11406909Y20196092D01*
X11304187Y20255399D01*
X11304182Y20255401D01*
X11189611Y20286100D01*
X11189609Y20286100D01*
X11070991Y20286100D01*
X11070989Y20286100D01*
X10956417Y20255401D01*
X10956412Y20255399D01*
X10917600Y20232990D01*
X10861447Y20225598D01*
X10816514Y20260076D01*
X10806600Y20297076D01*
X10806600Y21369028D01*
X10806599Y21369030D01*
X10794133Y21399127D01*
X10788500Y21427445D01*
X10788500Y23213747D01*
X10810174Y23266073D01*
X10813010Y23268910D01*
X10813013Y23268911D01*
X10896889Y23352787D01*
X10956199Y23455514D01*
X10986899Y23570089D01*
X10986900Y23570089D01*
X10986900Y23688711D01*
X10986899Y23688712D01*
X10956200Y23803283D01*
X10956198Y23803288D01*
X10896891Y23906010D01*
X10896890Y23906011D01*
X10896889Y23906013D01*
X10813013Y23989889D01*
X10813010Y23989891D01*
X10813009Y23989892D01*
X10710287Y24049199D01*
X10710282Y24049201D01*
X10595711Y24079900D01*
X10595709Y24079900D01*
X10477091Y24079900D01*
X10477089Y24079900D01*
X10362517Y24049201D01*
X10362512Y24049199D01*
X10259790Y23989892D01*
X10175908Y23906010D01*
X10116601Y23803288D01*
X10116599Y23803283D01*
X10085900Y23688712D01*
X10085900Y23570089D01*
X10116599Y23455518D01*
X10116601Y23455513D01*
X10175908Y23352791D01*
X10175909Y23352790D01*
X10175911Y23352787D01*
X10222840Y23305858D01*
X10263217Y23265481D01*
X10261857Y23264122D01*
X10286865Y23220830D01*
X10287500Y23211154D01*
X10287500Y21310057D01*
X10265826Y21257731D01*
X10213500Y21236057D01*
X10161174Y21257731D01*
X10047174Y21371731D01*
X10025500Y21424057D01*
X10025500Y21496525D01*
X10025501Y21496534D01*
X10025501Y21594854D01*
X9997317Y21662895D01*
X9996238Y21665500D01*
X9991170Y21677736D01*
X9988391Y21680515D01*
X9983488Y21690194D01*
X9982762Y21699695D01*
X9975501Y21723635D01*
X9975501Y21744855D01*
X9952994Y21799189D01*
X9952993Y21799192D01*
X9941170Y21827736D01*
X9877736Y21891170D01*
X9873521Y21895385D01*
X9873514Y21895391D01*
X8951578Y22817327D01*
X8951578Y22817328D01*
X8880074Y22888832D01*
X8858400Y22941158D01*
X8858400Y23063211D01*
X8858399Y23063212D01*
X8827700Y23177783D01*
X8827698Y23177788D01*
X8785395Y23251059D01*
X8768391Y23280510D01*
X8768390Y23280511D01*
X8768389Y23280513D01*
X8765690Y23283212D01*
X8985400Y23283212D01*
X8985400Y23164589D01*
X9016099Y23050018D01*
X9016101Y23050013D01*
X9075408Y22947291D01*
X9075409Y22947290D01*
X9075411Y22947287D01*
X9159287Y22863411D01*
X9159289Y22863410D01*
X9159290Y22863409D01*
X9239104Y22817328D01*
X9262014Y22804101D01*
X9262015Y22804101D01*
X9262017Y22804100D01*
X9279782Y22799340D01*
X9376588Y22773401D01*
X9376589Y22773400D01*
X9376591Y22773400D01*
X9495211Y22773400D01*
X9495211Y22773401D01*
X9609786Y22804101D01*
X9712513Y22863411D01*
X9796389Y22947287D01*
X9855699Y23050014D01*
X9886399Y23164589D01*
X9886400Y23164589D01*
X9886400Y23283211D01*
X9886399Y23283212D01*
X9855700Y23397783D01*
X9855698Y23397788D01*
X9796391Y23500510D01*
X9796390Y23500511D01*
X9796389Y23500513D01*
X9712513Y23584389D01*
X9712510Y23584391D01*
X9712509Y23584392D01*
X9609787Y23643699D01*
X9609782Y23643701D01*
X9495211Y23674400D01*
X9495209Y23674400D01*
X9376591Y23674400D01*
X9376589Y23674400D01*
X9262017Y23643701D01*
X9262012Y23643699D01*
X9159290Y23584392D01*
X9075408Y23500510D01*
X9016101Y23397788D01*
X9016099Y23397783D01*
X8985400Y23283212D01*
X8765690Y23283212D01*
X8684513Y23364389D01*
X8684510Y23364391D01*
X8684509Y23364392D01*
X8581787Y23423699D01*
X8581782Y23423701D01*
X8467211Y23454400D01*
X8467209Y23454400D01*
X8348591Y23454400D01*
X8348590Y23454400D01*
X8313554Y23445013D01*
X8257402Y23452407D01*
X8222924Y23497341D01*
X8230318Y23553493D01*
X8242071Y23568811D01*
X9371764Y24698503D01*
X9409900Y24790572D01*
X9409900Y24890228D01*
X9409900Y27382981D01*
X9431574Y27435307D01*
X9433482Y27436981D01*
X9436010Y27439510D01*
X9436013Y27439511D01*
X9519889Y27523387D01*
X9563552Y27599012D01*
X20517900Y27599012D01*
X20517900Y27480389D01*
X20548599Y27365818D01*
X20548601Y27365813D01*
X20607908Y27263091D01*
X20607909Y27263090D01*
X20607911Y27263087D01*
X20691787Y27179211D01*
X20794514Y27119901D01*
X20794515Y27119901D01*
X20794517Y27119900D01*
X20851802Y27104551D01*
X20909088Y27089201D01*
X20909089Y27089200D01*
X20909091Y27089200D01*
X21027711Y27089200D01*
X21027711Y27089201D01*
X21142286Y27119901D01*
X21245013Y27179211D01*
X21328889Y27263087D01*
X21388199Y27365814D01*
X21418899Y27480389D01*
X21418900Y27480389D01*
X21418900Y27603859D01*
X21421625Y27603859D01*
X21434004Y27650144D01*
X21440398Y27657440D01*
X21610786Y27827826D01*
X21663112Y27849500D01*
X22725187Y27849500D01*
X22777513Y27827826D01*
X22955195Y27650144D01*
X23127792Y27477548D01*
X23149466Y27425222D01*
X23149300Y27422686D01*
X23149300Y27300489D01*
X23179999Y27185918D01*
X23180001Y27185913D01*
X23239308Y27083191D01*
X23239309Y27083190D01*
X23239311Y27083187D01*
X23323187Y26999311D01*
X23425914Y26940001D01*
X23425915Y26940001D01*
X23425917Y26940000D01*
X23483202Y26924651D01*
X23540488Y26909301D01*
X23540489Y26909300D01*
X23540491Y26909300D01*
X23659111Y26909300D01*
X23659111Y26909301D01*
X23773686Y26940001D01*
X23876413Y26999311D01*
X23960289Y27083187D01*
X24019599Y27185914D01*
X24050299Y27300489D01*
X24050300Y27300489D01*
X24050300Y27419111D01*
X24050299Y27419112D01*
X24049341Y27422686D01*
X24019599Y27533686D01*
X24019598Y27533688D01*
X23960291Y27636410D01*
X23960290Y27636411D01*
X23960289Y27636413D01*
X23876413Y27720289D01*
X23876410Y27720291D01*
X23876409Y27720292D01*
X23773687Y27779599D01*
X23773682Y27779601D01*
X23659111Y27810300D01*
X23659109Y27810300D01*
X23540491Y27810300D01*
X23535641Y27810300D01*
X23535641Y27813013D01*
X23489317Y27825436D01*
X23482052Y27831808D01*
X23246306Y28067554D01*
X23001497Y28312364D01*
X23001494Y28312366D01*
X22909428Y28350500D01*
X22220328Y28350500D01*
X22168002Y28372174D01*
X22146328Y28424500D01*
X22156242Y28461500D01*
X22170798Y28486712D01*
X22170800Y28486718D01*
X22201499Y28601289D01*
X22201500Y28601289D01*
X22201500Y28719911D01*
X22201499Y28719912D01*
X22170800Y28834483D01*
X22170798Y28834488D01*
X22111491Y28937210D01*
X22111490Y28937211D01*
X22111489Y28937213D01*
X22027613Y29021089D01*
X22027610Y29021091D01*
X22027609Y29021092D01*
X21924887Y29080399D01*
X21924882Y29080401D01*
X21810311Y29111100D01*
X21810309Y29111100D01*
X21691691Y29111100D01*
X21691689Y29111100D01*
X21577117Y29080401D01*
X21577112Y29080399D01*
X21474390Y29021092D01*
X21390508Y28937210D01*
X21331201Y28834488D01*
X21331199Y28834483D01*
X21300500Y28719912D01*
X21300500Y28601289D01*
X21331199Y28486718D01*
X21331201Y28486713D01*
X21386978Y28390106D01*
X21389499Y28370953D01*
X21396892Y28353107D01*
X21393065Y28343870D01*
X21394371Y28333954D01*
X21375218Y28300781D01*
X21316336Y28241898D01*
X21316336Y28241897D01*
X21316335Y28241896D01*
X21086146Y28011708D01*
X21033820Y27990034D01*
X21031287Y27990200D01*
X21027709Y27990200D01*
X20909091Y27990200D01*
X20909089Y27990200D01*
X20794517Y27959501D01*
X20794512Y27959499D01*
X20691790Y27900192D01*
X20607908Y27816310D01*
X20548601Y27713588D01*
X20548599Y27713583D01*
X20517900Y27599012D01*
X9563552Y27599012D01*
X9579199Y27626114D01*
X9609899Y27740689D01*
X9609900Y27740689D01*
X9609900Y27859311D01*
X9609899Y27859312D01*
X9579200Y27973883D01*
X9579198Y27973888D01*
X9519891Y28076610D01*
X9519890Y28076611D01*
X9519889Y28076613D01*
X9436013Y28160489D01*
X9436010Y28160491D01*
X9436009Y28160492D01*
X9333287Y28219799D01*
X9333282Y28219801D01*
X9218711Y28250500D01*
X9218709Y28250500D01*
X9100091Y28250500D01*
X9100089Y28250500D01*
X8985517Y28219801D01*
X8985512Y28219799D01*
X8882790Y28160492D01*
X8798908Y28076610D01*
X8739601Y27973888D01*
X8739599Y27973883D01*
X8708900Y27859312D01*
X8708900Y27740689D01*
X8739599Y27626118D01*
X8739601Y27626113D01*
X8798908Y27523391D01*
X8798909Y27523390D01*
X8798911Y27523387D01*
X8844750Y27477548D01*
X8886217Y27436081D01*
X8884293Y27434158D01*
X8908266Y27392651D01*
X8908900Y27382981D01*
X8908900Y24974814D01*
X8887226Y24922488D01*
X5646946Y21682209D01*
X5646874Y21682180D01*
X5646844Y21682107D01*
X5646051Y21681839D01*
X5594620Y21660535D01*
X5594475Y21660535D01*
X5589085Y21660546D01*
X5588509Y21660700D01*
X5510020Y21660700D01*
X5483810Y21671617D01*
X5457839Y21682374D01*
X5457809Y21682446D01*
X5457737Y21682476D01*
X5446978Y21708593D01*
X5436165Y21734700D01*
X5436179Y21734810D01*
X5436165Y21734845D01*
X5436192Y21734913D01*
X5438687Y21753853D01*
X5450835Y21799189D01*
X5467099Y21859889D01*
X5467100Y21859889D01*
X5467100Y21978511D01*
X5467099Y21978512D01*
X5436400Y22093083D01*
X5436398Y22093088D01*
X5377091Y22195810D01*
X5377090Y22195811D01*
X5377089Y22195813D01*
X5293213Y22279689D01*
X5293210Y22279691D01*
X5293209Y22279692D01*
X5190487Y22338999D01*
X5190482Y22339001D01*
X5075911Y22369700D01*
X5075909Y22369700D01*
X4957291Y22369700D01*
X4957289Y22369700D01*
X4842717Y22339001D01*
X4842712Y22338999D01*
X4739990Y22279692D01*
X4656108Y22195810D01*
X4596801Y22093088D01*
X4596799Y22093083D01*
X4566100Y21978512D01*
X4566100Y21859889D01*
X4596799Y21745318D01*
X4596801Y21745313D01*
X4656108Y21642591D01*
X4656109Y21642590D01*
X4656111Y21642587D01*
X4739987Y21558711D01*
X4739989Y21558710D01*
X4739990Y21558709D01*
X4842712Y21499402D01*
X4842714Y21499401D01*
X4842715Y21499401D01*
X4842717Y21499400D01*
X4853447Y21496525D01*
X4957288Y21468701D01*
X4957289Y21468700D01*
X5035635Y21468700D01*
X5087961Y21447026D01*
X5109635Y21394700D01*
X5107113Y21375547D01*
X5078700Y21269512D01*
X5078700Y21146041D01*
X5075998Y21146041D01*
X5063538Y21099685D01*
X5057191Y21092454D01*
X3203603Y19238864D01*
X3133134Y19168395D01*
X3095000Y19076330D01*
X3095000Y15272519D01*
X3073326Y15220193D01*
X3071417Y15218520D01*
X2985008Y15132110D01*
X2925701Y15029388D01*
X2925699Y15029383D01*
X2895000Y14914812D01*
X1434000Y14914812D01*
X1434000Y22425988D01*
X1455673Y22478313D01*
X2866153Y23888794D01*
X2918478Y23910467D01*
X2918479Y23910467D01*
X2923967Y23910467D01*
X2924591Y23910300D01*
X3043209Y23910300D01*
X3043828Y23910467D01*
X3049322Y23910466D01*
X3071345Y23901344D01*
X3094370Y23895174D01*
X3101647Y23888792D01*
X3624802Y23365637D01*
X3624805Y23365635D01*
X3640418Y23359168D01*
X3716872Y23327500D01*
X3816527Y23327500D01*
X4220381Y23327500D01*
X4272707Y23305826D01*
X4274380Y23303918D01*
X4276910Y23301388D01*
X4276911Y23301387D01*
X4360787Y23217511D01*
X4360789Y23217510D01*
X4360790Y23217509D01*
X4459558Y23160485D01*
X4463514Y23158201D01*
X4463515Y23158201D01*
X4463517Y23158200D01*
X4501737Y23147959D01*
X4578088Y23127501D01*
X4578089Y23127500D01*
X4578091Y23127500D01*
X4696711Y23127500D01*
X4696711Y23127501D01*
X4811286Y23158201D01*
X4914013Y23217511D01*
X4997889Y23301387D01*
X5057199Y23404114D01*
X5087899Y23518689D01*
X5087900Y23518689D01*
X5087900Y23637311D01*
X5087899Y23637312D01*
X5086670Y23641897D01*
X5064644Y23724101D01*
X5057200Y23751883D01*
X5057198Y23751888D01*
X4997891Y23854610D01*
X4997890Y23854611D01*
X4997889Y23854613D01*
X4914013Y23938489D01*
X4914010Y23938491D01*
X4914009Y23938492D01*
X4811287Y23997799D01*
X4811282Y23997801D01*
X4696711Y24028500D01*
X4696709Y24028500D01*
X4578091Y24028500D01*
X4578089Y24028500D01*
X4463517Y23997801D01*
X4463512Y23997799D01*
X4360790Y23938492D01*
X4273481Y23851183D01*
X4271557Y23853107D01*
X4230051Y23829134D01*
X4220381Y23828500D01*
X3901113Y23828500D01*
X3848787Y23850174D01*
X3455908Y24243053D01*
X3434234Y24295379D01*
X3434400Y24297912D01*
X3434400Y24420111D01*
X3434399Y24420112D01*
X3424623Y24456595D01*
X3403699Y24534686D01*
X3397828Y24544855D01*
X3344391Y24637410D01*
X3344390Y24637411D01*
X3344389Y24637413D01*
X3260513Y24721289D01*
X3260510Y24721291D01*
X3260509Y24721292D01*
X3157787Y24780599D01*
X3157782Y24780601D01*
X3043211Y24811300D01*
X3043209Y24811300D01*
X2924591Y24811300D01*
X2924589Y24811300D01*
X2810017Y24780601D01*
X2810012Y24780599D01*
X2707290Y24721292D01*
X2623408Y24637410D01*
X2564101Y24534688D01*
X2564099Y24534683D01*
X2533400Y24420112D01*
X2533400Y24296641D01*
X2530698Y24296641D01*
X2518238Y24250285D01*
X2511891Y24243054D01*
X1041603Y22772764D01*
X971134Y22702295D01*
X933000Y22610230D01*
X250500Y22610230D01*
X250500Y30109107D01*
X272174Y30161433D01*
X324500Y30183107D01*
X376826Y30161433D01*
X394573Y30132893D01*
X412614Y30079745D01*
X612211Y29675003D01*
X612217Y29674992D01*
X861812Y29301447D01*
X862930Y29299774D01*
X1160481Y28960482D01*
X1499773Y28662931D01*
X1592024Y28601291D01*
X1874990Y28412219D01*
X1874995Y28412216D01*
X1875000Y28412213D01*
X2279742Y28212616D01*
X2707074Y28067556D01*
X2707078Y28067556D01*
X2707082Y28067554D01*
X2928379Y28023536D01*
X3149684Y27979516D01*
X3600000Y27950000D01*
X4050315Y27979516D01*
X4379319Y28044959D01*
X4492916Y28067554D01*
X4492917Y28067555D01*
X4492925Y28067556D01*
X4920257Y28212616D01*
X5324999Y28412213D01*
X5700226Y28662931D01*
X6039518Y28960482D01*
X6337069Y29299774D01*
X6587787Y29675001D01*
X6787384Y30079743D01*
X6907744Y30434312D01*
X8724500Y30434312D01*
X8724500Y30315689D01*
X8755199Y30201118D01*
X8755201Y30201113D01*
X8814508Y30098391D01*
X8814509Y30098390D01*
X8814511Y30098387D01*
X8898387Y30014511D01*
X9001114Y29955201D01*
X9001115Y29955201D01*
X9001117Y29955200D01*
X9058402Y29939851D01*
X9115688Y29924501D01*
X9115689Y29924500D01*
X9115691Y29924500D01*
X9234311Y29924500D01*
X9234311Y29924501D01*
X9348886Y29955201D01*
X9451613Y30014511D01*
X9535489Y30098387D01*
X9594799Y30201114D01*
X9625499Y30315689D01*
X9625500Y30315689D01*
X9625500Y30434311D01*
X9625499Y30434312D01*
X9604896Y30511206D01*
X9601063Y30525512D01*
X22549500Y30525512D01*
X22549500Y30406889D01*
X22580199Y30292318D01*
X22580201Y30292313D01*
X22639508Y30189591D01*
X22639509Y30189590D01*
X22639511Y30189587D01*
X22723387Y30105711D01*
X22826114Y30046401D01*
X22826115Y30046401D01*
X22826117Y30046400D01*
X22883402Y30031051D01*
X22940688Y30015701D01*
X22940689Y30015700D01*
X22940691Y30015700D01*
X23059311Y30015700D01*
X23059311Y30015701D01*
X23173886Y30046401D01*
X23276613Y30105711D01*
X23360489Y30189587D01*
X23419799Y30292314D01*
X23450499Y30406889D01*
X23450500Y30406889D01*
X23450500Y30525511D01*
X23450499Y30525512D01*
X23444235Y30548888D01*
X23419799Y30640086D01*
X23360489Y30742813D01*
X23276613Y30826689D01*
X23276610Y30826691D01*
X23276609Y30826692D01*
X23173887Y30885999D01*
X23173882Y30886001D01*
X23059311Y30916700D01*
X23059309Y30916700D01*
X22940691Y30916700D01*
X22940689Y30916700D01*
X22826117Y30886001D01*
X22826112Y30885999D01*
X22723390Y30826692D01*
X22639508Y30742810D01*
X22580201Y30640088D01*
X22580199Y30640083D01*
X22549500Y30525512D01*
X9601063Y30525512D01*
X9594800Y30548883D01*
X9594798Y30548888D01*
X9535491Y30651610D01*
X9535490Y30651611D01*
X9535489Y30651613D01*
X9451613Y30735489D01*
X9451610Y30735491D01*
X9451609Y30735492D01*
X9348887Y30794799D01*
X9348882Y30794801D01*
X9234311Y30825500D01*
X9234309Y30825500D01*
X9115691Y30825500D01*
X9115689Y30825500D01*
X9001117Y30794801D01*
X9001112Y30794799D01*
X8898390Y30735492D01*
X8814508Y30651610D01*
X8755201Y30548888D01*
X8755199Y30548883D01*
X8724500Y30434312D01*
X6907744Y30434312D01*
X6932444Y30507075D01*
X7020484Y30949685D01*
X7050000Y31400000D01*
X7020484Y31850316D01*
X6932444Y32292926D01*
X6787384Y32720258D01*
X6587787Y33125001D01*
X6587784Y33125006D01*
X6587781Y33125011D01*
X6337070Y33500225D01*
X6337069Y33500227D01*
X6039518Y33839519D01*
X5700226Y34137070D01*
X5698553Y34138188D01*
X5325008Y34387783D01*
X5324997Y34387789D01*
X4920255Y34587386D01*
X4867107Y34605427D01*
X4824524Y34642771D01*
X4820820Y34699286D01*
X4858164Y34741869D01*
X4890893Y34749500D01*
X24675500Y34749500D01*
X24727826Y34727826D01*
G37*
%TD.AperFunction*%
%TD*%
M02*
