%TF.GenerationSoftware,KiCad,Pcbnew,9.0.8+dfsg-1*%
%TF.CreationDate,2026-09-09T07:19:00+05:30*%
%TF.ProjectId,smove-r2-main,736d6f76-652d-4723-922d-6d61696e2e6b,rev?*%
%TF.SameCoordinates,Original*%
%TF.FileFunction,Copper,L3,Inr*%
%TF.FilePolarity,Positive*%
%FSLAX46Y46*%
G04 Gerber Fmt 4.6, Leading zero omitted, Abs format (unit mm)*
G04 Created by KiCad (PCBNEW 9.0.8+dfsg-1) date 2026-09-09 07:19:00*
%MOMM*%
%LPD*%
G01*
G04 APERTURE LIST*
%TA.AperFunction,HeatsinkPad*%
%ADD10O,2.100000X1.000000*%
%TD*%
%TA.AperFunction,HeatsinkPad*%
%ADD11O,1.600000X1.000000*%
%TD*%
%TA.AperFunction,ComponentPad*%
%ADD12C,2.000000*%
%TD*%
%TA.AperFunction,ViaPad*%
%ADD13C,0.450000*%
%TD*%
%TA.AperFunction,ViaPad*%
%ADD14C,0.600000*%
%TD*%
%TA.AperFunction,Conductor*%
%ADD15C,0.200000*%
%TD*%
%TA.AperFunction,Conductor*%
%ADD16C,0.150000*%
%TD*%
G04 APERTURE END LIST*
D10*
%TO.N,GND*%
%TO.C,J1*%
X17970000Y13880000D03*
D11*
X22150000Y13880000D03*
D10*
X17970000Y22520000D03*
D11*
X22150000Y22520000D03*
%TD*%
D12*
%TO.N,/Power/PACK_P*%
%TO.C,J2*%
X20030000Y8500000D03*
%TO.N,GND*%
X22570000Y8500000D03*
%TD*%
D13*
%TO.N,/3V3_MAIN*%
X7500000Y17850000D03*
D14*
X12187000Y10293000D03*
D13*
X16000000Y12700000D03*
D14*
X1286300Y17090000D03*
D13*
X4900000Y19100000D03*
X22300000Y26200000D03*
D14*
%TO.N,/BAT_ADC*%
X9435900Y23223900D03*
X5016600Y21919200D03*
%TO.N,/USB/CC1*%
X8329700Y13224000D03*
X18259700Y16737800D03*
X15858700Y13383000D03*
X14206100Y12661600D03*
%TO.N,/USB/CC2*%
X15856400Y19993500D03*
X10184400Y12665300D03*
X14731600Y11190000D03*
D13*
%TO.N,/Power/CHG_ILIM*%
X4800000Y8900000D03*
X1500000Y6400000D03*
D14*
%TO.N,/Compute/LED_B*%
X20097900Y18283100D03*
X12600000Y23639200D03*
%TO.N,/Compute/LED_G*%
X18205100Y9738000D03*
X16550000Y25362100D03*
%TO.N,/Compute/LED_R*%
X15546000Y25410700D03*
X16531500Y8990000D03*
D13*
%TO.N,/Compute/MCU_EN*%
X7800000Y20200000D03*
D14*
X7352000Y27263200D03*
X7776700Y11035300D03*
X3596300Y14434700D03*
%TO.N,/Power/PACK_P*%
X9763100Y7650700D03*
X583600Y8106600D03*
X5584000Y20456400D03*
D13*
X6400000Y6400000D03*
D14*
%TO.N,/Compute/STRAP2*%
X23000000Y30466200D03*
X9175000Y30375000D03*
%TO.N,/Compute/STRAP8*%
X17344200Y26143300D03*
X9248900Y21438700D03*
%TO.N,/Power/SYS*%
X1975000Y21354100D03*
X6245000Y7304000D03*
X4934400Y23784000D03*
%TO.N,/Power/TS_NO_CELL_SENSING*%
X2291500Y11333300D03*
X1326600Y9553100D03*
%TO.N,/USB_DM*%
X19540700Y16910400D03*
X18403500Y18458300D03*
%TO.N,/Compute/USB_DP_MCU*%
X20968400Y27539700D03*
X23599800Y27359800D03*
D13*
%TO.N,/USB_POWER_N*%
X4000000Y5750000D03*
X12150000Y9400000D03*
X14050000Y13500000D03*
X11150000Y20250000D03*
X12150000Y7150000D03*
X10200000Y23750000D03*
D14*
%TO.N,/VBUS*%
X15824800Y20821800D03*
X6339500Y10669200D03*
X15581400Y16435200D03*
D13*
%TO.N,GND*%
X10000000Y6250000D03*
D14*
X11800000Y33434800D03*
D13*
X12650000Y8800000D03*
X11000000Y6350000D03*
X2750000Y16750000D03*
X803900Y24354900D03*
X15750000Y21750000D03*
X21250000Y23250000D03*
X10200000Y9600000D03*
D14*
%TO.N,/IMU/1V8_IMU*%
X10525300Y19066700D03*
X5133700Y16590700D03*
D13*
X11050000Y16000000D03*
D14*
X5461400Y8217400D03*
X15241200Y17700000D03*
X3840700Y21147000D03*
X9802400Y9038600D03*
D13*
X10300000Y18250000D03*
D14*
%TO.N,/IMU/SCL_1V8*%
X11398300Y12244100D03*
X15254000Y18577600D03*
%TO.N,/IMU/SDA_1V8*%
X6231500Y13381400D03*
X14000000Y19762800D03*
%TO.N,/SCL_HOST*%
X5477400Y13052600D03*
X14200000Y23304300D03*
X9624000Y20731200D03*
%TO.N,/SDA_HOST*%
X15377200Y23615500D03*
X14598600Y15294700D03*
X4712900Y13075000D03*
%TO.N,Net-(U1-GPIO9_{slash}_BOOT)*%
X21789800Y28684400D03*
X18200000Y27200600D03*
X8908000Y8904200D03*
%TD*%
D15*
%TO.N,/3V3_MAIN*%
X20100000Y16800000D02*
X20100000Y16700000D01*
X7150000Y18650000D02*
X7200000Y18650000D01*
X7450000Y18550000D02*
X7500000Y18500000D01*
X20700000Y24250000D02*
X20700000Y18150000D01*
X6600000Y18900000D02*
X6650000Y18900000D01*
X16400000Y13100000D02*
X16000000Y12700000D01*
X19250000Y13600000D02*
X19250000Y13550000D01*
X6800000Y18800000D02*
X6850000Y18800000D01*
X19200000Y13500000D02*
X19200000Y13450000D01*
X20100000Y16700000D02*
X20050000Y16650000D01*
X20650000Y18050000D02*
X20600000Y18000000D01*
X6250000Y19050000D02*
X6300000Y19050000D01*
X6650000Y18900000D02*
X6700000Y18850000D01*
X6900000Y18750000D02*
X7000000Y18750000D01*
X20050000Y16650000D02*
X20050000Y16600000D01*
X20150000Y17500000D02*
X20150000Y16850000D01*
X18850000Y13150000D02*
X18800000Y13150000D01*
X20650000Y18100000D02*
X20650000Y18050000D01*
X1286300Y14703200D02*
X1286300Y17090000D01*
X7200000Y18650000D02*
X7250000Y18600000D01*
X18750000Y13100000D02*
X16400000Y13100000D01*
X6350000Y19000000D02*
X6450000Y19000000D01*
X4900000Y19100000D02*
X6200000Y19100000D01*
X21700000Y25250000D02*
X20700000Y24250000D01*
X11986400Y10092400D02*
X5897100Y10092400D01*
D16*
X21750000Y25700000D02*
X21700000Y25650000D01*
D15*
X6750000Y18850000D02*
X6800000Y18800000D01*
X20600000Y17950000D02*
X20150000Y17500000D01*
X19300000Y15850000D02*
X19300000Y13650000D01*
X6300000Y19050000D02*
X6350000Y19000000D01*
X5897100Y10092400D02*
X1286300Y14703200D01*
X6850000Y18800000D02*
X6900000Y18750000D01*
X20600000Y18000000D02*
X20600000Y17950000D01*
D16*
X7500000Y17850000D02*
X7500000Y18500000D01*
D15*
X6200000Y19100000D02*
X6250000Y19050000D01*
X20050000Y16600000D02*
X19300000Y15850000D01*
X21700000Y25650000D02*
X21700000Y25250000D01*
X6550000Y18950000D02*
X6600000Y18900000D01*
X18800000Y13150000D02*
X18750000Y13100000D01*
X7250000Y18600000D02*
X7300000Y18600000D01*
X20700000Y18150000D02*
X20650000Y18100000D01*
D16*
X21800000Y25700000D02*
X21750000Y25700000D01*
D15*
X19200000Y13450000D02*
X18950000Y13200000D01*
X6500000Y18950000D02*
X6550000Y18950000D01*
X6700000Y18850000D02*
X6750000Y18850000D01*
X7000000Y18750000D02*
X7050000Y18700000D01*
X19300000Y13650000D02*
X19250000Y13600000D01*
X7100000Y18700000D02*
X7150000Y18650000D01*
X7300000Y18600000D02*
X7350000Y18550000D01*
X18900000Y13200000D02*
X18850000Y13150000D01*
D16*
X22300000Y26200000D02*
X21800000Y25700000D01*
D15*
X6450000Y19000000D02*
X6500000Y18950000D01*
X20150000Y16850000D02*
X20100000Y16800000D01*
X19250000Y13550000D02*
X19200000Y13500000D01*
X7350000Y18550000D02*
X7450000Y18550000D01*
X18950000Y13200000D02*
X18900000Y13200000D01*
X12187000Y10293000D02*
X11986400Y10092400D01*
X7050000Y18700000D02*
X7100000Y18700000D01*
%TO.N,/USB/CC1*%
X18259700Y16737800D02*
X16896200Y15374300D01*
X15858700Y13486000D02*
X15858700Y13383000D01*
X16896200Y15374300D02*
X16896200Y14523500D01*
X13643700Y13224000D02*
X8329700Y13224000D01*
X14206100Y12661600D02*
X13643700Y13224000D01*
X16896200Y14523500D02*
X15858700Y13486000D01*
%TO.N,/USB/CC2*%
X11659700Y11190000D02*
X10184400Y12665300D01*
X14731600Y11190000D02*
X15235500Y11693900D01*
X15235500Y11693900D02*
X15235500Y13547200D01*
X14731600Y11190000D02*
X11659700Y11190000D01*
X16539500Y14851200D02*
X16539500Y19310400D01*
X15235500Y13547200D02*
X16539500Y14851200D01*
X16539500Y19310400D02*
X15856400Y19993500D01*
%TO.N,/Compute/LED_B*%
X16006100Y23820000D02*
X16006100Y22374900D01*
X12600000Y23639200D02*
X13147400Y24186600D01*
X13147400Y24186600D02*
X15639500Y24186600D01*
X16006100Y22374900D02*
X20097900Y18283100D01*
X15639500Y24186600D02*
X16006100Y23820000D01*
%TO.N,/Compute/MCU_EN*%
X3596300Y12897600D02*
X3596300Y14434700D01*
X7322800Y11489200D02*
X5004700Y11489200D01*
X7776700Y11035300D02*
X7322800Y11489200D01*
X5004700Y11489200D02*
X3596300Y12897600D01*
%TO.N,/Power/PACK_P*%
X6014500Y7860700D02*
X5804500Y7650700D01*
X19180700Y7650700D02*
X9763100Y7650700D01*
X1039500Y7650700D02*
X583600Y8106600D01*
X9553100Y7860700D02*
X6014500Y7860700D01*
X9763100Y7650700D02*
X9553100Y7860700D01*
X5804500Y7650700D02*
X1039500Y7650700D01*
X20030000Y8500000D02*
X19180700Y7650700D01*
%TO.N,/Power/SYS*%
X4404900Y23784000D02*
X1975000Y21354100D01*
X4934400Y23784000D02*
X4404900Y23784000D01*
%TO.N,/Compute/USB_DP_MCU*%
X23599800Y27359800D02*
X22859600Y28100000D01*
X22859600Y28100000D02*
X21528700Y28100000D01*
X21528700Y28100000D02*
X20968400Y27539700D01*
D16*
%TO.N,/USB_POWER_N*%
X10500000Y23850000D02*
X10450000Y23900000D01*
X10300000Y24300000D02*
X10250000Y24350000D01*
X11100000Y22550000D02*
X11050000Y22600000D01*
X4000000Y5750000D02*
X3000000Y6750000D01*
X5400000Y6750000D02*
X6200000Y5950000D01*
X10500000Y23800000D02*
X10500000Y23850000D01*
X10750000Y23250000D02*
X10750000Y23300000D01*
X6600000Y5950000D02*
X7750000Y7100000D01*
X10550000Y23750000D02*
X10500000Y23800000D01*
X10200000Y23750000D02*
X10200000Y24500000D01*
X3000000Y6750000D02*
X5400000Y6750000D01*
X10400000Y24100000D02*
X10350000Y24150000D01*
X10450000Y23900000D02*
X10450000Y24000000D01*
X10750000Y23300000D02*
X10700000Y23350000D01*
X10300000Y24250000D02*
X10300000Y24300000D01*
X6200000Y5950000D02*
X6300000Y5950000D01*
X10700000Y23450000D02*
X10650000Y23500000D01*
X10650000Y23500000D02*
X10650000Y23550000D01*
X10800000Y23200000D02*
X10750000Y23250000D01*
X10450000Y24000000D02*
X10400000Y24050000D01*
X10850000Y23050000D02*
X10850000Y23100000D01*
X11100000Y22350000D02*
X11100000Y22550000D01*
X10350000Y24200000D02*
X10300000Y24250000D01*
X9900000Y7100000D02*
X9950000Y7150000D01*
X10800000Y23150000D02*
X10800000Y23200000D01*
X11000000Y22700000D02*
X11000000Y22750000D01*
X10600000Y23600000D02*
X10600000Y23650000D01*
X10950000Y22900000D02*
X10900000Y22950000D01*
X11150000Y22300000D02*
X11100000Y22350000D01*
X11000000Y22750000D02*
X10950000Y22800000D01*
X6350000Y5900000D02*
X6450000Y5900000D01*
X10850000Y23100000D02*
X10800000Y23150000D01*
X9950000Y7150000D02*
X12150000Y7150000D01*
X11150000Y20250000D02*
X11150000Y22300000D01*
X10350000Y24150000D02*
X10350000Y24200000D01*
X6450000Y5900000D02*
X6500000Y5950000D01*
X10950000Y22800000D02*
X10950000Y22900000D01*
X10900000Y22950000D02*
X10900000Y23000000D01*
X10700000Y23350000D02*
X10700000Y23450000D01*
X11050000Y22650000D02*
X11000000Y22700000D01*
X10650000Y23550000D02*
X10600000Y23600000D01*
X10400000Y24050000D02*
X10400000Y24100000D01*
X10250000Y24450000D02*
X10200000Y24500000D01*
X10600000Y23650000D02*
X10550000Y23700000D01*
X6500000Y5950000D02*
X6600000Y5950000D01*
X7750000Y7100000D02*
X9900000Y7100000D01*
X11050000Y22600000D02*
X11050000Y22650000D01*
X10550000Y23700000D02*
X10550000Y23750000D01*
X6300000Y5950000D02*
X6350000Y5900000D01*
X10900000Y23000000D02*
X10850000Y23050000D01*
X10250000Y24350000D02*
X10250000Y24450000D01*
D15*
%TO.N,/VBUS*%
X8310400Y13997600D02*
X14605300Y13997600D01*
X8336200Y10799000D02*
X8336200Y11761200D01*
X8336200Y11761200D02*
X7761000Y12336400D01*
X6339500Y10669200D02*
X6538200Y10470500D01*
X7761000Y13448200D02*
X8310400Y13997600D01*
X8007700Y10470500D02*
X8336200Y10799000D01*
X14605300Y13997600D02*
X15581300Y14973600D01*
X7761000Y12336400D02*
X7761000Y13448200D01*
X15581300Y16435200D02*
X15581400Y16435200D01*
X15581300Y14973600D02*
X15581300Y16435200D01*
X6538200Y10470500D02*
X8007700Y10470500D01*
%TO.N,/IMU/1V8_IMU*%
X14839300Y14736000D02*
X8504100Y14736000D01*
X15024600Y17483400D02*
X15024600Y16107700D01*
X4153000Y15610000D02*
X5133700Y16590700D01*
X15196600Y15935700D02*
X15196600Y15093300D01*
X728000Y18034300D02*
X728000Y14757100D01*
X6276800Y12099700D02*
X4900700Y12099700D01*
X3840700Y21147000D02*
X728000Y18034300D01*
X15241200Y17700000D02*
X15024600Y17483400D01*
X9099600Y8217400D02*
X5461400Y8217400D01*
X8504100Y14736000D02*
X7383800Y13615700D01*
X5858300Y9626800D02*
X9214200Y9626800D01*
X4900700Y12099700D02*
X4153000Y12847400D01*
X4153000Y12847400D02*
X4153000Y15610000D01*
X7383800Y13615700D02*
X7383800Y13206700D01*
X9802400Y9038600D02*
X9802400Y8920200D01*
X7383800Y13206700D02*
X6276800Y12099700D01*
X15024600Y16107700D02*
X15196600Y15935700D01*
X15196600Y15093300D02*
X14839300Y14736000D01*
X728000Y14757100D02*
X5858300Y9626800D01*
X9802400Y8920200D02*
X9099600Y8217400D01*
X9214200Y9626800D02*
X9802400Y9038600D01*
%TO.N,/IMU/SCL_1V8*%
X14439800Y12093900D02*
X14762900Y12417000D01*
X16182800Y15070700D02*
X16182800Y17648800D01*
X14762900Y13650800D02*
X16182800Y15070700D01*
X16182800Y17648800D02*
X15254000Y18577600D01*
X11398300Y12244100D02*
X11548500Y12093900D01*
X11548500Y12093900D02*
X14439800Y12093900D01*
X14762900Y12417000D02*
X14762900Y13650800D01*
%TO.N,/IMU/SDA_1V8*%
X14000000Y19762800D02*
X12522100Y19762800D01*
X12522100Y19762800D02*
X6231500Y13472200D01*
X6231500Y13472200D02*
X6231500Y13381400D01*
%TO.N,/SCL_HOST*%
X9624000Y17766800D02*
X9624000Y20731000D01*
X5477400Y13620200D02*
X9624000Y17766800D01*
X5477400Y13052600D02*
X5477400Y13620200D01*
%TO.N,/SDA_HOST*%
X5202900Y12464900D02*
X4712900Y12954900D01*
X14664800Y22903100D02*
X15377200Y23615500D01*
X14664800Y19247600D02*
X14664800Y22903100D01*
X6901500Y13259500D02*
X6106900Y12464900D01*
X14598600Y15294700D02*
X14493700Y15399600D01*
X6901500Y13637800D02*
X6901500Y13259500D01*
X6106900Y12464900D02*
X5202900Y12464900D01*
X14599000Y15295000D02*
X8558700Y15295000D01*
X8558700Y15295000D02*
X6901500Y13637800D01*
X4712900Y12954900D02*
X4712900Y13075000D01*
X14493700Y19076500D02*
X14664800Y19247600D01*
X14493700Y15399600D02*
X14493700Y19076500D01*
%TO.N,Net-(U1-GPIO9_{slash}_BOOT)*%
X18200000Y27200600D02*
X19683800Y28684400D01*
X9138200Y27200600D02*
X18200000Y27200600D01*
X5164900Y23227300D02*
X9138200Y27200600D01*
X371300Y14609400D02*
X371300Y18464800D01*
X6076500Y8904200D02*
X371300Y14609400D01*
X5133800Y23227300D02*
X5164900Y23227300D01*
X19683800Y28684400D02*
X21789800Y28684400D01*
X8908000Y8904200D02*
X6076500Y8904200D01*
X371300Y18464800D02*
X5133800Y23227300D01*
%TD*%
%TA.AperFunction,Conductor*%
%TO.N,GND*%
G36*
X24727826Y34727826D02*
G01*
X24749500Y34675500D01*
X24749500Y23824500D01*
X24727826Y23772174D01*
X24675500Y23750500D01*
X24400172Y23750500D01*
X24308105Y23712366D01*
X24237634Y23641895D01*
X24199500Y23549830D01*
X24199500Y12850171D01*
X24237634Y12758106D01*
X24237635Y12758104D01*
X24237636Y12758103D01*
X24308103Y12687636D01*
X24400172Y12649500D01*
X24675500Y12649500D01*
X24727826Y12627826D01*
X24749500Y12575500D01*
X24749500Y6074000D01*
X24727826Y6021674D01*
X24675500Y6000000D01*
X24000000Y6000000D01*
X24000000Y5324500D01*
X23978326Y5272174D01*
X23926000Y5250500D01*
X4148746Y5250500D01*
X4096420Y5272174D01*
X4074746Y5324500D01*
X4096420Y5376826D01*
X4129590Y5395978D01*
X4144938Y5400090D01*
X4230562Y5449525D01*
X4300475Y5519438D01*
X4349910Y5605062D01*
X4375500Y5700565D01*
X4375500Y5799435D01*
X4375500Y5799437D01*
X4375499Y5799438D01*
X4349911Y5894935D01*
X4349909Y5894940D01*
X4300474Y5980563D01*
X4230562Y6050475D01*
X4144939Y6099910D01*
X4144934Y6099912D01*
X4049437Y6125500D01*
X4049435Y6125500D01*
X3974057Y6125500D01*
X3921731Y6147174D01*
X3670731Y6398174D01*
X3649057Y6450500D01*
X3670731Y6502826D01*
X3723057Y6524500D01*
X5275943Y6524500D01*
X5328269Y6502826D01*
X6008829Y5822266D01*
X6008830Y5822264D01*
X6072264Y5758830D01*
X6096539Y5748775D01*
X6155145Y5724499D01*
X6176366Y5724499D01*
X6208797Y5717014D01*
X6219106Y5711988D01*
X6222264Y5708830D01*
X6242218Y5700565D01*
X6305146Y5674499D01*
X6305147Y5674499D01*
X6405145Y5674499D01*
X6494854Y5674499D01*
X6494855Y5674499D01*
X6557782Y5700565D01*
X6577736Y5708830D01*
X6580893Y5711988D01*
X6591204Y5717014D01*
X6600911Y5717607D01*
X6623634Y5724499D01*
X6644854Y5724499D01*
X6644855Y5724499D01*
X6703460Y5748775D01*
X6727736Y5758830D01*
X6791170Y5822264D01*
X6791170Y5822265D01*
X6801575Y5832670D01*
X6801576Y5832673D01*
X7821731Y6852826D01*
X7874057Y6874500D01*
X9846525Y6874500D01*
X9846533Y6874499D01*
X9855145Y6874499D01*
X9944854Y6874499D01*
X9944855Y6874499D01*
X10014868Y6903500D01*
X10027736Y6908830D01*
X10030553Y6911648D01*
X10040298Y6916565D01*
X10049824Y6917278D01*
X10073636Y6924500D01*
X11813811Y6924500D01*
X11866137Y6902826D01*
X11919438Y6849525D01*
X12005062Y6800090D01*
X12005063Y6800090D01*
X12005065Y6800089D01*
X12024599Y6794855D01*
X12100562Y6774501D01*
X12100563Y6774500D01*
X12100565Y6774500D01*
X12199437Y6774500D01*
X12199437Y6774501D01*
X12294938Y6800090D01*
X12380562Y6849525D01*
X12450475Y6919438D01*
X12499910Y7005062D01*
X12525499Y7100563D01*
X12525500Y7100563D01*
X12525500Y7199437D01*
X12525499Y7199438D01*
X12499910Y7294939D01*
X12498691Y7297882D01*
X12498691Y7299489D01*
X12498655Y7299623D01*
X12498691Y7299633D01*
X12498691Y7354520D01*
X12538740Y7394567D01*
X12567058Y7400200D01*
X19230527Y7400200D01*
X19230528Y7400200D01*
X19322597Y7438336D01*
X19371273Y7487014D01*
X19423598Y7508688D01*
X19457194Y7500622D01*
X19588359Y7433790D01*
X19588363Y7433788D01*
X19760580Y7377832D01*
X19760586Y7377831D01*
X19760591Y7377829D01*
X19879833Y7358943D01*
X19939453Y7349500D01*
X19939454Y7349500D01*
X20120547Y7349500D01*
X20165261Y7356583D01*
X20299409Y7377829D01*
X20299416Y7377832D01*
X20299419Y7377832D01*
X20377601Y7403235D01*
X20471639Y7433789D01*
X20632994Y7516004D01*
X20779501Y7622447D01*
X20907553Y7750499D01*
X21013996Y7897006D01*
X21096211Y8058361D01*
X21137423Y8185200D01*
X21152168Y8230581D01*
X21152168Y8230584D01*
X21152171Y8230591D01*
X21180500Y8409454D01*
X21180500Y8590546D01*
X21179448Y8597185D01*
X21154443Y8755065D01*
X21152171Y8769409D01*
X21152169Y8769414D01*
X21152168Y8769420D01*
X21096212Y8941636D01*
X21096211Y8941637D01*
X21096211Y8941639D01*
X21013996Y9102994D01*
X20907553Y9249501D01*
X20779501Y9377553D01*
X20692861Y9440500D01*
X20632996Y9483995D01*
X20513385Y9544940D01*
X20471639Y9566211D01*
X20471638Y9566212D01*
X20471635Y9566213D01*
X20471636Y9566213D01*
X20299419Y9622169D01*
X20299406Y9622172D01*
X20120547Y9650500D01*
X20120546Y9650500D01*
X19939454Y9650500D01*
X19939453Y9650500D01*
X19760593Y9622172D01*
X19760580Y9622169D01*
X19588364Y9566213D01*
X19427004Y9483995D01*
X19427003Y9483995D01*
X19282791Y9379218D01*
X19280499Y9377553D01*
X19152447Y9249501D01*
X19152444Y9249498D01*
X19152444Y9249497D01*
X19046005Y9102997D01*
X19046005Y9102996D01*
X18963787Y8941636D01*
X18907831Y8769420D01*
X18907828Y8769407D01*
X18879500Y8590547D01*
X18879500Y8409454D01*
X18907828Y8230594D01*
X18907831Y8230581D01*
X18963787Y8058364D01*
X18963789Y8058360D01*
X18989044Y8008795D01*
X18993488Y7952333D01*
X18956705Y7909266D01*
X18923110Y7901200D01*
X10180119Y7901200D01*
X10127793Y7922874D01*
X10126119Y7924783D01*
X10094855Y7956047D01*
X10039713Y8011189D01*
X10039710Y8011191D01*
X10039709Y8011192D01*
X9936987Y8070499D01*
X9936982Y8070501D01*
X9822411Y8101200D01*
X9822409Y8101200D01*
X9703791Y8101200D01*
X9703790Y8101200D01*
X9681465Y8095219D01*
X9652340Y8093373D01*
X9642849Y8094665D01*
X9602928Y8111200D01*
X9521300Y8111200D01*
X9516338Y8111875D01*
X9495872Y8123809D01*
X9473987Y8132874D01*
X9471968Y8137748D01*
X9467411Y8140405D01*
X9461377Y8163316D01*
X9452313Y8185200D01*
X9454331Y8190074D01*
X9452988Y8195175D01*
X9464921Y8215641D01*
X9473987Y8237526D01*
X9802887Y8566426D01*
X9855213Y8588100D01*
X9861711Y8588100D01*
X9861711Y8588101D01*
X9976286Y8618801D01*
X10079013Y8678111D01*
X10162889Y8761987D01*
X10222199Y8864714D01*
X10252899Y8979289D01*
X10252900Y8979289D01*
X10252900Y9097911D01*
X10252899Y9097912D01*
X10251536Y9102997D01*
X10227525Y9192611D01*
X10222200Y9212483D01*
X10222198Y9212488D01*
X10162891Y9315210D01*
X10162890Y9315211D01*
X10162889Y9315213D01*
X10079013Y9399089D01*
X10079010Y9399091D01*
X10079009Y9399092D01*
X9976287Y9458399D01*
X9976282Y9458401D01*
X9861711Y9489100D01*
X9861709Y9489100D01*
X9743091Y9489100D01*
X9738241Y9489100D01*
X9738241Y9491815D01*
X9691924Y9504231D01*
X9684653Y9510608D01*
X9582849Y9612412D01*
X9479685Y9715576D01*
X9458012Y9767900D01*
X9479686Y9820226D01*
X9532012Y9841900D01*
X11888222Y9841900D01*
X11940548Y9820226D01*
X11962222Y9767900D01*
X11940548Y9715574D01*
X11925225Y9703817D01*
X11920359Y9701008D01*
X11919436Y9700474D01*
X11849525Y9630563D01*
X11800090Y9544940D01*
X11800088Y9544935D01*
X11774500Y9449438D01*
X11774500Y9350563D01*
X11800088Y9255066D01*
X11800090Y9255061D01*
X11849525Y9169438D01*
X11919438Y9099525D01*
X12005062Y9050090D01*
X12005063Y9050090D01*
X12005065Y9050089D01*
X12052813Y9037295D01*
X12100562Y9024501D01*
X12100563Y9024500D01*
X12100565Y9024500D01*
X12199437Y9024500D01*
X12199437Y9024501D01*
X12292034Y9049312D01*
X16081000Y9049312D01*
X16081000Y8930689D01*
X16111699Y8816118D01*
X16111701Y8816113D01*
X16171008Y8713391D01*
X16171009Y8713390D01*
X16171011Y8713387D01*
X16254887Y8629511D01*
X16254889Y8629510D01*
X16254890Y8629509D01*
X16357612Y8570202D01*
X16357614Y8570201D01*
X16357615Y8570201D01*
X16357617Y8570200D01*
X16371702Y8566426D01*
X16472188Y8539501D01*
X16472189Y8539500D01*
X16472191Y8539500D01*
X16590811Y8539500D01*
X16590811Y8539501D01*
X16705386Y8570201D01*
X16808113Y8629511D01*
X16891989Y8713387D01*
X16951299Y8816114D01*
X16981999Y8930689D01*
X16982000Y8930689D01*
X16982000Y9049311D01*
X16981999Y9049312D01*
X16951300Y9163883D01*
X16951298Y9163888D01*
X16891991Y9266610D01*
X16891990Y9266611D01*
X16891989Y9266613D01*
X16808113Y9350489D01*
X16808110Y9350491D01*
X16808109Y9350492D01*
X16705387Y9409799D01*
X16705382Y9409801D01*
X16590811Y9440500D01*
X16590809Y9440500D01*
X16472191Y9440500D01*
X16472189Y9440500D01*
X16357617Y9409801D01*
X16357612Y9409799D01*
X16254890Y9350492D01*
X16171008Y9266610D01*
X16111701Y9163888D01*
X16111699Y9163883D01*
X16081000Y9049312D01*
X12292034Y9049312D01*
X12294938Y9050090D01*
X12380562Y9099525D01*
X12450475Y9169438D01*
X12499910Y9255062D01*
X12525499Y9350563D01*
X12525500Y9350563D01*
X12525500Y9449437D01*
X12525499Y9449438D01*
X12523097Y9458401D01*
X12499910Y9544938D01*
X12450475Y9630562D01*
X12380562Y9700475D01*
X12380561Y9700476D01*
X12324704Y9732726D01*
X12290226Y9777659D01*
X12292814Y9797312D01*
X17754600Y9797312D01*
X17754600Y9678689D01*
X17785299Y9564118D01*
X17785301Y9564113D01*
X17844608Y9461391D01*
X17844609Y9461390D01*
X17844611Y9461387D01*
X17928487Y9377511D01*
X17928489Y9377510D01*
X17928490Y9377509D01*
X18031212Y9318202D01*
X18031214Y9318201D01*
X18031215Y9318201D01*
X18031217Y9318200D01*
X18042365Y9315213D01*
X18145788Y9287501D01*
X18145789Y9287500D01*
X18145791Y9287500D01*
X18264411Y9287500D01*
X18264411Y9287501D01*
X18378986Y9318201D01*
X18481713Y9377511D01*
X18565589Y9461387D01*
X18624899Y9564114D01*
X18655599Y9678689D01*
X18655600Y9678689D01*
X18655600Y9797311D01*
X18655599Y9797312D01*
X18624900Y9911883D01*
X18624898Y9911888D01*
X18565591Y10014610D01*
X18565590Y10014611D01*
X18565589Y10014613D01*
X18481713Y10098489D01*
X18481710Y10098491D01*
X18481709Y10098492D01*
X18378987Y10157799D01*
X18378982Y10157801D01*
X18264411Y10188500D01*
X18264409Y10188500D01*
X18145791Y10188500D01*
X18145789Y10188500D01*
X18031217Y10157801D01*
X18031212Y10157799D01*
X17928490Y10098492D01*
X17844608Y10014610D01*
X17785301Y9911888D01*
X17785299Y9911883D01*
X17754600Y9797312D01*
X12292814Y9797312D01*
X12297620Y9833812D01*
X12342550Y9868288D01*
X12360886Y9873201D01*
X12463613Y9932511D01*
X12547489Y10016387D01*
X12606799Y10119114D01*
X12637499Y10233689D01*
X12637500Y10233689D01*
X12637500Y10352311D01*
X12637499Y10352312D01*
X12637364Y10352814D01*
X12606799Y10466886D01*
X12547489Y10569613D01*
X12463613Y10653489D01*
X12463610Y10653491D01*
X12463609Y10653492D01*
X12360887Y10712799D01*
X12360882Y10712801D01*
X12246311Y10743500D01*
X12246309Y10743500D01*
X12127691Y10743500D01*
X12127689Y10743500D01*
X12013117Y10712801D01*
X12013112Y10712799D01*
X11910390Y10653492D01*
X11826508Y10569610D01*
X11767202Y10466889D01*
X11767202Y10466888D01*
X11767201Y10466886D01*
X11748674Y10397746D01*
X11714197Y10352814D01*
X11677197Y10342900D01*
X8413013Y10342900D01*
X8360687Y10364574D01*
X8339013Y10416900D01*
X8360687Y10469226D01*
X8548563Y10657102D01*
X8548564Y10657103D01*
X8586700Y10749172D01*
X8586700Y10848828D01*
X8586700Y11702752D01*
X8586701Y11702761D01*
X8586701Y11811027D01*
X8557495Y11881535D01*
X8548564Y11903096D01*
X8548564Y11903097D01*
X8478097Y11973564D01*
X8478095Y11973565D01*
X8257154Y12194506D01*
X8033174Y12418487D01*
X8011500Y12470813D01*
X8011500Y12759349D01*
X8033174Y12811675D01*
X8085500Y12833349D01*
X8122500Y12823435D01*
X8155814Y12804201D01*
X8155815Y12804201D01*
X8155817Y12804200D01*
X8191522Y12794633D01*
X8270388Y12773501D01*
X8270389Y12773500D01*
X8270391Y12773500D01*
X8389011Y12773500D01*
X8389011Y12773501D01*
X8503586Y12804201D01*
X8606313Y12863511D01*
X8690189Y12947387D01*
X8690189Y12947388D01*
X8693619Y12950817D01*
X8695542Y12948894D01*
X8737049Y12972866D01*
X8746719Y12973500D01*
X9713975Y12973500D01*
X9766301Y12951826D01*
X9787975Y12899500D01*
X9778061Y12862500D01*
X9764602Y12839189D01*
X9764599Y12839183D01*
X9733900Y12724612D01*
X9733900Y12605989D01*
X9764599Y12491418D01*
X9764601Y12491413D01*
X9823908Y12388691D01*
X9823909Y12388690D01*
X9823911Y12388687D01*
X9907787Y12304811D01*
X9907789Y12304810D01*
X9907790Y12304809D01*
X10010512Y12245502D01*
X10010514Y12245501D01*
X10010515Y12245501D01*
X10010517Y12245500D01*
X10067802Y12230151D01*
X10125088Y12214801D01*
X10125089Y12214800D01*
X10248560Y12214800D01*
X10248560Y12212083D01*
X10294870Y12199674D01*
X10302147Y12193292D01*
X11517802Y10977637D01*
X11517805Y10977635D01*
X11529456Y10972809D01*
X11609872Y10939500D01*
X14314581Y10939500D01*
X14366907Y10917826D01*
X14368580Y10915918D01*
X14371110Y10913388D01*
X14371111Y10913387D01*
X14454987Y10829511D01*
X14557714Y10770201D01*
X14557715Y10770201D01*
X14557717Y10770200D01*
X14615002Y10754851D01*
X14672288Y10739501D01*
X14672289Y10739500D01*
X14672291Y10739500D01*
X14790911Y10739500D01*
X14790911Y10739501D01*
X14905486Y10770201D01*
X15008213Y10829511D01*
X15092089Y10913387D01*
X15151399Y11016114D01*
X15182099Y11130689D01*
X15182100Y11130689D01*
X15182100Y11254160D01*
X15184830Y11254160D01*
X15197195Y11300431D01*
X15203599Y11307740D01*
X15447864Y11552003D01*
X15486000Y11644072D01*
X15486000Y11743728D01*
X15486000Y12605368D01*
X15507674Y12657694D01*
X15560000Y12679368D01*
X15612326Y12657694D01*
X15631478Y12624521D01*
X15650088Y12555066D01*
X15650090Y12555061D01*
X15698731Y12470813D01*
X15699525Y12469438D01*
X15769438Y12399525D01*
X15855062Y12350090D01*
X15855063Y12350090D01*
X15855065Y12350089D01*
X15876297Y12344400D01*
X15950562Y12324501D01*
X15950563Y12324500D01*
X15950565Y12324500D01*
X16049437Y12324500D01*
X16049437Y12324501D01*
X16144938Y12350090D01*
X16230562Y12399525D01*
X16300475Y12469438D01*
X16349910Y12555062D01*
X16375499Y12650563D01*
X16375500Y12650563D01*
X16375500Y12690587D01*
X16397174Y12742913D01*
X16482087Y12827826D01*
X16534413Y12849500D01*
X18799827Y12849500D01*
X18799828Y12849500D01*
X18891897Y12887636D01*
X18896133Y12891873D01*
X18915366Y12905736D01*
X18917701Y12906904D01*
X18991897Y12937636D01*
X19004626Y12950367D01*
X19015366Y12955736D01*
X19017061Y12955857D01*
X19020140Y12957915D01*
X19091897Y12987636D01*
X19412364Y13308103D01*
X19442094Y13379881D01*
X19444264Y13384633D01*
X19449635Y13395375D01*
X19462364Y13408103D01*
X19483075Y13458103D01*
X19493090Y13482284D01*
X19494266Y13484635D01*
X19496670Y13486721D01*
X19508128Y13503868D01*
X19512364Y13508103D01*
X19519584Y13525535D01*
X19531908Y13555285D01*
X19539048Y13572523D01*
X19550501Y13600173D01*
X19550501Y13699828D01*
X19550501Y13705786D01*
X19550500Y13705800D01*
X19550500Y15715587D01*
X19572174Y15767913D01*
X20262363Y16458102D01*
X20262364Y16458103D01*
X20292092Y16529876D01*
X20294865Y16535809D01*
X20300113Y16545853D01*
X20312364Y16558103D01*
X20333482Y16609086D01*
X20350501Y16650173D01*
X20350501Y16667901D01*
X20360533Y16700974D01*
X20359575Y16701370D01*
X20387804Y16769520D01*
X20400501Y16800173D01*
X20400501Y16899828D01*
X20400501Y16905786D01*
X20400500Y16905800D01*
X20400500Y17365587D01*
X20422174Y17417913D01*
X20812363Y17808102D01*
X20812364Y17808103D01*
X20842094Y17879882D01*
X20844264Y17884634D01*
X20849634Y17895375D01*
X20862364Y17908103D01*
X20890742Y17976613D01*
X20893091Y17982287D01*
X20894267Y17984637D01*
X20896677Y17986728D01*
X20908129Y18003869D01*
X20912364Y18008103D01*
X20936019Y18065212D01*
X20950501Y18100173D01*
X20950501Y18199828D01*
X20950501Y18205786D01*
X20950500Y18205800D01*
X20950500Y24115589D01*
X20972173Y24167914D01*
X21831488Y25027230D01*
X21831491Y25027231D01*
X21841896Y25037636D01*
X21841897Y25037636D01*
X21912364Y25108103D01*
X21945547Y25188214D01*
X21950501Y25200173D01*
X21950501Y25299828D01*
X21950500Y25299831D01*
X21950500Y25500942D01*
X21972174Y25553268D01*
X21991170Y25572264D01*
X21991170Y25572265D01*
X22001575Y25582670D01*
X22001577Y25582673D01*
X22221730Y25802826D01*
X22274056Y25824500D01*
X22349437Y25824500D01*
X22349437Y25824501D01*
X22444938Y25850090D01*
X22530562Y25899525D01*
X22600475Y25969438D01*
X22649910Y26055062D01*
X22675499Y26150563D01*
X22675500Y26150563D01*
X22675500Y26249437D01*
X22675499Y26249438D01*
X22649911Y26344935D01*
X22649909Y26344940D01*
X22600474Y26430563D01*
X22530562Y26500475D01*
X22444939Y26549910D01*
X22444934Y26549912D01*
X22349437Y26575500D01*
X22349435Y26575500D01*
X22250565Y26575500D01*
X22250563Y26575500D01*
X22155065Y26549912D01*
X22155060Y26549910D01*
X22069437Y26500475D01*
X21999525Y26430563D01*
X21950090Y26344940D01*
X21950088Y26344935D01*
X21924500Y26249438D01*
X21924500Y26174058D01*
X21902826Y26121732D01*
X21718029Y25936935D01*
X21695492Y25921522D01*
X21694720Y25921183D01*
X21656595Y25905391D01*
X21622264Y25891170D01*
X21618959Y25887867D01*
X21608221Y25883144D01*
X21607914Y25883138D01*
X21606752Y25882516D01*
X21558105Y25862365D01*
X21558104Y25862365D01*
X21487636Y25791898D01*
X21487634Y25791895D01*
X21449500Y25699830D01*
X21449500Y25384414D01*
X21427826Y25332088D01*
X20487637Y24391899D01*
X20487634Y24391895D01*
X20449500Y24299830D01*
X20449500Y18728468D01*
X20427826Y18676142D01*
X20375500Y18654468D01*
X20338500Y18664382D01*
X20271787Y18702899D01*
X20271782Y18702901D01*
X20157211Y18733600D01*
X20157209Y18733600D01*
X20038591Y18733600D01*
X20033741Y18733600D01*
X20033741Y18736315D01*
X19987424Y18748731D01*
X19980153Y18755108D01*
X18341568Y20393693D01*
X18319894Y20446019D01*
X18341568Y20498345D01*
X18393894Y20520019D01*
X18413047Y20517497D01*
X18419714Y20515711D01*
X18424231Y20514501D01*
X18424232Y20514500D01*
X18424234Y20514500D01*
X18575768Y20514500D01*
X18575768Y20514501D01*
X18722135Y20553719D01*
X18853365Y20629485D01*
X18960515Y20736635D01*
X19036281Y20867865D01*
X19075499Y21014232D01*
X19075500Y21014232D01*
X19075500Y21165768D01*
X19075499Y21165769D01*
X19073891Y21171769D01*
X19036281Y21312135D01*
X18960515Y21443365D01*
X18853365Y21550515D01*
X18839173Y21558709D01*
X18722139Y21626279D01*
X18722130Y21626283D01*
X18575768Y21665500D01*
X18575766Y21665500D01*
X18424234Y21665500D01*
X18424232Y21665500D01*
X18277869Y21626283D01*
X18277860Y21626279D01*
X18146637Y21550517D01*
X18039483Y21443363D01*
X17963721Y21312140D01*
X17963717Y21312131D01*
X17924500Y21165769D01*
X17924500Y21014232D01*
X17927497Y21003045D01*
X17920103Y20946893D01*
X17875168Y20912416D01*
X17819016Y20919810D01*
X17803692Y20931569D01*
X16278274Y22456987D01*
X16256600Y22509313D01*
X16256600Y23761552D01*
X16256601Y23761561D01*
X16256601Y23869827D01*
X16225523Y23944855D01*
X16218464Y23961897D01*
X16143782Y24036579D01*
X16143775Y24036585D01*
X15781397Y24398964D01*
X15781394Y24398966D01*
X15689328Y24437100D01*
X13205848Y24437100D01*
X13205840Y24437101D01*
X13197228Y24437101D01*
X13097573Y24437101D01*
X13043639Y24414762D01*
X13043640Y24414761D01*
X13005504Y24398965D01*
X12935035Y24328496D01*
X12717746Y24111208D01*
X12665420Y24089534D01*
X12662887Y24089700D01*
X12659309Y24089700D01*
X12540691Y24089700D01*
X12540689Y24089700D01*
X12426117Y24059001D01*
X12426112Y24058999D01*
X12323390Y23999692D01*
X12239508Y23915810D01*
X12180201Y23813088D01*
X12180199Y23813083D01*
X12149500Y23698512D01*
X12149500Y23579889D01*
X12180199Y23465318D01*
X12180201Y23465313D01*
X12239508Y23362591D01*
X12239509Y23362590D01*
X12239511Y23362587D01*
X12323387Y23278711D01*
X12323389Y23278710D01*
X12323390Y23278709D01*
X12426112Y23219402D01*
X12426114Y23219401D01*
X12426115Y23219401D01*
X12426117Y23219400D01*
X12431234Y23218029D01*
X12540688Y23188701D01*
X12540689Y23188700D01*
X12540691Y23188700D01*
X12659311Y23188700D01*
X12659311Y23188701D01*
X12773886Y23219401D01*
X12876613Y23278711D01*
X12960489Y23362587D01*
X13019799Y23465314D01*
X13050499Y23579889D01*
X13050500Y23579889D01*
X13050500Y23703359D01*
X13053225Y23703359D01*
X13065604Y23749644D01*
X13071998Y23756940D01*
X13229486Y23914426D01*
X13281812Y23936100D01*
X14913934Y23936100D01*
X14966260Y23914426D01*
X14987934Y23862100D01*
X14978020Y23825100D01*
X14957402Y23789389D01*
X14957399Y23789383D01*
X14926700Y23674812D01*
X14926700Y23551341D01*
X14923983Y23551341D01*
X14911574Y23505031D01*
X14905192Y23497754D01*
X14766605Y23359168D01*
X14714279Y23337494D01*
X14661953Y23359168D01*
X14642801Y23392339D01*
X14619799Y23478186D01*
X14610176Y23494854D01*
X14560491Y23580910D01*
X14560490Y23580911D01*
X14560489Y23580913D01*
X14476613Y23664789D01*
X14476610Y23664791D01*
X14476609Y23664792D01*
X14373887Y23724099D01*
X14373882Y23724101D01*
X14259311Y23754800D01*
X14259309Y23754800D01*
X14140691Y23754800D01*
X14140689Y23754800D01*
X14026117Y23724101D01*
X14026112Y23724099D01*
X13923390Y23664792D01*
X13839508Y23580910D01*
X13780201Y23478188D01*
X13780199Y23478183D01*
X13749500Y23363612D01*
X13749500Y23244989D01*
X13780199Y23130418D01*
X13780201Y23130413D01*
X13839508Y23027691D01*
X13839509Y23027690D01*
X13839511Y23027687D01*
X13923387Y22943811D01*
X13923389Y22943810D01*
X13923390Y22943809D01*
X13987846Y22906595D01*
X14026114Y22884501D01*
X14026115Y22884501D01*
X14026117Y22884500D01*
X14051361Y22877736D01*
X14140688Y22853801D01*
X14140689Y22853800D01*
X14140691Y22853800D01*
X14259310Y22853800D01*
X14278081Y22858830D01*
X14321147Y22870370D01*
X14377299Y22862979D01*
X14411778Y22818046D01*
X14414300Y22798892D01*
X14414300Y20164253D01*
X14392626Y20111927D01*
X14340300Y20090253D01*
X14287975Y20111927D01*
X14276613Y20123289D01*
X14276610Y20123291D01*
X14276609Y20123292D01*
X14173887Y20182599D01*
X14173882Y20182601D01*
X14059311Y20213300D01*
X14059309Y20213300D01*
X13940691Y20213300D01*
X13940689Y20213300D01*
X13826117Y20182601D01*
X13826112Y20182599D01*
X13723390Y20123292D01*
X13636081Y20035983D01*
X13634157Y20037907D01*
X13592651Y20013934D01*
X13582981Y20013300D01*
X12472272Y20013300D01*
X12380205Y19975166D01*
X12309735Y19904696D01*
X10772174Y18367136D01*
X10719848Y18345462D01*
X10667522Y18367136D01*
X10651478Y18391151D01*
X10649909Y18394940D01*
X10625258Y18437637D01*
X10600475Y18480562D01*
X10580779Y18500258D01*
X10559105Y18552584D01*
X10580779Y18604910D01*
X10613952Y18624062D01*
X10699182Y18646900D01*
X10699181Y18646900D01*
X10699186Y18646901D01*
X10801913Y18706211D01*
X10885789Y18790087D01*
X10945099Y18892814D01*
X10975799Y19007389D01*
X10975800Y19007389D01*
X10975800Y19126011D01*
X10975799Y19126012D01*
X10975714Y19126328D01*
X10954195Y19206639D01*
X10945100Y19240583D01*
X10945098Y19240588D01*
X10885791Y19343310D01*
X10885790Y19343311D01*
X10885789Y19343313D01*
X10801913Y19427189D01*
X10801910Y19427191D01*
X10801909Y19427192D01*
X10699187Y19486499D01*
X10699182Y19486501D01*
X10584611Y19517200D01*
X10584609Y19517200D01*
X10465991Y19517200D01*
X10465989Y19517200D01*
X10351417Y19486501D01*
X10351412Y19486499D01*
X10248690Y19427192D01*
X10164808Y19343310D01*
X10105501Y19240588D01*
X10105499Y19240583D01*
X10074800Y19126012D01*
X10074800Y19007389D01*
X10105499Y18892818D01*
X10105501Y18892813D01*
X10164808Y18790091D01*
X10164809Y18790090D01*
X10164811Y18790087D01*
X10222108Y18732790D01*
X10243782Y18680465D01*
X10222108Y18628139D01*
X10188935Y18608987D01*
X10155065Y18599912D01*
X10155060Y18599910D01*
X10069437Y18550475D01*
X10000826Y18481863D01*
X9948500Y18460189D01*
X9896174Y18481863D01*
X9874500Y18534189D01*
X9874500Y20314181D01*
X9896174Y20366507D01*
X9898082Y20368181D01*
X9900610Y20370710D01*
X9900613Y20370711D01*
X9984489Y20454587D01*
X10043799Y20557314D01*
X10074499Y20671889D01*
X10074500Y20671889D01*
X10074500Y20790511D01*
X10074499Y20790512D01*
X10043800Y20905083D01*
X10043798Y20905088D01*
X9984491Y21007810D01*
X9984490Y21007811D01*
X9984489Y21007813D01*
X9900613Y21091689D01*
X9900610Y21091691D01*
X9900609Y21091692D01*
X9797887Y21150999D01*
X9797883Y21151000D01*
X9720376Y21171769D01*
X9675444Y21206248D01*
X9668052Y21262400D01*
X9676731Y21294791D01*
X9699399Y21379389D01*
X9699400Y21379389D01*
X9699400Y21498011D01*
X9699399Y21498012D01*
X9668700Y21612583D01*
X9668698Y21612588D01*
X9609391Y21715310D01*
X9609390Y21715311D01*
X9609389Y21715313D01*
X9525513Y21799189D01*
X9525510Y21799191D01*
X9525509Y21799192D01*
X9422787Y21858499D01*
X9422782Y21858501D01*
X9308211Y21889200D01*
X9308209Y21889200D01*
X9189591Y21889200D01*
X9189589Y21889200D01*
X9075017Y21858501D01*
X9075012Y21858499D01*
X8972290Y21799192D01*
X8888408Y21715310D01*
X8829101Y21612588D01*
X8829099Y21612583D01*
X8798400Y21498012D01*
X8798400Y21379389D01*
X8829099Y21264818D01*
X8829101Y21264813D01*
X8888408Y21162091D01*
X8888409Y21162090D01*
X8888411Y21162087D01*
X8972287Y21078211D01*
X8972289Y21078210D01*
X8972290Y21078209D01*
X9075012Y21018902D01*
X9075014Y21018901D01*
X9075015Y21018901D01*
X9075017Y21018900D01*
X9152522Y20998132D01*
X9197455Y20963654D01*
X9204848Y20907502D01*
X9173500Y20790509D01*
X9173500Y20671889D01*
X9204199Y20557318D01*
X9204201Y20557313D01*
X9263508Y20454591D01*
X9263509Y20454590D01*
X9263511Y20454587D01*
X9316097Y20402001D01*
X9350817Y20367281D01*
X9348893Y20365358D01*
X9372866Y20323851D01*
X9373500Y20314181D01*
X9373500Y17901213D01*
X9351826Y17848887D01*
X5265034Y13762095D01*
X5226900Y13670030D01*
X5226900Y13469619D01*
X5226861Y13469526D01*
X5226900Y13469431D01*
X5226421Y13468464D01*
X5205226Y13417293D01*
X5205093Y13417160D01*
X5201297Y13413384D01*
X5200787Y13413089D01*
X5158739Y13371042D01*
X5158542Y13370845D01*
X5132205Y13360015D01*
X5106348Y13349304D01*
X5106254Y13349343D01*
X5106161Y13349304D01*
X5080101Y13360176D01*
X5054024Y13370978D01*
X4989513Y13435489D01*
X4989510Y13435491D01*
X4989509Y13435492D01*
X4886787Y13494799D01*
X4886782Y13494801D01*
X4772211Y13525500D01*
X4772209Y13525500D01*
X4653591Y13525500D01*
X4653589Y13525500D01*
X4539017Y13494801D01*
X4539012Y13494799D01*
X4514500Y13480646D01*
X4458347Y13473254D01*
X4413414Y13507732D01*
X4403500Y13544732D01*
X4403500Y15475588D01*
X4425173Y15527913D01*
X5015953Y16118694D01*
X5068278Y16140367D01*
X5070811Y16140200D01*
X5074391Y16140200D01*
X5193011Y16140200D01*
X5193011Y16140201D01*
X5307586Y16170901D01*
X5410313Y16230211D01*
X5494189Y16314087D01*
X5553499Y16416814D01*
X5584199Y16531389D01*
X5584200Y16531389D01*
X5584200Y16650011D01*
X5584199Y16650012D01*
X5553500Y16764583D01*
X5553498Y16764588D01*
X5494191Y16867310D01*
X5494190Y16867311D01*
X5494189Y16867313D01*
X5410313Y16951189D01*
X5410310Y16951191D01*
X5410309Y16951192D01*
X5307587Y17010499D01*
X5307582Y17010501D01*
X5193011Y17041200D01*
X5193009Y17041200D01*
X5074391Y17041200D01*
X5074389Y17041200D01*
X4959817Y17010501D01*
X4959812Y17010499D01*
X4857090Y16951192D01*
X4773208Y16867310D01*
X4713901Y16764588D01*
X4713899Y16764583D01*
X4683200Y16650012D01*
X4683200Y16526541D01*
X4680498Y16526541D01*
X4668038Y16480185D01*
X4661691Y16472954D01*
X4011103Y15822364D01*
X3940634Y15751895D01*
X3902500Y15659830D01*
X3902500Y14906280D01*
X3880826Y14853954D01*
X3828500Y14832280D01*
X3791501Y14842194D01*
X3770191Y14854497D01*
X3770182Y14854501D01*
X3655611Y14885200D01*
X3655609Y14885200D01*
X3536991Y14885200D01*
X3536989Y14885200D01*
X3422417Y14854501D01*
X3422412Y14854499D01*
X3319690Y14795192D01*
X3235808Y14711310D01*
X3176501Y14608588D01*
X3176499Y14608583D01*
X3145800Y14494012D01*
X3145800Y14375389D01*
X3176499Y14260818D01*
X3176501Y14260813D01*
X3235808Y14158091D01*
X3235809Y14158090D01*
X3235811Y14158087D01*
X3290100Y14103798D01*
X3323117Y14070781D01*
X3321193Y14068858D01*
X3345166Y14027351D01*
X3345800Y14017681D01*
X3345800Y13176613D01*
X3324126Y13124287D01*
X3271800Y13102613D01*
X3219474Y13124287D01*
X1558474Y14785287D01*
X1536800Y14837613D01*
X1536800Y16672981D01*
X1558474Y16725307D01*
X1560382Y16726981D01*
X1562910Y16729510D01*
X1562913Y16729511D01*
X1646789Y16813387D01*
X1706099Y16916114D01*
X1736799Y17030689D01*
X1736800Y17030689D01*
X1736800Y17149311D01*
X1736799Y17149312D01*
X1706100Y17263883D01*
X1706098Y17263888D01*
X1646791Y17366610D01*
X1646790Y17366611D01*
X1646789Y17366613D01*
X1562913Y17450489D01*
X1562910Y17450491D01*
X1562909Y17450492D01*
X1460187Y17509799D01*
X1460182Y17509801D01*
X1345611Y17540500D01*
X1345609Y17540500D01*
X1226991Y17540500D01*
X1226989Y17540500D01*
X1112417Y17509801D01*
X1112411Y17509798D01*
X1089500Y17496570D01*
X1033347Y17489178D01*
X988414Y17523656D01*
X978500Y17560656D01*
X978500Y17899889D01*
X1000173Y17952214D01*
X2197397Y19149438D01*
X4524500Y19149438D01*
X4524500Y19050563D01*
X4550088Y18955066D01*
X4550090Y18955061D01*
X4586029Y18892814D01*
X4599525Y18869438D01*
X4669438Y18799525D01*
X4714709Y18773388D01*
X4752640Y18751488D01*
X4755062Y18750090D01*
X4755063Y18750090D01*
X4755065Y18750089D01*
X4779716Y18743484D01*
X4850562Y18724501D01*
X4850563Y18724500D01*
X4850565Y18724500D01*
X4949437Y18724500D01*
X4949437Y18724501D01*
X5044938Y18750090D01*
X5130562Y18799525D01*
X5158863Y18827826D01*
X5211189Y18849500D01*
X6067899Y18849500D01*
X6099001Y18842647D01*
X6106622Y18839117D01*
X6108103Y18837636D01*
X6122900Y18831507D01*
X6124330Y18830915D01*
X6124338Y18830911D01*
X6179858Y18807914D01*
X6203866Y18791873D01*
X6208103Y18787636D01*
X6242506Y18773386D01*
X6300173Y18749499D01*
X6317901Y18749499D01*
X6347124Y18743484D01*
X6356123Y18739616D01*
X6358103Y18737636D01*
X6387402Y18725500D01*
X6430325Y18707721D01*
X6430762Y18707533D01*
X6431382Y18706896D01*
X6453865Y18691874D01*
X6458103Y18687636D01*
X6483385Y18677164D01*
X6529860Y18657914D01*
X6529864Y18657910D01*
X6553866Y18641873D01*
X6558102Y18637637D01*
X6558105Y18637635D01*
X6571268Y18632183D01*
X6587402Y18625500D01*
X6629861Y18607913D01*
X6638213Y18603821D01*
X6646841Y18598898D01*
X6658103Y18587636D01*
X6684713Y18576614D01*
X6689026Y18574828D01*
X6689027Y18574827D01*
X6729858Y18557914D01*
X6753866Y18541873D01*
X6758103Y18537636D01*
X6775404Y18530470D01*
X6775405Y18530469D01*
X6775406Y18530469D01*
X6850173Y18499499D01*
X6867902Y18499499D01*
X6897125Y18493484D01*
X6906122Y18489617D01*
X6908103Y18487636D01*
X6946240Y18471840D01*
X6980311Y18457727D01*
X6980762Y18457533D01*
X6981382Y18456896D01*
X7003865Y18441874D01*
X7008103Y18437636D01*
X7043406Y18423013D01*
X7079859Y18407914D01*
X7092609Y18401105D01*
X7098693Y18397046D01*
X7108103Y18387636D01*
X7113772Y18385288D01*
X7120480Y18382510D01*
X7120484Y18382507D01*
X7179858Y18357914D01*
X7203866Y18341873D01*
X7208103Y18337636D01*
X7228818Y18329056D01*
X7268866Y18289009D01*
X7274500Y18260689D01*
X7274500Y18186189D01*
X7252826Y18133863D01*
X7199525Y18080563D01*
X7150090Y17994940D01*
X7150088Y17994935D01*
X7124500Y17899438D01*
X7124500Y17800563D01*
X7150088Y17705066D01*
X7150090Y17705061D01*
X7188722Y17638149D01*
X7199525Y17619438D01*
X7269438Y17549525D01*
X7330297Y17514388D01*
X7338245Y17509799D01*
X7355062Y17500090D01*
X7355063Y17500090D01*
X7355065Y17500089D01*
X7395786Y17489178D01*
X7450562Y17474501D01*
X7450563Y17474500D01*
X7450565Y17474500D01*
X7549437Y17474500D01*
X7549437Y17474501D01*
X7644938Y17500090D01*
X7730562Y17549525D01*
X7800475Y17619438D01*
X7849910Y17705062D01*
X7875499Y17800563D01*
X7875500Y17800563D01*
X7875500Y17899437D01*
X7875499Y17899438D01*
X7875023Y17901213D01*
X7849910Y17994938D01*
X7800475Y18080562D01*
X7747174Y18133863D01*
X7725500Y18186189D01*
X7725500Y18375096D01*
X7731133Y18403415D01*
X7750501Y18450172D01*
X7750501Y18549827D01*
X7734840Y18587636D01*
X7712364Y18641896D01*
X7712361Y18641899D01*
X7712360Y18641901D01*
X7662364Y18691898D01*
X7662364Y18691897D01*
X7591897Y18762364D01*
X7591896Y18762365D01*
X7591894Y18762366D01*
X7499828Y18800500D01*
X7482101Y18800500D01*
X7452878Y18806515D01*
X7443876Y18810385D01*
X7441897Y18812364D01*
X7369710Y18842265D01*
X7369237Y18842468D01*
X7368616Y18843106D01*
X7346134Y18858127D01*
X7341898Y18862363D01*
X7341894Y18862366D01*
X7270142Y18892086D01*
X7246134Y18908127D01*
X7241898Y18912363D01*
X7241894Y18912366D01*
X7170142Y18942086D01*
X7146134Y18958127D01*
X7141898Y18962363D01*
X7141894Y18962366D01*
X7049828Y19000500D01*
X7032101Y19000500D01*
X7002878Y19006515D01*
X6993876Y19010385D01*
X6991897Y19012364D01*
X6919710Y19042265D01*
X6919237Y19042468D01*
X6918616Y19043106D01*
X6896134Y19058127D01*
X6891898Y19062363D01*
X6891894Y19062366D01*
X6820142Y19092086D01*
X6796134Y19108127D01*
X6791898Y19112363D01*
X6791894Y19112366D01*
X6720142Y19142086D01*
X6696134Y19158127D01*
X6691898Y19162363D01*
X6691894Y19162366D01*
X6620142Y19192086D01*
X6596134Y19208127D01*
X6591898Y19212363D01*
X6591894Y19212366D01*
X6499828Y19250500D01*
X6482101Y19250500D01*
X6452878Y19256515D01*
X6443876Y19260385D01*
X6441897Y19262364D01*
X6369710Y19292265D01*
X6369237Y19292468D01*
X6368616Y19293106D01*
X6346134Y19308127D01*
X6341898Y19312363D01*
X6341894Y19312366D01*
X6249828Y19350500D01*
X5211189Y19350500D01*
X5158863Y19372174D01*
X5130562Y19400475D01*
X5044939Y19449910D01*
X5044934Y19449912D01*
X4949437Y19475500D01*
X4949435Y19475500D01*
X4850565Y19475500D01*
X4850563Y19475500D01*
X4755065Y19449912D01*
X4755060Y19449910D01*
X4669437Y19400475D01*
X4599525Y19330563D01*
X4550090Y19244940D01*
X4550088Y19244935D01*
X4524500Y19149438D01*
X2197397Y19149438D01*
X3563670Y20515712D01*
X5133500Y20515712D01*
X5133500Y20397089D01*
X5164199Y20282518D01*
X5164201Y20282513D01*
X5223508Y20179791D01*
X5223509Y20179790D01*
X5223511Y20179787D01*
X5307387Y20095911D01*
X5307389Y20095910D01*
X5307390Y20095909D01*
X5407852Y20037907D01*
X5410114Y20036601D01*
X5410115Y20036601D01*
X5410117Y20036600D01*
X5412420Y20035983D01*
X5524688Y20005901D01*
X5524689Y20005900D01*
X5524691Y20005900D01*
X5643311Y20005900D01*
X5643311Y20005901D01*
X5757886Y20036601D01*
X5860613Y20095911D01*
X5944489Y20179787D01*
X5984702Y20249438D01*
X7424500Y20249438D01*
X7424500Y20150563D01*
X7450088Y20055066D01*
X7450090Y20055061D01*
X7496218Y19975166D01*
X7499525Y19969438D01*
X7569438Y19899525D01*
X7655062Y19850090D01*
X7655063Y19850090D01*
X7655065Y19850089D01*
X7702813Y19837295D01*
X7750562Y19824501D01*
X7750563Y19824500D01*
X7750565Y19824500D01*
X7849437Y19824500D01*
X7849437Y19824501D01*
X7944938Y19850090D01*
X8030562Y19899525D01*
X8100475Y19969438D01*
X8149910Y20055062D01*
X8175499Y20150563D01*
X8175500Y20150563D01*
X8175500Y20249437D01*
X8175499Y20249438D01*
X8149911Y20344935D01*
X8149909Y20344940D01*
X8121044Y20394935D01*
X8100475Y20430562D01*
X8030562Y20500475D01*
X8006270Y20514500D01*
X7944939Y20549910D01*
X7944934Y20549912D01*
X7849437Y20575500D01*
X7849435Y20575500D01*
X7750565Y20575500D01*
X7750563Y20575500D01*
X7655065Y20549912D01*
X7655060Y20549910D01*
X7569437Y20500475D01*
X7499525Y20430563D01*
X7450090Y20344940D01*
X7450088Y20344935D01*
X7424500Y20249438D01*
X5984702Y20249438D01*
X6003799Y20282514D01*
X6034499Y20397089D01*
X6034500Y20397089D01*
X6034500Y20515711D01*
X6034499Y20515712D01*
X6029635Y20533863D01*
X6003799Y20630286D01*
X5993622Y20647913D01*
X5944491Y20733010D01*
X5944490Y20733011D01*
X5944489Y20733013D01*
X5860613Y20816889D01*
X5860610Y20816891D01*
X5860609Y20816892D01*
X5757887Y20876199D01*
X5757882Y20876201D01*
X5643311Y20906900D01*
X5643309Y20906900D01*
X5524691Y20906900D01*
X5524689Y20906900D01*
X5410117Y20876201D01*
X5410112Y20876199D01*
X5307390Y20816892D01*
X5223508Y20733010D01*
X5164201Y20630288D01*
X5164199Y20630283D01*
X5133500Y20515712D01*
X3563670Y20515712D01*
X3722952Y20674994D01*
X3775277Y20696667D01*
X3777814Y20696500D01*
X3781391Y20696500D01*
X3900011Y20696500D01*
X3900011Y20696501D01*
X4014586Y20727201D01*
X4117313Y20786511D01*
X4201189Y20870387D01*
X4260499Y20973114D01*
X4291199Y21087689D01*
X4291200Y21087689D01*
X4291200Y21206311D01*
X4291199Y21206312D01*
X4260500Y21320883D01*
X4260498Y21320888D01*
X4201191Y21423610D01*
X4201190Y21423611D01*
X4201189Y21423613D01*
X4117313Y21507489D01*
X4117310Y21507491D01*
X4117309Y21507492D01*
X4014587Y21566799D01*
X4014583Y21566800D01*
X3990886Y21573150D01*
X3945953Y21607629D01*
X3938562Y21663782D01*
X3957712Y21696952D01*
X4531229Y22270470D01*
X4583553Y22292142D01*
X4635879Y22270468D01*
X4657553Y22218142D01*
X4647639Y22181143D01*
X4596803Y22093092D01*
X4596799Y22093083D01*
X4566100Y21978512D01*
X4566100Y21859889D01*
X4596799Y21745318D01*
X4596801Y21745313D01*
X4656108Y21642591D01*
X4656109Y21642590D01*
X4656111Y21642587D01*
X4739987Y21558711D01*
X4739989Y21558710D01*
X4739990Y21558709D01*
X4793209Y21527983D01*
X4842714Y21499401D01*
X4842715Y21499401D01*
X4842717Y21499400D01*
X4900002Y21484051D01*
X4957288Y21468701D01*
X4957289Y21468700D01*
X4957291Y21468700D01*
X5075911Y21468700D01*
X5075911Y21468701D01*
X5190486Y21499401D01*
X5293213Y21558711D01*
X5377089Y21642587D01*
X5436399Y21745314D01*
X5467099Y21859889D01*
X5467100Y21859889D01*
X5467100Y21978511D01*
X5467099Y21978512D01*
X5436400Y22093083D01*
X5436398Y22093088D01*
X5377091Y22195810D01*
X5377090Y22195811D01*
X5377089Y22195813D01*
X5293213Y22279689D01*
X5293210Y22279691D01*
X5293209Y22279692D01*
X5190487Y22338999D01*
X5190482Y22339001D01*
X5075911Y22369700D01*
X5075909Y22369700D01*
X4957291Y22369700D01*
X4957289Y22369700D01*
X4842717Y22339001D01*
X4842708Y22338997D01*
X4754657Y22288161D01*
X4698505Y22280769D01*
X4653572Y22315248D01*
X4646180Y22371400D01*
X4665330Y22404570D01*
X5243300Y22982541D01*
X5267302Y22998578D01*
X5306797Y23014936D01*
X5575073Y23283212D01*
X8985400Y23283212D01*
X8985400Y23164589D01*
X9016099Y23050018D01*
X9016101Y23050013D01*
X9075408Y22947291D01*
X9075409Y22947290D01*
X9075411Y22947287D01*
X9159287Y22863411D01*
X9159289Y22863410D01*
X9159290Y22863409D01*
X9262012Y22804102D01*
X9262014Y22804101D01*
X9262015Y22804101D01*
X9262017Y22804100D01*
X9279782Y22799340D01*
X9376588Y22773401D01*
X9376589Y22773400D01*
X9376591Y22773400D01*
X9495211Y22773400D01*
X9495211Y22773401D01*
X9609786Y22804101D01*
X9712513Y22863411D01*
X9796389Y22947287D01*
X9855699Y23050014D01*
X9886399Y23164589D01*
X9886400Y23164589D01*
X9886400Y23283211D01*
X9886399Y23283212D01*
X9873333Y23331973D01*
X9864721Y23364116D01*
X9872113Y23420267D01*
X9917046Y23454746D01*
X9973198Y23447354D01*
X10055062Y23400090D01*
X10055063Y23400090D01*
X10055065Y23400089D01*
X10074599Y23394855D01*
X10150562Y23374501D01*
X10150563Y23374500D01*
X10150565Y23374500D01*
X10249437Y23374500D01*
X10249437Y23374501D01*
X10344938Y23400090D01*
X10354471Y23405595D01*
X10410622Y23412988D01*
X10455035Y23379400D01*
X10457785Y23374787D01*
X10458830Y23372264D01*
X10459966Y23371128D01*
X10464062Y23364257D01*
X10465041Y23357545D01*
X10474499Y23326366D01*
X10474499Y23305145D01*
X10487193Y23274500D01*
X10508829Y23222266D01*
X10508831Y23222263D01*
X10513065Y23218029D01*
X10529105Y23194023D01*
X10543683Y23158831D01*
X10543684Y23158830D01*
X10558829Y23122265D01*
X10563066Y23118028D01*
X10579106Y23094022D01*
X10595210Y23055145D01*
X10608830Y23022264D01*
X10613067Y23018027D01*
X10629105Y22994026D01*
X10633863Y22982538D01*
X10643684Y22958831D01*
X10643684Y22958830D01*
X10658829Y22922265D01*
X10663066Y22918028D01*
X10679106Y22894022D01*
X10688904Y22870370D01*
X10695986Y22853272D01*
X10708829Y22822265D01*
X10712028Y22817478D01*
X10724499Y22776366D01*
X10724499Y22755145D01*
X10735853Y22727735D01*
X10758829Y22672266D01*
X10758831Y22672263D01*
X10763065Y22668029D01*
X10779105Y22644023D01*
X10793683Y22608831D01*
X10793684Y22608830D01*
X10808829Y22572265D01*
X10813065Y22568029D01*
X10829105Y22544024D01*
X10829106Y22544023D01*
X10840384Y22516797D01*
X10840383Y22516797D01*
X10840384Y22516796D01*
X10858829Y22472266D01*
X10862028Y22467478D01*
X10874500Y22426365D01*
X10874500Y22400827D01*
X10874499Y22400813D01*
X10874499Y22394855D01*
X10874499Y22305145D01*
X10885044Y22279689D01*
X10908830Y22222264D01*
X10912742Y22218352D01*
X10917959Y22206784D01*
X10918264Y22196922D01*
X10924500Y22176365D01*
X10924500Y20586189D01*
X10902826Y20533863D01*
X10849525Y20480563D01*
X10800090Y20394940D01*
X10800088Y20394935D01*
X10774500Y20299438D01*
X10774500Y20200563D01*
X10800088Y20105066D01*
X10800090Y20105061D01*
X10839973Y20035983D01*
X10849525Y20019438D01*
X10919438Y19949525D01*
X11005062Y19900090D01*
X11005063Y19900090D01*
X11005065Y19900089D01*
X11052813Y19887295D01*
X11100562Y19874501D01*
X11100563Y19874500D01*
X11100565Y19874500D01*
X11199437Y19874500D01*
X11199437Y19874501D01*
X11294938Y19900090D01*
X11380562Y19949525D01*
X11450475Y20019438D01*
X11499910Y20105062D01*
X11525499Y20200563D01*
X11525500Y20200563D01*
X11525500Y20299437D01*
X11525499Y20299438D01*
X11499911Y20394935D01*
X11499909Y20394940D01*
X11470418Y20446019D01*
X11450475Y20480562D01*
X11397174Y20533863D01*
X11375500Y20586189D01*
X11375500Y22246525D01*
X11375501Y22246534D01*
X11375501Y22344854D01*
X11364505Y22371400D01*
X11349001Y22408830D01*
X11341170Y22427736D01*
X11338055Y22430851D01*
X11333041Y22441090D01*
X11332432Y22450781D01*
X11325500Y22473636D01*
X11325500Y22496525D01*
X11325501Y22496534D01*
X11325501Y22594854D01*
X11325500Y22594856D01*
X11319711Y22608831D01*
X11304790Y22644855D01*
X11291170Y22677736D01*
X11286930Y22681976D01*
X11273071Y22701204D01*
X11271903Y22703540D01*
X11248018Y22761203D01*
X11241170Y22777736D01*
X11228440Y22790466D01*
X11223071Y22801205D01*
X11222950Y22802901D01*
X11220892Y22805981D01*
X11199001Y22858830D01*
X11197104Y22863409D01*
X11191170Y22877736D01*
X11191169Y22877737D01*
X11191169Y22877738D01*
X11187970Y22882526D01*
X11175501Y22923635D01*
X11175501Y22944854D01*
X11175500Y22944856D01*
X11174491Y22947291D01*
X11146472Y23014936D01*
X11141170Y23027736D01*
X11136930Y23031976D01*
X11123071Y23051204D01*
X11121903Y23053540D01*
X11096253Y23115464D01*
X11091170Y23127736D01*
X11078440Y23140466D01*
X11073071Y23151205D01*
X11072950Y23152900D01*
X11070892Y23155980D01*
X11069711Y23158830D01*
X11044622Y23219401D01*
X11041170Y23227736D01*
X11036933Y23231973D01*
X11020892Y23255981D01*
X10999001Y23308830D01*
X10991170Y23327736D01*
X10986933Y23331973D01*
X10971652Y23354211D01*
X10971265Y23355080D01*
X10954790Y23394855D01*
X10941170Y23427736D01*
X10937133Y23431773D01*
X10931894Y23443545D01*
X10931637Y23453406D01*
X10925501Y23473633D01*
X10925501Y23494854D01*
X10925500Y23494856D01*
X10921285Y23505031D01*
X10902730Y23549828D01*
X10897185Y23563216D01*
X10897183Y23563219D01*
X10894582Y23569499D01*
X10891170Y23577736D01*
X10881431Y23587475D01*
X10877197Y23593995D01*
X10876543Y23597522D01*
X10870892Y23605980D01*
X10855268Y23643699D01*
X10849001Y23658830D01*
X10841170Y23677736D01*
X10836933Y23681973D01*
X10820892Y23705980D01*
X10800527Y23755145D01*
X10797873Y23761552D01*
X10791170Y23777736D01*
X10786933Y23781973D01*
X10770892Y23805981D01*
X10750098Y23856183D01*
X10750095Y23856187D01*
X10747931Y23861413D01*
X10741170Y23877736D01*
X10730621Y23888285D01*
X10725992Y23895915D01*
X10725505Y23899076D01*
X10720892Y23905981D01*
X10697731Y23961897D01*
X10691170Y23977736D01*
X10687970Y23982526D01*
X10675501Y24023635D01*
X10675501Y24044854D01*
X10669641Y24059001D01*
X10649001Y24108830D01*
X10641170Y24127736D01*
X10630416Y24138490D01*
X10625697Y24146406D01*
X10625252Y24149455D01*
X10620892Y24155980D01*
X10615948Y24167915D01*
X10600527Y24205145D01*
X10591170Y24227736D01*
X10586933Y24231973D01*
X10570892Y24255980D01*
X10550527Y24305145D01*
X10541170Y24327736D01*
X10536933Y24331973D01*
X10520892Y24355980D01*
X10491170Y24427735D01*
X10491170Y24427736D01*
X10488646Y24430260D01*
X10483269Y24441051D01*
X10482074Y24458188D01*
X10475501Y24474057D01*
X10475501Y24494854D01*
X10475500Y24494856D01*
X10454790Y24544855D01*
X10441170Y24577735D01*
X10441170Y24577736D01*
X10377736Y24641170D01*
X10327736Y24691170D01*
X10303463Y24701225D01*
X10303458Y24701227D01*
X10303458Y24701228D01*
X10244855Y24725501D01*
X10155145Y24725501D01*
X10096539Y24701226D01*
X10096537Y24701225D01*
X10096536Y24701226D01*
X10072263Y24691170D01*
X10008831Y24627737D01*
X10008830Y24627735D01*
X9974499Y24544856D01*
X9974499Y24446534D01*
X9974500Y24446525D01*
X9974500Y24086189D01*
X9952826Y24033863D01*
X9899525Y23980563D01*
X9850090Y23894940D01*
X9850088Y23894935D01*
X9824500Y23799438D01*
X9824500Y23700566D01*
X9836535Y23655649D01*
X9829142Y23599497D01*
X9784208Y23565018D01*
X9728056Y23572411D01*
X9712734Y23584168D01*
X9712513Y23584389D01*
X9712510Y23584391D01*
X9712509Y23584392D01*
X9609787Y23643699D01*
X9609782Y23643701D01*
X9495211Y23674400D01*
X9495209Y23674400D01*
X9376591Y23674400D01*
X9376589Y23674400D01*
X9262017Y23643701D01*
X9262012Y23643699D01*
X9159290Y23584392D01*
X9075408Y23500510D01*
X9016101Y23397788D01*
X9016099Y23397783D01*
X8985400Y23283212D01*
X5575073Y23283212D01*
X7761872Y25470012D01*
X15095500Y25470012D01*
X15095500Y25351389D01*
X15126199Y25236818D01*
X15126201Y25236813D01*
X15185508Y25134091D01*
X15185509Y25134090D01*
X15185511Y25134087D01*
X15269387Y25050211D01*
X15372114Y24990901D01*
X15372115Y24990901D01*
X15372117Y24990900D01*
X15429402Y24975551D01*
X15486688Y24960201D01*
X15486689Y24960200D01*
X15486691Y24960200D01*
X15605311Y24960200D01*
X15605311Y24960201D01*
X15719886Y24990901D01*
X15822613Y25050211D01*
X15906489Y25134087D01*
X15965799Y25236814D01*
X15970009Y25252530D01*
X16004486Y25297463D01*
X16060638Y25304857D01*
X16105573Y25270380D01*
X16112966Y25252532D01*
X16130200Y25188217D01*
X16130201Y25188214D01*
X16189508Y25085491D01*
X16189509Y25085490D01*
X16189511Y25085487D01*
X16273387Y25001611D01*
X16273389Y25001610D01*
X16273390Y25001609D01*
X16345112Y24960200D01*
X16376114Y24942301D01*
X16376115Y24942301D01*
X16376117Y24942300D01*
X16433402Y24926951D01*
X16490688Y24911601D01*
X16490689Y24911600D01*
X16490691Y24911600D01*
X16609311Y24911600D01*
X16609311Y24911601D01*
X16723886Y24942301D01*
X16826613Y25001611D01*
X16910489Y25085487D01*
X16969799Y25188214D01*
X16969800Y25188217D01*
X16969802Y25188222D01*
X16999706Y25299828D01*
X17000499Y25302789D01*
X17000500Y25302789D01*
X17000500Y25421411D01*
X17000499Y25421412D01*
X16969800Y25535983D01*
X16969798Y25535988D01*
X16910491Y25638710D01*
X16910490Y25638711D01*
X16910489Y25638713D01*
X16826613Y25722589D01*
X16826610Y25722591D01*
X16826609Y25722592D01*
X16723887Y25781899D01*
X16723882Y25781901D01*
X16609311Y25812600D01*
X16609309Y25812600D01*
X16490691Y25812600D01*
X16490689Y25812600D01*
X16376117Y25781901D01*
X16376112Y25781899D01*
X16273390Y25722592D01*
X16189508Y25638710D01*
X16130201Y25535988D01*
X16130200Y25535984D01*
X16125989Y25520269D01*
X16091509Y25475336D01*
X16035357Y25467945D01*
X15990424Y25502425D01*
X15983033Y25520270D01*
X15965800Y25584583D01*
X15965798Y25584588D01*
X15906491Y25687310D01*
X15906490Y25687311D01*
X15906489Y25687313D01*
X15822613Y25771189D01*
X15822610Y25771191D01*
X15822609Y25771192D01*
X15719887Y25830499D01*
X15719882Y25830501D01*
X15605311Y25861200D01*
X15605309Y25861200D01*
X15486691Y25861200D01*
X15486689Y25861200D01*
X15372117Y25830501D01*
X15372112Y25830499D01*
X15269390Y25771192D01*
X15185508Y25687310D01*
X15126201Y25584588D01*
X15126199Y25584583D01*
X15095500Y25470012D01*
X7761872Y25470012D01*
X8494471Y26202612D01*
X16893700Y26202612D01*
X16893700Y26083989D01*
X16924399Y25969418D01*
X16924401Y25969413D01*
X16983708Y25866691D01*
X16983709Y25866690D01*
X16983711Y25866687D01*
X17067587Y25782811D01*
X17067589Y25782810D01*
X17067590Y25782809D01*
X17170312Y25723502D01*
X17170314Y25723501D01*
X17170315Y25723501D01*
X17170317Y25723500D01*
X17227602Y25708151D01*
X17284888Y25692801D01*
X17284889Y25692800D01*
X17284891Y25692800D01*
X17403511Y25692800D01*
X17403511Y25692801D01*
X17518086Y25723501D01*
X17620813Y25782811D01*
X17704689Y25866687D01*
X17763999Y25969414D01*
X17794699Y26083989D01*
X17794700Y26083989D01*
X17794700Y26202611D01*
X17794699Y26202612D01*
X17764000Y26317183D01*
X17763998Y26317188D01*
X17704691Y26419910D01*
X17704690Y26419911D01*
X17704689Y26419913D01*
X17620813Y26503789D01*
X17620810Y26503791D01*
X17620809Y26503792D01*
X17518087Y26563099D01*
X17518082Y26563101D01*
X17403511Y26593800D01*
X17403509Y26593800D01*
X17284891Y26593800D01*
X17284889Y26593800D01*
X17170317Y26563101D01*
X17170312Y26563099D01*
X17067590Y26503792D01*
X16983708Y26419910D01*
X16924401Y26317188D01*
X16924399Y26317183D01*
X16893700Y26202612D01*
X8494471Y26202612D01*
X9220286Y26928427D01*
X9272612Y26950100D01*
X17782981Y26950100D01*
X17835307Y26928426D01*
X17836980Y26926518D01*
X17839510Y26923988D01*
X17839511Y26923987D01*
X17923387Y26840111D01*
X17923389Y26840110D01*
X17923390Y26840109D01*
X18026112Y26780802D01*
X18026114Y26780801D01*
X18026115Y26780801D01*
X18026117Y26780800D01*
X18083402Y26765451D01*
X18140688Y26750101D01*
X18140689Y26750100D01*
X18140691Y26750100D01*
X18259311Y26750100D01*
X18259311Y26750101D01*
X18373886Y26780801D01*
X18476613Y26840111D01*
X18560489Y26923987D01*
X18619799Y27026714D01*
X18650499Y27141289D01*
X18650500Y27141289D01*
X18650500Y27264760D01*
X18653230Y27264760D01*
X18665595Y27311031D01*
X18671999Y27318340D01*
X19765887Y28412226D01*
X19818213Y28433900D01*
X21329687Y28433900D01*
X21382013Y28412226D01*
X21403687Y28359900D01*
X21382013Y28307574D01*
X21316335Y28241896D01*
X21086146Y28011708D01*
X21033820Y27990034D01*
X21031287Y27990200D01*
X21027709Y27990200D01*
X20909091Y27990200D01*
X20909089Y27990200D01*
X20794517Y27959501D01*
X20794512Y27959499D01*
X20691790Y27900192D01*
X20607908Y27816310D01*
X20548601Y27713588D01*
X20548599Y27713583D01*
X20517900Y27599012D01*
X20517900Y27480389D01*
X20548599Y27365818D01*
X20548601Y27365813D01*
X20607908Y27263091D01*
X20607909Y27263090D01*
X20607911Y27263087D01*
X20691787Y27179211D01*
X20691789Y27179210D01*
X20691790Y27179209D01*
X20757469Y27141289D01*
X20794514Y27119901D01*
X20794515Y27119901D01*
X20794517Y27119900D01*
X20851802Y27104551D01*
X20909088Y27089201D01*
X20909089Y27089200D01*
X20909091Y27089200D01*
X21027711Y27089200D01*
X21027711Y27089201D01*
X21142286Y27119901D01*
X21245013Y27179211D01*
X21328889Y27263087D01*
X21388199Y27365814D01*
X21418899Y27480389D01*
X21418900Y27480389D01*
X21418900Y27603859D01*
X21421625Y27603859D01*
X21434004Y27650144D01*
X21440398Y27657440D01*
X21610786Y27827826D01*
X21663112Y27849500D01*
X22725187Y27849500D01*
X22777513Y27827826D01*
X22955195Y27650144D01*
X23127792Y27477548D01*
X23149466Y27425222D01*
X23149300Y27422686D01*
X23149300Y27300489D01*
X23179999Y27185918D01*
X23180001Y27185913D01*
X23239308Y27083191D01*
X23239309Y27083190D01*
X23239311Y27083187D01*
X23323187Y26999311D01*
X23425914Y26940001D01*
X23425915Y26940001D01*
X23425917Y26940000D01*
X23469112Y26928426D01*
X23540488Y26909301D01*
X23540489Y26909300D01*
X23540491Y26909300D01*
X23659111Y26909300D01*
X23659111Y26909301D01*
X23773686Y26940001D01*
X23876413Y26999311D01*
X23960289Y27083187D01*
X24019599Y27185914D01*
X24050299Y27300489D01*
X24050300Y27300489D01*
X24050300Y27419111D01*
X24050299Y27419112D01*
X24049341Y27422686D01*
X24019599Y27533686D01*
X24003776Y27561092D01*
X23960291Y27636410D01*
X23960290Y27636411D01*
X23960289Y27636413D01*
X23876413Y27720289D01*
X23876410Y27720291D01*
X23876409Y27720292D01*
X23773687Y27779599D01*
X23773682Y27779601D01*
X23659111Y27810300D01*
X23659109Y27810300D01*
X23540491Y27810300D01*
X23535641Y27810300D01*
X23535641Y27813013D01*
X23489317Y27825436D01*
X23482052Y27831808D01*
X23246306Y28067554D01*
X23001497Y28312364D01*
X23001494Y28312366D01*
X22909428Y28350500D01*
X22245387Y28350500D01*
X22193061Y28372174D01*
X22171387Y28424500D01*
X22181301Y28461500D01*
X22209598Y28510513D01*
X22209599Y28510514D01*
X22240299Y28625089D01*
X22240300Y28625089D01*
X22240300Y28743711D01*
X22240299Y28743712D01*
X22209600Y28858283D01*
X22209598Y28858288D01*
X22150291Y28961010D01*
X22150290Y28961011D01*
X22150289Y28961013D01*
X22066413Y29044889D01*
X22066410Y29044891D01*
X22066409Y29044892D01*
X21963687Y29104199D01*
X21963682Y29104201D01*
X21849111Y29134900D01*
X21849109Y29134900D01*
X21730491Y29134900D01*
X21730489Y29134900D01*
X21615917Y29104201D01*
X21615912Y29104199D01*
X21513190Y29044892D01*
X21425881Y28957583D01*
X21423957Y28959507D01*
X21382451Y28935534D01*
X21372781Y28934900D01*
X19633972Y28934900D01*
X19541905Y28896766D01*
X19541901Y28896763D01*
X18317746Y27672609D01*
X18265420Y27650935D01*
X18262885Y27651100D01*
X18259309Y27651100D01*
X18140691Y27651100D01*
X18140689Y27651100D01*
X18026117Y27620401D01*
X18026112Y27620399D01*
X17923390Y27561092D01*
X17836081Y27473783D01*
X17834157Y27475707D01*
X17792651Y27451734D01*
X17782981Y27451100D01*
X9196648Y27451100D01*
X9196640Y27451101D01*
X9188028Y27451101D01*
X9088372Y27451101D01*
X9023269Y27424135D01*
X9023267Y27424134D01*
X9023266Y27424135D01*
X8996302Y27412964D01*
X8925835Y27342496D01*
X5484353Y23901015D01*
X5432027Y23879341D01*
X5379701Y23901015D01*
X5360549Y23934187D01*
X5354199Y23957886D01*
X5351883Y23961897D01*
X5294891Y24060610D01*
X5294890Y24060611D01*
X5294889Y24060613D01*
X5211013Y24144489D01*
X5211010Y24144491D01*
X5211009Y24144492D01*
X5108287Y24203799D01*
X5108282Y24203801D01*
X4993711Y24234500D01*
X4993709Y24234500D01*
X4875091Y24234500D01*
X4875089Y24234500D01*
X4760517Y24203801D01*
X4760512Y24203799D01*
X4657790Y24144492D01*
X4570481Y24057183D01*
X4570229Y24057435D01*
X4569707Y24056174D01*
X4547691Y24047055D01*
X4527051Y24035134D01*
X4517381Y24034500D01*
X4463348Y24034500D01*
X4463340Y24034501D01*
X4454728Y24034501D01*
X4355073Y24034501D01*
X4310409Y24016000D01*
X4310408Y24016000D01*
X4263005Y23996366D01*
X4192535Y23925896D01*
X2092746Y21826109D01*
X2040420Y21804435D01*
X2037885Y21804600D01*
X2034309Y21804600D01*
X1915691Y21804600D01*
X1915689Y21804600D01*
X1801117Y21773901D01*
X1801112Y21773899D01*
X1698390Y21714592D01*
X1614508Y21630710D01*
X1555201Y21527988D01*
X1555199Y21527983D01*
X1524500Y21413412D01*
X1524500Y21294789D01*
X1555199Y21180218D01*
X1555201Y21180213D01*
X1614508Y21077491D01*
X1614509Y21077490D01*
X1614511Y21077487D01*
X1698387Y20993611D01*
X1698389Y20993610D01*
X1698390Y20993609D01*
X1779304Y20946893D01*
X1801114Y20934301D01*
X1801115Y20934301D01*
X1801117Y20934300D01*
X1855195Y20919810D01*
X1915688Y20903601D01*
X1915689Y20903600D01*
X1915691Y20903600D01*
X2034311Y20903600D01*
X2034311Y20903601D01*
X2148886Y20934301D01*
X2251613Y20993611D01*
X2335489Y21077487D01*
X2394799Y21180214D01*
X2425499Y21294789D01*
X2425500Y21294789D01*
X2425500Y21418260D01*
X2428230Y21418260D01*
X2440595Y21464531D01*
X2446999Y21471840D01*
X4475904Y23500745D01*
X4528229Y23522418D01*
X4580553Y23500745D01*
X4657787Y23423511D01*
X4657789Y23423510D01*
X4657790Y23423509D01*
X4760512Y23364202D01*
X4764993Y23362346D01*
X4764365Y23360832D01*
X4804617Y23329944D01*
X4812009Y23273791D01*
X4792857Y23240619D01*
X376826Y18824587D01*
X324500Y18802913D01*
X272174Y18824587D01*
X250500Y18876913D01*
X250500Y27322512D01*
X6901500Y27322512D01*
X6901500Y27203889D01*
X6932199Y27089318D01*
X6932201Y27089313D01*
X6991508Y26986591D01*
X6991509Y26986590D01*
X6991511Y26986587D01*
X7075387Y26902711D01*
X7178114Y26843401D01*
X7178115Y26843401D01*
X7178117Y26843400D01*
X7235402Y26828051D01*
X7292688Y26812701D01*
X7292689Y26812700D01*
X7292691Y26812700D01*
X7411311Y26812700D01*
X7411311Y26812701D01*
X7525886Y26843401D01*
X7628613Y26902711D01*
X7712489Y26986587D01*
X7771799Y27089314D01*
X7802499Y27203889D01*
X7802500Y27203889D01*
X7802500Y27322511D01*
X7802499Y27322512D01*
X7771800Y27437083D01*
X7771798Y27437088D01*
X7712491Y27539810D01*
X7712490Y27539811D01*
X7712489Y27539813D01*
X7628613Y27623689D01*
X7628610Y27623691D01*
X7628609Y27623692D01*
X7525887Y27682999D01*
X7525882Y27683001D01*
X7411311Y27713700D01*
X7411309Y27713700D01*
X7292691Y27713700D01*
X7292689Y27713700D01*
X7178117Y27683001D01*
X7178112Y27682999D01*
X7075390Y27623692D01*
X6991508Y27539810D01*
X6932201Y27437088D01*
X6932199Y27437083D01*
X6901500Y27322512D01*
X250500Y27322512D01*
X250500Y30109107D01*
X272174Y30161433D01*
X324500Y30183107D01*
X376826Y30161433D01*
X394573Y30132893D01*
X412614Y30079745D01*
X612211Y29675003D01*
X612217Y29674992D01*
X861812Y29301447D01*
X862930Y29299774D01*
X1160481Y28960482D01*
X1499773Y28662931D01*
X1556405Y28625091D01*
X1874990Y28412219D01*
X1874995Y28412216D01*
X1875000Y28412213D01*
X2279742Y28212616D01*
X2707074Y28067556D01*
X2707078Y28067556D01*
X2707082Y28067554D01*
X2928379Y28023536D01*
X3149684Y27979516D01*
X3600000Y27950000D01*
X4050315Y27979516D01*
X4379319Y28044959D01*
X4492916Y28067554D01*
X4492917Y28067555D01*
X4492925Y28067556D01*
X4920257Y28212616D01*
X5324999Y28412213D01*
X5700226Y28662931D01*
X6039518Y28960482D01*
X6337069Y29299774D01*
X6587787Y29675001D01*
X6787384Y30079743D01*
X6907744Y30434312D01*
X8724500Y30434312D01*
X8724500Y30315689D01*
X8755199Y30201118D01*
X8755201Y30201113D01*
X8814508Y30098391D01*
X8814509Y30098390D01*
X8814511Y30098387D01*
X8898387Y30014511D01*
X9001114Y29955201D01*
X9001115Y29955201D01*
X9001117Y29955200D01*
X9058402Y29939851D01*
X9115688Y29924501D01*
X9115689Y29924500D01*
X9115691Y29924500D01*
X9234311Y29924500D01*
X9234311Y29924501D01*
X9348886Y29955201D01*
X9451613Y30014511D01*
X9535489Y30098387D01*
X9594799Y30201114D01*
X9625499Y30315689D01*
X9625500Y30315689D01*
X9625500Y30434311D01*
X9625499Y30434312D01*
X9604896Y30511206D01*
X9601063Y30525512D01*
X22549500Y30525512D01*
X22549500Y30406889D01*
X22580199Y30292318D01*
X22580201Y30292313D01*
X22639508Y30189591D01*
X22639509Y30189590D01*
X22639511Y30189587D01*
X22723387Y30105711D01*
X22826114Y30046401D01*
X22826115Y30046401D01*
X22826117Y30046400D01*
X22883402Y30031051D01*
X22940688Y30015701D01*
X22940689Y30015700D01*
X22940691Y30015700D01*
X23059311Y30015700D01*
X23059311Y30015701D01*
X23173886Y30046401D01*
X23276613Y30105711D01*
X23360489Y30189587D01*
X23419799Y30292314D01*
X23450499Y30406889D01*
X23450500Y30406889D01*
X23450500Y30525511D01*
X23450499Y30525512D01*
X23444235Y30548888D01*
X23419799Y30640086D01*
X23360489Y30742813D01*
X23276613Y30826689D01*
X23276610Y30826691D01*
X23276609Y30826692D01*
X23173887Y30885999D01*
X23173882Y30886001D01*
X23059311Y30916700D01*
X23059309Y30916700D01*
X22940691Y30916700D01*
X22940689Y30916700D01*
X22826117Y30886001D01*
X22826112Y30885999D01*
X22723390Y30826692D01*
X22639508Y30742810D01*
X22580201Y30640088D01*
X22580199Y30640083D01*
X22549500Y30525512D01*
X9601063Y30525512D01*
X9594800Y30548883D01*
X9594798Y30548888D01*
X9535491Y30651610D01*
X9535490Y30651611D01*
X9535489Y30651613D01*
X9451613Y30735489D01*
X9451610Y30735491D01*
X9451609Y30735492D01*
X9348887Y30794799D01*
X9348882Y30794801D01*
X9234311Y30825500D01*
X9234309Y30825500D01*
X9115691Y30825500D01*
X9115689Y30825500D01*
X9001117Y30794801D01*
X9001112Y30794799D01*
X8898390Y30735492D01*
X8814508Y30651610D01*
X8755201Y30548888D01*
X8755199Y30548883D01*
X8724500Y30434312D01*
X6907744Y30434312D01*
X6932444Y30507075D01*
X7020484Y30949685D01*
X7050000Y31400000D01*
X7020484Y31850316D01*
X6932444Y32292926D01*
X6787384Y32720258D01*
X6587787Y33125001D01*
X6587784Y33125006D01*
X6587781Y33125011D01*
X6337070Y33500225D01*
X6337069Y33500227D01*
X6039518Y33839519D01*
X5700226Y34137070D01*
X5698553Y34138188D01*
X5325008Y34387783D01*
X5324997Y34387789D01*
X4920255Y34587386D01*
X4867107Y34605427D01*
X4824524Y34642771D01*
X4820820Y34699286D01*
X4858164Y34741869D01*
X4890893Y34749500D01*
X24675500Y34749500D01*
X24727826Y34727826D01*
G37*
%TD.AperFunction*%
%TA.AperFunction,Conductor*%
G36*
X15745686Y23222606D02*
G01*
X15755600Y23185606D01*
X15755600Y22325071D01*
X15793734Y22233006D01*
X15793737Y22233002D01*
X19625892Y18400847D01*
X19647566Y18348521D01*
X19647400Y18345987D01*
X19647400Y18223789D01*
X19678099Y18109218D01*
X19678101Y18109213D01*
X19737408Y18006491D01*
X19737409Y18006490D01*
X19737411Y18006487D01*
X19821287Y17922611D01*
X19821289Y17922610D01*
X19821290Y17922609D01*
X19863017Y17898518D01*
X19924014Y17863301D01*
X19924015Y17863301D01*
X19924017Y17863300D01*
X19985568Y17846807D01*
X20000892Y17835049D01*
X20018738Y17827657D01*
X20022565Y17818419D01*
X20030501Y17812329D01*
X20033022Y17793178D01*
X20040415Y17775332D01*
X20036587Y17766092D01*
X20037893Y17756176D01*
X20018743Y17723006D01*
X20008105Y17712367D01*
X20008103Y17712364D01*
X19937634Y17641895D01*
X19899500Y17549830D01*
X19899500Y17351611D01*
X19877826Y17299285D01*
X19825500Y17277611D01*
X19788500Y17287525D01*
X19714587Y17330199D01*
X19714582Y17330201D01*
X19600011Y17360900D01*
X19600009Y17360900D01*
X19481391Y17360900D01*
X19481389Y17360900D01*
X19366817Y17330201D01*
X19366812Y17330199D01*
X19264090Y17270892D01*
X19180208Y17187010D01*
X19120901Y17084288D01*
X19120899Y17084283D01*
X19090200Y16969712D01*
X19090200Y16851089D01*
X19120899Y16736518D01*
X19120901Y16736513D01*
X19180208Y16633791D01*
X19180209Y16633790D01*
X19180211Y16633787D01*
X19264087Y16549911D01*
X19264089Y16549910D01*
X19264090Y16549909D01*
X19346610Y16502266D01*
X19366814Y16490601D01*
X19416144Y16477383D01*
X19461077Y16442905D01*
X19468470Y16386753D01*
X19449317Y16353579D01*
X19158103Y16062364D01*
X19087634Y15991895D01*
X19049500Y15899830D01*
X19049500Y15753031D01*
X19027826Y15700705D01*
X18975500Y15679031D01*
X18923175Y15700705D01*
X18853365Y15770515D01*
X18853362Y15770517D01*
X18722139Y15846279D01*
X18722130Y15846283D01*
X18575768Y15885500D01*
X18575766Y15885500D01*
X18424234Y15885500D01*
X18424232Y15885500D01*
X18277869Y15846283D01*
X18277860Y15846279D01*
X18146637Y15770517D01*
X18039483Y15663363D01*
X17963721Y15532140D01*
X17963717Y15532131D01*
X17924500Y15385769D01*
X17924500Y15234232D01*
X17963717Y15087870D01*
X17963721Y15087861D01*
X18022242Y14986500D01*
X18039485Y14956635D01*
X18146635Y14849485D01*
X18277865Y14773719D01*
X18424231Y14734501D01*
X18424232Y14734500D01*
X18424234Y14734500D01*
X18575768Y14734500D01*
X18575768Y14734501D01*
X18722135Y14773719D01*
X18853365Y14849485D01*
X18923175Y14919296D01*
X18975500Y14940969D01*
X19027826Y14919295D01*
X19049500Y14866969D01*
X19049500Y13782101D01*
X19043485Y13752877D01*
X19039616Y13743878D01*
X19037636Y13741897D01*
X19007741Y13669725D01*
X19007531Y13669236D01*
X19006893Y13668616D01*
X18991875Y13646137D01*
X18987636Y13641898D01*
X18957913Y13570142D01*
X18941872Y13546135D01*
X18853865Y13458128D01*
X18829859Y13442088D01*
X18796241Y13428162D01*
X18796240Y13428161D01*
X18758101Y13412364D01*
X18753862Y13408124D01*
X18729858Y13392087D01*
X18719115Y13387636D01*
X18681787Y13372174D01*
X18651370Y13359575D01*
X18650973Y13360533D01*
X18617899Y13350500D01*
X16383200Y13350500D01*
X16330874Y13372174D01*
X16310614Y13410103D01*
X16309200Y13417233D01*
X16309200Y13442309D01*
X16290053Y13513764D01*
X16289579Y13516157D01*
X16294677Y13541717D01*
X16298079Y13567554D01*
X16300447Y13570642D01*
X16300659Y13571700D01*
X16301891Y13572523D01*
X16309835Y13582876D01*
X17027688Y14300730D01*
X17027691Y14300731D01*
X17038096Y14311136D01*
X17038097Y14311136D01*
X17108564Y14381603D01*
X17124360Y14419740D01*
X17146701Y14473673D01*
X17146701Y14573328D01*
X17146701Y14579286D01*
X17146700Y14579300D01*
X17146700Y15239888D01*
X17168373Y15292213D01*
X18141953Y16265794D01*
X18194278Y16287467D01*
X18196811Y16287300D01*
X18200391Y16287300D01*
X18319011Y16287300D01*
X18319011Y16287301D01*
X18433586Y16318001D01*
X18536313Y16377311D01*
X18620189Y16461187D01*
X18679499Y16563914D01*
X18710199Y16678489D01*
X18710200Y16678489D01*
X18710200Y16797111D01*
X18710199Y16797112D01*
X18679500Y16911683D01*
X18679498Y16911688D01*
X18620191Y17014410D01*
X18620190Y17014411D01*
X18620189Y17014413D01*
X18536313Y17098289D01*
X18536310Y17098291D01*
X18536309Y17098292D01*
X18433587Y17157599D01*
X18433582Y17157601D01*
X18319011Y17188300D01*
X18319009Y17188300D01*
X18200391Y17188300D01*
X18200389Y17188300D01*
X18085817Y17157601D01*
X18085812Y17157599D01*
X17983090Y17098292D01*
X17899208Y17014410D01*
X17839901Y16911688D01*
X17839899Y16911683D01*
X17809200Y16797112D01*
X17809200Y16673641D01*
X17806498Y16673641D01*
X17794038Y16627285D01*
X17787691Y16620054D01*
X16916326Y15748688D01*
X16864000Y15727014D01*
X16811674Y15748688D01*
X16790000Y15801014D01*
X16790000Y18517612D01*
X17953000Y18517612D01*
X17953000Y18398989D01*
X17983699Y18284418D01*
X17983701Y18284413D01*
X18043008Y18181691D01*
X18043009Y18181690D01*
X18043011Y18181687D01*
X18126887Y18097811D01*
X18126889Y18097810D01*
X18126890Y18097809D01*
X18191530Y18060489D01*
X18229614Y18038501D01*
X18229615Y18038501D01*
X18229617Y18038500D01*
X18286766Y18023187D01*
X18344188Y18007801D01*
X18344189Y18007800D01*
X18344191Y18007800D01*
X18462811Y18007800D01*
X18462811Y18007801D01*
X18577386Y18038501D01*
X18680113Y18097811D01*
X18763989Y18181687D01*
X18823299Y18284414D01*
X18853999Y18398989D01*
X18854000Y18398989D01*
X18854000Y18517611D01*
X18853999Y18517612D01*
X18850553Y18530471D01*
X18831312Y18602281D01*
X18823300Y18632183D01*
X18823298Y18632188D01*
X18763991Y18734910D01*
X18763990Y18734911D01*
X18763989Y18734913D01*
X18680113Y18818789D01*
X18680110Y18818791D01*
X18680109Y18818792D01*
X18577387Y18878099D01*
X18577382Y18878101D01*
X18462811Y18908800D01*
X18462809Y18908800D01*
X18344191Y18908800D01*
X18344189Y18908800D01*
X18229617Y18878101D01*
X18229612Y18878099D01*
X18126890Y18818792D01*
X18043008Y18734910D01*
X17983701Y18632188D01*
X17983699Y18632183D01*
X17953000Y18517612D01*
X16790000Y18517612D01*
X16790000Y19360228D01*
X16789999Y19360230D01*
X16782245Y19378949D01*
X16751864Y19452297D01*
X16681397Y19522764D01*
X16328408Y19875753D01*
X16306734Y19928079D01*
X16306900Y19930612D01*
X16306900Y20052811D01*
X16306899Y20052812D01*
X16306296Y20055061D01*
X16280706Y20150565D01*
X16276200Y20167383D01*
X16276198Y20167388D01*
X16216891Y20270110D01*
X16216890Y20270111D01*
X16216889Y20270113D01*
X16133013Y20353989D01*
X16133010Y20353991D01*
X16133009Y20353992D01*
X16128460Y20356618D01*
X16093980Y20401551D01*
X16101371Y20457703D01*
X16113128Y20473027D01*
X16185289Y20545187D01*
X16244599Y20647914D01*
X16275299Y20762489D01*
X16275300Y20762489D01*
X16275300Y20881111D01*
X16275299Y20881112D01*
X16269273Y20903600D01*
X16253182Y20963654D01*
X16244600Y20995683D01*
X16244598Y20995688D01*
X16185291Y21098410D01*
X16185290Y21098411D01*
X16185289Y21098413D01*
X16101413Y21182289D01*
X16101410Y21182291D01*
X16101409Y21182292D01*
X15998687Y21241599D01*
X15998682Y21241601D01*
X15884111Y21272300D01*
X15884109Y21272300D01*
X15765491Y21272300D01*
X15765489Y21272300D01*
X15650917Y21241601D01*
X15650912Y21241599D01*
X15548190Y21182292D01*
X15464308Y21098410D01*
X15405001Y20995688D01*
X15404999Y20995683D01*
X15374300Y20881112D01*
X15374300Y20762489D01*
X15404999Y20647918D01*
X15405001Y20647913D01*
X15464308Y20545191D01*
X15464309Y20545190D01*
X15464311Y20545187D01*
X15548187Y20461311D01*
X15548189Y20461310D01*
X15548190Y20461309D01*
X15552743Y20458680D01*
X15587220Y20413746D01*
X15579826Y20357593D01*
X15568067Y20342269D01*
X15495908Y20270110D01*
X15436601Y20167388D01*
X15436599Y20167383D01*
X15405900Y20052812D01*
X15405900Y19934189D01*
X15436599Y19819618D01*
X15436601Y19819613D01*
X15495908Y19716891D01*
X15495909Y19716890D01*
X15495911Y19716887D01*
X15579787Y19633011D01*
X15682514Y19573701D01*
X15682515Y19573701D01*
X15682517Y19573700D01*
X15739802Y19558351D01*
X15797088Y19543001D01*
X15797089Y19543000D01*
X15920560Y19543000D01*
X15920560Y19540283D01*
X15966870Y19527874D01*
X15974147Y19521492D01*
X16267326Y19228313D01*
X16289000Y19175987D01*
X16289000Y18075513D01*
X16267326Y18023187D01*
X16215000Y18001513D01*
X16162674Y18023187D01*
X15726008Y18459853D01*
X15704334Y18512179D01*
X15704500Y18514712D01*
X15704500Y18636911D01*
X15704499Y18636912D01*
X15701822Y18646901D01*
X15685931Y18706209D01*
X15673800Y18751483D01*
X15673798Y18751488D01*
X15614491Y18854210D01*
X15614490Y18854211D01*
X15614489Y18854213D01*
X15530613Y18938089D01*
X15530610Y18938091D01*
X15530609Y18938092D01*
X15427887Y18997399D01*
X15427882Y18997401D01*
X15313311Y19028100D01*
X15313309Y19028100D01*
X15194691Y19028100D01*
X15194689Y19028100D01*
X15080117Y18997401D01*
X15080112Y18997399D01*
X14977390Y18938092D01*
X14893509Y18854211D01*
X14882286Y18834771D01*
X14874352Y18828684D01*
X14870526Y18819446D01*
X14852679Y18812054D01*
X14837352Y18800293D01*
X14827437Y18801599D01*
X14818200Y18797772D01*
X14800353Y18805165D01*
X14781199Y18807686D01*
X14775111Y18815620D01*
X14765874Y18819446D01*
X14758481Y18837293D01*
X14746721Y18852620D01*
X14744200Y18871772D01*
X14744200Y18942090D01*
X14765872Y18994414D01*
X14796288Y19024830D01*
X14796292Y19024832D01*
X14806696Y19035236D01*
X14806697Y19035236D01*
X14877164Y19105703D01*
X14915300Y19197772D01*
X14915300Y22768689D01*
X14936973Y22821014D01*
X15259452Y23143494D01*
X15311777Y23165167D01*
X15314314Y23165000D01*
X15317891Y23165000D01*
X15436511Y23165000D01*
X15436511Y23165001D01*
X15551086Y23195701D01*
X15644600Y23249693D01*
X15700752Y23257085D01*
X15745686Y23222606D01*
G37*
%TD.AperFunction*%
%TD*%
M02*
