%TF.GenerationSoftware,KiCad,Pcbnew,9.0.8+dfsg-1*%
%TF.CreationDate,2026-09-09T05:58:36+05:30*%
%TF.ProjectId,smove-r2-main,736d6f76-652d-4723-922d-6d61696e2e6b,rev?*%
%TF.SameCoordinates,Original*%
%TF.FileFunction,Copper,L4,Bot*%
%TF.FilePolarity,Positive*%
%FSLAX46Y46*%
G04 Gerber Fmt 4.6, Leading zero omitted, Abs format (unit mm)*
G04 Created by KiCad (PCBNEW 9.0.8+dfsg-1) date 2026-09-09 05:58:36*
%MOMM*%
%LPD*%
G01*
G04 APERTURE LIST*
%TA.AperFunction,HeatsinkPad*%
%ADD10O,2.100000X1.000000*%
%TD*%
%TA.AperFunction,HeatsinkPad*%
%ADD11O,1.600000X1.000000*%
%TD*%
%TA.AperFunction,ComponentPad*%
%ADD12C,2.000000*%
%TD*%
%TA.AperFunction,ViaPad*%
%ADD13C,0.600000*%
%TD*%
%TA.AperFunction,ViaPad*%
%ADD14C,0.450000*%
%TD*%
%TA.AperFunction,Conductor*%
%ADD15C,0.200000*%
%TD*%
%TA.AperFunction,Conductor*%
%ADD16C,0.150000*%
%TD*%
G04 APERTURE END LIST*
D10*
%TO.P,J1,S1*%
%TO.N,GND*%
X17970000Y13880000D03*
D11*
X22150000Y13880000D03*
D10*
X17970000Y22520000D03*
D11*
X22150000Y22520000D03*
%TD*%
D12*
%TO.P,J2,1*%
%TO.N,/Power/PACK_P*%
X11230000Y2400000D03*
%TO.P,J2,2*%
%TO.N,GND*%
X13770000Y2400000D03*
%TD*%
D13*
%TO.N,/3V3_MAIN*%
X4708300Y19375800D03*
X7940500Y19223400D03*
X23235100Y16900000D03*
%TO.N,/BAT_ADC*%
X9435900Y23223900D03*
X5016600Y21919200D03*
%TO.N,/USB/CC1*%
X8355300Y12388800D03*
X18263200Y16908600D03*
X14466700Y10554100D03*
%TO.N,/USB/CC2*%
X18805000Y11162800D03*
X18262100Y19571800D03*
X10594600Y13098400D03*
%TO.N,/Compute/LED_B*%
X16711100Y12429900D03*
X14005800Y25393800D03*
D14*
X15100000Y11350000D03*
D13*
%TO.N,/Compute/LED_G*%
X14993000Y6533200D03*
D14*
X19224700Y23660400D03*
D13*
%TO.N,/Compute/LED_R*%
X13179000Y26196100D03*
X13399900Y9290100D03*
D14*
%TO.N,/Compute/MCU_EN*%
X10650000Y11500000D03*
D13*
X21236800Y8562700D03*
X3345500Y14855500D03*
X5529200Y21210200D03*
D14*
X8350000Y11600000D03*
D13*
X9159400Y27800000D03*
D14*
X6550000Y11850000D03*
D13*
%TO.N,/Power/PACK_P*%
X8407900Y23003900D03*
D14*
X8900000Y11900000D03*
D13*
%TO.N,/Compute/STRAP2*%
X23000000Y30466200D03*
X9175000Y30375000D03*
%TO.N,/Compute/STRAP8*%
X17344200Y26143300D03*
X9248900Y21438700D03*
%TO.N,/Power/SYS*%
X1477200Y2584100D03*
X2983900Y24360800D03*
X4637400Y23578000D03*
X4925500Y8041700D03*
%TO.N,/USB_DM*%
X19540700Y16910400D03*
X18403500Y18458300D03*
%TO.N,/Compute/USB_DP_MCU*%
X20968400Y27539700D03*
X23599800Y27359800D03*
%TO.N,/USB_POWER_N*%
X10536400Y23629400D03*
X14032200Y12863600D03*
X4092800Y6401500D03*
%TO.N,/VBUS*%
X2735400Y4239600D03*
X15840500Y20301200D03*
X15731400Y16690500D03*
X4699200Y9318800D03*
%TO.N,GND*%
X11800000Y33434800D03*
X10000000Y11209900D03*
D14*
X803900Y24354900D03*
X2750000Y16750000D03*
X13500000Y7000000D03*
X15750000Y21750000D03*
X6750000Y2750000D03*
D13*
X1760000Y11282200D03*
D14*
X21250000Y23250000D03*
D13*
%TO.N,/IMU/1V8_IMU*%
X11130300Y19835600D03*
X5556800Y15941800D03*
X10926600Y15911200D03*
X6086000Y20460700D03*
X15062500Y17539100D03*
%TO.N,/IMU/SCL_1V8*%
X15075400Y18607000D03*
X4781300Y15971000D03*
X5923100Y11012700D03*
%TO.N,/IMU/SDA_1V8*%
X14108100Y19478200D03*
X3960800Y15988600D03*
%TO.N,/SCL_HOST*%
X5265500Y12850800D03*
X14200000Y23304300D03*
X9624000Y20731200D03*
%TO.N,/SDA_HOST*%
X15377200Y23615500D03*
X14598600Y15294700D03*
X4500000Y13458800D03*
%TO.N,Net-(U1-GPIO9_{slash}_BOOT)*%
X11006400Y6781400D03*
X21751000Y28660600D03*
X18177800Y25385300D03*
%TD*%
D15*
%TO.N,/3V3_MAIN*%
X12851000Y19223400D02*
X7940500Y19223400D01*
X23235100Y16900000D02*
X21120100Y19015000D01*
X14485600Y20858000D02*
X12851000Y19223400D01*
X7940500Y19223400D02*
X7788100Y19375800D01*
X17960000Y19015000D02*
X16117000Y20858000D01*
X21120100Y19015000D02*
X17960000Y19015000D01*
X7788100Y19375800D02*
X4708300Y19375800D01*
X16117000Y20858000D02*
X14485600Y20858000D01*
%TO.N,/BAT_ADC*%
X9435900Y23223900D02*
X8131200Y21919200D01*
X8131200Y21919200D02*
X5016600Y21919200D01*
%TO.N,/USB/CC1*%
X9786400Y13080600D02*
X12312800Y10554100D01*
X9786400Y13080600D02*
X10513100Y13807300D01*
X12312800Y10554100D02*
X14466700Y10554100D01*
X10513100Y13807300D02*
X15161900Y13807300D01*
X9094600Y12388800D02*
X9786400Y13080600D01*
X8355300Y12388800D02*
X9094600Y12388800D01*
X15161900Y13807300D02*
X18263200Y16908600D01*
%TO.N,/USB/CC2*%
X10594600Y13098400D02*
X11829200Y11863800D01*
X18104000Y11863800D02*
X18805000Y11162800D01*
X11829200Y11863800D02*
X18104000Y11863800D01*
D16*
%TO.N,/Compute/LED_B*%
X16700000Y12450000D02*
X16650000Y12450000D01*
%TO.N,/Compute/MCU_EN*%
X14150000Y9950000D02*
X14100000Y9950000D01*
X13850000Y10050000D02*
X13800000Y10100000D01*
X16600000Y8800000D02*
X16550000Y8850000D01*
X4150000Y13000000D02*
X4050000Y13100000D01*
X3400000Y14700000D02*
X3400000Y14800000D01*
X5050000Y12350000D02*
X5000000Y12350000D01*
X4050000Y13150000D02*
X3950000Y13250000D01*
X13800000Y10100000D02*
X13750000Y10100000D01*
X5100000Y12300000D02*
X5050000Y12350000D01*
X3850000Y13700000D02*
X3850000Y13800000D01*
X16500000Y8850000D02*
X15450000Y9900000D01*
X10950000Y11400000D02*
X10900000Y11400000D01*
X3900000Y13600000D02*
X3900000Y13650000D01*
X4250000Y12950000D02*
X4200000Y13000000D01*
X3850000Y13800000D02*
X3800000Y13850000D01*
X10800000Y11450000D02*
X10750000Y11500000D01*
X13750000Y10100000D02*
X13700000Y10150000D01*
X16900000Y8700000D02*
X16850000Y8700000D01*
X16800000Y8750000D02*
X16700000Y8750000D01*
X16950000Y8650000D02*
X16900000Y8700000D01*
X3900000Y13650000D02*
X3850000Y13700000D01*
X3500000Y14550000D02*
X3450000Y14600000D01*
X13650000Y10150000D02*
X13600000Y10200000D01*
X17000000Y8650000D02*
X16950000Y8650000D01*
X16550000Y8850000D02*
X16500000Y8850000D01*
X14000000Y10000000D02*
X13950000Y10050000D01*
X3750000Y14000000D02*
X3700000Y14050000D01*
X10750000Y11500000D02*
X10650000Y11500000D01*
X4950000Y12400000D02*
X4900000Y12400000D01*
X3450000Y14650000D02*
X3400000Y14700000D01*
X10900000Y11400000D02*
X10850000Y11450000D01*
X6100000Y12300000D02*
X5100000Y12300000D01*
X13600000Y10200000D02*
X12150000Y10200000D01*
X3550000Y14450000D02*
X3500000Y14500000D01*
X3600000Y14350000D02*
X3550000Y14400000D01*
X3650000Y14150000D02*
X3650000Y14200000D01*
X3950000Y13250000D02*
X3950000Y13550000D01*
X13700000Y10150000D02*
X13650000Y10150000D01*
X3750000Y13950000D02*
X3750000Y14000000D01*
X10850000Y11450000D02*
X10800000Y11450000D01*
X3700000Y14050000D02*
X3700000Y14100000D01*
X21250000Y8550000D02*
X17150000Y8550000D01*
X12150000Y10200000D02*
X10950000Y11400000D01*
X3650000Y14200000D02*
X3600000Y14250000D01*
X3500000Y14500000D02*
X3500000Y14550000D01*
X3400000Y14800000D02*
X3350000Y14850000D01*
X4300000Y12950000D02*
X4250000Y12950000D01*
X4350000Y12900000D02*
X4300000Y12950000D01*
X3700000Y14100000D02*
X3650000Y14150000D01*
X3600000Y14250000D02*
X3600000Y14350000D01*
X3950000Y13550000D02*
X3900000Y13600000D01*
X15450000Y9900000D02*
X14200000Y9900000D01*
X4050000Y13100000D02*
X4050000Y13150000D01*
X14200000Y9900000D02*
X14150000Y9950000D01*
X17150000Y8550000D02*
X17100000Y8600000D01*
X4900000Y12400000D02*
X4400000Y12900000D01*
X3550000Y14400000D02*
X3550000Y14450000D01*
X16650000Y8800000D02*
X16600000Y8800000D01*
X13950000Y10050000D02*
X13850000Y10050000D01*
X17100000Y8600000D02*
X17050000Y8600000D01*
X4200000Y13000000D02*
X4150000Y13000000D01*
X3800000Y13900000D02*
X3750000Y13950000D01*
X17050000Y8600000D02*
X17000000Y8650000D01*
X5000000Y12350000D02*
X4950000Y12400000D01*
X14100000Y9950000D02*
X14050000Y10000000D01*
X6550000Y11850000D02*
X6100000Y12300000D01*
X16850000Y8700000D02*
X16800000Y8750000D01*
X3450000Y14600000D02*
X3450000Y14650000D01*
X3800000Y13850000D02*
X3800000Y13900000D01*
X4400000Y12900000D02*
X4350000Y12900000D01*
X16700000Y8750000D02*
X16650000Y8800000D01*
X14050000Y10000000D02*
X14000000Y10000000D01*
%TO.N,/Power/PACK_P*%
X9200000Y6950000D02*
X9200000Y6850000D01*
X10600000Y3800000D02*
X10650000Y3750000D01*
X10900000Y3200000D02*
X10900000Y3150000D01*
X10500000Y4000000D02*
X10550000Y3950000D01*
X11050000Y2850000D02*
X11050000Y2800000D01*
X10400000Y4300000D02*
X10400000Y4250000D01*
X9400000Y6450000D02*
X9450000Y6400000D01*
X8900000Y7550000D02*
X8950000Y7500000D01*
X10850000Y3300000D02*
X10850000Y3250000D01*
X10350000Y4400000D02*
X10350000Y4350000D01*
X9100000Y7150000D02*
X9100000Y7100000D01*
X9700000Y5800000D02*
X9750000Y5750000D01*
X9300000Y6650000D02*
X9350000Y6600000D01*
X9550000Y6150000D02*
X9550000Y6100000D01*
X10100000Y4950000D02*
X10100000Y4900000D01*
X10000000Y5100000D02*
X10050000Y5050000D01*
X9100000Y7100000D02*
X9150000Y7050000D01*
X8900000Y11900000D02*
X8900000Y7550000D01*
X9550000Y6100000D02*
X9600000Y6050000D01*
X9000000Y7300000D02*
X9050000Y7250000D01*
X9950000Y5250000D02*
X10000000Y5200000D01*
X10900000Y3150000D02*
X10950000Y3100000D01*
X9200000Y6850000D02*
X9250000Y6800000D01*
X9800000Y5550000D02*
X9850000Y5500000D01*
X9450000Y6400000D02*
X9450000Y6350000D01*
X9000000Y7350000D02*
X9000000Y7300000D01*
X9050000Y7200000D02*
X9100000Y7150000D01*
X9900000Y5350000D02*
X9950000Y5300000D01*
X10200000Y4750000D02*
X10200000Y4700000D01*
X10750000Y3550000D02*
X10750000Y3450000D01*
X9150000Y7000000D02*
X9200000Y6950000D01*
X10550000Y3900000D02*
X10600000Y3850000D01*
X9650000Y5950000D02*
X9650000Y5900000D01*
X9150000Y7050000D02*
X9150000Y7000000D01*
X10150000Y4800000D02*
X10200000Y4750000D01*
X9500000Y6200000D02*
X9550000Y6150000D01*
X9650000Y5900000D02*
X9700000Y5850000D01*
X9400000Y6500000D02*
X9400000Y6450000D01*
X10650000Y3750000D02*
X10650000Y3700000D01*
X9750000Y5650000D02*
X9800000Y5600000D01*
X10950000Y3050000D02*
X11000000Y3000000D01*
X9800000Y5600000D02*
X9800000Y5550000D01*
X10350000Y4350000D02*
X10400000Y4300000D01*
X9600000Y6050000D02*
X9600000Y6000000D01*
X10950000Y3100000D02*
X10950000Y3050000D01*
X10800000Y3350000D02*
X10850000Y3300000D01*
X11150000Y2600000D02*
X11200000Y2550000D01*
X10200000Y4700000D02*
X10250000Y4650000D01*
X10050000Y5050000D02*
X10050000Y5000000D01*
X9850000Y5500000D02*
X9850000Y5450000D01*
X9250000Y6750000D02*
X9300000Y6700000D01*
X10600000Y3850000D02*
X10600000Y3800000D01*
X10150000Y4850000D02*
X10150000Y4800000D01*
X11150000Y2650000D02*
X11150000Y2600000D01*
X9900000Y5400000D02*
X9900000Y5350000D01*
X10800000Y3400000D02*
X10800000Y3350000D01*
X10250000Y4550000D02*
X10300000Y4500000D01*
X10700000Y3600000D02*
X10750000Y3550000D01*
X11200000Y2450000D02*
X11250000Y2400000D01*
X8950000Y7400000D02*
X9000000Y7350000D01*
X10450000Y4150000D02*
X10500000Y4100000D01*
X9600000Y6000000D02*
X9650000Y5950000D01*
X9750000Y5750000D02*
X9750000Y5650000D01*
X9250000Y6800000D02*
X9250000Y6750000D01*
X11200000Y2550000D02*
X11200000Y2450000D01*
X10400000Y4250000D02*
X10450000Y4200000D01*
X9700000Y5850000D02*
X9700000Y5800000D01*
X9500000Y6300000D02*
X9500000Y6200000D01*
X10450000Y4200000D02*
X10450000Y4150000D01*
X11100000Y2750000D02*
X11100000Y2700000D01*
X10000000Y5200000D02*
X10000000Y5100000D01*
X9850000Y5450000D02*
X9900000Y5400000D01*
X10250000Y4650000D02*
X10250000Y4550000D01*
X10300000Y4450000D02*
X10350000Y4400000D01*
X9350000Y6550000D02*
X9400000Y6500000D01*
X11000000Y3000000D02*
X11000000Y2900000D01*
X10650000Y3700000D02*
X10700000Y3650000D01*
X9050000Y7250000D02*
X9050000Y7200000D01*
X9350000Y6600000D02*
X9350000Y6550000D01*
X10300000Y4500000D02*
X10300000Y4450000D01*
X10050000Y5000000D02*
X10100000Y4950000D01*
X11100000Y2700000D02*
X11150000Y2650000D01*
X10750000Y3450000D02*
X10800000Y3400000D01*
X10500000Y4100000D02*
X10500000Y4000000D01*
X8950000Y7500000D02*
X8950000Y7400000D01*
X11000000Y2900000D02*
X11050000Y2850000D01*
X10700000Y3650000D02*
X10700000Y3600000D01*
X9450000Y6350000D02*
X9500000Y6300000D01*
X9300000Y6700000D02*
X9300000Y6650000D01*
X8400000Y23000000D02*
X8450000Y22950000D01*
X10850000Y3250000D02*
X10900000Y3200000D01*
X10550000Y3950000D02*
X10550000Y3900000D01*
X11050000Y2800000D02*
X11100000Y2750000D01*
X9950000Y5300000D02*
X9950000Y5250000D01*
X10100000Y4900000D02*
X10150000Y4850000D01*
D15*
%TO.N,/Compute/STRAP2*%
X23000000Y30466200D02*
X9266200Y30466200D01*
X9266200Y30466200D02*
X9175000Y30375000D01*
%TO.N,/Compute/STRAP8*%
X13953500Y26143300D02*
X9248900Y21438700D01*
X17344200Y26143300D02*
X13953500Y26143300D01*
%TO.N,/Power/SYS*%
X1477200Y2584100D02*
X1899500Y2584100D01*
X4925500Y5610100D02*
X4925500Y8041700D01*
X1899500Y2584100D02*
X4925500Y5610100D01*
%TO.N,/USB_DM*%
X18403500Y18047600D02*
X18403500Y18458300D01*
X19540700Y16910400D02*
X18403500Y18047600D01*
%TO.N,/VBUS*%
X15840500Y16799600D02*
X15731400Y16690500D01*
X9519200Y14341500D02*
X14475900Y14341500D01*
X14475900Y14341500D02*
X15731400Y15597000D01*
X15731400Y15597000D02*
X15731400Y16690500D01*
X4699200Y9318800D02*
X5016400Y9318800D01*
X7797000Y12619300D02*
X9519200Y14341500D01*
X4699200Y9318800D02*
X2735400Y7355000D01*
X5016400Y9318800D02*
X7797000Y12099400D01*
X2735400Y7355000D02*
X2735400Y4239600D01*
X15840500Y20301200D02*
X15840500Y16799600D01*
X7797000Y12099400D02*
X7797000Y12619300D01*
%TO.N,/IMU/1V8_IMU*%
X10926600Y15941800D02*
X13465200Y15941800D01*
X5556800Y15941800D02*
X10926600Y15941800D01*
X13465200Y15941800D02*
X15062500Y17539100D01*
X10926600Y15941800D02*
X10926600Y15911200D01*
%TO.N,/IMU/SCL_1V8*%
X13616300Y17147900D02*
X5958200Y17147900D01*
X5958200Y17147900D02*
X4781300Y15971000D01*
X15075400Y18607000D02*
X13616300Y17147900D01*
%TO.N,/IMU/SDA_1V8*%
X6353400Y18381200D02*
X13011100Y18381200D01*
X13011100Y18381200D02*
X14108100Y19478200D01*
X3960800Y15988600D02*
X6353400Y18381200D01*
%TO.N,/SCL_HOST*%
X9624000Y20731200D02*
X11626900Y20731200D01*
X11626900Y20731200D02*
X14200000Y23304300D01*
%TO.N,/SDA_HOST*%
X14598600Y15294700D02*
X14002100Y14698200D01*
X5739400Y14698200D02*
X4500000Y13458800D01*
X14002100Y14698200D02*
X5739400Y14698200D01*
D16*
%TO.N,Net-(U1-GPIO9_{slash}_BOOT)*%
X21750000Y28650000D02*
X21200000Y28100000D01*
X20750000Y28050000D02*
X20700000Y28000000D01*
X21200000Y28100000D02*
X20850000Y28100000D01*
X20650000Y28000000D02*
X18300000Y25650000D01*
X20850000Y28100000D02*
X20800000Y28050000D01*
X18300000Y25600000D02*
X18250000Y25550000D01*
X18250000Y25450000D02*
X18200000Y25400000D01*
X20700000Y28000000D02*
X20650000Y28000000D01*
X18300000Y25650000D02*
X18300000Y25600000D01*
X20800000Y28050000D02*
X20750000Y28050000D01*
X18250000Y25550000D02*
X18250000Y25450000D01*
%TD*%
%TA.AperFunction,Conductor*%
%TO.N,GND*%
G36*
X24727826Y34727826D02*
G01*
X24749500Y34675500D01*
X24749500Y23824500D01*
X24727826Y23772174D01*
X24675500Y23750500D01*
X24400172Y23750500D01*
X24308105Y23712366D01*
X24237634Y23641895D01*
X24199500Y23549830D01*
X24199500Y12850171D01*
X24237634Y12758106D01*
X24237637Y12758102D01*
X24308102Y12687637D01*
X24308105Y12687635D01*
X24328696Y12679106D01*
X24400172Y12649500D01*
X24675500Y12649500D01*
X24727826Y12627826D01*
X24749500Y12575500D01*
X24749500Y4390892D01*
X24727826Y4338566D01*
X24675500Y4316892D01*
X24623174Y4338566D01*
X24605427Y4367105D01*
X24597352Y4390892D01*
X24587384Y4420258D01*
X24387787Y4825000D01*
X24387784Y4825005D01*
X24387781Y4825010D01*
X24189161Y5122265D01*
X24137069Y5200227D01*
X23839518Y5539519D01*
X23500226Y5837070D01*
X23453893Y5868029D01*
X23125009Y6087783D01*
X23124998Y6087789D01*
X22720260Y6287384D01*
X22292928Y6432444D01*
X22292916Y6432448D01*
X21850322Y6520484D01*
X21850319Y6520485D01*
X21850315Y6520485D01*
X21400000Y6550000D01*
X21399999Y6550000D01*
X21347241Y6546542D01*
X20949684Y6520485D01*
X20949680Y6520485D01*
X20949676Y6520484D01*
X20507082Y6432448D01*
X20507069Y6432444D01*
X20079740Y6287385D01*
X19675001Y6087789D01*
X19674990Y6087783D01*
X19299775Y5837072D01*
X18960481Y5539519D01*
X18662928Y5200225D01*
X18412217Y4825010D01*
X18412211Y4824999D01*
X18212615Y4420260D01*
X18067556Y3992931D01*
X18067552Y3992918D01*
X17979516Y3550324D01*
X17979515Y3550320D01*
X17979515Y3550316D01*
X17950000Y3100000D01*
X17979515Y2649685D01*
X17979515Y2649681D01*
X17979516Y2649678D01*
X18067552Y2207084D01*
X18067556Y2207072D01*
X18212616Y1779740D01*
X18412211Y1375002D01*
X18412217Y1374991D01*
X18496068Y1249500D01*
X18662930Y999774D01*
X18960481Y660482D01*
X19299773Y362931D01*
X19423733Y280104D01*
X19674990Y112219D01*
X19674995Y112216D01*
X19675000Y112213D01*
X20079742Y-87384D01*
X20132895Y-105427D01*
X20175477Y-142771D01*
X20179181Y-199287D01*
X20141837Y-241869D01*
X20109108Y-249500D01*
X324500Y-249500D01*
X272174Y-227826D01*
X250500Y-175500D01*
X250500Y2643412D01*
X1026700Y2643412D01*
X1026700Y2524789D01*
X1057399Y2410218D01*
X1057401Y2410213D01*
X1116708Y2307491D01*
X1116709Y2307490D01*
X1116711Y2307487D01*
X1200587Y2223611D01*
X1303314Y2164301D01*
X1303315Y2164301D01*
X1303317Y2164300D01*
X1360602Y2148951D01*
X1417888Y2133601D01*
X1417889Y2133600D01*
X1417891Y2133600D01*
X1536511Y2133600D01*
X1536511Y2133601D01*
X1651086Y2164301D01*
X1753813Y2223611D01*
X1837689Y2307487D01*
X1837689Y2307488D01*
X1841119Y2310917D01*
X1843042Y2308994D01*
X1884549Y2332966D01*
X1894219Y2333600D01*
X1949327Y2333600D01*
X1949328Y2333600D01*
X2041397Y2371736D01*
X5137864Y5468203D01*
X5176000Y5560272D01*
X5176000Y5659928D01*
X5176000Y7624681D01*
X5197674Y7677007D01*
X5199582Y7678681D01*
X5202110Y7681210D01*
X5202113Y7681211D01*
X5285989Y7765087D01*
X5345299Y7867814D01*
X5375999Y7982389D01*
X5376000Y7982389D01*
X5376000Y8101011D01*
X5375999Y8101012D01*
X5345300Y8215583D01*
X5345298Y8215588D01*
X5285991Y8318310D01*
X5285990Y8318311D01*
X5285989Y8318313D01*
X5202113Y8402189D01*
X5202110Y8402191D01*
X5202109Y8402192D01*
X5099387Y8461499D01*
X5099382Y8461501D01*
X4984811Y8492200D01*
X4984809Y8492200D01*
X4866191Y8492200D01*
X4866189Y8492200D01*
X4751617Y8461501D01*
X4751612Y8461499D01*
X4648890Y8402192D01*
X4565008Y8318310D01*
X4505701Y8215588D01*
X4505699Y8215583D01*
X4475000Y8101012D01*
X4475000Y7982389D01*
X4505699Y7867818D01*
X4505701Y7867813D01*
X4565008Y7765091D01*
X4565009Y7765090D01*
X4565011Y7765087D01*
X4648887Y7681211D01*
X4652317Y7677781D01*
X4650393Y7675858D01*
X4674366Y7634351D01*
X4675000Y7624681D01*
X4675000Y6531384D01*
X4653326Y6479058D01*
X4601000Y6457384D01*
X4548674Y6479058D01*
X4529522Y6512231D01*
X4512600Y6575383D01*
X4512598Y6575388D01*
X4453291Y6678110D01*
X4453290Y6678111D01*
X4453289Y6678113D01*
X4369413Y6761989D01*
X4369410Y6761991D01*
X4369409Y6761992D01*
X4266687Y6821299D01*
X4266682Y6821301D01*
X4152111Y6852000D01*
X4152109Y6852000D01*
X4033491Y6852000D01*
X4033489Y6852000D01*
X3918917Y6821301D01*
X3918912Y6821299D01*
X3816190Y6761992D01*
X3732308Y6678110D01*
X3673001Y6575388D01*
X3672999Y6575383D01*
X3642300Y6460812D01*
X3642300Y6342189D01*
X3672999Y6227618D01*
X3673001Y6227613D01*
X3732308Y6124891D01*
X3732309Y6124890D01*
X3732311Y6124887D01*
X3816187Y6041011D01*
X3816189Y6041010D01*
X3816190Y6041009D01*
X3898642Y5993405D01*
X3918914Y5981701D01*
X3918915Y5981701D01*
X3918917Y5981700D01*
X3933711Y5977736D01*
X4033488Y5951001D01*
X4033489Y5951000D01*
X4033491Y5951000D01*
X4152111Y5951000D01*
X4152111Y5951001D01*
X4266686Y5981701D01*
X4369413Y6041011D01*
X4453289Y6124887D01*
X4512599Y6227614D01*
X4520362Y6256587D01*
X4529522Y6290770D01*
X4564000Y6335703D01*
X4620153Y6343095D01*
X4665086Y6308617D01*
X4675000Y6271617D01*
X4675000Y5744513D01*
X4653326Y5692187D01*
X3292200Y4331062D01*
X3239874Y4309388D01*
X3187548Y4331062D01*
X3168396Y4364235D01*
X3155199Y4413486D01*
X3146971Y4427738D01*
X3095891Y4516210D01*
X3095890Y4516211D01*
X3095889Y4516213D01*
X3012013Y4600089D01*
X3012012Y4600090D01*
X3008584Y4603518D01*
X3010505Y4605440D01*
X2986533Y4646960D01*
X2985900Y4656619D01*
X2985900Y7220589D01*
X3007573Y7272914D01*
X4581452Y8846794D01*
X4633777Y8868467D01*
X4636314Y8868300D01*
X4639891Y8868300D01*
X4758511Y8868300D01*
X4758511Y8868301D01*
X4873086Y8899001D01*
X4975813Y8958311D01*
X5059689Y9042187D01*
X5064888Y9051194D01*
X5100653Y9082560D01*
X5158297Y9106436D01*
X7880778Y11828918D01*
X7933103Y11850591D01*
X7985429Y11828917D01*
X8007103Y11776591D01*
X8001473Y11748280D01*
X8000090Y11744942D01*
X7974500Y11649438D01*
X7974500Y11550563D01*
X8000088Y11455066D01*
X8000090Y11455061D01*
X8032205Y11399437D01*
X8049525Y11369438D01*
X8119438Y11299525D01*
X8205062Y11250090D01*
X8205063Y11250090D01*
X8205065Y11250089D01*
X8252813Y11237295D01*
X8300562Y11224501D01*
X8300563Y11224500D01*
X8300565Y11224500D01*
X8399437Y11224500D01*
X8399437Y11224501D01*
X8494938Y11250090D01*
X8563501Y11289676D01*
X8619652Y11297068D01*
X8664586Y11262590D01*
X8674500Y11225589D01*
X8674500Y7600827D01*
X8674499Y7600813D01*
X8674499Y7594855D01*
X8674499Y7505145D01*
X8685853Y7477736D01*
X8708830Y7422264D01*
X8712721Y7418373D01*
X8717933Y7406840D01*
X8718246Y7396980D01*
X8724499Y7376366D01*
X8724499Y7355145D01*
X8737193Y7324500D01*
X8758829Y7272266D01*
X8758831Y7272263D01*
X8763065Y7268029D01*
X8779105Y7244023D01*
X8791913Y7213104D01*
X8791914Y7213103D01*
X8808829Y7172265D01*
X8813065Y7168029D01*
X8829102Y7144027D01*
X8829106Y7144023D01*
X8846563Y7101880D01*
X8846562Y7101880D01*
X8846563Y7101879D01*
X8858828Y7072267D01*
X8858831Y7072263D01*
X8863065Y7068029D01*
X8879105Y7044023D01*
X8893683Y7008831D01*
X8893684Y7008830D01*
X8908829Y6972265D01*
X8913065Y6968029D01*
X8929105Y6944023D01*
X8943683Y6908831D01*
X8943684Y6908830D01*
X8958830Y6872264D01*
X8958832Y6872262D01*
X8962028Y6867478D01*
X8974499Y6826366D01*
X8974499Y6805146D01*
X8992159Y6762510D01*
X8992161Y6762506D01*
X8993684Y6758830D01*
X9008830Y6722264D01*
X9020577Y6710517D01*
X9025673Y6701194D01*
X9025934Y6698768D01*
X9029105Y6694023D01*
X9043683Y6658831D01*
X9043684Y6658830D01*
X9058829Y6622265D01*
X9063065Y6618029D01*
X9079106Y6594022D01*
X9098773Y6546542D01*
X9108829Y6522266D01*
X9108832Y6522262D01*
X9113066Y6518028D01*
X9126928Y6498796D01*
X9128099Y6496454D01*
X9142818Y6460920D01*
X9158830Y6422264D01*
X9171557Y6409537D01*
X9176927Y6398797D01*
X9177047Y6397103D01*
X9179105Y6394023D01*
X9193683Y6358831D01*
X9193684Y6358830D01*
X9208829Y6322265D01*
X9213065Y6318029D01*
X9229105Y6294023D01*
X9243683Y6258831D01*
X9243684Y6258830D01*
X9258830Y6222264D01*
X9258832Y6222262D01*
X9262028Y6217478D01*
X9274499Y6176366D01*
X9274499Y6155146D01*
X9292159Y6112510D01*
X9292161Y6112506D01*
X9293684Y6108830D01*
X9308830Y6072264D01*
X9320577Y6060517D01*
X9325673Y6051194D01*
X9325934Y6048768D01*
X9329105Y6044023D01*
X9343683Y6008831D01*
X9343684Y6008830D01*
X9358829Y5972265D01*
X9363065Y5968029D01*
X9379105Y5944023D01*
X9393683Y5908831D01*
X9393684Y5908830D01*
X9408829Y5872265D01*
X9413065Y5868029D01*
X9429105Y5844023D01*
X9443683Y5808831D01*
X9443684Y5808830D01*
X9458829Y5772265D01*
X9463065Y5768029D01*
X9479105Y5744023D01*
X9493683Y5708831D01*
X9493684Y5708830D01*
X9508830Y5672264D01*
X9508832Y5672262D01*
X9512028Y5667478D01*
X9524499Y5626366D01*
X9524499Y5605145D01*
X9537193Y5574500D01*
X9558829Y5522266D01*
X9558831Y5522263D01*
X9563065Y5518029D01*
X9579105Y5494023D01*
X9593683Y5458831D01*
X9593684Y5458830D01*
X9608829Y5422265D01*
X9613065Y5418029D01*
X9629105Y5394023D01*
X9643364Y5359601D01*
X9643365Y5359600D01*
X9658829Y5322265D01*
X9663065Y5318029D01*
X9679105Y5294023D01*
X9693683Y5258831D01*
X9693684Y5258830D01*
X9708829Y5222265D01*
X9713065Y5218029D01*
X9729105Y5194023D01*
X9743683Y5158831D01*
X9743684Y5158830D01*
X9758830Y5122264D01*
X9758832Y5122262D01*
X9762028Y5117478D01*
X9774499Y5076366D01*
X9774499Y5055145D01*
X9787193Y5024500D01*
X9808829Y4972266D01*
X9808831Y4972263D01*
X9813065Y4968029D01*
X9829105Y4944023D01*
X9843683Y4908831D01*
X9843684Y4908830D01*
X9858829Y4872265D01*
X9863065Y4868029D01*
X9879105Y4844023D01*
X9893683Y4808831D01*
X9893684Y4808830D01*
X9908829Y4772265D01*
X9913065Y4768029D01*
X9929105Y4744023D01*
X9943683Y4708831D01*
X9943684Y4708830D01*
X9958829Y4672265D01*
X9963065Y4668029D01*
X9979105Y4644023D01*
X9993683Y4608831D01*
X9993684Y4608830D01*
X10008830Y4572264D01*
X10008832Y4572262D01*
X10012028Y4567478D01*
X10024499Y4526366D01*
X10024499Y4505145D01*
X10037193Y4474500D01*
X10058829Y4422266D01*
X10058831Y4422263D01*
X10063065Y4418029D01*
X10079105Y4394023D01*
X10093683Y4358831D01*
X10093684Y4358830D01*
X10108829Y4322265D01*
X10113065Y4318029D01*
X10129105Y4294023D01*
X10143683Y4258831D01*
X10143684Y4258830D01*
X10158829Y4222265D01*
X10163065Y4218029D01*
X10179105Y4194023D01*
X10193683Y4158831D01*
X10193684Y4158830D01*
X10208829Y4122265D01*
X10213065Y4118029D01*
X10229105Y4094023D01*
X10243683Y4058831D01*
X10243684Y4058830D01*
X10258830Y4022264D01*
X10258832Y4022262D01*
X10262028Y4017478D01*
X10274499Y3976366D01*
X10274499Y3955146D01*
X10292159Y3912510D01*
X10292161Y3912506D01*
X10293684Y3908830D01*
X10308830Y3872264D01*
X10320577Y3860517D01*
X10325673Y3851194D01*
X10325934Y3848768D01*
X10329105Y3844023D01*
X10343683Y3808831D01*
X10343684Y3808830D01*
X10358829Y3772265D01*
X10363065Y3768029D01*
X10379105Y3744023D01*
X10393683Y3708831D01*
X10393684Y3708830D01*
X10408829Y3672265D01*
X10413065Y3668029D01*
X10429105Y3644023D01*
X10443683Y3608831D01*
X10443684Y3608830D01*
X10458829Y3572265D01*
X10463065Y3568029D01*
X10479105Y3544024D01*
X10486133Y3527059D01*
X10488158Y3522171D01*
X10508830Y3472264D01*
X10508832Y3472262D01*
X10512028Y3467478D01*
X10524499Y3426366D01*
X10524499Y3405145D01*
X10532620Y3385539D01*
X10532620Y3328901D01*
X10507751Y3297354D01*
X10480499Y3277554D01*
X10352452Y3149506D01*
X10352447Y3149501D01*
X10352444Y3149498D01*
X10352444Y3149497D01*
X10246005Y3002997D01*
X10246005Y3002996D01*
X10163787Y2841636D01*
X10107831Y2669420D01*
X10107828Y2669407D01*
X10079500Y2490547D01*
X10079500Y2309454D01*
X10107828Y2130594D01*
X10107831Y2130581D01*
X10163787Y1958365D01*
X10163788Y1958362D01*
X10163789Y1958361D01*
X10246004Y1797006D01*
X10352447Y1650499D01*
X10480499Y1522447D01*
X10627006Y1416004D01*
X10788361Y1333789D01*
X10788364Y1333788D01*
X10788363Y1333788D01*
X10960580Y1277832D01*
X10960586Y1277831D01*
X10960591Y1277829D01*
X11079833Y1258943D01*
X11139453Y1249500D01*
X11139454Y1249500D01*
X11320547Y1249500D01*
X11365261Y1256583D01*
X11499409Y1277829D01*
X11499416Y1277832D01*
X11499419Y1277832D01*
X11577601Y1303235D01*
X11671639Y1333789D01*
X11832994Y1416004D01*
X11979501Y1522447D01*
X12107553Y1650499D01*
X12213996Y1797006D01*
X12296211Y1958361D01*
X12352171Y2130591D01*
X12380500Y2309454D01*
X12380500Y2490546D01*
X12375076Y2524789D01*
X12356289Y2643409D01*
X12352171Y2669409D01*
X12352169Y2669414D01*
X12352168Y2669420D01*
X12296212Y2841636D01*
X12296211Y2841637D01*
X12296211Y2841639D01*
X12213996Y3002994D01*
X12213338Y3003899D01*
X12143517Y3100000D01*
X12107553Y3149501D01*
X11979501Y3277553D01*
X11894128Y3339580D01*
X11832996Y3383995D01*
X11671635Y3466213D01*
X11671636Y3466213D01*
X11499419Y3522169D01*
X11499406Y3522172D01*
X11320547Y3550500D01*
X11320546Y3550500D01*
X11139454Y3550500D01*
X11139453Y3550500D01*
X11059334Y3537811D01*
X11004261Y3551033D01*
X10979017Y3583502D01*
X10975501Y3592324D01*
X10975501Y3594854D01*
X10949001Y3658830D01*
X10941170Y3677736D01*
X10936933Y3681973D01*
X10920892Y3705981D01*
X10899001Y3758830D01*
X10891170Y3777736D01*
X10886933Y3781973D01*
X10870892Y3805980D01*
X10869711Y3808830D01*
X10845868Y3866393D01*
X10841170Y3877736D01*
X10836933Y3881973D01*
X10820892Y3905981D01*
X10797279Y3962987D01*
X10791737Y3976366D01*
X10791170Y3977736D01*
X10786933Y3981973D01*
X10771652Y4004211D01*
X10771264Y4005082D01*
X10749001Y4058830D01*
X10741170Y4077736D01*
X10737134Y4081772D01*
X10731894Y4093547D01*
X10731637Y4103404D01*
X10725501Y4123635D01*
X10725501Y4144854D01*
X10705134Y4194023D01*
X10699001Y4208830D01*
X10691170Y4227736D01*
X10680416Y4238490D01*
X10675697Y4246406D01*
X10675252Y4249456D01*
X10670892Y4255981D01*
X10649001Y4308830D01*
X10641170Y4327736D01*
X10636933Y4331973D01*
X10620892Y4355980D01*
X10619711Y4358830D01*
X10594267Y4420258D01*
X10591170Y4427736D01*
X10586933Y4431973D01*
X10570892Y4455981D01*
X10545943Y4516213D01*
X10541170Y4527735D01*
X10541169Y4527737D01*
X10536933Y4531973D01*
X10521652Y4554211D01*
X10521264Y4555082D01*
X10499001Y4608830D01*
X10491170Y4627736D01*
X10487134Y4631772D01*
X10481894Y4643547D01*
X10481637Y4653404D01*
X10475501Y4673635D01*
X10475501Y4694854D01*
X10447181Y4763224D01*
X10441170Y4777736D01*
X10436933Y4781973D01*
X10423071Y4801205D01*
X10421901Y4803545D01*
X10399001Y4858830D01*
X10391170Y4877736D01*
X10378441Y4890465D01*
X10373071Y4901205D01*
X10372950Y4902900D01*
X10370892Y4905980D01*
X10369711Y4908830D01*
X10350527Y4955145D01*
X10341170Y4977736D01*
X10336933Y4981973D01*
X10320892Y5005981D01*
X10299001Y5058830D01*
X10291170Y5077736D01*
X10286933Y5081973D01*
X10271652Y5104211D01*
X10271264Y5105082D01*
X10249001Y5158830D01*
X10241170Y5177736D01*
X10237134Y5181772D01*
X10231894Y5193547D01*
X10231637Y5203404D01*
X10225501Y5223635D01*
X10225501Y5244854D01*
X10205134Y5294023D01*
X10199001Y5308830D01*
X10191170Y5327736D01*
X10180416Y5338490D01*
X10175697Y5346406D01*
X10175252Y5349456D01*
X10170892Y5355981D01*
X10149001Y5408830D01*
X10141170Y5427736D01*
X10136933Y5431973D01*
X10120892Y5455980D01*
X10119711Y5458830D01*
X10100527Y5505145D01*
X10091170Y5527736D01*
X10086933Y5531973D01*
X10070892Y5555981D01*
X10049001Y5608830D01*
X10041170Y5627736D01*
X10036933Y5631973D01*
X10021652Y5654211D01*
X10021264Y5655082D01*
X9999001Y5708830D01*
X9991170Y5727736D01*
X9987134Y5731772D01*
X9981894Y5743547D01*
X9981637Y5753404D01*
X9975501Y5773635D01*
X9975501Y5794854D01*
X9975500Y5794856D01*
X9969711Y5808831D01*
X9948268Y5860600D01*
X9941170Y5877736D01*
X9936933Y5881973D01*
X9923071Y5901205D01*
X9921901Y5903545D01*
X9899001Y5958830D01*
X9891170Y5977736D01*
X9878441Y5990465D01*
X9873071Y6001205D01*
X9872950Y6002900D01*
X9870892Y6005980D01*
X9869711Y6008830D01*
X9850527Y6055145D01*
X9841170Y6077736D01*
X9836933Y6081973D01*
X9820892Y6105980D01*
X9819711Y6108830D01*
X9798519Y6159993D01*
X9791170Y6177736D01*
X9786933Y6181973D01*
X9771652Y6204211D01*
X9771264Y6205082D01*
X9749001Y6258830D01*
X9741170Y6277736D01*
X9737134Y6281772D01*
X9731894Y6293547D01*
X9731637Y6303404D01*
X9725501Y6323635D01*
X9725501Y6344854D01*
X9693997Y6420911D01*
X9691170Y6427736D01*
X9686933Y6431973D01*
X9670892Y6455980D01*
X9670310Y6457384D01*
X9644173Y6520485D01*
X9643435Y6522266D01*
X9641170Y6527736D01*
X9636933Y6531973D01*
X9620892Y6555981D01*
X9599001Y6608830D01*
X9591170Y6627736D01*
X9586933Y6631973D01*
X9570892Y6655980D01*
X9569711Y6658830D01*
X9543508Y6722091D01*
X9541170Y6727736D01*
X9536933Y6731973D01*
X9520892Y6755980D01*
X9493836Y6821299D01*
X9491170Y6827736D01*
X9481176Y6837730D01*
X9479281Y6840712D01*
X10555900Y6840712D01*
X10555900Y6722089D01*
X10586599Y6607518D01*
X10586601Y6607513D01*
X10645908Y6504791D01*
X10645909Y6504790D01*
X10645911Y6504787D01*
X10729787Y6420911D01*
X10729789Y6420910D01*
X10729790Y6420909D01*
X10757094Y6405145D01*
X10832514Y6361601D01*
X10832515Y6361601D01*
X10832517Y6361600D01*
X10842855Y6358830D01*
X10947088Y6330901D01*
X10947089Y6330900D01*
X10947091Y6330900D01*
X11065711Y6330900D01*
X11065711Y6330901D01*
X11180286Y6361601D01*
X11283013Y6420911D01*
X11366889Y6504787D01*
X11417538Y6592512D01*
X14542500Y6592512D01*
X14542500Y6473889D01*
X14573199Y6359318D01*
X14573201Y6359313D01*
X14632508Y6256591D01*
X14632509Y6256590D01*
X14632511Y6256587D01*
X14716387Y6172711D01*
X14819114Y6113401D01*
X14819115Y6113401D01*
X14819117Y6113400D01*
X14822439Y6112510D01*
X14933688Y6082701D01*
X14933689Y6082700D01*
X14933691Y6082700D01*
X15052311Y6082700D01*
X15052311Y6082701D01*
X15166886Y6113401D01*
X15269613Y6172711D01*
X15353489Y6256587D01*
X15412799Y6359314D01*
X15443499Y6473889D01*
X15443500Y6473889D01*
X15443500Y6592511D01*
X15443499Y6592512D01*
X15443094Y6594022D01*
X15412799Y6707086D01*
X15400876Y6727737D01*
X15353491Y6809810D01*
X15353490Y6809811D01*
X15353489Y6809813D01*
X15269613Y6893689D01*
X15269610Y6893691D01*
X15269609Y6893692D01*
X15166887Y6952999D01*
X15166882Y6953001D01*
X15052311Y6983700D01*
X15052309Y6983700D01*
X14933691Y6983700D01*
X14933689Y6983700D01*
X14819117Y6953001D01*
X14819112Y6952999D01*
X14716390Y6893692D01*
X14632508Y6809810D01*
X14573201Y6707088D01*
X14573199Y6707083D01*
X14542500Y6592512D01*
X11417538Y6592512D01*
X11426199Y6607514D01*
X11456900Y6722091D01*
X11456900Y6840709D01*
X11456900Y6840711D01*
X11456899Y6840712D01*
X11456177Y6843405D01*
X11426199Y6955286D01*
X11395285Y7008830D01*
X11366891Y7058010D01*
X11366890Y7058011D01*
X11366889Y7058013D01*
X11283013Y7141889D01*
X11283010Y7141891D01*
X11283009Y7141892D01*
X11180287Y7201199D01*
X11180282Y7201201D01*
X11065711Y7231900D01*
X11065709Y7231900D01*
X10947091Y7231900D01*
X10947089Y7231900D01*
X10832517Y7201201D01*
X10832512Y7201199D01*
X10729790Y7141892D01*
X10645908Y7058010D01*
X10586601Y6955288D01*
X10586599Y6955283D01*
X10555900Y6840712D01*
X9479281Y6840712D01*
X9476808Y6844602D01*
X9476208Y6848024D01*
X9470892Y6855980D01*
X9470637Y6856595D01*
X9450527Y6905145D01*
X9441170Y6927736D01*
X9441169Y6927737D01*
X9441168Y6927740D01*
X9437969Y6932528D01*
X9425501Y6973635D01*
X9425501Y6994854D01*
X9405134Y7044023D01*
X9399001Y7058830D01*
X9391170Y7077736D01*
X9380416Y7088490D01*
X9375697Y7096406D01*
X9375252Y7099456D01*
X9370892Y7105981D01*
X9349001Y7158830D01*
X9341170Y7177736D01*
X9336933Y7181973D01*
X9320892Y7205980D01*
X9310155Y7231900D01*
X9300527Y7255145D01*
X9291170Y7277736D01*
X9286933Y7281973D01*
X9270892Y7305981D01*
X9249001Y7358830D01*
X9241170Y7377736D01*
X9236933Y7381973D01*
X9220892Y7405980D01*
X9191170Y7477735D01*
X9191170Y7477736D01*
X9191168Y7477738D01*
X9185536Y7491337D01*
X9188538Y7492581D01*
X9175501Y7524057D01*
X9175501Y7544854D01*
X9175500Y7544856D01*
X9144949Y7618613D01*
X9144948Y7618614D01*
X9143587Y7621901D01*
X9141170Y7627736D01*
X9138877Y7630029D01*
X9134167Y7638885D01*
X9133293Y7647948D01*
X9125500Y7673635D01*
X9125500Y9349412D01*
X12949400Y9349412D01*
X12949400Y9230789D01*
X12980099Y9116218D01*
X12980101Y9116213D01*
X13039408Y9013491D01*
X13039409Y9013490D01*
X13039411Y9013487D01*
X13123287Y8929611D01*
X13123289Y8929610D01*
X13123290Y8929609D01*
X13197203Y8886935D01*
X13226014Y8870301D01*
X13226015Y8870301D01*
X13226017Y8870300D01*
X13283302Y8854951D01*
X13340588Y8839601D01*
X13340589Y8839600D01*
X13340591Y8839600D01*
X13459211Y8839600D01*
X13459211Y8839601D01*
X13573786Y8870301D01*
X13676513Y8929611D01*
X13760389Y9013487D01*
X13819699Y9116214D01*
X13850399Y9230789D01*
X13850400Y9230789D01*
X13850400Y9349411D01*
X13850399Y9349412D01*
X13819700Y9463983D01*
X13819698Y9463988D01*
X13760391Y9566710D01*
X13760390Y9566711D01*
X13760389Y9566713D01*
X13676513Y9650589D01*
X13676510Y9650591D01*
X13676509Y9650592D01*
X13573787Y9709899D01*
X13573782Y9709901D01*
X13459211Y9740600D01*
X13459209Y9740600D01*
X13340591Y9740600D01*
X13340589Y9740600D01*
X13226017Y9709901D01*
X13226012Y9709899D01*
X13123290Y9650592D01*
X13039408Y9566710D01*
X12980101Y9463988D01*
X12980099Y9463983D01*
X12949400Y9349412D01*
X9125500Y9349412D01*
X9125500Y11563811D01*
X9147174Y11616137D01*
X9165845Y11634808D01*
X9200475Y11669438D01*
X9249910Y11755062D01*
X9275499Y11850563D01*
X9275500Y11850563D01*
X9275500Y11949437D01*
X9275499Y11949438D01*
X9249911Y12044935D01*
X9249910Y12044936D01*
X9249910Y12044938D01*
X9232843Y12074499D01*
X9225260Y12087634D01*
X9217868Y12143787D01*
X9237018Y12176958D01*
X9734069Y12674011D01*
X9786395Y12695684D01*
X9838720Y12674011D01*
X10432144Y12080563D01*
X10538830Y11973873D01*
X10560503Y11921547D01*
X10538828Y11869221D01*
X10509358Y11852206D01*
X10509541Y11851765D01*
X10506197Y11850381D01*
X10505662Y11850071D01*
X10505064Y11849911D01*
X10505060Y11849910D01*
X10419437Y11800475D01*
X10349525Y11730563D01*
X10300090Y11644940D01*
X10300088Y11644935D01*
X10274500Y11549438D01*
X10274500Y11450563D01*
X10300088Y11355066D01*
X10300090Y11355061D01*
X10332154Y11299525D01*
X10349525Y11269438D01*
X10419438Y11199525D01*
X10505062Y11150090D01*
X10505063Y11150090D01*
X10505065Y11150089D01*
X10552813Y11137295D01*
X10600562Y11124501D01*
X10600563Y11124500D01*
X10600565Y11124500D01*
X10699437Y11124500D01*
X10699437Y11124501D01*
X10794938Y11150090D01*
X10800324Y11153201D01*
X10856475Y11160596D01*
X10889653Y11141442D01*
X11954609Y10076486D01*
X11954612Y10076482D01*
X11958830Y10072264D01*
X12022264Y10008830D01*
X12105145Y9974500D01*
X12194854Y9974500D01*
X13476364Y9974500D01*
X13507724Y9967527D01*
X13518704Y9962390D01*
X13522264Y9958830D01*
X13556003Y9944855D01*
X13557570Y9944206D01*
X13557572Y9944205D01*
X13594019Y9929108D01*
X13618027Y9913067D01*
X13622264Y9908830D01*
X13656595Y9894610D01*
X13694021Y9879108D01*
X13718027Y9863067D01*
X13722264Y9858830D01*
X13756595Y9844610D01*
X13805146Y9824499D01*
X13826366Y9824499D01*
X13857692Y9817542D01*
X13868691Y9812403D01*
X13872264Y9808830D01*
X13906595Y9794610D01*
X13944021Y9779108D01*
X13968027Y9763067D01*
X13972264Y9758830D01*
X14006595Y9744610D01*
X14044021Y9729108D01*
X14068027Y9713067D01*
X14072264Y9708830D01*
X14106595Y9694610D01*
X14155146Y9674499D01*
X14155147Y9674499D01*
X14253467Y9674499D01*
X14253475Y9674500D01*
X15325943Y9674500D01*
X15378269Y9652826D01*
X16304609Y8726486D01*
X16304612Y8726482D01*
X16372263Y8658831D01*
X16372266Y8658829D01*
X16444018Y8629109D01*
X16451492Y8625510D01*
X16460638Y8620456D01*
X16472264Y8608830D01*
X16506003Y8594855D01*
X16541259Y8580251D01*
X16544019Y8579108D01*
X16568027Y8563067D01*
X16572264Y8558830D01*
X16606595Y8544610D01*
X16655146Y8524499D01*
X16676366Y8524499D01*
X16707692Y8517542D01*
X16718691Y8512403D01*
X16722264Y8508830D01*
X16756595Y8494610D01*
X16794021Y8479108D01*
X16818027Y8463067D01*
X16822264Y8458830D01*
X16856595Y8444610D01*
X16894021Y8429108D01*
X16918027Y8413067D01*
X16922264Y8408830D01*
X16956595Y8394610D01*
X16994021Y8379108D01*
X17018027Y8363067D01*
X17022264Y8358830D01*
X17056595Y8344610D01*
X17105146Y8324499D01*
X17105147Y8324499D01*
X17203467Y8324499D01*
X17203475Y8324500D01*
X20811409Y8324500D01*
X20863735Y8302826D01*
X20875496Y8287498D01*
X20876308Y8286091D01*
X20876309Y8286090D01*
X20876311Y8286087D01*
X20960187Y8202211D01*
X21062914Y8142901D01*
X21062915Y8142901D01*
X21062917Y8142900D01*
X21120202Y8127551D01*
X21177488Y8112201D01*
X21177489Y8112200D01*
X21177491Y8112200D01*
X21296111Y8112200D01*
X21296111Y8112201D01*
X21410686Y8142901D01*
X21513413Y8202211D01*
X21597289Y8286087D01*
X21656599Y8388814D01*
X21687299Y8503389D01*
X21687300Y8503389D01*
X21687300Y8622011D01*
X21687299Y8622012D01*
X21686632Y8624500D01*
X21660436Y8722266D01*
X21656600Y8736583D01*
X21656598Y8736588D01*
X21597291Y8839310D01*
X21597290Y8839311D01*
X21597289Y8839313D01*
X21513413Y8923189D01*
X21513410Y8923191D01*
X21513409Y8923192D01*
X21410687Y8982499D01*
X21410682Y8982501D01*
X21296111Y9013200D01*
X21296109Y9013200D01*
X21177491Y9013200D01*
X21177489Y9013200D01*
X21062917Y8982501D01*
X21062912Y8982499D01*
X20960190Y8923192D01*
X20876308Y8839310D01*
X20860830Y8812500D01*
X20815897Y8778021D01*
X20796744Y8775500D01*
X17273636Y8775500D01*
X17242275Y8782474D01*
X17231294Y8787612D01*
X17227736Y8791170D01*
X17193995Y8805146D01*
X17155977Y8820894D01*
X17131971Y8836935D01*
X17127738Y8841168D01*
X17127736Y8841170D01*
X17103460Y8851226D01*
X17062240Y8868300D01*
X17055978Y8870894D01*
X17031971Y8886935D01*
X17027738Y8891168D01*
X17027736Y8891170D01*
X17003460Y8901226D01*
X16955978Y8920894D01*
X16931971Y8936935D01*
X16927738Y8941168D01*
X16927736Y8941170D01*
X16903460Y8951226D01*
X16903458Y8951227D01*
X16903458Y8951228D01*
X16844855Y8975501D01*
X16823634Y8975501D01*
X16793545Y8981894D01*
X16781772Y8987134D01*
X16777736Y8991170D01*
X16753460Y9001226D01*
X16705088Y9021263D01*
X16704208Y9021654D01*
X16703111Y9022810D01*
X16681971Y9036935D01*
X16677738Y9041168D01*
X16677736Y9041170D01*
X16675284Y9042186D01*
X16653458Y9051227D01*
X16653458Y9051228D01*
X16605978Y9070894D01*
X16581970Y9086935D01*
X15651578Y10017327D01*
X15651578Y10017328D01*
X15577737Y10091169D01*
X15577733Y10091172D01*
X15543997Y10105145D01*
X15494855Y10125501D01*
X15405145Y10125501D01*
X15396533Y10125501D01*
X15396525Y10125500D01*
X14853853Y10125500D01*
X14801527Y10147174D01*
X14779853Y10199500D01*
X14801526Y10251825D01*
X14827189Y10277487D01*
X14886499Y10380214D01*
X14917199Y10494789D01*
X14917200Y10494789D01*
X14917200Y10613411D01*
X14917199Y10613412D01*
X14906803Y10652209D01*
X14886499Y10727986D01*
X14877830Y10743001D01*
X14827191Y10830710D01*
X14827190Y10830711D01*
X14827189Y10830713D01*
X14743313Y10914589D01*
X14743310Y10914591D01*
X14743309Y10914592D01*
X14640587Y10973899D01*
X14640582Y10973901D01*
X14526011Y11004600D01*
X14526009Y11004600D01*
X14407391Y11004600D01*
X14407389Y11004600D01*
X14292817Y10973901D01*
X14292812Y10973899D01*
X14190090Y10914592D01*
X14102781Y10827283D01*
X14100857Y10829207D01*
X14059351Y10805234D01*
X14049681Y10804600D01*
X12447216Y10804600D01*
X12394890Y10826274D01*
X12394889Y10826275D01*
X11734215Y11486975D01*
X11712542Y11539301D01*
X11734217Y11591627D01*
X11786542Y11613300D01*
X14690254Y11613300D01*
X14742580Y11591626D01*
X14764254Y11539300D01*
X14754341Y11502301D01*
X14750090Y11494938D01*
X14750088Y11494935D01*
X14724500Y11399438D01*
X14724500Y11300563D01*
X14750088Y11205066D01*
X14750090Y11205061D01*
X14786821Y11141442D01*
X14799525Y11119438D01*
X14869438Y11049525D01*
X14955062Y11000090D01*
X14955063Y11000090D01*
X14955065Y11000089D01*
X14996756Y10988918D01*
X15050562Y10974501D01*
X15050563Y10974500D01*
X15050565Y10974500D01*
X15149437Y10974500D01*
X15149437Y10974501D01*
X15244938Y11000090D01*
X15330562Y11049525D01*
X15400475Y11119438D01*
X15449910Y11205062D01*
X15475499Y11300563D01*
X15475500Y11300563D01*
X15475500Y11399437D01*
X15475499Y11399438D01*
X15466640Y11432499D01*
X15449910Y11494938D01*
X15445659Y11502301D01*
X15438268Y11558454D01*
X15472747Y11603387D01*
X15509746Y11613300D01*
X17969587Y11613300D01*
X18021913Y11591626D01*
X18181040Y11432499D01*
X18332992Y11280548D01*
X18354666Y11228222D01*
X18354500Y11225686D01*
X18354500Y11103489D01*
X18385199Y10988918D01*
X18385201Y10988913D01*
X18444508Y10886191D01*
X18444509Y10886190D01*
X18444511Y10886187D01*
X18528387Y10802311D01*
X18631114Y10743001D01*
X18631115Y10743001D01*
X18631117Y10743000D01*
X18656902Y10736091D01*
X18745688Y10712301D01*
X18745689Y10712300D01*
X18745691Y10712300D01*
X18864311Y10712300D01*
X18864311Y10712301D01*
X18978886Y10743001D01*
X19081613Y10802311D01*
X19165489Y10886187D01*
X19224799Y10988914D01*
X19255499Y11103489D01*
X19255500Y11103489D01*
X19255500Y11222111D01*
X19255499Y11222112D01*
X19254567Y11225589D01*
X19224799Y11336686D01*
X19211824Y11359159D01*
X19165491Y11439410D01*
X19165490Y11439411D01*
X19165489Y11439413D01*
X19081613Y11523289D01*
X19081610Y11523291D01*
X19081609Y11523292D01*
X18978887Y11582599D01*
X18978882Y11582601D01*
X18864311Y11613300D01*
X18864309Y11613300D01*
X18745691Y11613300D01*
X18740841Y11613300D01*
X18740841Y11616013D01*
X18694517Y11628436D01*
X18687252Y11634808D01*
X18472150Y11849910D01*
X18245897Y12076164D01*
X18245894Y12076166D01*
X18153828Y12114300D01*
X17177252Y12114300D01*
X17124926Y12135974D01*
X17103252Y12188300D01*
X17113165Y12225299D01*
X17130899Y12256014D01*
X17161599Y12370589D01*
X17161600Y12370589D01*
X17161600Y12489211D01*
X17161599Y12489212D01*
X17161074Y12491170D01*
X17135399Y12586991D01*
X17130900Y12603783D01*
X17130898Y12603788D01*
X17071591Y12706510D01*
X17071590Y12706511D01*
X17071589Y12706513D01*
X16987713Y12790389D01*
X16987710Y12790391D01*
X16987709Y12790392D01*
X16884987Y12849699D01*
X16884982Y12849701D01*
X16770411Y12880400D01*
X16770409Y12880400D01*
X16651791Y12880400D01*
X16651789Y12880400D01*
X16537217Y12849701D01*
X16537212Y12849699D01*
X16434490Y12790392D01*
X16350608Y12706510D01*
X16291301Y12603788D01*
X16291299Y12603783D01*
X16260600Y12489212D01*
X16260600Y12370589D01*
X16291299Y12256018D01*
X16291300Y12256016D01*
X16291301Y12256014D01*
X16309034Y12225300D01*
X16316427Y12169148D01*
X16281949Y12124214D01*
X16244948Y12114300D01*
X11963613Y12114300D01*
X11911287Y12135974D01*
X11124349Y12922912D01*
X13581700Y12922912D01*
X13581700Y12804289D01*
X13612399Y12689718D01*
X13612401Y12689713D01*
X13671708Y12586991D01*
X13671709Y12586990D01*
X13671711Y12586987D01*
X13755587Y12503111D01*
X13755589Y12503110D01*
X13755590Y12503109D01*
X13858312Y12443802D01*
X13858314Y12443801D01*
X13858315Y12443801D01*
X13858317Y12443800D01*
X13915602Y12428451D01*
X13972888Y12413101D01*
X13972889Y12413100D01*
X13972891Y12413100D01*
X14091511Y12413100D01*
X14091511Y12413101D01*
X14206086Y12443801D01*
X14308813Y12503111D01*
X14392689Y12586987D01*
X14451999Y12689714D01*
X14482699Y12804289D01*
X14482700Y12804289D01*
X14482700Y12922911D01*
X14482699Y12922912D01*
X14452000Y13037483D01*
X14451998Y13037488D01*
X14392691Y13140210D01*
X14392690Y13140211D01*
X14392689Y13140213D01*
X14308813Y13224089D01*
X14308810Y13224091D01*
X14308809Y13224092D01*
X14206087Y13283399D01*
X14206082Y13283401D01*
X14091511Y13314100D01*
X14091509Y13314100D01*
X13972891Y13314100D01*
X13972889Y13314100D01*
X13858317Y13283401D01*
X13858312Y13283399D01*
X13755590Y13224092D01*
X13671708Y13140210D01*
X13612401Y13037488D01*
X13612399Y13037483D01*
X13581700Y12922912D01*
X11124349Y12922912D01*
X11066608Y12980653D01*
X11044934Y13032979D01*
X11045100Y13035512D01*
X11045100Y13157711D01*
X11045099Y13157712D01*
X11014400Y13272283D01*
X11014398Y13272288D01*
X10955091Y13375010D01*
X10955090Y13375011D01*
X10955089Y13375013D01*
X10899626Y13430476D01*
X10877953Y13482800D01*
X10899627Y13535126D01*
X10951953Y13556800D01*
X15211727Y13556800D01*
X15211728Y13556800D01*
X15303797Y13594936D01*
X17094628Y15385769D01*
X17924500Y15385769D01*
X17924500Y15234232D01*
X17963717Y15087870D01*
X17963721Y15087861D01*
X18039483Y14956638D01*
X18039485Y14956635D01*
X18146635Y14849485D01*
X18277865Y14773719D01*
X18424231Y14734501D01*
X18424232Y14734500D01*
X18424234Y14734500D01*
X18575768Y14734500D01*
X18575768Y14734501D01*
X18722135Y14773719D01*
X18853365Y14849485D01*
X18960515Y14956635D01*
X19036281Y15087865D01*
X19075499Y15234232D01*
X19075500Y15234232D01*
X19075500Y15385768D01*
X19075499Y15385769D01*
X19068808Y15410739D01*
X19036281Y15532135D01*
X18960515Y15663365D01*
X18853365Y15770515D01*
X18820699Y15789375D01*
X18722139Y15846279D01*
X18722130Y15846283D01*
X18575768Y15885500D01*
X18575766Y15885500D01*
X18424234Y15885500D01*
X18424232Y15885500D01*
X18277869Y15846283D01*
X18277860Y15846279D01*
X18146637Y15770517D01*
X18039483Y15663363D01*
X17963721Y15532140D01*
X17963717Y15532131D01*
X17924500Y15385769D01*
X17094628Y15385769D01*
X18145452Y16436594D01*
X18197777Y16458267D01*
X18200314Y16458100D01*
X18203891Y16458100D01*
X18322511Y16458100D01*
X18322511Y16458101D01*
X18437086Y16488801D01*
X18539813Y16548111D01*
X18623689Y16631987D01*
X18682999Y16734714D01*
X18713699Y16849289D01*
X18713700Y16849289D01*
X18713700Y16967911D01*
X18713699Y16967912D01*
X18713217Y16969709D01*
X18685304Y17073883D01*
X18683000Y17082483D01*
X18682998Y17082488D01*
X18623691Y17185210D01*
X18623690Y17185211D01*
X18623689Y17185213D01*
X18539813Y17269089D01*
X18539810Y17269091D01*
X18539809Y17269092D01*
X18437087Y17328399D01*
X18437082Y17328401D01*
X18322511Y17359100D01*
X18322509Y17359100D01*
X18203891Y17359100D01*
X18203889Y17359100D01*
X18089317Y17328401D01*
X18089312Y17328399D01*
X17986590Y17269092D01*
X17902708Y17185210D01*
X17843401Y17082488D01*
X17843399Y17082483D01*
X17812700Y16967912D01*
X17812700Y16844441D01*
X17809983Y16844441D01*
X17797574Y16798131D01*
X17791192Y16790854D01*
X15079813Y14079474D01*
X15027487Y14057800D01*
X14725113Y14057800D01*
X14672787Y14079474D01*
X14651113Y14131800D01*
X14672787Y14184126D01*
X15943763Y15455102D01*
X15943764Y15455103D01*
X15981900Y15547172D01*
X15981900Y15646828D01*
X15981900Y16273481D01*
X16003574Y16325807D01*
X16005482Y16327481D01*
X16008010Y16330010D01*
X16008013Y16330011D01*
X16091889Y16413887D01*
X16151199Y16516614D01*
X16181899Y16631189D01*
X16181900Y16631189D01*
X16181900Y16749811D01*
X16181899Y16749812D01*
X16151200Y16864383D01*
X16151198Y16864388D01*
X16100914Y16951483D01*
X16091000Y16988483D01*
X16091000Y19884181D01*
X16112674Y19936507D01*
X16114582Y19938181D01*
X16117110Y19940710D01*
X16117113Y19940711D01*
X16200989Y20024587D01*
X16260299Y20127314D01*
X16276392Y20187374D01*
X16310868Y20232304D01*
X16367021Y20239698D01*
X16400195Y20220545D01*
X17743415Y18877325D01*
X17743418Y18877321D01*
X17747636Y18873103D01*
X17818103Y18802636D01*
X17856240Y18786840D01*
X17910173Y18764499D01*
X17941699Y18764499D01*
X17951142Y18761959D01*
X17966430Y18750205D01*
X17984246Y18742825D01*
X17988086Y18733554D01*
X17996042Y18727437D01*
X17998540Y18708315D01*
X18005920Y18690499D01*
X18002524Y18677826D01*
X18003380Y18671277D01*
X17999373Y18666066D01*
X17996006Y18653499D01*
X17983701Y18632188D01*
X17983699Y18632183D01*
X17953000Y18517612D01*
X17953000Y18398989D01*
X17983699Y18284418D01*
X17983701Y18284413D01*
X18043008Y18181691D01*
X18043009Y18181690D01*
X18043011Y18181687D01*
X18089705Y18134993D01*
X18130317Y18094381D01*
X18128393Y18092458D01*
X18152366Y18050951D01*
X18153000Y18041281D01*
X18153000Y17997771D01*
X18191134Y17905706D01*
X18191136Y17905703D01*
X19068692Y17028148D01*
X19090366Y16975822D01*
X19090200Y16973286D01*
X19090200Y16851089D01*
X19120899Y16736518D01*
X19120901Y16736513D01*
X19180208Y16633791D01*
X19180209Y16633790D01*
X19180211Y16633787D01*
X19264087Y16549911D01*
X19264089Y16549910D01*
X19264090Y16549909D01*
X19321760Y16516613D01*
X19366814Y16490601D01*
X19366815Y16490601D01*
X19366817Y16490600D01*
X19373535Y16488800D01*
X19481388Y16459901D01*
X19481389Y16459900D01*
X19481391Y16459900D01*
X19600011Y16459900D01*
X19600011Y16459901D01*
X19714586Y16490601D01*
X19817313Y16549911D01*
X19901189Y16633787D01*
X19960499Y16736514D01*
X19991199Y16851089D01*
X19991200Y16851089D01*
X19991200Y16969711D01*
X19991199Y16969712D01*
X19990241Y16973286D01*
X19965106Y17067093D01*
X19960500Y17084283D01*
X19960498Y17084288D01*
X19901191Y17187010D01*
X19901190Y17187011D01*
X19901189Y17187013D01*
X19817313Y17270889D01*
X19817310Y17270891D01*
X19817309Y17270892D01*
X19714587Y17330199D01*
X19714582Y17330201D01*
X19600011Y17360900D01*
X19600009Y17360900D01*
X19481391Y17360900D01*
X19476541Y17360900D01*
X19476541Y17363613D01*
X19430217Y17376036D01*
X19422952Y17382408D01*
X18746157Y18059204D01*
X18724483Y18111530D01*
X18746156Y18163855D01*
X18763989Y18181687D01*
X18823299Y18284414D01*
X18853999Y18398989D01*
X18854000Y18398989D01*
X18854000Y18517611D01*
X18853999Y18517612D01*
X18853743Y18518566D01*
X18823299Y18632186D01*
X18810994Y18653499D01*
X18803600Y18709652D01*
X18838078Y18754585D01*
X18875079Y18764500D01*
X20985687Y18764500D01*
X21038013Y18742826D01*
X22763092Y17017748D01*
X22784766Y16965422D01*
X22784600Y16962886D01*
X22784600Y16840689D01*
X22815299Y16726118D01*
X22815301Y16726113D01*
X22874608Y16623391D01*
X22874609Y16623390D01*
X22874611Y16623387D01*
X22958487Y16539511D01*
X22958489Y16539510D01*
X22958490Y16539509D01*
X23046318Y16488801D01*
X23061214Y16480201D01*
X23061215Y16480201D01*
X23061217Y16480200D01*
X23114567Y16465905D01*
X23175788Y16449501D01*
X23175789Y16449500D01*
X23175791Y16449500D01*
X23294411Y16449500D01*
X23294411Y16449501D01*
X23408986Y16480201D01*
X23511713Y16539511D01*
X23595589Y16623387D01*
X23654899Y16726114D01*
X23685599Y16840689D01*
X23685600Y16840689D01*
X23685600Y16959311D01*
X23685599Y16959312D01*
X23684641Y16962886D01*
X23661034Y17050989D01*
X23654900Y17073883D01*
X23654898Y17073888D01*
X23595591Y17176610D01*
X23595590Y17176611D01*
X23595589Y17176613D01*
X23511713Y17260489D01*
X23511710Y17260491D01*
X23511709Y17260492D01*
X23408987Y17319799D01*
X23408982Y17319801D01*
X23294411Y17350500D01*
X23294409Y17350500D01*
X23175791Y17350500D01*
X23170941Y17350500D01*
X23170941Y17353213D01*
X23124617Y17365636D01*
X23117352Y17372008D01*
X21261997Y19227364D01*
X21261994Y19227366D01*
X21169928Y19265500D01*
X18733622Y19265500D01*
X18681296Y19287174D01*
X18659622Y19339500D01*
X18669536Y19376500D01*
X18674077Y19384368D01*
X18681899Y19397914D01*
X18712599Y19512489D01*
X18712600Y19512489D01*
X18712600Y19631111D01*
X18712599Y19631112D01*
X18706891Y19652413D01*
X18681899Y19745686D01*
X18676631Y19754810D01*
X18622591Y19848410D01*
X18622590Y19848411D01*
X18622589Y19848413D01*
X18538713Y19932289D01*
X18538710Y19932291D01*
X18538709Y19932292D01*
X18435987Y19991599D01*
X18435982Y19991601D01*
X18321411Y20022300D01*
X18321409Y20022300D01*
X18202791Y20022300D01*
X18202789Y20022300D01*
X18088217Y19991601D01*
X18088212Y19991599D01*
X17985490Y19932292D01*
X17901608Y19848410D01*
X17842301Y19745688D01*
X17842299Y19745683D01*
X17820798Y19665440D01*
X17786319Y19620507D01*
X17730167Y19613115D01*
X17696994Y19632267D01*
X16258898Y21070363D01*
X16258894Y21070366D01*
X16181920Y21102249D01*
X16166828Y21108500D01*
X14535427Y21108500D01*
X14435772Y21108500D01*
X14343705Y21070366D01*
X12768913Y19495574D01*
X12716587Y19473900D01*
X11569836Y19473900D01*
X11517510Y19495574D01*
X11495836Y19547900D01*
X11505750Y19584900D01*
X11526308Y19620507D01*
X11550099Y19661714D01*
X11580799Y19776289D01*
X11580800Y19776289D01*
X11580800Y19894911D01*
X11580799Y19894912D01*
X11550100Y20009483D01*
X11550098Y20009488D01*
X11490791Y20112210D01*
X11490790Y20112211D01*
X11490789Y20112213D01*
X11406913Y20196089D01*
X11406910Y20196091D01*
X11406909Y20196092D01*
X11304187Y20255399D01*
X11304182Y20255401D01*
X11189611Y20286100D01*
X11189609Y20286100D01*
X11070991Y20286100D01*
X11070989Y20286100D01*
X10956417Y20255401D01*
X10956412Y20255399D01*
X10853690Y20196092D01*
X10769808Y20112210D01*
X10710501Y20009488D01*
X10710499Y20009483D01*
X10679800Y19894912D01*
X10679800Y19776289D01*
X10710499Y19661718D01*
X10710501Y19661713D01*
X10754850Y19584900D01*
X10762243Y19528748D01*
X10727764Y19483814D01*
X10690764Y19473900D01*
X8357519Y19473900D01*
X8305193Y19495574D01*
X8303519Y19497483D01*
X8263490Y19537512D01*
X8217113Y19583889D01*
X8217110Y19583891D01*
X8217109Y19583892D01*
X8114387Y19643199D01*
X8114382Y19643201D01*
X7999811Y19673900D01*
X7999809Y19673900D01*
X7881191Y19673900D01*
X7881189Y19673900D01*
X7766617Y19643201D01*
X7766608Y19643197D01*
X7754514Y19636214D01*
X7717515Y19626300D01*
X5125319Y19626300D01*
X5072993Y19647974D01*
X5071319Y19649883D01*
X5047302Y19673900D01*
X4984913Y19736289D01*
X4984910Y19736291D01*
X4984909Y19736292D01*
X4882187Y19795599D01*
X4882182Y19795601D01*
X4767611Y19826300D01*
X4767609Y19826300D01*
X4648991Y19826300D01*
X4648989Y19826300D01*
X4534417Y19795601D01*
X4534412Y19795599D01*
X4431690Y19736292D01*
X4347808Y19652410D01*
X4288501Y19549688D01*
X4288499Y19549683D01*
X4257800Y19435112D01*
X4257800Y19316489D01*
X4288499Y19201918D01*
X4288501Y19201913D01*
X4347808Y19099191D01*
X4347809Y19099190D01*
X4347811Y19099187D01*
X4431687Y19015311D01*
X4431689Y19015310D01*
X4431690Y19015309D01*
X4505144Y18972900D01*
X4534414Y18956001D01*
X4534415Y18956001D01*
X4534417Y18956000D01*
X4568786Y18946791D01*
X4648988Y18925301D01*
X4648989Y18925300D01*
X4648991Y18925300D01*
X4767611Y18925300D01*
X4767611Y18925301D01*
X4882186Y18956001D01*
X4984913Y19015311D01*
X5068789Y19099187D01*
X5068789Y19099188D01*
X5072219Y19102617D01*
X5074142Y19100694D01*
X5115649Y19124666D01*
X5125319Y19125300D01*
X7443612Y19125300D01*
X7495938Y19103626D01*
X7515090Y19070453D01*
X7520699Y19049518D01*
X7520701Y19049513D01*
X7580008Y18946791D01*
X7580009Y18946790D01*
X7580011Y18946787D01*
X7663887Y18862911D01*
X7766614Y18803601D01*
X7766615Y18803601D01*
X7766617Y18803600D01*
X7865223Y18777178D01*
X7910156Y18742700D01*
X7917548Y18686547D01*
X7883070Y18641614D01*
X7846070Y18631700D01*
X6303572Y18631700D01*
X6211505Y18593566D01*
X6211501Y18593563D01*
X4078546Y16460609D01*
X4026220Y16438935D01*
X4023685Y16439100D01*
X4020109Y16439100D01*
X3901491Y16439100D01*
X3901489Y16439100D01*
X3786917Y16408401D01*
X3786912Y16408399D01*
X3684190Y16349092D01*
X3600308Y16265210D01*
X3541001Y16162488D01*
X3540999Y16162483D01*
X3510300Y16047912D01*
X3510300Y15929289D01*
X3540999Y15814718D01*
X3541001Y15814713D01*
X3600308Y15711991D01*
X3600309Y15711990D01*
X3600311Y15711987D01*
X3684187Y15628111D01*
X3684189Y15628110D01*
X3684190Y15628109D01*
X3782563Y15571313D01*
X3786914Y15568801D01*
X3786915Y15568801D01*
X3786917Y15568800D01*
X3844202Y15553451D01*
X3901488Y15538101D01*
X3901489Y15538100D01*
X3901491Y15538100D01*
X4020111Y15538100D01*
X4020111Y15538101D01*
X4134686Y15568801D01*
X4237413Y15628111D01*
X4310294Y15700993D01*
X4362619Y15722666D01*
X4414945Y15700992D01*
X4420214Y15694985D01*
X4420809Y15694390D01*
X4420811Y15694387D01*
X4504687Y15610511D01*
X4504689Y15610510D01*
X4504690Y15610509D01*
X4576928Y15568802D01*
X4607414Y15551201D01*
X4607415Y15551201D01*
X4607417Y15551200D01*
X4656307Y15538100D01*
X4721988Y15520501D01*
X4721989Y15520500D01*
X4721991Y15520500D01*
X4840611Y15520500D01*
X4840611Y15520501D01*
X4955186Y15551201D01*
X5057913Y15610511D01*
X5102125Y15654724D01*
X5154450Y15676397D01*
X5206774Y15654724D01*
X5280187Y15581311D01*
X5280189Y15581310D01*
X5280190Y15581309D01*
X5365368Y15532131D01*
X5382914Y15522001D01*
X5382915Y15522001D01*
X5382917Y15522000D01*
X5440202Y15506651D01*
X5497488Y15491301D01*
X5497489Y15491300D01*
X5497491Y15491300D01*
X5616111Y15491300D01*
X5616111Y15491301D01*
X5730686Y15522001D01*
X5833413Y15581311D01*
X5917289Y15665187D01*
X5917289Y15665188D01*
X5920719Y15668617D01*
X5922642Y15666694D01*
X5964149Y15690666D01*
X5973819Y15691300D01*
X10490644Y15691300D01*
X10542970Y15669626D01*
X10554727Y15654303D01*
X10566111Y15634587D01*
X10649987Y15550711D01*
X10649989Y15550710D01*
X10649990Y15550709D01*
X10752712Y15491402D01*
X10752714Y15491401D01*
X10752715Y15491401D01*
X10752717Y15491400D01*
X10810002Y15476051D01*
X10867288Y15460701D01*
X10867289Y15460700D01*
X10867291Y15460700D01*
X10985911Y15460700D01*
X10985911Y15460701D01*
X11100486Y15491401D01*
X11203213Y15550711D01*
X11287089Y15634587D01*
X11298471Y15654301D01*
X11343404Y15688779D01*
X11362556Y15691300D01*
X13515027Y15691300D01*
X13515028Y15691300D01*
X13607097Y15729436D01*
X14944753Y17067094D01*
X14997078Y17088767D01*
X14999611Y17088600D01*
X15003191Y17088600D01*
X15121811Y17088600D01*
X15121811Y17088601D01*
X15236386Y17119301D01*
X15339113Y17178611D01*
X15422989Y17262487D01*
X15451914Y17312586D01*
X15496847Y17347064D01*
X15553000Y17339672D01*
X15587478Y17294739D01*
X15590000Y17275586D01*
X15590000Y17171779D01*
X15568326Y17119453D01*
X15553000Y17107693D01*
X15454790Y17050992D01*
X15370908Y16967110D01*
X15311601Y16864388D01*
X15311599Y16864383D01*
X15280900Y16749812D01*
X15280900Y16631189D01*
X15311599Y16516618D01*
X15311601Y16516613D01*
X15370908Y16413891D01*
X15370909Y16413890D01*
X15370911Y16413887D01*
X15423098Y16361700D01*
X15458217Y16326581D01*
X15456293Y16324658D01*
X15480266Y16283151D01*
X15480900Y16273481D01*
X15480900Y15731413D01*
X15459226Y15679087D01*
X15157703Y15377565D01*
X15105377Y15355891D01*
X15053051Y15377565D01*
X15033900Y15410736D01*
X15018399Y15468586D01*
X15005285Y15491300D01*
X14959091Y15571310D01*
X14959090Y15571311D01*
X14959089Y15571313D01*
X14875213Y15655189D01*
X14875210Y15655191D01*
X14875209Y15655192D01*
X14772487Y15714499D01*
X14772482Y15714501D01*
X14657911Y15745200D01*
X14657909Y15745200D01*
X14539291Y15745200D01*
X14539289Y15745200D01*
X14424717Y15714501D01*
X14424712Y15714499D01*
X14321990Y15655192D01*
X14238108Y15571310D01*
X14178801Y15468588D01*
X14178799Y15468583D01*
X14148100Y15354012D01*
X14148100Y15230541D01*
X14145398Y15230541D01*
X14132938Y15184185D01*
X14126591Y15176954D01*
X13920013Y14970374D01*
X13867687Y14948700D01*
X5689572Y14948700D01*
X5597505Y14910566D01*
X5597501Y14910563D01*
X4617746Y13930809D01*
X4565420Y13909135D01*
X4562885Y13909300D01*
X4559309Y13909300D01*
X4440691Y13909300D01*
X4440689Y13909300D01*
X4326117Y13878601D01*
X4326112Y13878599D01*
X4223390Y13819292D01*
X4223387Y13819290D01*
X4223387Y13819289D01*
X4201825Y13797728D01*
X4149501Y13776054D01*
X4097175Y13797728D01*
X4080081Y13824425D01*
X4075501Y13836831D01*
X4075501Y13844854D01*
X4048806Y13909300D01*
X4041170Y13927736D01*
X4036933Y13931973D01*
X4020892Y13955980D01*
X3994513Y14019664D01*
X3991170Y14027736D01*
X3981451Y14037455D01*
X3977226Y14043951D01*
X3976568Y14047485D01*
X3970892Y14055980D01*
X3969711Y14058830D01*
X3950527Y14105145D01*
X3941170Y14127736D01*
X3936933Y14131973D01*
X3920892Y14155981D01*
X3902823Y14199603D01*
X3891170Y14227736D01*
X3886933Y14231973D01*
X3871652Y14254211D01*
X3871264Y14255082D01*
X3849001Y14308830D01*
X3841170Y14327736D01*
X3837134Y14331772D01*
X3831894Y14343547D01*
X3831637Y14353404D01*
X3825501Y14373635D01*
X3825501Y14394854D01*
X3812589Y14426026D01*
X3799001Y14458830D01*
X3791170Y14477736D01*
X3780416Y14488490D01*
X3775697Y14496406D01*
X3775252Y14499456D01*
X3770892Y14505981D01*
X3750048Y14556303D01*
X3741170Y14577736D01*
X3741168Y14577738D01*
X3740161Y14580170D01*
X3740160Y14636807D01*
X3744443Y14645491D01*
X3765297Y14681611D01*
X3765298Y14681613D01*
X3765299Y14681614D01*
X3795999Y14796189D01*
X3796000Y14796189D01*
X3796000Y14914811D01*
X3795999Y14914812D01*
X3765300Y15029383D01*
X3765298Y15029388D01*
X3705991Y15132110D01*
X3705990Y15132111D01*
X3705989Y15132113D01*
X3622113Y15215989D01*
X3622110Y15215991D01*
X3622109Y15215992D01*
X3519387Y15275299D01*
X3519382Y15275301D01*
X3404811Y15306000D01*
X3404809Y15306000D01*
X3286191Y15306000D01*
X3286189Y15306000D01*
X3171617Y15275301D01*
X3171612Y15275299D01*
X3068890Y15215992D01*
X2985008Y15132110D01*
X2925701Y15029388D01*
X2925699Y15029383D01*
X2895000Y14914812D01*
X2895000Y14796189D01*
X2925699Y14681618D01*
X2925701Y14681613D01*
X2985008Y14578891D01*
X2985009Y14578890D01*
X2985011Y14578887D01*
X3068887Y14495011D01*
X3068889Y14495010D01*
X3068890Y14495009D01*
X3140146Y14453869D01*
X3171614Y14435701D01*
X3171615Y14435701D01*
X3171617Y14435700D01*
X3261154Y14411708D01*
X3300803Y14385155D01*
X3306672Y14377473D01*
X3308830Y14372264D01*
X3316549Y14364545D01*
X3319541Y14360629D01*
X3320551Y14356827D01*
X3329105Y14344026D01*
X3343684Y14308830D01*
X3358830Y14272264D01*
X3358832Y14272262D01*
X3362028Y14267478D01*
X3374499Y14226366D01*
X3374499Y14205145D01*
X3387193Y14174500D01*
X3408829Y14122266D01*
X3408831Y14122263D01*
X3413065Y14118029D01*
X3429105Y14094023D01*
X3443683Y14058831D01*
X3443684Y14058830D01*
X3458829Y14022265D01*
X3463065Y14018029D01*
X3479105Y13994023D01*
X3493683Y13958831D01*
X3493684Y13958830D01*
X3508829Y13922265D01*
X3513066Y13918028D01*
X3529107Y13894021D01*
X3543489Y13859300D01*
X3558829Y13822266D01*
X3558830Y13822264D01*
X3563068Y13818026D01*
X3579105Y13794024D01*
X3585852Y13777736D01*
X3595210Y13755146D01*
X3595210Y13755145D01*
X3608829Y13722265D01*
X3612024Y13717485D01*
X3624499Y13676368D01*
X3624499Y13655146D01*
X3642159Y13612510D01*
X3642161Y13612506D01*
X3643684Y13608830D01*
X3658830Y13572264D01*
X3670577Y13560517D01*
X3675673Y13551194D01*
X3675934Y13548769D01*
X3679106Y13544023D01*
X3692567Y13511527D01*
X3692566Y13511527D01*
X3692567Y13511526D01*
X3708829Y13472266D01*
X3712028Y13467478D01*
X3724500Y13426365D01*
X3724500Y13300827D01*
X3724499Y13300813D01*
X3724499Y13205145D01*
X3736777Y13175502D01*
X3736779Y13175500D01*
X3758829Y13122265D01*
X3813065Y13068029D01*
X3829106Y13044023D01*
X3843213Y13009966D01*
X3845110Y13005388D01*
X3845110Y13005387D01*
X3858829Y12972265D01*
X3932671Y12898423D01*
X3932673Y12898422D01*
X3932674Y12898421D01*
X3958829Y12872265D01*
X4022263Y12808831D01*
X4022266Y12808829D01*
X4094018Y12779109D01*
X4101427Y12775546D01*
X4110611Y12770483D01*
X4122264Y12758830D01*
X4156595Y12744610D01*
X4194021Y12729108D01*
X4218027Y12713067D01*
X4222264Y12708830D01*
X4248652Y12697900D01*
X4294022Y12679107D01*
X4294023Y12679106D01*
X4318028Y12663067D01*
X4704609Y12276486D01*
X4704612Y12276482D01*
X4708830Y12272264D01*
X4772264Y12208830D01*
X4792375Y12200500D01*
X4844022Y12179107D01*
X4844023Y12179106D01*
X4868027Y12163067D01*
X4872264Y12158830D01*
X4892435Y12150475D01*
X4944020Y12129108D01*
X4944022Y12129106D01*
X4968027Y12113067D01*
X4972264Y12108830D01*
X5006595Y12094610D01*
X5055146Y12074499D01*
X5055147Y12074499D01*
X5153467Y12074499D01*
X5153475Y12074500D01*
X5975943Y12074500D01*
X6028269Y12052826D01*
X6152826Y11928269D01*
X6174500Y11875943D01*
X6174500Y11800563D01*
X6200088Y11705066D01*
X6200090Y11705061D01*
X6234804Y11644935D01*
X6249525Y11619438D01*
X6319438Y11549525D01*
X6405062Y11500090D01*
X6405063Y11500090D01*
X6405065Y11500089D01*
X6452813Y11487295D01*
X6500562Y11474501D01*
X6500563Y11474500D01*
X6500565Y11474500D01*
X6599436Y11474500D01*
X6609045Y11477076D01*
X6631018Y11482963D01*
X6687169Y11475572D01*
X6721649Y11430639D01*
X6714258Y11374487D01*
X6702497Y11359159D01*
X6473053Y11129715D01*
X6420727Y11108041D01*
X6368401Y11129715D01*
X6349249Y11162887D01*
X6342899Y11186586D01*
X6335428Y11199526D01*
X6283591Y11289310D01*
X6283590Y11289311D01*
X6283589Y11289313D01*
X6199713Y11373189D01*
X6199710Y11373191D01*
X6199709Y11373192D01*
X6096987Y11432499D01*
X6096982Y11432501D01*
X5982411Y11463200D01*
X5982409Y11463200D01*
X5863791Y11463200D01*
X5863789Y11463200D01*
X5749217Y11432501D01*
X5749212Y11432499D01*
X5646490Y11373192D01*
X5562608Y11289310D01*
X5503301Y11186588D01*
X5503299Y11186583D01*
X5472600Y11072012D01*
X5472600Y10953389D01*
X5503299Y10838818D01*
X5503301Y10838813D01*
X5562608Y10736091D01*
X5562609Y10736090D01*
X5562611Y10736087D01*
X5646487Y10652211D01*
X5749214Y10592901D01*
X5772912Y10586552D01*
X5817845Y10552073D01*
X5825238Y10495921D01*
X5806085Y10462747D01*
X5045643Y9702306D01*
X4993317Y9680632D01*
X4956317Y9690546D01*
X4873087Y9738599D01*
X4873082Y9738601D01*
X4758511Y9769300D01*
X4758509Y9769300D01*
X4639891Y9769300D01*
X4639889Y9769300D01*
X4525317Y9738601D01*
X4525312Y9738599D01*
X4422590Y9679292D01*
X4338708Y9595410D01*
X4279401Y9492688D01*
X4279399Y9492683D01*
X4248700Y9378112D01*
X4248700Y9254641D01*
X4245983Y9254641D01*
X4233574Y9208331D01*
X4227192Y9201054D01*
X2523037Y7496899D01*
X2523034Y7496895D01*
X2484900Y7404830D01*
X2484900Y4656619D01*
X2463226Y4604293D01*
X2461317Y4602620D01*
X2374908Y4516210D01*
X2315601Y4413488D01*
X2315599Y4413483D01*
X2284900Y4298912D01*
X2284900Y4180289D01*
X2315599Y4065718D01*
X2315601Y4065713D01*
X2374908Y3962991D01*
X2374909Y3962990D01*
X2374911Y3962987D01*
X2458787Y3879111D01*
X2458789Y3879110D01*
X2458790Y3879109D01*
X2561512Y3819802D01*
X2561514Y3819801D01*
X2610765Y3806605D01*
X2655698Y3772126D01*
X2663091Y3715974D01*
X2643938Y3682800D01*
X1882095Y2920958D01*
X1829769Y2899284D01*
X1777444Y2920958D01*
X1753813Y2944589D01*
X1753810Y2944591D01*
X1753809Y2944592D01*
X1651087Y3003899D01*
X1651082Y3003901D01*
X1536511Y3034600D01*
X1536509Y3034600D01*
X1417891Y3034600D01*
X1417889Y3034600D01*
X1303317Y3003901D01*
X1303312Y3003899D01*
X1200590Y2944592D01*
X1116708Y2860710D01*
X1057401Y2757988D01*
X1057399Y2757983D01*
X1026700Y2643412D01*
X250500Y2643412D01*
X250500Y21978512D01*
X4566100Y21978512D01*
X4566100Y21859889D01*
X4596799Y21745318D01*
X4596801Y21745313D01*
X4656108Y21642591D01*
X4656109Y21642590D01*
X4656111Y21642587D01*
X4739987Y21558711D01*
X4739989Y21558710D01*
X4739990Y21558709D01*
X4836723Y21502860D01*
X4842714Y21499401D01*
X4842715Y21499401D01*
X4842717Y21499400D01*
X4855261Y21496039D01*
X4957288Y21468701D01*
X4957289Y21468700D01*
X5035635Y21468700D01*
X5087961Y21447026D01*
X5109635Y21394700D01*
X5107113Y21375547D01*
X5078700Y21269512D01*
X5078700Y21150889D01*
X5109399Y21036318D01*
X5109401Y21036313D01*
X5168708Y20933591D01*
X5168709Y20933590D01*
X5168711Y20933587D01*
X5252587Y20849711D01*
X5355314Y20790401D01*
X5355315Y20790401D01*
X5355317Y20790400D01*
X5412602Y20775051D01*
X5469888Y20759701D01*
X5469889Y20759700D01*
X5469891Y20759700D01*
X5588509Y20759700D01*
X5593304Y20760985D01*
X5649456Y20753597D01*
X5683938Y20708666D01*
X5676550Y20652513D01*
X5676548Y20652510D01*
X5666202Y20634591D01*
X5666199Y20634583D01*
X5635500Y20520012D01*
X5635500Y20401389D01*
X5666199Y20286818D01*
X5666201Y20286813D01*
X5725508Y20184091D01*
X5725509Y20184090D01*
X5725511Y20184087D01*
X5809387Y20100211D01*
X5912114Y20040901D01*
X5912115Y20040901D01*
X5912117Y20040900D01*
X5969402Y20025551D01*
X6026688Y20010201D01*
X6026689Y20010200D01*
X6026691Y20010200D01*
X6145311Y20010200D01*
X6145311Y20010201D01*
X6259886Y20040901D01*
X6362613Y20100211D01*
X6446489Y20184087D01*
X6505799Y20286814D01*
X6536499Y20401389D01*
X6536500Y20401389D01*
X6536500Y20520011D01*
X6536499Y20520012D01*
X6527466Y20553722D01*
X6505799Y20634586D01*
X6505796Y20634591D01*
X6446491Y20737310D01*
X6446490Y20737311D01*
X6446489Y20737313D01*
X6362613Y20821189D01*
X6362610Y20821191D01*
X6362609Y20821192D01*
X6259887Y20880499D01*
X6259882Y20880501D01*
X6145311Y20911200D01*
X6145309Y20911200D01*
X6026691Y20911200D01*
X6026685Y20911200D01*
X6021887Y20909914D01*
X5965735Y20917309D01*
X5931259Y20962244D01*
X5938653Y21018394D01*
X5948997Y21036311D01*
X5948998Y21036313D01*
X5948999Y21036314D01*
X5979699Y21150889D01*
X5979700Y21150889D01*
X5979700Y21269511D01*
X5979699Y21269512D01*
X5949000Y21384083D01*
X5948998Y21384088D01*
X5905301Y21459772D01*
X5889689Y21486813D01*
X5878490Y21498012D01*
X8798400Y21498012D01*
X8798400Y21379389D01*
X8829099Y21264818D01*
X8829101Y21264813D01*
X8888408Y21162091D01*
X8888409Y21162090D01*
X8888411Y21162087D01*
X8972287Y21078211D01*
X8972289Y21078210D01*
X8972290Y21078209D01*
X9044859Y21036311D01*
X9075014Y21018901D01*
X9075015Y21018901D01*
X9075017Y21018900D01*
X9152522Y20998132D01*
X9197455Y20963654D01*
X9204848Y20907502D01*
X9173500Y20790509D01*
X9173500Y20671889D01*
X9204199Y20557318D01*
X9204201Y20557313D01*
X9263508Y20454591D01*
X9263509Y20454590D01*
X9263511Y20454587D01*
X9347387Y20370711D01*
X9450114Y20311401D01*
X9450115Y20311401D01*
X9450117Y20311400D01*
X9507402Y20296051D01*
X9564688Y20280701D01*
X9564689Y20280700D01*
X9564691Y20280700D01*
X9683311Y20280700D01*
X9683311Y20280701D01*
X9797886Y20311401D01*
X9900613Y20370711D01*
X9984489Y20454587D01*
X9984489Y20454588D01*
X9987919Y20458017D01*
X9989842Y20456094D01*
X10031349Y20480066D01*
X10041019Y20480700D01*
X11676727Y20480700D01*
X11676728Y20480700D01*
X11768797Y20518836D01*
X12415729Y21165769D01*
X17924500Y21165769D01*
X17924500Y21014232D01*
X17963717Y20867870D01*
X17963721Y20867861D01*
X18039095Y20737310D01*
X18039485Y20736635D01*
X18146635Y20629485D01*
X18277865Y20553719D01*
X18424231Y20514501D01*
X18424232Y20514500D01*
X18424234Y20514500D01*
X18575768Y20514500D01*
X18575768Y20514501D01*
X18722135Y20553719D01*
X18853365Y20629485D01*
X18960515Y20736635D01*
X19036281Y20867865D01*
X19075499Y21014232D01*
X19075500Y21014232D01*
X19075500Y21165768D01*
X19075499Y21165769D01*
X19073891Y21171769D01*
X19036281Y21312135D01*
X18960515Y21443365D01*
X18853365Y21550515D01*
X18839173Y21558709D01*
X18722139Y21626279D01*
X18722130Y21626283D01*
X18575768Y21665500D01*
X18575766Y21665500D01*
X18424234Y21665500D01*
X18424232Y21665500D01*
X18277869Y21626283D01*
X18277860Y21626279D01*
X18146637Y21550517D01*
X18039483Y21443363D01*
X17963721Y21312140D01*
X17963717Y21312131D01*
X17924500Y21165769D01*
X12415729Y21165769D01*
X14082252Y22832294D01*
X14134577Y22853967D01*
X14137114Y22853800D01*
X14140691Y22853800D01*
X14259311Y22853800D01*
X14259311Y22853801D01*
X14373886Y22884501D01*
X14476613Y22943811D01*
X14560489Y23027687D01*
X14619799Y23130414D01*
X14650499Y23244989D01*
X14650500Y23244989D01*
X14650500Y23363611D01*
X14650499Y23363612D01*
X14619800Y23478183D01*
X14619798Y23478188D01*
X14560491Y23580910D01*
X14560490Y23580911D01*
X14560489Y23580913D01*
X14476613Y23664789D01*
X14476610Y23664791D01*
X14476609Y23664792D01*
X14459254Y23674812D01*
X14926700Y23674812D01*
X14926700Y23556189D01*
X14957399Y23441618D01*
X14957401Y23441613D01*
X15016708Y23338891D01*
X15016709Y23338890D01*
X15016711Y23338887D01*
X15100587Y23255011D01*
X15100589Y23255010D01*
X15100590Y23255009D01*
X15179240Y23209600D01*
X15203314Y23195701D01*
X15203315Y23195701D01*
X15203317Y23195700D01*
X15237451Y23186554D01*
X15317888Y23165001D01*
X15317889Y23165000D01*
X15317891Y23165000D01*
X15436511Y23165000D01*
X15436511Y23165001D01*
X15551086Y23195701D01*
X15653813Y23255011D01*
X15737689Y23338887D01*
X15796999Y23441614D01*
X15827699Y23556189D01*
X15827700Y23556189D01*
X15827700Y23674809D01*
X15822147Y23695533D01*
X15822147Y23695535D01*
X15818314Y23709838D01*
X18849200Y23709838D01*
X18849200Y23610963D01*
X18874788Y23515466D01*
X18874790Y23515461D01*
X18910044Y23454400D01*
X18924225Y23429838D01*
X18994138Y23359925D01*
X19079762Y23310490D01*
X19079763Y23310490D01*
X19079765Y23310489D01*
X19113720Y23301391D01*
X19175262Y23284901D01*
X19175263Y23284900D01*
X19175265Y23284900D01*
X19274137Y23284900D01*
X19274137Y23284901D01*
X19369638Y23310490D01*
X19455262Y23359925D01*
X19525175Y23429838D01*
X19574610Y23515462D01*
X19600199Y23610963D01*
X19600200Y23610963D01*
X19600200Y23709837D01*
X19600199Y23709838D01*
X19574611Y23805335D01*
X19574609Y23805340D01*
X19525174Y23890963D01*
X19455262Y23960875D01*
X19369639Y24010310D01*
X19369634Y24010312D01*
X19274137Y24035900D01*
X19274135Y24035900D01*
X19175265Y24035900D01*
X19175263Y24035900D01*
X19079765Y24010312D01*
X19079760Y24010310D01*
X18994137Y23960875D01*
X18924225Y23890963D01*
X18874790Y23805340D01*
X18874788Y23805335D01*
X18849200Y23709838D01*
X15818314Y23709838D01*
X15797000Y23789383D01*
X15796998Y23789388D01*
X15737691Y23892110D01*
X15737690Y23892111D01*
X15737689Y23892113D01*
X15653813Y23975989D01*
X15653810Y23975991D01*
X15653809Y23975992D01*
X15551087Y24035299D01*
X15551082Y24035301D01*
X15436511Y24066000D01*
X15436509Y24066000D01*
X15317891Y24066000D01*
X15317889Y24066000D01*
X15203317Y24035301D01*
X15203312Y24035299D01*
X15100590Y23975992D01*
X15016708Y23892110D01*
X14957401Y23789388D01*
X14957399Y23789383D01*
X14926700Y23674812D01*
X14459254Y23674812D01*
X14373887Y23724099D01*
X14373882Y23724101D01*
X14259311Y23754800D01*
X14259309Y23754800D01*
X14140691Y23754800D01*
X14140689Y23754800D01*
X14026117Y23724101D01*
X14026112Y23724099D01*
X13923390Y23664792D01*
X13839508Y23580910D01*
X13780201Y23478188D01*
X13780199Y23478183D01*
X13749500Y23363612D01*
X13749500Y23240141D01*
X13746783Y23240141D01*
X13734374Y23193831D01*
X13727992Y23186554D01*
X11544813Y21003374D01*
X11492487Y20981700D01*
X10041019Y20981700D01*
X9988693Y21003374D01*
X9987019Y21005283D01*
X9955984Y21036318D01*
X9900613Y21091689D01*
X9900610Y21091691D01*
X9900609Y21091692D01*
X9797887Y21150999D01*
X9797883Y21151000D01*
X9720376Y21171769D01*
X9675444Y21206248D01*
X9668052Y21262400D01*
X9669957Y21269509D01*
X9699399Y21379389D01*
X9699400Y21379389D01*
X9699400Y21502860D01*
X9702130Y21502860D01*
X9714495Y21549131D01*
X9720899Y21556440D01*
X13452762Y25288302D01*
X13505087Y25309975D01*
X13557413Y25288301D01*
X13576565Y25255128D01*
X13585999Y25219918D01*
X13586001Y25219913D01*
X13645308Y25117191D01*
X13645309Y25117190D01*
X13645311Y25117187D01*
X13729187Y25033311D01*
X13729189Y25033310D01*
X13729190Y25033309D01*
X13831912Y24974002D01*
X13831914Y24974001D01*
X13831915Y24974001D01*
X13831917Y24974000D01*
X13863636Y24965501D01*
X13946488Y24943301D01*
X13946489Y24943300D01*
X13946491Y24943300D01*
X14065111Y24943300D01*
X14065111Y24943301D01*
X14179686Y24974001D01*
X14282413Y25033311D01*
X14366289Y25117187D01*
X14425599Y25219914D01*
X14456299Y25334489D01*
X14456300Y25334489D01*
X14456300Y25444612D01*
X17727300Y25444612D01*
X17727300Y25325989D01*
X17757999Y25211418D01*
X17758001Y25211413D01*
X17817308Y25108691D01*
X17817309Y25108690D01*
X17817311Y25108687D01*
X17901187Y25024811D01*
X17901189Y25024810D01*
X17901190Y25024809D01*
X17989193Y24974000D01*
X18003914Y24965501D01*
X18003915Y24965501D01*
X18003917Y24965500D01*
X18061202Y24950151D01*
X18118488Y24934801D01*
X18118489Y24934800D01*
X18118491Y24934800D01*
X18237111Y24934800D01*
X18237111Y24934801D01*
X18351686Y24965501D01*
X18454413Y25024811D01*
X18538289Y25108687D01*
X18597599Y25211414D01*
X18628299Y25325989D01*
X18628300Y25325989D01*
X18628300Y25444611D01*
X18628299Y25444612D01*
X18626021Y25453112D01*
X18597599Y25559186D01*
X18597598Y25559188D01*
X18596162Y25562655D01*
X18596162Y25619293D01*
X18612200Y25643297D01*
X20412772Y27443868D01*
X20465097Y27465541D01*
X20517423Y27443867D01*
X20536575Y27410694D01*
X20548599Y27365818D01*
X20548601Y27365813D01*
X20607908Y27263091D01*
X20607909Y27263090D01*
X20607911Y27263087D01*
X20691787Y27179211D01*
X20794514Y27119901D01*
X20794515Y27119901D01*
X20794517Y27119900D01*
X20851802Y27104551D01*
X20909088Y27089201D01*
X20909089Y27089200D01*
X20909091Y27089200D01*
X21027711Y27089200D01*
X21027711Y27089201D01*
X21142286Y27119901D01*
X21245013Y27179211D01*
X21328889Y27263087D01*
X21388199Y27365814D01*
X21400225Y27410694D01*
X21402481Y27419112D01*
X23149300Y27419112D01*
X23149300Y27300489D01*
X23179999Y27185918D01*
X23180001Y27185913D01*
X23239308Y27083191D01*
X23239309Y27083190D01*
X23239311Y27083187D01*
X23323187Y26999311D01*
X23425914Y26940001D01*
X23425915Y26940001D01*
X23425917Y26940000D01*
X23483202Y26924651D01*
X23540488Y26909301D01*
X23540489Y26909300D01*
X23540491Y26909300D01*
X23659111Y26909300D01*
X23659111Y26909301D01*
X23773686Y26940001D01*
X23876413Y26999311D01*
X23960289Y27083187D01*
X24019599Y27185914D01*
X24050299Y27300489D01*
X24050300Y27300489D01*
X24050300Y27419111D01*
X24050299Y27419112D01*
X24037858Y27465541D01*
X24019599Y27533686D01*
X24010760Y27548995D01*
X23960291Y27636410D01*
X23960290Y27636411D01*
X23960289Y27636413D01*
X23876413Y27720289D01*
X23876410Y27720291D01*
X23876409Y27720292D01*
X23773687Y27779599D01*
X23773682Y27779601D01*
X23659111Y27810300D01*
X23659109Y27810300D01*
X23540491Y27810300D01*
X23540489Y27810300D01*
X23425917Y27779601D01*
X23425912Y27779599D01*
X23323190Y27720292D01*
X23239308Y27636410D01*
X23180001Y27533688D01*
X23179999Y27533683D01*
X23149300Y27419112D01*
X21402481Y27419112D01*
X21408910Y27443106D01*
X21408911Y27443111D01*
X21418900Y27480392D01*
X21418900Y27599011D01*
X21418899Y27599012D01*
X21408877Y27636413D01*
X21388199Y27713586D01*
X21372550Y27740691D01*
X21328891Y27816311D01*
X21327730Y27817823D01*
X21327480Y27818754D01*
X21326464Y27820514D01*
X21326935Y27820787D01*
X21321557Y27840852D01*
X21312434Y27862876D01*
X21314388Y27867595D01*
X21313066Y27872529D01*
X21334106Y27915201D01*
X21391170Y27972264D01*
X21391170Y27972266D01*
X21612041Y28193138D01*
X21664366Y28214811D01*
X21683520Y28212289D01*
X21691689Y28210100D01*
X21691691Y28210100D01*
X21810311Y28210100D01*
X21810311Y28210101D01*
X21924886Y28240801D01*
X22027613Y28300111D01*
X22111489Y28383987D01*
X22170799Y28486714D01*
X22201499Y28601289D01*
X22201500Y28601289D01*
X22201500Y28719911D01*
X22201499Y28719912D01*
X22170800Y28834483D01*
X22170798Y28834488D01*
X22111491Y28937210D01*
X22111490Y28937211D01*
X22111489Y28937213D01*
X22027613Y29021089D01*
X22027610Y29021091D01*
X22027609Y29021092D01*
X21924887Y29080399D01*
X21924882Y29080401D01*
X21810311Y29111100D01*
X21810309Y29111100D01*
X21691691Y29111100D01*
X21691689Y29111100D01*
X21577117Y29080401D01*
X21577112Y29080399D01*
X21474390Y29021092D01*
X21390508Y28937210D01*
X21331201Y28834488D01*
X21331199Y28834483D01*
X21300500Y28719912D01*
X21300500Y28601290D01*
X21306746Y28577978D01*
X21299352Y28521826D01*
X21287593Y28506502D01*
X21128269Y28347175D01*
X21075944Y28325500D01*
X20903475Y28325500D01*
X20903467Y28325501D01*
X20894855Y28325501D01*
X20805146Y28325501D01*
X20756594Y28305392D01*
X20756595Y28305391D01*
X20722267Y28291172D01*
X20722259Y28291167D01*
X20718022Y28286930D01*
X20694022Y28270894D01*
X20671864Y28261716D01*
X20656595Y28255391D01*
X20656594Y28255391D01*
X20622267Y28241172D01*
X20622263Y28241170D01*
X20618026Y28236932D01*
X20594021Y28220894D01*
X20546540Y28201228D01*
X20546541Y28201227D01*
X20522263Y28191170D01*
X18188568Y25857474D01*
X18136242Y25835800D01*
X18118489Y25835800D01*
X18003917Y25805101D01*
X18003912Y25805099D01*
X17901190Y25745792D01*
X17817308Y25661910D01*
X17758001Y25559188D01*
X17757999Y25559183D01*
X17727300Y25444612D01*
X14456300Y25444612D01*
X14456300Y25453111D01*
X14456299Y25453112D01*
X14425600Y25567683D01*
X14425598Y25567688D01*
X14366291Y25670410D01*
X14366290Y25670411D01*
X14366289Y25670413D01*
X14282413Y25754289D01*
X14282410Y25754291D01*
X14282409Y25754292D01*
X14281676Y25754715D01*
X14281415Y25755055D01*
X14278559Y25757247D01*
X14279146Y25758013D01*
X14247199Y25799650D01*
X14254593Y25855802D01*
X14299528Y25890279D01*
X14318678Y25892800D01*
X16927181Y25892800D01*
X16979507Y25871126D01*
X16981180Y25869218D01*
X16983710Y25866688D01*
X16983711Y25866687D01*
X17067587Y25782811D01*
X17067589Y25782810D01*
X17067590Y25782809D01*
X17164255Y25726999D01*
X17170314Y25723501D01*
X17170315Y25723501D01*
X17170317Y25723500D01*
X17227602Y25708151D01*
X17284888Y25692801D01*
X17284889Y25692800D01*
X17284891Y25692800D01*
X17403511Y25692800D01*
X17403511Y25692801D01*
X17518086Y25723501D01*
X17620813Y25782811D01*
X17704689Y25866687D01*
X17763999Y25969414D01*
X17794699Y26083989D01*
X17794700Y26083989D01*
X17794700Y26202611D01*
X17794699Y26202612D01*
X17764000Y26317183D01*
X17763998Y26317188D01*
X17704691Y26419910D01*
X17704690Y26419911D01*
X17704689Y26419913D01*
X17620813Y26503789D01*
X17620810Y26503791D01*
X17620809Y26503792D01*
X17518087Y26563099D01*
X17518082Y26563101D01*
X17403511Y26593800D01*
X17403509Y26593800D01*
X17284891Y26593800D01*
X17284889Y26593800D01*
X17170317Y26563101D01*
X17170312Y26563099D01*
X17067590Y26503792D01*
X16980281Y26416483D01*
X16978357Y26418407D01*
X16936851Y26394434D01*
X16927181Y26393800D01*
X13903672Y26393800D01*
X13811605Y26355666D01*
X13811601Y26355663D01*
X13737427Y26281489D01*
X13685101Y26259815D01*
X13632775Y26281489D01*
X13613623Y26314661D01*
X13598799Y26369986D01*
X13569975Y26419910D01*
X13539491Y26472710D01*
X13539490Y26472711D01*
X13539489Y26472713D01*
X13455613Y26556589D01*
X13455610Y26556591D01*
X13455609Y26556592D01*
X13352887Y26615899D01*
X13352882Y26615901D01*
X13238311Y26646600D01*
X13238309Y26646600D01*
X13119691Y26646600D01*
X13119689Y26646600D01*
X13005117Y26615901D01*
X13005112Y26615899D01*
X12902390Y26556592D01*
X12818508Y26472710D01*
X12759201Y26369988D01*
X12759199Y26369983D01*
X12728500Y26255412D01*
X12728500Y26136789D01*
X12759199Y26022218D01*
X12759201Y26022213D01*
X12818508Y25919491D01*
X12818509Y25919490D01*
X12818511Y25919487D01*
X12902387Y25835611D01*
X12902389Y25835610D01*
X12902390Y25835609D01*
X12993838Y25782811D01*
X13005114Y25776301D01*
X13060438Y25761477D01*
X13105371Y25726999D01*
X13112764Y25670847D01*
X13093611Y25637673D01*
X11110867Y23654930D01*
X11058541Y23633256D01*
X11006215Y23654930D01*
X10987063Y23688103D01*
X10956200Y23803283D01*
X10956198Y23803288D01*
X10896891Y23906010D01*
X10896890Y23906011D01*
X10896889Y23906013D01*
X10813013Y23989889D01*
X10813010Y23989891D01*
X10813009Y23989892D01*
X10710287Y24049199D01*
X10710282Y24049201D01*
X10595711Y24079900D01*
X10595709Y24079900D01*
X10477091Y24079900D01*
X10477089Y24079900D01*
X10362517Y24049201D01*
X10362512Y24049199D01*
X10259790Y23989892D01*
X10175908Y23906010D01*
X10116601Y23803288D01*
X10116599Y23803283D01*
X10085900Y23688712D01*
X10085900Y23570089D01*
X10116599Y23455518D01*
X10116601Y23455513D01*
X10175908Y23352791D01*
X10175909Y23352790D01*
X10175911Y23352787D01*
X10259787Y23268911D01*
X10259789Y23268910D01*
X10259790Y23268909D01*
X10362512Y23209602D01*
X10362514Y23209601D01*
X10362515Y23209601D01*
X10362517Y23209600D01*
X10477697Y23178737D01*
X10522630Y23144259D01*
X10530022Y23088106D01*
X10510870Y23054933D01*
X9366646Y21910709D01*
X9314320Y21889035D01*
X9311785Y21889200D01*
X9308209Y21889200D01*
X9189591Y21889200D01*
X9189589Y21889200D01*
X9075017Y21858501D01*
X9075012Y21858499D01*
X8972290Y21799192D01*
X8888408Y21715310D01*
X8829101Y21612588D01*
X8829099Y21612583D01*
X8798400Y21498012D01*
X5878490Y21498012D01*
X5832224Y21544278D01*
X5830479Y21546296D01*
X5822342Y21570825D01*
X5812453Y21594700D01*
X5813546Y21597341D01*
X5812647Y21600053D01*
X5824237Y21623151D01*
X5834127Y21647026D01*
X5836767Y21648120D01*
X5838049Y21650674D01*
X5862577Y21658811D01*
X5886453Y21668700D01*
X8181027Y21668700D01*
X8181028Y21668700D01*
X8273097Y21706836D01*
X9318153Y22751894D01*
X9370478Y22773567D01*
X9373011Y22773400D01*
X9376591Y22773400D01*
X9495211Y22773400D01*
X9495211Y22773401D01*
X9609786Y22804101D01*
X9712513Y22863411D01*
X9796389Y22947287D01*
X9855699Y23050014D01*
X9886399Y23164589D01*
X9886400Y23164589D01*
X9886400Y23283211D01*
X9886399Y23283212D01*
X9885946Y23284901D01*
X9855699Y23397786D01*
X9852046Y23404113D01*
X9796391Y23500510D01*
X9796390Y23500511D01*
X9796389Y23500513D01*
X9712513Y23584389D01*
X9712510Y23584391D01*
X9712509Y23584392D01*
X9609787Y23643699D01*
X9609782Y23643701D01*
X9495211Y23674400D01*
X9495209Y23674400D01*
X9376591Y23674400D01*
X9376589Y23674400D01*
X9262017Y23643701D01*
X9262012Y23643699D01*
X9159290Y23584392D01*
X9075408Y23500510D01*
X9016101Y23397788D01*
X9016099Y23397783D01*
X8985400Y23283212D01*
X8985400Y23159741D01*
X8985035Y23159741D01*
X8985566Y23158457D01*
X8976441Y23136447D01*
X8970274Y23113431D01*
X8963876Y23106138D01*
X8962232Y23104495D01*
X8909899Y23082837D01*
X8857580Y23104527D01*
X8838445Y23137682D01*
X8827699Y23177786D01*
X8822637Y23186554D01*
X8768391Y23280510D01*
X8768390Y23280511D01*
X8768389Y23280513D01*
X8684513Y23364389D01*
X8684510Y23364391D01*
X8684509Y23364392D01*
X8581787Y23423699D01*
X8581782Y23423701D01*
X8467211Y23454400D01*
X8467209Y23454400D01*
X8348591Y23454400D01*
X8348589Y23454400D01*
X8234017Y23423701D01*
X8234012Y23423699D01*
X8131290Y23364392D01*
X8047408Y23280510D01*
X7988101Y23177788D01*
X7988099Y23177783D01*
X7957400Y23063212D01*
X7957400Y22944589D01*
X7988099Y22830018D01*
X7988101Y22830013D01*
X8047408Y22727291D01*
X8047409Y22727290D01*
X8047411Y22727287D01*
X8131287Y22643411D01*
X8234014Y22584101D01*
X8234015Y22584101D01*
X8234017Y22584100D01*
X8274116Y22573355D01*
X8319049Y22538877D01*
X8326441Y22482724D01*
X8307289Y22449551D01*
X8049113Y22191374D01*
X7996787Y22169700D01*
X5433619Y22169700D01*
X5381293Y22191374D01*
X5379619Y22193283D01*
X5377089Y22195813D01*
X5293213Y22279689D01*
X5293210Y22279691D01*
X5293209Y22279692D01*
X5190487Y22338999D01*
X5190482Y22339001D01*
X5075911Y22369700D01*
X5075909Y22369700D01*
X4957291Y22369700D01*
X4957289Y22369700D01*
X4842717Y22339001D01*
X4842712Y22338999D01*
X4739990Y22279692D01*
X4656108Y22195810D01*
X4596801Y22093088D01*
X4596799Y22093083D01*
X4566100Y21978512D01*
X250500Y21978512D01*
X250500Y23637312D01*
X4186900Y23637312D01*
X4186900Y23518689D01*
X4217599Y23404118D01*
X4217601Y23404113D01*
X4276908Y23301391D01*
X4276909Y23301390D01*
X4276911Y23301387D01*
X4360787Y23217511D01*
X4360789Y23217510D01*
X4360790Y23217509D01*
X4463512Y23158202D01*
X4463514Y23158201D01*
X4463515Y23158201D01*
X4463517Y23158200D01*
X4515546Y23144259D01*
X4578088Y23127501D01*
X4578089Y23127500D01*
X4578091Y23127500D01*
X4696711Y23127500D01*
X4696711Y23127501D01*
X4811286Y23158201D01*
X4914013Y23217511D01*
X4997889Y23301387D01*
X5057199Y23404114D01*
X5087899Y23518689D01*
X5087900Y23518689D01*
X5087900Y23637311D01*
X5087899Y23637312D01*
X5086670Y23641897D01*
X5064644Y23724101D01*
X5057200Y23751883D01*
X5057198Y23751888D01*
X4997891Y23854610D01*
X4997890Y23854611D01*
X4997889Y23854613D01*
X4914013Y23938489D01*
X4914010Y23938491D01*
X4914009Y23938492D01*
X4811287Y23997799D01*
X4811282Y23997801D01*
X4696711Y24028500D01*
X4696709Y24028500D01*
X4578091Y24028500D01*
X4578089Y24028500D01*
X4463517Y23997801D01*
X4463512Y23997799D01*
X4360790Y23938492D01*
X4276908Y23854610D01*
X4217601Y23751888D01*
X4217599Y23751883D01*
X4186900Y23637312D01*
X250500Y23637312D01*
X250500Y24420112D01*
X2533400Y24420112D01*
X2533400Y24301489D01*
X2564099Y24186918D01*
X2564101Y24186913D01*
X2623408Y24084191D01*
X2623409Y24084190D01*
X2623411Y24084187D01*
X2707287Y24000311D01*
X2707289Y24000310D01*
X2707290Y24000309D01*
X2810012Y23941002D01*
X2810014Y23941001D01*
X2810015Y23941001D01*
X2810017Y23941000D01*
X2867302Y23925651D01*
X2924588Y23910301D01*
X2924589Y23910300D01*
X2924591Y23910300D01*
X3043211Y23910300D01*
X3043211Y23910301D01*
X3157786Y23941001D01*
X3260513Y24000311D01*
X3344389Y24084187D01*
X3403699Y24186914D01*
X3434399Y24301489D01*
X3434400Y24301489D01*
X3434400Y24420111D01*
X3434399Y24420112D01*
X3403700Y24534683D01*
X3403698Y24534688D01*
X3344391Y24637410D01*
X3344390Y24637411D01*
X3344389Y24637413D01*
X3260513Y24721289D01*
X3260510Y24721291D01*
X3260509Y24721292D01*
X3157787Y24780599D01*
X3157782Y24780601D01*
X3043211Y24811300D01*
X3043209Y24811300D01*
X2924591Y24811300D01*
X2924589Y24811300D01*
X2810017Y24780601D01*
X2810012Y24780599D01*
X2707290Y24721292D01*
X2623408Y24637410D01*
X2564101Y24534688D01*
X2564099Y24534683D01*
X2533400Y24420112D01*
X250500Y24420112D01*
X250500Y27859312D01*
X8708900Y27859312D01*
X8708900Y27740689D01*
X8739599Y27626118D01*
X8739601Y27626113D01*
X8798908Y27523391D01*
X8798909Y27523390D01*
X8798911Y27523387D01*
X8882787Y27439511D01*
X8882789Y27439510D01*
X8882790Y27439509D01*
X8918124Y27419109D01*
X8985514Y27380201D01*
X8985515Y27380201D01*
X8985517Y27380200D01*
X9039192Y27365818D01*
X9100088Y27349501D01*
X9100089Y27349500D01*
X9100091Y27349500D01*
X9218711Y27349500D01*
X9218711Y27349501D01*
X9333286Y27380201D01*
X9436013Y27439511D01*
X9519889Y27523387D01*
X9579199Y27626114D01*
X9609899Y27740689D01*
X9609900Y27740689D01*
X9609900Y27859311D01*
X9609899Y27859312D01*
X9579200Y27973883D01*
X9579198Y27973888D01*
X9519891Y28076610D01*
X9519890Y28076611D01*
X9519889Y28076613D01*
X9436013Y28160489D01*
X9436010Y28160491D01*
X9436009Y28160492D01*
X9333287Y28219799D01*
X9333282Y28219801D01*
X9218711Y28250500D01*
X9218709Y28250500D01*
X9100091Y28250500D01*
X9100089Y28250500D01*
X8985517Y28219801D01*
X8985512Y28219799D01*
X8882790Y28160492D01*
X8798908Y28076610D01*
X8739601Y27973888D01*
X8739599Y27973883D01*
X8708900Y27859312D01*
X250500Y27859312D01*
X250500Y30109107D01*
X272174Y30161433D01*
X324500Y30183107D01*
X376826Y30161433D01*
X394573Y30132893D01*
X412614Y30079745D01*
X612211Y29675003D01*
X612217Y29674992D01*
X861812Y29301447D01*
X862930Y29299774D01*
X1160481Y28960482D01*
X1499773Y28662931D01*
X1592024Y28601291D01*
X1874990Y28412219D01*
X1874995Y28412216D01*
X1875000Y28412213D01*
X2279742Y28212616D01*
X2707074Y28067556D01*
X2707078Y28067556D01*
X2707082Y28067554D01*
X2928379Y28023536D01*
X3149684Y27979516D01*
X3600000Y27950000D01*
X4050315Y27979516D01*
X4379319Y28044959D01*
X4492916Y28067554D01*
X4492917Y28067555D01*
X4492925Y28067556D01*
X4920257Y28212616D01*
X5324999Y28412213D01*
X5700226Y28662931D01*
X6039518Y28960482D01*
X6337069Y29299774D01*
X6587787Y29675001D01*
X6787384Y30079743D01*
X6907744Y30434312D01*
X8724500Y30434312D01*
X8724500Y30315689D01*
X8755199Y30201118D01*
X8755201Y30201113D01*
X8814508Y30098391D01*
X8814509Y30098390D01*
X8814511Y30098387D01*
X8898387Y30014511D01*
X9001114Y29955201D01*
X9001115Y29955201D01*
X9001117Y29955200D01*
X9058402Y29939851D01*
X9115688Y29924501D01*
X9115689Y29924500D01*
X9115691Y29924500D01*
X9234311Y29924500D01*
X9234311Y29924501D01*
X9348886Y29955201D01*
X9451613Y30014511D01*
X9535489Y30098387D01*
X9581858Y30178701D01*
X9626791Y30213178D01*
X9645944Y30215700D01*
X22582981Y30215700D01*
X22635307Y30194026D01*
X22636980Y30192118D01*
X22639510Y30189588D01*
X22639511Y30189587D01*
X22723387Y30105711D01*
X22826114Y30046401D01*
X22826115Y30046401D01*
X22826117Y30046400D01*
X22883402Y30031051D01*
X22940688Y30015701D01*
X22940689Y30015700D01*
X22940691Y30015700D01*
X23059311Y30015700D01*
X23059311Y30015701D01*
X23173886Y30046401D01*
X23276613Y30105711D01*
X23360489Y30189587D01*
X23419799Y30292314D01*
X23450499Y30406889D01*
X23450500Y30406889D01*
X23450500Y30525511D01*
X23450499Y30525512D01*
X23444235Y30548888D01*
X23419799Y30640086D01*
X23413144Y30651613D01*
X23360491Y30742810D01*
X23360490Y30742811D01*
X23360489Y30742813D01*
X23276613Y30826689D01*
X23276610Y30826691D01*
X23276609Y30826692D01*
X23173887Y30885999D01*
X23173882Y30886001D01*
X23059311Y30916700D01*
X23059309Y30916700D01*
X22940691Y30916700D01*
X22940689Y30916700D01*
X22826117Y30886001D01*
X22826112Y30885999D01*
X22723390Y30826692D01*
X22636081Y30739383D01*
X22634157Y30741307D01*
X22592651Y30717334D01*
X22582981Y30716700D01*
X9501053Y30716700D01*
X9457228Y30734853D01*
X9455454Y30732541D01*
X9451610Y30735491D01*
X9348887Y30794799D01*
X9348882Y30794801D01*
X9234311Y30825500D01*
X9234309Y30825500D01*
X9115691Y30825500D01*
X9115689Y30825500D01*
X9001117Y30794801D01*
X9001112Y30794799D01*
X8898390Y30735492D01*
X8814508Y30651610D01*
X8755201Y30548888D01*
X8755199Y30548883D01*
X8724500Y30434312D01*
X6907744Y30434312D01*
X6932444Y30507075D01*
X7020484Y30949685D01*
X7050000Y31400000D01*
X7020484Y31850316D01*
X6932444Y32292926D01*
X6787384Y32720258D01*
X6587787Y33125001D01*
X6587784Y33125006D01*
X6587781Y33125011D01*
X6337070Y33500225D01*
X6337069Y33500227D01*
X6039518Y33839519D01*
X5700226Y34137070D01*
X5698553Y34138188D01*
X5325008Y34387783D01*
X5324997Y34387789D01*
X4920255Y34587386D01*
X4867107Y34605427D01*
X4824524Y34642771D01*
X4820820Y34699286D01*
X4858164Y34741869D01*
X4890893Y34749500D01*
X24675500Y34749500D01*
X24727826Y34727826D01*
G37*
%TD.AperFunction*%
%TD*%
M02*
