M48
; DRILL file {KiCad 9.0.8+dfsg-1} date 2026-09-09T05:58:37+0530
; FORMAT={-:-/ absolute / metric / decimal}
; #@! TF.CreationDate,2026-09-09T05:58:37+05:30
; #@! TF.GenerationSoftware,Kicad,Pcbnew,9.0.8+dfsg-1
; #@! TF.FileFunction,Plated,1,4,PTH
FMAT,2
METRIC
; #@! TA.AperFunction,Plated,PTH,ViaDrill
T1C0.200
; #@! TA.AperFunction,Plated,PTH,ViaDrill
T2C0.300
; #@! TA.AperFunction,Plated,PTH,ComponentDrill
T3C0.600
; #@! TA.AperFunction,Plated,PTH,ComponentDrill
T4C1.000
%
G90
G05
T1
X0.804Y24.355
X2.75Y16.75
X6.55Y11.85
X6.75Y2.75
X8.35Y11.6
X8.9Y11.9
X10.65Y11.5
X13.5Y7.0
X15.1Y11.35
X15.75Y21.75
X19.225Y23.66
X21.25Y23.25
T2
X1.477Y2.584
X1.76Y11.282
X2.735Y4.24
X2.984Y24.361
X3.345Y14.855
X3.961Y15.989
X4.093Y6.401
X4.5Y13.459
X4.637Y23.578
X4.699Y9.319
X4.708Y19.376
X4.781Y15.971
X4.925Y8.042
X5.017Y21.919
X5.265Y12.851
X5.529Y21.21
X5.557Y15.942
X5.923Y11.013
X6.086Y20.461
X7.94Y19.223
X8.355Y12.389
X8.408Y23.004
X9.159Y27.8
X9.175Y30.375
X9.249Y21.439
X9.436Y23.224
X9.624Y20.731
X10.0Y11.21
X10.536Y23.629
X10.595Y13.098
X10.927Y15.911
X11.006Y6.781
X11.13Y19.836
X11.8Y33.435
X13.179Y26.196
X13.4Y9.29
X14.006Y25.394
X14.032Y12.864
X14.108Y19.478
X14.2Y23.304
X14.467Y10.554
X14.599Y15.295
X14.993Y6.533
X15.062Y17.539
X15.075Y18.607
X15.377Y23.615
X15.731Y16.691
X15.84Y20.301
X16.711Y12.43
X17.344Y26.143
X18.178Y25.385
X18.262Y19.572
X18.263Y16.909
X18.403Y18.458
X18.805Y11.163
X19.541Y16.91
X20.968Y27.54
X21.237Y8.563
X21.751Y28.661
X23.0Y30.466
X23.235Y16.9
X23.6Y27.36
T4
X11.23Y2.4
X13.77Y2.4
T3
X17.42Y22.52G85X18.52Y22.52
G05
X17.42Y13.88G85X18.52Y13.88
G05
X21.85Y22.52G85X22.45Y22.52
G05
X21.85Y13.88G85X22.45Y13.88
G05
M30
