%TF.GenerationSoftware,KiCad,Pcbnew,9.0.8+dfsg-1*%
%TF.CreationDate,2026-09-09T07:19:00+05:30*%
%TF.ProjectId,smove-r2-main,736d6f76-652d-4723-922d-6d61696e2e6b,rev?*%
%TF.SameCoordinates,Original*%
%TF.FileFunction,Copper,L1,Top*%
%TF.FilePolarity,Positive*%
%FSLAX46Y46*%
G04 Gerber Fmt 4.6, Leading zero omitted, Abs format (unit mm)*
G04 Created by KiCad (PCBNEW 9.0.8+dfsg-1) date 2026-09-09 07:19:00*
%MOMM*%
%LPD*%
G01*
G04 APERTURE LIST*
G04 Aperture macros list*
%AMRoundRect*
0 Rectangle with rounded corners*
0 $1 Rounding radius*
0 $2 $3 $4 $5 $6 $7 $8 $9 X,Y pos of 4 corners*
0 Add a 4 corners polygon primitive as box body*
4,1,4,$2,$3,$4,$5,$6,$7,$8,$9,$2,$3,0*
0 Add four circle primitives for the rounded corners*
1,1,$1+$1,$2,$3*
1,1,$1+$1,$4,$5*
1,1,$1+$1,$6,$7*
1,1,$1+$1,$8,$9*
0 Add four rect primitives between the rounded corners*
20,1,$1+$1,$2,$3,$4,$5,0*
20,1,$1+$1,$4,$5,$6,$7,0*
20,1,$1+$1,$6,$7,$8,$9,0*
20,1,$1+$1,$8,$9,$2,$3,0*%
%AMFreePoly0*
4,1,6,0.725000,-0.725000,-0.725000,-0.725000,-0.725000,0.125000,-0.125000,0.725000,0.725000,0.725000,0.725000,-0.725000,0.725000,-0.725000,$1*%
G04 Aperture macros list end*
%TA.AperFunction,SMDPad,CuDef*%
%ADD10RoundRect,0.135000X0.185000X-0.135000X0.185000X0.135000X-0.185000X0.135000X-0.185000X-0.135000X0*%
%TD*%
%TA.AperFunction,SMDPad,CuDef*%
%ADD11RoundRect,0.150000X-0.150000X0.512500X-0.150000X-0.512500X0.150000X-0.512500X0.150000X0.512500X0*%
%TD*%
%TA.AperFunction,SMDPad,CuDef*%
%ADD12RoundRect,0.157500X-0.367500X-0.842500X0.367500X-0.842500X0.367500X0.842500X-0.367500X0.842500X0*%
%TD*%
%TA.AperFunction,SMDPad,CuDef*%
%ADD13RoundRect,0.140000X0.170000X-0.140000X0.170000X0.140000X-0.170000X0.140000X-0.170000X-0.140000X0*%
%TD*%
%TA.AperFunction,SMDPad,CuDef*%
%ADD14RoundRect,0.135000X-0.135000X-0.185000X0.135000X-0.185000X0.135000X0.185000X-0.135000X0.185000X0*%
%TD*%
%TA.AperFunction,SMDPad,CuDef*%
%ADD15RoundRect,0.140000X-0.170000X0.140000X-0.170000X-0.140000X0.170000X-0.140000X0.170000X0.140000X0*%
%TD*%
%TA.AperFunction,SMDPad,CuDef*%
%ADD16R,0.650000X0.850000*%
%TD*%
%TA.AperFunction,SMDPad,CuDef*%
%ADD17RoundRect,0.050000X-0.050000X0.225000X-0.050000X-0.225000X0.050000X-0.225000X0.050000X0.225000X0*%
%TD*%
%TA.AperFunction,SMDPad,CuDef*%
%ADD18RoundRect,0.050000X-0.225000X-0.050000X0.225000X-0.050000X0.225000X0.050000X-0.225000X0.050000X0*%
%TD*%
%TA.AperFunction,SMDPad,CuDef*%
%ADD19RoundRect,0.140000X0.140000X0.170000X-0.140000X0.170000X-0.140000X-0.170000X0.140000X-0.170000X0*%
%TD*%
%TA.AperFunction,SMDPad,CuDef*%
%ADD20R,1.450000X0.600000*%
%TD*%
%TA.AperFunction,SMDPad,CuDef*%
%ADD21R,1.450000X0.300000*%
%TD*%
%TA.AperFunction,HeatsinkPad*%
%ADD22O,2.100000X1.000000*%
%TD*%
%TA.AperFunction,HeatsinkPad*%
%ADD23O,1.600000X1.000000*%
%TD*%
%TA.AperFunction,SMDPad,CuDef*%
%ADD24RoundRect,0.045000X-0.105000X0.380000X-0.105000X-0.380000X0.105000X-0.380000X0.105000X0.380000X0*%
%TD*%
%TA.AperFunction,SMDPad,CuDef*%
%ADD25RoundRect,0.250000X0.250000X0.475000X-0.250000X0.475000X-0.250000X-0.475000X0.250000X-0.475000X0*%
%TD*%
%TA.AperFunction,ComponentPad*%
%ADD26C,2.000000*%
%TD*%
%TA.AperFunction,SMDPad,CuDef*%
%ADD27RoundRect,0.150000X-0.512500X-0.150000X0.512500X-0.150000X0.512500X0.150000X-0.512500X0.150000X0*%
%TD*%
%TA.AperFunction,SMDPad,CuDef*%
%ADD28RoundRect,0.225000X-0.225000X-0.250000X0.225000X-0.250000X0.225000X0.250000X-0.225000X0.250000X0*%
%TD*%
%TA.AperFunction,SMDPad,CuDef*%
%ADD29RoundRect,0.225000X-0.250000X0.225000X-0.250000X-0.225000X0.250000X-0.225000X0.250000X0.225000X0*%
%TD*%
%TA.AperFunction,SMDPad,CuDef*%
%ADD30R,0.800000X0.400000*%
%TD*%
%TA.AperFunction,SMDPad,CuDef*%
%ADD31R,0.400000X0.800000*%
%TD*%
%TA.AperFunction,SMDPad,CuDef*%
%ADD32FreePoly0,0.000000*%
%TD*%
%TA.AperFunction,SMDPad,CuDef*%
%ADD33R,1.450000X1.450000*%
%TD*%
%TA.AperFunction,SMDPad,CuDef*%
%ADD34R,0.700000X0.700000*%
%TD*%
%TA.AperFunction,SMDPad,CuDef*%
%ADD35RoundRect,0.250000X0.475000X-0.250000X0.475000X0.250000X-0.475000X0.250000X-0.475000X-0.250000X0*%
%TD*%
%TA.AperFunction,SMDPad,CuDef*%
%ADD36RoundRect,0.150000X0.150000X-0.587500X0.150000X0.587500X-0.150000X0.587500X-0.150000X-0.587500X0*%
%TD*%
%TA.AperFunction,SMDPad,CuDef*%
%ADD37RoundRect,0.036000X-0.264000X-0.084000X0.264000X-0.084000X0.264000X0.084000X-0.264000X0.084000X0*%
%TD*%
%TA.AperFunction,SMDPad,CuDef*%
%ADD38RoundRect,0.036000X-0.084000X-0.264000X0.084000X-0.264000X0.084000X0.264000X-0.084000X0.264000X0*%
%TD*%
%TA.AperFunction,SMDPad,CuDef*%
%ADD39RoundRect,0.252000X-0.588000X-0.588000X0.588000X-0.588000X0.588000X0.588000X-0.588000X0.588000X0*%
%TD*%
%TA.AperFunction,SMDPad,CuDef*%
%ADD40RoundRect,0.250000X-0.250000X-0.475000X0.250000X-0.475000X0.250000X0.475000X-0.250000X0.475000X0*%
%TD*%
%TA.AperFunction,SMDPad,CuDef*%
%ADD41RoundRect,0.140000X-0.140000X-0.170000X0.140000X-0.170000X0.140000X0.170000X-0.140000X0.170000X0*%
%TD*%
%TA.AperFunction,ViaPad*%
%ADD42C,0.450000*%
%TD*%
%TA.AperFunction,ViaPad*%
%ADD43C,0.600000*%
%TD*%
%TA.AperFunction,Conductor*%
%ADD44C,0.200000*%
%TD*%
%TA.AperFunction,Conductor*%
%ADD45C,0.150000*%
%TD*%
%TA.AperFunction,Conductor*%
%ADD46C,0.127000*%
%TD*%
G04 APERTURE END LIST*
D10*
%TO.P,R9,1*%
%TO.N,/3V3_MAIN*%
X23000000Y27990000D03*
%TO.P,R9,2*%
%TO.N,/Compute/STRAP2*%
X23000000Y29010000D03*
%TD*%
D11*
%TO.P,U5,1*%
%TO.N,/3V3_MAIN*%
X3950000Y19887500D03*
%TO.P,U5,2*%
%TO.N,GND*%
X3000000Y19887500D03*
%TO.P,U5,3*%
%TO.N,/3V3_MAIN*%
X2050000Y19887500D03*
%TO.P,U5,4*%
%TO.N,unconnected-(U5-NC-Pad4)*%
X2050000Y17612500D03*
%TO.P,U5,5*%
%TO.N,/IMU/1V8_IMU*%
X3950000Y17612500D03*
%TD*%
D12*
%TO.P,SW2,1*%
%TO.N,/Compute/MCU_EN*%
X8775000Y10900000D03*
%TO.P,SW2,2*%
%TO.N,GND*%
X13225000Y10900000D03*
%TD*%
D10*
%TO.P,R4,1*%
%TO.N,/USB_DP*%
X23000000Y25740000D03*
%TO.P,R4,2*%
%TO.N,/Compute/USB_DP_MCU*%
X23000000Y26760000D03*
%TD*%
D13*
%TO.P,C10,1*%
%TO.N,/Compute/MCU_EN*%
X7250000Y19770000D03*
%TO.P,C10,2*%
%TO.N,GND*%
X7250000Y20730000D03*
%TD*%
D14*
%TO.P,R17,1*%
%TO.N,/IMU/1V8_IMU*%
X6190000Y8100000D03*
%TO.P,R17,2*%
%TO.N,/IMU/SDA_1V8*%
X7210000Y8100000D03*
%TD*%
D15*
%TO.P,C8,1*%
%TO.N,/IMU/1V8_IMU*%
X9750000Y19980000D03*
%TO.P,C8,2*%
%TO.N,GND*%
X9750000Y19020000D03*
%TD*%
D16*
%TO.P,D1,1*%
%TO.N,/Compute/LED_R_K*%
X14675000Y9425000D03*
%TO.P,D1,2*%
%TO.N,/Compute/LED_G_K*%
X15525000Y9425000D03*
%TO.P,D1,3*%
%TO.N,/Compute/LED_B_K*%
X15525000Y7975000D03*
%TO.P,D1,4*%
%TO.N,/3V3_MAIN*%
X14675000Y7975000D03*
%TD*%
D17*
%TO.P,U2,1*%
%TO.N,unconnected-(U2-NC-Pad1)*%
X13500000Y19000000D03*
%TO.P,U2,2*%
%TO.N,unconnected-(U2-NC-Pad2)*%
X13100000Y19000000D03*
%TO.P,U2,3*%
%TO.N,unconnected-(U2-NC-Pad3)*%
X12700000Y19000000D03*
%TO.P,U2,4*%
%TO.N,unconnected-(U2-NC-Pad4)*%
X12300000Y19000000D03*
%TO.P,U2,5*%
%TO.N,unconnected-(U2-NC-Pad5)*%
X11900000Y19000000D03*
%TO.P,U2,6*%
%TO.N,unconnected-(U2-NC-Pad6)*%
X11500000Y19000000D03*
D18*
%TO.P,U2,7*%
%TO.N,unconnected-(U2-AUX_CL-Pad7)*%
X11000000Y18500000D03*
%TO.P,U2,8*%
%TO.N,/IMU/1V8_IMU*%
X11000000Y18100000D03*
%TO.P,U2,9*%
%TO.N,GND*%
X11000000Y17700000D03*
%TO.P,U2,10*%
%TO.N,/IMU/IMU_REGOUT*%
X11000000Y17300000D03*
%TO.P,U2,11*%
%TO.N,GND*%
X11000000Y16900000D03*
%TO.P,U2,12*%
%TO.N,unconnected-(U2-INT1-Pad12)*%
X11000000Y16500000D03*
D17*
%TO.P,U2,13*%
%TO.N,/IMU/1V8_IMU*%
X11500000Y16000000D03*
%TO.P,U2,14*%
%TO.N,unconnected-(U2-NC-Pad14)*%
X11900000Y16000000D03*
%TO.P,U2,15*%
%TO.N,unconnected-(U2-NC-Pad15)*%
X12300000Y16000000D03*
%TO.P,U2,16*%
%TO.N,unconnected-(U2-NC-Pad16)*%
X12700000Y16000000D03*
%TO.P,U2,17*%
%TO.N,unconnected-(U2-NC-Pad17)*%
X13100000Y16000000D03*
%TO.P,U2,18*%
%TO.N,GND*%
X13500000Y16000000D03*
D18*
%TO.P,U2,19*%
%TO.N,unconnected-(U2-RESV_NC-Pad19)*%
X14000000Y16500000D03*
%TO.P,U2,20*%
%TO.N,GND*%
X14000000Y16900000D03*
%TO.P,U2,21*%
%TO.N,unconnected-(U2-AUX_DA-Pad21)*%
X14000000Y17300000D03*
%TO.P,U2,22*%
%TO.N,/IMU/1V8_IMU*%
X14000000Y17700000D03*
%TO.P,U2,23*%
%TO.N,/IMU/SCL_1V8*%
X14000000Y18100000D03*
%TO.P,U2,24*%
%TO.N,/IMU/SDA_1V8*%
X14000000Y18500000D03*
%TD*%
D19*
%TO.P,C4,1*%
%TO.N,/3V3_MAIN*%
X6230000Y27000000D03*
%TO.P,C4,2*%
%TO.N,GND*%
X5270000Y27000000D03*
%TD*%
D14*
%TO.P,R5,1*%
%TO.N,/3V3_MAIN*%
X12490000Y13500000D03*
%TO.P,R5,2*%
%TO.N,/USB_POWER_N*%
X13510000Y13500000D03*
%TD*%
D20*
%TO.P,J1,A1*%
%TO.N,GND*%
X17055000Y14950000D03*
%TO.P,J1,A4*%
%TO.N,/VBUS*%
X17055000Y15750000D03*
D21*
%TO.P,J1,A5*%
%TO.N,/USB/CC1*%
X17055000Y16950000D03*
%TO.P,J1,A6*%
%TO.N,/USB_DP*%
X17055000Y17950000D03*
%TO.P,J1,A7*%
%TO.N,/USB_DM*%
X17055000Y18450000D03*
%TO.P,J1,A8*%
%TO.N,unconnected-(J1-SBU1-PadA8)*%
X17055000Y19450000D03*
D20*
%TO.P,J1,A9*%
%TO.N,/VBUS*%
X17055000Y20650000D03*
%TO.P,J1,A12*%
%TO.N,GND*%
X17055000Y21450000D03*
%TO.P,J1,B1*%
X17055000Y21450000D03*
%TO.P,J1,B4*%
%TO.N,/VBUS*%
X17055000Y20650000D03*
D21*
%TO.P,J1,B5*%
%TO.N,/USB/CC2*%
X17055000Y19950000D03*
%TO.P,J1,B6*%
%TO.N,/USB_DP*%
X17055000Y18950000D03*
%TO.P,J1,B7*%
%TO.N,/USB_DM*%
X17055000Y17450000D03*
%TO.P,J1,B8*%
%TO.N,unconnected-(J1-SBU2-PadB8)*%
X17055000Y16450000D03*
D20*
%TO.P,J1,B9*%
%TO.N,/VBUS*%
X17055000Y15750000D03*
%TO.P,J1,B12*%
%TO.N,GND*%
X17055000Y14950000D03*
D22*
%TO.P,J1,S1*%
X17970000Y13880000D03*
D23*
X22150000Y13880000D03*
D22*
X17970000Y22520000D03*
D23*
X22150000Y22520000D03*
%TD*%
D15*
%TO.P,C7,1*%
%TO.N,/IMU/1V8_IMU*%
X11250000Y14730000D03*
%TO.P,C7,2*%
%TO.N,GND*%
X11250000Y13770000D03*
%TD*%
D14*
%TO.P,R23,1*%
%TO.N,/Power/TS_NO_CELL_SENSING*%
X2740000Y10600000D03*
%TO.P,R23,2*%
%TO.N,GND*%
X3760000Y10600000D03*
%TD*%
D24*
%TO.P,U3,1*%
%TO.N,GND*%
X6000000Y15050000D03*
%TO.P,U3,2*%
%TO.N,/IMU/1V8_IMU*%
X5500000Y15050000D03*
%TO.P,U3,3*%
%TO.N,/IMU/SCL_1V8*%
X5000000Y15050000D03*
%TO.P,U3,4*%
%TO.N,/IMU/SDA_1V8*%
X4500000Y15050000D03*
%TO.P,U3,5*%
%TO.N,/SDA_HOST*%
X4500000Y11950000D03*
%TO.P,U3,6*%
%TO.N,/SCL_HOST*%
X5000000Y11950000D03*
%TO.P,U3,7*%
%TO.N,/IMU/I2C_BIAS*%
X5500000Y11950000D03*
%TO.P,U3,8*%
X6000000Y11950000D03*
%TD*%
D19*
%TO.P,C9,1*%
%TO.N,/IMU/IMU_REGOUT*%
X9730000Y17250000D03*
%TO.P,C9,2*%
%TO.N,GND*%
X8770000Y17250000D03*
%TD*%
D14*
%TO.P,R3,1*%
%TO.N,/USB_DM*%
X21740000Y24500000D03*
%TO.P,R3,2*%
%TO.N,/Compute/USB_DM_MCU*%
X22760000Y24500000D03*
%TD*%
%TO.P,R18,1*%
%TO.N,/3V3_MAIN*%
X7490000Y18500000D03*
%TO.P,R18,2*%
%TO.N,/SCL_HOST*%
X8510000Y18500000D03*
%TD*%
D10*
%TO.P,R2,1*%
%TO.N,/USB/CC2*%
X16800000Y11190000D03*
%TO.P,R2,2*%
%TO.N,GND*%
X16800000Y12210000D03*
%TD*%
%TO.P,R15,1*%
%TO.N,/BAT_ADC*%
X10750000Y21740000D03*
%TO.P,R15,2*%
%TO.N,GND*%
X10750000Y22760000D03*
%TD*%
D25*
%TO.P,C3,1*%
%TO.N,/3V3_MAIN*%
X3700000Y26750000D03*
%TO.P,C3,2*%
%TO.N,GND*%
X1800000Y26750000D03*
%TD*%
D10*
%TO.P,R7,1*%
%TO.N,/3V3_MAIN*%
X2750000Y13240000D03*
%TO.P,R7,2*%
%TO.N,/Compute/MCU_EN*%
X2750000Y14260000D03*
%TD*%
D26*
%TO.P,J2,1*%
%TO.N,/Power/PACK_P*%
X20030000Y8500000D03*
%TO.P,J2,2*%
%TO.N,GND*%
X22570000Y8500000D03*
%TD*%
D27*
%TO.P,U4,1*%
%TO.N,/Power/SYS*%
X1862500Y24700000D03*
%TO.P,U4,2*%
%TO.N,GND*%
X1862500Y23750000D03*
%TO.P,U4,3*%
%TO.N,/Power/SYS*%
X1862500Y22800000D03*
%TO.P,U4,4*%
%TO.N,unconnected-(U4-NC-Pad4)*%
X4137500Y22800000D03*
%TO.P,U4,5*%
%TO.N,/3V3_MAIN*%
X4137500Y24700000D03*
%TD*%
D10*
%TO.P,R8,1*%
%TO.N,/3V3_MAIN*%
X21750000Y25740000D03*
%TO.P,R8,2*%
%TO.N,Net-(U1-GPIO9_{slash}_BOOT)*%
X21750000Y26760000D03*
%TD*%
D28*
%TO.P,C5,1*%
%TO.N,/3V3_MAIN*%
X1225000Y15750000D03*
%TO.P,C5,2*%
%TO.N,GND*%
X2775000Y15750000D03*
%TD*%
D29*
%TO.P,C6,1*%
%TO.N,/IMU/1V8_IMU*%
X5750000Y19525000D03*
%TO.P,C6,2*%
%TO.N,GND*%
X5750000Y17975000D03*
%TD*%
D30*
%TO.P,U1,1*%
%TO.N,GND*%
X8300000Y33400000D03*
%TO.P,U1,2*%
X8300000Y32600000D03*
%TO.P,U1,3*%
%TO.N,/3V3_MAIN*%
X8300000Y31800000D03*
%TO.P,U1,4*%
%TO.N,unconnected-(U1-NC-Pad4)*%
X8300000Y31000000D03*
%TO.P,U1,5*%
%TO.N,/Compute/STRAP2*%
X8300000Y30200000D03*
%TO.P,U1,6*%
%TO.N,unconnected-(U1-GPIO3-Pad6)*%
X8300000Y29400000D03*
%TO.P,U1,7*%
%TO.N,unconnected-(U1-NC-Pad7)*%
X8300000Y28600000D03*
%TO.P,U1,8*%
%TO.N,/Compute/MCU_EN*%
X8300000Y27800000D03*
%TO.P,U1,9*%
%TO.N,unconnected-(U1-NC-Pad9)*%
X8300000Y27000000D03*
%TO.P,U1,10*%
%TO.N,unconnected-(U1-NC-Pad10)*%
X8300000Y26200000D03*
%TO.P,U1,11*%
%TO.N,GND*%
X8300000Y25400000D03*
D31*
%TO.P,U1,12*%
%TO.N,/BAT_ADC*%
X9400000Y24500000D03*
%TO.P,U1,13*%
%TO.N,/USB_POWER_N*%
X10200000Y24500000D03*
%TO.P,U1,14*%
%TO.N,GND*%
X11000000Y24500000D03*
%TO.P,U1,15*%
%TO.N,unconnected-(U1-NC-Pad15)*%
X11800000Y24500000D03*
%TO.P,U1,16*%
%TO.N,/Compute/LED_B*%
X12600000Y24500000D03*
%TO.P,U1,17*%
%TO.N,unconnected-(U1-NC-Pad17)*%
X13400000Y24500000D03*
%TO.P,U1,18*%
%TO.N,/SCL_HOST*%
X14200000Y24500000D03*
%TO.P,U1,19*%
%TO.N,/SDA_HOST*%
X15000000Y24500000D03*
%TO.P,U1,20*%
%TO.N,/Compute/LED_R*%
X15800000Y24500000D03*
%TO.P,U1,21*%
%TO.N,/Compute/LED_G*%
X16600000Y24500000D03*
%TO.P,U1,22*%
%TO.N,/Compute/STRAP8*%
X17400000Y24500000D03*
%TO.P,U1,23*%
%TO.N,Net-(U1-GPIO9_{slash}_BOOT)*%
X18200000Y24500000D03*
%TO.P,U1,24*%
%TO.N,unconnected-(U1-NC-Pad24)*%
X19000000Y24500000D03*
D30*
%TO.P,U1,25*%
%TO.N,unconnected-(U1-NC-Pad25)*%
X20100000Y25400000D03*
%TO.P,U1,26*%
%TO.N,/Compute/USB_DM_MCU*%
X20100000Y26200000D03*
%TO.P,U1,27*%
%TO.N,/Compute/USB_DP_MCU*%
X20100000Y27000000D03*
%TO.P,U1,28*%
%TO.N,unconnected-(U1-NC-Pad28)*%
X20100000Y27800000D03*
%TO.P,U1,29*%
%TO.N,unconnected-(U1-NC-Pad29)*%
X20100000Y28600000D03*
%TO.P,U1,30*%
%TO.N,unconnected-(U1-GPIO20_{slash}_RX-Pad30)*%
X20100000Y29400000D03*
%TO.P,U1,31*%
%TO.N,unconnected-(U1-GPIO21_{slash}_TX-Pad31)*%
X20100000Y30200000D03*
%TO.P,U1,32*%
%TO.N,unconnected-(U1-NC-Pad32)*%
X20100000Y31000000D03*
%TO.P,U1,33*%
%TO.N,unconnected-(U1-NC-Pad33)*%
X20100000Y31800000D03*
%TO.P,U1,34*%
%TO.N,unconnected-(U1-NC-Pad34)*%
X20100000Y32600000D03*
%TO.P,U1,35*%
%TO.N,unconnected-(U1-NC-Pad35)*%
X20100000Y33400000D03*
D31*
%TO.P,U1,36*%
%TO.N,GND*%
X19000000Y34300000D03*
%TO.P,U1,37*%
X18200000Y34300000D03*
%TO.P,U1,38*%
X17400000Y34300000D03*
%TO.P,U1,39*%
X16600000Y34300000D03*
%TO.P,U1,40*%
X15800000Y34300000D03*
%TO.P,U1,41*%
X15000000Y34300000D03*
%TO.P,U1,42*%
X14200000Y34300000D03*
%TO.P,U1,43*%
X13400000Y34300000D03*
%TO.P,U1,44*%
X12600000Y34300000D03*
%TO.P,U1,45*%
X11800000Y34300000D03*
%TO.P,U1,46*%
X11000000Y34300000D03*
%TO.P,U1,47*%
X10200000Y34300000D03*
%TO.P,U1,48*%
X9400000Y34300000D03*
D32*
%TO.P,U1,49*%
X12225000Y31375000D03*
D33*
X12225000Y29400000D03*
X12225000Y27425000D03*
X14200000Y31375000D03*
X14200000Y29400000D03*
X14200000Y27425000D03*
X16175000Y31375000D03*
X16175000Y29400000D03*
X16175000Y27425000D03*
D34*
%TO.P,U1,50*%
X20150000Y34350000D03*
%TO.P,U1,51*%
X20150000Y24450000D03*
%TO.P,U1,52*%
X8250000Y24450000D03*
%TO.P,U1,53*%
X8250000Y34350000D03*
%TD*%
D28*
%TO.P,C1,1*%
%TO.N,/VBUS*%
X5725000Y9500000D03*
%TO.P,C1,2*%
%TO.N,GND*%
X7275000Y9500000D03*
%TD*%
D10*
%TO.P,R10,1*%
%TO.N,/3V3_MAIN*%
X8500000Y19990000D03*
%TO.P,R10,2*%
%TO.N,/Compute/STRAP8*%
X8500000Y21010000D03*
%TD*%
D35*
%TO.P,C13,1*%
%TO.N,/Power/SYS*%
X6250000Y23550000D03*
%TO.P,C13,2*%
%TO.N,GND*%
X6250000Y25450000D03*
%TD*%
D14*
%TO.P,R13,1*%
%TO.N,/Compute/LED_B*%
X18240000Y11750000D03*
%TO.P,R13,2*%
%TO.N,/Compute/LED_B_K*%
X19260000Y11750000D03*
%TD*%
%TO.P,R22,1*%
%TO.N,/Power/CHG_ILIM*%
X1540000Y5750000D03*
%TO.P,R22,2*%
%TO.N,GND*%
X2560000Y5750000D03*
%TD*%
D10*
%TO.P,R20,1*%
%TO.N,/3V3_MAIN*%
X1500000Y12490000D03*
%TO.P,R20,2*%
%TO.N,/IMU/I2C_BIAS*%
X1500000Y13510000D03*
%TD*%
D14*
%TO.P,R19,1*%
%TO.N,/3V3_MAIN*%
X12740000Y14750000D03*
%TO.P,R19,2*%
%TO.N,/SDA_HOST*%
X13760000Y14750000D03*
%TD*%
D36*
%TO.P,U9,1*%
%TO.N,/USB/CC1*%
X7550000Y13812500D03*
%TO.P,U9,2*%
%TO.N,/USB/CC2*%
X9450000Y13812500D03*
%TO.P,U9,3*%
%TO.N,GND*%
X8500000Y15687500D03*
%TD*%
D37*
%TO.P,U6,1*%
%TO.N,/Power/TS_NO_CELL_SENSING*%
X1350000Y8900000D03*
%TO.P,U6,2*%
%TO.N,/Power/PACK_P*%
X1350000Y8400000D03*
%TO.P,U6,3*%
X1350000Y7900000D03*
%TO.P,U6,4*%
%TO.N,GND*%
X1350000Y7400000D03*
D38*
%TO.P,U6,5*%
X2000000Y6750000D03*
%TO.P,U6,6*%
X2500000Y6750000D03*
%TO.P,U6,7*%
%TO.N,/USB_POWER_N*%
X3000000Y6750000D03*
%TO.P,U6,8*%
%TO.N,GND*%
X3500000Y6750000D03*
D37*
%TO.P,U6,9*%
%TO.N,unconnected-(U6-CHG_N-Pad9)*%
X4150000Y7400000D03*
%TO.P,U6,10*%
%TO.N,/Power/SYS*%
X4150000Y7900000D03*
%TO.P,U6,11*%
X4150000Y8400000D03*
%TO.P,U6,12*%
%TO.N,/Power/CHG_ILIM*%
X4150000Y8900000D03*
D38*
%TO.P,U6,13*%
%TO.N,/VBUS*%
X3500000Y9550000D03*
%TO.P,U6,14*%
%TO.N,unconnected-(U6-TMR-Pad14)*%
X3000000Y9550000D03*
%TO.P,U6,15*%
%TO.N,unconnected-(U6-ITERM-Pad15)*%
X2500000Y9550000D03*
%TO.P,U6,16*%
%TO.N,/Power/CHG_ISET*%
X2000000Y9550000D03*
D39*
%TO.P,U6,17*%
%TO.N,GND*%
X2750000Y8150000D03*
%TD*%
D10*
%TO.P,R12,1*%
%TO.N,/Compute/LED_G*%
X17350000Y6790000D03*
%TO.P,R12,2*%
%TO.N,/Compute/LED_G_K*%
X17350000Y7810000D03*
%TD*%
D27*
%TO.P,U8,1*%
%TO.N,/USB_DM*%
X12362500Y22450000D03*
%TO.P,U8,2*%
%TO.N,GND*%
X12362500Y21500000D03*
%TO.P,U8,3*%
%TO.N,/USB_DP*%
X12362500Y20550000D03*
%TO.P,U8,4*%
X14637500Y20550000D03*
%TO.P,U8,5*%
%TO.N,/VBUS*%
X14637500Y21500000D03*
%TO.P,U8,6*%
%TO.N,/USB_DM*%
X14637500Y22450000D03*
%TD*%
D10*
%TO.P,R11,1*%
%TO.N,/Compute/LED_R*%
X17350000Y8990000D03*
%TO.P,R11,2*%
%TO.N,/Compute/LED_R_K*%
X17350000Y10010000D03*
%TD*%
%TO.P,R1,1*%
%TO.N,/USB/CC1*%
X15000000Y12990000D03*
%TO.P,R1,2*%
%TO.N,GND*%
X15000000Y14010000D03*
%TD*%
D40*
%TO.P,C2,1*%
%TO.N,/Power/PACK_P*%
X5400000Y6400000D03*
%TO.P,C2,2*%
%TO.N,GND*%
X7300000Y6400000D03*
%TD*%
D14*
%TO.P,R16,1*%
%TO.N,/IMU/1V8_IMU*%
X14590000Y6350000D03*
%TO.P,R16,2*%
%TO.N,/IMU/SCL_1V8*%
X15610000Y6350000D03*
%TD*%
D41*
%TO.P,C11,1*%
%TO.N,/BAT_ADC*%
X5770000Y22000000D03*
%TO.P,C11,2*%
%TO.N,GND*%
X6730000Y22000000D03*
%TD*%
D10*
%TO.P,R21,1*%
%TO.N,/Power/CHG_ISET*%
X1500000Y10490000D03*
%TO.P,R21,2*%
%TO.N,GND*%
X1500000Y11510000D03*
%TD*%
D12*
%TO.P,SW3,1*%
%TO.N,Net-(U1-GPIO9_{slash}_BOOT)*%
X8775000Y7150000D03*
%TO.P,SW3,2*%
%TO.N,GND*%
X13225000Y7150000D03*
%TD*%
D14*
%TO.P,R14,1*%
%TO.N,/Power/PACK_P*%
X7990000Y22250000D03*
%TO.P,R14,2*%
%TO.N,/BAT_ADC*%
X9010000Y22250000D03*
%TD*%
D42*
%TO.N,/3V3_MAIN*%
X7500000Y17850000D03*
D43*
X12187000Y10293000D03*
D42*
X16000000Y12700000D03*
D43*
X1286300Y17090000D03*
D42*
X4900000Y19100000D03*
X22300000Y26200000D03*
D43*
%TO.N,/BAT_ADC*%
X9435900Y23223900D03*
X5016600Y21919200D03*
%TO.N,/USB/CC1*%
X8329700Y13224000D03*
X18259700Y16737800D03*
X15858700Y13383000D03*
X14206100Y12661600D03*
%TO.N,/USB/CC2*%
X15856400Y19993500D03*
X10184400Y12665300D03*
X14731600Y11190000D03*
D42*
%TO.N,/Power/CHG_ILIM*%
X4800000Y8900000D03*
X1500000Y6400000D03*
D43*
%TO.N,/Compute/LED_B*%
X20097900Y18283100D03*
X12600000Y23639200D03*
%TO.N,/Compute/LED_G*%
X18205100Y9738000D03*
X16550000Y25362100D03*
%TO.N,/Compute/LED_R*%
X15546000Y25410700D03*
X16531500Y8990000D03*
D42*
%TO.N,/Compute/MCU_EN*%
X7800000Y20200000D03*
D43*
X7352000Y27263200D03*
X7776700Y11035300D03*
X3596300Y14434700D03*
%TO.N,/Power/PACK_P*%
X9763100Y7650700D03*
X583600Y8106600D03*
X5584000Y20456400D03*
D42*
X6400000Y6400000D03*
D43*
%TO.N,/Compute/STRAP2*%
X23000000Y30466200D03*
X9175000Y30375000D03*
%TO.N,/Compute/STRAP8*%
X17344200Y26143300D03*
X9248900Y21438700D03*
%TO.N,/Power/SYS*%
X1975000Y21354100D03*
X6245000Y7304000D03*
X4934400Y23784000D03*
%TO.N,/Power/TS_NO_CELL_SENSING*%
X2291500Y11333300D03*
X1326600Y9553100D03*
%TO.N,/USB_DM*%
X19540700Y16910400D03*
X18403500Y18458300D03*
%TO.N,/Compute/USB_DP_MCU*%
X20968400Y27539700D03*
X23599800Y27359800D03*
D42*
%TO.N,/USB_POWER_N*%
X4000000Y5750000D03*
X12150000Y9400000D03*
X14050000Y13500000D03*
X11150000Y20250000D03*
X12150000Y7150000D03*
X10200000Y23750000D03*
D43*
%TO.N,/VBUS*%
X15824800Y20821800D03*
X6339500Y10669200D03*
X15581400Y16435200D03*
D42*
%TO.N,GND*%
X10000000Y6250000D03*
D43*
X11800000Y33434800D03*
D42*
X12650000Y8800000D03*
X11000000Y6350000D03*
X2750000Y16750000D03*
X803900Y24354900D03*
X15750000Y21750000D03*
X21250000Y23250000D03*
X10200000Y9600000D03*
D43*
%TO.N,/IMU/1V8_IMU*%
X10525300Y19066700D03*
X5133700Y16590700D03*
D42*
X11050000Y16000000D03*
D43*
X5461400Y8217400D03*
X15241200Y17700000D03*
X3840700Y21147000D03*
X9802400Y9038600D03*
D42*
X10300000Y18250000D03*
D43*
%TO.N,/IMU/SCL_1V8*%
X11398300Y12244100D03*
X15254000Y18577600D03*
%TO.N,/IMU/SDA_1V8*%
X6231500Y13381400D03*
X14000000Y19762800D03*
%TO.N,/SCL_HOST*%
X5477400Y13052600D03*
X14200000Y23304300D03*
X9624000Y20731200D03*
%TO.N,/SDA_HOST*%
X15377200Y23615500D03*
X14598600Y15294700D03*
X4712900Y13075000D03*
%TO.N,Net-(U1-GPIO9_{slash}_BOOT)*%
X21789800Y28684400D03*
X18200000Y27200600D03*
X8908000Y8904200D03*
%TD*%
D44*
%TO.N,/3V3_MAIN*%
X14650000Y12250000D02*
X14600000Y12200000D01*
X1225000Y17028700D02*
X1286300Y17090000D01*
X7750000Y19100000D02*
X7750000Y19000000D01*
X14450000Y12100000D02*
X14350000Y12100000D01*
X14300000Y12050000D02*
X14150000Y12050000D01*
X7750000Y19000000D02*
X7700000Y18950000D01*
D45*
X21750000Y25650000D02*
X22300000Y26200000D01*
D44*
X2666000Y20807300D02*
X3185000Y20807300D01*
X3845500Y25798300D02*
X4137500Y25506300D01*
X12900000Y14400000D02*
X12900000Y14450000D01*
X13000000Y13100000D02*
X13000000Y13150000D01*
X15550000Y12600000D02*
X15450000Y12500000D01*
X7600000Y18750000D02*
X7600000Y18700000D01*
X12420100Y9848300D02*
X12420100Y10293000D01*
X4137500Y25506300D02*
X4137500Y24700000D01*
X7550000Y18550000D02*
X7500000Y18500000D01*
X2050000Y19887500D02*
X1286300Y19123800D01*
X3845500Y25798300D02*
X3845500Y26460500D01*
X3185000Y20807300D02*
X3378300Y20807300D01*
X12420100Y10293000D02*
X12187000Y10293000D01*
X14000000Y12100000D02*
X13950000Y12150000D01*
X13650000Y12450000D02*
X13000000Y13100000D01*
X1225000Y15750000D02*
X1225000Y14765000D01*
X4137500Y24700000D02*
X3185000Y23747500D01*
X14100000Y12100000D02*
X14000000Y12100000D01*
X14093300Y8175100D02*
X12420100Y9848300D01*
X14750000Y12300000D02*
X14700000Y12250000D01*
X7850000Y19250000D02*
X7800000Y19200000D01*
X15450000Y12500000D02*
X15400000Y12500000D01*
X15400000Y12500000D02*
X15350000Y12450000D01*
X12740000Y14750000D02*
X12490000Y14500000D01*
X8300000Y31800000D02*
X7643300Y31800000D01*
X15600000Y12600000D02*
X15550000Y12600000D01*
X913400Y13851100D02*
X1526200Y14463900D01*
X21750000Y25740000D02*
X22375000Y26365000D01*
X15000000Y12450000D02*
X14850000Y12300000D01*
X3185000Y23747500D02*
X3185000Y20807300D01*
X1225000Y15750000D02*
X1225000Y17028700D01*
X2050000Y20191300D02*
X2666000Y20807300D01*
X21700000Y25700000D02*
X21700000Y25650000D01*
X12420100Y13430100D02*
X12490000Y13500000D01*
X13650000Y12400000D02*
X13650000Y12450000D01*
X13900000Y12150000D02*
X13650000Y12400000D01*
X7643300Y31800000D02*
X7643300Y28413300D01*
X7643300Y28413300D02*
X6230000Y27000000D01*
X7550000Y18650000D02*
X7550000Y18550000D01*
X15700000Y12700000D02*
X15600000Y12600000D01*
X5015200Y27630200D02*
X5599800Y27630200D01*
X1500000Y12490000D02*
X913400Y13076600D01*
X15350000Y12450000D02*
X15000000Y12450000D01*
X7650000Y18800000D02*
X7600000Y18750000D01*
X1286300Y19123800D02*
X1286300Y17090000D01*
X7850000Y19300000D02*
X7850000Y19250000D01*
X12850000Y14500000D02*
X12850000Y14550000D01*
X12420100Y10293000D02*
X12420100Y13430100D01*
X3845500Y26604500D02*
X3700000Y26750000D01*
X3378300Y20807300D02*
X3950000Y20235600D01*
X1225000Y14765000D02*
X1526200Y14463900D01*
X12490000Y14500000D02*
X12490000Y13500000D01*
X21750000Y25750000D02*
X21700000Y25700000D01*
X14150000Y12050000D02*
X14100000Y12100000D01*
X4100000Y19900000D02*
X4900000Y19100000D01*
X14550000Y12200000D02*
X14450000Y12100000D01*
X7900000Y19400000D02*
X7900000Y19350000D01*
X14700000Y12250000D02*
X14650000Y12250000D01*
X913400Y13076600D02*
X913400Y13851100D01*
X5599800Y27630200D02*
X6230000Y27000000D01*
X14600000Y12200000D02*
X14550000Y12200000D01*
X7700000Y18950000D02*
X7700000Y18900000D01*
X14093300Y7975000D02*
X14093300Y8175100D01*
X12950000Y14350000D02*
X12900000Y14400000D01*
X1526200Y14463900D02*
X2750000Y13240000D01*
X3845500Y25798300D02*
X3845500Y26604500D01*
X12950000Y13200000D02*
X12950000Y14350000D01*
X8500000Y20000000D02*
X7900000Y19400000D01*
X7800000Y19200000D02*
X7800000Y19150000D01*
X2050000Y19887500D02*
X2050000Y20191300D01*
X14350000Y12100000D02*
X14300000Y12050000D01*
X7650000Y18850000D02*
X7650000Y18800000D01*
X3950000Y19900000D02*
X4100000Y19900000D01*
X13950000Y12150000D02*
X13900000Y12150000D01*
X7600000Y18700000D02*
X7550000Y18650000D01*
X12900000Y14450000D02*
X12850000Y14500000D01*
X12850000Y14550000D02*
X12800000Y14600000D01*
X14675000Y7975000D02*
X14093300Y7975000D01*
X7700000Y18900000D02*
X7650000Y18850000D01*
X12800000Y14600000D02*
X12800000Y14700000D01*
X3950000Y20235600D02*
X3950000Y19887500D01*
X22375000Y27365000D02*
X23000000Y27990000D01*
X14850000Y12300000D02*
X14750000Y12300000D01*
X13000000Y13150000D02*
X12950000Y13200000D01*
D45*
X7500000Y18500000D02*
X7500000Y17850000D01*
D44*
X7900000Y19350000D02*
X7850000Y19300000D01*
X12800000Y14700000D02*
X12750000Y14750000D01*
D45*
X21700000Y25650000D02*
X21750000Y25650000D01*
D44*
X22375000Y26365000D02*
X22375000Y27365000D01*
X7800000Y19150000D02*
X7750000Y19100000D01*
X3845500Y26460500D02*
X5015200Y27630200D01*
X16000000Y12700000D02*
X15700000Y12700000D01*
%TO.N,/BAT_ADC*%
X9400000Y23223900D02*
X9400000Y22640000D01*
X5016600Y21919200D02*
X5689200Y21919200D01*
X9400000Y24500000D02*
X9400000Y23223900D01*
X9400000Y22640000D02*
X9850000Y22640000D01*
X9850000Y22640000D02*
X10750000Y21740000D01*
X9400000Y22640000D02*
X9010000Y22250000D01*
X5689200Y21919200D02*
X5770000Y22000000D01*
X9400000Y23223900D02*
X9435900Y23223900D01*
%TO.N,/USB/CC1*%
X18047500Y16950000D02*
X18259700Y16737800D01*
X8138400Y13224100D02*
X8329700Y13224100D01*
X8329700Y13224100D02*
X8329700Y13224000D01*
X7550000Y13812500D02*
X8138400Y13224100D01*
X15000000Y12990000D02*
X14671600Y12661600D01*
X17055000Y16950000D02*
X18047500Y16950000D01*
X14671600Y12661600D02*
X14206100Y12661600D01*
X15000000Y12990000D02*
X15465700Y12990000D01*
X15465700Y12990000D02*
X15858700Y13383000D01*
%TO.N,/USB/CC2*%
X14731600Y11190000D02*
X16800000Y11190000D01*
X16073300Y19950000D02*
X16029800Y19993500D01*
X9450000Y13812500D02*
X9450000Y13399700D01*
X16029800Y19993500D02*
X15856400Y19993500D01*
X17055000Y19950000D02*
X16073300Y19950000D01*
X9450000Y13399700D02*
X10184400Y12665300D01*
D45*
%TO.N,/Power/CHG_ILIM*%
X4150000Y8900000D02*
X4800000Y8900000D01*
X1700000Y6200000D02*
X1500000Y6400000D01*
X1700000Y6100000D02*
X1700000Y6200000D01*
X1600000Y5850000D02*
X1700000Y5950000D01*
X1700000Y5950000D02*
X1700000Y6100000D01*
X1600000Y5800000D02*
X1600000Y5850000D01*
X1550000Y5750000D02*
X1600000Y5800000D01*
D44*
%TO.N,/Power/CHG_ISET*%
X2000000Y9990000D02*
X1500000Y10490000D01*
X2000000Y9550000D02*
X2000000Y9990000D01*
%TO.N,/Compute/LED_B*%
X20097900Y13607900D02*
X20097900Y18283100D01*
X12600000Y23843300D02*
X12600000Y23639200D01*
X18240000Y11750000D02*
X20097900Y13607900D01*
X12600000Y24500000D02*
X12600000Y23843300D01*
%TO.N,/Compute/LED_B_K*%
X17029000Y6216300D02*
X17665800Y6216300D01*
X18610200Y9124800D02*
X19260000Y9774600D01*
X19260000Y9774600D02*
X19260000Y11750000D01*
X15525000Y7293300D02*
X15952000Y7293300D01*
X15525000Y7975000D02*
X15525000Y7293300D01*
X17665800Y6216300D02*
X18610200Y7160700D01*
X15952000Y7293300D02*
X17029000Y6216300D01*
X18610200Y7160700D02*
X18610200Y9124800D01*
%TO.N,/Compute/LED_G*%
X18205100Y7645100D02*
X17350000Y6790000D01*
X16600000Y25156700D02*
X16550000Y25206700D01*
X16600000Y24500000D02*
X16600000Y25156700D01*
X18205100Y9738000D02*
X18205100Y7645100D01*
X16550000Y25206700D02*
X16550000Y25362100D01*
%TO.N,/Compute/LED_G_K*%
X15525000Y8743300D02*
X15976200Y8743300D01*
X15976200Y8743300D02*
X16909500Y7810000D01*
X15525000Y9425000D02*
X15525000Y8743300D01*
X16909500Y7810000D02*
X17350000Y7810000D01*
%TO.N,/Compute/LED_R*%
X15800000Y25156700D02*
X15546000Y25410700D01*
X16531500Y8990000D02*
X17350000Y8990000D01*
X15800000Y24500000D02*
X15800000Y25156700D01*
%TO.N,/Compute/LED_R_K*%
X14675000Y10106700D02*
X17253300Y10106700D01*
X17253300Y10106700D02*
X17350000Y10010000D01*
X14675000Y9425000D02*
X14675000Y10106700D01*
%TO.N,/Compute/MCU_EN*%
X2924700Y14434700D02*
X3596300Y14434700D01*
D45*
X7600000Y20000000D02*
X7800000Y20200000D01*
D44*
X8775000Y10900000D02*
X7912000Y10900000D01*
D45*
X7450000Y20000000D02*
X7600000Y20000000D01*
X7150000Y19850000D02*
X7300000Y19850000D01*
D44*
X7912000Y10900000D02*
X7776700Y11035300D01*
X7643300Y27554500D02*
X7352000Y27263200D01*
X8300000Y27800000D02*
X7643300Y27800000D01*
X7643300Y27800000D02*
X7643300Y27554500D01*
D45*
X7250000Y19750000D02*
X7150000Y19850000D01*
X7300000Y19850000D02*
X7450000Y20000000D01*
D44*
X2750000Y14260000D02*
X2924700Y14434700D01*
%TO.N,/Power/PACK_P*%
X7866000Y22250000D02*
X6072500Y20456500D01*
X5400000Y6400000D02*
X5400000Y5788600D01*
X1350000Y8106600D02*
X583600Y8106600D01*
X5400000Y6400000D02*
X6400000Y6400000D01*
X1350000Y8106600D02*
X1350000Y8400000D01*
X5584000Y20456500D02*
X5584000Y20456400D01*
X1350000Y7900000D02*
X1350000Y8106600D01*
X6072500Y20456500D02*
X5584000Y20456500D01*
X7990000Y22250000D02*
X7866000Y22250000D01*
%TO.N,/Compute/STRAP2*%
X8300000Y30200000D02*
X9000000Y30200000D01*
X9000000Y30200000D02*
X9175000Y30375000D01*
X23000000Y30466200D02*
X23000000Y29010000D01*
%TO.N,/Compute/STRAP8*%
X17400000Y24500000D02*
X17400000Y25156700D01*
X17344200Y25212500D02*
X17400000Y25156700D01*
X8500000Y21010000D02*
X8820200Y21010000D01*
X17344200Y26143300D02*
X17344200Y25212500D01*
X8820200Y21010000D02*
X9248900Y21438700D01*
%TO.N,/Power/SYS*%
X6250000Y23550000D02*
X5168400Y23550000D01*
X6166300Y7382700D02*
X6245000Y7304000D01*
X2221200Y22800000D02*
X2802100Y23380900D01*
X1975000Y21354100D02*
X1975000Y22800000D01*
X1862500Y22800000D02*
X1975000Y22800000D01*
X4150000Y7900000D02*
X4711800Y7900000D01*
X4711800Y7900000D02*
X5229100Y7382700D01*
X2802100Y24077900D02*
X2180000Y24700000D01*
X2180000Y24700000D02*
X1862500Y24700000D01*
X5168400Y23550000D02*
X4934400Y23784000D01*
X5229100Y7382700D02*
X6166300Y7382700D01*
X1975000Y22800000D02*
X2221200Y22800000D01*
X2802100Y23380900D02*
X2802100Y24077900D01*
X4150000Y7900000D02*
X4150000Y8400000D01*
%TO.N,/Power/TS_NO_CELL_SENSING*%
X2740000Y10600000D02*
X2291500Y11048500D01*
X1350000Y8900000D02*
X1350000Y9529700D01*
X1350000Y9529700D02*
X1326600Y9553100D01*
X2291500Y11048500D02*
X2291500Y11333300D01*
%TO.N,/USB_DM*%
X18224300Y18637600D02*
X18036700Y18450000D01*
X14637500Y22450000D02*
X14638000Y22450000D01*
X14637500Y22450000D02*
X15438100Y22450000D01*
X17055000Y18450000D02*
X18036700Y18450000D01*
X15438100Y22450000D02*
X16290700Y23302600D01*
X19382100Y19795400D02*
X18224300Y18637600D01*
X20112800Y22872800D02*
X21740000Y24500000D01*
X19382100Y22872800D02*
X19382100Y19795400D01*
X14637500Y22450000D02*
X12362500Y22450000D01*
X18985700Y17465400D02*
X17070400Y17465400D01*
X18894100Y23302600D02*
X19323900Y22872800D01*
X18224300Y18637600D02*
X18403500Y18458300D01*
X19382100Y22872800D02*
X20112800Y22872800D01*
X19323900Y22872800D02*
X19382100Y22872800D01*
X16290700Y23302600D02*
X18894100Y23302600D01*
X17070400Y17465400D02*
X17055000Y17450000D01*
X19540700Y16910400D02*
X18985700Y17465400D01*
%TO.N,/Compute/USB_DM_MCU*%
X21533500Y25078400D02*
X22181600Y25078400D01*
X22181600Y25078400D02*
X22760000Y24500000D01*
X20756700Y25855200D02*
X21533500Y25078400D01*
X20100000Y26200000D02*
X20756700Y26200000D01*
X20756700Y26200000D02*
X20756700Y25855200D01*
%TO.N,/USB_DP*%
X17055000Y17950000D02*
X16073300Y17950000D01*
X16162900Y18950000D02*
X16073300Y18950000D01*
X12362500Y20550000D02*
X14637500Y20550000D01*
X23324000Y25416000D02*
X23324000Y22306800D01*
X23324000Y22306800D02*
X18903300Y17886100D01*
X18100600Y17886100D02*
X18036700Y17950000D01*
X17055000Y18950000D02*
X16162900Y18950000D01*
X14637500Y20385800D02*
X14637500Y20550000D01*
X18903300Y17886100D02*
X18100600Y17886100D01*
X23000000Y25740000D02*
X23324000Y25416000D01*
X16073300Y18950000D02*
X14637500Y20385800D01*
X17055000Y17950000D02*
X18036700Y17950000D01*
X16073300Y18950000D02*
X16073300Y17950000D01*
X14637500Y20550000D02*
X14638000Y20550000D01*
%TO.N,/Compute/USB_DP_MCU*%
X20968400Y27211700D02*
X20756700Y27000000D01*
X23000000Y26760000D02*
X23599800Y27359800D01*
X20100000Y27000000D02*
X20756700Y27000000D01*
X20968400Y27539700D02*
X20968400Y27211700D01*
D45*
%TO.N,/USB_POWER_N*%
X3600000Y5400000D02*
X3650000Y5450000D01*
X3400000Y5400000D02*
X3600000Y5400000D01*
X3300000Y5450000D02*
X3350000Y5450000D01*
X14050000Y13500000D02*
X13500000Y13500000D01*
X13500000Y13500000D02*
X14050000Y13500000D01*
X10200000Y24500000D02*
X10200000Y23750000D01*
X3150000Y5600000D02*
X3300000Y5450000D01*
X3650000Y5450000D02*
X3700000Y5450000D01*
X3000000Y6750000D02*
X3000000Y6450000D01*
X3000000Y6450000D02*
X3100000Y6350000D01*
X3100000Y6350000D02*
X3100000Y6000000D01*
X3150000Y5950000D02*
X3150000Y5600000D01*
X3350000Y5450000D02*
X3400000Y5400000D01*
X3700000Y5450000D02*
X4000000Y5750000D01*
X3100000Y6000000D02*
X3150000Y5950000D01*
X12150000Y7150000D02*
X12150000Y9400000D01*
D44*
%TO.N,/VBUS*%
X15824800Y20821800D02*
X15901500Y20821800D01*
X5725000Y9500000D02*
X5675000Y9550000D01*
X5675000Y9550000D02*
X3500000Y9550000D01*
X16073300Y15943300D02*
X15581400Y16435200D01*
X16073300Y15750000D02*
X16073300Y15943300D01*
X14637500Y21500000D02*
X15146600Y21500000D01*
X17055000Y20650000D02*
X16073300Y20650000D01*
X15901500Y20821800D02*
X16073300Y20650000D01*
X5725000Y9500000D02*
X5725000Y10054700D01*
X5725000Y10054700D02*
X6339500Y10669200D01*
X15146600Y21500000D02*
X15824800Y20821800D01*
X17055000Y15750000D02*
X16073300Y15750000D01*
%TO.N,GND*%
X16600000Y34300000D02*
X16600000Y33643300D01*
D45*
X8400000Y9150000D02*
X8400000Y9100000D01*
X10955400Y16855400D02*
X11000000Y16900000D01*
X12800000Y7150000D02*
X12800000Y8650000D01*
D44*
X6730000Y22249200D02*
X6730000Y22000000D01*
D45*
X10150000Y5950000D02*
X10200000Y5950000D01*
D46*
X10067000Y17744800D02*
X10104900Y17744800D01*
D44*
X8770000Y15940000D02*
X8500000Y15670000D01*
X7783300Y8991700D02*
X7783300Y6883300D01*
X14359500Y16900000D02*
X14000000Y16900000D01*
X2750000Y16750000D02*
X3000000Y16750000D01*
X3500000Y7020000D02*
X3500000Y6750000D01*
D45*
X10700000Y6200000D02*
X10750000Y6200000D01*
D44*
X16663300Y13880000D02*
X16417000Y14126300D01*
X8300000Y33400000D02*
X7643300Y33400000D01*
X884000Y25834000D02*
X884000Y24434800D01*
X10265500Y17744800D02*
X10265700Y17744600D01*
D45*
X8000000Y8100000D02*
X8000000Y6200000D01*
X8250000Y5950000D02*
X8300000Y5900000D01*
D44*
X13500000Y16000000D02*
X14227800Y16000000D01*
D45*
X10104900Y17744800D02*
X10265500Y17744800D01*
D44*
X2750000Y8150000D02*
X2560000Y7960000D01*
D45*
X10350000Y6050000D02*
X10400000Y6050000D01*
X9650000Y9550000D02*
X9550000Y9550000D01*
D44*
X9581800Y18061800D02*
X9750000Y18061800D01*
X14200000Y29400000D02*
X14200000Y27425000D01*
D45*
X8000000Y6200000D02*
X8050000Y6150000D01*
D44*
X2560000Y7960000D02*
X2000000Y7400000D01*
X12225000Y29400000D02*
X12225000Y27425000D01*
X13400000Y34300000D02*
X12600000Y34300000D01*
X1500000Y11510000D02*
X1899400Y11909400D01*
X1862000Y23750000D02*
X1862500Y23750000D01*
D45*
X10900000Y6300000D02*
X10950000Y6300000D01*
D44*
X19000000Y34300000D02*
X18200000Y34300000D01*
X18200000Y34300000D02*
X17400000Y34300000D01*
X11800000Y33434800D02*
X11800000Y33643000D01*
X20150000Y34350000D02*
X19543300Y34350000D01*
X8770000Y17250000D02*
X9581800Y18061800D01*
D45*
X10265700Y17744600D02*
X10955400Y17744600D01*
D44*
X7593300Y25450000D02*
X7643300Y25400000D01*
X1568800Y23750000D02*
X1862500Y23750000D01*
D45*
X8350000Y8500000D02*
X8050000Y8200000D01*
X10955400Y17744600D02*
X11000000Y17700000D01*
D44*
X16073300Y14126300D02*
X15116300Y14126300D01*
D45*
X10200000Y9600000D02*
X9700000Y9600000D01*
D44*
X8250000Y34046700D02*
X8250000Y33743300D01*
D45*
X10550000Y6150000D02*
X10650000Y6150000D01*
D44*
X7643300Y25400000D02*
X7986600Y25056700D01*
X9146700Y34046700D02*
X9400000Y34300000D01*
D45*
X9550000Y9550000D02*
X9450000Y9450000D01*
X10500000Y6100000D02*
X10550000Y6150000D01*
D44*
X12225000Y33268300D02*
X12225000Y31375000D01*
X8770000Y17250000D02*
X8770000Y15940000D01*
X10750000Y22760000D02*
X12010000Y21500000D01*
X12225000Y26443300D02*
X11181700Y25400000D01*
D45*
X8050000Y8200000D02*
X8050000Y8150000D01*
D44*
X12225000Y27425000D02*
X12225000Y26443300D01*
X7643300Y33400000D02*
X7643300Y32600000D01*
X9750000Y19020000D02*
X9750000Y18061800D01*
X12225000Y31375000D02*
X12225000Y29400000D01*
X6641500Y20121500D02*
X6641500Y18866500D01*
D45*
X8200000Y5950000D02*
X8250000Y5950000D01*
D44*
X10200000Y34300000D02*
X9400000Y34300000D01*
X3510000Y6740000D02*
X3510000Y5750000D01*
X11800000Y34300000D02*
X11000000Y34300000D01*
X7783300Y6883300D02*
X7300000Y6400000D01*
X5270000Y26430000D02*
X5270000Y27000000D01*
D45*
X10450000Y6100000D02*
X10500000Y6100000D01*
D44*
X10316000Y15940000D02*
X10316000Y16805400D01*
X7986600Y33743300D02*
X8250000Y33743300D01*
D45*
X10200000Y5950000D02*
X10250000Y6000000D01*
D44*
X9750000Y18061800D02*
X9960400Y17851400D01*
X11181700Y25400000D02*
X11000000Y25400000D01*
X15800000Y34300000D02*
X15000000Y34300000D01*
D45*
X13200000Y7150000D02*
X12800000Y7150000D01*
D44*
X8250000Y24450000D02*
X8250000Y23769200D01*
X13500000Y16000000D02*
X13500000Y15645800D01*
X3000000Y18590500D02*
X5134500Y18590500D01*
X8300000Y25400000D02*
X7643300Y25400000D01*
X3760000Y10700800D02*
X3760000Y10600000D01*
X17400000Y34300000D02*
X16600000Y34300000D01*
D45*
X8050000Y8150000D02*
X8000000Y8100000D01*
X8650000Y9400000D02*
X8400000Y9150000D01*
D44*
X8250000Y23769200D02*
X6730000Y22249200D01*
X1800000Y26750000D02*
X884000Y25834000D01*
X19493300Y34300000D02*
X19543300Y34350000D01*
X15000000Y34300000D02*
X14200000Y34300000D01*
X3000000Y18590500D02*
X3000000Y15975000D01*
D45*
X8750000Y9450000D02*
X8700000Y9400000D01*
D44*
X16175000Y29400000D02*
X16175000Y27425000D01*
X16663300Y22520000D02*
X16073300Y21930000D01*
X11000000Y34300000D02*
X10200000Y34300000D01*
X14227800Y16000000D02*
X14581600Y16353800D01*
X16417000Y14126300D02*
X16073300Y14126300D01*
X17055000Y21450000D02*
X16073300Y21450000D01*
X17055000Y14950000D02*
X16073300Y14950000D01*
D45*
X8400000Y9100000D02*
X8350000Y9050000D01*
D44*
X11995200Y14957100D02*
X11995200Y14515200D01*
X15116300Y14126300D02*
X15000000Y14010000D01*
D45*
X8350000Y9050000D02*
X8350000Y8500000D01*
X10100000Y5900000D02*
X10150000Y5950000D01*
X8300000Y5900000D02*
X10100000Y5900000D01*
D44*
X2551400Y11909400D02*
X3760000Y10700800D01*
X12600000Y33643300D02*
X12225000Y33268300D01*
X803900Y24354900D02*
X884000Y24435000D01*
X12435800Y15397700D02*
X11995200Y14957100D01*
D45*
X10800000Y6250000D02*
X10850000Y6250000D01*
D44*
X5750000Y17975000D02*
X6119900Y17605100D01*
D46*
X9960400Y17851400D02*
X10067000Y17744800D01*
D44*
X11800000Y34300000D02*
X11800000Y33643300D01*
X6250000Y25450000D02*
X7593300Y25450000D01*
D45*
X12800000Y8650000D02*
X12650000Y8800000D01*
D44*
X17970000Y22520000D02*
X16663300Y22520000D01*
X15800000Y33643300D02*
X16175000Y33268300D01*
X6119900Y15169900D02*
X6000000Y15050000D01*
X16175000Y31375000D02*
X16175000Y29400000D01*
X14200000Y31375000D02*
X14200000Y29400000D01*
X5134500Y18590500D02*
X5750000Y17975000D01*
D45*
X8050000Y6100000D02*
X8200000Y5950000D01*
D44*
X11000000Y25400000D02*
X8956700Y25400000D01*
X3500000Y6750000D02*
X3510000Y6740000D01*
X1899400Y11909400D02*
X2551400Y11909400D01*
X8250000Y24450000D02*
X8250000Y25056700D01*
X22150000Y13880000D02*
X21093300Y13880000D01*
X16800000Y13402500D02*
X16800000Y12210000D01*
X6250000Y25450000D02*
X5270000Y26430000D01*
D45*
X8050000Y6150000D02*
X8050000Y6100000D01*
D44*
X11995200Y14515200D02*
X11250000Y13770000D01*
X8300000Y25400000D02*
X8956700Y25400000D01*
X14581600Y16677900D02*
X14359500Y16900000D01*
X10316000Y16805400D02*
X10366000Y16855400D01*
X11000000Y25400000D02*
X11000000Y24500000D01*
X10750000Y22760000D02*
X11111500Y23121500D01*
X2000000Y6750000D02*
X2500000Y6750000D01*
X884000Y24434800D02*
X1568800Y23750000D01*
X8500000Y15438000D02*
X8500000Y15437500D01*
X14200000Y34300000D02*
X13400000Y34300000D01*
X14581600Y16353800D02*
X14581600Y16677900D01*
X7275000Y9500000D02*
X7783300Y8991700D01*
D45*
X10300000Y6000000D02*
X10350000Y6050000D01*
D44*
X10315800Y14704200D02*
X11250000Y13770000D01*
X7986600Y25056700D02*
X8250000Y25056700D01*
X15985400Y14950000D02*
X16073300Y14950000D01*
D45*
X9450000Y9450000D02*
X8750000Y9450000D01*
D44*
X8500000Y15554000D02*
X8500000Y15687500D01*
X15800000Y33851800D02*
X15800000Y33643300D01*
D45*
X9700000Y9600000D02*
X9650000Y9550000D01*
D44*
X16073300Y14126300D02*
X16073300Y14950000D01*
X19000000Y34300000D02*
X19493300Y34300000D01*
X7643300Y33400000D02*
X7986600Y33743300D01*
X16600000Y33643300D02*
X16008500Y33643300D01*
D45*
X8700000Y9400000D02*
X8650000Y9400000D01*
D44*
X2000000Y6750000D02*
X2000000Y7400000D01*
X14581600Y16353800D02*
X15985400Y14950000D01*
X6641500Y18866500D02*
X5750000Y17975000D01*
X16008500Y33643300D02*
X15800000Y33851800D01*
X17277500Y13880000D02*
X16800000Y13402500D01*
X8300000Y32600000D02*
X7643300Y32600000D01*
X12600000Y34300000D02*
X12600000Y33643300D01*
X14200000Y34300000D02*
X14200000Y31375000D01*
D45*
X10950000Y6300000D02*
X11000000Y6350000D01*
D44*
X2560000Y7960000D02*
X3500000Y7020000D01*
X3000000Y19887500D02*
X3000000Y18590500D01*
D45*
X10650000Y6150000D02*
X10700000Y6200000D01*
D44*
X15800000Y34300000D02*
X15800000Y33851800D01*
X11111500Y23121500D02*
X11111500Y24388500D01*
X8500000Y15670000D02*
X8500000Y15437500D01*
D45*
X10850000Y6250000D02*
X10900000Y6300000D01*
D44*
X3000000Y15975000D02*
X2775000Y15750000D01*
X7250000Y20730000D02*
X6641500Y20121500D01*
X13251900Y15397700D02*
X12435800Y15397700D01*
D45*
X10400000Y6050000D02*
X10450000Y6100000D01*
D44*
X10316000Y15940000D02*
X8770000Y15940000D01*
D45*
X10366000Y16855400D02*
X10955400Y16855400D01*
D44*
X1350000Y7400000D02*
X2000000Y7400000D01*
X17970000Y13880000D02*
X19276700Y13880000D01*
X13500000Y15645800D02*
X13251900Y15397700D01*
X12010000Y21500000D02*
X12362500Y21500000D01*
D45*
X10250000Y6000000D02*
X10300000Y6000000D01*
D44*
X12225000Y33268300D02*
X11850000Y33643300D01*
X16073300Y21930000D02*
X16073300Y21450000D01*
D45*
X10750000Y6200000D02*
X10800000Y6250000D01*
D44*
X16175000Y33268300D02*
X16175000Y31375000D01*
X17970000Y13880000D02*
X16663300Y13880000D01*
X10316000Y14704000D02*
X10316000Y15940000D01*
X8250000Y34046700D02*
X9146700Y34046700D01*
X8250000Y34350000D02*
X8250000Y34046700D01*
X11850000Y33643300D02*
X11800000Y33643300D01*
X6119900Y17605100D02*
X6119900Y15169900D01*
X12362500Y21500000D02*
X12362000Y21500000D01*
X11111500Y24388500D02*
X11000000Y24500000D01*
%TO.N,/IMU/1V8_IMU*%
X11250000Y15750000D02*
X11250000Y14730000D01*
D45*
X11400000Y16050000D02*
X11100000Y16050000D01*
D44*
X5500000Y16224400D02*
X5133700Y16590700D01*
D45*
X11100000Y16050000D02*
X11050000Y16000000D01*
D44*
X10600000Y18200000D02*
X10350000Y18200000D01*
X4106200Y21147000D02*
X5728200Y19525000D01*
X10606600Y18100000D02*
X10429700Y18276900D01*
X5500000Y15050000D02*
X5500000Y16224400D01*
X5728200Y19525000D02*
X5750000Y19525000D01*
X10429700Y18276900D02*
X10429700Y19066700D01*
X11000000Y18100000D02*
X10700000Y18100000D01*
X14590000Y6350000D02*
X14590000Y6201100D01*
X10429700Y19066700D02*
X10525300Y19066700D01*
X14000000Y17700000D02*
X15241200Y17700000D01*
X10319800Y8521200D02*
X9802400Y9038600D01*
X10429700Y19066700D02*
X10429700Y19300300D01*
X14590000Y6201100D02*
X13915900Y5527000D01*
X10700000Y18100000D02*
X10600000Y18200000D01*
X5461400Y8217300D02*
X5461400Y8217400D01*
X11400000Y16050000D02*
X11450000Y16050000D01*
X3840700Y21147000D02*
X4106200Y21147000D01*
X3950000Y17612500D02*
X4111900Y17612500D01*
X11000000Y18100000D02*
X10606600Y18100000D01*
X12505400Y5527000D02*
X10319800Y7712600D01*
X10350000Y18200000D02*
X10300000Y18250000D01*
X11500000Y16000000D02*
X11250000Y15750000D01*
X13915900Y5527000D02*
X12505400Y5527000D01*
X6072700Y8217300D02*
X5461400Y8217300D01*
X6190000Y8100000D02*
X6072700Y8217300D01*
X4111900Y17612500D02*
X5133700Y16590700D01*
X11450000Y16050000D02*
X11500000Y16000000D01*
X10429700Y19300300D02*
X9750000Y19980000D01*
X10319800Y7712600D02*
X10319800Y8521200D01*
%TO.N,/IMU/I2C_BIAS*%
X5500000Y11950000D02*
X5500000Y11481200D01*
X5286900Y11268100D02*
X3741900Y11268100D01*
X6000000Y11950000D02*
X5500000Y11950000D01*
X5500000Y11481200D02*
X5286900Y11268100D01*
X3741900Y11268100D02*
X1500000Y13510000D01*
D45*
%TO.N,/IMU/IMU_REGOUT*%
X11000000Y17300000D02*
X10150000Y17300000D01*
X10150000Y17300000D02*
X9730000Y17250000D01*
D44*
%TO.N,/IMU/SCL_1V8*%
X11237400Y12083200D02*
X11398300Y12244100D01*
X7397000Y12577200D02*
X6919000Y13055200D01*
X5000000Y14628600D02*
X5000000Y15050000D01*
X8905800Y12577200D02*
X7397000Y12577200D01*
X6919000Y13612100D02*
X6204800Y14326300D01*
X14776400Y18100000D02*
X14000000Y18100000D01*
X14271700Y6931100D02*
X14007300Y6666700D01*
X11237400Y12083200D02*
X9399800Y12083200D01*
X9399800Y12083200D02*
X8905800Y12577200D01*
X12685800Y5892700D02*
X11237400Y7341100D01*
X15254000Y18577600D02*
X14776400Y18100000D01*
X14007300Y6666700D02*
X14007300Y6135700D01*
X11237400Y7341100D02*
X11237400Y12083200D01*
X13764300Y5892700D02*
X12685800Y5892700D01*
X15028900Y6931100D02*
X14271700Y6931100D01*
X5302300Y14326300D02*
X5000000Y14628600D01*
X14007300Y6135700D02*
X13764300Y5892700D01*
X15610000Y6350000D02*
X15028900Y6931100D01*
X6204800Y14326300D02*
X5302300Y14326300D01*
X6919000Y13055200D02*
X6919000Y13612100D01*
%TO.N,/IMU/SDA_1V8*%
X7210000Y8100000D02*
X6567400Y8742600D01*
X6896200Y12343000D02*
X6231500Y13007700D01*
X6231500Y13007700D02*
X6231500Y13381400D01*
X4500000Y14601400D02*
X4500000Y15050000D01*
X5900400Y13712500D02*
X5388900Y13712500D01*
X5388900Y13712500D02*
X4500000Y14601400D01*
X6567400Y10109800D02*
X6896200Y10438600D01*
X14000000Y18500000D02*
X14000000Y19762800D01*
X6567400Y8742600D02*
X6567400Y10109800D01*
X6231500Y13381400D02*
X5900400Y13712500D01*
X6896200Y10438600D02*
X6896200Y12343000D01*
%TO.N,/SCL_HOST*%
X5000000Y11950000D02*
X5000000Y12474100D01*
X9145500Y19135500D02*
X8510000Y18500000D01*
X5477400Y12951500D02*
X5477400Y13052600D01*
X9624000Y20731200D02*
X9145500Y20252700D01*
X14200000Y24500000D02*
X14200000Y23843300D01*
X9145500Y20252700D02*
X9145500Y19135500D01*
X5000000Y12474100D02*
X5477400Y12951500D01*
X14200000Y23843300D02*
X14200000Y23304300D01*
%TO.N,/SDA_HOST*%
X13760000Y14750000D02*
X14053900Y14750000D01*
X4500000Y11950000D02*
X4500000Y12862100D01*
X4500000Y12862100D02*
X4712900Y13075000D01*
X14053900Y14750000D02*
X14598600Y15294700D01*
X15000000Y24500000D02*
X15000000Y23843300D01*
X15149400Y23843300D02*
X15377200Y23615500D01*
X15000000Y23843300D02*
X15149400Y23843300D01*
%TO.N,Net-(U1-GPIO9_{slash}_BOOT)*%
X18200000Y24500000D02*
X18200000Y27200600D01*
X21750000Y26760000D02*
X21789800Y26799800D01*
X8908000Y7283000D02*
X8908000Y8904200D01*
X8775000Y7150000D02*
X8908000Y7283000D01*
X21789800Y26799800D02*
X21789800Y28684400D01*
%TD*%
%TA.AperFunction,Conductor*%
%TO.N,GND*%
G36*
X7220710Y12372988D02*
G01*
X7249019Y12367356D01*
X7255103Y12364836D01*
X7347172Y12326700D01*
X8771387Y12326700D01*
X8823713Y12305026D01*
X8951913Y12176826D01*
X8973587Y12124500D01*
X8951913Y12072174D01*
X8899587Y12050500D01*
X8361516Y12050500D01*
X8340912Y12048110D01*
X8335761Y12047512D01*
X8230422Y12001001D01*
X8148999Y11919578D01*
X8103372Y11816239D01*
X8102488Y11814238D01*
X8100519Y11797261D01*
X8099500Y11788481D01*
X8099500Y11497296D01*
X8077826Y11444970D01*
X8025500Y11423296D01*
X7988501Y11433210D01*
X7950591Y11455097D01*
X7950582Y11455101D01*
X7836011Y11485800D01*
X7836009Y11485800D01*
X7717391Y11485800D01*
X7717389Y11485800D01*
X7602817Y11455101D01*
X7602812Y11455099D01*
X7500090Y11395792D01*
X7416208Y11311910D01*
X7356901Y11209188D01*
X7356899Y11209183D01*
X7326200Y11094612D01*
X7326200Y10975989D01*
X7356899Y10861418D01*
X7356901Y10861413D01*
X7416208Y10758691D01*
X7416209Y10758690D01*
X7416211Y10758687D01*
X7500087Y10674811D01*
X7500089Y10674810D01*
X7500090Y10674809D01*
X7602812Y10615502D01*
X7602814Y10615501D01*
X7602815Y10615501D01*
X7602817Y10615500D01*
X7641851Y10605041D01*
X7717388Y10584801D01*
X7717389Y10584800D01*
X7717391Y10584800D01*
X7836011Y10584800D01*
X7836011Y10584801D01*
X7950586Y10615501D01*
X7988500Y10637392D01*
X8044652Y10644784D01*
X8089586Y10610306D01*
X8099500Y10573305D01*
X8099500Y10011516D01*
X8102488Y9985762D01*
X8148999Y9880423D01*
X8230423Y9798999D01*
X8335762Y9752488D01*
X8361516Y9749500D01*
X8361520Y9749500D01*
X9188480Y9749500D01*
X9188484Y9749500D01*
X9214238Y9752488D01*
X9319577Y9798999D01*
X9401001Y9880423D01*
X9447512Y9985762D01*
X9450500Y10011516D01*
X9450500Y11758700D01*
X9472174Y11811026D01*
X9524500Y11832700D01*
X10912900Y11832700D01*
X10965226Y11811026D01*
X10986900Y11758700D01*
X10986900Y7578413D01*
X10965226Y7526087D01*
X10912900Y7504413D01*
X10860574Y7526087D01*
X10591974Y7794687D01*
X10570300Y7847013D01*
X10570300Y8571028D01*
X10570299Y8571030D01*
X10569785Y8572270D01*
X10536422Y8652818D01*
X10532165Y8663095D01*
X10532163Y8663098D01*
X10274408Y8920853D01*
X10252734Y8973179D01*
X10252900Y8975712D01*
X10252900Y9097911D01*
X10252899Y9097912D01*
X10252473Y9099500D01*
X10233734Y9169438D01*
X10222200Y9212483D01*
X10222198Y9212488D01*
X10162891Y9315210D01*
X10162890Y9315211D01*
X10162889Y9315213D01*
X10079013Y9399089D01*
X10079010Y9399091D01*
X10079009Y9399092D01*
X9976287Y9458399D01*
X9976282Y9458401D01*
X9861711Y9489100D01*
X9861709Y9489100D01*
X9743091Y9489100D01*
X9743089Y9489100D01*
X9628517Y9458401D01*
X9628512Y9458399D01*
X9525790Y9399092D01*
X9441908Y9315210D01*
X9382598Y9212483D01*
X9382277Y9211706D01*
X9381977Y9211408D01*
X9380176Y9208286D01*
X9379339Y9208770D01*
X9342220Y9171665D01*
X9285583Y9171676D01*
X9261592Y9187710D01*
X9184613Y9264689D01*
X9184610Y9264691D01*
X9184609Y9264692D01*
X9081887Y9323999D01*
X9081882Y9324001D01*
X8967311Y9354700D01*
X8967309Y9354700D01*
X8848691Y9354700D01*
X8848689Y9354700D01*
X8734117Y9324001D01*
X8734112Y9323999D01*
X8631390Y9264692D01*
X8547508Y9180810D01*
X8488201Y9078088D01*
X8488199Y9078083D01*
X8457500Y8963512D01*
X8457500Y8844889D01*
X8488199Y8730318D01*
X8488201Y8730313D01*
X8547508Y8627591D01*
X8547509Y8627590D01*
X8547511Y8627587D01*
X8592586Y8582512D01*
X8634817Y8540281D01*
X8634565Y8540030D01*
X8635826Y8539507D01*
X8644945Y8517492D01*
X8656866Y8496851D01*
X8657500Y8487181D01*
X8657500Y8374500D01*
X8635826Y8322174D01*
X8583500Y8300500D01*
X8361516Y8300500D01*
X8342494Y8298293D01*
X8335761Y8297512D01*
X8230422Y8251001D01*
X8148999Y8169578D01*
X8102563Y8064407D01*
X8102488Y8064238D01*
X8099500Y8038484D01*
X8099500Y6261516D01*
X8102488Y6235762D01*
X8148999Y6130423D01*
X8230423Y6048999D01*
X8335762Y6002488D01*
X8361516Y5999500D01*
X8361520Y5999500D01*
X9188480Y5999500D01*
X9188484Y5999500D01*
X9214238Y6002488D01*
X9319577Y6048999D01*
X9401001Y6130423D01*
X9447512Y6235762D01*
X9450500Y6261516D01*
X9450500Y7182816D01*
X9472174Y7235142D01*
X9524500Y7256816D01*
X9561501Y7246901D01*
X9589209Y7230903D01*
X9589217Y7230900D01*
X9635010Y7218630D01*
X9703788Y7200201D01*
X9703789Y7200200D01*
X9703791Y7200200D01*
X9822411Y7200200D01*
X9822411Y7200201D01*
X9936986Y7230901D01*
X10039713Y7290211D01*
X10123589Y7374087D01*
X10137332Y7397890D01*
X10141424Y7404977D01*
X10186358Y7439456D01*
X10242510Y7432063D01*
X10257836Y7420303D01*
X12301313Y5376826D01*
X12322987Y5324500D01*
X12301313Y5272174D01*
X12248987Y5250500D01*
X4148746Y5250500D01*
X4096420Y5272174D01*
X4074746Y5324500D01*
X4096420Y5376826D01*
X4129590Y5395978D01*
X4144938Y5400090D01*
X4230562Y5449525D01*
X4300475Y5519438D01*
X4349910Y5605062D01*
X4375499Y5700563D01*
X4375500Y5700563D01*
X4375500Y5799437D01*
X4375499Y5799438D01*
X4375430Y5799694D01*
X4359854Y5857827D01*
X4349911Y5894935D01*
X4349909Y5894940D01*
X4332331Y5925386D01*
X4300475Y5980562D01*
X4230562Y6050475D01*
X4213695Y6060213D01*
X4144939Y6099910D01*
X4144934Y6099912D01*
X4049437Y6125500D01*
X4049435Y6125500D01*
X3950565Y6125500D01*
X3950563Y6125500D01*
X3855065Y6099912D01*
X3855060Y6099910D01*
X3769437Y6050475D01*
X3699525Y5980563D01*
X3650090Y5894940D01*
X3650088Y5894935D01*
X3624500Y5799438D01*
X3624500Y5732964D01*
X3618867Y5719367D01*
X3618868Y5704647D01*
X3608459Y5694238D01*
X3602826Y5680638D01*
X3578820Y5664597D01*
X3569056Y5660553D01*
X3556595Y5655391D01*
X3556593Y5655390D01*
X3528316Y5643678D01*
X3471680Y5643679D01*
X3453460Y5651226D01*
X3421180Y5664597D01*
X3381132Y5704647D01*
X3375500Y5732964D01*
X3375500Y5896525D01*
X3375501Y5896534D01*
X3375501Y5994853D01*
X3375501Y5994854D01*
X3350527Y6055145D01*
X3341170Y6077736D01*
X3337917Y6080989D01*
X3332860Y6091464D01*
X3332303Y6101205D01*
X3325500Y6123636D01*
X3325500Y6394855D01*
X3325499Y6394857D01*
X3317888Y6413231D01*
X3291170Y6477736D01*
X3291168Y6477738D01*
X3287120Y6483797D01*
X3288785Y6484911D01*
X3270499Y6529059D01*
X3270499Y7032364D01*
X3270499Y7032368D01*
X3259679Y7086769D01*
X3218459Y7148459D01*
X3203789Y7158261D01*
X3156769Y7189679D01*
X3156764Y7189680D01*
X3102369Y7200500D01*
X3102367Y7200500D01*
X2897636Y7200500D01*
X2843231Y7189680D01*
X2781541Y7148460D01*
X2781540Y7148459D01*
X2740321Y7086770D01*
X2729500Y7032368D01*
X2729500Y6467637D01*
X2740320Y6413232D01*
X2781539Y6351543D01*
X2781540Y6351543D01*
X2781541Y6351541D01*
X2783842Y6350004D01*
X2797084Y6338691D01*
X2806041Y6328995D01*
X2808830Y6322264D01*
X2853860Y6277234D01*
X2854855Y6276157D01*
X2864180Y6250855D01*
X2874500Y6225942D01*
X2874500Y6050827D01*
X2874499Y6050813D01*
X2874499Y5955146D01*
X2893079Y5910289D01*
X2893084Y5910277D01*
X2893684Y5908830D01*
X2908830Y5872264D01*
X2912446Y5868648D01*
X2917598Y5857572D01*
X2918017Y5847734D01*
X2924500Y5826365D01*
X2924500Y5650827D01*
X2924499Y5650813D01*
X2924499Y5555145D01*
X2939288Y5519440D01*
X2939290Y5519438D01*
X2958829Y5472265D01*
X3032671Y5398423D01*
X3032673Y5398422D01*
X3054269Y5376826D01*
X3075943Y5324500D01*
X3054269Y5272174D01*
X3001943Y5250500D01*
X1942909Y5250500D01*
X1890583Y5272174D01*
X1868909Y5324500D01*
X1890583Y5376826D01*
X1898860Y5385103D01*
X1914616Y5400859D01*
X1957730Y5498502D01*
X1960500Y5522377D01*
X1960499Y5977622D01*
X1957730Y6001498D01*
X1931805Y6060213D01*
X1925500Y6090103D01*
X1925500Y6146525D01*
X1925501Y6146534D01*
X1925501Y6244853D01*
X1925501Y6244854D01*
X1898383Y6310321D01*
X1891170Y6327736D01*
X1888119Y6330787D01*
X1883125Y6340919D01*
X1882493Y6350581D01*
X1875500Y6373636D01*
X1875500Y6449437D01*
X1875499Y6449438D01*
X1849911Y6544935D01*
X1849909Y6544940D01*
X1800474Y6630563D01*
X1730562Y6700475D01*
X1644939Y6749910D01*
X1644934Y6749912D01*
X1549437Y6775500D01*
X1549435Y6775500D01*
X1450565Y6775500D01*
X1450563Y6775500D01*
X1355065Y6749912D01*
X1355060Y6749910D01*
X1269437Y6700475D01*
X1199525Y6630563D01*
X1150090Y6544940D01*
X1150088Y6544935D01*
X1124500Y6449438D01*
X1124500Y6350563D01*
X1150088Y6255066D01*
X1150092Y6255057D01*
X1184367Y6195690D01*
X1191759Y6139538D01*
X1185811Y6124314D01*
X1180573Y6114331D01*
X1165384Y6099141D01*
X1126993Y6012197D01*
X1125829Y6009976D01*
X1105847Y5993318D01*
X1087030Y5975350D01*
X1084370Y5975412D01*
X1082327Y5973708D01*
X1056415Y5976058D01*
X1030408Y5976659D01*
X1027451Y5978685D01*
X1025922Y5978823D01*
X1024155Y5980943D01*
X1007973Y5992027D01*
X1000000Y6000000D01*
X324500Y6000000D01*
X272174Y6021674D01*
X250500Y6074000D01*
X250500Y7650552D01*
X272174Y7702878D01*
X324500Y7724552D01*
X361501Y7714637D01*
X409709Y7686803D01*
X409717Y7686800D01*
X455969Y7674407D01*
X524288Y7656101D01*
X524289Y7656100D01*
X524291Y7656100D01*
X642911Y7656100D01*
X642911Y7656101D01*
X757486Y7686801D01*
X834960Y7731531D01*
X891112Y7738924D01*
X933488Y7708558D01*
X951539Y7681543D01*
X951540Y7681542D01*
X951541Y7681541D01*
X1013231Y7640321D01*
X1067631Y7629500D01*
X1632368Y7629501D01*
X1686769Y7640321D01*
X1748459Y7681541D01*
X1789679Y7743231D01*
X1800500Y7797631D01*
X1800499Y8002368D01*
X1789679Y8056769D01*
X1754853Y8108889D01*
X1743804Y8164436D01*
X1754853Y8191111D01*
X1789679Y8243231D01*
X1800500Y8297631D01*
X1800499Y8502368D01*
X1789679Y8556769D01*
X1754853Y8608889D01*
X1743804Y8664436D01*
X1754853Y8691111D01*
X1789679Y8743231D01*
X1800500Y8797631D01*
X1800499Y9002368D01*
X1797986Y9015000D01*
X1809035Y9070546D01*
X1856126Y9102013D01*
X1884997Y9102013D01*
X1897631Y9099500D01*
X2102368Y9099501D01*
X2156769Y9110321D01*
X2208888Y9145147D01*
X2264436Y9156196D01*
X2291109Y9145148D01*
X2343231Y9110321D01*
X2397631Y9099500D01*
X2602368Y9099501D01*
X2656769Y9110321D01*
X2708888Y9145147D01*
X2764436Y9156196D01*
X2791109Y9145148D01*
X2843231Y9110321D01*
X2897631Y9099500D01*
X3102368Y9099501D01*
X3156769Y9110321D01*
X3208888Y9145147D01*
X3264436Y9156196D01*
X3291109Y9145148D01*
X3343231Y9110321D01*
X3397631Y9099500D01*
X3602368Y9099501D01*
X3614999Y9102014D01*
X3670545Y9090966D01*
X3702012Y9043874D01*
X3702013Y9015002D01*
X3699500Y9002367D01*
X3699500Y8797637D01*
X3710321Y8743230D01*
X3745145Y8691111D01*
X3756194Y8635562D01*
X3745145Y8608889D01*
X3710321Y8556771D01*
X3706887Y8539507D01*
X3700449Y8507137D01*
X3699500Y8502368D01*
X3699500Y8297637D01*
X3710321Y8243230D01*
X3745145Y8191111D01*
X3756194Y8135562D01*
X3745145Y8108889D01*
X3710321Y8056771D01*
X3707684Y8043514D01*
X3701255Y8011189D01*
X3699500Y8002368D01*
X3699500Y7797637D01*
X3710321Y7743230D01*
X3745145Y7691111D01*
X3756194Y7635562D01*
X3745145Y7608889D01*
X3710321Y7556771D01*
X3705138Y7530715D01*
X3700156Y7505664D01*
X3699500Y7502368D01*
X3699500Y7297637D01*
X3710320Y7243232D01*
X3751502Y7181600D01*
X3751541Y7181541D01*
X3813231Y7140321D01*
X3867631Y7129500D01*
X4432368Y7129501D01*
X4486769Y7140321D01*
X4548459Y7181541D01*
X4589679Y7243231D01*
X4600500Y7297631D01*
X4600499Y7478390D01*
X4622173Y7530715D01*
X4674499Y7552389D01*
X4726823Y7530716D01*
X4812101Y7445439D01*
X4934257Y7323282D01*
X4955931Y7270956D01*
X4934257Y7218630D01*
X4915530Y7205024D01*
X4911661Y7203053D01*
X4911658Y7203051D01*
X4821951Y7113344D01*
X4821950Y7113342D01*
X4780692Y7032368D01*
X4764353Y7000302D01*
X4749500Y6906520D01*
X4749500Y5893481D01*
X4764353Y5799696D01*
X4764354Y5799694D01*
X4805284Y5719367D01*
X4821950Y5686658D01*
X4911658Y5596950D01*
X5024696Y5539354D01*
X5118481Y5524500D01*
X5681518Y5524501D01*
X5681519Y5524501D01*
X5775304Y5539354D01*
X5775306Y5539355D01*
X5806295Y5555145D01*
X5888342Y5596950D01*
X5978050Y5686658D01*
X6035646Y5799696D01*
X6050500Y5893481D01*
X6050500Y6040733D01*
X6072174Y6093059D01*
X6124500Y6114733D01*
X6164732Y6101074D01*
X6165238Y6101950D01*
X6169437Y6099526D01*
X6169438Y6099525D01*
X6206390Y6078191D01*
X6253809Y6050813D01*
X6255062Y6050090D01*
X6255063Y6050090D01*
X6255065Y6050089D01*
X6274588Y6044858D01*
X6350562Y6024501D01*
X6350563Y6024500D01*
X6350565Y6024500D01*
X6449437Y6024500D01*
X6449437Y6024501D01*
X6544938Y6050090D01*
X6630562Y6099525D01*
X6700475Y6169438D01*
X6749910Y6255062D01*
X6775499Y6350563D01*
X6775500Y6350563D01*
X6775500Y6449437D01*
X6775499Y6449438D01*
X6749911Y6544935D01*
X6749909Y6544940D01*
X6700474Y6630563D01*
X6630562Y6700475D01*
X6544939Y6749910D01*
X6544934Y6749912D01*
X6472539Y6769310D01*
X6427606Y6803788D01*
X6420214Y6859941D01*
X6454692Y6904874D01*
X6521613Y6943511D01*
X6605489Y7027387D01*
X6664799Y7130114D01*
X6695499Y7244689D01*
X6695500Y7244689D01*
X6695500Y7363311D01*
X6695499Y7363312D01*
X6691608Y7377832D01*
X6674550Y7441496D01*
X6664800Y7477883D01*
X6664798Y7477888D01*
X6605491Y7580610D01*
X6605490Y7580611D01*
X6605489Y7580613D01*
X6552253Y7633849D01*
X6530580Y7686173D01*
X6552252Y7738496D01*
X6564616Y7750859D01*
X6607730Y7848502D01*
X6610500Y7872377D01*
X6610499Y8166590D01*
X6632173Y8218915D01*
X6684499Y8240589D01*
X6736825Y8218915D01*
X6767826Y8187914D01*
X6789500Y8135588D01*
X6789500Y7872378D01*
X6792269Y7848505D01*
X6792269Y7848503D01*
X6792270Y7848502D01*
X6835384Y7750859D01*
X6910859Y7675384D01*
X7008502Y7632270D01*
X7032377Y7629500D01*
X7387622Y7629501D01*
X7411498Y7632270D01*
X7509141Y7675384D01*
X7584616Y7750859D01*
X7627730Y7848502D01*
X7630500Y7872377D01*
X7630499Y8327622D01*
X7627730Y8351498D01*
X7584616Y8449141D01*
X7509141Y8524616D01*
X7411498Y8567730D01*
X7387623Y8570500D01*
X7387619Y8570500D01*
X7124413Y8570500D01*
X7072087Y8592174D01*
X6839574Y8824687D01*
X6817900Y8877013D01*
X6817900Y9975387D01*
X6839574Y10027713D01*
X7108563Y10296702D01*
X7108564Y10296703D01*
X7146700Y10388772D01*
X7146700Y10488427D01*
X7146700Y12288505D01*
X7146701Y12298994D01*
X7158179Y12326700D01*
X7168375Y12351315D01*
X7168379Y12351319D01*
X7196155Y12362822D01*
X7220701Y12372989D01*
X7220706Y12372989D01*
X7220710Y12372988D01*
G37*
%TD.AperFunction*%
%TA.AperFunction,Conductor*%
G36*
X24727826Y34727826D02*
G01*
X24749500Y34675500D01*
X24749500Y23824500D01*
X24727826Y23772174D01*
X24675500Y23750500D01*
X24400172Y23750500D01*
X24308105Y23712366D01*
X24237634Y23641895D01*
X24199500Y23549830D01*
X24199500Y12850171D01*
X24237634Y12758106D01*
X24237637Y12758102D01*
X24308102Y12687637D01*
X24308105Y12687635D01*
X24354137Y12668568D01*
X24400172Y12649500D01*
X24675500Y12649500D01*
X24727826Y12627826D01*
X24749500Y12575500D01*
X24749500Y6074000D01*
X24727826Y6021674D01*
X24675500Y6000000D01*
X24000000Y6000000D01*
X24000000Y5324500D01*
X23978326Y5272174D01*
X23926000Y5250500D01*
X14172313Y5250500D01*
X14119987Y5272174D01*
X14098313Y5324500D01*
X14119987Y5376826D01*
X14600987Y5857827D01*
X14653313Y5879501D01*
X14767622Y5879501D01*
X14791498Y5882270D01*
X14889141Y5925384D01*
X14964616Y6000859D01*
X15007730Y6098502D01*
X15010500Y6122377D01*
X15010499Y6416590D01*
X15032173Y6468915D01*
X15084499Y6490589D01*
X15136825Y6468915D01*
X15167826Y6437914D01*
X15189500Y6385588D01*
X15189500Y6122378D01*
X15192269Y6098505D01*
X15192269Y6098503D01*
X15192270Y6098502D01*
X15235384Y6000859D01*
X15310859Y5925384D01*
X15408502Y5882270D01*
X15432377Y5879500D01*
X15787622Y5879501D01*
X15811498Y5882270D01*
X15909141Y5925384D01*
X15984616Y6000859D01*
X16027730Y6098502D01*
X16030500Y6122377D01*
X16030499Y6577622D01*
X16027730Y6601498D01*
X15984616Y6699141D01*
X15909141Y6774616D01*
X15811498Y6817730D01*
X15787623Y6820500D01*
X15787619Y6820500D01*
X15524413Y6820500D01*
X15472087Y6842174D01*
X15390475Y6923786D01*
X15368801Y6976112D01*
X15390475Y7028438D01*
X15442801Y7050112D01*
X15471120Y7044479D01*
X15475172Y7042800D01*
X15574828Y7042800D01*
X15817587Y7042800D01*
X15869913Y7021126D01*
X16887102Y6003937D01*
X16887105Y6003935D01*
X16909029Y5994854D01*
X16979172Y5965800D01*
X16979173Y5965800D01*
X17715627Y5965800D01*
X17715628Y5965800D01*
X17807697Y6003936D01*
X18822564Y7018803D01*
X18860700Y7110872D01*
X18860700Y7210527D01*
X18860700Y7952454D01*
X18882374Y8004780D01*
X18934700Y8026454D01*
X18987026Y8004780D01*
X19000634Y7986049D01*
X19046002Y7897010D01*
X19046005Y7897004D01*
X19081242Y7848505D01*
X19152447Y7750499D01*
X19280499Y7622447D01*
X19373152Y7555131D01*
X19414033Y7525429D01*
X19427006Y7516004D01*
X19588361Y7433789D01*
X19588364Y7433788D01*
X19588363Y7433788D01*
X19760580Y7377832D01*
X19760586Y7377831D01*
X19760591Y7377829D01*
X19879833Y7358943D01*
X19939453Y7349500D01*
X19939454Y7349500D01*
X20120547Y7349500D01*
X20165261Y7356583D01*
X20299409Y7377829D01*
X20299416Y7377832D01*
X20299419Y7377832D01*
X20392984Y7408233D01*
X20471639Y7433789D01*
X20632994Y7516004D01*
X20779501Y7622447D01*
X20907553Y7750499D01*
X21013996Y7897006D01*
X21096211Y8058361D01*
X21132347Y8169578D01*
X21152168Y8230581D01*
X21152168Y8230584D01*
X21152171Y8230591D01*
X21180500Y8409454D01*
X21180500Y8590546D01*
X21179448Y8597185D01*
X21157848Y8733564D01*
X21152171Y8769409D01*
X21152169Y8769414D01*
X21152168Y8769420D01*
X21096212Y8941636D01*
X21096211Y8941637D01*
X21096211Y8941639D01*
X21013996Y9102994D01*
X20907553Y9249501D01*
X20779501Y9377553D01*
X20692861Y9440500D01*
X20632996Y9483995D01*
X20483570Y9560132D01*
X20471639Y9566211D01*
X20471638Y9566212D01*
X20471635Y9566213D01*
X20471636Y9566213D01*
X20299419Y9622169D01*
X20299406Y9622172D01*
X20120547Y9650500D01*
X20120546Y9650500D01*
X19939454Y9650500D01*
X19939453Y9650500D01*
X19760593Y9622172D01*
X19760580Y9622169D01*
X19588363Y9566213D01*
X19588359Y9566211D01*
X19585139Y9564570D01*
X19528676Y9560132D01*
X19485613Y9596920D01*
X19481175Y9653383D01*
X19483177Y9658809D01*
X19510500Y9724772D01*
X19510500Y9824428D01*
X19510500Y11255689D01*
X19532174Y11308015D01*
X19554608Y11323383D01*
X19559141Y11325384D01*
X19634616Y11400859D01*
X19677730Y11498502D01*
X19680500Y11522377D01*
X19680499Y11977622D01*
X19677730Y12001498D01*
X19634616Y12099141D01*
X19559141Y12174616D01*
X19461498Y12217730D01*
X19437623Y12220500D01*
X19437619Y12220500D01*
X19243411Y12220500D01*
X19191085Y12242174D01*
X19169411Y12294500D01*
X19191084Y12346825D01*
X20310264Y13466003D01*
X20348400Y13558072D01*
X20348400Y13657727D01*
X20348400Y17866081D01*
X20370074Y17918407D01*
X20371982Y17920081D01*
X20374510Y17922610D01*
X20374513Y17922611D01*
X20458389Y18006487D01*
X20517699Y18109214D01*
X20548399Y18223789D01*
X20548400Y18223789D01*
X20548400Y18342411D01*
X20548399Y18342412D01*
X20517700Y18456983D01*
X20517698Y18456988D01*
X20458391Y18559710D01*
X20458390Y18559711D01*
X20458389Y18559713D01*
X20374513Y18643589D01*
X20374510Y18643591D01*
X20374509Y18643592D01*
X20271787Y18702899D01*
X20271783Y18702900D01*
X20239884Y18711448D01*
X20194951Y18745927D01*
X20187560Y18802080D01*
X20206710Y18835250D01*
X23455488Y22084030D01*
X23455491Y22084031D01*
X23465896Y22094436D01*
X23465897Y22094436D01*
X23536364Y22164903D01*
X23574500Y22256972D01*
X23574500Y25465828D01*
X23536364Y25557897D01*
X23492173Y25602088D01*
X23470499Y25654414D01*
X23470499Y25917623D01*
X23468218Y25937287D01*
X23467730Y25941498D01*
X23424616Y26039141D01*
X23349141Y26114616D01*
X23251498Y26157730D01*
X23227623Y26160500D01*
X23227619Y26160500D01*
X22772383Y26160500D01*
X22760182Y26159085D01*
X22758021Y26158835D01*
X22756130Y26159373D01*
X22754367Y26158502D01*
X22729159Y26167049D01*
X22703548Y26174338D01*
X22702590Y26176057D01*
X22700729Y26176688D01*
X22694118Y26191271D01*
X22675992Y26223820D01*
X22675660Y26227475D01*
X22675500Y26229903D01*
X22675500Y26249435D01*
X22673792Y26255809D01*
X22673314Y26263064D01*
X22680247Y26283514D01*
X22683062Y26304921D01*
X22689068Y26309532D01*
X22691500Y26316702D01*
X22710862Y26326260D01*
X22727990Y26339406D01*
X22739155Y26340226D01*
X22742287Y26341771D01*
X22745477Y26340690D01*
X22755677Y26341438D01*
X22772377Y26339500D01*
X23227622Y26339501D01*
X23251498Y26342270D01*
X23349141Y26385384D01*
X23424616Y26460859D01*
X23467730Y26558502D01*
X23470500Y26582377D01*
X23470499Y26835301D01*
X23492173Y26887626D01*
X23544499Y26909300D01*
X23659111Y26909300D01*
X23659111Y26909301D01*
X23773686Y26940001D01*
X23876413Y26999311D01*
X23960289Y27083187D01*
X24019599Y27185914D01*
X24050299Y27300489D01*
X24050300Y27300489D01*
X24050300Y27419111D01*
X24050299Y27419112D01*
X24044404Y27441111D01*
X24019599Y27533686D01*
X24003776Y27561092D01*
X23960291Y27636410D01*
X23960290Y27636411D01*
X23960289Y27636413D01*
X23876413Y27720289D01*
X23876410Y27720291D01*
X23876409Y27720292D01*
X23773687Y27779599D01*
X23773682Y27779601D01*
X23659111Y27810300D01*
X23659109Y27810300D01*
X23544500Y27810300D01*
X23492174Y27831974D01*
X23470500Y27884300D01*
X23470499Y28167623D01*
X23467730Y28191496D01*
X23467730Y28191498D01*
X23424616Y28289141D01*
X23349141Y28364616D01*
X23251498Y28407730D01*
X23227623Y28410500D01*
X23227619Y28410500D01*
X22772377Y28410500D01*
X22748504Y28407731D01*
X22650858Y28364616D01*
X22575385Y28289143D01*
X22532270Y28191499D01*
X22529500Y28167620D01*
X22529500Y27904414D01*
X22507826Y27852088D01*
X22233103Y27577364D01*
X22166626Y27510887D01*
X22114300Y27489213D01*
X22061974Y27510887D01*
X22040300Y27563213D01*
X22040300Y28267381D01*
X22061974Y28319707D01*
X22063882Y28321381D01*
X22066410Y28323910D01*
X22066413Y28323911D01*
X22150289Y28407787D01*
X22209599Y28510514D01*
X22240299Y28625089D01*
X22240300Y28625089D01*
X22240300Y28743711D01*
X22240299Y28743712D01*
X22209600Y28858283D01*
X22209598Y28858288D01*
X22150291Y28961010D01*
X22150290Y28961011D01*
X22150289Y28961013D01*
X22066413Y29044889D01*
X22066410Y29044891D01*
X22066409Y29044892D01*
X21963687Y29104199D01*
X21963682Y29104201D01*
X21911130Y29118282D01*
X21849111Y29134900D01*
X21849109Y29134900D01*
X21730491Y29134900D01*
X21730489Y29134900D01*
X21615917Y29104201D01*
X21615912Y29104199D01*
X21513190Y29044892D01*
X21429308Y28961010D01*
X21370001Y28858288D01*
X21369999Y28858283D01*
X21339300Y28743712D01*
X21339300Y28625089D01*
X21369999Y28510518D01*
X21370001Y28510513D01*
X21429308Y28407791D01*
X21429309Y28407790D01*
X21429311Y28407787D01*
X21495820Y28341278D01*
X21516617Y28320481D01*
X21514693Y28318558D01*
X21538666Y28277051D01*
X21539300Y28267381D01*
X21539300Y27711756D01*
X21517626Y27659430D01*
X21465300Y27637756D01*
X21412974Y27659430D01*
X21393822Y27692603D01*
X21388200Y27713583D01*
X21388198Y27713588D01*
X21328891Y27816310D01*
X21328890Y27816311D01*
X21328889Y27816313D01*
X21245013Y27900189D01*
X21245010Y27900191D01*
X21245009Y27900192D01*
X21142287Y27959499D01*
X21142282Y27959501D01*
X21027711Y27990200D01*
X21027709Y27990200D01*
X20909091Y27990200D01*
X20909089Y27990200D01*
X20794517Y27959501D01*
X20794508Y27959497D01*
X20761499Y27940439D01*
X20705347Y27933047D01*
X20660414Y27967526D01*
X20650500Y28004525D01*
X20650500Y28014820D01*
X20641767Y28058722D01*
X20608504Y28108504D01*
X20608503Y28108505D01*
X20608501Y28108507D01*
X20563655Y28138471D01*
X20532188Y28185562D01*
X20543237Y28241111D01*
X20563655Y28261529D01*
X20608501Y28291494D01*
X20608500Y28291494D01*
X20608504Y28291496D01*
X20641767Y28341278D01*
X20650500Y28385180D01*
X20650500Y28814820D01*
X20641767Y28858722D01*
X20608504Y28908504D01*
X20608503Y28908505D01*
X20608501Y28908507D01*
X20563655Y28938471D01*
X20532188Y28985562D01*
X20543237Y29041111D01*
X20563655Y29061529D01*
X20608501Y29091494D01*
X20608500Y29091494D01*
X20608504Y29091496D01*
X20641767Y29141278D01*
X20650500Y29185180D01*
X20650500Y29187620D01*
X22529500Y29187620D01*
X22529500Y28832378D01*
X22532269Y28808505D01*
X22532269Y28808503D01*
X22532270Y28808502D01*
X22575384Y28710859D01*
X22650859Y28635384D01*
X22748502Y28592270D01*
X22772377Y28589500D01*
X23227622Y28589501D01*
X23251498Y28592270D01*
X23349141Y28635384D01*
X23424616Y28710859D01*
X23467730Y28808502D01*
X23470500Y28832377D01*
X23470499Y29187622D01*
X23467730Y29211498D01*
X23424616Y29309141D01*
X23349141Y29384616D01*
X23294608Y29408695D01*
X23255497Y29449658D01*
X23250500Y29476389D01*
X23250500Y30049181D01*
X23272174Y30101507D01*
X23274082Y30103181D01*
X23276610Y30105710D01*
X23276613Y30105711D01*
X23360489Y30189587D01*
X23419799Y30292314D01*
X23450499Y30406889D01*
X23450500Y30406889D01*
X23450500Y30525511D01*
X23450499Y30525512D01*
X23444235Y30548888D01*
X23419799Y30640086D01*
X23407419Y30661529D01*
X23360491Y30742810D01*
X23360490Y30742811D01*
X23360489Y30742813D01*
X23276613Y30826689D01*
X23276610Y30826691D01*
X23276609Y30826692D01*
X23173887Y30885999D01*
X23173882Y30886001D01*
X23059311Y30916700D01*
X23059309Y30916700D01*
X22940691Y30916700D01*
X22940689Y30916700D01*
X22826117Y30886001D01*
X22826112Y30885999D01*
X22723390Y30826692D01*
X22639508Y30742810D01*
X22580201Y30640088D01*
X22580199Y30640083D01*
X22549500Y30525512D01*
X22549500Y30406889D01*
X22580199Y30292318D01*
X22580201Y30292313D01*
X22639508Y30189591D01*
X22639509Y30189590D01*
X22639511Y30189587D01*
X22696205Y30132893D01*
X22726817Y30102281D01*
X22724893Y30100358D01*
X22748866Y30058851D01*
X22749500Y30049181D01*
X22749500Y29476389D01*
X22727826Y29424063D01*
X22705392Y29408696D01*
X22650859Y29384616D01*
X22650857Y29384615D01*
X22575385Y29309143D01*
X22532270Y29211499D01*
X22529500Y29187620D01*
X20650500Y29187620D01*
X20650500Y29614820D01*
X20641767Y29658722D01*
X20608504Y29708504D01*
X20608503Y29708505D01*
X20608501Y29708507D01*
X20563655Y29738471D01*
X20532188Y29785562D01*
X20543237Y29841111D01*
X20563655Y29861529D01*
X20608501Y29891494D01*
X20608500Y29891494D01*
X20608504Y29891496D01*
X20641767Y29941278D01*
X20650500Y29985180D01*
X20650500Y30414820D01*
X20641767Y30458722D01*
X20608504Y30508504D01*
X20608503Y30508505D01*
X20608501Y30508507D01*
X20563655Y30538471D01*
X20532188Y30585562D01*
X20543237Y30641111D01*
X20563655Y30661529D01*
X20608501Y30691494D01*
X20608500Y30691494D01*
X20608504Y30691496D01*
X20641767Y30741278D01*
X20650500Y30785180D01*
X20650500Y31214820D01*
X20641767Y31258722D01*
X20608504Y31308504D01*
X20608503Y31308505D01*
X20608501Y31308507D01*
X20563655Y31338471D01*
X20532188Y31385562D01*
X20543237Y31441111D01*
X20563655Y31461529D01*
X20608501Y31491494D01*
X20608500Y31491494D01*
X20608504Y31491496D01*
X20641767Y31541278D01*
X20650500Y31585180D01*
X20650500Y32014820D01*
X20641767Y32058722D01*
X20608504Y32108504D01*
X20608503Y32108505D01*
X20608501Y32108507D01*
X20563655Y32138471D01*
X20532188Y32185562D01*
X20543237Y32241111D01*
X20563655Y32261529D01*
X20608501Y32291494D01*
X20608500Y32291494D01*
X20608504Y32291496D01*
X20641767Y32341278D01*
X20650500Y32385180D01*
X20650500Y32814820D01*
X20641767Y32858722D01*
X20608504Y32908504D01*
X20608503Y32908505D01*
X20608501Y32908507D01*
X20563655Y32938471D01*
X20532188Y32985562D01*
X20543237Y33041111D01*
X20563655Y33061529D01*
X20608501Y33091494D01*
X20608500Y33091494D01*
X20608504Y33091496D01*
X20641767Y33141278D01*
X20650500Y33185180D01*
X20650500Y33614820D01*
X20641767Y33658722D01*
X20608504Y33708504D01*
X20558722Y33741767D01*
X20514820Y33750500D01*
X19685180Y33750500D01*
X19663229Y33746134D01*
X19641277Y33741767D01*
X19591496Y33708505D01*
X19591495Y33708504D01*
X19558233Y33658723D01*
X19549500Y33614820D01*
X19549500Y33185181D01*
X19558233Y33141278D01*
X19591495Y33091497D01*
X19591496Y33091496D01*
X19636345Y33061529D01*
X19667811Y33014437D01*
X19656762Y32958888D01*
X19636345Y32938471D01*
X19591496Y32908505D01*
X19591495Y32908504D01*
X19558233Y32858723D01*
X19549500Y32814820D01*
X19549500Y32385181D01*
X19558233Y32341278D01*
X19591495Y32291497D01*
X19591496Y32291496D01*
X19636345Y32261529D01*
X19667811Y32214437D01*
X19656762Y32158888D01*
X19636345Y32138471D01*
X19591496Y32108505D01*
X19591495Y32108504D01*
X19558233Y32058723D01*
X19549500Y32014820D01*
X19549500Y31585181D01*
X19558233Y31541278D01*
X19591495Y31491497D01*
X19591496Y31491496D01*
X19636345Y31461529D01*
X19667811Y31414437D01*
X19656762Y31358888D01*
X19636345Y31338471D01*
X19591496Y31308505D01*
X19591495Y31308504D01*
X19558233Y31258723D01*
X19549500Y31214820D01*
X19549500Y30785181D01*
X19558233Y30741278D01*
X19591495Y30691497D01*
X19591496Y30691496D01*
X19636345Y30661529D01*
X19667811Y30614437D01*
X19656762Y30558888D01*
X19636345Y30538471D01*
X19591496Y30508505D01*
X19591495Y30508504D01*
X19558233Y30458723D01*
X19558233Y30458722D01*
X19549500Y30414820D01*
X19549500Y29985180D01*
X19556880Y29948078D01*
X19558233Y29941278D01*
X19591495Y29891497D01*
X19591496Y29891496D01*
X19636345Y29861529D01*
X19667811Y29814437D01*
X19656762Y29758888D01*
X19636345Y29738471D01*
X19591496Y29708505D01*
X19591495Y29708504D01*
X19558233Y29658723D01*
X19549500Y29614820D01*
X19549500Y29185181D01*
X19558233Y29141278D01*
X19591495Y29091497D01*
X19591496Y29091496D01*
X19636345Y29061529D01*
X19667811Y29014437D01*
X19656762Y28958888D01*
X19636345Y28938471D01*
X19591496Y28908505D01*
X19591495Y28908504D01*
X19558233Y28858723D01*
X19549500Y28814820D01*
X19549500Y28385181D01*
X19558233Y28341278D01*
X19591495Y28291497D01*
X19591496Y28291496D01*
X19636345Y28261529D01*
X19667811Y28214437D01*
X19656762Y28158888D01*
X19636345Y28138471D01*
X19591496Y28108505D01*
X19591495Y28108504D01*
X19558233Y28058723D01*
X19549500Y28014820D01*
X19549500Y27585181D01*
X19558233Y27541278D01*
X19591495Y27491497D01*
X19591496Y27491496D01*
X19636345Y27461529D01*
X19667811Y27414437D01*
X19656762Y27358888D01*
X19636345Y27338471D01*
X19591496Y27308505D01*
X19591495Y27308504D01*
X19558233Y27258723D01*
X19549500Y27214820D01*
X19549500Y26785180D01*
X19556880Y26748078D01*
X19558233Y26741278D01*
X19591495Y26691497D01*
X19591496Y26691496D01*
X19636345Y26661529D01*
X19667811Y26614437D01*
X19656762Y26558888D01*
X19636345Y26538471D01*
X19591496Y26508505D01*
X19591495Y26508504D01*
X19558233Y26458723D01*
X19549500Y26414820D01*
X19549500Y25985180D01*
X19557104Y25946955D01*
X19558233Y25941278D01*
X19591495Y25891497D01*
X19591496Y25891496D01*
X19636345Y25861529D01*
X19667811Y25814437D01*
X19656762Y25758888D01*
X19636345Y25738471D01*
X19591496Y25708505D01*
X19591495Y25708504D01*
X19558233Y25658723D01*
X19556139Y25648197D01*
X19549500Y25614820D01*
X19549500Y25185180D01*
X19558233Y25141278D01*
X19591496Y25091496D01*
X19641278Y25058233D01*
X19685180Y25049500D01*
X19685181Y25049500D01*
X20514819Y25049500D01*
X20514820Y25049500D01*
X20558722Y25058233D01*
X20608504Y25091496D01*
X20641767Y25141278D01*
X20650500Y25185180D01*
X20650500Y25428487D01*
X20672174Y25480813D01*
X20724500Y25502487D01*
X20776826Y25480813D01*
X21342745Y24914894D01*
X21364419Y24862568D01*
X21358114Y24832678D01*
X21322270Y24751501D01*
X21319500Y24727620D01*
X21319500Y24464414D01*
X21297826Y24412088D01*
X20030713Y23144974D01*
X19978387Y23123300D01*
X19458313Y23123300D01*
X19405987Y23144974D01*
X19035998Y23514963D01*
X19035994Y23514966D01*
X18943928Y23553100D01*
X16340527Y23553100D01*
X16240872Y23553100D01*
X16148805Y23514966D01*
X16148801Y23514963D01*
X15456730Y22822893D01*
X15404404Y22801219D01*
X15352078Y22822893D01*
X15322765Y22852206D01*
X15275222Y22873198D01*
X15219991Y22897585D01*
X15219990Y22897586D01*
X15219988Y22897586D01*
X15194865Y22900500D01*
X14611953Y22900500D01*
X14559627Y22922174D01*
X14537953Y22974500D01*
X14558187Y23023351D01*
X14557541Y23023846D01*
X14559391Y23026257D01*
X14559626Y23026825D01*
X14560489Y23027687D01*
X14619799Y23130414D01*
X14650499Y23244989D01*
X14650500Y23244989D01*
X14650500Y23363611D01*
X14650499Y23363612D01*
X14619800Y23478183D01*
X14619798Y23478188D01*
X14560491Y23580910D01*
X14560490Y23580911D01*
X14560489Y23580913D01*
X14476613Y23664789D01*
X14476612Y23664790D01*
X14473184Y23668218D01*
X14475105Y23670140D01*
X14451133Y23711660D01*
X14450500Y23721319D01*
X14450500Y23913185D01*
X14470046Y23963293D01*
X14476034Y23969801D01*
X14508504Y23991496D01*
X14541662Y24041122D01*
X14545546Y24045342D01*
X14566426Y24055026D01*
X14585562Y24067812D01*
X14591466Y24066638D01*
X14596927Y24069170D01*
X14618539Y24061253D01*
X14641111Y24056763D01*
X14647074Y24050800D01*
X14650108Y24049688D01*
X14651770Y24046104D01*
X14661529Y24036345D01*
X14691493Y23991499D01*
X14691496Y23991496D01*
X14716612Y23974714D01*
X14748078Y23927622D01*
X14749500Y23913185D01*
X14749500Y23793471D01*
X14787634Y23701406D01*
X14787635Y23701404D01*
X14787636Y23701403D01*
X14858103Y23630936D01*
X14881018Y23621445D01*
X14921066Y23581399D01*
X14925148Y23560878D01*
X14926067Y23560998D01*
X14926700Y23556189D01*
X14957399Y23441618D01*
X14957401Y23441613D01*
X15016708Y23338891D01*
X15016709Y23338890D01*
X15016711Y23338887D01*
X15100587Y23255011D01*
X15100589Y23255010D01*
X15100590Y23255009D01*
X15178757Y23209879D01*
X15203314Y23195701D01*
X15203315Y23195701D01*
X15203317Y23195700D01*
X15260602Y23180351D01*
X15317888Y23165001D01*
X15317889Y23165000D01*
X15317891Y23165000D01*
X15436511Y23165000D01*
X15436511Y23165001D01*
X15551086Y23195701D01*
X15653813Y23255011D01*
X15737689Y23338887D01*
X15796999Y23441614D01*
X15827699Y23556189D01*
X15827700Y23556189D01*
X15827700Y23674811D01*
X15827699Y23674812D01*
X15821349Y23698509D01*
X15796999Y23789386D01*
X15791196Y23799437D01*
X15768643Y23838500D01*
X15761250Y23894652D01*
X15795729Y23939586D01*
X15832729Y23949500D01*
X16014819Y23949500D01*
X16014820Y23949500D01*
X16058722Y23958233D01*
X16108504Y23991496D01*
X16138471Y24036345D01*
X16185562Y24067812D01*
X16241111Y24056763D01*
X16261529Y24036345D01*
X16291493Y23991499D01*
X16291495Y23991497D01*
X16291496Y23991496D01*
X16341278Y23958233D01*
X16385180Y23949500D01*
X16385181Y23949500D01*
X16814819Y23949500D01*
X16814820Y23949500D01*
X16858722Y23958233D01*
X16908504Y23991496D01*
X16938471Y24036345D01*
X16985562Y24067812D01*
X17041111Y24056763D01*
X17061529Y24036345D01*
X17091493Y23991499D01*
X17091495Y23991497D01*
X17091496Y23991496D01*
X17141278Y23958233D01*
X17185180Y23949500D01*
X17185181Y23949500D01*
X17614819Y23949500D01*
X17614820Y23949500D01*
X17658722Y23958233D01*
X17708504Y23991496D01*
X17738471Y24036345D01*
X17785562Y24067812D01*
X17841111Y24056763D01*
X17861529Y24036345D01*
X17891493Y23991499D01*
X17891495Y23991497D01*
X17891496Y23991496D01*
X17941278Y23958233D01*
X17985180Y23949500D01*
X17985181Y23949500D01*
X18414819Y23949500D01*
X18414820Y23949500D01*
X18458722Y23958233D01*
X18508504Y23991496D01*
X18538471Y24036345D01*
X18585562Y24067812D01*
X18641111Y24056763D01*
X18661529Y24036345D01*
X18691493Y23991499D01*
X18691495Y23991497D01*
X18691496Y23991496D01*
X18741278Y23958233D01*
X18785180Y23949500D01*
X18785181Y23949500D01*
X19214819Y23949500D01*
X19214820Y23949500D01*
X19258722Y23958233D01*
X19308504Y23991496D01*
X19341767Y24041278D01*
X19350500Y24085180D01*
X19350500Y24914820D01*
X19341767Y24958722D01*
X19308504Y25008504D01*
X19287159Y25022766D01*
X19258722Y25041767D01*
X19214820Y25050500D01*
X18785180Y25050500D01*
X18763229Y25046134D01*
X18741277Y25041767D01*
X18691496Y25008505D01*
X18691495Y25008504D01*
X18661529Y24963655D01*
X18614437Y24932189D01*
X18558888Y24943238D01*
X18545546Y24954659D01*
X18541660Y24958882D01*
X18508504Y25008504D01*
X18476034Y25030200D01*
X18470046Y25036707D01*
X18463115Y25055627D01*
X18451922Y25072378D01*
X18450500Y25086815D01*
X18450500Y26783581D01*
X18472174Y26835907D01*
X18474082Y26837581D01*
X18476610Y26840110D01*
X18476613Y26840111D01*
X18560489Y26923987D01*
X18619799Y27026714D01*
X18650499Y27141289D01*
X18650500Y27141289D01*
X18650500Y27259911D01*
X18650499Y27259912D01*
X18650143Y27261239D01*
X18625922Y27351635D01*
X18619800Y27374483D01*
X18619798Y27374488D01*
X18560491Y27477210D01*
X18560490Y27477211D01*
X18560489Y27477213D01*
X18476613Y27561089D01*
X18476610Y27561091D01*
X18476609Y27561092D01*
X18373887Y27620399D01*
X18373882Y27620401D01*
X18259311Y27651100D01*
X18259309Y27651100D01*
X18140691Y27651100D01*
X18140689Y27651100D01*
X18026117Y27620401D01*
X18026112Y27620399D01*
X17923390Y27561092D01*
X17839508Y27477210D01*
X17780201Y27374488D01*
X17780199Y27374483D01*
X17749500Y27259912D01*
X17749500Y27141289D01*
X17780199Y27026718D01*
X17780201Y27026713D01*
X17839508Y26923991D01*
X17839509Y26923990D01*
X17839511Y26923987D01*
X17887259Y26876239D01*
X17926817Y26836681D01*
X17924893Y26834758D01*
X17948866Y26793251D01*
X17949500Y26783581D01*
X17949500Y25086815D01*
X17927826Y25034489D01*
X17916612Y25025286D01*
X17891496Y25008505D01*
X17891495Y25008504D01*
X17861529Y24963655D01*
X17814437Y24932189D01*
X17758888Y24943238D01*
X17745546Y24954659D01*
X17741660Y24958882D01*
X17708504Y25008504D01*
X17676034Y25030200D01*
X17670046Y25036707D01*
X17663115Y25055627D01*
X17651922Y25072378D01*
X17650500Y25086815D01*
X17650500Y25206528D01*
X17650499Y25206530D01*
X17637953Y25236818D01*
X17612364Y25298597D01*
X17612362Y25298599D01*
X17608314Y25304658D01*
X17611359Y25306693D01*
X17594700Y25346913D01*
X17594700Y25726281D01*
X17616374Y25778607D01*
X17618282Y25780281D01*
X17620810Y25782810D01*
X17620813Y25782811D01*
X17704689Y25866687D01*
X17763999Y25969414D01*
X17794699Y26083989D01*
X17794700Y26083989D01*
X17794700Y26202611D01*
X17794699Y26202612D01*
X17764000Y26317183D01*
X17763998Y26317188D01*
X17704691Y26419910D01*
X17704690Y26419911D01*
X17704689Y26419913D01*
X17620813Y26503789D01*
X17620810Y26503791D01*
X17620809Y26503792D01*
X17518087Y26563099D01*
X17518082Y26563101D01*
X17403511Y26593800D01*
X17403509Y26593800D01*
X17284891Y26593800D01*
X17284889Y26593800D01*
X17170317Y26563101D01*
X17170312Y26563099D01*
X17067590Y26503792D01*
X16983708Y26419910D01*
X16924401Y26317188D01*
X16924399Y26317183D01*
X16893700Y26202612D01*
X16893700Y26083989D01*
X16924399Y25969418D01*
X16924401Y25969413D01*
X16983708Y25866691D01*
X16983709Y25866690D01*
X16983711Y25866687D01*
X17035961Y25814437D01*
X17071017Y25779381D01*
X17070765Y25779130D01*
X17072026Y25778607D01*
X17081145Y25756592D01*
X17093066Y25735951D01*
X17093700Y25726281D01*
X17093700Y25597556D01*
X17072026Y25545230D01*
X17019700Y25523556D01*
X16967374Y25545230D01*
X16955614Y25560556D01*
X16910491Y25638710D01*
X16910490Y25638711D01*
X16910489Y25638713D01*
X16826613Y25722589D01*
X16826610Y25722591D01*
X16826609Y25722592D01*
X16723887Y25781899D01*
X16723882Y25781901D01*
X16609311Y25812600D01*
X16609309Y25812600D01*
X16490691Y25812600D01*
X16490689Y25812600D01*
X16376117Y25781901D01*
X16376112Y25781899D01*
X16273390Y25722592D01*
X16189508Y25638710D01*
X16130201Y25535988D01*
X16130200Y25535984D01*
X16125989Y25520269D01*
X16091509Y25475336D01*
X16035357Y25467945D01*
X15990424Y25502425D01*
X15983033Y25520270D01*
X15965800Y25584583D01*
X15965798Y25584588D01*
X15906491Y25687310D01*
X15906490Y25687311D01*
X15906489Y25687313D01*
X15822613Y25771189D01*
X15822610Y25771191D01*
X15822609Y25771192D01*
X15719887Y25830499D01*
X15719882Y25830501D01*
X15605311Y25861200D01*
X15605309Y25861200D01*
X15486691Y25861200D01*
X15486689Y25861200D01*
X15372117Y25830501D01*
X15372112Y25830499D01*
X15269390Y25771192D01*
X15185508Y25687310D01*
X15126201Y25584588D01*
X15126199Y25584583D01*
X15095500Y25470012D01*
X15095500Y25351389D01*
X15126199Y25236818D01*
X15126201Y25236813D01*
X15169684Y25161500D01*
X15177077Y25105348D01*
X15142598Y25060414D01*
X15105598Y25050500D01*
X14785180Y25050500D01*
X14763229Y25046134D01*
X14741277Y25041767D01*
X14691496Y25008505D01*
X14691495Y25008504D01*
X14661529Y24963655D01*
X14614437Y24932189D01*
X14558888Y24943238D01*
X14538471Y24963655D01*
X14508504Y25008504D01*
X14508503Y25008505D01*
X14458722Y25041767D01*
X14414820Y25050500D01*
X13985180Y25050500D01*
X13963229Y25046134D01*
X13941277Y25041767D01*
X13891496Y25008505D01*
X13891495Y25008504D01*
X13861529Y24963655D01*
X13814437Y24932189D01*
X13758888Y24943238D01*
X13738471Y24963655D01*
X13708504Y25008504D01*
X13708503Y25008505D01*
X13658722Y25041767D01*
X13614820Y25050500D01*
X13185180Y25050500D01*
X13163229Y25046134D01*
X13141277Y25041767D01*
X13091496Y25008505D01*
X13091495Y25008504D01*
X13061529Y24963655D01*
X13014437Y24932189D01*
X12958888Y24943238D01*
X12938471Y24963655D01*
X12908504Y25008504D01*
X12908503Y25008505D01*
X12858722Y25041767D01*
X12814820Y25050500D01*
X12385180Y25050500D01*
X12363229Y25046134D01*
X12341277Y25041767D01*
X12291496Y25008505D01*
X12291495Y25008504D01*
X12261529Y24963655D01*
X12214437Y24932189D01*
X12158888Y24943238D01*
X12138471Y24963655D01*
X12108504Y25008504D01*
X12108503Y25008505D01*
X12058722Y25041767D01*
X12014820Y25050500D01*
X11585180Y25050500D01*
X11563229Y25046134D01*
X11541277Y25041767D01*
X11491496Y25008505D01*
X11491495Y25008504D01*
X11458233Y24958723D01*
X11458233Y24958722D01*
X11449500Y24914820D01*
X11449500Y24085180D01*
X11454388Y24060609D01*
X11458233Y24041278D01*
X11488296Y23996284D01*
X11491496Y23991496D01*
X11541278Y23958233D01*
X11585180Y23949500D01*
X11585181Y23949500D01*
X12014819Y23949500D01*
X12014820Y23949500D01*
X12058722Y23958233D01*
X12108504Y23991496D01*
X12138471Y24036345D01*
X12185562Y24067812D01*
X12241111Y24056763D01*
X12261529Y24036345D01*
X12266102Y24029501D01*
X12267250Y24027783D01*
X12278296Y23972234D01*
X12258046Y23934349D01*
X12239511Y23915814D01*
X12180201Y23813088D01*
X12180199Y23813083D01*
X12149500Y23698512D01*
X12149500Y23579889D01*
X12180199Y23465318D01*
X12180201Y23465313D01*
X12239508Y23362591D01*
X12239509Y23362590D01*
X12239511Y23362587D01*
X12323387Y23278711D01*
X12323389Y23278710D01*
X12323390Y23278709D01*
X12389244Y23240688D01*
X12426114Y23219401D01*
X12426115Y23219401D01*
X12426117Y23219400D01*
X12483402Y23204051D01*
X12540688Y23188701D01*
X12540689Y23188700D01*
X12540691Y23188700D01*
X12659311Y23188700D01*
X12659311Y23188701D01*
X12773886Y23219401D01*
X12876613Y23278711D01*
X12960489Y23362587D01*
X13019799Y23465314D01*
X13050499Y23579889D01*
X13050500Y23579889D01*
X13050500Y23698511D01*
X13050499Y23698512D01*
X13049949Y23700563D01*
X13026150Y23789383D01*
X13019800Y23813083D01*
X13019798Y23813088D01*
X12960491Y23915810D01*
X12960490Y23915811D01*
X12960489Y23915813D01*
X12941953Y23934349D01*
X12920280Y23986676D01*
X12932753Y24027788D01*
X12933095Y24028299D01*
X12938473Y24036348D01*
X12985566Y24067813D01*
X13041114Y24056761D01*
X13061529Y24036345D01*
X13091493Y23991499D01*
X13091495Y23991497D01*
X13091496Y23991496D01*
X13141278Y23958233D01*
X13185180Y23949500D01*
X13185181Y23949500D01*
X13614819Y23949500D01*
X13614820Y23949500D01*
X13658722Y23958233D01*
X13708504Y23991496D01*
X13738471Y24036345D01*
X13785562Y24067812D01*
X13841111Y24056763D01*
X13854454Y24045342D01*
X13858337Y24041122D01*
X13891496Y23991496D01*
X13923965Y23969801D01*
X13929954Y23963293D01*
X13936884Y23944374D01*
X13948078Y23927622D01*
X13949500Y23913185D01*
X13949500Y23721319D01*
X13927826Y23668993D01*
X13925917Y23667320D01*
X13839508Y23580910D01*
X13780201Y23478188D01*
X13780199Y23478183D01*
X13749500Y23363612D01*
X13749500Y23244989D01*
X13780199Y23130418D01*
X13780201Y23130413D01*
X13839508Y23027691D01*
X13839509Y23027690D01*
X13839511Y23027687D01*
X13923387Y22943811D01*
X13923393Y22943808D01*
X13924599Y22942882D01*
X13924907Y22942348D01*
X13925500Y22942179D01*
X13926103Y22941096D01*
X13926817Y22940382D01*
X13926613Y22940179D01*
X13938998Y22917942D01*
X13952917Y22893832D01*
X13952757Y22893237D01*
X13953057Y22892698D01*
X13951128Y22887160D01*
X13938258Y22839125D01*
X13937555Y22838224D01*
X13934894Y22834866D01*
X13872794Y22772765D01*
X13856543Y22735960D01*
X13850673Y22728550D01*
X13833565Y22719023D01*
X13819401Y22705497D01*
X13804165Y22702650D01*
X13801192Y22700993D01*
X13798858Y22701658D01*
X13792668Y22700500D01*
X13207332Y22700500D01*
X13155006Y22722174D01*
X13139637Y22744611D01*
X13127206Y22772765D01*
X13047765Y22852206D01*
X13000222Y22873198D01*
X12944991Y22897585D01*
X12944990Y22897586D01*
X12944988Y22897586D01*
X12923659Y22900060D01*
X12919865Y22900500D01*
X12919864Y22900500D01*
X11805136Y22900500D01*
X11780013Y22897586D01*
X11780007Y22897585D01*
X11677234Y22852206D01*
X11597794Y22772766D01*
X11552414Y22669989D01*
X11549500Y22644865D01*
X11549500Y22255137D01*
X11552414Y22230014D01*
X11552415Y22230008D01*
X11565886Y22199500D01*
X11597794Y22127235D01*
X11677235Y22047794D01*
X11780009Y22002415D01*
X11805135Y21999500D01*
X12919864Y21999501D01*
X12944991Y22002415D01*
X13047765Y22047794D01*
X13127206Y22127235D01*
X13139637Y22155390D01*
X13180599Y22194503D01*
X13207332Y22199500D01*
X13792668Y22199500D01*
X13844994Y22177826D01*
X13860363Y22155389D01*
X13872793Y22127236D01*
X13952235Y22047794D01*
X13963784Y22042694D01*
X14002896Y22001731D01*
X14001587Y21945109D01*
X13963784Y21907306D01*
X13952235Y21902207D01*
X13872794Y21822766D01*
X13827414Y21719989D01*
X13824500Y21694865D01*
X13824500Y21305137D01*
X13827414Y21280014D01*
X13827415Y21280008D01*
X13872794Y21177235D01*
X13952235Y21097794D01*
X13963784Y21092694D01*
X14002896Y21051731D01*
X14001587Y20995109D01*
X13963784Y20957306D01*
X13952235Y20952207D01*
X13872793Y20872765D01*
X13860363Y20844611D01*
X13819401Y20805497D01*
X13792668Y20800500D01*
X13207332Y20800500D01*
X13155006Y20822174D01*
X13139637Y20844611D01*
X13127206Y20872765D01*
X13047765Y20952206D01*
X13047763Y20952207D01*
X12944991Y20997585D01*
X12944990Y20997586D01*
X12944988Y20997586D01*
X12923659Y21000060D01*
X12919865Y21000500D01*
X12919864Y21000500D01*
X11805136Y21000500D01*
X11780013Y20997586D01*
X11780007Y20997585D01*
X11677234Y20952206D01*
X11597794Y20872766D01*
X11552414Y20769989D01*
X11549500Y20744865D01*
X11549500Y20560189D01*
X11527826Y20507863D01*
X11475500Y20486189D01*
X11423174Y20507863D01*
X11380562Y20550475D01*
X11294939Y20599910D01*
X11294934Y20599912D01*
X11199437Y20625500D01*
X11199435Y20625500D01*
X11100565Y20625500D01*
X11100563Y20625500D01*
X11005065Y20599912D01*
X11005060Y20599910D01*
X10919437Y20550475D01*
X10849525Y20480563D01*
X10800090Y20394940D01*
X10800088Y20394935D01*
X10774500Y20299438D01*
X10774500Y20200563D01*
X10800088Y20105066D01*
X10800090Y20105061D01*
X10849525Y20019438D01*
X10919438Y19949525D01*
X10982117Y19913337D01*
X10997572Y19904414D01*
X11005062Y19900090D01*
X11005063Y19900090D01*
X11005065Y19900089D01*
X11052813Y19887295D01*
X11100562Y19874501D01*
X11100563Y19874500D01*
X11100565Y19874500D01*
X11199437Y19874500D01*
X11199437Y19874501D01*
X11294938Y19900090D01*
X11380562Y19949525D01*
X11450475Y20019438D01*
X11499910Y20105062D01*
X11513240Y20154814D01*
X11547717Y20199744D01*
X11603870Y20207138D01*
X11637044Y20187985D01*
X11677235Y20147794D01*
X11780009Y20102415D01*
X11805135Y20099500D01*
X12919864Y20099501D01*
X12944991Y20102415D01*
X13047765Y20147794D01*
X13127206Y20227235D01*
X13139637Y20255390D01*
X13180599Y20294503D01*
X13207332Y20299500D01*
X13752420Y20299500D01*
X13804746Y20277826D01*
X13826420Y20225500D01*
X13804746Y20173174D01*
X13789420Y20161414D01*
X13723390Y20123292D01*
X13639508Y20039410D01*
X13580201Y19936688D01*
X13580199Y19936683D01*
X13549500Y19822112D01*
X13549500Y19703489D01*
X13580199Y19588918D01*
X13580201Y19588913D01*
X13610462Y19536500D01*
X13617854Y19480347D01*
X13583376Y19435414D01*
X13546376Y19425500D01*
X13430252Y19425500D01*
X13401010Y19419684D01*
X13371767Y19413867D01*
X13341112Y19393383D01*
X13285564Y19382334D01*
X13258888Y19393383D01*
X13228231Y19413867D01*
X13228233Y19413867D01*
X13198989Y19419684D01*
X13169748Y19425500D01*
X13030252Y19425500D01*
X13001010Y19419684D01*
X12971767Y19413867D01*
X12941112Y19393383D01*
X12885564Y19382334D01*
X12858888Y19393383D01*
X12828231Y19413867D01*
X12828233Y19413867D01*
X12798989Y19419684D01*
X12769748Y19425500D01*
X12630252Y19425500D01*
X12601010Y19419684D01*
X12571767Y19413867D01*
X12541112Y19393383D01*
X12485564Y19382334D01*
X12458888Y19393383D01*
X12428231Y19413867D01*
X12428233Y19413867D01*
X12398989Y19419684D01*
X12369748Y19425500D01*
X12230252Y19425500D01*
X12201010Y19419684D01*
X12171767Y19413867D01*
X12141112Y19393383D01*
X12085564Y19382334D01*
X12058888Y19393383D01*
X12028231Y19413867D01*
X12028233Y19413867D01*
X11998989Y19419684D01*
X11969748Y19425500D01*
X11830252Y19425500D01*
X11801010Y19419684D01*
X11771767Y19413867D01*
X11741112Y19393383D01*
X11685564Y19382334D01*
X11658888Y19393383D01*
X11628231Y19413867D01*
X11628233Y19413867D01*
X11598989Y19419684D01*
X11569748Y19425500D01*
X11430252Y19425500D01*
X11401010Y19419684D01*
X11371767Y19413867D01*
X11305449Y19369553D01*
X11305447Y19369551D01*
X11261133Y19303233D01*
X11257542Y19285180D01*
X11252412Y19259385D01*
X11249500Y19244747D01*
X11249500Y18824500D01*
X11227826Y18772174D01*
X11175500Y18750500D01*
X10991106Y18750500D01*
X10938780Y18772174D01*
X10917106Y18824500D01*
X10927020Y18861500D01*
X10945098Y18892813D01*
X10945099Y18892814D01*
X10975799Y19007389D01*
X10975800Y19007389D01*
X10975800Y19126011D01*
X10975799Y19126012D01*
X10967034Y19158722D01*
X10952108Y19214429D01*
X10945100Y19240583D01*
X10945098Y19240588D01*
X10885791Y19343310D01*
X10885790Y19343311D01*
X10885789Y19343313D01*
X10801913Y19427189D01*
X10801910Y19427191D01*
X10801909Y19427192D01*
X10699187Y19486499D01*
X10699182Y19486501D01*
X10579924Y19518456D01*
X10580569Y19520867D01*
X10546638Y19537623D01*
X10232173Y19852088D01*
X10210499Y19904414D01*
X10210499Y20163373D01*
X10207682Y20187660D01*
X10207682Y20187662D01*
X10163813Y20287016D01*
X10087016Y20363813D01*
X10038969Y20385028D01*
X9999857Y20425990D01*
X10001165Y20482612D01*
X10004766Y20489710D01*
X10043799Y20557314D01*
X10074499Y20671889D01*
X10074500Y20671889D01*
X10074500Y20790511D01*
X10074499Y20790512D01*
X10073620Y20793791D01*
X10053772Y20867865D01*
X10043800Y20905083D01*
X10043798Y20905088D01*
X9984491Y21007810D01*
X9984490Y21007811D01*
X9984489Y21007813D01*
X9900613Y21091689D01*
X9900610Y21091691D01*
X9900609Y21091692D01*
X9797887Y21150999D01*
X9797883Y21151000D01*
X9720376Y21171769D01*
X9675444Y21206248D01*
X9668052Y21262400D01*
X9672770Y21280008D01*
X9699399Y21379389D01*
X9699400Y21379389D01*
X9699400Y21498011D01*
X9699399Y21498012D01*
X9691179Y21528688D01*
X9668699Y21612586D01*
X9651378Y21642587D01*
X9609391Y21715310D01*
X9609390Y21715311D01*
X9609389Y21715313D01*
X9525513Y21799189D01*
X9525510Y21799191D01*
X9525509Y21799192D01*
X9434990Y21851453D01*
X9400511Y21896386D01*
X9404296Y21945430D01*
X9418903Y21978512D01*
X9427730Y21998502D01*
X9430500Y22022377D01*
X9430499Y22285588D01*
X9430707Y22286088D01*
X9442889Y22315499D01*
X9452173Y22337913D01*
X9452174Y22337914D01*
X9482088Y22367827D01*
X9489642Y22370956D01*
X9534413Y22389500D01*
X9715587Y22389500D01*
X9767913Y22367826D01*
X10257826Y21877913D01*
X10279500Y21825587D01*
X10279500Y21562378D01*
X10282269Y21538505D01*
X10282269Y21538503D01*
X10282270Y21538502D01*
X10325384Y21440859D01*
X10400859Y21365384D01*
X10498502Y21322270D01*
X10522377Y21319500D01*
X10977622Y21319501D01*
X11001498Y21322270D01*
X11099141Y21365384D01*
X11174616Y21440859D01*
X11217730Y21538502D01*
X11220500Y21562377D01*
X11220499Y21917622D01*
X11217730Y21941498D01*
X11174616Y22039141D01*
X11099141Y22114616D01*
X11001498Y22157730D01*
X10977623Y22160500D01*
X10977619Y22160500D01*
X10714413Y22160500D01*
X10662087Y22182174D01*
X9991898Y22852363D01*
X9991894Y22852366D01*
X9899828Y22890500D01*
X9891775Y22890500D01*
X9839449Y22912174D01*
X9817775Y22964500D01*
X9827688Y23001499D01*
X9855699Y23050014D01*
X9886399Y23164589D01*
X9886400Y23164589D01*
X9886400Y23283211D01*
X9886399Y23283212D01*
X9873309Y23332063D01*
X9864721Y23364116D01*
X9872113Y23420267D01*
X9917046Y23454746D01*
X9973198Y23447354D01*
X10055062Y23400090D01*
X10055063Y23400090D01*
X10055065Y23400089D01*
X10097995Y23388586D01*
X10150562Y23374501D01*
X10150563Y23374500D01*
X10150565Y23374500D01*
X10249437Y23374500D01*
X10249437Y23374501D01*
X10344938Y23400090D01*
X10430562Y23449525D01*
X10500475Y23519438D01*
X10549910Y23605062D01*
X10575499Y23700563D01*
X10575500Y23700563D01*
X10575500Y23799437D01*
X10575499Y23799438D01*
X10549911Y23894935D01*
X10549909Y23894940D01*
X10523818Y23940131D01*
X10516426Y23996284D01*
X10526376Y24018244D01*
X10541767Y24041278D01*
X10550500Y24085180D01*
X10550500Y24914820D01*
X10541767Y24958722D01*
X10508504Y25008504D01*
X10487159Y25022766D01*
X10458722Y25041767D01*
X10414820Y25050500D01*
X9985180Y25050500D01*
X9963229Y25046134D01*
X9941277Y25041767D01*
X9891496Y25008505D01*
X9891495Y25008504D01*
X9861529Y24963655D01*
X9814437Y24932189D01*
X9758888Y24943238D01*
X9738471Y24963655D01*
X9708504Y25008504D01*
X9708503Y25008505D01*
X9658722Y25041767D01*
X9614820Y25050500D01*
X9185180Y25050500D01*
X9163229Y25046134D01*
X9141277Y25041767D01*
X9091496Y25008505D01*
X9091495Y25008504D01*
X9058233Y24958723D01*
X9058233Y24958722D01*
X9049500Y24914820D01*
X9049500Y24085180D01*
X9054388Y24060609D01*
X9058233Y24041278D01*
X9091495Y23991497D01*
X9091496Y23991496D01*
X9116612Y23974714D01*
X9148078Y23927622D01*
X9149500Y23913185D01*
X9149500Y23605254D01*
X9127826Y23552929D01*
X9075411Y23500514D01*
X9075409Y23500511D01*
X9016101Y23397788D01*
X9016099Y23397783D01*
X8985400Y23283212D01*
X8985400Y23164589D01*
X9016099Y23050018D01*
X9016101Y23050013D01*
X9075408Y22947291D01*
X9075409Y22947290D01*
X9075411Y22947287D01*
X9127826Y22894872D01*
X9149500Y22842547D01*
X9149500Y22794500D01*
X9127826Y22742174D01*
X9075500Y22720500D01*
X8832377Y22720500D01*
X8808504Y22717731D01*
X8710858Y22674616D01*
X8635385Y22599143D01*
X8592270Y22501499D01*
X8589500Y22477620D01*
X8589500Y22022378D01*
X8592269Y21998505D01*
X8592269Y21998503D01*
X8592270Y21998502D01*
X8635384Y21900859D01*
X8710859Y21825384D01*
X8808502Y21782270D01*
X8808504Y21782270D01*
X8808506Y21782269D01*
X8813868Y21780810D01*
X8813429Y21779197D01*
X8857236Y21754800D01*
X8872738Y21700326D01*
X8863317Y21671850D01*
X8829101Y21612588D01*
X8829099Y21612583D01*
X8798400Y21498012D01*
X8797983Y21494843D01*
X8797176Y21493447D01*
X8797144Y21493324D01*
X8797111Y21493333D01*
X8769666Y21445793D01*
X8724616Y21430500D01*
X8272377Y21430500D01*
X8248504Y21427731D01*
X8150858Y21384616D01*
X8075385Y21309143D01*
X8032270Y21211499D01*
X8029500Y21187620D01*
X8029500Y20832378D01*
X8032269Y20808505D01*
X8032269Y20808503D01*
X8032270Y20808502D01*
X8075384Y20710859D01*
X8150859Y20635384D01*
X8248502Y20592270D01*
X8272377Y20589500D01*
X8727622Y20589501D01*
X8751498Y20592270D01*
X8849141Y20635384D01*
X8924616Y20710859D01*
X8958005Y20786480D01*
X8966621Y20794707D01*
X8973372Y20808913D01*
X9058205Y20893746D01*
X9110530Y20915419D01*
X9162856Y20893745D01*
X9184530Y20841419D01*
X9182009Y20822267D01*
X9173500Y20790510D01*
X9173500Y20667041D01*
X9170783Y20667041D01*
X9170721Y20666811D01*
X9173282Y20658256D01*
X9163635Y20640368D01*
X9158374Y20620731D01*
X9151992Y20613454D01*
X9003603Y20465064D01*
X8933134Y20394596D01*
X8933072Y20394502D01*
X8932978Y20394440D01*
X8927982Y20389443D01*
X8926987Y20390438D01*
X8885979Y20363038D01*
X8841655Y20367922D01*
X8751500Y20407730D01*
X8743539Y20408654D01*
X8727623Y20410500D01*
X8727619Y20410500D01*
X8272377Y20410500D01*
X8248504Y20407731D01*
X8201813Y20387115D01*
X8145191Y20385807D01*
X8107837Y20417811D01*
X8100475Y20430562D01*
X8030562Y20500475D01*
X7944939Y20549910D01*
X7944934Y20549912D01*
X7849437Y20575500D01*
X7849435Y20575500D01*
X7750565Y20575500D01*
X7750563Y20575500D01*
X7655065Y20549912D01*
X7655060Y20549910D01*
X7569437Y20500475D01*
X7499525Y20430563D01*
X7450090Y20344940D01*
X7450089Y20344936D01*
X7429146Y20266779D01*
X7426035Y20262726D01*
X7426036Y20257616D01*
X7409178Y20240759D01*
X7394667Y20221847D01*
X7385988Y20217567D01*
X7358388Y20206134D01*
X7330068Y20200500D01*
X7036627Y20200500D01*
X7012340Y20197683D01*
X6912983Y20153813D01*
X6836187Y20077017D01*
X6792318Y19977663D01*
X6789500Y19953370D01*
X6789500Y19586628D01*
X6792317Y19562341D01*
X6792317Y19562339D01*
X6792318Y19562338D01*
X6836187Y19462984D01*
X6912984Y19386187D01*
X7012338Y19342318D01*
X7036627Y19339500D01*
X7463372Y19339501D01*
X7465509Y19339501D01*
X7465509Y19338629D01*
X7475922Y19335011D01*
X7489499Y19336220D01*
X7501621Y19326081D01*
X7516549Y19320894D01*
X7522489Y19308628D01*
X7532944Y19299883D01*
X7533572Y19285740D01*
X7541234Y19269919D01*
X7537971Y19243470D01*
X7536985Y19240326D01*
X7499500Y19149828D01*
X7499500Y19120771D01*
X7496111Y19109962D01*
X7490892Y19103723D01*
X7489467Y19099027D01*
X7490425Y19098630D01*
X7457913Y19020141D01*
X7441879Y18996141D01*
X7437920Y18992181D01*
X7385596Y18970500D01*
X7312377Y18970500D01*
X7288504Y18967731D01*
X7190858Y18924616D01*
X7115385Y18849143D01*
X7072270Y18751499D01*
X7072021Y18749356D01*
X7069748Y18729755D01*
X7069500Y18727620D01*
X7069500Y18272378D01*
X7072269Y18248505D01*
X7072269Y18248503D01*
X7072270Y18248502D01*
X7101772Y18181687D01*
X7115384Y18150859D01*
X7154306Y18111937D01*
X7175980Y18059611D01*
X7166067Y18022613D01*
X7150091Y17994941D01*
X7150088Y17994934D01*
X7124500Y17899438D01*
X7124500Y17800563D01*
X7150088Y17705066D01*
X7150090Y17705061D01*
X7196025Y17625500D01*
X7199525Y17619438D01*
X7269438Y17549525D01*
X7311051Y17525500D01*
X7343060Y17507019D01*
X7355062Y17500090D01*
X7355063Y17500090D01*
X7355065Y17500089D01*
X7401440Y17487663D01*
X7450562Y17474501D01*
X7450563Y17474500D01*
X7450565Y17474500D01*
X7549437Y17474500D01*
X7549437Y17474501D01*
X7644938Y17500090D01*
X7730562Y17549525D01*
X7800475Y17619438D01*
X7849910Y17705062D01*
X7875499Y17800563D01*
X7875500Y17800563D01*
X7875500Y17899437D01*
X7875499Y17899438D01*
X7875348Y17900000D01*
X7849910Y17994938D01*
X7826612Y18035290D01*
X7819219Y18091442D01*
X7838371Y18124615D01*
X7864616Y18150859D01*
X7907730Y18248502D01*
X7910500Y18272377D01*
X7910499Y18727622D01*
X7910358Y18728835D01*
X7910408Y18729192D01*
X7910376Y18729748D01*
X7910486Y18729755D01*
X7915499Y18765672D01*
X7918627Y18773223D01*
X7923872Y18785886D01*
X7933075Y18808103D01*
X7942086Y18829861D01*
X7958128Y18853868D01*
X7962364Y18858103D01*
X7984840Y18912364D01*
X8000501Y18950173D01*
X8000501Y18967901D01*
X8006515Y18997124D01*
X8010382Y19006122D01*
X8012364Y19008103D01*
X8039648Y19073972D01*
X8042315Y19080413D01*
X8042467Y19080765D01*
X8043116Y19081398D01*
X8058131Y19103871D01*
X8062364Y19108103D01*
X8083075Y19158103D01*
X8092086Y19179861D01*
X8108128Y19203868D01*
X8112364Y19208103D01*
X8136220Y19265697D01*
X8142086Y19279860D01*
X8158123Y19303864D01*
X8402087Y19547827D01*
X8454413Y19569501D01*
X8727622Y19569501D01*
X8751498Y19572270D01*
X8791111Y19589762D01*
X8847732Y19591069D01*
X8888695Y19551956D01*
X8895000Y19522066D01*
X8895000Y19269913D01*
X8873326Y19217587D01*
X8647912Y18992174D01*
X8595586Y18970500D01*
X8332377Y18970500D01*
X8308504Y18967731D01*
X8210858Y18924616D01*
X8135385Y18849143D01*
X8092270Y18751499D01*
X8092021Y18749356D01*
X8089748Y18729755D01*
X8089500Y18727620D01*
X8089500Y18272378D01*
X8092269Y18248505D01*
X8092269Y18248503D01*
X8092270Y18248502D01*
X8135384Y18150859D01*
X8210859Y18075384D01*
X8308502Y18032270D01*
X8332377Y18029500D01*
X8687622Y18029501D01*
X8711498Y18032270D01*
X8809141Y18075384D01*
X8884616Y18150859D01*
X8927730Y18248502D01*
X8930500Y18272377D01*
X8930499Y18535589D01*
X8952172Y18587913D01*
X9276988Y18912730D01*
X9276991Y18912731D01*
X9287396Y18923136D01*
X9287397Y18923136D01*
X9357864Y18993603D01*
X9381017Y19049500D01*
X9396001Y19085673D01*
X9396001Y19185328D01*
X9396001Y19191286D01*
X9396000Y19191300D01*
X9396000Y19490120D01*
X9417674Y19542446D01*
X9470000Y19564120D01*
X9499890Y19557815D01*
X9512338Y19552318D01*
X9536627Y19549500D01*
X9795586Y19549501D01*
X9847912Y19527827D01*
X10081557Y19294182D01*
X10103231Y19241856D01*
X10100709Y19222703D01*
X10074800Y19126012D01*
X10074800Y19007389D01*
X10105499Y18892818D01*
X10105501Y18892813D01*
X10167236Y18785886D01*
X10165974Y18785158D01*
X10179200Y18746216D01*
X10179200Y18656571D01*
X10157526Y18604245D01*
X10142201Y18592485D01*
X10069436Y18550474D01*
X9999525Y18480563D01*
X9950090Y18394940D01*
X9950088Y18394935D01*
X9924500Y18299438D01*
X9924500Y18200563D01*
X9950088Y18105066D01*
X9950090Y18105061D01*
X9993715Y18029501D01*
X9999525Y18019438D01*
X10069438Y17949525D01*
X10123336Y17918407D01*
X10154921Y17900171D01*
X10155062Y17900090D01*
X10155063Y17900090D01*
X10155065Y17900089D01*
X10197193Y17888801D01*
X10250562Y17874501D01*
X10250563Y17874500D01*
X10250565Y17874500D01*
X10349437Y17874500D01*
X10349437Y17874501D01*
X10402807Y17888801D01*
X10414418Y17891912D01*
X10461889Y17888801D01*
X10528685Y17861134D01*
X10556772Y17849500D01*
X10556773Y17849500D01*
X11244746Y17849500D01*
X11244748Y17849500D01*
X11303231Y17861133D01*
X11369552Y17905448D01*
X11413867Y17971769D01*
X11425500Y18030252D01*
X11425500Y18169748D01*
X11413867Y18228231D01*
X11393382Y18258888D01*
X11382333Y18314435D01*
X11385955Y18326854D01*
X11388888Y18334387D01*
X11413867Y18371769D01*
X11425500Y18430252D01*
X11425500Y18501836D01*
X11425549Y18503185D01*
X11436810Y18527806D01*
X11447174Y18552826D01*
X11448506Y18553379D01*
X11449107Y18554690D01*
X11474478Y18564136D01*
X11499500Y18574500D01*
X11569746Y18574500D01*
X11569748Y18574500D01*
X11628231Y18586133D01*
X11658887Y18606618D01*
X11714435Y18617667D01*
X11741111Y18606619D01*
X11771769Y18586133D01*
X11830252Y18574500D01*
X11830254Y18574500D01*
X11969746Y18574500D01*
X11969748Y18574500D01*
X12028231Y18586133D01*
X12058887Y18606618D01*
X12114435Y18617667D01*
X12141111Y18606619D01*
X12171769Y18586133D01*
X12230252Y18574500D01*
X12230254Y18574500D01*
X12369746Y18574500D01*
X12369748Y18574500D01*
X12428231Y18586133D01*
X12458887Y18606618D01*
X12514435Y18617667D01*
X12541111Y18606619D01*
X12571769Y18586133D01*
X12630252Y18574500D01*
X12630254Y18574500D01*
X12769746Y18574500D01*
X12769748Y18574500D01*
X12828231Y18586133D01*
X12858887Y18606618D01*
X12914435Y18617667D01*
X12941111Y18606619D01*
X12971769Y18586133D01*
X13030252Y18574500D01*
X13030254Y18574500D01*
X13169746Y18574500D01*
X13169748Y18574500D01*
X13228231Y18586133D01*
X13258887Y18606618D01*
X13314435Y18617667D01*
X13341111Y18606619D01*
X13371769Y18586133D01*
X13430252Y18574500D01*
X13430254Y18574500D01*
X13500500Y18574500D01*
X13552826Y18552826D01*
X13574500Y18500500D01*
X13574500Y18430252D01*
X13575644Y18424500D01*
X13586133Y18371768D01*
X13606617Y18341112D01*
X13617666Y18285564D01*
X13606617Y18258888D01*
X13586133Y18228233D01*
X13579521Y18194991D01*
X13574500Y18169748D01*
X13574500Y18030252D01*
X13579227Y18006487D01*
X13586133Y17971768D01*
X13606617Y17941112D01*
X13617666Y17885564D01*
X13606617Y17858888D01*
X13586133Y17828233D01*
X13586133Y17828231D01*
X13574500Y17769748D01*
X13574500Y17630252D01*
X13576651Y17619438D01*
X13586133Y17571768D01*
X13606617Y17541112D01*
X13617666Y17485564D01*
X13606617Y17458888D01*
X13586133Y17428233D01*
X13574500Y17369747D01*
X13574500Y17230254D01*
X13586133Y17171768D01*
X13606759Y17140900D01*
X13630448Y17105448D01*
X13674560Y17075973D01*
X13696767Y17061134D01*
X13696768Y17061134D01*
X13696769Y17061133D01*
X13755252Y17049500D01*
X13755254Y17049500D01*
X14244746Y17049500D01*
X14244748Y17049500D01*
X14303231Y17061133D01*
X14369552Y17105448D01*
X14413867Y17171769D01*
X14425500Y17230252D01*
X14425500Y17369748D01*
X14425500Y17373383D01*
X14427211Y17373383D01*
X14442077Y17422432D01*
X14492021Y17449142D01*
X14499291Y17449500D01*
X14824181Y17449500D01*
X14876507Y17427826D01*
X14878180Y17425918D01*
X14880710Y17423388D01*
X14880711Y17423387D01*
X14964587Y17339511D01*
X14964589Y17339510D01*
X14964590Y17339509D01*
X14980717Y17330198D01*
X15067314Y17280201D01*
X15067315Y17280201D01*
X15067317Y17280200D01*
X15124602Y17264851D01*
X15181888Y17249501D01*
X15181889Y17249500D01*
X15181891Y17249500D01*
X15300511Y17249500D01*
X15300511Y17249501D01*
X15415086Y17280201D01*
X15517813Y17339511D01*
X15601689Y17423387D01*
X15660999Y17526114D01*
X15691699Y17640689D01*
X15691700Y17640689D01*
X15691700Y17759311D01*
X15691699Y17759312D01*
X15661000Y17873883D01*
X15660998Y17873888D01*
X15601691Y17976610D01*
X15601690Y17976611D01*
X15601689Y17976613D01*
X15517813Y18060489D01*
X15517810Y18060491D01*
X15517809Y18060492D01*
X15499575Y18071019D01*
X15465097Y18115952D01*
X15472489Y18172105D01*
X15499575Y18199191D01*
X15503089Y18201221D01*
X15530613Y18217111D01*
X15614489Y18300987D01*
X15673799Y18403714D01*
X15677321Y18416861D01*
X15711800Y18461794D01*
X15767952Y18469187D01*
X15812886Y18434708D01*
X15822800Y18397708D01*
X15822800Y17900171D01*
X15860934Y17808106D01*
X15860935Y17808104D01*
X15860936Y17808103D01*
X15931403Y17737636D01*
X16023472Y17699500D01*
X16106194Y17699500D01*
X16158520Y17677826D01*
X16180194Y17625500D01*
X16179837Y17618244D01*
X16179500Y17614824D01*
X16179500Y17614820D01*
X16179500Y17285180D01*
X16180491Y17280200D01*
X16188232Y17241280D01*
X16188234Y17241276D01*
X16188347Y17241107D01*
X16188386Y17240909D01*
X16191022Y17234546D01*
X16189755Y17234022D01*
X16199392Y17185557D01*
X16188347Y17158893D01*
X16188234Y17158725D01*
X16188232Y17158721D01*
X16179500Y17114820D01*
X16179500Y16785181D01*
X16188232Y16741280D01*
X16188234Y16741276D01*
X16188347Y16741107D01*
X16188386Y16740909D01*
X16191022Y16734546D01*
X16189755Y16734022D01*
X16199392Y16685557D01*
X16188347Y16658893D01*
X16188234Y16658725D01*
X16188232Y16658721D01*
X16179500Y16614820D01*
X16179500Y16502398D01*
X16157826Y16450072D01*
X16105500Y16428398D01*
X16053174Y16450072D01*
X16033522Y16489923D01*
X16033156Y16489824D01*
X16032661Y16491669D01*
X16032133Y16492741D01*
X16031900Y16494505D01*
X16031900Y16494509D01*
X16001199Y16609086D01*
X16001198Y16609088D01*
X15941891Y16711810D01*
X15941890Y16711811D01*
X15941889Y16711813D01*
X15858013Y16795689D01*
X15858010Y16795691D01*
X15858009Y16795692D01*
X15755287Y16854999D01*
X15755282Y16855001D01*
X15640711Y16885700D01*
X15640709Y16885700D01*
X15522091Y16885700D01*
X15522089Y16885700D01*
X15407517Y16855001D01*
X15407512Y16854999D01*
X15304790Y16795692D01*
X15220908Y16711810D01*
X15161601Y16609088D01*
X15161599Y16609083D01*
X15130900Y16494512D01*
X15130900Y16375889D01*
X15161599Y16261318D01*
X15161601Y16261313D01*
X15220908Y16158591D01*
X15220909Y16158590D01*
X15220911Y16158587D01*
X15304787Y16074711D01*
X15304789Y16074710D01*
X15304790Y16074709D01*
X15407512Y16015402D01*
X15407514Y16015401D01*
X15407515Y16015401D01*
X15407517Y16015400D01*
X15464802Y16000051D01*
X15522088Y15984701D01*
X15522089Y15984700D01*
X15645560Y15984700D01*
X15645560Y15984345D01*
X15646821Y15984867D01*
X15668820Y15975755D01*
X15691824Y15969610D01*
X15699147Y15963193D01*
X15801126Y15861214D01*
X15822800Y15808888D01*
X15822800Y15700171D01*
X15860934Y15608106D01*
X15860937Y15608102D01*
X15931402Y15537637D01*
X15931405Y15537635D01*
X15944693Y15532131D01*
X16023472Y15499500D01*
X16106096Y15499500D01*
X16158422Y15477826D01*
X16177060Y15438401D01*
X16178791Y15438745D01*
X16179500Y15435181D01*
X16179500Y15435180D01*
X16188233Y15391278D01*
X16221496Y15341496D01*
X16271278Y15308233D01*
X16315180Y15299500D01*
X16315181Y15299500D01*
X17794818Y15299500D01*
X17794820Y15299500D01*
X17836064Y15307705D01*
X17891611Y15296657D01*
X17923078Y15249565D01*
X17924500Y15235127D01*
X17924500Y15234232D01*
X17963717Y15087870D01*
X17963721Y15087861D01*
X18027368Y14977622D01*
X18039485Y14956635D01*
X18146635Y14849485D01*
X18277865Y14773719D01*
X18424231Y14734501D01*
X18424232Y14734500D01*
X18424234Y14734500D01*
X18575768Y14734500D01*
X18575768Y14734501D01*
X18722135Y14773719D01*
X18853365Y14849485D01*
X18960515Y14956635D01*
X19036281Y15087865D01*
X19075499Y15234232D01*
X19075500Y15234232D01*
X19075500Y15385768D01*
X19075499Y15385769D01*
X19058488Y15449254D01*
X19036281Y15532135D01*
X18960515Y15663365D01*
X18853365Y15770515D01*
X18802594Y15799828D01*
X18722139Y15846279D01*
X18722130Y15846283D01*
X18575768Y15885500D01*
X18575766Y15885500D01*
X18424234Y15885500D01*
X18424232Y15885500D01*
X18277869Y15846283D01*
X18277860Y15846279D01*
X18146637Y15770517D01*
X18146635Y15770516D01*
X18146635Y15770515D01*
X18056824Y15680705D01*
X18004500Y15659031D01*
X17952174Y15680705D01*
X17930500Y15733031D01*
X17930500Y16064820D01*
X17928532Y16074711D01*
X17921767Y16108722D01*
X17904951Y16133888D01*
X17893902Y16189436D01*
X17896890Y16200165D01*
X17899949Y16208626D01*
X17921767Y16241278D01*
X17930500Y16285180D01*
X17930500Y16293109D01*
X17934719Y16304775D01*
X17948044Y16319379D01*
X17957362Y16336811D01*
X17966475Y16339576D01*
X17972896Y16346612D01*
X17992643Y16347516D01*
X18011559Y16353254D01*
X18024837Y16348988D01*
X18029474Y16349200D01*
X18032352Y16346574D01*
X18041309Y16343696D01*
X18085814Y16318001D01*
X18085815Y16318001D01*
X18085817Y16318000D01*
X18116323Y16309826D01*
X18200388Y16287301D01*
X18200389Y16287300D01*
X18200391Y16287300D01*
X18319011Y16287300D01*
X18319011Y16287301D01*
X18433586Y16318001D01*
X18536313Y16377311D01*
X18620189Y16461187D01*
X18679499Y16563914D01*
X18710199Y16678489D01*
X18710200Y16678489D01*
X18710200Y16797111D01*
X18710199Y16797112D01*
X18679500Y16911683D01*
X18679498Y16911688D01*
X18620191Y17014410D01*
X18620190Y17014411D01*
X18620189Y17014413D01*
X18546026Y17088576D01*
X18524353Y17140900D01*
X18546027Y17193226D01*
X18598353Y17214900D01*
X18851287Y17214900D01*
X18903613Y17193226D01*
X19068692Y17028148D01*
X19090366Y16975822D01*
X19090200Y16973286D01*
X19090200Y16851089D01*
X19120899Y16736518D01*
X19120901Y16736513D01*
X19180208Y16633791D01*
X19180209Y16633790D01*
X19180211Y16633787D01*
X19264087Y16549911D01*
X19264089Y16549910D01*
X19264090Y16549909D01*
X19366812Y16490602D01*
X19366814Y16490601D01*
X19366815Y16490601D01*
X19366817Y16490600D01*
X19420891Y16476111D01*
X19481388Y16459901D01*
X19481389Y16459900D01*
X19481391Y16459900D01*
X19600011Y16459900D01*
X19600011Y16459901D01*
X19714586Y16490601D01*
X19736399Y16503196D01*
X19792551Y16510589D01*
X19837485Y16476111D01*
X19847400Y16439110D01*
X19847400Y13742314D01*
X19825726Y13689988D01*
X18377911Y12242174D01*
X18325585Y12220500D01*
X18062377Y12220500D01*
X18038504Y12217731D01*
X17940858Y12174616D01*
X17865385Y12099143D01*
X17822270Y12001499D01*
X17819500Y11977620D01*
X17819500Y11522378D01*
X17822269Y11498505D01*
X17822269Y11498503D01*
X17822270Y11498502D01*
X17865384Y11400859D01*
X17940859Y11325384D01*
X18038502Y11282270D01*
X18062377Y11279500D01*
X18417622Y11279501D01*
X18441498Y11282270D01*
X18539141Y11325384D01*
X18614616Y11400859D01*
X18657730Y11498502D01*
X18660500Y11522377D01*
X18660499Y11785589D01*
X18682172Y11837913D01*
X18713175Y11868916D01*
X18765500Y11890589D01*
X18817826Y11868915D01*
X18839500Y11816589D01*
X18839500Y11522378D01*
X18842269Y11498505D01*
X18842269Y11498503D01*
X18842270Y11498502D01*
X18885384Y11400859D01*
X18960859Y11325384D01*
X18965389Y11323384D01*
X19004502Y11282423D01*
X19009500Y11255689D01*
X19009500Y9909013D01*
X18987826Y9856687D01*
X18781926Y9650787D01*
X18729600Y9629113D01*
X18677274Y9650787D01*
X18655600Y9703113D01*
X18655600Y9797311D01*
X18655599Y9797312D01*
X18624900Y9911883D01*
X18624898Y9911888D01*
X18565591Y10014610D01*
X18565590Y10014611D01*
X18565589Y10014613D01*
X18481713Y10098489D01*
X18481710Y10098491D01*
X18481709Y10098492D01*
X18378987Y10157799D01*
X18378982Y10157801D01*
X18264411Y10188500D01*
X18264409Y10188500D01*
X18145791Y10188500D01*
X18145789Y10188500D01*
X18031217Y10157801D01*
X18031212Y10157799D01*
X17931499Y10100229D01*
X17875346Y10092837D01*
X17830413Y10127315D01*
X17820499Y10164315D01*
X17820499Y10187623D01*
X17817730Y10211496D01*
X17817730Y10211498D01*
X17774616Y10309141D01*
X17699141Y10384616D01*
X17601498Y10427730D01*
X17577623Y10430500D01*
X17577619Y10430500D01*
X17122377Y10430500D01*
X17098504Y10427731D01*
X17000858Y10384616D01*
X16995117Y10378874D01*
X16942791Y10357200D01*
X14625172Y10357200D01*
X14533105Y10319066D01*
X14462634Y10248595D01*
X14424500Y10156530D01*
X14424500Y10074500D01*
X14402826Y10022174D01*
X14350500Y10000500D01*
X14335180Y10000500D01*
X14313229Y9996134D01*
X14291277Y9991767D01*
X14241496Y9958505D01*
X14241495Y9958504D01*
X14208233Y9908723D01*
X14204898Y9891955D01*
X14199500Y9864820D01*
X14199500Y8985180D01*
X14201887Y8973179D01*
X14208233Y8941278D01*
X14230995Y8907211D01*
X14241496Y8891496D01*
X14291278Y8858233D01*
X14335180Y8849500D01*
X14335181Y8849500D01*
X15014819Y8849500D01*
X15014820Y8849500D01*
X15058722Y8858233D01*
X15058884Y8858342D01*
X15059076Y8858380D01*
X15065456Y8861022D01*
X15065981Y8859754D01*
X15114429Y8869396D01*
X15115354Y8869206D01*
X15129274Y8866254D01*
X15141278Y8858233D01*
X15185180Y8849500D01*
X15208263Y8849500D01*
X15215854Y8847890D01*
X15233287Y8835919D01*
X15252826Y8827826D01*
X15255907Y8820388D01*
X15262544Y8815830D01*
X15266407Y8795039D01*
X15274500Y8775500D01*
X15274500Y8693471D01*
X15291339Y8652818D01*
X15291339Y8596181D01*
X15251290Y8556133D01*
X15235610Y8551587D01*
X15229339Y8550500D01*
X15185180Y8550500D01*
X15141278Y8541767D01*
X15128079Y8532949D01*
X15112638Y8530272D01*
X15099132Y8533308D01*
X15085557Y8530608D01*
X15058893Y8541653D01*
X15058724Y8541766D01*
X15058720Y8541768D01*
X15025720Y8548332D01*
X15014820Y8550500D01*
X14335180Y8550500D01*
X14313229Y8546134D01*
X14291277Y8541767D01*
X14241496Y8508505D01*
X14241491Y8508500D01*
X14240581Y8507137D01*
X14239219Y8506228D01*
X14236342Y8503350D01*
X14235769Y8503923D01*
X14193486Y8475676D01*
X14137938Y8486732D01*
X14126731Y8495930D01*
X12692274Y9930387D01*
X12670600Y9982713D01*
X12670600Y11249312D01*
X14281100Y11249312D01*
X14281100Y11130689D01*
X14311799Y11016118D01*
X14311801Y11016113D01*
X14371108Y10913391D01*
X14371109Y10913390D01*
X14371111Y10913387D01*
X14454987Y10829511D01*
X14454989Y10829510D01*
X14454990Y10829509D01*
X14554130Y10772270D01*
X14557714Y10770201D01*
X14557715Y10770201D01*
X14557717Y10770200D01*
X14615002Y10754851D01*
X14672288Y10739501D01*
X14672289Y10739500D01*
X14672291Y10739500D01*
X14790911Y10739500D01*
X14790911Y10739501D01*
X14905486Y10770201D01*
X15008213Y10829511D01*
X15092089Y10913387D01*
X15092089Y10913388D01*
X15095519Y10916817D01*
X15097442Y10914894D01*
X15138949Y10938866D01*
X15148619Y10939500D01*
X16305689Y10939500D01*
X16358015Y10917826D01*
X16373382Y10895392D01*
X16375384Y10890859D01*
X16450859Y10815384D01*
X16548502Y10772270D01*
X16572377Y10769500D01*
X17027622Y10769501D01*
X17051498Y10772270D01*
X17149141Y10815384D01*
X17224616Y10890859D01*
X17267730Y10988502D01*
X17270500Y11012377D01*
X17270499Y11367622D01*
X17267730Y11391498D01*
X17224616Y11489141D01*
X17149141Y11564616D01*
X17051498Y11607730D01*
X17027623Y11610500D01*
X17027619Y11610500D01*
X16572377Y11610500D01*
X16548504Y11607731D01*
X16450858Y11564616D01*
X16375385Y11489143D01*
X16375384Y11489142D01*
X16375384Y11489141D01*
X16373383Y11484611D01*
X16332423Y11445498D01*
X16305689Y11440500D01*
X15148619Y11440500D01*
X15096293Y11462174D01*
X15094619Y11464083D01*
X15051514Y11507188D01*
X15008213Y11550489D01*
X15008210Y11550491D01*
X15008209Y11550492D01*
X14905487Y11609799D01*
X14905482Y11609801D01*
X14790911Y11640500D01*
X14790909Y11640500D01*
X14672291Y11640500D01*
X14672289Y11640500D01*
X14557717Y11609801D01*
X14557712Y11609799D01*
X14454990Y11550492D01*
X14371108Y11466610D01*
X14311801Y11363888D01*
X14311799Y11363883D01*
X14281100Y11249312D01*
X12670600Y11249312D01*
X12670600Y12896488D01*
X12692274Y12948814D01*
X12744600Y12970488D01*
X12796924Y12948815D01*
X13095175Y12650565D01*
X13391871Y12353869D01*
X13407912Y12329862D01*
X13437635Y12258105D01*
X13437636Y12258103D01*
X13687636Y12008103D01*
X13758103Y11937636D01*
X13829878Y11907907D01*
X13836872Y11904568D01*
X13846288Y11899451D01*
X13858103Y11887636D01*
X13896240Y11871840D01*
X13950173Y11849499D01*
X13967901Y11849499D01*
X13999329Y11842493D01*
X14006707Y11839032D01*
X14008103Y11837636D01*
X14020020Y11832700D01*
X14100173Y11799499D01*
X14100174Y11799499D01*
X14208440Y11799499D01*
X14208448Y11799500D01*
X14349827Y11799500D01*
X14349828Y11799500D01*
X14415359Y11826644D01*
X14448631Y11840425D01*
X14449027Y11839469D01*
X14482101Y11849500D01*
X14499827Y11849500D01*
X14499828Y11849500D01*
X14591897Y11887636D01*
X14646138Y11941879D01*
X14665364Y11955736D01*
X14667695Y11956902D01*
X14741897Y11987636D01*
X14754627Y12000368D01*
X14765367Y12005737D01*
X14767062Y12005858D01*
X14770137Y12007913D01*
X14841897Y12037636D01*
X14841897Y12037637D01*
X14848632Y12040426D01*
X14849028Y12039469D01*
X14882101Y12049500D01*
X14899827Y12049500D01*
X14899828Y12049500D01*
X14991897Y12087636D01*
X15082087Y12177826D01*
X15134413Y12199500D01*
X15399827Y12199500D01*
X15399828Y12199500D01*
X15491897Y12237636D01*
X15496133Y12241873D01*
X15520140Y12257915D01*
X15591897Y12287636D01*
X15646137Y12341878D01*
X15670135Y12357913D01*
X15736211Y12385281D01*
X15792846Y12385280D01*
X15801526Y12380999D01*
X15848516Y12353869D01*
X15855062Y12350090D01*
X15855063Y12350090D01*
X15855065Y12350089D01*
X15879805Y12343460D01*
X15950562Y12324501D01*
X15950563Y12324500D01*
X15950565Y12324500D01*
X16049437Y12324500D01*
X16049437Y12324501D01*
X16144938Y12350090D01*
X16230562Y12399525D01*
X16300475Y12469438D01*
X16349910Y12555062D01*
X16375499Y12650563D01*
X16375500Y12650563D01*
X16375500Y12749437D01*
X16375499Y12749438D01*
X16373176Y12758106D01*
X16352443Y12835486D01*
X16349911Y12844935D01*
X16349909Y12844940D01*
X16330409Y12878714D01*
X16300475Y12930562D01*
X16230562Y13000475D01*
X16230559Y13000477D01*
X16227132Y13003904D01*
X16228189Y13004962D01*
X16202640Y13049229D01*
X16216827Y13102150D01*
X16216764Y13102186D01*
X16216900Y13102424D01*
X16217306Y13103934D01*
X16217308Y13103936D01*
X16219185Y13106384D01*
X16219189Y13106387D01*
X16278499Y13209114D01*
X16309199Y13323689D01*
X16309200Y13323689D01*
X16309200Y13442311D01*
X16309199Y13442312D01*
X16300681Y13474100D01*
X16285687Y13530060D01*
X16278500Y13556883D01*
X16278498Y13556888D01*
X16219191Y13659610D01*
X16219190Y13659611D01*
X16219189Y13659613D01*
X16135313Y13743489D01*
X16135310Y13743491D01*
X16135309Y13743492D01*
X16032587Y13802799D01*
X16032582Y13802801D01*
X15918011Y13833500D01*
X15918009Y13833500D01*
X15799391Y13833500D01*
X15799389Y13833500D01*
X15684817Y13802801D01*
X15684812Y13802799D01*
X15582090Y13743492D01*
X15498208Y13659610D01*
X15438901Y13556888D01*
X15438899Y13556883D01*
X15408199Y13442308D01*
X15408181Y13442171D01*
X15408146Y13442111D01*
X15406944Y13437624D01*
X15405741Y13437947D01*
X15379859Y13393124D01*
X15325151Y13378469D01*
X15304925Y13384140D01*
X15251500Y13407730D01*
X15243539Y13408654D01*
X15227623Y13410500D01*
X15227619Y13410500D01*
X14772377Y13410500D01*
X14748504Y13407731D01*
X14650858Y13364616D01*
X14575385Y13289143D01*
X14532270Y13191499D01*
X14529500Y13167620D01*
X14529500Y13123249D01*
X14523945Y13109841D01*
X14524030Y13095326D01*
X14513537Y13084712D01*
X14507826Y13070923D01*
X14494416Y13065369D01*
X14484213Y13055047D01*
X14471430Y13055848D01*
X14455500Y13049249D01*
X14427577Y13054719D01*
X14422886Y13056631D01*
X14379986Y13081399D01*
X14327741Y13095398D01*
X14323444Y13097149D01*
X14306350Y13114047D01*
X14287280Y13128680D01*
X14286641Y13133530D01*
X14283165Y13136966D01*
X14283025Y13161002D01*
X14279889Y13184833D01*
X14282858Y13189976D01*
X14282837Y13193602D01*
X14287922Y13198747D01*
X14299042Y13218005D01*
X14350473Y13269436D01*
X14350475Y13269438D01*
X14399910Y13355062D01*
X14425499Y13450563D01*
X14425500Y13450563D01*
X14425500Y13549437D01*
X14425499Y13549438D01*
X14423503Y13556886D01*
X14401409Y13639343D01*
X14399911Y13644935D01*
X14399909Y13644940D01*
X14373900Y13689988D01*
X14350475Y13730562D01*
X14280562Y13800475D01*
X14276533Y13802801D01*
X14194939Y13849910D01*
X14194934Y13849912D01*
X14099437Y13875500D01*
X14099435Y13875500D01*
X14000565Y13875500D01*
X14000563Y13875500D01*
X13929599Y13856485D01*
X13873446Y13863877D01*
X13858120Y13875637D01*
X13809142Y13924615D01*
X13809141Y13924616D01*
X13711498Y13967730D01*
X13687623Y13970500D01*
X13687619Y13970500D01*
X13332377Y13970500D01*
X13308503Y13967731D01*
X13308497Y13967729D01*
X13304384Y13965913D01*
X13247762Y13964609D01*
X13206803Y14003726D01*
X13200500Y14033610D01*
X13200500Y14291552D01*
X13200501Y14291561D01*
X13200501Y14399827D01*
X13171439Y14469987D01*
X13169570Y14474500D01*
X13165500Y14484325D01*
X13160495Y14520241D01*
X13160377Y14520247D01*
X13160411Y14520841D01*
X13160362Y14521192D01*
X13160500Y14522377D01*
X13160499Y14977620D01*
X13339500Y14977620D01*
X13339500Y14522378D01*
X13342269Y14498505D01*
X13342269Y14498503D01*
X13342270Y14498502D01*
X13385384Y14400859D01*
X13460859Y14325384D01*
X13558502Y14282270D01*
X13582377Y14279500D01*
X13937622Y14279501D01*
X13961498Y14282270D01*
X14059141Y14325384D01*
X14134616Y14400859D01*
X14177730Y14498502D01*
X14177731Y14498507D01*
X14179190Y14503868D01*
X14180767Y14503439D01*
X14198704Y14540544D01*
X14480853Y14822694D01*
X14533178Y14844367D01*
X14535711Y14844200D01*
X14539291Y14844200D01*
X14657911Y14844200D01*
X14657911Y14844201D01*
X14772486Y14874901D01*
X14875213Y14934211D01*
X14959089Y15018087D01*
X15018399Y15120814D01*
X15049099Y15235389D01*
X15049100Y15235389D01*
X15049100Y15354011D01*
X15049099Y15354012D01*
X15018400Y15468583D01*
X15018398Y15468588D01*
X14959091Y15571310D01*
X14959090Y15571311D01*
X14959089Y15571313D01*
X14875213Y15655189D01*
X14875210Y15655191D01*
X14875209Y15655192D01*
X14772487Y15714499D01*
X14772482Y15714501D01*
X14657911Y15745200D01*
X14657909Y15745200D01*
X14539291Y15745200D01*
X14539289Y15745200D01*
X14424717Y15714501D01*
X14424712Y15714499D01*
X14321990Y15655192D01*
X14238108Y15571310D01*
X14178801Y15468588D01*
X14178799Y15468583D01*
X14148100Y15354012D01*
X14148100Y15248904D01*
X14126426Y15196578D01*
X14074100Y15174904D01*
X14044210Y15181209D01*
X13961500Y15217730D01*
X13953539Y15218654D01*
X13937623Y15220500D01*
X13937619Y15220500D01*
X13582377Y15220500D01*
X13558504Y15217731D01*
X13460858Y15174616D01*
X13385385Y15099143D01*
X13342270Y15001499D01*
X13339500Y14977620D01*
X13160499Y14977620D01*
X13160499Y14977622D01*
X13157730Y15001498D01*
X13114616Y15099141D01*
X13039141Y15174616D01*
X12941498Y15217730D01*
X12917623Y15220500D01*
X12917619Y15220500D01*
X12562377Y15220500D01*
X12538504Y15217731D01*
X12440858Y15174616D01*
X12365385Y15099143D01*
X12322270Y15001499D01*
X12319500Y14977620D01*
X12319500Y14714414D01*
X12297827Y14662089D01*
X12277637Y14641899D01*
X12277636Y14641897D01*
X12239500Y14549830D01*
X12239500Y13994312D01*
X12217826Y13941986D01*
X12195391Y13926618D01*
X12190862Y13924619D01*
X12190859Y13924616D01*
X12115384Y13849141D01*
X12072270Y13751498D01*
X12071205Y13742314D01*
X12069500Y13727620D01*
X12069500Y13272378D01*
X12072269Y13248505D01*
X12072269Y13248503D01*
X12072270Y13248502D01*
X12089660Y13209118D01*
X12115384Y13150859D01*
X12147926Y13118317D01*
X12169600Y13065991D01*
X12169600Y10811512D01*
X12147926Y10759186D01*
X12114753Y10740034D01*
X12013117Y10712801D01*
X12013112Y10712799D01*
X11910390Y10653492D01*
X11826508Y10569610D01*
X11767201Y10466888D01*
X11767199Y10466883D01*
X11736500Y10352312D01*
X11736500Y10233689D01*
X11767199Y10119118D01*
X11767201Y10119114D01*
X11826508Y10016391D01*
X11826509Y10016390D01*
X11826511Y10016387D01*
X11910387Y9932511D01*
X11910389Y9932510D01*
X11910390Y9932509D01*
X12004860Y9877966D01*
X12039339Y9833032D01*
X12031946Y9776880D01*
X12004860Y9749794D01*
X11919437Y9700475D01*
X11849525Y9630563D01*
X11800090Y9544940D01*
X11800088Y9544935D01*
X11774500Y9449438D01*
X11774500Y9350563D01*
X11800088Y9255066D01*
X11800090Y9255061D01*
X11849525Y9169438D01*
X11902826Y9116137D01*
X11924500Y9063811D01*
X11924500Y7486189D01*
X11902826Y7433863D01*
X11849525Y7380563D01*
X11800090Y7294940D01*
X11800086Y7294930D01*
X11798969Y7290760D01*
X11764486Y7245830D01*
X11708333Y7238444D01*
X11675167Y7257594D01*
X11509574Y7423187D01*
X11487900Y7475513D01*
X11487900Y11744935D01*
X11509574Y11797261D01*
X11542745Y11816413D01*
X11572186Y11824301D01*
X11674913Y11883611D01*
X11758789Y11967487D01*
X11818099Y12070214D01*
X11848799Y12184789D01*
X11848800Y12184789D01*
X11848800Y12303411D01*
X11848799Y12303412D01*
X11840683Y12333700D01*
X11826231Y12387636D01*
X11818100Y12417983D01*
X11818098Y12417988D01*
X11758791Y12520710D01*
X11758790Y12520711D01*
X11758789Y12520713D01*
X11674913Y12604589D01*
X11674910Y12604591D01*
X11674909Y12604592D01*
X11572187Y12663899D01*
X11572182Y12663901D01*
X11457611Y12694600D01*
X11457609Y12694600D01*
X11338991Y12694600D01*
X11338989Y12694600D01*
X11224417Y12663901D01*
X11224412Y12663899D01*
X11121690Y12604592D01*
X11037808Y12520710D01*
X10978501Y12417988D01*
X10978500Y12417984D01*
X10970612Y12388546D01*
X10936133Y12343614D01*
X10899134Y12333700D01*
X10641315Y12333700D01*
X10588989Y12355374D01*
X10567315Y12407700D01*
X10577229Y12444700D01*
X10597345Y12479543D01*
X10604199Y12491414D01*
X10634899Y12605989D01*
X10634900Y12605989D01*
X10634900Y12724611D01*
X10634899Y12724612D01*
X10625925Y12758102D01*
X10607277Y12827700D01*
X10604200Y12839183D01*
X10604198Y12839188D01*
X10544891Y12941910D01*
X10544890Y12941911D01*
X10544889Y12941913D01*
X10461013Y13025789D01*
X10461010Y13025791D01*
X10461009Y13025792D01*
X10358287Y13085099D01*
X10358282Y13085101D01*
X10243711Y13115800D01*
X10243709Y13115800D01*
X10125091Y13115800D01*
X10120241Y13115800D01*
X10120241Y13118515D01*
X10073924Y13130931D01*
X10066653Y13137308D01*
X9922173Y13281788D01*
X9900499Y13334114D01*
X9900499Y14444864D01*
X9898570Y14461499D01*
X9897585Y14469991D01*
X9852206Y14572765D01*
X9772765Y14652206D01*
X9669991Y14697585D01*
X9669990Y14697586D01*
X9669988Y14697586D01*
X9648659Y14700060D01*
X9644865Y14700500D01*
X9644864Y14700500D01*
X9255136Y14700500D01*
X9230013Y14697586D01*
X9230007Y14697585D01*
X9127234Y14652206D01*
X9047794Y14572766D01*
X9002414Y14469989D01*
X8999500Y14444865D01*
X8999500Y13180137D01*
X9002414Y13155014D01*
X9002415Y13155008D01*
X9046876Y13054315D01*
X9047794Y13052235D01*
X9127235Y12972794D01*
X9230009Y12927415D01*
X9255135Y12924500D01*
X9540286Y12924501D01*
X9592612Y12902827D01*
X9712392Y12783047D01*
X9734066Y12730721D01*
X9733900Y12728187D01*
X9733900Y12605989D01*
X9764599Y12491418D01*
X9764601Y12491413D01*
X9791571Y12444700D01*
X9798963Y12388547D01*
X9764485Y12343614D01*
X9727485Y12333700D01*
X9534213Y12333700D01*
X9481887Y12355374D01*
X9047698Y12789563D01*
X9047694Y12789566D01*
X8955628Y12827700D01*
X8748407Y12827700D01*
X8696081Y12849374D01*
X8674407Y12901700D01*
X8688372Y12942835D01*
X8687764Y12943186D01*
X8689531Y12946249D01*
X8689704Y12946755D01*
X8690183Y12947382D01*
X8690189Y12947387D01*
X8749499Y13050114D01*
X8780199Y13164689D01*
X8780200Y13164689D01*
X8780200Y13283311D01*
X8780199Y13283312D01*
X8749500Y13397883D01*
X8749498Y13397888D01*
X8690191Y13500610D01*
X8690190Y13500611D01*
X8690189Y13500613D01*
X8606313Y13584489D01*
X8606310Y13584491D01*
X8606309Y13584492D01*
X8503587Y13643799D01*
X8503582Y13643801D01*
X8389011Y13674500D01*
X8389009Y13674500D01*
X8270391Y13674500D01*
X8270389Y13674500D01*
X8155817Y13643801D01*
X8155807Y13643797D01*
X8152455Y13641861D01*
X8133306Y13639343D01*
X8115462Y13631951D01*
X8106219Y13635780D01*
X8096301Y13634475D01*
X8063136Y13653625D01*
X8022173Y13694588D01*
X8000499Y13746914D01*
X8000499Y14444864D01*
X7998570Y14461499D01*
X7997585Y14469991D01*
X7952206Y14572765D01*
X7872765Y14652206D01*
X7769991Y14697585D01*
X7769990Y14697586D01*
X7769988Y14697586D01*
X7748659Y14700060D01*
X7744865Y14700500D01*
X7744864Y14700500D01*
X7355136Y14700500D01*
X7330013Y14697586D01*
X7330007Y14697585D01*
X7227234Y14652206D01*
X7147794Y14572766D01*
X7102414Y14469989D01*
X7099500Y14444865D01*
X7099500Y13964513D01*
X7077826Y13912187D01*
X7025500Y13890513D01*
X6973174Y13912187D01*
X6346698Y14538663D01*
X6346694Y14538666D01*
X6254628Y14576800D01*
X5874500Y14576800D01*
X5822174Y14598474D01*
X5800500Y14650800D01*
X5800499Y15449250D01*
X5800499Y15449254D01*
X5789157Y15506280D01*
X5762969Y15545474D01*
X5750500Y15586583D01*
X5750500Y16274228D01*
X5750499Y16274230D01*
X5745963Y16285180D01*
X5721726Y16343696D01*
X5712365Y16366295D01*
X5712363Y16366298D01*
X5605708Y16472953D01*
X5605655Y16473081D01*
X5605528Y16473134D01*
X5605065Y16474504D01*
X5584034Y16525279D01*
X5584034Y16525534D01*
X5584052Y16530840D01*
X5584200Y16531391D01*
X5584200Y16569748D01*
X10574500Y16569748D01*
X10574500Y16430252D01*
X10575680Y16424321D01*
X10586133Y16371768D01*
X10615608Y16327657D01*
X10630448Y16305448D01*
X10689948Y16265691D01*
X10721413Y16218599D01*
X10712921Y16167164D01*
X10700092Y16144944D01*
X10700088Y16144935D01*
X10674500Y16049438D01*
X10674500Y15950563D01*
X10700088Y15855066D01*
X10700090Y15855061D01*
X10731979Y15799828D01*
X10749525Y15769438D01*
X10819438Y15699525D01*
X10905062Y15650090D01*
X10944653Y15639482D01*
X10989586Y15605005D01*
X10999500Y15568004D01*
X10999500Y15200233D01*
X10977826Y15147907D01*
X10955391Y15132539D01*
X10912984Y15113814D01*
X10836187Y15037017D01*
X10792318Y14937663D01*
X10789500Y14913370D01*
X10789500Y14546628D01*
X10792317Y14522341D01*
X10792317Y14522339D01*
X10792318Y14522338D01*
X10836187Y14422984D01*
X10912984Y14346187D01*
X11012338Y14302318D01*
X11036627Y14299500D01*
X11463372Y14299501D01*
X11487662Y14302318D01*
X11587016Y14346187D01*
X11663813Y14422984D01*
X11707682Y14522338D01*
X11710500Y14546627D01*
X11710499Y14913372D01*
X11707682Y14937662D01*
X11663813Y15037016D01*
X11587016Y15113813D01*
X11587015Y15113814D01*
X11544609Y15132539D01*
X11505497Y15173502D01*
X11500500Y15200233D01*
X11500500Y15500611D01*
X11522174Y15552937D01*
X11549780Y15570360D01*
X11561462Y15574500D01*
X11569748Y15574500D01*
X11628231Y15586133D01*
X11666571Y15611752D01*
X11675280Y15614838D01*
X11695034Y15613808D01*
X11714435Y15617667D01*
X11727890Y15612095D01*
X11731841Y15611888D01*
X11733896Y15609607D01*
X11741111Y15606619D01*
X11771769Y15586133D01*
X11830252Y15574500D01*
X11830254Y15574500D01*
X11969746Y15574500D01*
X11969748Y15574500D01*
X12028231Y15586133D01*
X12058887Y15606618D01*
X12114435Y15617667D01*
X12141111Y15606619D01*
X12171769Y15586133D01*
X12230252Y15574500D01*
X12230254Y15574500D01*
X12369746Y15574500D01*
X12369748Y15574500D01*
X12428231Y15586133D01*
X12458887Y15606618D01*
X12514435Y15617667D01*
X12541111Y15606619D01*
X12571769Y15586133D01*
X12630252Y15574500D01*
X12630254Y15574500D01*
X12769746Y15574500D01*
X12769748Y15574500D01*
X12828231Y15586133D01*
X12858887Y15606618D01*
X12914435Y15617667D01*
X12941111Y15606619D01*
X12971769Y15586133D01*
X13030252Y15574500D01*
X13030254Y15574500D01*
X13169746Y15574500D01*
X13169748Y15574500D01*
X13228231Y15586133D01*
X13294552Y15630448D01*
X13338867Y15696769D01*
X13350500Y15755252D01*
X13350500Y16244748D01*
X13338867Y16303231D01*
X13337835Y16304775D01*
X13316429Y16336811D01*
X13294552Y16369552D01*
X13258887Y16393383D01*
X13228232Y16413867D01*
X13228233Y16413867D01*
X13198989Y16419684D01*
X13169748Y16425500D01*
X13030252Y16425500D01*
X13001010Y16419684D01*
X12971767Y16413867D01*
X12941112Y16393383D01*
X12885564Y16382334D01*
X12858888Y16393383D01*
X12828231Y16413867D01*
X12828233Y16413867D01*
X12798989Y16419684D01*
X12769748Y16425500D01*
X12630252Y16425500D01*
X12601010Y16419684D01*
X12571767Y16413867D01*
X12541112Y16393383D01*
X12485564Y16382334D01*
X12458888Y16393383D01*
X12428231Y16413867D01*
X12428233Y16413867D01*
X12398989Y16419684D01*
X12369748Y16425500D01*
X12230252Y16425500D01*
X12201010Y16419684D01*
X12171767Y16413867D01*
X12141112Y16393383D01*
X12085564Y16382334D01*
X12058888Y16393383D01*
X12028231Y16413867D01*
X12028233Y16413867D01*
X11998989Y16419684D01*
X11969748Y16425500D01*
X11830252Y16425500D01*
X11801010Y16419684D01*
X11771767Y16413867D01*
X11741112Y16393383D01*
X11685564Y16382334D01*
X11658888Y16393383D01*
X11628231Y16413867D01*
X11628233Y16413867D01*
X11598989Y16419684D01*
X11569748Y16425500D01*
X11499500Y16425500D01*
X11447174Y16447174D01*
X11425500Y16499500D01*
X11425500Y16569747D01*
X11425500Y16569748D01*
X13574500Y16569748D01*
X13574500Y16430252D01*
X13575680Y16424321D01*
X13586133Y16371768D01*
X13615608Y16327657D01*
X13630448Y16305448D01*
X13657608Y16287300D01*
X13696767Y16261134D01*
X13696768Y16261134D01*
X13696769Y16261133D01*
X13755252Y16249500D01*
X13755254Y16249500D01*
X14244746Y16249500D01*
X14244748Y16249500D01*
X14303231Y16261133D01*
X14369552Y16305448D01*
X14413867Y16371769D01*
X14425500Y16430252D01*
X14425500Y16569748D01*
X14413867Y16628231D01*
X14369552Y16694552D01*
X14343720Y16711813D01*
X14303232Y16738867D01*
X14303233Y16738867D01*
X14273989Y16744684D01*
X14244748Y16750500D01*
X13755252Y16750500D01*
X13726010Y16744684D01*
X13696767Y16738867D01*
X13630449Y16694553D01*
X13630447Y16694551D01*
X13586133Y16628233D01*
X13586133Y16628231D01*
X13574500Y16569748D01*
X11425500Y16569748D01*
X11423461Y16579998D01*
X11414510Y16625000D01*
X11705000Y16625000D01*
X13295000Y16625000D01*
X13295000Y18375000D01*
X11705000Y18375000D01*
X11705000Y16625000D01*
X11414510Y16625000D01*
X11413867Y16628231D01*
X11369552Y16694552D01*
X11343720Y16711813D01*
X11303232Y16738867D01*
X11303233Y16738867D01*
X11273989Y16744684D01*
X11244748Y16750500D01*
X10755252Y16750500D01*
X10726010Y16744684D01*
X10696767Y16738867D01*
X10630449Y16694553D01*
X10630447Y16694551D01*
X10586133Y16628233D01*
X10586133Y16628231D01*
X10574500Y16569748D01*
X5584200Y16569748D01*
X5584200Y16650009D01*
X5584200Y16650011D01*
X5584199Y16650012D01*
X5581865Y16658721D01*
X5561020Y16736518D01*
X5553500Y16764583D01*
X5553498Y16764588D01*
X5494191Y16867310D01*
X5494190Y16867311D01*
X5494189Y16867313D01*
X5410313Y16951189D01*
X5410310Y16951191D01*
X5410309Y16951192D01*
X5307587Y17010499D01*
X5307582Y17010501D01*
X5193011Y17041200D01*
X5193009Y17041200D01*
X5074391Y17041200D01*
X5069541Y17041200D01*
X5069541Y17043915D01*
X5023224Y17056331D01*
X5015953Y17062708D01*
X4615291Y17463370D01*
X9299500Y17463370D01*
X9299500Y17036628D01*
X9302317Y17012341D01*
X9302317Y17012339D01*
X9302318Y17012338D01*
X9346187Y16912984D01*
X9422984Y16836187D01*
X9522338Y16792318D01*
X9546627Y16789500D01*
X9913372Y16789501D01*
X9937662Y16792318D01*
X10037016Y16836187D01*
X10113813Y16912984D01*
X10157682Y17012338D01*
X10157682Y17012347D01*
X10159142Y17017706D01*
X10161740Y17017000D01*
X10184846Y17058498D01*
X10230804Y17074500D01*
X10654316Y17074500D01*
X10689940Y17063694D01*
X10690035Y17063922D01*
X10692356Y17062961D01*
X10695427Y17062029D01*
X10696767Y17061134D01*
X10696769Y17061133D01*
X10755252Y17049500D01*
X10755254Y17049500D01*
X11244746Y17049500D01*
X11244748Y17049500D01*
X11303231Y17061133D01*
X11369552Y17105448D01*
X11413867Y17171769D01*
X11425500Y17230252D01*
X11425500Y17369748D01*
X11413867Y17428231D01*
X11399894Y17449142D01*
X11388920Y17465566D01*
X11369552Y17494552D01*
X11323236Y17525500D01*
X11303232Y17538867D01*
X11303233Y17538867D01*
X11273989Y17544684D01*
X11244748Y17550500D01*
X10755252Y17550500D01*
X10726010Y17544684D01*
X10696767Y17538867D01*
X10695427Y17537971D01*
X10692356Y17537040D01*
X10690035Y17536078D01*
X10689940Y17536307D01*
X10654316Y17525500D01*
X10191323Y17525500D01*
X10171295Y17528262D01*
X10168862Y17528946D01*
X10124355Y17563973D01*
X10121202Y17570281D01*
X10113813Y17587016D01*
X10037016Y17663813D01*
X9937662Y17707682D01*
X9937663Y17707682D01*
X9932804Y17708246D01*
X9913373Y17710500D01*
X9913369Y17710500D01*
X9546627Y17710500D01*
X9522340Y17707683D01*
X9422983Y17663813D01*
X9346187Y17587017D01*
X9305360Y17494551D01*
X9302318Y17487662D01*
X9299755Y17465566D01*
X9299500Y17463370D01*
X4615291Y17463370D01*
X4422173Y17656488D01*
X4400499Y17708814D01*
X4400499Y18169864D01*
X4397585Y18194987D01*
X4397585Y18194989D01*
X4397585Y18194991D01*
X4352206Y18297765D01*
X4272765Y18377206D01*
X4169991Y18422585D01*
X4169990Y18422586D01*
X4169988Y18422586D01*
X4148659Y18425060D01*
X4144865Y18425500D01*
X4144864Y18425500D01*
X3755136Y18425500D01*
X3730013Y18422586D01*
X3730007Y18422585D01*
X3627234Y18377206D01*
X3547794Y18297766D01*
X3502414Y18194989D01*
X3499500Y18169865D01*
X3499500Y17055137D01*
X3502414Y17030014D01*
X3502415Y17030008D01*
X3529040Y16969709D01*
X3547794Y16927235D01*
X3627235Y16847794D01*
X3730009Y16802415D01*
X3755135Y16799500D01*
X4144864Y16799501D01*
X4169991Y16802415D01*
X4272765Y16847794D01*
X4345229Y16920258D01*
X4397555Y16941932D01*
X4449881Y16920258D01*
X4661692Y16708447D01*
X4683366Y16656121D01*
X4683200Y16653587D01*
X4683200Y16531389D01*
X4713899Y16416818D01*
X4713901Y16416813D01*
X4773208Y16314091D01*
X4773209Y16314090D01*
X4773211Y16314087D01*
X4857087Y16230211D01*
X4857089Y16230210D01*
X4857090Y16230209D01*
X4952714Y16175000D01*
X4959814Y16170901D01*
X4959815Y16170901D01*
X4959817Y16170900D01*
X5005755Y16158591D01*
X5074388Y16140201D01*
X5074389Y16140200D01*
X5175500Y16140200D01*
X5227826Y16118526D01*
X5249500Y16066200D01*
X5249500Y15690757D01*
X5227826Y15638431D01*
X5175500Y15616757D01*
X5161065Y15618179D01*
X5124255Y15625500D01*
X4875750Y15625500D01*
X4818721Y15614158D01*
X4818719Y15614157D01*
X4791110Y15595710D01*
X4735560Y15584662D01*
X4708889Y15595710D01*
X4694977Y15605005D01*
X4681280Y15614157D01*
X4624255Y15625500D01*
X4624253Y15625500D01*
X4375750Y15625500D01*
X4318721Y15614158D01*
X4318718Y15614157D01*
X4254054Y15570951D01*
X4254051Y15570948D01*
X4210843Y15506281D01*
X4199500Y15449254D01*
X4199500Y14650751D01*
X4210842Y14593722D01*
X4210843Y14593719D01*
X4258101Y14522991D01*
X4257583Y14522646D01*
X4267837Y14507302D01*
X4286809Y14461498D01*
X4287636Y14459503D01*
X4752827Y13994312D01*
X5217079Y13530060D01*
X5238753Y13477734D01*
X5217079Y13425408D01*
X5215205Y13423599D01*
X5209041Y13417855D01*
X5200787Y13413089D01*
X5157770Y13370073D01*
X5156801Y13369169D01*
X5131402Y13359682D01*
X5106347Y13349304D01*
X5105054Y13349840D01*
X5103744Y13349350D01*
X5079083Y13360598D01*
X5054024Y13370978D01*
X4989513Y13435489D01*
X4989510Y13435491D01*
X4989509Y13435492D01*
X4886787Y13494799D01*
X4886782Y13494801D01*
X4772211Y13525500D01*
X4772209Y13525500D01*
X4653591Y13525500D01*
X4653589Y13525500D01*
X4539017Y13494801D01*
X4539012Y13494799D01*
X4436290Y13435492D01*
X4352408Y13351610D01*
X4293101Y13248888D01*
X4293099Y13248883D01*
X4262400Y13134312D01*
X4262400Y13015689D01*
X4267713Y12995861D01*
X4264602Y12948391D01*
X4254708Y12924500D01*
X4249500Y12911927D01*
X4249500Y12486583D01*
X4237030Y12445474D01*
X4236514Y12444700D01*
X4210842Y12406279D01*
X4202599Y12364836D01*
X4199500Y12349255D01*
X4199500Y11952282D01*
X4199501Y11592600D01*
X4177827Y11540274D01*
X4125501Y11518600D01*
X3876313Y11518600D01*
X3823987Y11540274D01*
X2671086Y12693175D01*
X2649412Y12745501D01*
X2671086Y12797827D01*
X2723412Y12819501D01*
X2977622Y12819501D01*
X3001498Y12822270D01*
X3099141Y12865384D01*
X3174616Y12940859D01*
X3217730Y13038502D01*
X3220500Y13062377D01*
X3220499Y13417622D01*
X3217730Y13441498D01*
X3174616Y13539141D01*
X3099141Y13614616D01*
X3001498Y13657730D01*
X2977623Y13660500D01*
X2977619Y13660500D01*
X2714435Y13660500D01*
X2714434Y13660501D01*
X2714433Y13660500D01*
X2687176Y13671791D01*
X2662109Y13682174D01*
X2662107Y13682176D01*
X2631108Y13713177D01*
X2609436Y13765503D01*
X2631112Y13817829D01*
X2637462Y13820459D01*
X2683434Y13839501D01*
X2977622Y13839501D01*
X3001498Y13842270D01*
X3099141Y13885384D01*
X3174616Y13960859D01*
X3210677Y14042530D01*
X3251639Y14081641D01*
X3308261Y14080333D01*
X3315236Y14076204D01*
X3315486Y14076636D01*
X3374563Y14042528D01*
X3422414Y14014901D01*
X3422415Y14014901D01*
X3422417Y14014900D01*
X3464119Y14003726D01*
X3536988Y13984201D01*
X3536989Y13984200D01*
X3536991Y13984200D01*
X3655611Y13984200D01*
X3655611Y13984201D01*
X3770186Y14014901D01*
X3872913Y14074211D01*
X3956789Y14158087D01*
X4016099Y14260814D01*
X4046799Y14375389D01*
X4046800Y14375389D01*
X4046800Y14494011D01*
X4046799Y14494012D01*
X4039769Y14520247D01*
X4020083Y14593719D01*
X4016100Y14608583D01*
X4016098Y14608588D01*
X3956791Y14711310D01*
X3956790Y14711311D01*
X3956789Y14711313D01*
X3872913Y14795189D01*
X3872910Y14795191D01*
X3872909Y14795192D01*
X3770187Y14854499D01*
X3770182Y14854501D01*
X3655611Y14885200D01*
X3655609Y14885200D01*
X3536991Y14885200D01*
X3536989Y14885200D01*
X3422417Y14854501D01*
X3422412Y14854499D01*
X3319690Y14795192D01*
X3232381Y14707883D01*
X3230457Y14709807D01*
X3188951Y14685834D01*
X3179281Y14685200D01*
X2974528Y14685200D01*
X2874872Y14685200D01*
X2874871Y14685200D01*
X2867723Y14683778D01*
X2867630Y14684244D01*
X2848805Y14680500D01*
X2522377Y14680500D01*
X2498504Y14677731D01*
X2400858Y14634616D01*
X2325385Y14559143D01*
X2325384Y14559142D01*
X2325384Y14559141D01*
X2317174Y14540547D01*
X2282270Y14461499D01*
X2279500Y14437620D01*
X2279500Y14243475D01*
X2257826Y14191149D01*
X2205500Y14169475D01*
X2153174Y14191149D01*
X2153172Y14191151D01*
X1745422Y14598935D01*
X1743818Y14600542D01*
X1743808Y14600566D01*
X1702463Y14641897D01*
X1702452Y14641908D01*
X1664282Y14680081D01*
X1663850Y14680504D01*
X1663845Y14680515D01*
X1663384Y14680976D01*
X1663308Y14681040D01*
X1497183Y14847110D01*
X1475500Y14899433D01*
X1475500Y15059024D01*
X1497174Y15111350D01*
X1538830Y15132251D01*
X1558625Y15135134D01*
X1671211Y15190174D01*
X1759826Y15278789D01*
X1814866Y15391375D01*
X1825500Y15464364D01*
X1825500Y16035636D01*
X1814866Y16108625D01*
X1759826Y16221211D01*
X1671211Y16309826D01*
X1671210Y16309827D01*
X1558626Y16364866D01*
X1538830Y16367750D01*
X1490176Y16396743D01*
X1475500Y16440977D01*
X1475500Y16636320D01*
X1497174Y16688646D01*
X1512498Y16700405D01*
X1562913Y16729511D01*
X1646789Y16813387D01*
X1646790Y16813390D01*
X1649741Y16817234D01*
X1651428Y16815940D01*
X1690671Y16846061D01*
X1739722Y16842281D01*
X1830009Y16802415D01*
X1855135Y16799500D01*
X2244864Y16799501D01*
X2269991Y16802415D01*
X2372765Y16847794D01*
X2452206Y16927235D01*
X2497585Y17030009D01*
X2500500Y17055135D01*
X2500499Y18169864D01*
X2497585Y18194991D01*
X2452206Y18297765D01*
X2372765Y18377206D01*
X2269991Y18422585D01*
X2269990Y18422586D01*
X2269988Y18422586D01*
X2248659Y18425060D01*
X2244865Y18425500D01*
X2244864Y18425500D01*
X1855136Y18425500D01*
X1830013Y18422586D01*
X1830007Y18422585D01*
X1727234Y18377206D01*
X1663126Y18313097D01*
X1610800Y18291423D01*
X1558474Y18313097D01*
X1536800Y18365423D01*
X1536800Y18989389D01*
X1558473Y19041714D01*
X1631749Y19114990D01*
X1684072Y19136663D01*
X1720836Y19125280D01*
X1720962Y19125564D01*
X1723409Y19124484D01*
X1725891Y19123715D01*
X1727234Y19122795D01*
X1727235Y19122794D01*
X1830009Y19077415D01*
X1855135Y19074500D01*
X2244864Y19074501D01*
X2269991Y19077415D01*
X2372765Y19122794D01*
X2452206Y19202235D01*
X2497585Y19305009D01*
X2500500Y19330135D01*
X2500499Y20256889D01*
X2522172Y20309213D01*
X2748086Y20535126D01*
X2800412Y20556800D01*
X3135172Y20556800D01*
X3234828Y20556800D01*
X3243887Y20556800D01*
X3296213Y20535126D01*
X3477826Y20353514D01*
X3499500Y20301188D01*
X3499500Y19330137D01*
X3502414Y19305014D01*
X3502415Y19305008D01*
X3541015Y19217587D01*
X3547794Y19202235D01*
X3627235Y19122794D01*
X3730009Y19077415D01*
X3755135Y19074500D01*
X4144864Y19074501D01*
X4169991Y19077415D01*
X4272765Y19122794D01*
X4345530Y19195560D01*
X4397855Y19217233D01*
X4450180Y19195560D01*
X4454365Y19191375D01*
X4502826Y19142914D01*
X4524500Y19090588D01*
X4524500Y19050563D01*
X4550088Y18955066D01*
X4550090Y18955061D01*
X4586029Y18892814D01*
X4599525Y18869438D01*
X4669438Y18799525D01*
X4722307Y18769001D01*
X4752640Y18751488D01*
X4755062Y18750090D01*
X4755063Y18750090D01*
X4755065Y18750089D01*
X4770598Y18745927D01*
X4850562Y18724501D01*
X4850563Y18724500D01*
X4850565Y18724500D01*
X4949437Y18724500D01*
X4949437Y18724501D01*
X5044938Y18750090D01*
X5130562Y18799525D01*
X5200475Y18869438D01*
X5237541Y18933640D01*
X5282474Y18968118D01*
X5334126Y18963122D01*
X5391375Y18935134D01*
X5464364Y18924500D01*
X5464370Y18924500D01*
X6035630Y18924500D01*
X6035636Y18924500D01*
X6108625Y18935134D01*
X6221211Y18990174D01*
X6309826Y19078789D01*
X6364866Y19191375D01*
X6375500Y19264364D01*
X6375500Y19785636D01*
X6364866Y19858625D01*
X6309826Y19971211D01*
X6221211Y20059826D01*
X6220898Y20059979D01*
X6161396Y20089068D01*
X6123906Y20131522D01*
X6127416Y20188050D01*
X6165577Y20223915D01*
X6214397Y20244136D01*
X7730965Y21760706D01*
X7783290Y21782379D01*
X7791803Y21781887D01*
X7812377Y21779500D01*
X8167622Y21779501D01*
X8191498Y21782270D01*
X8289141Y21825384D01*
X8364616Y21900859D01*
X8407730Y21998502D01*
X8410500Y22022377D01*
X8410499Y22477622D01*
X8407730Y22501498D01*
X8364616Y22599141D01*
X8289141Y22674616D01*
X8191498Y22717730D01*
X8167623Y22720500D01*
X8167619Y22720500D01*
X7812377Y22720500D01*
X7788504Y22717731D01*
X7690858Y22674616D01*
X7615385Y22599143D01*
X7572270Y22501499D01*
X7569500Y22477620D01*
X7569500Y22338414D01*
X7547826Y22286088D01*
X6021945Y20760208D01*
X5969619Y20738534D01*
X5917294Y20760208D01*
X5860613Y20816889D01*
X5860610Y20816891D01*
X5860609Y20816892D01*
X5757887Y20876199D01*
X5757882Y20876201D01*
X5643311Y20906900D01*
X5643309Y20906900D01*
X5524691Y20906900D01*
X5524689Y20906900D01*
X5410117Y20876201D01*
X5410112Y20876199D01*
X5307390Y20816892D01*
X5223508Y20733010D01*
X5164201Y20630288D01*
X5164200Y20630284D01*
X5157850Y20606587D01*
X5123370Y20561654D01*
X5067218Y20554263D01*
X5034046Y20573415D01*
X4248097Y21359364D01*
X4246468Y21360452D01*
X4223491Y21384984D01*
X4201189Y21423613D01*
X4179009Y21445793D01*
X4117313Y21507489D01*
X4117310Y21507491D01*
X4117309Y21507492D01*
X4014587Y21566799D01*
X4014582Y21566801D01*
X3900011Y21597500D01*
X3900009Y21597500D01*
X3781391Y21597500D01*
X3781389Y21597500D01*
X3666817Y21566801D01*
X3666812Y21566799D01*
X3564090Y21507492D01*
X3564087Y21507490D01*
X3564087Y21507489D01*
X3561824Y21505227D01*
X3560335Y21504610D01*
X3560246Y21504541D01*
X3560227Y21504565D01*
X3509500Y21483553D01*
X3457174Y21505227D01*
X3435500Y21557553D01*
X3435500Y22291617D01*
X3457174Y22343943D01*
X3509500Y22365617D01*
X3539386Y22359313D01*
X3555009Y22352415D01*
X3555011Y22352415D01*
X3555013Y22352414D01*
X3563778Y22351398D01*
X3580135Y22349500D01*
X4631147Y22349501D01*
X4683473Y22327827D01*
X4705147Y22275501D01*
X4683474Y22223176D01*
X4656108Y22195810D01*
X4596801Y22093088D01*
X4596799Y22093083D01*
X4566100Y21978512D01*
X4566100Y21859889D01*
X4596799Y21745318D01*
X4596801Y21745313D01*
X4656108Y21642591D01*
X4656109Y21642590D01*
X4656111Y21642587D01*
X4739987Y21558711D01*
X4739989Y21558710D01*
X4739990Y21558709D01*
X4833811Y21504541D01*
X4842714Y21499401D01*
X4842715Y21499401D01*
X4842717Y21499400D01*
X4900002Y21484051D01*
X4957288Y21468701D01*
X4957289Y21468700D01*
X4957291Y21468700D01*
X5075911Y21468700D01*
X5075911Y21468701D01*
X5190486Y21499401D01*
X5293213Y21558711D01*
X5339511Y21605010D01*
X5391836Y21626683D01*
X5444162Y21605009D01*
X5462984Y21586187D01*
X5562338Y21542318D01*
X5586627Y21539500D01*
X5953372Y21539501D01*
X5977662Y21542318D01*
X6077016Y21586187D01*
X6153813Y21662984D01*
X6197682Y21762338D01*
X6200500Y21786627D01*
X6200499Y22213372D01*
X6197682Y22237662D01*
X6153813Y22337016D01*
X6077016Y22413813D01*
X5977662Y22457682D01*
X5977663Y22457682D01*
X5972804Y22458246D01*
X5953373Y22460500D01*
X5953369Y22460500D01*
X5586627Y22460500D01*
X5562340Y22457683D01*
X5462983Y22413813D01*
X5386187Y22337017D01*
X5380428Y22323974D01*
X5339463Y22284863D01*
X5282841Y22286173D01*
X5275734Y22289781D01*
X5190487Y22338999D01*
X5190482Y22339001D01*
X5075911Y22369700D01*
X5075909Y22369700D01*
X4968291Y22369700D01*
X4915965Y22391374D01*
X4894291Y22443700D01*
X4900596Y22473590D01*
X4902204Y22477234D01*
X4902206Y22477235D01*
X4947585Y22580009D01*
X4950500Y22605135D01*
X4950499Y22994864D01*
X4947585Y23019991D01*
X4902206Y23122765D01*
X4822765Y23202206D01*
X4817916Y23207055D01*
X4820739Y23209879D01*
X4797256Y23246097D01*
X4809073Y23301488D01*
X4856595Y23332300D01*
X4868516Y23333514D01*
X4874576Y23333638D01*
X4875091Y23333500D01*
X4993709Y23333500D01*
X5004093Y23336283D01*
X5013063Y23336466D01*
X5024339Y23332063D01*
X5042890Y23330849D01*
X5118572Y23299500D01*
X5218228Y23299500D01*
X5306386Y23299500D01*
X5358712Y23277826D01*
X5379475Y23237075D01*
X5389353Y23174696D01*
X5389354Y23174694D01*
X5415814Y23122765D01*
X5446950Y23061658D01*
X5536658Y22971950D01*
X5649696Y22914354D01*
X5743481Y22899500D01*
X6756518Y22899501D01*
X6756519Y22899501D01*
X6850304Y22914354D01*
X6850306Y22914355D01*
X6864749Y22921714D01*
X6963342Y22971950D01*
X7053050Y23061658D01*
X7110646Y23174696D01*
X7125500Y23268481D01*
X7125499Y23831518D01*
X7124393Y23838500D01*
X7110646Y23925305D01*
X7110645Y23925307D01*
X7058430Y24027783D01*
X7053050Y24038342D01*
X6963342Y24128050D01*
X6850304Y24185646D01*
X6850302Y24185647D01*
X6850301Y24185647D01*
X6756519Y24200500D01*
X5743480Y24200500D01*
X5649695Y24185647D01*
X5649693Y24185646D01*
X5536657Y24128050D01*
X5446950Y24038343D01*
X5443565Y24031699D01*
X5400495Y23994919D01*
X5344033Y23999365D01*
X5313546Y24028299D01*
X5294892Y24060608D01*
X5294892Y24060609D01*
X5294890Y24060611D01*
X5294889Y24060613D01*
X5211013Y24144489D01*
X5211010Y24144491D01*
X5211009Y24144492D01*
X5108287Y24203799D01*
X5108282Y24203801D01*
X4993711Y24234500D01*
X4993709Y24234500D01*
X4938123Y24234500D01*
X4885797Y24256174D01*
X4864123Y24308500D01*
X4885797Y24360826D01*
X4902206Y24377235D01*
X4947585Y24480009D01*
X4950500Y24505135D01*
X4950499Y24894864D01*
X4947585Y24919991D01*
X4902206Y25022765D01*
X4822765Y25102206D01*
X4719991Y25147585D01*
X4719990Y25147586D01*
X4719988Y25147586D01*
X4694865Y25150500D01*
X4462000Y25150500D01*
X4409674Y25172174D01*
X4388000Y25224500D01*
X4388000Y25556128D01*
X4387999Y25556130D01*
X4385411Y25562377D01*
X4353794Y25638710D01*
X4349865Y25648195D01*
X4349863Y25648198D01*
X4169451Y25828610D01*
X4147777Y25880936D01*
X4169451Y25933262D01*
X4188184Y25946870D01*
X4188342Y25946950D01*
X4278050Y26036658D01*
X4335646Y26149696D01*
X4350500Y26243481D01*
X4350499Y26580589D01*
X4372172Y26632913D01*
X5097286Y27358026D01*
X5149612Y27379700D01*
X5465387Y27379700D01*
X5517713Y27358026D01*
X5777826Y27097913D01*
X5799500Y27045587D01*
X5799500Y26786628D01*
X5802317Y26762341D01*
X5802317Y26762339D01*
X5802318Y26762338D01*
X5846187Y26662984D01*
X5922984Y26586187D01*
X6022338Y26542318D01*
X6046627Y26539500D01*
X6413372Y26539501D01*
X6437662Y26542318D01*
X6537016Y26586187D01*
X6613813Y26662984D01*
X6657682Y26762338D01*
X6660500Y26786627D01*
X6660499Y27045589D01*
X6682172Y27097913D01*
X6786915Y27202656D01*
X6839241Y27224329D01*
X6891567Y27202655D01*
X6910719Y27169482D01*
X6932199Y27089318D01*
X6932201Y27089313D01*
X6991508Y26986591D01*
X6991509Y26986590D01*
X6991511Y26986587D01*
X7075387Y26902711D01*
X7075389Y26902710D01*
X7075390Y26902709D01*
X7178112Y26843402D01*
X7178114Y26843401D01*
X7178115Y26843401D01*
X7178117Y26843400D01*
X7208347Y26835300D01*
X7292688Y26812701D01*
X7292689Y26812700D01*
X7292691Y26812700D01*
X7411311Y26812700D01*
X7411311Y26812701D01*
X7525886Y26843401D01*
X7628613Y26902711D01*
X7628617Y26902716D01*
X7630439Y26904113D01*
X7631565Y26904416D01*
X7632814Y26905136D01*
X7633007Y26904802D01*
X7685143Y26918784D01*
X7734198Y26890476D01*
X7749500Y26845415D01*
X7749500Y26785180D01*
X7756880Y26748078D01*
X7758233Y26741278D01*
X7791495Y26691497D01*
X7791496Y26691496D01*
X7836345Y26661529D01*
X7867811Y26614437D01*
X7856762Y26558888D01*
X7836345Y26538471D01*
X7791496Y26508505D01*
X7791495Y26508504D01*
X7758233Y26458723D01*
X7749500Y26414820D01*
X7749500Y25985180D01*
X7757104Y25946955D01*
X7758233Y25941278D01*
X7785393Y25900629D01*
X7791496Y25891496D01*
X7841278Y25858233D01*
X7885180Y25849500D01*
X7885181Y25849500D01*
X8714819Y25849500D01*
X8714820Y25849500D01*
X8758722Y25858233D01*
X8808504Y25891496D01*
X8841767Y25941278D01*
X8850500Y25985180D01*
X8850500Y26414820D01*
X8841767Y26458722D01*
X8808504Y26508504D01*
X8808503Y26508505D01*
X8808501Y26508507D01*
X8763655Y26538471D01*
X8732188Y26585562D01*
X8743237Y26641111D01*
X8763655Y26661529D01*
X8808501Y26691494D01*
X8808500Y26691494D01*
X8808504Y26691496D01*
X8841767Y26741278D01*
X8850500Y26785180D01*
X8850500Y27214820D01*
X8841767Y27258722D01*
X8808504Y27308504D01*
X8808503Y27308505D01*
X8808501Y27308507D01*
X8763655Y27338471D01*
X8732188Y27385562D01*
X8743237Y27441111D01*
X8763655Y27461529D01*
X8808501Y27491494D01*
X8808500Y27491494D01*
X8808504Y27491496D01*
X8841767Y27541278D01*
X8850500Y27585180D01*
X8850500Y28014820D01*
X8841767Y28058722D01*
X8808504Y28108504D01*
X8808503Y28108505D01*
X8808501Y28108507D01*
X8763655Y28138471D01*
X8732188Y28185562D01*
X8743237Y28241111D01*
X8763655Y28261529D01*
X8808501Y28291494D01*
X8808500Y28291494D01*
X8808504Y28291496D01*
X8841767Y28341278D01*
X8850500Y28385180D01*
X8850500Y28814820D01*
X8841767Y28858722D01*
X8808504Y28908504D01*
X8808503Y28908505D01*
X8808501Y28908507D01*
X8763655Y28938471D01*
X8732188Y28985562D01*
X8743237Y29041111D01*
X8763655Y29061529D01*
X8808501Y29091494D01*
X8808500Y29091494D01*
X8808504Y29091496D01*
X8841767Y29141278D01*
X8850500Y29185180D01*
X8850500Y29614820D01*
X8841767Y29658722D01*
X8808504Y29708504D01*
X8808503Y29708505D01*
X8808501Y29708507D01*
X8763655Y29738471D01*
X8732188Y29785562D01*
X8743237Y29841111D01*
X8754658Y29854454D01*
X8758878Y29858338D01*
X8808504Y29891496D01*
X8830199Y29923966D01*
X8836707Y29929954D01*
X8855626Y29936885D01*
X8872378Y29948078D01*
X8886815Y29949500D01*
X8950172Y29949500D01*
X9012649Y29949500D01*
X9031802Y29946978D01*
X9115688Y29924501D01*
X9115689Y29924500D01*
X9115691Y29924500D01*
X9234311Y29924500D01*
X9234311Y29924501D01*
X9348886Y29955201D01*
X9451613Y30014511D01*
X9535489Y30098387D01*
X9594799Y30201114D01*
X9625499Y30315689D01*
X9625500Y30315689D01*
X9625500Y30434311D01*
X9625499Y30434312D01*
X9618958Y30458722D01*
X9594799Y30548886D01*
X9542143Y30640088D01*
X9535491Y30651610D01*
X9535490Y30651611D01*
X9535489Y30651613D01*
X9451613Y30735489D01*
X9451610Y30735491D01*
X9451609Y30735492D01*
X9348887Y30794799D01*
X9348882Y30794801D01*
X9234311Y30825500D01*
X9234309Y30825500D01*
X9115691Y30825500D01*
X9115689Y30825500D01*
X9001117Y30794801D01*
X9001112Y30794799D01*
X8961500Y30771928D01*
X8905347Y30764535D01*
X8860414Y30799014D01*
X8850500Y30836014D01*
X8850500Y31214820D01*
X8841767Y31258722D01*
X8808504Y31308504D01*
X8808503Y31308505D01*
X8808501Y31308507D01*
X8763655Y31338471D01*
X8732188Y31385562D01*
X8743237Y31441111D01*
X8763655Y31461529D01*
X8808501Y31491494D01*
X8808500Y31491494D01*
X8808504Y31491496D01*
X8841767Y31541278D01*
X8850500Y31585180D01*
X8850500Y32014820D01*
X8841767Y32058722D01*
X8808504Y32108504D01*
X8758722Y32141767D01*
X8714820Y32150500D01*
X7885180Y32150500D01*
X7863229Y32146134D01*
X7841277Y32141767D01*
X7791496Y32108505D01*
X7791495Y32108504D01*
X7774714Y32083388D01*
X7727622Y32051922D01*
X7713185Y32050500D01*
X7593472Y32050500D01*
X7501405Y32012366D01*
X7430934Y31941895D01*
X7392800Y31849830D01*
X7392800Y28547714D01*
X7371126Y28495388D01*
X6357912Y27482174D01*
X6305586Y27460500D01*
X6154413Y27460500D01*
X6102087Y27482174D01*
X5741698Y27842563D01*
X5741694Y27842566D01*
X5649628Y27880700D01*
X5073648Y27880700D01*
X5073640Y27880701D01*
X5065028Y27880701D01*
X4965373Y27880701D01*
X4915832Y27860180D01*
X4873303Y27842565D01*
X4873302Y27842563D01*
X4802835Y27772096D01*
X4422989Y27392252D01*
X4370663Y27370578D01*
X4318337Y27392252D01*
X4304729Y27410982D01*
X4279498Y27460500D01*
X4278050Y27463342D01*
X4188342Y27553050D01*
X4075304Y27610646D01*
X4075302Y27610647D01*
X4075301Y27610647D01*
X3981519Y27625500D01*
X3418480Y27625500D01*
X3324695Y27610647D01*
X3324693Y27610646D01*
X3211657Y27553050D01*
X3121951Y27463344D01*
X3064353Y27350302D01*
X3049500Y27256520D01*
X3049500Y26243481D01*
X3064353Y26149696D01*
X3064354Y26149694D01*
X3120684Y26039143D01*
X3121950Y26036658D01*
X3211658Y25946950D01*
X3324696Y25889354D01*
X3418481Y25874500D01*
X3521000Y25874501D01*
X3573325Y25852827D01*
X3595000Y25800502D01*
X3595000Y25748471D01*
X3633134Y25656406D01*
X3633137Y25656402D01*
X3865326Y25424213D01*
X3887000Y25371887D01*
X3887000Y25224500D01*
X3865326Y25172174D01*
X3813000Y25150500D01*
X3580136Y25150500D01*
X3555013Y25147586D01*
X3555007Y25147585D01*
X3452234Y25102206D01*
X3372794Y25022766D01*
X3327414Y24919989D01*
X3324500Y24894865D01*
X3324500Y24505137D01*
X3327414Y24480014D01*
X3327415Y24480008D01*
X3372796Y24377231D01*
X3373715Y24375889D01*
X3374013Y24374474D01*
X3375564Y24370962D01*
X3374822Y24370635D01*
X3385400Y24320470D01*
X3364987Y24281749D01*
X3176769Y24093531D01*
X3124443Y24071857D01*
X3072117Y24093531D01*
X3057067Y24121691D01*
X3055389Y24120995D01*
X3014465Y24219795D01*
X3014463Y24219798D01*
X2697173Y24537088D01*
X2675499Y24589414D01*
X2675499Y24894864D01*
X2673714Y24910257D01*
X2672585Y24919991D01*
X2627206Y25022765D01*
X2547765Y25102206D01*
X2444991Y25147585D01*
X2444990Y25147586D01*
X2444988Y25147586D01*
X2423659Y25150060D01*
X2419865Y25150500D01*
X2419864Y25150500D01*
X1305136Y25150500D01*
X1280013Y25147586D01*
X1280007Y25147585D01*
X1177234Y25102206D01*
X1097794Y25022766D01*
X1052414Y24919989D01*
X1049500Y24894865D01*
X1049500Y24505137D01*
X1052414Y24480014D01*
X1052415Y24480008D01*
X1072835Y24433762D01*
X1097794Y24377235D01*
X1177235Y24297794D01*
X1280009Y24252415D01*
X1305135Y24249500D01*
X2245586Y24249501D01*
X2297912Y24227827D01*
X2529926Y23995813D01*
X2551600Y23943487D01*
X2551600Y23515313D01*
X2529926Y23462987D01*
X2339112Y23272174D01*
X2286786Y23250500D01*
X1305136Y23250500D01*
X1280013Y23247586D01*
X1280007Y23247585D01*
X1177234Y23202206D01*
X1097794Y23122766D01*
X1052414Y23019989D01*
X1049500Y22994865D01*
X1049500Y22605137D01*
X1052414Y22580014D01*
X1052415Y22580009D01*
X1097794Y22477235D01*
X1177235Y22397794D01*
X1280009Y22352415D01*
X1305135Y22349500D01*
X1650500Y22349501D01*
X1702826Y22327827D01*
X1724500Y22275501D01*
X1724500Y21771119D01*
X1702826Y21718793D01*
X1700917Y21717120D01*
X1614508Y21630710D01*
X1555201Y21527988D01*
X1555199Y21527983D01*
X1524500Y21413412D01*
X1524500Y21294789D01*
X1555199Y21180218D01*
X1555201Y21180213D01*
X1614508Y21077491D01*
X1614509Y21077490D01*
X1614511Y21077487D01*
X1698387Y20993611D01*
X1698389Y20993610D01*
X1698390Y20993609D01*
X1775315Y20949196D01*
X1801114Y20934301D01*
X1801115Y20934301D01*
X1801117Y20934300D01*
X1858402Y20918951D01*
X1915688Y20903601D01*
X1915689Y20903600D01*
X1915691Y20903600D01*
X2034311Y20903600D01*
X2034311Y20903601D01*
X2148886Y20934301D01*
X2251613Y20993611D01*
X2335489Y21077487D01*
X2394799Y21180214D01*
X2425499Y21294789D01*
X2425500Y21294789D01*
X2425500Y21413411D01*
X2425499Y21413412D01*
X2394800Y21527983D01*
X2394798Y21527988D01*
X2335491Y21630710D01*
X2335490Y21630711D01*
X2335489Y21630713D01*
X2251613Y21714589D01*
X2251612Y21714590D01*
X2248184Y21718018D01*
X2250105Y21719940D01*
X2226133Y21761460D01*
X2225500Y21771119D01*
X2225500Y22275501D01*
X2247174Y22327827D01*
X2299500Y22349501D01*
X2419863Y22349501D01*
X2419864Y22349501D01*
X2444991Y22352415D01*
X2547765Y22397794D01*
X2627206Y22477235D01*
X2672585Y22580009D01*
X2675500Y22605135D01*
X2675499Y22869389D01*
X2697172Y22921713D01*
X2808174Y23032714D01*
X2860500Y23054388D01*
X2912826Y23032714D01*
X2934500Y22980388D01*
X2934500Y21131800D01*
X2912826Y21079474D01*
X2860500Y21057800D01*
X2724448Y21057800D01*
X2724440Y21057801D01*
X2715828Y21057801D01*
X2616173Y21057801D01*
X2568853Y21038200D01*
X2524103Y21019665D01*
X2524102Y21019663D01*
X2453635Y20949196D01*
X2226612Y20722174D01*
X2174286Y20700500D01*
X1855136Y20700500D01*
X1830013Y20697586D01*
X1830007Y20697585D01*
X1727234Y20652206D01*
X1647794Y20572766D01*
X1602414Y20469989D01*
X1599500Y20444865D01*
X1599500Y19821914D01*
X1577826Y19769588D01*
X1073937Y19265699D01*
X1073936Y19265697D01*
X1035800Y19173630D01*
X1035800Y17507019D01*
X1014126Y17454693D01*
X1012217Y17453020D01*
X925808Y17366610D01*
X866501Y17263888D01*
X866499Y17263883D01*
X835800Y17149312D01*
X835800Y17030689D01*
X866499Y16916118D01*
X866501Y16916113D01*
X925808Y16813391D01*
X925809Y16813390D01*
X925811Y16813387D01*
X952826Y16786372D01*
X974500Y16734047D01*
X974500Y16440977D01*
X952826Y16388651D01*
X911170Y16367750D01*
X891374Y16364866D01*
X891373Y16364866D01*
X778789Y16309827D01*
X690173Y16221211D01*
X635134Y16108627D01*
X635134Y16108626D01*
X624500Y16035641D01*
X624500Y15464360D01*
X635134Y15391375D01*
X635134Y15391374D01*
X690173Y15278790D01*
X690174Y15278789D01*
X778789Y15190174D01*
X891375Y15135134D01*
X911169Y15132251D01*
X959822Y15103260D01*
X974500Y15059024D01*
X974500Y14814808D01*
X974491Y14814786D01*
X974500Y14762364D01*
X974500Y14715151D01*
X974507Y14715132D01*
X974508Y14715131D01*
X977512Y14707883D01*
X993042Y14670407D01*
X993044Y14670395D01*
X993047Y14670395D01*
X1012635Y14623105D01*
X1012658Y14623071D01*
X1012659Y14623070D01*
X1012660Y14623068D01*
X1037003Y14598733D01*
X1045900Y14589839D01*
X1088597Y14547142D01*
X1088668Y14547084D01*
X1119565Y14516197D01*
X1141248Y14463875D01*
X1119582Y14411546D01*
X1119574Y14411537D01*
X771503Y14063464D01*
X701034Y13992995D01*
X662900Y13900930D01*
X662900Y13026771D01*
X701034Y12934706D01*
X701036Y12934703D01*
X860897Y12774842D01*
X1007826Y12627914D01*
X1029500Y12575588D01*
X1029500Y12312378D01*
X1032269Y12288505D01*
X1032269Y12288503D01*
X1032270Y12288502D01*
X1075384Y12190859D01*
X1150859Y12115384D01*
X1248502Y12072270D01*
X1272377Y12069500D01*
X1727622Y12069501D01*
X1751498Y12072270D01*
X1849141Y12115384D01*
X1924616Y12190859D01*
X1967730Y12288502D01*
X1970500Y12312377D01*
X1970499Y12506590D01*
X1992173Y12558914D01*
X2044499Y12580588D01*
X2096825Y12558914D01*
X3600003Y11055736D01*
X3692072Y11017600D01*
X3692073Y11017600D01*
X5336727Y11017600D01*
X5336728Y11017600D01*
X5428797Y11055736D01*
X5631488Y11258430D01*
X5631491Y11258431D01*
X5641896Y11268836D01*
X5641897Y11268836D01*
X5712364Y11339303D01*
X5716074Y11348262D01*
X5756121Y11388311D01*
X5812758Y11388313D01*
X5812762Y11388311D01*
X5818718Y11385844D01*
X5818720Y11385843D01*
X5875745Y11374500D01*
X6124254Y11374501D01*
X6181280Y11385843D01*
X6245948Y11429052D01*
X6289157Y11493720D01*
X6300500Y11550745D01*
X6300499Y12349254D01*
X6289694Y12403581D01*
X6300744Y12459128D01*
X6347837Y12490593D01*
X6403385Y12479543D01*
X6414598Y12470341D01*
X6624026Y12260914D01*
X6645700Y12208588D01*
X6645700Y11140780D01*
X6624026Y11088454D01*
X6571700Y11066780D01*
X6534701Y11076694D01*
X6513391Y11088997D01*
X6513382Y11089001D01*
X6398811Y11119700D01*
X6398809Y11119700D01*
X6280191Y11119700D01*
X6280189Y11119700D01*
X6165617Y11089001D01*
X6165612Y11088999D01*
X6062890Y11029692D01*
X5979008Y10945810D01*
X5919701Y10843088D01*
X5919699Y10843083D01*
X5889000Y10728512D01*
X5889000Y10605041D01*
X5886298Y10605041D01*
X5873838Y10558685D01*
X5867491Y10551454D01*
X5583103Y10267064D01*
X5512635Y10196596D01*
X5500486Y10167265D01*
X5460437Y10127217D01*
X5442789Y10122357D01*
X5391374Y10114866D01*
X5391373Y10114866D01*
X5278789Y10059827D01*
X5190173Y9971211D01*
X5135133Y9858625D01*
X5133438Y9853136D01*
X5130131Y9854158D01*
X5106893Y9815171D01*
X5062666Y9800500D01*
X3837569Y9800500D01*
X3785243Y9822174D01*
X3764991Y9860065D01*
X3759680Y9886767D01*
X3749999Y9901255D01*
X3718459Y9948459D01*
X3713068Y9952061D01*
X3656769Y9989679D01*
X3646272Y9991767D01*
X3602369Y10000500D01*
X3602367Y10000500D01*
X3397636Y10000500D01*
X3343229Y9989679D01*
X3291111Y9954855D01*
X3235562Y9943806D01*
X3208889Y9954855D01*
X3156770Y9989679D01*
X3138635Y9993286D01*
X3102369Y10000500D01*
X3102367Y10000500D01*
X2993863Y10000500D01*
X2941537Y10022174D01*
X2919863Y10074500D01*
X2941537Y10126826D01*
X2963967Y10142192D01*
X3039141Y10175384D01*
X3114616Y10250859D01*
X3157730Y10348502D01*
X3160500Y10372377D01*
X3160499Y10827622D01*
X3157730Y10851498D01*
X3114616Y10949141D01*
X3039141Y11024616D01*
X2941498Y11067730D01*
X2917623Y11070500D01*
X2917619Y11070500D01*
X2783913Y11070500D01*
X2731587Y11092174D01*
X2709913Y11144500D01*
X2712435Y11163653D01*
X2737096Y11255689D01*
X2741999Y11273989D01*
X2742000Y11273989D01*
X2742000Y11392611D01*
X2741999Y11392612D01*
X2711300Y11507183D01*
X2711298Y11507188D01*
X2651991Y11609910D01*
X2651990Y11609911D01*
X2651989Y11609913D01*
X2568113Y11693789D01*
X2568110Y11693791D01*
X2568109Y11693792D01*
X2465387Y11753099D01*
X2465382Y11753101D01*
X2350811Y11783800D01*
X2350809Y11783800D01*
X2232191Y11783800D01*
X2232189Y11783800D01*
X2117617Y11753101D01*
X2117612Y11753099D01*
X2014890Y11693792D01*
X1931008Y11609910D01*
X1871701Y11507188D01*
X1871699Y11507183D01*
X1841000Y11392612D01*
X1841000Y11273989D01*
X1871699Y11159418D01*
X1871701Y11159413D01*
X1931008Y11056691D01*
X1931009Y11056690D01*
X1931011Y11056687D01*
X2014887Y10972811D01*
X2033693Y10961954D01*
X2041531Y10957428D01*
X2072897Y10921663D01*
X2078669Y10907730D01*
X2079136Y10906603D01*
X2213469Y10772271D01*
X2297826Y10687914D01*
X2319500Y10635588D01*
X2319500Y10372378D01*
X2322269Y10348505D01*
X2322269Y10348503D01*
X2322270Y10348502D01*
X2365384Y10250859D01*
X2440859Y10175384D01*
X2516025Y10142195D01*
X2555138Y10101232D01*
X2553830Y10044610D01*
X2512867Y10005497D01*
X2486136Y10000500D01*
X2397636Y10000500D01*
X2336201Y9988281D01*
X2280653Y9999333D01*
X2257053Y10034653D01*
X2253290Y10033094D01*
X2228543Y10092837D01*
X2217659Y10119114D01*
X2212364Y10131897D01*
X2141897Y10202364D01*
X2141896Y10202365D01*
X2137682Y10206579D01*
X2137675Y10206585D01*
X1992173Y10352087D01*
X1970499Y10404413D01*
X1970499Y10667623D01*
X1969576Y10675581D01*
X1967730Y10691498D01*
X1924616Y10789141D01*
X1849141Y10864616D01*
X1751498Y10907730D01*
X1727623Y10910500D01*
X1727619Y10910500D01*
X1272377Y10910500D01*
X1248504Y10907731D01*
X1150858Y10864616D01*
X1075385Y10789143D01*
X1032270Y10691499D01*
X1029500Y10667620D01*
X1029500Y10312378D01*
X1032269Y10288505D01*
X1075384Y10190859D01*
X1150859Y10115384D01*
X1160280Y10111224D01*
X1199394Y10070263D01*
X1198087Y10013641D01*
X1157126Y9974527D01*
X1154843Y9973782D01*
X1152712Y9972899D01*
X1049990Y9913592D01*
X966108Y9829710D01*
X906801Y9726988D01*
X906799Y9726983D01*
X876100Y9612412D01*
X876100Y9493789D01*
X906799Y9379218D01*
X906801Y9379213D01*
X966108Y9276491D01*
X966109Y9276490D01*
X966111Y9276487D01*
X983057Y9259541D01*
X991247Y9251351D01*
X1012920Y9199025D01*
X991245Y9146699D01*
X980033Y9137498D01*
X951542Y9118461D01*
X951540Y9118459D01*
X910321Y9056770D01*
X899500Y9002368D01*
X899500Y8797637D01*
X910321Y8743230D01*
X945145Y8691111D01*
X947460Y8679469D01*
X954820Y8670150D01*
X952383Y8654721D01*
X956194Y8635562D01*
X948213Y8613899D01*
X946775Y8611328D01*
X910321Y8556769D01*
X907025Y8540201D01*
X901323Y8529997D01*
X887569Y8519135D01*
X877833Y8504566D01*
X866191Y8502252D01*
X856876Y8494894D01*
X839470Y8496939D01*
X822283Y8493521D01*
X801291Y8501423D01*
X800625Y8501501D01*
X800431Y8501747D01*
X799726Y8502012D01*
X757487Y8526399D01*
X757482Y8526401D01*
X642911Y8557100D01*
X642909Y8557100D01*
X524291Y8557100D01*
X524289Y8557100D01*
X409717Y8526401D01*
X409712Y8526399D01*
X361500Y8498563D01*
X305347Y8491171D01*
X260414Y8525649D01*
X250500Y8562649D01*
X250500Y30109107D01*
X272174Y30161433D01*
X324500Y30183107D01*
X376826Y30161433D01*
X394573Y30132893D01*
X412614Y30079745D01*
X612211Y29675003D01*
X612217Y29674992D01*
X856671Y29309141D01*
X862930Y29299774D01*
X1160481Y28960482D01*
X1499773Y28662931D01*
X1605525Y28592270D01*
X1874990Y28412219D01*
X1874995Y28412216D01*
X1875000Y28412213D01*
X2279742Y28212616D01*
X2707074Y28067556D01*
X2707078Y28067556D01*
X2707082Y28067554D01*
X2928379Y28023536D01*
X3149684Y27979516D01*
X3600000Y27950000D01*
X4050315Y27979516D01*
X4407178Y28050500D01*
X4492916Y28067554D01*
X4492917Y28067555D01*
X4492925Y28067556D01*
X4920257Y28212616D01*
X5324999Y28412213D01*
X5700226Y28662931D01*
X6039518Y28960482D01*
X6337069Y29299774D01*
X6587787Y29675001D01*
X6787384Y30079743D01*
X6932444Y30507075D01*
X6932729Y30508505D01*
X6969127Y30691496D01*
X7020484Y30949685D01*
X7050000Y31400000D01*
X7020484Y31850316D01*
X6949499Y32207185D01*
X6932446Y32292918D01*
X6932444Y32292922D01*
X6932444Y32292926D01*
X6787384Y32720258D01*
X6587787Y33125001D01*
X6587784Y33125006D01*
X6587781Y33125011D01*
X6337070Y33500225D01*
X6337069Y33500227D01*
X6039518Y33839519D01*
X5700226Y34137070D01*
X5698553Y34138188D01*
X5325008Y34387783D01*
X5324997Y34387789D01*
X4920255Y34587386D01*
X4867107Y34605427D01*
X4824524Y34642771D01*
X4820820Y34699286D01*
X4858164Y34741869D01*
X4890893Y34749500D01*
X24675500Y34749500D01*
X24727826Y34727826D01*
G37*
%TD.AperFunction*%
%TA.AperFunction,Conductor*%
G36*
X12624177Y9289962D02*
G01*
X13821126Y8093013D01*
X13842800Y8040687D01*
X13842800Y7925171D01*
X13880934Y7833106D01*
X13880937Y7833102D01*
X13951402Y7762637D01*
X13951405Y7762635D01*
X13984659Y7748861D01*
X14043472Y7724500D01*
X14125500Y7724500D01*
X14177826Y7702826D01*
X14199500Y7650500D01*
X14199500Y7535180D01*
X14203437Y7515389D01*
X14208233Y7491278D01*
X14239247Y7444861D01*
X14241496Y7441496D01*
X14291278Y7408233D01*
X14335180Y7399500D01*
X14335181Y7399500D01*
X15014819Y7399500D01*
X15014820Y7399500D01*
X15058722Y7408233D01*
X15058884Y7408342D01*
X15059076Y7408380D01*
X15065456Y7411022D01*
X15065981Y7409754D01*
X15114429Y7419396D01*
X15115354Y7419206D01*
X15129274Y7416254D01*
X15141278Y7408233D01*
X15185180Y7399500D01*
X15208263Y7399500D01*
X15215854Y7397890D01*
X15233287Y7385919D01*
X15252826Y7377826D01*
X15255907Y7370388D01*
X15262544Y7365830D01*
X15266407Y7345039D01*
X15274500Y7325500D01*
X15274500Y7243473D01*
X15274499Y7243473D01*
X15278110Y7234756D01*
X15278107Y7178119D01*
X15238056Y7138072D01*
X15181419Y7138075D01*
X15173203Y7142468D01*
X15078728Y7181600D01*
X14321528Y7181600D01*
X14221872Y7181600D01*
X14129805Y7143466D01*
X13794934Y6808595D01*
X13756800Y6716530D01*
X13756800Y6270113D01*
X13735126Y6217787D01*
X13682213Y6164874D01*
X13629887Y6143200D01*
X12820212Y6143200D01*
X12767886Y6164874D01*
X12257592Y6675168D01*
X12235918Y6727494D01*
X12257592Y6779820D01*
X12290765Y6798972D01*
X12294938Y6800090D01*
X12380562Y6849525D01*
X12450475Y6919438D01*
X12499910Y7005062D01*
X12525499Y7100563D01*
X12525500Y7100563D01*
X12525500Y7199437D01*
X12525499Y7199438D01*
X12525214Y7200500D01*
X12501177Y7290211D01*
X12499911Y7294935D01*
X12499909Y7294940D01*
X12470984Y7345039D01*
X12450475Y7380562D01*
X12397174Y7433863D01*
X12375500Y7486189D01*
X12375500Y9063811D01*
X12397174Y9116137D01*
X12422412Y9141375D01*
X12450475Y9169438D01*
X12499910Y9255062D01*
X12500372Y9256789D01*
X12500921Y9257504D01*
X12501765Y9259541D01*
X12502310Y9259315D01*
X12534850Y9301721D01*
X12591003Y9309115D01*
X12624177Y9289962D01*
G37*
%TD.AperFunction*%
%TA.AperFunction,Conductor*%
G36*
X22286825Y24618914D02*
G01*
X22317826Y24587913D01*
X22339500Y24535587D01*
X22339500Y24272378D01*
X22342269Y24248505D01*
X22342269Y24248503D01*
X22342270Y24248502D01*
X22385384Y24150859D01*
X22460859Y24075384D01*
X22558502Y24032270D01*
X22582377Y24029500D01*
X22937622Y24029501D01*
X22961498Y24032270D01*
X22969608Y24035852D01*
X23026228Y24037162D01*
X23067193Y23998052D01*
X23073500Y23968158D01*
X23073500Y22441213D01*
X23051826Y22388887D01*
X18973175Y18310237D01*
X18920849Y18288563D01*
X18868523Y18310237D01*
X18846849Y18362563D01*
X18849370Y18381713D01*
X18854000Y18398991D01*
X18854000Y18517609D01*
X18854000Y18517611D01*
X18853999Y18517612D01*
X18849182Y18535588D01*
X18830150Y18606617D01*
X18823300Y18632183D01*
X18823298Y18632188D01*
X18761564Y18739114D01*
X18763392Y18740170D01*
X18750580Y18787999D01*
X18771618Y18830659D01*
X19594464Y19653503D01*
X19632600Y19745572D01*
X19632600Y19845227D01*
X19632600Y22548300D01*
X19654274Y22600626D01*
X19706600Y22622300D01*
X20162627Y22622300D01*
X20162628Y22622300D01*
X20254697Y22660436D01*
X21602087Y24007828D01*
X21654413Y24029501D01*
X21917622Y24029501D01*
X21941498Y24032270D01*
X22039141Y24075384D01*
X22114616Y24150859D01*
X22157730Y24248502D01*
X22160500Y24272377D01*
X22160499Y24566589D01*
X22182173Y24618914D01*
X22234499Y24640588D01*
X22286825Y24618914D01*
G37*
%TD.AperFunction*%
%TA.AperFunction,Conductor*%
G36*
X18812013Y23030426D02*
G01*
X19109926Y22732513D01*
X19131600Y22680187D01*
X19131600Y21423210D01*
X19109926Y21370884D01*
X19057600Y21349210D01*
X19005274Y21370884D01*
X18993514Y21386209D01*
X18977810Y21413409D01*
X18960515Y21443365D01*
X18853365Y21550515D01*
X18839173Y21558709D01*
X18722139Y21626279D01*
X18722130Y21626283D01*
X18575768Y21665500D01*
X18575766Y21665500D01*
X18424234Y21665500D01*
X18424232Y21665500D01*
X18277869Y21626283D01*
X18277860Y21626279D01*
X18146637Y21550517D01*
X18039483Y21443363D01*
X17963721Y21312140D01*
X17963717Y21312131D01*
X17924500Y21165769D01*
X17924500Y21164874D01*
X17924327Y21164458D01*
X17923867Y21160959D01*
X17922929Y21161083D01*
X17902826Y21112548D01*
X17850500Y21090874D01*
X17836063Y21092296D01*
X17808423Y21097794D01*
X17794820Y21100500D01*
X16315180Y21100500D01*
X16301577Y21097794D01*
X16271276Y21091767D01*
X16264544Y21088978D01*
X16263463Y21091586D01*
X16218644Y21082681D01*
X16180772Y21102930D01*
X16151902Y21131800D01*
X16101413Y21182289D01*
X16101410Y21182291D01*
X16101409Y21182292D01*
X15998687Y21241599D01*
X15998682Y21241601D01*
X15884111Y21272300D01*
X15884109Y21272300D01*
X15765491Y21272300D01*
X15760641Y21272300D01*
X15760641Y21275013D01*
X15714317Y21287436D01*
X15707052Y21293808D01*
X15472173Y21528688D01*
X15450499Y21581014D01*
X15450499Y21694864D01*
X15450499Y21694865D01*
X15447585Y21719991D01*
X15402206Y21822765D01*
X15322765Y21902206D01*
X15311215Y21907306D01*
X15272103Y21948268D01*
X15273411Y22004890D01*
X15311215Y22042695D01*
X15322765Y22047794D01*
X15402206Y22127235D01*
X15414637Y22155390D01*
X15455599Y22194503D01*
X15482332Y22199500D01*
X15487927Y22199500D01*
X15487928Y22199500D01*
X15579997Y22237636D01*
X16372787Y23030426D01*
X16425113Y23052100D01*
X18759687Y23052100D01*
X18812013Y23030426D01*
G37*
%TD.AperFunction*%
%TD*%
M02*
