%TF.GenerationSoftware,KiCad,Pcbnew,9.0.8+dfsg-1*%
%TF.CreationDate,2026-09-09T10:26:55+05:30*%
%TF.ProjectId,smove-r2-main,736d6f76-652d-4723-922d-6d61696e2e6b,rev?*%
%TF.SameCoordinates,Original*%
%TF.FileFunction,Copper,L3,Inr*%
%TF.FilePolarity,Positive*%
%FSLAX46Y46*%
G04 Gerber Fmt 4.6, Leading zero omitted, Abs format (unit mm)*
G04 Created by KiCad (PCBNEW 9.0.8+dfsg-1) date 2026-09-09 10:26:55*
%MOMM*%
%LPD*%
G01*
G04 APERTURE LIST*
%TA.AperFunction,HeatsinkPad*%
%ADD10O,2.100000X1.000000*%
%TD*%
%TA.AperFunction,HeatsinkPad*%
%ADD11O,1.600000X1.000000*%
%TD*%
%TA.AperFunction,ComponentPad*%
%ADD12C,2.000000*%
%TD*%
%TA.AperFunction,ViaPad*%
%ADD13C,0.450000*%
%TD*%
%TA.AperFunction,ViaPad*%
%ADD14C,0.600000*%
%TD*%
%TA.AperFunction,Conductor*%
%ADD15C,0.250000*%
%TD*%
%TA.AperFunction,Conductor*%
%ADD16C,0.200000*%
%TD*%
%TA.AperFunction,Conductor*%
%ADD17C,0.150000*%
%TD*%
G04 APERTURE END LIST*
D10*
%TO.N,GND*%
%TO.C,J1*%
X17970000Y13880000D03*
D11*
X22150000Y13880000D03*
D10*
X17970000Y22520000D03*
D11*
X22150000Y22520000D03*
%TD*%
D12*
%TO.N,/Power/PACK_P*%
%TO.C,J2*%
X4500000Y29430000D03*
%TO.N,GND*%
X4500000Y31970000D03*
%TD*%
D13*
%TO.N,/3V3_MAIN*%
X4600000Y19850000D03*
X6850000Y18350000D03*
X9700000Y12550000D03*
X17800000Y6800000D03*
X22300000Y26200000D03*
X8100000Y16950000D03*
D14*
%TO.N,/BAT_ADC*%
X9435900Y23223900D03*
X5016600Y21919200D03*
%TO.N,/USB/CC1*%
X8329700Y13224000D03*
X18259700Y16737800D03*
X15858700Y13383000D03*
X14206100Y12661600D03*
D13*
%TO.N,/USB/CC2*%
X16100000Y12350000D03*
X16000000Y19800000D03*
X16250000Y12800000D03*
X8850000Y14600000D03*
X15050000Y16900000D03*
%TO.N,/Power/CHG_ILIM*%
X4800000Y8900000D03*
X1500000Y6400000D03*
%TO.N,/Compute/LED_B*%
X16100000Y6250000D03*
X15250000Y25500000D03*
%TO.N,/Compute/LED_G*%
X16950000Y23800000D03*
X17550000Y10450000D03*
%TO.N,/Compute/LED_R*%
X18550000Y12650000D03*
X16050000Y23750000D03*
%TO.N,/Compute/MCU_EN*%
X7950000Y20500000D03*
X7800000Y21400000D03*
X19900000Y12250000D03*
X12550000Y25450000D03*
X13950000Y25450000D03*
X3600000Y16100000D03*
X7550000Y26550000D03*
%TO.N,/Power/PACK_P*%
X4550000Y6400000D03*
X8100000Y22900000D03*
X700000Y7900000D03*
X950000Y11000000D03*
D14*
%TO.N,/Compute/STRAP2*%
X23000000Y30466200D03*
X9175000Y30375000D03*
%TO.N,/Compute/STRAP8*%
X17344200Y26143300D03*
X9248900Y21438700D03*
%TO.N,/Power/SYS*%
X1975000Y21354100D03*
X6245000Y7304000D03*
X4934400Y23784000D03*
%TO.N,/Power/TS_NO_CELL_SENSING*%
X2291500Y11333300D03*
X1326600Y9553100D03*
%TO.N,/USB_DM*%
X19540700Y16910400D03*
X18403500Y18458300D03*
%TO.N,/Compute/USB_DP_MCU*%
X20968400Y27539700D03*
X23599800Y27359800D03*
D13*
%TO.N,/USB_POWER_N*%
X8500000Y6650000D03*
X14150000Y13450000D03*
X11150000Y20250000D03*
X4000000Y5750000D03*
X10200000Y23750000D03*
D14*
%TO.N,/VBUS*%
X15824800Y20821800D03*
X6339500Y10669200D03*
X15581400Y16435200D03*
%TO.N,GND*%
X11800000Y33434800D03*
D13*
X2750000Y16750000D03*
X803900Y24354900D03*
X20000000Y23500000D03*
X15750000Y21750000D03*
X21250000Y23250000D03*
X8500000Y6000000D03*
X750000Y6750000D03*
%TO.N,/IMU/1V8_IMU*%
X15000000Y17700000D03*
X5200000Y15850000D03*
X10650000Y19000000D03*
X10400000Y20000000D03*
X10350000Y18300000D03*
X11700000Y19650000D03*
X6150000Y20300000D03*
X4950000Y19100000D03*
X5550000Y7900000D03*
X11050000Y16000000D03*
X8050000Y5500000D03*
X4600000Y18100000D03*
X5700000Y8600000D03*
%TO.N,/IMU/SCL_1V8*%
X15100000Y18300000D03*
X19200000Y23700000D03*
X14600000Y25500000D03*
X5950000Y20900000D03*
X13650000Y21900000D03*
X15300000Y7400000D03*
X6400000Y15750000D03*
D14*
%TO.N,/IMU/SDA_1V8*%
X6231500Y13381400D03*
X14000000Y19762800D03*
%TO.N,/SCL_HOST*%
X5477400Y13052600D03*
X14200000Y23304300D03*
X9624000Y20731200D03*
%TO.N,/SDA_HOST*%
X15377200Y23615500D03*
X14598600Y15294700D03*
X4712900Y13075000D03*
D13*
%TO.N,Net-(U1-GPIO9_{slash}_BOOT)*%
X18550000Y23800000D03*
X21100000Y26600000D03*
X19300000Y25300000D03*
X19400000Y8350000D03*
%TD*%
D15*
%TO.N,/3V3_MAIN*%
X14300000Y24900000D02*
X14350000Y24950000D01*
X9950000Y24800000D02*
X10000000Y24800000D01*
X14350000Y24950000D02*
X18200000Y24950000D01*
X9800000Y24550000D02*
X9850000Y24600000D01*
X10150000Y24900000D02*
X14300000Y24900000D01*
X9800000Y24450000D02*
X9800000Y24550000D01*
X9900000Y24750000D02*
X9950000Y24800000D01*
X19200000Y25800000D02*
X19250000Y25850000D01*
X8700000Y21700000D02*
X8750000Y21750000D01*
X8850000Y21900000D02*
X8850000Y23400000D01*
X9900000Y24700000D02*
X9900000Y24750000D01*
X8950000Y23600000D02*
X9800000Y24450000D01*
X19250000Y25850000D02*
X21950000Y25850000D01*
X19000000Y25750000D02*
X19050000Y25750000D01*
X10100000Y24850000D02*
X10150000Y24900000D01*
X21950000Y25850000D02*
X22300000Y26200000D01*
X18200000Y24950000D02*
X19000000Y25750000D01*
X9850000Y24600000D02*
X9850000Y24650000D01*
X8900000Y23450000D02*
X8900000Y23500000D01*
X10000000Y24800000D02*
X10050000Y24850000D01*
X8950000Y23550000D02*
X8950000Y23600000D01*
X8700000Y21650000D02*
X8700000Y21700000D01*
X8750000Y21750000D02*
X8750000Y21800000D01*
X8100000Y16950000D02*
X8650000Y17500000D01*
X9850000Y24650000D02*
X9900000Y24700000D01*
X10050000Y24850000D02*
X10100000Y24850000D01*
X8650000Y21600000D02*
X8700000Y21650000D01*
X8850000Y23400000D02*
X8900000Y23450000D01*
X8750000Y21800000D02*
X8850000Y21900000D01*
X19050000Y25750000D02*
X19100000Y25800000D01*
X19100000Y25800000D02*
X19200000Y25800000D01*
X8900000Y23500000D02*
X8950000Y23550000D01*
X8650000Y17500000D02*
X8650000Y21600000D01*
D16*
%TO.N,/USB/CC1*%
X18259700Y16737800D02*
X16896200Y15374300D01*
X15858700Y13486000D02*
X15858700Y13383000D01*
X16896200Y15374300D02*
X16896200Y14523500D01*
X13643700Y13224000D02*
X8329700Y13224000D01*
X14206100Y12661600D02*
X13643700Y13224000D01*
X16896200Y14523500D02*
X15858700Y13486000D01*
D17*
%TO.N,/USB/CC2*%
X15100000Y15100000D02*
X15150000Y15150000D01*
X15100000Y16200000D02*
X15050000Y16250000D01*
X15100000Y16150000D02*
X15100000Y16200000D01*
X15100000Y15050000D02*
X15100000Y15100000D01*
X15050000Y14950000D02*
X15050000Y15000000D01*
X15150000Y15150000D02*
X15150000Y16100000D01*
X15150000Y16100000D02*
X15100000Y16150000D01*
X12950000Y14600000D02*
X13050000Y14700000D01*
X8850000Y14600000D02*
X12950000Y14600000D01*
X14800000Y14700000D02*
X15050000Y14950000D01*
X13050000Y14700000D02*
X14800000Y14700000D01*
X15050000Y16250000D02*
X15050000Y16900000D01*
X15050000Y15000000D02*
X15100000Y15050000D01*
%TO.N,/Compute/LED_R*%
X18600000Y12800000D02*
X18600000Y12750000D01*
X16050000Y22500000D02*
X18350000Y20200000D01*
X19200000Y14250000D02*
X19250000Y14200000D01*
X19250000Y13650000D02*
X19200000Y13600000D01*
X19250000Y14200000D02*
X19250000Y13650000D01*
X18950000Y18600000D02*
X18950000Y15800000D01*
X19100000Y15600000D02*
X19150000Y15550000D01*
X18350000Y19300000D02*
X18850000Y18800000D01*
X18350000Y20200000D02*
X18350000Y19300000D01*
X19200000Y15450000D02*
X19200000Y14250000D01*
X19150000Y15550000D02*
X19150000Y15500000D01*
X19150000Y13500000D02*
X19150000Y13450000D01*
X18550000Y12700000D02*
X18550000Y12650000D01*
X19150000Y15500000D02*
X19200000Y15450000D01*
X18950000Y15800000D02*
X19100000Y15650000D01*
X18650000Y12850000D02*
X18600000Y12800000D01*
X18850000Y18800000D02*
X18850000Y18750000D01*
X18900000Y18700000D02*
X18900000Y18650000D01*
X19150000Y13450000D02*
X18650000Y12950000D01*
X19200000Y13550000D02*
X19150000Y13500000D01*
X18600000Y12750000D02*
X18550000Y12700000D01*
X19100000Y15650000D02*
X19100000Y15600000D01*
X18650000Y12950000D02*
X18650000Y12850000D01*
X16050000Y23750000D02*
X16050000Y22500000D01*
X18900000Y18650000D02*
X18950000Y18600000D01*
X19200000Y13600000D02*
X19200000Y13550000D01*
X18850000Y18750000D02*
X18900000Y18700000D01*
%TO.N,/Compute/MCU_EN*%
X7750000Y22600000D02*
X7650000Y22700000D01*
X7650000Y22800000D02*
X7600000Y22850000D01*
X7650000Y22700000D02*
X7650000Y22800000D01*
X7950000Y20500000D02*
X3600000Y16150000D01*
X7600000Y22850000D02*
X7600000Y24700000D01*
X7750000Y21600000D02*
X7750000Y22600000D01*
X7600000Y24700000D02*
X7550000Y24750000D01*
X7800000Y21550000D02*
X7750000Y21600000D01*
X3600000Y16150000D02*
X3600000Y16100000D01*
X7550000Y24750000D02*
X7550000Y26550000D01*
X7800000Y21400000D02*
X7800000Y21550000D01*
D16*
%TO.N,/Power/PACK_P*%
X3300000Y7350000D02*
X3350000Y7350000D01*
X2950000Y7500000D02*
X3000000Y7500000D01*
X2150000Y7900000D02*
X2200000Y7850000D01*
X3550000Y7250000D02*
X3600000Y7200000D01*
X3400000Y7300000D02*
X3450000Y7300000D01*
X3050000Y7450000D02*
X3100000Y7450000D01*
X2250000Y7850000D02*
X2300000Y7800000D01*
X2450000Y7750000D02*
X2500000Y7700000D01*
X2800000Y7600000D02*
X2850000Y7550000D01*
X2400000Y7750000D02*
X2450000Y7750000D01*
X3150000Y7400000D02*
X3250000Y7400000D01*
X2300000Y7800000D02*
X2350000Y7800000D01*
X2700000Y7650000D02*
X2750000Y7600000D01*
X2550000Y7700000D02*
X2600000Y7650000D01*
X3600000Y7200000D02*
X3650000Y7200000D01*
X2600000Y7650000D02*
X2700000Y7650000D01*
X3800000Y7150000D02*
X4550000Y6400000D01*
X3000000Y7500000D02*
X3050000Y7450000D01*
X3650000Y7200000D02*
X3700000Y7150000D01*
X3700000Y7150000D02*
X3800000Y7150000D01*
X2750000Y7600000D02*
X2800000Y7600000D01*
X2500000Y7700000D02*
X2550000Y7700000D01*
X2200000Y7850000D02*
X2250000Y7850000D01*
X2350000Y7800000D02*
X2400000Y7750000D01*
X2850000Y7550000D02*
X2900000Y7550000D01*
X3350000Y7350000D02*
X3400000Y7300000D01*
X3100000Y7450000D02*
X3150000Y7400000D01*
X3500000Y7250000D02*
X3550000Y7250000D01*
X2900000Y7550000D02*
X2950000Y7500000D01*
X3250000Y7400000D02*
X3300000Y7350000D01*
X700000Y7900000D02*
X2150000Y7900000D01*
X3450000Y7300000D02*
X3500000Y7250000D01*
%TO.N,/Power/SYS*%
X4404900Y23784000D02*
X1975000Y21354100D01*
X4934400Y23784000D02*
X4404900Y23784000D01*
%TO.N,/Compute/USB_DP_MCU*%
X23599800Y27359800D02*
X22859600Y28100000D01*
X22859600Y28100000D02*
X21528700Y28100000D01*
X21528700Y28100000D02*
X20968400Y27539700D01*
D17*
%TO.N,/USB_POWER_N*%
X10500000Y23850000D02*
X10450000Y23900000D01*
X4150000Y5900000D02*
X4000000Y5750000D01*
X10300000Y24300000D02*
X10250000Y24350000D01*
X11100000Y22550000D02*
X11050000Y22600000D01*
X10500000Y23800000D02*
X10500000Y23850000D01*
X4650000Y5950000D02*
X4600000Y5900000D01*
X10750000Y23250000D02*
X10750000Y23300000D01*
X10550000Y23750000D02*
X10500000Y23800000D01*
X10200000Y23750000D02*
X10200000Y24500000D01*
X10400000Y24100000D02*
X10350000Y24150000D01*
X10450000Y23900000D02*
X10450000Y24000000D01*
X10750000Y23300000D02*
X10700000Y23350000D01*
X10300000Y24250000D02*
X10300000Y24300000D01*
X8500000Y6650000D02*
X5450000Y6650000D01*
X10700000Y23450000D02*
X10650000Y23500000D01*
X10650000Y23500000D02*
X10650000Y23550000D01*
X10800000Y23200000D02*
X10750000Y23250000D01*
X5450000Y6650000D02*
X4750000Y5950000D01*
X4600000Y5900000D02*
X4150000Y5900000D01*
X10450000Y24000000D02*
X10400000Y24050000D01*
X10850000Y23050000D02*
X10850000Y23100000D01*
X11100000Y22350000D02*
X11100000Y22550000D01*
X10350000Y24200000D02*
X10300000Y24250000D01*
X10800000Y23150000D02*
X10800000Y23200000D01*
X11000000Y22700000D02*
X11000000Y22750000D01*
X4750000Y5950000D02*
X4650000Y5950000D01*
X10600000Y23600000D02*
X10600000Y23650000D01*
X10950000Y22900000D02*
X10900000Y22950000D01*
X11150000Y22300000D02*
X11100000Y22350000D01*
X11000000Y22750000D02*
X10950000Y22800000D01*
X10850000Y23100000D02*
X10800000Y23150000D01*
X11150000Y20250000D02*
X11150000Y22300000D01*
X10350000Y24150000D02*
X10350000Y24200000D01*
X10950000Y22800000D02*
X10950000Y22900000D01*
X10900000Y22950000D02*
X10900000Y23000000D01*
X10700000Y23350000D02*
X10700000Y23450000D01*
X11050000Y22650000D02*
X11000000Y22700000D01*
X10650000Y23550000D02*
X10600000Y23600000D01*
X10400000Y24050000D02*
X10400000Y24100000D01*
X10250000Y24450000D02*
X10200000Y24500000D01*
X10600000Y23650000D02*
X10550000Y23700000D01*
X11050000Y22600000D02*
X11050000Y22650000D01*
X10550000Y23700000D02*
X10550000Y23750000D01*
X10900000Y23000000D02*
X10850000Y23050000D01*
X10250000Y24350000D02*
X10250000Y24450000D01*
D16*
%TO.N,/VBUS*%
X8310400Y13997600D02*
X14605300Y13997600D01*
X8336200Y10799000D02*
X8336200Y11761200D01*
X8336200Y11761200D02*
X7761000Y12336400D01*
X6339500Y10669200D02*
X6538200Y10470500D01*
X7761000Y13448200D02*
X8310400Y13997600D01*
X8007700Y10470500D02*
X8336200Y10799000D01*
X14605300Y13997600D02*
X15581300Y14973600D01*
X7761000Y12336400D02*
X7761000Y13448200D01*
X15581300Y16435200D02*
X15581400Y16435200D01*
X15581300Y14973600D02*
X15581300Y16435200D01*
X6538200Y10470500D02*
X8007700Y10470500D01*
D17*
%TO.N,/IMU/1V8_IMU*%
X4150000Y12550000D02*
X4150000Y13200000D01*
X5150000Y14300000D02*
X5150000Y15800000D01*
X4250000Y13350000D02*
X4250000Y13400000D01*
X4200000Y13250000D02*
X4200000Y13300000D01*
X4200000Y13300000D02*
X4250000Y13350000D01*
X4150000Y13200000D02*
X4200000Y13250000D01*
X5700000Y11000000D02*
X4150000Y12550000D01*
X4250000Y13400000D02*
X5150000Y14300000D01*
X5700000Y8600000D02*
X5700000Y11000000D01*
X5150000Y15800000D02*
X5200000Y15850000D01*
%TO.N,/IMU/SCL_1V8*%
X16100000Y16200000D02*
X16100000Y16300000D01*
X15950000Y14900000D02*
X15950000Y16050000D01*
X7100000Y26750000D02*
X7350000Y27000000D01*
X14550000Y25500000D02*
X14600000Y25500000D01*
X18750000Y24250000D02*
X18650000Y24250000D01*
X15400000Y8400000D02*
X15400000Y8600000D01*
X14850000Y23850000D02*
X14050000Y23850000D01*
X16850000Y24250000D02*
X16000000Y24250000D01*
X16100000Y16550000D02*
X16100000Y16650000D01*
X15300000Y10700000D02*
X15300000Y14200000D01*
X13700000Y23500000D02*
X13650000Y23450000D01*
X15200000Y24150000D02*
X15150000Y24100000D01*
X15450000Y8850000D02*
X15500000Y8900000D01*
X15150000Y24100000D02*
X15100000Y24100000D01*
X13700000Y23550000D02*
X13700000Y23500000D01*
X16150000Y16350000D02*
X16150000Y16500000D01*
X13650000Y23450000D02*
X13650000Y21900000D01*
X16050000Y16750000D02*
X15500000Y17300000D01*
X8800000Y25950000D02*
X14000000Y25950000D01*
X19000000Y23900000D02*
X19000000Y24000000D01*
X14150000Y25900000D02*
X14550000Y25500000D01*
X15850000Y24200000D02*
X15800000Y24150000D01*
X15900000Y14850000D02*
X15950000Y14900000D01*
X15950000Y16050000D02*
X16100000Y16200000D01*
X18650000Y24250000D02*
X18600000Y24300000D01*
X14000000Y25950000D02*
X14050000Y25900000D01*
X15500000Y10500000D02*
X15300000Y10700000D01*
X16050000Y16700000D02*
X16050000Y16750000D01*
X7050000Y22000000D02*
X7050000Y26600000D01*
X13750000Y23600000D02*
X13700000Y23550000D01*
X15350000Y8350000D02*
X15400000Y8400000D01*
X15450000Y17900000D02*
X15100000Y18250000D01*
X14000000Y23800000D02*
X13950000Y23800000D01*
X15950000Y24200000D02*
X15850000Y24200000D01*
X13850000Y23750000D02*
X13750000Y23650000D01*
X18600000Y24300000D02*
X16900000Y24300000D01*
X7600000Y27050000D02*
X7650000Y27000000D01*
X7050000Y26600000D02*
X7100000Y26650000D01*
X7100000Y26650000D02*
X7100000Y26750000D01*
X15300000Y8200000D02*
X15350000Y8250000D01*
X15350000Y8250000D02*
X15350000Y8350000D01*
X16100000Y16300000D02*
X16150000Y16350000D01*
X14050000Y23850000D02*
X14000000Y23800000D01*
X15450000Y17800000D02*
X15450000Y17900000D01*
X19000000Y24000000D02*
X18750000Y24250000D01*
X15300000Y14200000D02*
X15900000Y14800000D01*
X15300000Y7400000D02*
X15300000Y8200000D01*
X16100000Y16650000D02*
X16050000Y16700000D01*
X15900000Y14800000D02*
X15900000Y14850000D01*
X7350000Y27000000D02*
X7450000Y27000000D01*
X7650000Y27000000D02*
X7750000Y27000000D01*
X5950000Y20900000D02*
X7050000Y22000000D01*
X16150000Y16500000D02*
X16100000Y16550000D01*
X16900000Y24300000D02*
X16850000Y24250000D01*
X15450000Y8650000D02*
X15450000Y8850000D01*
X15800000Y24150000D02*
X15200000Y24150000D01*
X13750000Y23650000D02*
X13750000Y23600000D01*
X14050000Y25900000D02*
X14150000Y25900000D01*
X7500000Y27050000D02*
X7600000Y27050000D01*
X15400000Y8600000D02*
X15450000Y8650000D01*
X15500000Y8900000D02*
X15500000Y10500000D01*
X7750000Y27000000D02*
X8800000Y25950000D01*
X15500000Y17300000D02*
X15500000Y17750000D01*
X7450000Y27000000D02*
X7500000Y27050000D01*
X16000000Y24250000D02*
X15950000Y24200000D01*
X15100000Y18250000D02*
X15100000Y18300000D01*
X15100000Y24100000D02*
X14850000Y23850000D01*
X13900000Y23750000D02*
X13850000Y23750000D01*
X13950000Y23800000D02*
X13900000Y23750000D01*
X15500000Y17750000D02*
X15450000Y17800000D01*
X19200000Y23700000D02*
X19000000Y23900000D01*
D16*
%TO.N,/IMU/SDA_1V8*%
X14000000Y19762800D02*
X12522100Y19762800D01*
X12522100Y19762800D02*
X6231500Y13472200D01*
X6231500Y13472200D02*
X6231500Y13381400D01*
%TO.N,/SCL_HOST*%
X9624000Y17766800D02*
X9624000Y20731000D01*
X5477400Y13620200D02*
X9624000Y17766800D01*
X5477400Y13052600D02*
X5477400Y13620200D01*
%TO.N,/SDA_HOST*%
X5202900Y12464900D02*
X4712900Y12954900D01*
X14664800Y22903100D02*
X15377200Y23615500D01*
X14664800Y19247600D02*
X14664800Y22903100D01*
X6901500Y13259500D02*
X6106900Y12464900D01*
X14598600Y15294700D02*
X14493700Y15399600D01*
X6901500Y13637800D02*
X6901500Y13259500D01*
X6106900Y12464900D02*
X5202900Y12464900D01*
X14599000Y15295000D02*
X8558700Y15295000D01*
X8558700Y15295000D02*
X6901500Y13637800D01*
X4712900Y12954900D02*
X4712900Y13075000D01*
X14493700Y19076500D02*
X14664800Y19247600D01*
X14493700Y15399600D02*
X14493700Y19076500D01*
D17*
%TO.N,Net-(U1-GPIO9_{slash}_BOOT)*%
X20050000Y17100000D02*
X20100000Y17050000D01*
X19450000Y12450000D02*
X19450000Y12350000D01*
X20100000Y13100000D02*
X19450000Y12450000D01*
X20050000Y17150000D02*
X20050000Y17100000D01*
X19400000Y12300000D02*
X19400000Y8350000D01*
X18550000Y23550000D02*
X19250000Y22850000D01*
X18550000Y23800000D02*
X18550000Y23550000D01*
X19250000Y22850000D02*
X19250000Y20700000D01*
X19250000Y20700000D02*
X20000000Y19950000D01*
X20000000Y17200000D02*
X20050000Y17150000D01*
X20100000Y17050000D02*
X20100000Y13100000D01*
X19450000Y12350000D02*
X19400000Y12300000D01*
X20000000Y19950000D02*
X20000000Y17200000D01*
%TD*%
%TA.AperFunction,Conductor*%
%TO.N,GND*%
G36*
X376826Y7703712D02*
G01*
X388586Y7688385D01*
X391650Y7683077D01*
X399525Y7669438D01*
X469438Y7599525D01*
X514712Y7573386D01*
X555058Y7550092D01*
X555062Y7550090D01*
X555063Y7550090D01*
X555065Y7550089D01*
X584933Y7542086D01*
X650562Y7524501D01*
X650563Y7524500D01*
X650565Y7524500D01*
X749437Y7524500D01*
X749437Y7524501D01*
X844938Y7550090D01*
X930562Y7599525D01*
X958863Y7627826D01*
X1011189Y7649500D01*
X2017899Y7649500D01*
X2047987Y7643107D01*
X2056356Y7639383D01*
X2058103Y7637636D01*
X2088607Y7625001D01*
X2106595Y7617551D01*
X2129858Y7607914D01*
X2153866Y7591873D01*
X2158103Y7587636D01*
X2192506Y7573386D01*
X2229860Y7557914D01*
X2229864Y7557910D01*
X2253866Y7541873D01*
X2258103Y7537636D01*
X2263771Y7535288D01*
X2263773Y7535287D01*
X2329858Y7507914D01*
X2338661Y7503563D01*
X2347027Y7498712D01*
X2358103Y7487636D01*
X2381642Y7477886D01*
X2386194Y7476001D01*
X2386195Y7476000D01*
X2429858Y7457914D01*
X2453866Y7441873D01*
X2458103Y7437636D01*
X2496238Y7421841D01*
X2496239Y7421840D01*
X2550173Y7399499D01*
X2567902Y7399499D01*
X2597125Y7393484D01*
X2606122Y7389617D01*
X2608103Y7387636D01*
X2646240Y7371840D01*
X2680311Y7357727D01*
X2680762Y7357533D01*
X2681382Y7356896D01*
X2703865Y7341874D01*
X2708103Y7337636D01*
X2746241Y7321839D01*
X2779857Y7307915D01*
X2786975Y7304512D01*
X2796329Y7299410D01*
X2808103Y7287636D01*
X2845215Y7272264D01*
X2848870Y7270750D01*
X2848872Y7270749D01*
X2879859Y7257914D01*
X2903866Y7241873D01*
X2908103Y7237636D01*
X2946241Y7221839D01*
X2979857Y7207915D01*
X2987857Y7204023D01*
X2996693Y7199046D01*
X3008103Y7187636D01*
X3037402Y7175500D01*
X3100173Y7149499D01*
X3117901Y7149499D01*
X3148699Y7142786D01*
X3156543Y7139196D01*
X3158103Y7137636D01*
X3176263Y7130114D01*
X3177550Y7129581D01*
X3177552Y7129580D01*
X3229858Y7107914D01*
X3253866Y7091873D01*
X3258103Y7087636D01*
X3275404Y7080470D01*
X3275405Y7080469D01*
X3329858Y7057914D01*
X3353866Y7041873D01*
X3358103Y7037636D01*
X3387402Y7025500D01*
X3429861Y7007913D01*
X3438213Y7003821D01*
X3446841Y6998898D01*
X3458103Y6987636D01*
X3484713Y6976614D01*
X3489026Y6974828D01*
X3489027Y6974827D01*
X3529858Y6957914D01*
X3553866Y6941873D01*
X3558103Y6937636D01*
X3563771Y6935288D01*
X3563776Y6935287D01*
X3650173Y6899499D01*
X3665588Y6899499D01*
X3717914Y6877825D01*
X4152826Y6442913D01*
X4174500Y6390587D01*
X4174500Y6350563D01*
X4200088Y6255066D01*
X4200090Y6255061D01*
X4210806Y6236501D01*
X4212989Y6219913D01*
X4220517Y6204972D01*
X4216542Y6192925D01*
X4218198Y6180348D01*
X4208014Y6167077D01*
X4202772Y6151187D01*
X4192053Y6146276D01*
X4183720Y6135415D01*
X4152191Y6125704D01*
X4149453Y6125501D01*
X4105145Y6125501D01*
X4095484Y6121500D01*
X4083620Y6120620D01*
X4073679Y6123900D01*
X4058999Y6122938D01*
X4049436Y6125500D01*
X4049435Y6125500D01*
X3950565Y6125500D01*
X3950563Y6125500D01*
X3855065Y6099912D01*
X3855060Y6099910D01*
X3769437Y6050475D01*
X3699525Y5980563D01*
X3650090Y5894940D01*
X3650088Y5894935D01*
X3624500Y5799438D01*
X3624500Y5700563D01*
X3650088Y5605066D01*
X3650090Y5605061D01*
X3682205Y5549437D01*
X3699525Y5519438D01*
X3769438Y5449525D01*
X3855062Y5400090D01*
X3870408Y5395978D01*
X3915340Y5361500D01*
X3922733Y5305347D01*
X3888254Y5260414D01*
X3851254Y5250500D01*
X1074000Y5250500D01*
X1021674Y5272174D01*
X1000000Y5324500D01*
X1000000Y6000000D01*
X324500Y6000000D01*
X272174Y6021674D01*
X250500Y6074000D01*
X250500Y6449438D01*
X1124500Y6449438D01*
X1124500Y6350563D01*
X1150088Y6255066D01*
X1150090Y6255061D01*
X1160806Y6236501D01*
X1199525Y6169438D01*
X1269438Y6099525D01*
X1355062Y6050090D01*
X1355063Y6050090D01*
X1355065Y6050089D01*
X1402813Y6037295D01*
X1450562Y6024501D01*
X1450563Y6024500D01*
X1450565Y6024500D01*
X1549437Y6024500D01*
X1549437Y6024501D01*
X1644938Y6050090D01*
X1730562Y6099525D01*
X1800475Y6169438D01*
X1849910Y6255062D01*
X1875499Y6350563D01*
X1875500Y6350563D01*
X1875500Y6449437D01*
X1875499Y6449438D01*
X1867159Y6480562D01*
X1858870Y6511499D01*
X1849911Y6544935D01*
X1849909Y6544940D01*
X1810654Y6612931D01*
X1800475Y6630562D01*
X1730562Y6700475D01*
X1644939Y6749910D01*
X1644934Y6749912D01*
X1549437Y6775500D01*
X1549435Y6775500D01*
X1450565Y6775500D01*
X1450563Y6775500D01*
X1355065Y6749912D01*
X1355060Y6749910D01*
X1269437Y6700475D01*
X1199525Y6630563D01*
X1150090Y6544940D01*
X1150088Y6544935D01*
X1124500Y6449438D01*
X250500Y6449438D01*
X250500Y7651386D01*
X272174Y7703712D01*
X324500Y7725386D01*
X376826Y7703712D01*
G37*
%TD.AperFunction*%
%TA.AperFunction,Conductor*%
G36*
X24727826Y34727826D02*
G01*
X24749500Y34675500D01*
X24749500Y23824500D01*
X24727826Y23772174D01*
X24675500Y23750500D01*
X24400172Y23750500D01*
X24308105Y23712366D01*
X24237634Y23641895D01*
X24199500Y23549830D01*
X24199500Y12850171D01*
X24237634Y12758106D01*
X24237637Y12758102D01*
X24308102Y12687637D01*
X24308105Y12687635D01*
X24354137Y12668568D01*
X24400172Y12649500D01*
X24675500Y12649500D01*
X24727826Y12627826D01*
X24749500Y12575500D01*
X24749500Y6074000D01*
X24727826Y6021674D01*
X24675500Y6000000D01*
X24000000Y6000000D01*
X24000000Y5324500D01*
X23978326Y5272174D01*
X23926000Y5250500D01*
X8467348Y5250500D01*
X8415022Y5272174D01*
X8393348Y5324500D01*
X8398980Y5352817D01*
X8399907Y5355058D01*
X8399910Y5355062D01*
X8425499Y5450563D01*
X8425500Y5450563D01*
X8425500Y5549437D01*
X8425499Y5549438D01*
X8399911Y5644935D01*
X8399909Y5644940D01*
X8358297Y5717014D01*
X8350475Y5730562D01*
X8280562Y5800475D01*
X8194939Y5849910D01*
X8194934Y5849912D01*
X8099437Y5875500D01*
X8099435Y5875500D01*
X8000565Y5875500D01*
X8000563Y5875500D01*
X7905065Y5849912D01*
X7905060Y5849910D01*
X7819437Y5800475D01*
X7749525Y5730563D01*
X7700090Y5644940D01*
X7700088Y5644935D01*
X7674500Y5549438D01*
X7674500Y5450563D01*
X7700088Y5355066D01*
X7701020Y5352817D01*
X7701019Y5351591D01*
X7701345Y5350377D01*
X7701019Y5350290D01*
X7701018Y5296180D01*
X7660969Y5256132D01*
X7632652Y5250500D01*
X4148746Y5250500D01*
X4096420Y5272174D01*
X4074746Y5324500D01*
X4096420Y5376826D01*
X4129590Y5395978D01*
X4144938Y5400090D01*
X4230562Y5449525D01*
X4300475Y5519438D01*
X4349910Y5605062D01*
X4353820Y5619655D01*
X4365579Y5634980D01*
X4372972Y5652826D01*
X4382210Y5656653D01*
X4388298Y5664586D01*
X4425298Y5674500D01*
X4546525Y5674500D01*
X4546533Y5674499D01*
X4555145Y5674499D01*
X4644854Y5674499D01*
X4644855Y5674499D01*
X4707782Y5700565D01*
X4727736Y5708830D01*
X4730893Y5711988D01*
X4741204Y5717014D01*
X4750911Y5717607D01*
X4773634Y5724499D01*
X4794854Y5724499D01*
X4794855Y5724499D01*
X4853460Y5748775D01*
X4877736Y5758830D01*
X4941170Y5822264D01*
X4941170Y5822265D01*
X4951575Y5832670D01*
X4951576Y5832673D01*
X5521732Y6402826D01*
X5574058Y6424500D01*
X8163811Y6424500D01*
X8216137Y6402826D01*
X8269438Y6349525D01*
X8355062Y6300090D01*
X8355063Y6300090D01*
X8355065Y6300089D01*
X8357506Y6299435D01*
X8450562Y6274501D01*
X8450563Y6274500D01*
X8450565Y6274500D01*
X8549437Y6274500D01*
X8549437Y6274501D01*
X8644938Y6300090D01*
X8730562Y6349525D01*
X8800475Y6419438D01*
X8849910Y6505062D01*
X8875499Y6600563D01*
X8875500Y6600563D01*
X8875500Y6699437D01*
X8875499Y6699438D01*
X8849911Y6794935D01*
X8849909Y6794940D01*
X8836663Y6817883D01*
X8800475Y6880562D01*
X8730562Y6950475D01*
X8717677Y6957914D01*
X8644939Y6999910D01*
X8644934Y6999912D01*
X8549437Y7025500D01*
X8549435Y7025500D01*
X8450565Y7025500D01*
X8450563Y7025500D01*
X8355065Y6999912D01*
X8355060Y6999910D01*
X8269437Y6950475D01*
X8216137Y6897174D01*
X8163811Y6875500D01*
X6632253Y6875500D01*
X6579927Y6897174D01*
X6558253Y6949500D01*
X6579926Y7001825D01*
X6605489Y7027387D01*
X6664799Y7130114D01*
X6695499Y7244689D01*
X6695500Y7244689D01*
X6695500Y7363311D01*
X6695499Y7363312D01*
X6688981Y7387636D01*
X6664799Y7477886D01*
X6653348Y7497719D01*
X6605491Y7580610D01*
X6605490Y7580611D01*
X6605489Y7580613D01*
X6521613Y7664489D01*
X6521610Y7664491D01*
X6521609Y7664492D01*
X6418887Y7723799D01*
X6418882Y7723801D01*
X6304311Y7754500D01*
X6304309Y7754500D01*
X6185691Y7754500D01*
X6185689Y7754500D01*
X6071117Y7723801D01*
X6071112Y7723799D01*
X6013384Y7690469D01*
X5957231Y7683077D01*
X5912298Y7717555D01*
X5904906Y7773708D01*
X5925499Y7850563D01*
X5925500Y7850563D01*
X5925500Y7949437D01*
X5925499Y7949438D01*
X5918783Y7974501D01*
X5911927Y8000091D01*
X5899911Y8044935D01*
X5899909Y8044940D01*
X5860982Y8112363D01*
X5850475Y8130562D01*
X5840863Y8140174D01*
X5819189Y8192500D01*
X5840863Y8244826D01*
X5856189Y8256586D01*
X5856205Y8256595D01*
X5930562Y8299525D01*
X6000475Y8369438D01*
X6049910Y8455062D01*
X6075499Y8550563D01*
X6075500Y8550563D01*
X6075500Y8649437D01*
X6075499Y8649438D01*
X6049911Y8744935D01*
X6049909Y8744940D01*
X6034133Y8772265D01*
X6000475Y8830562D01*
X5947174Y8883863D01*
X5925500Y8936189D01*
X5925500Y10267447D01*
X5947174Y10319773D01*
X5999500Y10341447D01*
X6051824Y10319774D01*
X6062887Y10308711D01*
X6062889Y10308710D01*
X6062890Y10308709D01*
X6150486Y10258135D01*
X6165614Y10249401D01*
X6165615Y10249401D01*
X6165617Y10249400D01*
X6222902Y10234051D01*
X6280188Y10218701D01*
X6280189Y10218700D01*
X6280191Y10218700D01*
X6398808Y10218700D01*
X6398809Y10218700D01*
X6430834Y10227282D01*
X6478304Y10224171D01*
X6488372Y10220000D01*
X6488373Y10220000D01*
X8057527Y10220000D01*
X8057528Y10220000D01*
X8149597Y10258136D01*
X8414356Y10522896D01*
X8466681Y10544569D01*
X8519007Y10522895D01*
X8540681Y10470569D01*
X8536754Y10446783D01*
X8467557Y10242935D01*
X8467552Y10242918D01*
X8379516Y9800324D01*
X8379515Y9800320D01*
X8379515Y9800316D01*
X8349999Y9350000D01*
X8379515Y8899685D01*
X8379515Y8899681D01*
X8379516Y8899678D01*
X8467552Y8457084D01*
X8467556Y8457071D01*
X8612615Y8029742D01*
X8812211Y7625003D01*
X8812217Y7624992D01*
X9026355Y7304512D01*
X9062930Y7249774D01*
X9360481Y6910482D01*
X9699773Y6612931D01*
X9819140Y6533173D01*
X10074990Y6362219D01*
X10074995Y6362216D01*
X10075000Y6362213D01*
X10479742Y6162616D01*
X10907074Y6017556D01*
X10907078Y6017556D01*
X10907082Y6017554D01*
X11128379Y5973536D01*
X11349684Y5929516D01*
X11800000Y5900000D01*
X12250315Y5929516D01*
X12579319Y5994959D01*
X12692916Y6017554D01*
X12692917Y6017555D01*
X12692925Y6017556D01*
X13120257Y6162616D01*
X13397704Y6299438D01*
X15724500Y6299438D01*
X15724500Y6200563D01*
X15750088Y6105066D01*
X15750090Y6105061D01*
X15796602Y6024501D01*
X15799525Y6019438D01*
X15869438Y5949525D01*
X15955062Y5900090D01*
X15955063Y5900090D01*
X15955065Y5900089D01*
X16002813Y5887295D01*
X16050562Y5874501D01*
X16050563Y5874500D01*
X16050565Y5874500D01*
X16149437Y5874500D01*
X16149437Y5874501D01*
X16244938Y5900090D01*
X16330562Y5949525D01*
X16400475Y6019438D01*
X16449910Y6105062D01*
X16475499Y6200563D01*
X16475500Y6200563D01*
X16475500Y6299437D01*
X16475499Y6299438D01*
X16449911Y6394935D01*
X16449909Y6394940D01*
X16432842Y6424501D01*
X16400475Y6480562D01*
X16330562Y6550475D01*
X16297717Y6569438D01*
X16244939Y6599910D01*
X16244934Y6599912D01*
X16149437Y6625500D01*
X16149435Y6625500D01*
X16050565Y6625500D01*
X16050563Y6625500D01*
X15955065Y6599912D01*
X15955060Y6599910D01*
X15869437Y6550475D01*
X15799525Y6480563D01*
X15750090Y6394940D01*
X15750088Y6394935D01*
X15724500Y6299438D01*
X13397704Y6299438D01*
X13524999Y6362213D01*
X13525011Y6362222D01*
X13525016Y6362224D01*
X13530384Y6365811D01*
X13530389Y6365814D01*
X13702121Y6480562D01*
X13900226Y6612931D01*
X14169911Y6849438D01*
X17424500Y6849438D01*
X17424500Y6750563D01*
X17450088Y6655066D01*
X17450090Y6655061D01*
X17474414Y6612931D01*
X17499525Y6569438D01*
X17569438Y6499525D01*
X17655062Y6450090D01*
X17655063Y6450090D01*
X17655065Y6450089D01*
X17657506Y6449435D01*
X17750562Y6424501D01*
X17750563Y6424500D01*
X17750565Y6424500D01*
X17849437Y6424500D01*
X17849437Y6424501D01*
X17944938Y6450090D01*
X18030562Y6499525D01*
X18100475Y6569438D01*
X18149910Y6655062D01*
X18175499Y6750563D01*
X18175500Y6750563D01*
X18175500Y6849437D01*
X18175499Y6849438D01*
X18167159Y6880562D01*
X18159292Y6909924D01*
X18149911Y6944935D01*
X18149909Y6944940D01*
X18118171Y6999912D01*
X18100475Y7030562D01*
X18030562Y7100475D01*
X17979226Y7130114D01*
X17944939Y7149910D01*
X17944934Y7149912D01*
X17849437Y7175500D01*
X17849435Y7175500D01*
X17750565Y7175500D01*
X17750563Y7175500D01*
X17655065Y7149912D01*
X17655060Y7149910D01*
X17569437Y7100475D01*
X17499525Y7030563D01*
X17450090Y6944940D01*
X17450088Y6944935D01*
X17424500Y6849438D01*
X14169911Y6849438D01*
X14239518Y6910482D01*
X14537069Y7249774D01*
X14787787Y7625001D01*
X14934132Y7921759D01*
X14976713Y7959102D01*
X15033229Y7955398D01*
X15070573Y7912816D01*
X15074500Y7889029D01*
X15074500Y7736189D01*
X15052826Y7683863D01*
X14999525Y7630563D01*
X14950090Y7544940D01*
X14950088Y7544935D01*
X14924500Y7449438D01*
X14924500Y7350563D01*
X14950088Y7255066D01*
X14950090Y7255061D01*
X14969271Y7221839D01*
X14999525Y7169438D01*
X15069438Y7099525D01*
X15155062Y7050090D01*
X15155063Y7050090D01*
X15155065Y7050089D01*
X15185728Y7041873D01*
X15250562Y7024501D01*
X15250563Y7024500D01*
X15250565Y7024500D01*
X15349437Y7024500D01*
X15349437Y7024501D01*
X15444938Y7050090D01*
X15530562Y7099525D01*
X15600475Y7169438D01*
X15649910Y7255062D01*
X15675499Y7350563D01*
X15675500Y7350563D01*
X15675500Y7449437D01*
X15675499Y7449438D01*
X15667876Y7477886D01*
X15659831Y7507914D01*
X15649911Y7544935D01*
X15649909Y7544940D01*
X15618394Y7599525D01*
X15600475Y7630562D01*
X15547174Y7683863D01*
X15525500Y7736189D01*
X15525500Y8076365D01*
X15531809Y8106264D01*
X15537061Y8118156D01*
X15541170Y8122264D01*
X15575466Y8205062D01*
X15575501Y8205146D01*
X15575501Y8226366D01*
X15587972Y8267478D01*
X15591165Y8272260D01*
X15591170Y8272264D01*
X15602892Y8300563D01*
X15605390Y8306594D01*
X15605390Y8306595D01*
X15605765Y8307501D01*
X15625501Y8355146D01*
X15625501Y8444855D01*
X15625501Y8450813D01*
X15625500Y8450827D01*
X15625500Y8476365D01*
X15637972Y8517478D01*
X15641167Y8522262D01*
X15641170Y8522264D01*
X15652892Y8550563D01*
X15655390Y8556594D01*
X15655390Y8556595D01*
X15675501Y8605146D01*
X15675501Y8694855D01*
X15675501Y8700813D01*
X15675500Y8700827D01*
X15675500Y8726365D01*
X15687972Y8767478D01*
X15691167Y8772262D01*
X15691170Y8772264D01*
X15704789Y8805143D01*
X15705390Y8806594D01*
X15705390Y8806595D01*
X15725501Y8855146D01*
X15725501Y8944855D01*
X15725501Y8950813D01*
X15725500Y8950827D01*
X15725500Y10446526D01*
X15725500Y10455144D01*
X15725501Y10455145D01*
X15725501Y10499438D01*
X17174500Y10499438D01*
X17174500Y10400563D01*
X17200088Y10305066D01*
X17200090Y10305061D01*
X17227183Y10258135D01*
X17249525Y10219438D01*
X17319438Y10149525D01*
X17405062Y10100090D01*
X17405063Y10100090D01*
X17405065Y10100089D01*
X17452813Y10087295D01*
X17500562Y10074501D01*
X17500563Y10074500D01*
X17500565Y10074500D01*
X17599437Y10074500D01*
X17599437Y10074501D01*
X17694938Y10100090D01*
X17780562Y10149525D01*
X17850475Y10219438D01*
X17899910Y10305062D01*
X17925499Y10400563D01*
X17925500Y10400563D01*
X17925500Y10499437D01*
X17925499Y10499438D01*
X17922982Y10508830D01*
X17899910Y10594938D01*
X17899909Y10594940D01*
X17880973Y10627738D01*
X17850475Y10680562D01*
X17780562Y10750475D01*
X17747717Y10769438D01*
X17694939Y10799910D01*
X17694934Y10799912D01*
X17599437Y10825500D01*
X17599435Y10825500D01*
X17500565Y10825500D01*
X17500563Y10825500D01*
X17405065Y10799912D01*
X17405060Y10799910D01*
X17319437Y10750475D01*
X17249525Y10680563D01*
X17200090Y10594940D01*
X17200090Y10594938D01*
X17174500Y10499438D01*
X15725501Y10499438D01*
X15725501Y10544854D01*
X15704755Y10594938D01*
X15704754Y10594940D01*
X15691171Y10627734D01*
X15691170Y10627735D01*
X15691170Y10627736D01*
X15627736Y10691170D01*
X15623521Y10695385D01*
X15623514Y10695391D01*
X15547174Y10771731D01*
X15525500Y10824057D01*
X15525500Y12927010D01*
X15547174Y12979336D01*
X15599500Y13001010D01*
X15636501Y12991095D01*
X15684810Y12963203D01*
X15684812Y12963203D01*
X15684814Y12963201D01*
X15684815Y12963201D01*
X15684817Y12963200D01*
X15690785Y12961601D01*
X15799388Y12932501D01*
X15799389Y12932500D01*
X15799391Y12932500D01*
X15801055Y12932500D01*
X15801831Y12932179D01*
X15804198Y12931867D01*
X15804114Y12931233D01*
X15853381Y12910826D01*
X15875055Y12858500D01*
X15874500Y12850031D01*
X15874500Y12849435D01*
X15874500Y12750565D01*
X15882446Y12720911D01*
X15883524Y12716887D01*
X15876131Y12660734D01*
X15864371Y12645409D01*
X15799525Y12580563D01*
X15750090Y12494940D01*
X15750088Y12494935D01*
X15724500Y12399438D01*
X15724500Y12300563D01*
X15750088Y12205066D01*
X15750090Y12205061D01*
X15799525Y12119438D01*
X15869438Y12049525D01*
X15955062Y12000090D01*
X15955063Y12000090D01*
X15955065Y12000089D01*
X15979794Y11993463D01*
X16050562Y11974501D01*
X16050563Y11974500D01*
X16050565Y11974500D01*
X16149437Y11974500D01*
X16149437Y11974501D01*
X16244938Y12000090D01*
X16330562Y12049525D01*
X16400475Y12119438D01*
X16449910Y12205062D01*
X16475499Y12300563D01*
X16475500Y12300563D01*
X16475500Y12399437D01*
X16467916Y12427739D01*
X16466476Y12433113D01*
X16473868Y12489265D01*
X16485624Y12504588D01*
X16550475Y12569438D01*
X16599910Y12655062D01*
X16625499Y12750563D01*
X16625500Y12750563D01*
X16625500Y12849437D01*
X16625499Y12849438D01*
X16625302Y12850172D01*
X16609050Y12910826D01*
X16599911Y12944935D01*
X16599909Y12944940D01*
X16566772Y13002335D01*
X16550475Y13030562D01*
X16480562Y13100475D01*
X16450897Y13117602D01*
X16394939Y13149910D01*
X16394934Y13149912D01*
X16342976Y13163834D01*
X16298043Y13198313D01*
X16290651Y13254465D01*
X16295467Y13272442D01*
X16309199Y13323689D01*
X16309200Y13323689D01*
X16309200Y13442311D01*
X16309199Y13442312D01*
X16290687Y13511401D01*
X16298079Y13567554D01*
X16309835Y13582876D01*
X17027688Y14300730D01*
X17027691Y14300731D01*
X17038096Y14311136D01*
X17038097Y14311136D01*
X17108564Y14381603D01*
X17127672Y14427735D01*
X17146701Y14473673D01*
X17146701Y14573328D01*
X17146701Y14579286D01*
X17146700Y14579300D01*
X17146700Y15239888D01*
X17168373Y15292213D01*
X18141953Y16265794D01*
X18194278Y16287467D01*
X18196811Y16287300D01*
X18200391Y16287300D01*
X18319011Y16287300D01*
X18319011Y16287301D01*
X18433586Y16318001D01*
X18536313Y16377311D01*
X18598175Y16439174D01*
X18650500Y16460847D01*
X18702826Y16439173D01*
X18724500Y16386847D01*
X18724500Y15942086D01*
X18702826Y15889760D01*
X18650500Y15868086D01*
X18631348Y15870607D01*
X18575766Y15885500D01*
X18424234Y15885500D01*
X18424232Y15885500D01*
X18277869Y15846283D01*
X18277860Y15846279D01*
X18146637Y15770517D01*
X18039483Y15663363D01*
X17963721Y15532140D01*
X17963717Y15532131D01*
X17924500Y15385769D01*
X17924500Y15234232D01*
X17963717Y15087870D01*
X17963721Y15087861D01*
X18025500Y14980858D01*
X18039485Y14956635D01*
X18146635Y14849485D01*
X18277865Y14773719D01*
X18424231Y14734501D01*
X18424232Y14734500D01*
X18424234Y14734500D01*
X18575768Y14734500D01*
X18575768Y14734501D01*
X18722135Y14773719D01*
X18853365Y14849485D01*
X18853372Y14849493D01*
X18855446Y14851083D01*
X18856727Y14851427D01*
X18857565Y14851910D01*
X18857694Y14851686D01*
X18910152Y14865747D01*
X18959204Y14837433D01*
X18974500Y14792379D01*
X18974500Y14300827D01*
X18974499Y14300813D01*
X18974499Y14294855D01*
X18974499Y14205145D01*
X18995210Y14155145D01*
X19008829Y14122266D01*
X19012026Y14117482D01*
X19024500Y14076366D01*
X19024500Y13774058D01*
X19016424Y13740443D01*
X19011104Y13730011D01*
X19008830Y13727736D01*
X19008830Y13727735D01*
X19004007Y13716093D01*
X19004003Y13716084D01*
X18979105Y13655978D01*
X18963067Y13631974D01*
X18958830Y13627738D01*
X18953628Y13615177D01*
X18940250Y13582880D01*
X18929106Y13555977D01*
X18913065Y13531971D01*
X18458829Y13077736D01*
X18451866Y13060923D01*
X18451864Y13060920D01*
X18442781Y13038993D01*
X18408113Y13004324D01*
X18409262Y13002335D01*
X18319437Y12950475D01*
X18249525Y12880563D01*
X18200090Y12794940D01*
X18200088Y12794935D01*
X18174500Y12699438D01*
X18174500Y12600563D01*
X18200088Y12505066D01*
X18200090Y12505061D01*
X18241630Y12433112D01*
X18249525Y12419438D01*
X18319438Y12349525D01*
X18371550Y12319438D01*
X18404242Y12300563D01*
X18405062Y12300090D01*
X18405063Y12300090D01*
X18405065Y12300089D01*
X18407506Y12299435D01*
X18500562Y12274501D01*
X18500563Y12274500D01*
X18500565Y12274500D01*
X18599437Y12274500D01*
X18599437Y12274501D01*
X18694938Y12300090D01*
X18780562Y12349525D01*
X18850475Y12419438D01*
X18899910Y12505062D01*
X18925499Y12600563D01*
X18925500Y12600563D01*
X18925500Y12699437D01*
X18925499Y12699438D01*
X18919746Y12720909D01*
X18899910Y12794938D01*
X18896797Y12800330D01*
X18889406Y12856483D01*
X18908556Y12889652D01*
X19267327Y13248424D01*
X19267330Y13248425D01*
X19277735Y13258830D01*
X19277736Y13258830D01*
X19341170Y13322264D01*
X19352386Y13349343D01*
X19359243Y13365896D01*
X19370892Y13394020D01*
X19373071Y13398796D01*
X19378440Y13409534D01*
X19391170Y13422264D01*
X19411881Y13472265D01*
X19421903Y13496461D01*
X19423071Y13498796D01*
X19425477Y13500884D01*
X19436933Y13518028D01*
X19441170Y13522264D01*
X19455218Y13556181D01*
X19469266Y13590094D01*
X19469267Y13590098D01*
X19469268Y13590099D01*
X19475501Y13605146D01*
X19475501Y13694855D01*
X19475501Y13700813D01*
X19475500Y13700827D01*
X19475500Y14146525D01*
X19475501Y14146534D01*
X19475501Y14244854D01*
X19475500Y14244856D01*
X19448046Y14311136D01*
X19441170Y14327736D01*
X19437970Y14332525D01*
X19425500Y14373636D01*
X19425500Y15396525D01*
X19425501Y15396534D01*
X19425501Y15494853D01*
X19425501Y15494854D01*
X19400527Y15555145D01*
X19391170Y15577736D01*
X19380155Y15588751D01*
X19375329Y15597030D01*
X19374934Y15599930D01*
X19370892Y15605980D01*
X19350509Y15655189D01*
X19350509Y15655190D01*
X19341171Y15677734D01*
X19341169Y15677737D01*
X19336933Y15681973D01*
X19320892Y15705981D01*
X19300626Y15754906D01*
X19294161Y15770515D01*
X19291170Y15777736D01*
X19227736Y15841170D01*
X19223521Y15845385D01*
X19223514Y15845391D01*
X19197174Y15871731D01*
X19175500Y15924057D01*
X19175500Y16472885D01*
X19197174Y16525211D01*
X19249500Y16546885D01*
X19286499Y16536972D01*
X19366814Y16490601D01*
X19366815Y16490601D01*
X19366817Y16490600D01*
X19412195Y16478441D01*
X19481388Y16459901D01*
X19481389Y16459900D01*
X19481391Y16459900D01*
X19600011Y16459900D01*
X19600011Y16459901D01*
X19714586Y16490601D01*
X19763500Y16518843D01*
X19819652Y16526235D01*
X19864586Y16491757D01*
X19874500Y16454756D01*
X19874500Y13224058D01*
X19852826Y13171732D01*
X19258831Y12577737D01*
X19258829Y12577736D01*
X19252654Y12562828D01*
X19252651Y12562821D01*
X19250999Y12558830D01*
X19224499Y12494855D01*
X19224499Y12463364D01*
X19221701Y12453479D01*
X19216319Y12446666D01*
X19212031Y12432528D01*
X19208831Y12427739D01*
X19201939Y12411099D01*
X19174499Y12344856D01*
X19174499Y12246534D01*
X19174500Y12246525D01*
X19174500Y8686189D01*
X19152826Y8633863D01*
X19099525Y8580563D01*
X19050090Y8494940D01*
X19050088Y8494935D01*
X19024500Y8399438D01*
X19024500Y8300563D01*
X19050088Y8205066D01*
X19050090Y8205061D01*
X19093737Y8129463D01*
X19099525Y8119438D01*
X19169438Y8049525D01*
X19255062Y8000090D01*
X19255063Y8000090D01*
X19255065Y8000089D01*
X19284933Y7992086D01*
X19350562Y7974501D01*
X19350563Y7974500D01*
X19350565Y7974500D01*
X19449437Y7974500D01*
X19449437Y7974501D01*
X19544938Y8000090D01*
X19630562Y8049525D01*
X19700475Y8119438D01*
X19749910Y8205062D01*
X19775499Y8300563D01*
X19775500Y8300563D01*
X19775500Y8399437D01*
X19775499Y8399438D01*
X19749911Y8494935D01*
X19749909Y8494940D01*
X19732842Y8524501D01*
X19700475Y8580562D01*
X19647174Y8633863D01*
X19625500Y8686189D01*
X19625500Y11846721D01*
X19647174Y11899047D01*
X19699500Y11920721D01*
X19736501Y11910806D01*
X19755057Y11900092D01*
X19755065Y11900089D01*
X19802813Y11887295D01*
X19850562Y11874501D01*
X19850563Y11874500D01*
X19850565Y11874500D01*
X19949437Y11874500D01*
X19949437Y11874501D01*
X20044938Y11900090D01*
X20130562Y11949525D01*
X20200475Y12019438D01*
X20249910Y12105062D01*
X20275499Y12200563D01*
X20275500Y12200563D01*
X20275500Y12299437D01*
X20275499Y12299438D01*
X20249911Y12394935D01*
X20249909Y12394940D01*
X20227870Y12433112D01*
X20200475Y12480562D01*
X20130562Y12550475D01*
X20048496Y12597856D01*
X20014019Y12642788D01*
X20021411Y12698941D01*
X20033168Y12714265D01*
X20217327Y12898424D01*
X20217330Y12898425D01*
X20227735Y12908830D01*
X20227736Y12908830D01*
X20291170Y12972264D01*
X20298970Y12991095D01*
X20307478Y13011635D01*
X20307478Y13011636D01*
X20325501Y13055146D01*
X20325501Y13150813D01*
X20325500Y13150827D01*
X20325500Y16996525D01*
X20325501Y16996534D01*
X20325501Y17094853D01*
X20325501Y17094854D01*
X20300527Y17155145D01*
X20291170Y17177736D01*
X20280155Y17188751D01*
X20275329Y17197030D01*
X20274934Y17199930D01*
X20270892Y17205980D01*
X20250527Y17255145D01*
X20241170Y17277736D01*
X20241166Y17277740D01*
X20237968Y17282528D01*
X20225500Y17323636D01*
X20225500Y19994855D01*
X20225499Y19994857D01*
X20225465Y19994938D01*
X20202891Y20049438D01*
X20191171Y20077734D01*
X20191169Y20077737D01*
X20123521Y20145385D01*
X20123514Y20145391D01*
X19497174Y20771731D01*
X19475500Y20824057D01*
X19475500Y22894855D01*
X19475499Y22894857D01*
X19474529Y22897198D01*
X19441170Y22977736D01*
X19377736Y23041170D01*
X19377735Y23041171D01*
X19246101Y23172805D01*
X19217798Y23201108D01*
X19196124Y23253434D01*
X19217798Y23305760D01*
X19250968Y23324911D01*
X19344938Y23350090D01*
X19430562Y23399525D01*
X19500475Y23469438D01*
X19549910Y23555062D01*
X19575499Y23650563D01*
X19575500Y23650563D01*
X19575500Y23749437D01*
X19575499Y23749438D01*
X19575214Y23750500D01*
X19550920Y23841170D01*
X19549911Y23844935D01*
X19549909Y23844940D01*
X19528528Y23881972D01*
X19500475Y23930562D01*
X19430562Y24000475D01*
X19403672Y24016000D01*
X19344939Y24049910D01*
X19344934Y24049912D01*
X19244750Y24076756D01*
X19245460Y24079407D01*
X19204000Y24103346D01*
X19194345Y24120070D01*
X19191170Y24127736D01*
X19127736Y24191170D01*
X19127735Y24191171D01*
X18951578Y24367328D01*
X18877737Y24441169D01*
X18877733Y24441172D01*
X18848627Y24453228D01*
X18848621Y24453230D01*
X18843997Y24455145D01*
X18794855Y24475501D01*
X18764053Y24475501D01*
X18754788Y24477941D01*
X18747620Y24483392D01*
X18732522Y24487972D01*
X18727737Y24491169D01*
X18727736Y24491170D01*
X18694830Y24504800D01*
X18644855Y24525501D01*
X18555145Y24525501D01*
X18546533Y24525501D01*
X18546525Y24525500D01*
X16953475Y24525500D01*
X16953467Y24525501D01*
X16944855Y24525501D01*
X16855146Y24525501D01*
X16806594Y24505392D01*
X16806595Y24505391D01*
X16772264Y24491171D01*
X16767481Y24487974D01*
X16726365Y24475500D01*
X16053475Y24475500D01*
X16053467Y24475501D01*
X16044855Y24475501D01*
X15955146Y24475501D01*
X15906594Y24455392D01*
X15906595Y24455391D01*
X15872263Y24441171D01*
X15867484Y24437976D01*
X15826367Y24425501D01*
X15805146Y24425501D01*
X15756594Y24405392D01*
X15756595Y24405391D01*
X15722264Y24391171D01*
X15717481Y24387974D01*
X15676365Y24375500D01*
X15253475Y24375500D01*
X15253467Y24375501D01*
X15244855Y24375501D01*
X15155146Y24375501D01*
X15106594Y24355392D01*
X15106595Y24355391D01*
X15072267Y24341172D01*
X15072263Y24341170D01*
X15068024Y24336930D01*
X15044019Y24320892D01*
X14972266Y24291172D01*
X14972263Y24291170D01*
X14778269Y24097174D01*
X14725943Y24075500D01*
X14103475Y24075500D01*
X14103467Y24075501D01*
X14094855Y24075501D01*
X14005146Y24075501D01*
X13956594Y24055392D01*
X13956595Y24055391D01*
X13922267Y24041172D01*
X13922259Y24041167D01*
X13918022Y24036930D01*
X13894022Y24020894D01*
X13871864Y24011716D01*
X13856595Y24005391D01*
X13856594Y24005391D01*
X13822267Y23991172D01*
X13822263Y23991170D01*
X13818024Y23986930D01*
X13794019Y23970892D01*
X13722266Y23941172D01*
X13722263Y23941169D01*
X13558830Y23777737D01*
X13555663Y23770089D01*
X13555661Y23770086D01*
X13529105Y23705978D01*
X13513068Y23681975D01*
X13508829Y23677736D01*
X13500999Y23658830D01*
X13500998Y23658829D01*
X13479105Y23605978D01*
X13463070Y23581978D01*
X13458833Y23577741D01*
X13458829Y23577735D01*
X13452632Y23562773D01*
X13424499Y23494855D01*
X13424499Y23396534D01*
X13424500Y23396525D01*
X13424500Y22236189D01*
X13402826Y22183863D01*
X13349525Y22130563D01*
X13300090Y22044940D01*
X13300088Y22044935D01*
X13274500Y21949438D01*
X13274500Y21850563D01*
X13300088Y21755066D01*
X13300090Y21755061D01*
X13331605Y21700476D01*
X13349525Y21669438D01*
X13419438Y21599525D01*
X13505062Y21550090D01*
X13505063Y21550090D01*
X13505065Y21550089D01*
X13552813Y21537295D01*
X13600562Y21524501D01*
X13600563Y21524500D01*
X13600565Y21524500D01*
X13699437Y21524500D01*
X13699437Y21524501D01*
X13794938Y21550090D01*
X13880562Y21599525D01*
X13950475Y21669438D01*
X13999910Y21755062D01*
X14025499Y21850563D01*
X14025500Y21850563D01*
X14025500Y21949437D01*
X14025499Y21949438D01*
X14023725Y21956057D01*
X13999932Y22044855D01*
X13999911Y22044935D01*
X13999909Y22044940D01*
X13972112Y22093086D01*
X13950475Y22130562D01*
X13897174Y22183863D01*
X13875500Y22236189D01*
X13875500Y22843287D01*
X13897174Y22895613D01*
X13949500Y22917287D01*
X13986500Y22907373D01*
X13990358Y22905145D01*
X14026110Y22884503D01*
X14026112Y22884503D01*
X14026114Y22884501D01*
X14026115Y22884501D01*
X14026117Y22884500D01*
X14051361Y22877736D01*
X14140688Y22853801D01*
X14140689Y22853800D01*
X14140691Y22853800D01*
X14259310Y22853800D01*
X14278081Y22858830D01*
X14321147Y22870370D01*
X14377299Y22862979D01*
X14411778Y22818046D01*
X14414300Y22798892D01*
X14414300Y20164253D01*
X14392626Y20111927D01*
X14340300Y20090253D01*
X14287975Y20111927D01*
X14276613Y20123289D01*
X14276610Y20123291D01*
X14276609Y20123292D01*
X14173887Y20182599D01*
X14173882Y20182601D01*
X14059311Y20213300D01*
X14059309Y20213300D01*
X13940691Y20213300D01*
X13940689Y20213300D01*
X13826117Y20182601D01*
X13826112Y20182599D01*
X13723390Y20123292D01*
X13636081Y20035983D01*
X13634157Y20037907D01*
X13592651Y20013934D01*
X13582981Y20013300D01*
X12472272Y20013300D01*
X12380205Y19975166D01*
X12309735Y19904696D01*
X12172174Y19767136D01*
X12119848Y19745462D01*
X12067522Y19767136D01*
X12051478Y19791151D01*
X12049909Y19794940D01*
X12018444Y19849438D01*
X12000475Y19880562D01*
X11930562Y19950475D01*
X11930406Y19950565D01*
X11844939Y19999910D01*
X11844934Y19999912D01*
X11749437Y20025500D01*
X11749435Y20025500D01*
X11650565Y20025500D01*
X11588975Y20008998D01*
X11532823Y20016390D01*
X11498344Y20061323D01*
X11500868Y20099784D01*
X11498655Y20100377D01*
X11511927Y20149910D01*
X11525499Y20200563D01*
X11525500Y20200563D01*
X11525500Y20299437D01*
X11525499Y20299438D01*
X11499911Y20394935D01*
X11499909Y20394940D01*
X11471044Y20444935D01*
X11450475Y20480562D01*
X11397174Y20533863D01*
X11375500Y20586189D01*
X11375500Y22246525D01*
X11375501Y22246534D01*
X11375501Y22344854D01*
X11364147Y22372265D01*
X11349001Y22408830D01*
X11341170Y22427736D01*
X11338055Y22430851D01*
X11333041Y22441090D01*
X11332432Y22450781D01*
X11325500Y22473636D01*
X11325500Y22496525D01*
X11325501Y22496534D01*
X11325501Y22594854D01*
X11325500Y22594856D01*
X11319711Y22608831D01*
X11304790Y22644855D01*
X11291170Y22677736D01*
X11286930Y22681976D01*
X11273071Y22701204D01*
X11271903Y22703540D01*
X11248018Y22761203D01*
X11241170Y22777736D01*
X11228440Y22790466D01*
X11223071Y22801205D01*
X11222950Y22802901D01*
X11220892Y22805981D01*
X11199001Y22858830D01*
X11197104Y22863409D01*
X11191170Y22877736D01*
X11191169Y22877737D01*
X11191169Y22877738D01*
X11187970Y22882526D01*
X11175501Y22923635D01*
X11175501Y22944854D01*
X11173603Y22949435D01*
X11149001Y23008830D01*
X11141170Y23027736D01*
X11130416Y23038490D01*
X11125697Y23046406D01*
X11125252Y23049456D01*
X11120892Y23055981D01*
X11099001Y23108830D01*
X11091170Y23127736D01*
X11086933Y23131973D01*
X11070892Y23155980D01*
X11070661Y23156537D01*
X11046445Y23215000D01*
X11041170Y23227736D01*
X11036933Y23231973D01*
X11020892Y23255981D01*
X10999001Y23308830D01*
X10991170Y23327736D01*
X10986933Y23331973D01*
X10971652Y23354211D01*
X10971265Y23355081D01*
X10954647Y23395200D01*
X10941170Y23427736D01*
X10937134Y23431772D01*
X10931894Y23443547D01*
X10931637Y23453404D01*
X10925501Y23473635D01*
X10925501Y23494854D01*
X10925500Y23494856D01*
X10909844Y23532652D01*
X10897368Y23562773D01*
X10891170Y23577736D01*
X10886930Y23581976D01*
X10873071Y23601204D01*
X10871903Y23603539D01*
X10849001Y23658830D01*
X10841170Y23677736D01*
X10828440Y23690466D01*
X10823071Y23701205D01*
X10822950Y23702901D01*
X10820892Y23705981D01*
X10804256Y23746144D01*
X10800149Y23756058D01*
X10791170Y23777736D01*
X10786930Y23781976D01*
X10770893Y23805977D01*
X10754256Y23846144D01*
X10741170Y23877736D01*
X10736930Y23881976D01*
X10721652Y23904210D01*
X10721270Y23905068D01*
X10699001Y23958830D01*
X10691170Y23977736D01*
X10687134Y23981772D01*
X10681894Y23993547D01*
X10681637Y24003404D01*
X10675501Y24023635D01*
X10675501Y24044854D01*
X10670290Y24057435D01*
X10649001Y24108830D01*
X10641170Y24127736D01*
X10630416Y24138490D01*
X10625697Y24146406D01*
X10625252Y24149456D01*
X10620892Y24155981D01*
X10600527Y24205146D01*
X10591170Y24227736D01*
X10586933Y24231973D01*
X10570892Y24255980D01*
X10550527Y24305145D01*
X10541170Y24327736D01*
X10536933Y24331973D01*
X10520892Y24355980D01*
X10516191Y24367328D01*
X10500527Y24405145D01*
X10491170Y24427736D01*
X10491169Y24427737D01*
X10491168Y24427740D01*
X10487969Y24432528D01*
X10475501Y24473635D01*
X10475501Y24494854D01*
X10471136Y24505392D01*
X10464181Y24522183D01*
X10464181Y24578818D01*
X10504229Y24618867D01*
X10532548Y24624500D01*
X14354798Y24624500D01*
X14354800Y24624500D01*
X14456058Y24666443D01*
X14456058Y24666444D01*
X14461910Y24668867D01*
X14490229Y24674500D01*
X18254798Y24674500D01*
X18254800Y24674500D01*
X18356058Y24716443D01*
X18433557Y24793942D01*
X18826617Y25187003D01*
X18878942Y25208676D01*
X18931268Y25187002D01*
X18947336Y25159170D01*
X18948235Y25159541D01*
X18950090Y25155061D01*
X18972954Y25115460D01*
X18999525Y25069438D01*
X19069438Y24999525D01*
X19155062Y24950090D01*
X19155063Y24950090D01*
X19155065Y24950089D01*
X19202813Y24937295D01*
X19250562Y24924501D01*
X19250563Y24924500D01*
X19250565Y24924500D01*
X19349437Y24924500D01*
X19349437Y24924501D01*
X19444938Y24950090D01*
X19530562Y24999525D01*
X19600475Y25069438D01*
X19649910Y25155062D01*
X19675499Y25250563D01*
X19675500Y25250563D01*
X19675500Y25349437D01*
X19675499Y25349438D01*
X19649911Y25444935D01*
X19649908Y25444943D01*
X19639194Y25463499D01*
X19631800Y25519652D01*
X19666278Y25564585D01*
X19703279Y25574500D01*
X22004798Y25574500D01*
X22004800Y25574500D01*
X22106058Y25616443D01*
X22183557Y25693942D01*
X22183556Y25693942D01*
X22292442Y25802827D01*
X22295045Y25803905D01*
X22344767Y25824500D01*
X22349437Y25824500D01*
X22349437Y25824501D01*
X22444938Y25850090D01*
X22530562Y25899525D01*
X22600475Y25969438D01*
X22649910Y26055062D01*
X22675499Y26150563D01*
X22675500Y26150563D01*
X22675500Y26249437D01*
X22675499Y26249438D01*
X22649911Y26344935D01*
X22649909Y26344940D01*
X22615197Y26405062D01*
X22600475Y26430562D01*
X22530562Y26500475D01*
X22521694Y26505595D01*
X22444939Y26549910D01*
X22444934Y26549912D01*
X22349437Y26575500D01*
X22349435Y26575500D01*
X22250565Y26575500D01*
X22250563Y26575500D01*
X22155065Y26549912D01*
X22155060Y26549910D01*
X22069437Y26500475D01*
X21999525Y26430563D01*
X21950090Y26344940D01*
X21950088Y26344935D01*
X21924500Y26249438D01*
X21924500Y26244768D01*
X21902826Y26192443D01*
X21857559Y26147175D01*
X21805234Y26125500D01*
X21305314Y26125500D01*
X21252988Y26147174D01*
X21231314Y26199500D01*
X21252988Y26251826D01*
X21268314Y26263586D01*
X21275432Y26267696D01*
X21330562Y26299525D01*
X21400475Y26369438D01*
X21449910Y26455062D01*
X21475499Y26550563D01*
X21475500Y26550563D01*
X21475500Y26649437D01*
X21475499Y26649438D01*
X21449911Y26744935D01*
X21449909Y26744940D01*
X21400474Y26830563D01*
X21330562Y26900475D01*
X21244939Y26949910D01*
X21244934Y26949912D01*
X21144750Y26976756D01*
X21145363Y26979045D01*
X21103065Y27003472D01*
X21088412Y27058181D01*
X21116736Y27107227D01*
X21137955Y27117689D01*
X21137807Y27118046D01*
X21142281Y27119900D01*
X21142286Y27119901D01*
X21245013Y27179211D01*
X21328889Y27263087D01*
X21388199Y27365814D01*
X21418899Y27480389D01*
X21418900Y27480389D01*
X21418900Y27603859D01*
X21421625Y27603859D01*
X21434004Y27650144D01*
X21440398Y27657440D01*
X21610786Y27827826D01*
X21663112Y27849500D01*
X22725187Y27849500D01*
X22777513Y27827826D01*
X22955195Y27650144D01*
X23127792Y27477548D01*
X23149466Y27425222D01*
X23149300Y27422686D01*
X23149300Y27300489D01*
X23179999Y27185918D01*
X23180001Y27185913D01*
X23239308Y27083191D01*
X23239309Y27083190D01*
X23239311Y27083187D01*
X23323187Y26999311D01*
X23323189Y26999310D01*
X23323190Y26999309D01*
X23423889Y26941170D01*
X23425914Y26940001D01*
X23425915Y26940001D01*
X23425917Y26940000D01*
X23483202Y26924651D01*
X23540488Y26909301D01*
X23540489Y26909300D01*
X23540491Y26909300D01*
X23659111Y26909300D01*
X23659111Y26909301D01*
X23773686Y26940001D01*
X23876413Y26999311D01*
X23960289Y27083187D01*
X24019599Y27185914D01*
X24050299Y27300489D01*
X24050300Y27300489D01*
X24050300Y27419111D01*
X24050299Y27419112D01*
X24049341Y27422686D01*
X24019599Y27533686D01*
X24019598Y27533688D01*
X23960291Y27636410D01*
X23960290Y27636411D01*
X23960289Y27636413D01*
X23876413Y27720289D01*
X23876410Y27720291D01*
X23876409Y27720292D01*
X23773687Y27779599D01*
X23773682Y27779601D01*
X23659111Y27810300D01*
X23659109Y27810300D01*
X23540491Y27810300D01*
X23535641Y27810300D01*
X23535641Y27813013D01*
X23489317Y27825436D01*
X23482052Y27831808D01*
X23001497Y28312364D01*
X23001494Y28312366D01*
X22909428Y28350500D01*
X21478872Y28350500D01*
X21386805Y28312366D01*
X21316335Y28241896D01*
X21086146Y28011708D01*
X21033820Y27990034D01*
X21031287Y27990200D01*
X21027709Y27990200D01*
X20909091Y27990200D01*
X20909089Y27990200D01*
X20794517Y27959501D01*
X20794512Y27959499D01*
X20691790Y27900192D01*
X20607908Y27816310D01*
X20548601Y27713588D01*
X20548599Y27713583D01*
X20517900Y27599012D01*
X20517900Y27480389D01*
X20548599Y27365818D01*
X20548601Y27365813D01*
X20607908Y27263091D01*
X20607909Y27263090D01*
X20607911Y27263087D01*
X20691787Y27179211D01*
X20691789Y27179210D01*
X20691790Y27179209D01*
X20780945Y27127735D01*
X20794514Y27119901D01*
X20794515Y27119901D01*
X20794517Y27119900D01*
X20804120Y27117327D01*
X20909088Y27089201D01*
X20909089Y27089200D01*
X20920147Y27089200D01*
X20972473Y27067526D01*
X20994147Y27015200D01*
X20972473Y26962874D01*
X20957147Y26951114D01*
X20869437Y26900475D01*
X20799525Y26830563D01*
X20750090Y26744940D01*
X20750088Y26744935D01*
X20724500Y26649438D01*
X20724500Y26550563D01*
X20750088Y26455066D01*
X20750090Y26455061D01*
X20778957Y26405062D01*
X20799525Y26369438D01*
X20869438Y26299525D01*
X20879938Y26293463D01*
X20931686Y26263586D01*
X20966165Y26218652D01*
X20958772Y26162500D01*
X20913838Y26128021D01*
X20894686Y26125500D01*
X19195200Y26125500D01*
X19088087Y26081133D01*
X19059769Y26075500D01*
X19045200Y26075500D01*
X18943943Y26033559D01*
X18943934Y26033553D01*
X18939698Y26029317D01*
X18915698Y26013281D01*
X18843944Y25983558D01*
X18843943Y25983558D01*
X18107559Y25247174D01*
X18055233Y25225500D01*
X15653279Y25225500D01*
X15600953Y25247174D01*
X15579279Y25299500D01*
X15589194Y25336501D01*
X15599908Y25355058D01*
X15599911Y25355066D01*
X15612102Y25400563D01*
X15625499Y25450563D01*
X15625500Y25450563D01*
X15625500Y25549437D01*
X15625499Y25549438D01*
X15621440Y25564585D01*
X15599910Y25644938D01*
X15550475Y25730562D01*
X15480562Y25800475D01*
X15474621Y25803905D01*
X15394939Y25849910D01*
X15394934Y25849912D01*
X15299437Y25875500D01*
X15299435Y25875500D01*
X15200565Y25875500D01*
X15200563Y25875500D01*
X15105065Y25849912D01*
X15105060Y25849910D01*
X15019437Y25800475D01*
X14977326Y25758363D01*
X14925000Y25736689D01*
X14872674Y25758363D01*
X14830562Y25800475D01*
X14744939Y25849910D01*
X14744934Y25849912D01*
X14649437Y25875500D01*
X14649435Y25875500D01*
X14550565Y25875500D01*
X14550557Y25875500D01*
X14546741Y25874477D01*
X14490590Y25881877D01*
X14475273Y25893632D01*
X14351578Y26017327D01*
X14351578Y26017328D01*
X14277738Y26091168D01*
X14277736Y26091170D01*
X14253460Y26101226D01*
X14253458Y26101227D01*
X14253458Y26101228D01*
X14194855Y26125501D01*
X14173634Y26125501D01*
X14134035Y26136988D01*
X14128259Y26140647D01*
X14127736Y26141170D01*
X14097109Y26153856D01*
X14044855Y26175501D01*
X13955145Y26175501D01*
X13946533Y26175501D01*
X13946525Y26175500D01*
X8924057Y26175500D01*
X8871731Y26197174D01*
X8866293Y26202612D01*
X16893700Y26202612D01*
X16893700Y26083989D01*
X16924399Y25969418D01*
X16924401Y25969413D01*
X16983708Y25866691D01*
X16983709Y25866690D01*
X16983711Y25866687D01*
X17067587Y25782811D01*
X17067589Y25782810D01*
X17067590Y25782809D01*
X17170312Y25723502D01*
X17170314Y25723501D01*
X17170315Y25723501D01*
X17170317Y25723500D01*
X17227602Y25708151D01*
X17284888Y25692801D01*
X17284889Y25692800D01*
X17284891Y25692800D01*
X17403511Y25692800D01*
X17403511Y25692801D01*
X17518086Y25723501D01*
X17620813Y25782811D01*
X17704689Y25866687D01*
X17763999Y25969414D01*
X17794699Y26083989D01*
X17794700Y26083989D01*
X17794700Y26202611D01*
X17794699Y26202612D01*
X17764000Y26317183D01*
X17763998Y26317188D01*
X17704691Y26419910D01*
X17704690Y26419911D01*
X17704689Y26419913D01*
X17620813Y26503789D01*
X17620810Y26503791D01*
X17620809Y26503792D01*
X17518087Y26563099D01*
X17518082Y26563101D01*
X17403511Y26593800D01*
X17403509Y26593800D01*
X17284891Y26593800D01*
X17284889Y26593800D01*
X17170317Y26563101D01*
X17170312Y26563099D01*
X17067590Y26503792D01*
X16983708Y26419910D01*
X16924401Y26317188D01*
X16924399Y26317183D01*
X16893700Y26202612D01*
X8866293Y26202612D01*
X7951578Y27117327D01*
X7951578Y27117328D01*
X7877737Y27191169D01*
X7877733Y27191172D01*
X7848468Y27203294D01*
X7848462Y27203296D01*
X7843833Y27205213D01*
X7794855Y27225501D01*
X7764064Y27225501D01*
X7754805Y27227937D01*
X7747635Y27233388D01*
X7732523Y27237971D01*
X7727737Y27241169D01*
X7727736Y27241170D01*
X7703460Y27251226D01*
X7703458Y27251227D01*
X7703458Y27251228D01*
X7644855Y27275501D01*
X7555145Y27275501D01*
X7544855Y27275501D01*
X7455146Y27275501D01*
X7406594Y27255392D01*
X7406595Y27255391D01*
X7372264Y27241171D01*
X7367481Y27237974D01*
X7326365Y27225500D01*
X7305145Y27225500D01*
X7222266Y27191172D01*
X6908831Y26877737D01*
X6908829Y26877736D01*
X6902639Y26862791D01*
X6902637Y26862786D01*
X6900999Y26858830D01*
X6874499Y26794855D01*
X6874499Y26763751D01*
X6871681Y26753832D01*
X6862451Y26742171D01*
X6864464Y26741337D01*
X6858831Y26727737D01*
X6858830Y26727735D01*
X6824499Y26644856D01*
X6824499Y26546534D01*
X6824500Y26546525D01*
X6824500Y22124058D01*
X6802826Y22071732D01*
X6028268Y21297174D01*
X5975942Y21275500D01*
X5900563Y21275500D01*
X5805065Y21249912D01*
X5805060Y21249910D01*
X5719437Y21200475D01*
X5649525Y21130563D01*
X5600090Y21044940D01*
X5600088Y21044935D01*
X5574500Y20949438D01*
X5574500Y20850563D01*
X5600088Y20755066D01*
X5600090Y20755061D01*
X5614234Y20730563D01*
X5649525Y20669438D01*
X5719438Y20599525D01*
X5782778Y20562956D01*
X5817257Y20518023D01*
X5809866Y20461871D01*
X5800090Y20444938D01*
X5800088Y20444935D01*
X5774500Y20349438D01*
X5774500Y20250563D01*
X5800088Y20155066D01*
X5800090Y20155061D01*
X5844734Y20077737D01*
X5849525Y20069438D01*
X5919438Y19999525D01*
X5927527Y19994855D01*
X6004242Y19950563D01*
X6005062Y19950090D01*
X6005063Y19950090D01*
X6005065Y19950089D01*
X6044730Y19939461D01*
X6100562Y19924501D01*
X6100563Y19924500D01*
X6100565Y19924500D01*
X6199437Y19924500D01*
X6199437Y19924501D01*
X6294938Y19950090D01*
X6380562Y19999525D01*
X6450475Y20069438D01*
X6499910Y20155062D01*
X6525499Y20250563D01*
X6525500Y20250563D01*
X6525500Y20349437D01*
X6525499Y20349438D01*
X6520925Y20366507D01*
X6499910Y20444938D01*
X6450475Y20530562D01*
X6380562Y20600475D01*
X6317219Y20637046D01*
X6282742Y20681978D01*
X6290133Y20738130D01*
X6299910Y20755062D01*
X6325499Y20850563D01*
X6325500Y20850563D01*
X6325500Y20925944D01*
X6347174Y20978270D01*
X6748295Y21379391D01*
X7167327Y21798423D01*
X7167330Y21798425D01*
X7177735Y21808830D01*
X7177736Y21808830D01*
X7241170Y21872264D01*
X7263221Y21925500D01*
X7275501Y21955145D01*
X7275501Y22044855D01*
X7275501Y22050813D01*
X7275500Y22050827D01*
X7275500Y22677861D01*
X7278399Y22684863D01*
X7276921Y22692295D01*
X7288913Y22710244D01*
X7297174Y22730187D01*
X7304176Y22733088D01*
X7308386Y22739388D01*
X7329556Y22743601D01*
X7349500Y22751861D01*
X7356501Y22748962D01*
X7363934Y22750440D01*
X7381882Y22738448D01*
X7401826Y22730187D01*
X7411027Y22718975D01*
X7412026Y22717480D01*
X7424499Y22676366D01*
X7424499Y22655145D01*
X7429106Y22644023D01*
X7443684Y22608830D01*
X7458829Y22572265D01*
X7502826Y22528268D01*
X7524500Y22475942D01*
X7524500Y21686189D01*
X7502826Y21633863D01*
X7499525Y21630563D01*
X7450090Y21544940D01*
X7450088Y21544935D01*
X7424500Y21449438D01*
X7424500Y21350563D01*
X7450088Y21255066D01*
X7450090Y21255061D01*
X7493301Y21180218D01*
X7499525Y21169438D01*
X7569438Y21099525D01*
X7655062Y21050090D01*
X7655063Y21050090D01*
X7655065Y21050089D01*
X7676077Y21044459D01*
X7750562Y21024501D01*
X7750563Y21024500D01*
X7750565Y21024500D01*
X7849437Y21024500D01*
X7849437Y21024501D01*
X7944938Y21050090D01*
X8030562Y21099525D01*
X8100475Y21169438D01*
X8149910Y21255062D01*
X8175499Y21350563D01*
X8175500Y21350563D01*
X8175500Y21449437D01*
X8175499Y21449438D01*
X8149911Y21544935D01*
X8149909Y21544940D01*
X8118394Y21599525D01*
X8100475Y21630562D01*
X8030562Y21700475D01*
X8012499Y21710904D01*
X7978021Y21755837D01*
X7975500Y21774989D01*
X7975500Y22450500D01*
X7997174Y22502826D01*
X8049500Y22524500D01*
X8149437Y22524500D01*
X8149437Y22524501D01*
X8244938Y22550090D01*
X8330562Y22599525D01*
X8400475Y22669438D01*
X8436414Y22731688D01*
X8481347Y22766165D01*
X8537500Y22758773D01*
X8571978Y22713840D01*
X8574500Y22694687D01*
X8574500Y22044767D01*
X8552827Y21992442D01*
X8516442Y21956057D01*
X8516442Y21956056D01*
X8486718Y21884299D01*
X8484539Y21879525D01*
X8479168Y21868785D01*
X8466443Y21856058D01*
X8435715Y21781878D01*
X8434539Y21779525D01*
X8432133Y21777439D01*
X8420680Y21760296D01*
X8416443Y21756060D01*
X8374500Y21654800D01*
X8374500Y20785189D01*
X8352826Y20732863D01*
X8300500Y20711189D01*
X8248174Y20732863D01*
X8180562Y20800475D01*
X8094939Y20849910D01*
X8094934Y20849912D01*
X7999437Y20875500D01*
X7999435Y20875500D01*
X7900565Y20875500D01*
X7900563Y20875500D01*
X7805065Y20849912D01*
X7805060Y20849910D01*
X7719437Y20800475D01*
X7649525Y20730563D01*
X7600090Y20644940D01*
X7600088Y20644935D01*
X7574500Y20549438D01*
X7574500Y20474058D01*
X7552826Y20421732D01*
X5095323Y17964230D01*
X5042997Y17942556D01*
X4990671Y17964230D01*
X4968997Y18016556D01*
X4971517Y18035704D01*
X4975500Y18050565D01*
X4975500Y18149435D01*
X4975500Y18149437D01*
X4975499Y18149438D01*
X4949911Y18244935D01*
X4949909Y18244940D01*
X4927119Y18284413D01*
X4900475Y18330562D01*
X4830562Y18400475D01*
X4822837Y18404935D01*
X4744939Y18449910D01*
X4744934Y18449912D01*
X4649437Y18475500D01*
X4649435Y18475500D01*
X4550565Y18475500D01*
X4550563Y18475500D01*
X4455065Y18449912D01*
X4455060Y18449910D01*
X4369437Y18400475D01*
X4299525Y18330563D01*
X4250090Y18244940D01*
X4250088Y18244935D01*
X4224500Y18149438D01*
X4224500Y18050563D01*
X4250088Y17955066D01*
X4250090Y17955061D01*
X4287047Y17891051D01*
X4299525Y17869438D01*
X4369438Y17799525D01*
X4455062Y17750090D01*
X4455063Y17750090D01*
X4455065Y17750089D01*
X4502813Y17737295D01*
X4550562Y17724501D01*
X4550563Y17724500D01*
X4550565Y17724500D01*
X4649435Y17724500D01*
X4664291Y17728481D01*
X4720443Y17721090D01*
X4754923Y17676158D01*
X4747532Y17620005D01*
X4735771Y17604677D01*
X3628269Y16497174D01*
X3575943Y16475500D01*
X3550563Y16475500D01*
X3455065Y16449912D01*
X3455060Y16449910D01*
X3369437Y16400475D01*
X3299525Y16330563D01*
X3250090Y16244940D01*
X3250088Y16244935D01*
X3224500Y16149438D01*
X3224500Y16050563D01*
X3250088Y15955066D01*
X3250090Y15955061D01*
X3298201Y15871731D01*
X3299525Y15869438D01*
X3369438Y15799525D01*
X3419685Y15770515D01*
X3447591Y15754403D01*
X3455062Y15750090D01*
X3455063Y15750090D01*
X3455065Y15750089D01*
X3502813Y15737295D01*
X3550562Y15724501D01*
X3550563Y15724500D01*
X3550565Y15724500D01*
X3649437Y15724500D01*
X3649437Y15724501D01*
X3744938Y15750090D01*
X3830562Y15799525D01*
X3900475Y15869438D01*
X3949910Y15955062D01*
X3975499Y16050563D01*
X3975500Y16050563D01*
X3975500Y16149436D01*
X3974480Y16153241D01*
X3981866Y16209394D01*
X3993626Y16224723D01*
X6425356Y18656453D01*
X6477681Y18678126D01*
X6530007Y18656452D01*
X6551681Y18604126D01*
X6541767Y18567126D01*
X6500091Y18494941D01*
X6500088Y18494935D01*
X6474500Y18399438D01*
X6474500Y18300563D01*
X6500088Y18205066D01*
X6500090Y18205061D01*
X6541453Y18133419D01*
X6549525Y18119438D01*
X6619438Y18049525D01*
X6705062Y18000090D01*
X6705063Y18000090D01*
X6705065Y18000089D01*
X6723065Y17995266D01*
X6800562Y17974501D01*
X6800563Y17974500D01*
X6800565Y17974500D01*
X6899437Y17974500D01*
X6899437Y17974501D01*
X6994938Y18000090D01*
X7080562Y18049525D01*
X7150475Y18119438D01*
X7199910Y18205062D01*
X7225499Y18300563D01*
X7225500Y18300563D01*
X7225500Y18399437D01*
X7225499Y18399438D01*
X7199911Y18494935D01*
X7199909Y18494940D01*
X7170121Y18546534D01*
X7150475Y18580562D01*
X7080562Y18650475D01*
X7067125Y18658233D01*
X6994939Y18699910D01*
X6994934Y18699912D01*
X6899437Y18725500D01*
X6899435Y18725500D01*
X6800565Y18725500D01*
X6800563Y18725500D01*
X6705065Y18699912D01*
X6705059Y18699909D01*
X6632874Y18658233D01*
X6576721Y18650841D01*
X6531788Y18685319D01*
X6524396Y18741472D01*
X6543546Y18774643D01*
X7871730Y20102826D01*
X7924056Y20124500D01*
X7999437Y20124500D01*
X7999437Y20124501D01*
X8094938Y20150090D01*
X8180562Y20199525D01*
X8248174Y20267137D01*
X8300500Y20288811D01*
X8352826Y20267137D01*
X8374500Y20214811D01*
X8374500Y17644768D01*
X8352826Y17592442D01*
X8107559Y17347174D01*
X8055233Y17325500D01*
X8050563Y17325500D01*
X7955065Y17299912D01*
X7955060Y17299910D01*
X7869437Y17250475D01*
X7799525Y17180563D01*
X7750090Y17094940D01*
X7750088Y17094935D01*
X7724500Y16999438D01*
X7724500Y16900563D01*
X7750088Y16805066D01*
X7750090Y16805061D01*
X7765867Y16777735D01*
X7799525Y16719438D01*
X7869438Y16649525D01*
X7955062Y16600090D01*
X7955069Y16600088D01*
X7957364Y16599137D01*
X7958254Y16598247D01*
X7959262Y16597665D01*
X7959106Y16597396D01*
X7997417Y16559094D01*
X7997423Y16502456D01*
X7981379Y16478441D01*
X5335503Y13832564D01*
X5265034Y13762095D01*
X5226900Y13670030D01*
X5226900Y13469619D01*
X5226861Y13469526D01*
X5226900Y13469431D01*
X5226421Y13468464D01*
X5205226Y13417293D01*
X5205093Y13417160D01*
X5201297Y13413384D01*
X5200787Y13413089D01*
X5158739Y13371042D01*
X5158542Y13370845D01*
X5132205Y13360015D01*
X5106348Y13349304D01*
X5106254Y13349343D01*
X5106161Y13349304D01*
X5080101Y13360176D01*
X5054024Y13370978D01*
X4989513Y13435489D01*
X4989510Y13435491D01*
X4989509Y13435492D01*
X4886787Y13494799D01*
X4886783Y13494800D01*
X4834649Y13508770D01*
X4789717Y13543249D01*
X4782325Y13599402D01*
X4801474Y13632570D01*
X5267327Y14098424D01*
X5267330Y14098425D01*
X5277735Y14108830D01*
X5277736Y14108830D01*
X5341170Y14172264D01*
X5375500Y14255145D01*
X5375500Y15475012D01*
X5397174Y15527338D01*
X5412497Y15539096D01*
X5430562Y15549525D01*
X5500475Y15619438D01*
X5549910Y15705062D01*
X5575198Y15799438D01*
X6024500Y15799438D01*
X6024500Y15700563D01*
X6050088Y15605066D01*
X6050090Y15605061D01*
X6092194Y15532135D01*
X6099525Y15519438D01*
X6169438Y15449525D01*
X6255062Y15400090D01*
X6255063Y15400090D01*
X6255065Y15400089D01*
X6302813Y15387295D01*
X6350562Y15374501D01*
X6350563Y15374500D01*
X6350565Y15374500D01*
X6449437Y15374500D01*
X6449437Y15374501D01*
X6544938Y15400090D01*
X6630562Y15449525D01*
X6700475Y15519438D01*
X6749910Y15605062D01*
X6775499Y15700563D01*
X6775500Y15700563D01*
X6775500Y15799437D01*
X6775499Y15799438D01*
X6775475Y15799526D01*
X6756743Y15869438D01*
X6749911Y15894935D01*
X6749909Y15894940D01*
X6700474Y15980563D01*
X6630562Y16050475D01*
X6544939Y16099910D01*
X6544934Y16099912D01*
X6449437Y16125500D01*
X6449435Y16125500D01*
X6350565Y16125500D01*
X6350563Y16125500D01*
X6255065Y16099912D01*
X6255060Y16099910D01*
X6169437Y16050475D01*
X6099525Y15980563D01*
X6050090Y15894940D01*
X6050088Y15894935D01*
X6024500Y15799438D01*
X5575198Y15799438D01*
X5575499Y15800563D01*
X5575500Y15800563D01*
X5575500Y15899437D01*
X5575499Y15899438D01*
X5568902Y15924057D01*
X5549910Y15994938D01*
X5541889Y16008830D01*
X5534133Y16022264D01*
X5500475Y16080562D01*
X5430562Y16150475D01*
X5422472Y16155146D01*
X5344939Y16199910D01*
X5344934Y16199912D01*
X5249437Y16225500D01*
X5249435Y16225500D01*
X5150565Y16225500D01*
X5150563Y16225500D01*
X5055065Y16199912D01*
X5055060Y16199910D01*
X4969437Y16150475D01*
X4899525Y16080563D01*
X4850090Y15994940D01*
X4850088Y15994935D01*
X4824500Y15899438D01*
X4824500Y15800563D01*
X4850088Y15705066D01*
X4850090Y15705061D01*
X4899525Y15619438D01*
X4902826Y15616137D01*
X4924500Y15563811D01*
X4924500Y14424058D01*
X4902826Y14371732D01*
X4058830Y13527737D01*
X4056467Y13522030D01*
X4056465Y13522027D01*
X4029105Y13455978D01*
X4013068Y13431975D01*
X4008832Y13427739D01*
X4008829Y13427735D01*
X4006563Y13422264D01*
X4002763Y13413089D01*
X3996843Y13398796D01*
X3979106Y13355978D01*
X3963070Y13331978D01*
X3958833Y13327741D01*
X3958829Y13327735D01*
X3951205Y13309328D01*
X3924499Y13244855D01*
X3924499Y13146534D01*
X3924500Y13146525D01*
X3924500Y12600827D01*
X3924499Y12600813D01*
X3924499Y12594855D01*
X3924499Y12505145D01*
X3931720Y12487713D01*
X3943684Y12458830D01*
X3958829Y12422265D01*
X4032671Y12348423D01*
X4032673Y12348422D01*
X5452826Y10928269D01*
X5474500Y10875943D01*
X5474500Y8936189D01*
X5452826Y8883863D01*
X5399525Y8830563D01*
X5350090Y8744940D01*
X5350088Y8744935D01*
X5324500Y8649438D01*
X5324500Y8550563D01*
X5350088Y8455066D01*
X5350090Y8455061D01*
X5399525Y8369438D01*
X5409136Y8359827D01*
X5430810Y8307501D01*
X5409136Y8255175D01*
X5393811Y8243416D01*
X5319438Y8200476D01*
X5249525Y8130563D01*
X5200090Y8044940D01*
X5200088Y8044935D01*
X5174500Y7949438D01*
X5174500Y7850563D01*
X5200088Y7755066D01*
X5200090Y7755061D01*
X5249524Y7669439D01*
X5249525Y7669438D01*
X5319438Y7599525D01*
X5364712Y7573386D01*
X5405058Y7550092D01*
X5405062Y7550090D01*
X5405063Y7550090D01*
X5405065Y7550089D01*
X5434933Y7542086D01*
X5500562Y7524501D01*
X5500563Y7524500D01*
X5500565Y7524500D01*
X5599437Y7524500D01*
X5599437Y7524501D01*
X5694938Y7550090D01*
X5717210Y7562950D01*
X5773362Y7570343D01*
X5818296Y7535865D01*
X5825690Y7479713D01*
X5825690Y7479711D01*
X5825202Y7477888D01*
X5825201Y7477886D01*
X5801019Y7387636D01*
X5794500Y7363308D01*
X5794500Y7244689D01*
X5825199Y7130118D01*
X5825200Y7130116D01*
X5884508Y7027391D01*
X5884509Y7027390D01*
X5884511Y7027387D01*
X5910073Y7001825D01*
X5931747Y6949500D01*
X5910073Y6897174D01*
X5857747Y6875500D01*
X5405145Y6875500D01*
X5322266Y6841172D01*
X5322262Y6841169D01*
X5014266Y6533173D01*
X4961940Y6511499D01*
X4909614Y6533173D01*
X4897854Y6548499D01*
X4868172Y6599910D01*
X4850475Y6630562D01*
X4780562Y6700475D01*
X4694939Y6749910D01*
X4694934Y6749912D01*
X4599437Y6775500D01*
X4599435Y6775500D01*
X4559413Y6775500D01*
X4507087Y6797174D01*
X3941898Y7362363D01*
X3941894Y7362366D01*
X3849828Y7400500D01*
X3832101Y7400500D01*
X3802878Y7406515D01*
X3793876Y7410385D01*
X3791897Y7412364D01*
X3719710Y7442265D01*
X3719237Y7442468D01*
X3718616Y7443106D01*
X3696134Y7458127D01*
X3691898Y7462363D01*
X3691894Y7462366D01*
X3620142Y7492086D01*
X3596134Y7508127D01*
X3591898Y7512363D01*
X3591894Y7512366D01*
X3520142Y7542086D01*
X3496134Y7558127D01*
X3491898Y7562363D01*
X3491894Y7562366D01*
X3420142Y7592086D01*
X3396134Y7608127D01*
X3391898Y7612363D01*
X3391894Y7612366D01*
X3299828Y7650500D01*
X3282101Y7650500D01*
X3252878Y7656515D01*
X3243876Y7660385D01*
X3241897Y7662364D01*
X3169710Y7692265D01*
X3169237Y7692468D01*
X3168616Y7693106D01*
X3146134Y7708127D01*
X3141898Y7712363D01*
X3141894Y7712366D01*
X3070142Y7742086D01*
X3046134Y7758127D01*
X3041898Y7762363D01*
X3041894Y7762366D01*
X2970142Y7792086D01*
X2946134Y7808127D01*
X2941898Y7812363D01*
X2941894Y7812366D01*
X2870142Y7842086D01*
X2846134Y7858127D01*
X2841898Y7862363D01*
X2841894Y7862366D01*
X2749828Y7900500D01*
X2732101Y7900500D01*
X2702878Y7906515D01*
X2693876Y7910385D01*
X2691897Y7912364D01*
X2619710Y7942265D01*
X2619237Y7942468D01*
X2618616Y7943106D01*
X2596134Y7958127D01*
X2591898Y7962363D01*
X2591894Y7962366D01*
X2520142Y7992086D01*
X2496134Y8008127D01*
X2491898Y8012363D01*
X2491894Y8012366D01*
X2420142Y8042086D01*
X2396134Y8058127D01*
X2391898Y8062363D01*
X2391894Y8062366D01*
X2320142Y8092086D01*
X2296134Y8108127D01*
X2291898Y8112363D01*
X2291894Y8112366D01*
X2199828Y8150500D01*
X1011189Y8150500D01*
X958863Y8172174D01*
X930562Y8200475D01*
X844939Y8249910D01*
X844934Y8249912D01*
X749437Y8275500D01*
X749435Y8275500D01*
X650565Y8275500D01*
X650563Y8275500D01*
X555065Y8249912D01*
X555060Y8249910D01*
X469437Y8200475D01*
X399525Y8130563D01*
X388586Y8111615D01*
X343652Y8077136D01*
X287500Y8084529D01*
X253021Y8129463D01*
X250500Y8148615D01*
X250500Y8949438D01*
X4424500Y8949438D01*
X4424500Y8850563D01*
X4450088Y8755066D01*
X4450090Y8755061D01*
X4484849Y8694858D01*
X4499525Y8669438D01*
X4569438Y8599525D01*
X4602283Y8580562D01*
X4654242Y8550563D01*
X4655062Y8550090D01*
X4655063Y8550090D01*
X4655065Y8550089D01*
X4702813Y8537295D01*
X4750562Y8524501D01*
X4750563Y8524500D01*
X4750565Y8524500D01*
X4849437Y8524500D01*
X4849437Y8524501D01*
X4944938Y8550090D01*
X5030562Y8599525D01*
X5100475Y8669438D01*
X5149910Y8755062D01*
X5175499Y8850563D01*
X5175500Y8850563D01*
X5175500Y8949437D01*
X5175499Y8949438D01*
X5149911Y9044935D01*
X5149909Y9044940D01*
X5100474Y9130563D01*
X5030562Y9200475D01*
X4944939Y9249910D01*
X4944934Y9249912D01*
X4849437Y9275500D01*
X4849435Y9275500D01*
X4750565Y9275500D01*
X4750563Y9275500D01*
X4655065Y9249912D01*
X4655060Y9249910D01*
X4569437Y9200475D01*
X4499525Y9130563D01*
X4450090Y9044940D01*
X4450088Y9044935D01*
X4424500Y8949438D01*
X250500Y8949438D01*
X250500Y9612412D01*
X876100Y9612412D01*
X876100Y9493789D01*
X906799Y9379218D01*
X906801Y9379213D01*
X966108Y9276491D01*
X966109Y9276490D01*
X966111Y9276487D01*
X1049987Y9192611D01*
X1152714Y9133301D01*
X1152715Y9133301D01*
X1152717Y9133300D01*
X1210002Y9117951D01*
X1267288Y9102601D01*
X1267289Y9102600D01*
X1267291Y9102600D01*
X1385911Y9102600D01*
X1385911Y9102601D01*
X1500486Y9133301D01*
X1603213Y9192611D01*
X1687089Y9276487D01*
X1746399Y9379214D01*
X1777099Y9493789D01*
X1777100Y9493789D01*
X1777100Y9612411D01*
X1777099Y9612412D01*
X1746400Y9726983D01*
X1746398Y9726988D01*
X1687091Y9829710D01*
X1687090Y9829711D01*
X1687089Y9829713D01*
X1603213Y9913589D01*
X1603210Y9913591D01*
X1603209Y9913592D01*
X1500487Y9972899D01*
X1500482Y9972901D01*
X1385911Y10003600D01*
X1385909Y10003600D01*
X1267291Y10003600D01*
X1267289Y10003600D01*
X1152717Y9972901D01*
X1152712Y9972899D01*
X1049990Y9913592D01*
X966108Y9829710D01*
X906801Y9726988D01*
X906799Y9726983D01*
X876100Y9612412D01*
X250500Y9612412D01*
X250500Y11049438D01*
X574500Y11049438D01*
X574500Y10950563D01*
X600088Y10855066D01*
X600090Y10855061D01*
X644440Y10778245D01*
X649525Y10769438D01*
X719438Y10699525D01*
X805062Y10650090D01*
X805063Y10650090D01*
X805065Y10650089D01*
X852813Y10637295D01*
X900562Y10624501D01*
X900563Y10624500D01*
X900565Y10624500D01*
X999437Y10624500D01*
X999437Y10624501D01*
X1094938Y10650090D01*
X1180562Y10699525D01*
X1250475Y10769438D01*
X1299910Y10855062D01*
X1325499Y10950563D01*
X1325500Y10950563D01*
X1325500Y11049437D01*
X1325499Y11049438D01*
X1299911Y11144935D01*
X1299909Y11144940D01*
X1250474Y11230563D01*
X1180562Y11300475D01*
X1123581Y11333373D01*
X1094939Y11349910D01*
X1094934Y11349912D01*
X999437Y11375500D01*
X999435Y11375500D01*
X900565Y11375500D01*
X900563Y11375500D01*
X805065Y11349912D01*
X805060Y11349910D01*
X719437Y11300475D01*
X649525Y11230563D01*
X600090Y11144940D01*
X600088Y11144935D01*
X574500Y11049438D01*
X250500Y11049438D01*
X250500Y11392612D01*
X1841000Y11392612D01*
X1841000Y11273989D01*
X1871699Y11159418D01*
X1871701Y11159413D01*
X1931008Y11056691D01*
X1931009Y11056690D01*
X1931011Y11056687D01*
X2014887Y10972811D01*
X2014889Y10972810D01*
X2014890Y10972809D01*
X2092035Y10928269D01*
X2117614Y10913501D01*
X2117615Y10913501D01*
X2117617Y10913500D01*
X2143387Y10906595D01*
X2232188Y10882801D01*
X2232189Y10882800D01*
X2232191Y10882800D01*
X2350811Y10882800D01*
X2350811Y10882801D01*
X2465386Y10913501D01*
X2568113Y10972811D01*
X2651989Y11056687D01*
X2711299Y11159414D01*
X2741999Y11273989D01*
X2742000Y11273989D01*
X2742000Y11392611D01*
X2741999Y11392612D01*
X2711300Y11507183D01*
X2711298Y11507188D01*
X2651991Y11609910D01*
X2651990Y11609911D01*
X2651989Y11609913D01*
X2568113Y11693789D01*
X2568110Y11693791D01*
X2568109Y11693792D01*
X2465387Y11753099D01*
X2465382Y11753101D01*
X2350811Y11783800D01*
X2350809Y11783800D01*
X2232191Y11783800D01*
X2232189Y11783800D01*
X2117617Y11753101D01*
X2117612Y11753099D01*
X2014890Y11693792D01*
X1931008Y11609910D01*
X1871701Y11507188D01*
X1871699Y11507183D01*
X1841000Y11392612D01*
X250500Y11392612D01*
X250500Y19899438D01*
X4224500Y19899438D01*
X4224500Y19800563D01*
X4250088Y19705066D01*
X4250090Y19705061D01*
X4296602Y19624501D01*
X4299525Y19619438D01*
X4369438Y19549525D01*
X4455062Y19500090D01*
X4455063Y19500090D01*
X4455065Y19500089D01*
X4490382Y19490626D01*
X4550562Y19474501D01*
X4550563Y19474500D01*
X4614811Y19474500D01*
X4667137Y19452826D01*
X4688811Y19400500D01*
X4667137Y19348174D01*
X4649525Y19330563D01*
X4600090Y19244940D01*
X4600088Y19244935D01*
X4574500Y19149438D01*
X4574500Y19050563D01*
X4600088Y18955066D01*
X4600090Y18955061D01*
X4626799Y18908800D01*
X4649525Y18869438D01*
X4719438Y18799525D01*
X4805062Y18750090D01*
X4805063Y18750090D01*
X4805065Y18750089D01*
X4837225Y18741472D01*
X4900562Y18724501D01*
X4900563Y18724500D01*
X4900565Y18724500D01*
X4999437Y18724500D01*
X4999437Y18724501D01*
X5094938Y18750090D01*
X5180562Y18799525D01*
X5250475Y18869438D01*
X5299910Y18955062D01*
X5325499Y19050563D01*
X5325500Y19050563D01*
X5325500Y19149437D01*
X5325499Y19149438D01*
X5299911Y19244935D01*
X5299909Y19244940D01*
X5274549Y19288865D01*
X5250475Y19330562D01*
X5180562Y19400475D01*
X5139717Y19424057D01*
X5094939Y19449910D01*
X5094934Y19449912D01*
X4999437Y19475500D01*
X4999435Y19475500D01*
X4935189Y19475500D01*
X4882863Y19497174D01*
X4861189Y19549500D01*
X4882863Y19601826D01*
X4900475Y19619438D01*
X4949910Y19705062D01*
X4975499Y19800563D01*
X4975500Y19800563D01*
X4975500Y19899437D01*
X4975499Y19899438D01*
X4968783Y19924501D01*
X4955886Y19972634D01*
X4949911Y19994935D01*
X4949909Y19994940D01*
X4918444Y20049438D01*
X4900475Y20080562D01*
X4830562Y20150475D01*
X4806698Y20164253D01*
X4744939Y20199910D01*
X4744934Y20199912D01*
X4649437Y20225500D01*
X4649435Y20225500D01*
X4550565Y20225500D01*
X4550563Y20225500D01*
X4455065Y20199912D01*
X4455060Y20199910D01*
X4369437Y20150475D01*
X4299525Y20080563D01*
X4250090Y19994940D01*
X4250088Y19994935D01*
X4224500Y19899438D01*
X250500Y19899438D01*
X250500Y21413412D01*
X1524500Y21413412D01*
X1524500Y21294789D01*
X1555199Y21180218D01*
X1555201Y21180213D01*
X1614508Y21077491D01*
X1614509Y21077490D01*
X1614511Y21077487D01*
X1698387Y20993611D01*
X1698389Y20993610D01*
X1698390Y20993609D01*
X1774896Y20949438D01*
X1801114Y20934301D01*
X1801115Y20934301D01*
X1801117Y20934300D01*
X1858402Y20918951D01*
X1915688Y20903601D01*
X1915689Y20903600D01*
X1915691Y20903600D01*
X2034311Y20903600D01*
X2034311Y20903601D01*
X2148886Y20934301D01*
X2251613Y20993611D01*
X2335489Y21077487D01*
X2394799Y21180214D01*
X2425499Y21294789D01*
X2425500Y21294789D01*
X2425500Y21418260D01*
X2428230Y21418260D01*
X2440595Y21464531D01*
X2446999Y21471840D01*
X2953671Y21978512D01*
X4566100Y21978512D01*
X4566100Y21859889D01*
X4596799Y21745318D01*
X4596801Y21745313D01*
X4656108Y21642591D01*
X4656109Y21642590D01*
X4656111Y21642587D01*
X4739987Y21558711D01*
X4739989Y21558710D01*
X4739990Y21558709D01*
X4831795Y21505705D01*
X4842714Y21499401D01*
X4842715Y21499401D01*
X4842717Y21499400D01*
X4900002Y21484051D01*
X4957288Y21468701D01*
X4957289Y21468700D01*
X4957291Y21468700D01*
X5075911Y21468700D01*
X5075911Y21468701D01*
X5190486Y21499401D01*
X5293213Y21558711D01*
X5377089Y21642587D01*
X5436399Y21745314D01*
X5467099Y21859889D01*
X5467100Y21859889D01*
X5467100Y21978511D01*
X5467099Y21978512D01*
X5463366Y21992442D01*
X5436399Y22093086D01*
X5414762Y22130562D01*
X5377091Y22195810D01*
X5377090Y22195811D01*
X5377089Y22195813D01*
X5293213Y22279689D01*
X5293210Y22279691D01*
X5293209Y22279692D01*
X5190487Y22338999D01*
X5190482Y22339001D01*
X5075911Y22369700D01*
X5075909Y22369700D01*
X4957291Y22369700D01*
X4957289Y22369700D01*
X4842717Y22339001D01*
X4842712Y22338999D01*
X4739990Y22279692D01*
X4656108Y22195810D01*
X4596801Y22093088D01*
X4596799Y22093083D01*
X4566100Y21978512D01*
X2953671Y21978512D01*
X4475904Y23500745D01*
X4528229Y23522418D01*
X4580553Y23500745D01*
X4657787Y23423511D01*
X4657789Y23423510D01*
X4657790Y23423509D01*
X4760417Y23364257D01*
X4760514Y23364201D01*
X4760515Y23364201D01*
X4760517Y23364200D01*
X4797797Y23354211D01*
X4875088Y23333501D01*
X4875089Y23333500D01*
X4875091Y23333500D01*
X4993711Y23333500D01*
X4993711Y23333501D01*
X5108286Y23364201D01*
X5211013Y23423511D01*
X5294889Y23507387D01*
X5354199Y23610114D01*
X5384899Y23724689D01*
X5384900Y23724689D01*
X5384900Y23843311D01*
X5384899Y23843312D01*
X5384463Y23844938D01*
X5362771Y23925896D01*
X5354200Y23957883D01*
X5354198Y23957888D01*
X5294891Y24060610D01*
X5294890Y24060611D01*
X5294889Y24060613D01*
X5211013Y24144489D01*
X5211010Y24144491D01*
X5211009Y24144492D01*
X5108287Y24203799D01*
X5108282Y24203801D01*
X4993711Y24234500D01*
X4993709Y24234500D01*
X4875091Y24234500D01*
X4875089Y24234500D01*
X4760517Y24203801D01*
X4760512Y24203799D01*
X4657790Y24144492D01*
X4570481Y24057183D01*
X4570229Y24057435D01*
X4569707Y24056174D01*
X4547691Y24047055D01*
X4527051Y24035134D01*
X4517381Y24034500D01*
X4463348Y24034500D01*
X4463340Y24034501D01*
X4454728Y24034501D01*
X4355073Y24034501D01*
X4310409Y24016000D01*
X4310408Y24016000D01*
X4263005Y23996366D01*
X4192535Y23925896D01*
X2092746Y21826109D01*
X2040420Y21804435D01*
X2037885Y21804600D01*
X2034309Y21804600D01*
X1915691Y21804600D01*
X1915689Y21804600D01*
X1801117Y21773901D01*
X1801112Y21773899D01*
X1698390Y21714592D01*
X1614508Y21630710D01*
X1555201Y21527988D01*
X1555199Y21527983D01*
X1524500Y21413412D01*
X250500Y21413412D01*
X250500Y29520547D01*
X3349500Y29520547D01*
X3349500Y29339454D01*
X3377828Y29160594D01*
X3377831Y29160581D01*
X3433787Y28988365D01*
X3433788Y28988362D01*
X3433789Y28988361D01*
X3516004Y28827006D01*
X3622447Y28680499D01*
X3750499Y28552447D01*
X3897006Y28446004D01*
X4058361Y28363789D01*
X4058364Y28363788D01*
X4058363Y28363788D01*
X4230580Y28307832D01*
X4230586Y28307831D01*
X4230591Y28307829D01*
X4349833Y28288943D01*
X4409453Y28279500D01*
X4409454Y28279500D01*
X4590547Y28279500D01*
X4635261Y28286583D01*
X4769409Y28307829D01*
X4769416Y28307832D01*
X4769419Y28307832D01*
X4847601Y28333235D01*
X4941639Y28363789D01*
X5102994Y28446004D01*
X5249501Y28552447D01*
X5377553Y28680499D01*
X5483996Y28827006D01*
X5566211Y28988361D01*
X5622171Y29160591D01*
X5650500Y29339454D01*
X5650500Y29520546D01*
X5622171Y29699409D01*
X5622169Y29699414D01*
X5622168Y29699420D01*
X5566212Y29871636D01*
X5566211Y29871637D01*
X5566211Y29871639D01*
X5483996Y30032994D01*
X5377553Y30179501D01*
X5249501Y30307553D01*
X5112776Y30406889D01*
X5102996Y30413995D01*
X5063122Y30434312D01*
X8724500Y30434312D01*
X8724500Y30315689D01*
X8755199Y30201118D01*
X8755201Y30201113D01*
X8814508Y30098391D01*
X8814509Y30098390D01*
X8814511Y30098387D01*
X8898387Y30014511D01*
X9001114Y29955201D01*
X9001115Y29955201D01*
X9001117Y29955200D01*
X9058402Y29939851D01*
X9115688Y29924501D01*
X9115689Y29924500D01*
X9115691Y29924500D01*
X9234311Y29924500D01*
X9234311Y29924501D01*
X9348886Y29955201D01*
X9451613Y30014511D01*
X9535489Y30098387D01*
X9594799Y30201114D01*
X9625499Y30315689D01*
X9625500Y30315689D01*
X9625500Y30434311D01*
X9625499Y30434312D01*
X9604896Y30511206D01*
X9601063Y30525512D01*
X22549500Y30525512D01*
X22549500Y30406889D01*
X22580199Y30292318D01*
X22580201Y30292313D01*
X22639508Y30189591D01*
X22639509Y30189590D01*
X22639511Y30189587D01*
X22723387Y30105711D01*
X22826114Y30046401D01*
X22826115Y30046401D01*
X22826117Y30046400D01*
X22876138Y30032997D01*
X22940688Y30015701D01*
X22940689Y30015700D01*
X22940691Y30015700D01*
X23059311Y30015700D01*
X23059311Y30015701D01*
X23173886Y30046401D01*
X23276613Y30105711D01*
X23360489Y30189587D01*
X23419799Y30292314D01*
X23450499Y30406889D01*
X23450500Y30406889D01*
X23450500Y30525511D01*
X23450499Y30525512D01*
X23444235Y30548888D01*
X23419799Y30640086D01*
X23360489Y30742813D01*
X23276613Y30826689D01*
X23276610Y30826691D01*
X23276609Y30826692D01*
X23173887Y30885999D01*
X23173882Y30886001D01*
X23059311Y30916700D01*
X23059309Y30916700D01*
X22940691Y30916700D01*
X22940689Y30916700D01*
X22826117Y30886001D01*
X22826112Y30885999D01*
X22723390Y30826692D01*
X22639508Y30742810D01*
X22580201Y30640088D01*
X22580199Y30640083D01*
X22549500Y30525512D01*
X9601063Y30525512D01*
X9594800Y30548883D01*
X9594798Y30548888D01*
X9535491Y30651610D01*
X9535490Y30651611D01*
X9535489Y30651613D01*
X9451613Y30735489D01*
X9451610Y30735491D01*
X9451609Y30735492D01*
X9348887Y30794799D01*
X9348882Y30794801D01*
X9234311Y30825500D01*
X9234309Y30825500D01*
X9115691Y30825500D01*
X9115689Y30825500D01*
X9001117Y30794801D01*
X9001112Y30794799D01*
X8898390Y30735492D01*
X8814508Y30651610D01*
X8755201Y30548888D01*
X8755199Y30548883D01*
X8724500Y30434312D01*
X5063122Y30434312D01*
X4941635Y30496213D01*
X4941636Y30496213D01*
X4769419Y30552169D01*
X4769406Y30552172D01*
X4590547Y30580500D01*
X4590546Y30580500D01*
X4409454Y30580500D01*
X4409453Y30580500D01*
X4230593Y30552172D01*
X4230580Y30552169D01*
X4058364Y30496213D01*
X3897004Y30413995D01*
X3897003Y30413995D01*
X3761700Y30315691D01*
X3750499Y30307553D01*
X3622447Y30179501D01*
X3622444Y30179498D01*
X3622444Y30179497D01*
X3516005Y30032997D01*
X3516005Y30032996D01*
X3433787Y29871636D01*
X3377831Y29699420D01*
X3377828Y29699407D01*
X3349500Y29520547D01*
X250500Y29520547D01*
X250500Y34675500D01*
X272174Y34727826D01*
X324500Y34749500D01*
X24675500Y34749500D01*
X24727826Y34727826D01*
G37*
%TD.AperFunction*%
%TA.AperFunction,Conductor*%
G36*
X15802826Y23299373D02*
G01*
X15824500Y23247047D01*
X15824500Y22550827D01*
X15824499Y22550813D01*
X15824499Y22455146D01*
X15843684Y22408830D01*
X15858829Y22372265D01*
X15932671Y22298423D01*
X15932673Y22298422D01*
X18102826Y20128269D01*
X18124500Y20075943D01*
X18124500Y19350827D01*
X18124499Y19350813D01*
X18124499Y19344855D01*
X18124499Y19255145D01*
X18134682Y19230562D01*
X18148264Y19197772D01*
X18148264Y19197771D01*
X18158827Y19172269D01*
X18158829Y19172266D01*
X18158830Y19172264D01*
X18222264Y19108830D01*
X18232671Y19098423D01*
X18232673Y19098422D01*
X18315158Y19015937D01*
X18336832Y18963611D01*
X18315158Y18911285D01*
X18281986Y18892133D01*
X18229616Y18878100D01*
X18229612Y18878099D01*
X18126890Y18818792D01*
X18043008Y18734910D01*
X17983701Y18632188D01*
X17983699Y18632183D01*
X17953000Y18517612D01*
X17953000Y18398989D01*
X17983699Y18284418D01*
X17983701Y18284413D01*
X18043008Y18181691D01*
X18043009Y18181690D01*
X18043011Y18181687D01*
X18126887Y18097811D01*
X18126889Y18097810D01*
X18126890Y18097809D01*
X18229612Y18038502D01*
X18229614Y18038501D01*
X18229615Y18038501D01*
X18229617Y18038500D01*
X18269789Y18027736D01*
X18344188Y18007801D01*
X18344189Y18007800D01*
X18344191Y18007800D01*
X18462811Y18007800D01*
X18462811Y18007801D01*
X18577386Y18038501D01*
X18613499Y18059351D01*
X18669652Y18066745D01*
X18714585Y18032267D01*
X18724500Y17995266D01*
X18724500Y17088753D01*
X18702826Y17036427D01*
X18650500Y17014753D01*
X18598175Y17036427D01*
X18536313Y17098289D01*
X18536310Y17098291D01*
X18536309Y17098292D01*
X18433587Y17157599D01*
X18433582Y17157601D01*
X18319011Y17188300D01*
X18319009Y17188300D01*
X18200391Y17188300D01*
X18200389Y17188300D01*
X18085817Y17157601D01*
X18085812Y17157599D01*
X17983090Y17098292D01*
X17899208Y17014410D01*
X17839901Y16911688D01*
X17839899Y16911683D01*
X17809200Y16797112D01*
X17809200Y16673641D01*
X17806498Y16673641D01*
X17794038Y16627285D01*
X17787691Y16620054D01*
X16754303Y15586664D01*
X16683834Y15516195D01*
X16645700Y15424130D01*
X16645700Y14657913D01*
X16624026Y14605587D01*
X15873613Y13855174D01*
X15821287Y13833500D01*
X15799389Y13833500D01*
X15684817Y13802801D01*
X15684812Y13802799D01*
X15636500Y13774905D01*
X15580347Y13767512D01*
X15535414Y13801991D01*
X15525500Y13838991D01*
X15525500Y14075944D01*
X15547173Y14128269D01*
X16017327Y14598424D01*
X16017330Y14598425D01*
X16027735Y14608830D01*
X16027736Y14608830D01*
X16091170Y14672264D01*
X16120894Y14744028D01*
X16124325Y14751193D01*
X16129419Y14760514D01*
X16141170Y14772264D01*
X16156316Y14808830D01*
X16175501Y14855146D01*
X16175501Y14944855D01*
X16175501Y14950813D01*
X16175500Y14950827D01*
X16175500Y15925945D01*
X16197171Y15978268D01*
X16217327Y15998424D01*
X16217330Y15998425D01*
X16227735Y16008830D01*
X16227736Y16008830D01*
X16291170Y16072264D01*
X16308756Y16114720D01*
X16325501Y16155145D01*
X16325501Y16176366D01*
X16337972Y16217478D01*
X16341164Y16222259D01*
X16341170Y16222264D01*
X16365339Y16280613D01*
X16375501Y16305146D01*
X16375501Y16394855D01*
X16375501Y16400813D01*
X16375500Y16400827D01*
X16375500Y16446525D01*
X16375501Y16446534D01*
X16375501Y16544854D01*
X16348895Y16609086D01*
X16341169Y16627738D01*
X16337970Y16632526D01*
X16325501Y16673635D01*
X16325501Y16694854D01*
X16325500Y16694856D01*
X16300251Y16755814D01*
X16291172Y16777732D01*
X16291170Y16777735D01*
X16291170Y16777736D01*
X16286929Y16781977D01*
X16270892Y16805979D01*
X16241170Y16877736D01*
X16177736Y16941170D01*
X16177735Y16941171D01*
X15747174Y17371732D01*
X15725500Y17424058D01*
X15725500Y17696525D01*
X15725501Y17696534D01*
X15725501Y17794854D01*
X15716482Y17816628D01*
X15691170Y17877735D01*
X15691170Y17877736D01*
X15688646Y17880260D01*
X15683269Y17891051D01*
X15682074Y17908188D01*
X15675501Y17924057D01*
X15675501Y17944854D01*
X15675500Y17944856D01*
X15673332Y17950089D01*
X15652462Y18000475D01*
X15641170Y18027736D01*
X15577736Y18091170D01*
X15573521Y18095385D01*
X15573514Y18095391D01*
X15493631Y18175274D01*
X15471957Y18227600D01*
X15474480Y18246757D01*
X15475500Y18250563D01*
X15475500Y18349437D01*
X15475499Y18349438D01*
X15449911Y18444935D01*
X15449909Y18444940D01*
X15421044Y18494935D01*
X15400475Y18530562D01*
X15330562Y18600475D01*
X15324238Y18604126D01*
X15244939Y18649910D01*
X15244934Y18649912D01*
X15149437Y18675500D01*
X15149435Y18675500D01*
X15050565Y18675500D01*
X15050563Y18675500D01*
X14955065Y18649912D01*
X14955060Y18649910D01*
X14869435Y18600474D01*
X14865589Y18597522D01*
X14864426Y18599037D01*
X14818200Y18579889D01*
X14765874Y18601563D01*
X14744200Y18653889D01*
X14744200Y18942090D01*
X14765872Y18994414D01*
X14796288Y19024830D01*
X14796292Y19024832D01*
X14806696Y19035236D01*
X14806697Y19035236D01*
X14877164Y19105703D01*
X14915300Y19197772D01*
X14915300Y19849438D01*
X15624500Y19849438D01*
X15624500Y19750563D01*
X15650088Y19655066D01*
X15650090Y19655061D01*
X15680826Y19601826D01*
X15699525Y19569438D01*
X15769438Y19499525D01*
X15855062Y19450090D01*
X15855063Y19450090D01*
X15855065Y19450089D01*
X15902813Y19437295D01*
X15950562Y19424501D01*
X15950563Y19424500D01*
X15950565Y19424500D01*
X16049437Y19424500D01*
X16049437Y19424501D01*
X16144938Y19450090D01*
X16230562Y19499525D01*
X16300475Y19569438D01*
X16349910Y19655062D01*
X16375499Y19750563D01*
X16375500Y19750563D01*
X16375500Y19849437D01*
X16375499Y19849438D01*
X16373992Y19855061D01*
X16349910Y19944938D01*
X16346935Y19950090D01*
X16321044Y19994935D01*
X16300475Y20030562D01*
X16230562Y20100475D01*
X16191042Y20123292D01*
X16144939Y20149910D01*
X16144934Y20149912D01*
X16049437Y20175500D01*
X16049435Y20175500D01*
X15950565Y20175500D01*
X15950563Y20175500D01*
X15855065Y20149912D01*
X15855060Y20149910D01*
X15769437Y20100475D01*
X15699525Y20030563D01*
X15650090Y19944940D01*
X15650088Y19944935D01*
X15624500Y19849438D01*
X14915300Y19849438D01*
X14915300Y20881112D01*
X15374300Y20881112D01*
X15374300Y20762489D01*
X15404999Y20647918D01*
X15405001Y20647913D01*
X15464308Y20545191D01*
X15464309Y20545190D01*
X15464311Y20545187D01*
X15548187Y20461311D01*
X15548189Y20461310D01*
X15548190Y20461309D01*
X15584232Y20440500D01*
X15650914Y20402001D01*
X15650915Y20402001D01*
X15650917Y20402000D01*
X15702517Y20388174D01*
X15765488Y20371301D01*
X15765489Y20371300D01*
X15765491Y20371300D01*
X15884111Y20371300D01*
X15884111Y20371301D01*
X15998686Y20402001D01*
X16101413Y20461311D01*
X16185289Y20545187D01*
X16244599Y20647914D01*
X16275299Y20762489D01*
X16275300Y20762489D01*
X16275300Y20881111D01*
X16275299Y20881112D01*
X16269273Y20903600D01*
X16244599Y20995686D01*
X16237599Y21007810D01*
X16185291Y21098410D01*
X16185290Y21098411D01*
X16185289Y21098413D01*
X16101413Y21182289D01*
X16101410Y21182291D01*
X16101409Y21182292D01*
X15998687Y21241599D01*
X15998682Y21241601D01*
X15884111Y21272300D01*
X15884109Y21272300D01*
X15765491Y21272300D01*
X15765489Y21272300D01*
X15650917Y21241601D01*
X15650912Y21241599D01*
X15548190Y21182292D01*
X15464308Y21098410D01*
X15405001Y20995688D01*
X15404999Y20995683D01*
X15374300Y20881112D01*
X14915300Y20881112D01*
X14915300Y22768689D01*
X14936973Y22821014D01*
X15259452Y23143494D01*
X15311777Y23165167D01*
X15314314Y23165000D01*
X15317891Y23165000D01*
X15436511Y23165000D01*
X15436511Y23165001D01*
X15551086Y23195701D01*
X15653813Y23255011D01*
X15698175Y23299374D01*
X15750500Y23321047D01*
X15802826Y23299373D01*
G37*
%TD.AperFunction*%
%TA.AperFunction,Conductor*%
G36*
X18199047Y24052826D02*
G01*
X18220721Y24000500D01*
X18210806Y23963499D01*
X18200091Y23944943D01*
X18200088Y23944935D01*
X18174500Y23849438D01*
X18174500Y23750563D01*
X18200088Y23655066D01*
X18200090Y23655061D01*
X18249525Y23569438D01*
X18321645Y23497318D01*
X18337682Y23473319D01*
X18339286Y23469448D01*
X18339288Y23469438D01*
X18339290Y23469438D01*
X18358828Y23422267D01*
X18358831Y23422263D01*
X18432671Y23348423D01*
X18432673Y23348422D01*
X19002826Y22778269D01*
X19024500Y22725943D01*
X19024500Y21558031D01*
X19002826Y21505705D01*
X18950500Y21484031D01*
X18898175Y21505705D01*
X18853365Y21550515D01*
X18839173Y21558709D01*
X18722139Y21626279D01*
X18722130Y21626283D01*
X18575768Y21665500D01*
X18575766Y21665500D01*
X18424234Y21665500D01*
X18424232Y21665500D01*
X18277869Y21626283D01*
X18277860Y21626279D01*
X18146637Y21550517D01*
X18039483Y21443363D01*
X17963721Y21312140D01*
X17963717Y21312131D01*
X17924500Y21165769D01*
X17924500Y21123057D01*
X17902826Y21070731D01*
X17850500Y21049057D01*
X17798174Y21070731D01*
X16297174Y22571731D01*
X16275500Y22624057D01*
X16275500Y23413811D01*
X16297174Y23466137D01*
X16309229Y23478192D01*
X16350475Y23519438D01*
X16399910Y23605062D01*
X16425499Y23700563D01*
X16425500Y23700563D01*
X16425500Y23799437D01*
X16425499Y23799438D01*
X16399911Y23894935D01*
X16399908Y23894943D01*
X16389194Y23913499D01*
X16381800Y23969652D01*
X16416278Y24014585D01*
X16453279Y24024500D01*
X16524970Y24024500D01*
X16577296Y24002826D01*
X16598970Y23950500D01*
X16596448Y23931347D01*
X16574500Y23849438D01*
X16574500Y23750563D01*
X16600088Y23655066D01*
X16600090Y23655061D01*
X16640891Y23584392D01*
X16649525Y23569438D01*
X16719438Y23499525D01*
X16764281Y23473635D01*
X16796997Y23454746D01*
X16805062Y23450090D01*
X16805063Y23450090D01*
X16805065Y23450089D01*
X16836695Y23441614D01*
X16900562Y23424501D01*
X16900563Y23424500D01*
X16900565Y23424500D01*
X16999437Y23424500D01*
X16999437Y23424501D01*
X17094938Y23450090D01*
X17180562Y23499525D01*
X17250475Y23569438D01*
X17299910Y23655062D01*
X17325499Y23750563D01*
X17325500Y23750563D01*
X17325500Y23849437D01*
X17325499Y23849438D01*
X17299911Y23944935D01*
X17299908Y23944943D01*
X17289194Y23963499D01*
X17281800Y24019652D01*
X17316278Y24064585D01*
X17353279Y24074500D01*
X18146721Y24074500D01*
X18199047Y24052826D01*
G37*
%TD.AperFunction*%
%TD*%
M02*
