M48
; DRILL file {KiCad 9.0.8+dfsg-1} date 2026-09-09T10:26:55+0530
; FORMAT={-:-/ absolute / metric / decimal}
; #@! TF.CreationDate,2026-09-09T10:26:55+05:30
; #@! TF.GenerationSoftware,Kicad,Pcbnew,9.0.8+dfsg-1
; #@! TF.FileFunction,Plated,1,4,PTH
FMAT,2
METRIC
; #@! TA.AperFunction,Plated,PTH,ViaDrill
T1C0.200
; #@! TA.AperFunction,Plated,PTH,ViaDrill
T2C0.300
; #@! TA.AperFunction,Plated,PTH,ComponentDrill
T3C0.600
; #@! TA.AperFunction,Plated,PTH,ComponentDrill
T4C1.000
%
G90
G05
T1
X0.7Y7.9
X0.75Y6.75
X0.804Y24.355
X0.95Y11.0
X1.5Y6.4
X2.75Y16.75
X3.6Y16.1
X4.0Y5.75
X4.55Y6.4
X4.6Y19.85
X4.6Y18.1
X4.8Y8.9
X4.95Y19.1
X5.2Y15.85
X5.55Y7.9
X5.7Y8.6
X5.95Y20.9
X6.15Y20.3
X6.4Y15.75
X6.85Y18.35
X7.55Y26.55
X7.8Y21.4
X7.95Y20.5
X8.05Y5.5
X8.1Y22.9
X8.1Y16.95
X8.5Y6.65
X8.5Y6.0
X8.85Y14.6
X9.7Y12.55
X10.2Y23.75
X10.35Y18.3
X10.4Y20.0
X10.65Y19.0
X11.05Y16.0
X11.15Y20.25
X11.7Y19.65
X12.55Y25.45
X13.65Y21.9
X13.95Y25.45
X14.15Y13.45
X14.6Y25.5
X15.0Y17.7
X15.05Y16.9
X15.1Y18.3
X15.25Y25.5
X15.3Y7.4
X15.75Y21.75
X16.0Y19.8
X16.05Y23.75
X16.1Y12.35
X16.1Y6.25
X16.25Y12.8
X16.95Y23.8
X17.55Y10.45
X17.8Y6.8
X18.55Y23.8
X18.55Y12.65
X19.2Y23.7
X19.3Y25.3
X19.4Y8.35
X19.9Y12.25
X20.0Y23.5
X21.1Y26.6
X21.25Y23.25
X22.3Y26.2
T2
X1.327Y9.553
X1.975Y21.354
X2.292Y11.333
X4.713Y13.075
X4.934Y23.784
X5.017Y21.919
X5.477Y13.053
X6.231Y13.381
X6.245Y7.304
X6.34Y10.669
X8.33Y13.224
X9.175Y30.375
X9.249Y21.439
X9.436Y23.224
X9.624Y20.731
X11.8Y33.435
X14.0Y19.763
X14.2Y23.304
X14.206Y12.662
X14.599Y15.295
X15.377Y23.615
X15.581Y16.435
X15.825Y20.822
X15.859Y13.383
X17.344Y26.143
X18.26Y16.738
X18.403Y18.458
X19.541Y16.91
X20.968Y27.54
X23.0Y30.466
X23.6Y27.36
T4
X4.5Y31.97
X4.5Y29.43
T3
X17.42Y22.52G85X18.52Y22.52
G05
X17.42Y13.88G85X18.52Y13.88
G05
X21.85Y22.52G85X22.45Y22.52
G05
X21.85Y13.88G85X22.45Y13.88
G05
M30
