M48
; DRILL file {KiCad 9.0.8+dfsg-1} date 2026-09-08T22:48:27+0530
; FORMAT={-:-/ absolute / metric / decimal}
; #@! TF.CreationDate,2026-09-08T22:48:27+05:30
; #@! TF.GenerationSoftware,Kicad,Pcbnew,9.0.8+dfsg-1
; #@! TF.FileFunction,Plated,1,4,PTH
FMAT,2
METRIC
; #@! TA.AperFunction,Plated,PTH,ViaDrill
T1C0.200
; #@! TA.AperFunction,Plated,PTH,ViaDrill
T2C0.300
; #@! TA.AperFunction,Plated,PTH,ComponentDrill
T3C0.600
%
G90
G05
T1
X2.75Y16.75
X13.5Y7.0
X15.75Y21.75
X21.25Y23.25
T2
X1.477Y2.584
X1.747Y4.046
X2.735Y4.24
X2.984Y24.361
X3.345Y14.855
X3.961Y15.989
X4.093Y6.401
X4.1Y0.1
X4.5Y13.459
X4.637Y23.578
X4.699Y9.319
X4.708Y19.376
X4.781Y15.971
X4.925Y8.042
X5.017Y21.919
X5.265Y12.851
X5.529Y21.21
X5.557Y15.942
X5.923Y11.013
X6.086Y20.461
X6.881Y6.082
X7.94Y19.223
X8.355Y12.389
X8.38Y23.021
X9.159Y27.8
X9.175Y30.375
X9.249Y21.439
X9.436Y23.224
X9.624Y20.731
X10.536Y23.629
X10.595Y13.098
X10.927Y15.911
X11.13Y19.836
X12.716Y23.621
X14.032Y12.864
X14.108Y19.478
X14.2Y23.304
X14.467Y10.554
X14.599Y15.295
X15.062Y17.539
X15.075Y18.607
X15.369Y10.898
X15.377Y23.615
X15.463Y10.015
X15.58Y25.377
X15.731Y16.691
X15.84Y20.301
X16.601Y8.528
X16.963Y9.303
X17.344Y26.143
X17.504Y5.173
X17.994Y7.404
X18.2Y25.375
X18.262Y19.572
X18.263Y16.909
X18.403Y18.458
X18.805Y11.163
X19.363Y23.621
X19.541Y16.91
X20.968Y27.54
X21.75Y27.511
X23.0Y30.466
X23.235Y16.9
X23.6Y27.36
T3
X17.42Y22.52G85X18.52Y22.52
G05
X17.42Y13.88G85X18.52Y13.88
G05
X21.85Y22.52G85X22.45Y22.52
G05
X21.85Y13.88G85X22.45Y13.88
G05
M30
