M48
; DRILL file {KiCad 9.0.8+dfsg-1} date 2026-09-09T07:19:00+0530
; FORMAT={-:-/ absolute / metric / decimal}
; #@! TF.CreationDate,2026-09-09T07:19:00+05:30
; #@! TF.GenerationSoftware,Kicad,Pcbnew,9.0.8+dfsg-1
; #@! TF.FileFunction,Plated,1,4,PTH
FMAT,2
METRIC
; #@! TA.AperFunction,Plated,PTH,ViaDrill
T1C0.200
; #@! TA.AperFunction,Plated,PTH,ViaDrill
T2C0.300
; #@! TA.AperFunction,Plated,PTH,ComponentDrill
T3C0.600
; #@! TA.AperFunction,Plated,PTH,ComponentDrill
T4C1.000
%
G90
G05
T1
X0.804Y24.355
X1.5Y6.4
X2.75Y16.75
X4.0Y5.75
X4.8Y8.9
X4.9Y19.1
X6.4Y6.4
X7.5Y17.85
X7.8Y20.2
X10.0Y6.25
X10.2Y23.75
X10.2Y9.6
X10.3Y18.25
X11.0Y6.35
X11.05Y16.0
X11.15Y20.25
X12.15Y9.4
X12.15Y7.15
X12.65Y8.8
X14.05Y13.5
X15.75Y21.75
X16.0Y12.7
X21.25Y23.25
X22.3Y26.2
T2
X0.584Y8.107
X1.286Y17.09
X1.327Y9.553
X1.975Y21.354
X2.292Y11.333
X3.596Y14.435
X3.841Y21.147
X4.713Y13.075
X4.934Y23.784
X5.017Y21.919
X5.134Y16.591
X5.461Y8.217
X5.477Y13.053
X5.584Y20.456
X6.231Y13.381
X6.245Y7.304
X6.34Y10.669
X7.352Y27.263
X7.777Y11.035
X8.33Y13.224
X8.908Y8.904
X9.175Y30.375
X9.249Y21.439
X9.436Y23.224
X9.624Y20.731
X9.763Y7.651
X9.802Y9.039
X10.184Y12.665
X10.525Y19.067
X11.398Y12.244
X11.8Y33.435
X12.187Y10.293
X12.6Y23.639
X14.0Y19.763
X14.2Y23.304
X14.206Y12.662
X14.599Y15.295
X14.732Y11.19
X15.241Y17.7
X15.254Y18.578
X15.377Y23.615
X15.546Y25.411
X15.581Y16.435
X15.825Y20.822
X15.856Y19.993
X15.859Y13.383
X16.531Y8.99
X16.55Y25.362
X17.344Y26.143
X18.2Y27.201
X18.205Y9.738
X18.26Y16.738
X18.403Y18.458
X19.541Y16.91
X20.098Y18.283
X20.968Y27.54
X21.79Y28.684
X23.0Y30.466
X23.6Y27.36
T4
X20.03Y8.5
X22.57Y8.5
T3
X17.42Y22.52G85X18.52Y22.52
G05
X17.42Y13.88G85X18.52Y13.88
G05
X21.85Y22.52G85X22.45Y22.52
G05
X21.85Y13.88G85X22.45Y13.88
G05
M30
