%TF.GenerationSoftware,KiCad,Pcbnew,9.0.8+dfsg-1*%
%TF.CreationDate,2026-09-08T08:42:24+05:30*%
%TF.ProjectId,smove-imu-carrier,736d6f76-652d-4696-9d75-2d6361727269,C1-PROTOTYPE*%
%TF.SameCoordinates,Original*%
%TF.FileFunction,Paste,Top*%
%TF.FilePolarity,Positive*%
%FSLAX46Y46*%
G04 Gerber Fmt 4.6, Leading zero omitted, Abs format (unit mm)*
G04 Created by KiCad (PCBNEW 9.0.8+dfsg-1) date 2026-09-08 08:42:24*
%MOMM*%
%LPD*%
G01*
G04 APERTURE LIST*
G04 Aperture macros list*
%AMRoundRect*
0 Rectangle with rounded corners*
0 $1 Rounding radius*
0 $2 $3 $4 $5 $6 $7 $8 $9 X,Y pos of 4 corners*
0 Add a 4 corners polygon primitive as box body*
4,1,4,$2,$3,$4,$5,$6,$7,$8,$9,$2,$3,0*
0 Add four circle primitives for the rounded corners*
1,1,$1+$1,$2,$3*
1,1,$1+$1,$4,$5*
1,1,$1+$1,$6,$7*
1,1,$1+$1,$8,$9*
0 Add four rect primitives between the rounded corners*
20,1,$1+$1,$2,$3,$4,$5,0*
20,1,$1+$1,$4,$5,$6,$7,0*
20,1,$1+$1,$6,$7,$8,$9,0*
20,1,$1+$1,$8,$9,$2,$3,0*%
G04 Aperture macros list end*
%ADD10RoundRect,0.045000X-0.380000X-0.105000X0.380000X-0.105000X0.380000X0.105000X-0.380000X0.105000X0*%
%ADD11RoundRect,0.135000X-0.135000X-0.185000X0.135000X-0.185000X0.135000X0.185000X-0.135000X0.185000X0*%
%ADD12RoundRect,0.150000X-0.512500X-0.150000X0.512500X-0.150000X0.512500X0.150000X-0.512500X0.150000X0*%
%ADD13RoundRect,0.225000X-0.225000X-0.250000X0.225000X-0.250000X0.225000X0.250000X-0.225000X0.250000X0*%
%ADD14RoundRect,0.050000X-0.225000X-0.050000X0.225000X-0.050000X0.225000X0.050000X-0.225000X0.050000X0*%
%ADD15RoundRect,0.050000X0.050000X-0.225000X0.050000X0.225000X-0.050000X0.225000X-0.050000X-0.225000X0*%
%ADD16RoundRect,0.140000X-0.140000X-0.170000X0.140000X-0.170000X0.140000X0.170000X-0.140000X0.170000X0*%
%ADD17RoundRect,0.250000X-0.250000X-1.500000X0.250000X-1.500000X0.250000X1.500000X-0.250000X1.500000X0*%
%ADD18RoundRect,0.250001X-0.499999X-1.449999X0.499999X-1.449999X0.499999X1.449999X-0.499999X1.449999X0*%
%ADD19RoundRect,0.225000X0.250000X-0.225000X0.250000X0.225000X-0.250000X0.225000X-0.250000X-0.225000X0*%
%ADD20RoundRect,0.135000X0.185000X-0.135000X0.185000X0.135000X-0.185000X0.135000X-0.185000X-0.135000X0*%
G04 APERTURE END LIST*
D10*
%TO.C,U3*%
X11350000Y12450000D03*
X11350000Y11950000D03*
X11350000Y11450000D03*
X11350000Y10950000D03*
X14450000Y10950000D03*
X14450000Y11450000D03*
X14450000Y11950000D03*
X14450000Y12450000D03*
%TD*%
D11*
%TO.C,R19*%
X7640000Y11800000D03*
X8660000Y11800000D03*
%TD*%
%TO.C,R16*%
X14190000Y13900000D03*
X15210000Y13900000D03*
%TD*%
D12*
%TO.C,U5*%
X2662500Y12650000D03*
X2662500Y11700000D03*
X2662500Y10750000D03*
X4937500Y10750000D03*
X4937500Y12650000D03*
%TD*%
D13*
%TO.C,C6*%
X4225000Y14300000D03*
X5775000Y14300000D03*
%TD*%
D11*
%TO.C,R17*%
X14190000Y15200000D03*
X15210000Y15200000D03*
%TD*%
%TO.C,R18*%
X8290000Y10600000D03*
X9310000Y10600000D03*
%TD*%
D14*
%TO.C,U2*%
X8000000Y17200000D03*
X8000000Y16800000D03*
X8000000Y16400000D03*
X8000000Y16000000D03*
X8000000Y15600000D03*
X8000000Y15200000D03*
D15*
X8500000Y14700000D03*
X8900000Y14700000D03*
X9300000Y14700000D03*
X9700000Y14700000D03*
X10100000Y14700000D03*
X10500000Y14700000D03*
D14*
X11000000Y15200000D03*
X11000000Y15600000D03*
X11000000Y16000000D03*
X11000000Y16400000D03*
X11000000Y16800000D03*
X11000000Y17200000D03*
D15*
X10500000Y17700000D03*
X10100000Y17700000D03*
X9700000Y17700000D03*
X9300000Y17700000D03*
X8900000Y17700000D03*
X8500000Y17700000D03*
%TD*%
D16*
%TO.C,C7*%
X12120000Y15000000D03*
X13080000Y15000000D03*
%TD*%
%TO.C,C9*%
X9220000Y13050000D03*
X10180000Y13050000D03*
%TD*%
D17*
%TO.C,J5*%
X6000000Y7750000D03*
X8000000Y7750000D03*
X10000000Y7750000D03*
X12000000Y7750000D03*
D18*
X3650000Y2000000D03*
X14350000Y2000000D03*
%TD*%
D19*
%TO.C,C5*%
X950000Y11125000D03*
X950000Y12675000D03*
%TD*%
D16*
%TO.C,C8*%
X7120000Y13400000D03*
X8080000Y13400000D03*
%TD*%
D20*
%TO.C,R20*%
X16400000Y11190000D03*
X16400000Y12210000D03*
%TD*%
M02*
