%TF.GenerationSoftware,KiCad,Pcbnew,9.0.8+dfsg-1*%
%TF.CreationDate,2026-09-08T08:42:24+05:30*%
%TF.ProjectId,smove-imu-carrier,736d6f76-652d-4696-9d75-2d6361727269,C1-PROTOTYPE*%
%TF.SameCoordinates,Original*%
%TF.FileFunction,Legend,Top*%
%TF.FilePolarity,Positive*%
%FSLAX46Y46*%
G04 Gerber Fmt 4.6, Leading zero omitted, Abs format (unit mm)*
G04 Created by KiCad (PCBNEW 9.0.8+dfsg-1) date 2026-09-08 08:42:24*
%MOMM*%
%LPD*%
G01*
G04 APERTURE LIST*
%ADD10C,0.120000*%
G04 APERTURE END LIST*
D10*
X700000Y7200000D02*
X2200000Y7200000D01*
X2200000Y7200000D02*
X1900000Y7400000D01*
X2200000Y7200000D02*
X1900000Y7000000D01*
X16800000Y9800000D02*
X16600000Y9500000D01*
X16800000Y9800000D02*
X17000000Y9500000D01*
X16800000Y8900000D02*
X16800000Y9800000D01*
X814286Y8140907D02*
X1423810Y8140907D01*
X1119048Y7836145D02*
X1119048Y8445669D01*
X1728571Y8636145D02*
X2261905Y7836145D01*
X2261905Y8636145D02*
X1728571Y7836145D01*
X6228571Y9736145D02*
X5771428Y9736145D01*
X6000000Y9736145D02*
X6000000Y10536145D01*
X6000000Y10536145D02*
X5923809Y10421860D01*
X5923809Y10421860D02*
X5847619Y10345669D01*
X5847619Y10345669D02*
X5771428Y10307574D01*
X5557142Y18636145D02*
X5557142Y19436145D01*
X6395237Y18712336D02*
X6357141Y18674240D01*
X6357141Y18674240D02*
X6242856Y18636145D01*
X6242856Y18636145D02*
X6166665Y18636145D01*
X6166665Y18636145D02*
X6052379Y18674240D01*
X6052379Y18674240D02*
X5976189Y18750431D01*
X5976189Y18750431D02*
X5938094Y18826621D01*
X5938094Y18826621D02*
X5899998Y18979002D01*
X5899998Y18979002D02*
X5899998Y19093288D01*
X5899998Y19093288D02*
X5938094Y19245669D01*
X5938094Y19245669D02*
X5976189Y19321860D01*
X5976189Y19321860D02*
X6052379Y19398050D01*
X6052379Y19398050D02*
X6166665Y19436145D01*
X6166665Y19436145D02*
X6242856Y19436145D01*
X6242856Y19436145D02*
X6357141Y19398050D01*
X6357141Y19398050D02*
X6395237Y19359955D01*
X6738094Y18636145D02*
X6738094Y19436145D01*
X6738094Y19436145D02*
X7004760Y18864717D01*
X7004760Y18864717D02*
X7271427Y19436145D01*
X7271427Y19436145D02*
X7271427Y18636145D01*
X7614284Y19359955D02*
X7652380Y19398050D01*
X7652380Y19398050D02*
X7728570Y19436145D01*
X7728570Y19436145D02*
X7919046Y19436145D01*
X7919046Y19436145D02*
X7995237Y19398050D01*
X7995237Y19398050D02*
X8033332Y19359955D01*
X8033332Y19359955D02*
X8071427Y19283764D01*
X8071427Y19283764D02*
X8071427Y19207574D01*
X8071427Y19207574D02*
X8033332Y19093288D01*
X8033332Y19093288D02*
X7576189Y18636145D01*
X7576189Y18636145D02*
X8071427Y18636145D01*
X8566666Y19436145D02*
X8642856Y19436145D01*
X8642856Y19436145D02*
X8719047Y19398050D01*
X8719047Y19398050D02*
X8757142Y19359955D01*
X8757142Y19359955D02*
X8795237Y19283764D01*
X8795237Y19283764D02*
X8833332Y19131383D01*
X8833332Y19131383D02*
X8833332Y18940907D01*
X8833332Y18940907D02*
X8795237Y18788526D01*
X8795237Y18788526D02*
X8757142Y18712336D01*
X8757142Y18712336D02*
X8719047Y18674240D01*
X8719047Y18674240D02*
X8642856Y18636145D01*
X8642856Y18636145D02*
X8566666Y18636145D01*
X8566666Y18636145D02*
X8490475Y18674240D01*
X8490475Y18674240D02*
X8452380Y18712336D01*
X8452380Y18712336D02*
X8414285Y18788526D01*
X8414285Y18788526D02*
X8376189Y18940907D01*
X8376189Y18940907D02*
X8376189Y19131383D01*
X8376189Y19131383D02*
X8414285Y19283764D01*
X8414285Y19283764D02*
X8452380Y19359955D01*
X8452380Y19359955D02*
X8490475Y19398050D01*
X8490475Y19398050D02*
X8566666Y19436145D01*
X9214285Y18636145D02*
X9366666Y18636145D01*
X9366666Y18636145D02*
X9442856Y18674240D01*
X9442856Y18674240D02*
X9480952Y18712336D01*
X9480952Y18712336D02*
X9557142Y18826621D01*
X9557142Y18826621D02*
X9595237Y18979002D01*
X9595237Y18979002D02*
X9595237Y19283764D01*
X9595237Y19283764D02*
X9557142Y19359955D01*
X9557142Y19359955D02*
X9519047Y19398050D01*
X9519047Y19398050D02*
X9442856Y19436145D01*
X9442856Y19436145D02*
X9290475Y19436145D01*
X9290475Y19436145D02*
X9214285Y19398050D01*
X9214285Y19398050D02*
X9176190Y19359955D01*
X9176190Y19359955D02*
X9138094Y19283764D01*
X9138094Y19283764D02*
X9138094Y19093288D01*
X9138094Y19093288D02*
X9176190Y19017098D01*
X9176190Y19017098D02*
X9214285Y18979002D01*
X9214285Y18979002D02*
X9290475Y18940907D01*
X9290475Y18940907D02*
X9442856Y18940907D01*
X9442856Y18940907D02*
X9519047Y18979002D01*
X9519047Y18979002D02*
X9557142Y19017098D01*
X9557142Y19017098D02*
X9595237Y19093288D01*
X10280952Y19169479D02*
X10280952Y18636145D01*
X10090476Y19474240D02*
X9899999Y18902812D01*
X9899999Y18902812D02*
X10395238Y18902812D01*
X10814285Y19093288D02*
X10738095Y19131383D01*
X10738095Y19131383D02*
X10700000Y19169479D01*
X10700000Y19169479D02*
X10661904Y19245669D01*
X10661904Y19245669D02*
X10661904Y19283764D01*
X10661904Y19283764D02*
X10700000Y19359955D01*
X10700000Y19359955D02*
X10738095Y19398050D01*
X10738095Y19398050D02*
X10814285Y19436145D01*
X10814285Y19436145D02*
X10966666Y19436145D01*
X10966666Y19436145D02*
X11042857Y19398050D01*
X11042857Y19398050D02*
X11080952Y19359955D01*
X11080952Y19359955D02*
X11119047Y19283764D01*
X11119047Y19283764D02*
X11119047Y19245669D01*
X11119047Y19245669D02*
X11080952Y19169479D01*
X11080952Y19169479D02*
X11042857Y19131383D01*
X11042857Y19131383D02*
X10966666Y19093288D01*
X10966666Y19093288D02*
X10814285Y19093288D01*
X10814285Y19093288D02*
X10738095Y19055193D01*
X10738095Y19055193D02*
X10700000Y19017098D01*
X10700000Y19017098D02*
X10661904Y18940907D01*
X10661904Y18940907D02*
X10661904Y18788526D01*
X10661904Y18788526D02*
X10700000Y18712336D01*
X10700000Y18712336D02*
X10738095Y18674240D01*
X10738095Y18674240D02*
X10814285Y18636145D01*
X10814285Y18636145D02*
X10966666Y18636145D01*
X10966666Y18636145D02*
X11042857Y18674240D01*
X11042857Y18674240D02*
X11080952Y18712336D01*
X11080952Y18712336D02*
X11119047Y18788526D01*
X11119047Y18788526D02*
X11119047Y18940907D01*
X11119047Y18940907D02*
X11080952Y19017098D01*
X11080952Y19017098D02*
X11042857Y19055193D01*
X11042857Y19055193D02*
X10966666Y19093288D01*
X12071429Y18940907D02*
X12680953Y18940907D01*
X12376191Y18636145D02*
X12376191Y19245669D01*
X12985714Y19436145D02*
X13519048Y19436145D01*
X13519048Y19436145D02*
X12985714Y18636145D01*
X12985714Y18636145D02*
X13519048Y18636145D01*
X16152381Y7940907D02*
X16761905Y7940907D01*
X16457143Y7636145D02*
X16457143Y8245669D01*
X17295238Y8017098D02*
X17295238Y7636145D01*
X17028571Y8436145D02*
X17295238Y8017098D01*
X17295238Y8017098D02*
X17561904Y8436145D01*
%TO.C,U3*%
X11794432Y12885000D02*
X14160000Y12885000D01*
X14160000Y10515000D02*
X11640000Y10515000D01*
X11500000Y12890000D02*
X11360000Y13080000D01*
X11640000Y13080000D01*
X11500000Y12890000D01*
G36*
X11500000Y12890000D02*
G01*
X11360000Y13080000D01*
X11640000Y13080000D01*
X11500000Y12890000D01*
G37*
%TO.C,R19*%
X7996359Y12180000D02*
X8303641Y12180000D01*
X7996359Y11420000D02*
X8303641Y11420000D01*
%TO.C,R16*%
X14546359Y14280000D02*
X14853641Y14280000D01*
X14546359Y13520000D02*
X14853641Y13520000D01*
%TO.C,U5*%
X2890000Y13260000D02*
X4710000Y13260000D01*
X2890000Y13210000D02*
X2890000Y13260000D01*
X2890000Y10140000D02*
X2890000Y10190000D01*
X4710000Y13260000D02*
X4710000Y13210000D01*
X4710000Y12090000D02*
X4710000Y11310000D01*
X4710000Y10190000D02*
X4710000Y10140000D01*
X4710000Y10140000D02*
X2890000Y10140000D01*
X2350000Y13210000D02*
X2110000Y13540000D01*
X2590000Y13540000D01*
X2350000Y13210000D01*
G36*
X2350000Y13210000D02*
G01*
X2110000Y13540000D01*
X2590000Y13540000D01*
X2350000Y13210000D01*
G37*
%TO.C,C6*%
X4859420Y14810000D02*
X5140580Y14810000D01*
X4859420Y13790000D02*
X5140580Y13790000D01*
%TO.C,R17*%
X14546359Y15580000D02*
X14853641Y15580000D01*
X14546359Y14820000D02*
X14853641Y14820000D01*
%TO.C,R18*%
X8646359Y10980000D02*
X8953641Y10980000D01*
X8646359Y10220000D02*
X8953641Y10220000D01*
%TO.C,U2*%
X7900000Y14600000D02*
X7900000Y14850000D01*
X7900000Y14600000D02*
X8150000Y14600000D01*
X11100000Y17800000D02*
X10850000Y17800000D01*
X11100000Y17800000D02*
X11100000Y17550000D01*
X11100000Y14600000D02*
X10850000Y14600000D01*
X11100000Y14600000D02*
X11100000Y14850000D01*
X7900000Y17800000D02*
X7660000Y18130000D01*
X8140000Y18130000D01*
X7900000Y17800000D01*
G36*
X7900000Y17800000D02*
G01*
X7660000Y18130000D01*
X8140000Y18130000D01*
X7900000Y17800000D01*
G37*
%TO.C,C7*%
X12492164Y15360000D02*
X12707836Y15360000D01*
X12492164Y14640000D02*
X12707836Y14640000D01*
%TO.C,C9*%
X9592164Y13410000D02*
X9807836Y13410000D01*
X9592164Y12690000D02*
X9807836Y12690000D01*
%TO.C,J5*%
X2940000Y8210000D02*
X3960000Y8210000D01*
X2940000Y3960000D02*
X2940000Y8210000D01*
X3960000Y8210000D02*
X3960000Y6610000D01*
X3960000Y6610000D02*
X5240000Y6610000D01*
X4660000Y390000D02*
X13340000Y390000D01*
X5240000Y6610000D02*
X5240000Y9500000D01*
X14040000Y8210000D02*
X14040000Y6610000D01*
X14040000Y6610000D02*
X12760000Y6610000D01*
X15060000Y8210000D02*
X14040000Y8210000D01*
X15060000Y3960000D02*
X15060000Y8210000D01*
%TO.C,C5*%
X440000Y11759420D02*
X440000Y12040580D01*
X1460000Y11759420D02*
X1460000Y12040580D01*
%TO.C,C8*%
X7492164Y13760000D02*
X7707836Y13760000D01*
X7492164Y13040000D02*
X7707836Y13040000D01*
%TO.C,R20*%
X16020000Y11546359D02*
X16020000Y11853641D01*
X16780000Y11546359D02*
X16780000Y11853641D01*
%TD*%
M02*
