%TF.GenerationSoftware,KiCad,Pcbnew,9.0.8+dfsg-1*%
%TF.CreationDate,2026-09-08T08:42:24+05:30*%
%TF.ProjectId,smove-imu-carrier,736d6f76-652d-4696-9d75-2d6361727269,C1-PROTOTYPE*%
%TF.SameCoordinates,Original*%
%TF.FileFunction,Copper,L4,Bot*%
%TF.FilePolarity,Positive*%
%FSLAX46Y46*%
G04 Gerber Fmt 4.6, Leading zero omitted, Abs format (unit mm)*
G04 Created by KiCad (PCBNEW 9.0.8+dfsg-1) date 2026-09-08 08:42:24*
%MOMM*%
%LPD*%
G01*
G04 APERTURE LIST*
%TA.AperFunction,ViaPad*%
%ADD10C,0.450000*%
%TD*%
%TA.AperFunction,Conductor*%
%ADD11C,0.150000*%
%TD*%
G04 APERTURE END LIST*
D10*
%TO.N,/1V8_IMU*%
X9300000Y18400000D03*
X14200000Y15850000D03*
X12350000Y11950000D03*
X3400000Y14300000D03*
X14200000Y14550000D03*
X6000000Y12650000D03*
X11300000Y14400000D03*
X12100000Y15650000D03*
X6500000Y12900000D03*
%TO.N,/GND*%
X13150000Y2000000D03*
X950000Y13500000D03*
X10600000Y13950000D03*
X11900000Y17200000D03*
X10100000Y18400000D03*
X13100000Y14350000D03*
X10200000Y13700000D03*
X3850000Y11700000D03*
X11100000Y13050000D03*
X9000000Y7750000D03*
X6600000Y14300000D03*
X4850000Y2000000D03*
X8950000Y13850000D03*
X7750000Y14150000D03*
%TO.N,/SCL_1V8*%
X10400000Y11450000D03*
X15850000Y13900000D03*
X8600000Y18400000D03*
%TO.N,/SDA_1V8*%
X10250000Y10700000D03*
X15850000Y15200000D03*
X7800000Y18400000D03*
%TD*%
D11*
%TO.N,/SCL_1V8*%
X16150000Y14550000D02*
X16100000Y14500000D01*
X10550000Y11800000D02*
X10550000Y11750000D01*
X11600000Y14050000D02*
X11600000Y13000000D01*
X8600000Y18400000D02*
X8600000Y18100000D01*
X11800000Y14450000D02*
X11800000Y14350000D01*
X11350000Y12600000D02*
X12500000Y13750000D01*
X12500000Y13750000D02*
X12500000Y13800000D01*
X10450000Y11500000D02*
X10400000Y11450000D01*
X16300000Y15300000D02*
X16350000Y15250000D01*
X16300000Y14900000D02*
X16300000Y14850000D01*
X15600000Y15600000D02*
X15650000Y15650000D01*
X8700000Y18000000D02*
X8700000Y17650000D01*
X16150000Y14600000D02*
X16150000Y14550000D01*
X11600000Y13000000D02*
X11550000Y12950000D01*
X16350000Y15250000D02*
X16350000Y14950000D01*
X12600000Y13900000D02*
X12600000Y14400000D01*
X15950000Y15650000D02*
X16050000Y15650000D01*
X12900000Y14800000D02*
X13000000Y14800000D01*
X13850000Y14850000D02*
X14000000Y15000000D01*
X15900000Y15700000D02*
X15950000Y15650000D01*
X10500000Y11650000D02*
X10450000Y11600000D01*
X11800000Y14350000D02*
X11750000Y14300000D01*
X16000000Y14250000D02*
X16000000Y14200000D01*
X11550000Y12850000D02*
X10600000Y11900000D01*
X12500000Y13800000D02*
X12600000Y13900000D01*
X16350000Y14950000D02*
X16300000Y14900000D01*
X15650000Y15650000D02*
X15750000Y15650000D01*
X10400000Y11450000D02*
X11350000Y12400000D01*
X15950000Y14100000D02*
X15900000Y14050000D01*
X16300000Y14850000D02*
X16250000Y14800000D01*
X10600000Y11850000D02*
X10550000Y11800000D01*
X11750000Y14500000D02*
X11800000Y14450000D01*
X16250000Y14800000D02*
X16250000Y14750000D01*
X11550000Y12950000D02*
X11550000Y12850000D01*
X12650000Y14450000D02*
X12650000Y14550000D01*
X15900000Y14050000D02*
X15900000Y13950000D01*
X10500000Y11700000D02*
X10500000Y11650000D01*
X14000000Y15000000D02*
X14050000Y15000000D01*
X11750000Y14600000D02*
X11750000Y14500000D01*
X16050000Y14350000D02*
X16050000Y14300000D01*
X16000000Y14200000D02*
X15950000Y14150000D01*
X14050000Y15000000D02*
X14650000Y15600000D01*
X10550000Y11750000D02*
X10500000Y11700000D01*
X16300000Y15400000D02*
X16300000Y15300000D01*
X13000000Y14800000D02*
X13050000Y14850000D01*
X11750000Y14200000D02*
X11600000Y14050000D01*
X16200000Y14700000D02*
X16200000Y14650000D01*
X12650000Y14550000D02*
X12900000Y14800000D01*
X15800000Y15700000D02*
X15900000Y15700000D01*
X14650000Y15600000D02*
X15600000Y15600000D01*
X15750000Y15650000D02*
X15800000Y15700000D01*
X11350000Y12400000D02*
X11350000Y12600000D01*
X8600000Y18100000D02*
X8700000Y18000000D01*
X16200000Y14650000D02*
X16150000Y14600000D01*
X16050000Y15650000D02*
X16300000Y15400000D01*
X15900000Y13950000D02*
X15850000Y13900000D01*
X10450000Y11600000D02*
X10450000Y11500000D01*
X8700000Y17650000D02*
X11750000Y14600000D01*
X16250000Y14750000D02*
X16200000Y14700000D01*
X15950000Y14150000D02*
X15950000Y14100000D01*
X13050000Y14850000D02*
X13850000Y14850000D01*
X16050000Y14300000D02*
X16000000Y14250000D01*
X12600000Y14400000D02*
X12650000Y14450000D01*
X11750000Y14300000D02*
X11750000Y14200000D01*
X10600000Y11900000D02*
X10600000Y11850000D01*
X16100000Y14500000D02*
X16100000Y14400000D01*
X16100000Y14400000D02*
X16050000Y14350000D01*
%TO.N,/SDA_1V8*%
X8150000Y15350000D02*
X8150000Y15300000D01*
X7850000Y16000000D02*
X7850000Y15950000D01*
X7900000Y15850000D02*
X7950000Y15800000D01*
X15350000Y14950000D02*
X15400000Y15000000D01*
X9950000Y11250000D02*
X10050000Y11150000D01*
X9400000Y13950000D02*
X9450000Y13900000D01*
X7950000Y15700000D02*
X8000000Y15650000D01*
X15450000Y15000000D02*
X15500000Y15050000D01*
X10100000Y11050000D02*
X10100000Y11000000D01*
X14250000Y14050000D02*
X14300000Y14100000D01*
X8050000Y15550000D02*
X8050000Y15500000D01*
X7800000Y16050000D02*
X7850000Y16000000D01*
X7850000Y15950000D02*
X7900000Y15900000D01*
X15500000Y15050000D02*
X15550000Y15050000D01*
X10600000Y11000000D02*
X11250000Y11650000D01*
X9450000Y13250000D02*
X9900000Y12800000D01*
X9950000Y11350000D02*
X9950000Y11250000D01*
X7900000Y15900000D02*
X7900000Y15850000D01*
X10050000Y11100000D02*
X10100000Y11050000D01*
X13850000Y14050000D02*
X14250000Y14050000D01*
X9400000Y14050000D02*
X9400000Y13950000D01*
X11400000Y11650000D02*
X12550000Y12800000D01*
X10150000Y10900000D02*
X10200000Y10850000D01*
X10050000Y11150000D02*
X10050000Y11100000D01*
X8100000Y15400000D02*
X8150000Y15350000D01*
X15250000Y14950000D02*
X15350000Y14950000D01*
X14400000Y14100000D02*
X15250000Y14950000D01*
X14300000Y14100000D02*
X14400000Y14100000D01*
X12550000Y12800000D02*
X12600000Y12800000D01*
X10200000Y10750000D02*
X10250000Y10700000D01*
X8000000Y15650000D02*
X8000000Y15600000D01*
X10250000Y10700000D02*
X10550000Y11000000D01*
X12600000Y12800000D02*
X13850000Y14050000D01*
X10100000Y11000000D02*
X10150000Y10950000D01*
X9900000Y11400000D02*
X9950000Y11350000D01*
X8000000Y15600000D02*
X8050000Y15550000D01*
X9900000Y12800000D02*
X9900000Y11400000D01*
X15550000Y15050000D02*
X15600000Y15100000D01*
X10200000Y10850000D02*
X10200000Y10750000D01*
X10550000Y11000000D02*
X10600000Y11000000D01*
X15800000Y15150000D02*
X15850000Y15200000D01*
X10150000Y10950000D02*
X10150000Y10900000D01*
X8100000Y15450000D02*
X8100000Y15400000D01*
X15600000Y15100000D02*
X15650000Y15100000D01*
X11250000Y11650000D02*
X11400000Y11650000D01*
X15400000Y15000000D02*
X15450000Y15000000D01*
X15650000Y15100000D02*
X15700000Y15150000D01*
X9450000Y13900000D02*
X9450000Y13250000D01*
X7800000Y18400000D02*
X7800000Y16050000D01*
X15700000Y15150000D02*
X15800000Y15150000D01*
X8050000Y15500000D02*
X8100000Y15450000D01*
X7950000Y15800000D02*
X7950000Y15700000D01*
X8150000Y15300000D02*
X9400000Y14050000D01*
%TD*%
%TA.AperFunction,Conductor*%
%TO.N,/GND*%
G36*
X17477826Y19477826D02*
G01*
X17499500Y19425500D01*
X17499500Y17895514D01*
X17477826Y17843188D01*
X17425500Y17821514D01*
X17373174Y17843188D01*
X17352922Y17881077D01*
X17350050Y17895514D01*
X17343777Y17927052D01*
X17274401Y18131428D01*
X17274398Y18131435D01*
X17178945Y18324993D01*
X17178935Y18325010D01*
X17118178Y18415939D01*
X17059033Y18504457D01*
X16947275Y18631893D01*
X16916732Y18666721D01*
X16916719Y18666734D01*
X16754457Y18809033D01*
X16575009Y18928937D01*
X16574992Y18928946D01*
X16381433Y19024400D01*
X16177055Y19093777D01*
X16177052Y19093778D01*
X16177051Y19093778D01*
X16104571Y19108196D01*
X15965375Y19135884D01*
X15965372Y19135885D01*
X15965368Y19135885D01*
X15750000Y19150000D01*
X15034629Y19135885D01*
X15034626Y19135885D01*
X14822943Y19093777D01*
X14618565Y19024400D01*
X14425007Y18928947D01*
X14424990Y18928937D01*
X14245541Y18809033D01*
X14083279Y18666734D01*
X14083266Y18666721D01*
X13940967Y18504459D01*
X13821063Y18325010D01*
X13821053Y18324993D01*
X13725600Y18131435D01*
X13656223Y17927057D01*
X13614116Y17715377D01*
X13614115Y17715373D01*
X13614115Y17715369D01*
X13600000Y17500000D01*
X13614115Y17284632D01*
X13614115Y17284628D01*
X13614116Y17284625D01*
X13637709Y17166017D01*
X13649948Y17104488D01*
X13656223Y17072945D01*
X13725600Y16868567D01*
X13821054Y16675008D01*
X13821063Y16674991D01*
X13940967Y16495543D01*
X14058368Y16361672D01*
X14076574Y16308041D01*
X14051523Y16257245D01*
X14039732Y16248795D01*
X13938736Y16190485D01*
X13859515Y16111264D01*
X13803499Y16014242D01*
X13803495Y16014233D01*
X13774500Y15906021D01*
X13774500Y15793980D01*
X13803495Y15685768D01*
X13803496Y15685765D01*
X13803497Y15685763D01*
X13859515Y15588737D01*
X13938737Y15509515D01*
X13944725Y15506058D01*
X14001768Y15473124D01*
X14007855Y15465191D01*
X14017094Y15461364D01*
X14024486Y15443517D01*
X14036247Y15428190D01*
X14034941Y15418276D01*
X14038768Y15409038D01*
X14031375Y15391192D01*
X14028854Y15372038D01*
X14017094Y15356712D01*
X13939705Y15279323D01*
X13915700Y15263283D01*
X13843943Y15233558D01*
X13843939Y15233555D01*
X13757559Y15147174D01*
X13705233Y15125500D01*
X12995200Y15125500D01*
X12888087Y15081133D01*
X12859769Y15075500D01*
X12845200Y15075500D01*
X12773598Y15045842D01*
X12743945Y15033560D01*
X12743942Y15033558D01*
X12493942Y14783557D01*
X12416442Y14706057D01*
X12374500Y14604800D01*
X12374500Y14590229D01*
X12368867Y14561910D01*
X12324500Y14454800D01*
X12324500Y14044767D01*
X12302827Y13992442D01*
X12266442Y13956057D01*
X12266441Y13956055D01*
X12236720Y13884303D01*
X12220679Y13860296D01*
X12001826Y13641443D01*
X11949500Y13619769D01*
X11897174Y13641443D01*
X11875500Y13693769D01*
X11875500Y13905233D01*
X11897174Y13957559D01*
X11983555Y14043940D01*
X11983557Y14043942D01*
X11985890Y14049574D01*
X11988578Y14056061D01*
X12009396Y14106324D01*
X12025500Y14145200D01*
X12025500Y14159768D01*
X12031133Y14188086D01*
X12070677Y14283557D01*
X12075500Y14295200D01*
X12075500Y14404800D01*
X12075500Y14504800D01*
X12074979Y14506058D01*
X12071642Y14514115D01*
X12031133Y14611914D01*
X12025500Y14640232D01*
X12025500Y14654800D01*
X11988055Y14745200D01*
X11983557Y14756059D01*
X11033595Y15706021D01*
X11674500Y15706021D01*
X11674500Y15593980D01*
X11703495Y15485768D01*
X11703499Y15485759D01*
X11735965Y15429527D01*
X11759515Y15388737D01*
X11838737Y15309515D01*
X11935763Y15253497D01*
X12043979Y15224501D01*
X12043980Y15224500D01*
X12043982Y15224500D01*
X12156020Y15224500D01*
X12156020Y15224501D01*
X12264237Y15253497D01*
X12361263Y15309515D01*
X12440485Y15388737D01*
X12496503Y15485763D01*
X12525499Y15593980D01*
X12525500Y15593980D01*
X12525500Y15706020D01*
X12525499Y15706021D01*
X12509507Y15765703D01*
X12496503Y15814237D01*
X12440485Y15911263D01*
X12361263Y15990485D01*
X12320130Y16014233D01*
X12264241Y16046501D01*
X12264232Y16046505D01*
X12156020Y16075500D01*
X12156018Y16075500D01*
X12043982Y16075500D01*
X12043980Y16075500D01*
X11935767Y16046505D01*
X11935758Y16046501D01*
X11838736Y15990485D01*
X11759515Y15911264D01*
X11703499Y15814242D01*
X11703495Y15814233D01*
X11674500Y15706021D01*
X11033595Y15706021D01*
X8997174Y17742442D01*
X8975500Y17794768D01*
X8975500Y17967854D01*
X8997174Y18020180D01*
X9049500Y18041854D01*
X9086499Y18031940D01*
X9135763Y18003497D01*
X9243979Y17974501D01*
X9243980Y17974500D01*
X9243982Y17974500D01*
X9356020Y17974500D01*
X9356020Y17974501D01*
X9464237Y18003497D01*
X9561263Y18059515D01*
X9640485Y18138737D01*
X9696503Y18235763D01*
X9725499Y18343980D01*
X9725500Y18343980D01*
X9725500Y18456020D01*
X9725499Y18456021D01*
X9696504Y18564233D01*
X9696503Y18564237D01*
X9640485Y18661263D01*
X9561263Y18740485D01*
X9464241Y18796501D01*
X9464232Y18796505D01*
X9356020Y18825500D01*
X9356018Y18825500D01*
X9243982Y18825500D01*
X9243980Y18825500D01*
X9135767Y18796505D01*
X9135758Y18796501D01*
X9038736Y18740485D01*
X9002326Y18704074D01*
X8950000Y18682400D01*
X8897674Y18704074D01*
X8861263Y18740485D01*
X8764241Y18796501D01*
X8764232Y18796505D01*
X8656020Y18825500D01*
X8656018Y18825500D01*
X8543982Y18825500D01*
X8543980Y18825500D01*
X8435767Y18796505D01*
X8435758Y18796501D01*
X8338736Y18740485D01*
X8259513Y18661262D01*
X8258709Y18660213D01*
X8258131Y18659880D01*
X8256085Y18657833D01*
X8255536Y18658382D01*
X8209660Y18631893D01*
X8154953Y18646551D01*
X8141291Y18660213D01*
X8140486Y18661262D01*
X8061263Y18740485D01*
X7964241Y18796501D01*
X7964232Y18796505D01*
X7856020Y18825500D01*
X7856018Y18825500D01*
X7743982Y18825500D01*
X7743980Y18825500D01*
X7635767Y18796505D01*
X7635758Y18796501D01*
X7538736Y18740485D01*
X7459515Y18661264D01*
X7403499Y18564242D01*
X7403495Y18564233D01*
X7374500Y18456021D01*
X7374500Y18343980D01*
X7403495Y18235768D01*
X7403499Y18235759D01*
X7459515Y18138737D01*
X7502826Y18095426D01*
X7524500Y18043100D01*
X7524500Y15995200D01*
X7565531Y15896144D01*
X7566443Y15893942D01*
X7575332Y15885053D01*
X7579089Y15879654D01*
X7579912Y15875887D01*
X7586717Y15865703D01*
X7615922Y15795200D01*
X7615923Y15795196D01*
X7616441Y15793946D01*
X7616442Y15793943D01*
X7620679Y15789706D01*
X7636716Y15765703D01*
X7665529Y15696146D01*
X7665530Y15696144D01*
X7665531Y15696143D01*
X7668867Y15688089D01*
X7674500Y15659771D01*
X7674500Y15645200D01*
X7713727Y15550500D01*
X7716443Y15543942D01*
X7725970Y15534415D01*
X7730094Y15528172D01*
X7730790Y15524573D01*
X7736718Y15515701D01*
X7762484Y15453498D01*
X7766442Y15443944D01*
X7766443Y15443942D01*
X7770153Y15440232D01*
X7770679Y15439706D01*
X7786717Y15415703D01*
X7815922Y15345200D01*
X7815923Y15345196D01*
X7816441Y15343946D01*
X7816442Y15343943D01*
X7820680Y15339705D01*
X7836718Y15315701D01*
X7862484Y15253498D01*
X7862485Y15253496D01*
X7866443Y15243942D01*
X7870679Y15239706D01*
X7886717Y15215703D01*
X7898356Y15187606D01*
X7915922Y15145200D01*
X7916443Y15143942D01*
X7916445Y15143940D01*
X9102826Y13957559D01*
X9124500Y13905233D01*
X9124500Y13895200D01*
X9156119Y13818867D01*
X9168867Y13788091D01*
X9174500Y13759772D01*
X9174500Y13195200D01*
X9207633Y13115212D01*
X9207633Y13115211D01*
X9216441Y13093945D01*
X9216444Y13093941D01*
X9602826Y12707559D01*
X9624500Y12655233D01*
X9624500Y11345201D01*
X9657123Y11266443D01*
X9668867Y11238091D01*
X9670842Y11232751D01*
X9674500Y11221554D01*
X9674500Y11195200D01*
X9714141Y11099500D01*
X9715229Y11096873D01*
X9715234Y11096858D01*
X9716441Y11093945D01*
X9716442Y11093943D01*
X9770678Y11039707D01*
X9786719Y11015700D01*
X9815920Y10945205D01*
X9815921Y10945201D01*
X9816441Y10943945D01*
X9816442Y10943943D01*
X9820681Y10939704D01*
X9836718Y10915702D01*
X9845666Y10894102D01*
X9848779Y10846629D01*
X9824500Y10756018D01*
X9824500Y10643980D01*
X9853495Y10535768D01*
X9853496Y10535765D01*
X9853497Y10535763D01*
X9909515Y10438737D01*
X9988737Y10359515D01*
X10085763Y10303497D01*
X10193979Y10274501D01*
X10193980Y10274500D01*
X10193982Y10274500D01*
X10306020Y10274500D01*
X10306020Y10274501D01*
X10414237Y10303497D01*
X10511263Y10359515D01*
X10590485Y10438737D01*
X10646503Y10535763D01*
X10675499Y10643980D01*
X10675500Y10643980D01*
X10675500Y10683630D01*
X10697174Y10735956D01*
X10721182Y10751997D01*
X10756058Y10766443D01*
X10833557Y10843942D01*
X10833556Y10843942D01*
X11342442Y11352826D01*
X11394768Y11374500D01*
X11454798Y11374500D01*
X11454800Y11374500D01*
X11556058Y11416443D01*
X11633557Y11493942D01*
X11633556Y11493942D01*
X11668517Y11528903D01*
X11875012Y11735399D01*
X11927337Y11757072D01*
X11979663Y11735398D01*
X11991422Y11720073D01*
X12009514Y11688738D01*
X12009515Y11688737D01*
X12088737Y11609515D01*
X12185763Y11553497D01*
X12293979Y11524501D01*
X12293980Y11524500D01*
X12293982Y11524500D01*
X12406020Y11524500D01*
X12406020Y11524501D01*
X12514237Y11553497D01*
X12611263Y11609515D01*
X12690485Y11688737D01*
X12746503Y11785763D01*
X12775499Y11893980D01*
X12775500Y11893980D01*
X12775500Y12006020D01*
X12775499Y12006021D01*
X12746504Y12114233D01*
X12746503Y12114237D01*
X12690485Y12211263D01*
X12611263Y12290485D01*
X12579927Y12308577D01*
X12573840Y12316510D01*
X12564602Y12320336D01*
X12557209Y12338185D01*
X12545450Y12353509D01*
X12546755Y12363423D01*
X12542928Y12372662D01*
X12550320Y12390510D01*
X12552842Y12409662D01*
X12564602Y12424988D01*
X12577897Y12438283D01*
X12660297Y12520683D01*
X12684300Y12536721D01*
X12756058Y12566443D01*
X12833557Y12643942D01*
X13942441Y13752826D01*
X13994767Y13774500D01*
X14304798Y13774500D01*
X14304800Y13774500D01*
X14406058Y13816443D01*
X14406058Y13816444D01*
X14411910Y13818867D01*
X14440229Y13824500D01*
X14454798Y13824500D01*
X14454800Y13824500D01*
X14556058Y13866443D01*
X14633557Y13943942D01*
X14633556Y13943942D01*
X14668517Y13978903D01*
X14668516Y13978903D01*
X15342442Y14652826D01*
X15394768Y14674500D01*
X15404799Y14674500D01*
X15404800Y14674500D01*
X15506058Y14716443D01*
X15510290Y14720676D01*
X15529526Y14734542D01*
X15531862Y14735711D01*
X15606058Y14766443D01*
X15618784Y14779171D01*
X15629526Y14784541D01*
X15631218Y14784662D01*
X15634298Y14786719D01*
X15651734Y14793942D01*
X15655898Y14795668D01*
X15703371Y14798779D01*
X15793979Y14774501D01*
X15793980Y14774500D01*
X15807139Y14774500D01*
X15859465Y14752826D01*
X15881139Y14700500D01*
X15868668Y14659389D01*
X15866444Y14656061D01*
X15824500Y14554800D01*
X15824500Y14540230D01*
X15818867Y14511910D01*
X15786718Y14434299D01*
X15770680Y14410296D01*
X15766442Y14406059D01*
X15739433Y14340856D01*
X15699384Y14300809D01*
X15690228Y14297701D01*
X15685766Y14296505D01*
X15588736Y14240485D01*
X15509515Y14161264D01*
X15453499Y14064242D01*
X15453495Y14064233D01*
X15424500Y13956021D01*
X15424500Y13843980D01*
X15453495Y13735768D01*
X15453496Y13735765D01*
X15453497Y13735763D01*
X15509515Y13638737D01*
X15588737Y13559515D01*
X15685763Y13503497D01*
X15793979Y13474501D01*
X15793980Y13474500D01*
X15793982Y13474500D01*
X15906020Y13474500D01*
X15906020Y13474501D01*
X16014237Y13503497D01*
X16111263Y13559515D01*
X16190485Y13638737D01*
X16246503Y13735763D01*
X16275499Y13843980D01*
X16275500Y13843980D01*
X16275500Y13956020D01*
X16275499Y13956021D01*
X16275490Y13956055D01*
X16251221Y14046629D01*
X16254331Y14094097D01*
X16263279Y14115699D01*
X16279324Y14139708D01*
X16283556Y14143940D01*
X16283556Y14143941D01*
X16283558Y14143942D01*
X16313279Y14215700D01*
X16329320Y14239705D01*
X16333558Y14243942D01*
X16375500Y14345200D01*
X16375500Y14359768D01*
X16381132Y14388085D01*
X16388055Y14404800D01*
X16413279Y14465700D01*
X16429325Y14489709D01*
X16433556Y14493940D01*
X16433556Y14493941D01*
X16433558Y14493942D01*
X16463279Y14565700D01*
X16479325Y14589709D01*
X16483556Y14593940D01*
X16483556Y14593941D01*
X16483558Y14593942D01*
X16513279Y14665700D01*
X16529325Y14689709D01*
X16533556Y14693940D01*
X16533556Y14693941D01*
X16533558Y14693942D01*
X16563279Y14765700D01*
X16579320Y14789705D01*
X16583558Y14793942D01*
X16625500Y14895200D01*
X16625500Y15004800D01*
X16625500Y15304800D01*
X16624979Y15306058D01*
X16609287Y15343943D01*
X16581133Y15411914D01*
X16575500Y15440232D01*
X16575500Y15454800D01*
X16538055Y15545200D01*
X16533557Y15556059D01*
X16265931Y15823684D01*
X16244258Y15876009D01*
X16265932Y15928335D01*
X16294469Y15946081D01*
X16381427Y15975599D01*
X16575000Y16071059D01*
X16754456Y16190967D01*
X16916726Y16333274D01*
X17059033Y16495544D01*
X17178941Y16675000D01*
X17274401Y16868573D01*
X17343777Y17072949D01*
X17352922Y17118926D01*
X17384388Y17166017D01*
X17439937Y17177066D01*
X17487029Y17145600D01*
X17499500Y17104488D01*
X17499500Y574500D01*
X17477826Y522174D01*
X17425500Y500500D01*
X574500Y500500D01*
X522174Y522174D01*
X500500Y574500D01*
X500500Y12706021D01*
X5574500Y12706021D01*
X5574500Y12593980D01*
X5603495Y12485768D01*
X5603499Y12485759D01*
X5638585Y12424988D01*
X5659515Y12388737D01*
X5738737Y12309515D01*
X5835763Y12253497D01*
X5943979Y12224501D01*
X5943980Y12224500D01*
X5943982Y12224500D01*
X6056020Y12224500D01*
X6056020Y12224501D01*
X6164237Y12253497D01*
X6261263Y12309515D01*
X6340485Y12388737D01*
X6369090Y12438284D01*
X6414023Y12472762D01*
X6439132Y12474409D01*
X6439132Y12474500D01*
X6440530Y12474500D01*
X6442833Y12474651D01*
X6443980Y12474500D01*
X6443982Y12474500D01*
X6556020Y12474500D01*
X6556020Y12474501D01*
X6664237Y12503497D01*
X6761263Y12559515D01*
X6840485Y12638737D01*
X6896503Y12735763D01*
X6925499Y12843980D01*
X6925500Y12843980D01*
X6925500Y12956020D01*
X6925499Y12956021D01*
X6896504Y13064233D01*
X6896503Y13064237D01*
X6840485Y13161263D01*
X6761263Y13240485D01*
X6664241Y13296501D01*
X6664232Y13296505D01*
X6556020Y13325500D01*
X6556018Y13325500D01*
X6443982Y13325500D01*
X6443980Y13325500D01*
X6335767Y13296505D01*
X6335758Y13296501D01*
X6238736Y13240485D01*
X6159516Y13161265D01*
X6130909Y13111716D01*
X6085975Y13077238D01*
X6060868Y13075592D01*
X6060868Y13075500D01*
X6059478Y13075500D01*
X6057176Y13075349D01*
X6056028Y13075500D01*
X6056018Y13075500D01*
X5943982Y13075500D01*
X5943980Y13075500D01*
X5835767Y13046505D01*
X5835758Y13046501D01*
X5738736Y12990485D01*
X5659515Y12911264D01*
X5603499Y12814242D01*
X5603495Y12814233D01*
X5574500Y12706021D01*
X500500Y12706021D01*
X500500Y14356021D01*
X2974500Y14356021D01*
X2974500Y14243980D01*
X3003495Y14135768D01*
X3003499Y14135759D01*
X3044795Y14064233D01*
X3059515Y14038737D01*
X3138737Y13959515D01*
X3235763Y13903497D01*
X3343979Y13874501D01*
X3343980Y13874500D01*
X3343982Y13874500D01*
X3456020Y13874500D01*
X3456020Y13874501D01*
X3564237Y13903497D01*
X3661263Y13959515D01*
X3740485Y14038737D01*
X3796503Y14135763D01*
X3825499Y14243980D01*
X3825500Y14243980D01*
X3825500Y14356020D01*
X3825499Y14356021D01*
X3822262Y14368100D01*
X3796503Y14464237D01*
X3740485Y14561263D01*
X3661263Y14640485D01*
X3628520Y14659389D01*
X3564241Y14696501D01*
X3564232Y14696505D01*
X3456020Y14725500D01*
X3456018Y14725500D01*
X3343982Y14725500D01*
X3343980Y14725500D01*
X3235767Y14696505D01*
X3235758Y14696501D01*
X3138736Y14640485D01*
X3059515Y14561264D01*
X3003499Y14464242D01*
X3003495Y14464233D01*
X2974500Y14356021D01*
X500500Y14356021D01*
X500500Y17500000D01*
X850000Y17500000D01*
X864115Y17284632D01*
X864115Y17284628D01*
X864116Y17284625D01*
X887709Y17166017D01*
X899948Y17104488D01*
X906223Y17072945D01*
X975600Y16868567D01*
X1071054Y16675008D01*
X1071063Y16674991D01*
X1190967Y16495543D01*
X1333266Y16333281D01*
X1333279Y16333268D01*
X1419967Y16257245D01*
X1495543Y16190967D01*
X1547789Y16156058D01*
X1674990Y16071065D01*
X1675007Y16071055D01*
X1868565Y15975602D01*
X1868567Y15975602D01*
X1868572Y15975599D01*
X2072948Y15906223D01*
X2284631Y15864116D01*
X2500000Y15850000D01*
X2715368Y15864116D01*
X2927051Y15906223D01*
X3131427Y15975599D01*
X3325000Y16071059D01*
X3504456Y16190967D01*
X3666726Y16333274D01*
X3809033Y16495544D01*
X3928941Y16675000D01*
X4024401Y16868573D01*
X4093777Y17072949D01*
X4135884Y17284632D01*
X4150000Y17500000D01*
X4135884Y17715369D01*
X4093777Y17927052D01*
X4024401Y18131428D01*
X4024398Y18131435D01*
X3928945Y18324993D01*
X3928935Y18325010D01*
X3868178Y18415939D01*
X3809033Y18504457D01*
X3697275Y18631893D01*
X3666732Y18666721D01*
X3666719Y18666734D01*
X3504457Y18809033D01*
X3325009Y18928937D01*
X3324992Y18928946D01*
X3131433Y19024400D01*
X2927055Y19093777D01*
X2927052Y19093778D01*
X2927051Y19093778D01*
X2854571Y19108196D01*
X2715375Y19135884D01*
X2715372Y19135885D01*
X2715368Y19135885D01*
X2500000Y19150000D01*
X2499999Y19150000D01*
X2473918Y19148291D01*
X2284631Y19135885D01*
X2284627Y19135885D01*
X2284623Y19135884D01*
X2072943Y19093777D01*
X1868565Y19024400D01*
X1675007Y18928947D01*
X1674990Y18928937D01*
X1495541Y18809033D01*
X1333279Y18666734D01*
X1333266Y18666721D01*
X1190967Y18504459D01*
X1071063Y18325010D01*
X1071053Y18324993D01*
X975600Y18131435D01*
X906223Y17927057D01*
X864116Y17715377D01*
X864115Y17715373D01*
X864115Y17715369D01*
X850000Y17500000D01*
X500500Y17500000D01*
X500500Y18262034D01*
X522174Y18314360D01*
X1685640Y19477826D01*
X1737966Y19499500D01*
X17425500Y19499500D01*
X17477826Y19477826D01*
G37*
%TD.AperFunction*%
%TA.AperFunction,Conductor*%
G36*
X8222388Y18159522D02*
G01*
X8245042Y18153454D01*
X8251352Y18147144D01*
X8252907Y18146479D01*
X8258127Y18141142D01*
X8259515Y18138737D01*
X8303097Y18095155D01*
X8303407Y18094838D01*
X8320905Y18051917D01*
X8323078Y18052349D01*
X8324499Y18045202D01*
X8341774Y18003496D01*
X8365922Y17945200D01*
X8366443Y17943942D01*
X8404808Y17905577D01*
X8406639Y17903445D01*
X8414653Y17879006D01*
X8424500Y17855233D01*
X8424500Y17595201D01*
X8463934Y17500000D01*
X8463935Y17499998D01*
X8466443Y17493942D01*
X11085397Y14874988D01*
X11107071Y14822662D01*
X11085397Y14770336D01*
X11070073Y14758578D01*
X11060112Y14752826D01*
X11038735Y14740484D01*
X10959515Y14661264D01*
X10903499Y14564242D01*
X10903495Y14564233D01*
X10874500Y14456021D01*
X10874500Y14343980D01*
X10903495Y14235768D01*
X10903496Y14235765D01*
X10903497Y14235763D01*
X10959515Y14138737D01*
X11038737Y14059515D01*
X11135763Y14003497D01*
X11243979Y13974501D01*
X11243980Y13974500D01*
X11243982Y13974500D01*
X11250500Y13974500D01*
X11302826Y13952826D01*
X11324500Y13900500D01*
X11324500Y13140229D01*
X11318867Y13111910D01*
X11274500Y13004800D01*
X11274500Y12994767D01*
X11252826Y12942441D01*
X10366442Y12056057D01*
X10366442Y12056056D01*
X10336718Y11984299D01*
X10327267Y11967843D01*
X10324225Y11963842D01*
X10316443Y11956058D01*
X10314205Y11950658D01*
X10308416Y11943039D01*
X10291592Y11933222D01*
X10277816Y11919447D01*
X10267986Y11919448D01*
X10259498Y11914494D01*
X10240659Y11919449D01*
X10221178Y11919449D01*
X10214228Y11926400D01*
X10204724Y11928899D01*
X10194906Y11945723D01*
X10181132Y11959499D01*
X10178165Y11974413D01*
X10176179Y11977817D01*
X10176924Y11980653D01*
X10175500Y11987815D01*
X10175500Y12854801D01*
X10145841Y12926401D01*
X10145840Y12926403D01*
X10133557Y12956059D01*
X9747174Y13342442D01*
X9725500Y13394768D01*
X9725500Y13954799D01*
X9724995Y13956018D01*
X9720677Y13966443D01*
X9709908Y13992442D01*
X9681133Y14061914D01*
X9675500Y14090232D01*
X9675500Y14104800D01*
X9662676Y14135759D01*
X9633557Y14206058D01*
X9556058Y14283557D01*
X8429320Y15410295D01*
X8415458Y15429527D01*
X8414290Y15431863D01*
X8413588Y15433558D01*
X8383558Y15506058D01*
X8370827Y15518789D01*
X8365457Y15529529D01*
X8365336Y15531223D01*
X8363280Y15534300D01*
X8333558Y15606058D01*
X8329321Y15610295D01*
X8313280Y15634303D01*
X8283559Y15706056D01*
X8283557Y15706059D01*
X8279321Y15710295D01*
X8263280Y15734303D01*
X8231133Y15811914D01*
X8225500Y15840232D01*
X8225500Y15854798D01*
X8225500Y15854800D01*
X8224979Y15856058D01*
X8221640Y15864118D01*
X8183558Y15956058D01*
X8179319Y15960297D01*
X8165457Y15979530D01*
X8164286Y15981871D01*
X8133558Y16056058D01*
X8120829Y16068787D01*
X8115459Y16079528D01*
X8115338Y16081222D01*
X8113280Y16084303D01*
X8081133Y16161914D01*
X8075500Y16190232D01*
X8075500Y18043100D01*
X8097174Y18095426D01*
X8140485Y18138737D01*
X8140488Y18138744D01*
X8141287Y18139783D01*
X8141864Y18140117D01*
X8143915Y18142167D01*
X8144464Y18141618D01*
X8146084Y18142554D01*
X8148262Y18147648D01*
X8170023Y18156379D01*
X8190333Y18168107D01*
X8195685Y18166674D01*
X8200827Y18168736D01*
X8222388Y18159522D01*
G37*
%TD.AperFunction*%
%TA.AperFunction,Conductor*%
G36*
X13719422Y14566663D02*
G01*
X13739627Y14563310D01*
X13744727Y14556181D01*
X13752826Y14552826D01*
X13760663Y14533905D01*
X13772580Y14517247D01*
X13774500Y14508984D01*
X13774500Y14493982D01*
X13800722Y14396119D01*
X13801007Y14394893D01*
X13796561Y14368100D01*
X13793013Y14341146D01*
X13791955Y14340335D01*
X13791737Y14339019D01*
X13757246Y14309779D01*
X13693943Y14283558D01*
X13693942Y14283557D01*
X12489706Y13079323D01*
X12465700Y13063282D01*
X12393943Y13033559D01*
X12393942Y13033559D01*
X12393942Y13033558D01*
X11846144Y12485759D01*
X11751826Y12391441D01*
X11699500Y12369767D01*
X11647174Y12391441D01*
X11625500Y12443767D01*
X11625500Y12455233D01*
X11647174Y12507559D01*
X12173174Y13033559D01*
X12733558Y13593942D01*
X12763280Y13665702D01*
X12779318Y13689705D01*
X12833557Y13743941D01*
X12854268Y13793942D01*
X12875500Y13845200D01*
X12875500Y14259768D01*
X12881133Y14288086D01*
X12921591Y14385763D01*
X12925500Y14395200D01*
X12925500Y14405233D01*
X12927086Y14409061D01*
X12931848Y14420560D01*
X12947174Y14457559D01*
X12947175Y14457559D01*
X12992443Y14502826D01*
X12999488Y14505744D01*
X13044768Y14524500D01*
X13054798Y14524500D01*
X13054800Y14524500D01*
X13156058Y14566443D01*
X13156058Y14566444D01*
X13161910Y14568867D01*
X13190229Y14574500D01*
X13700500Y14574500D01*
X13719422Y14566663D01*
G37*
%TD.AperFunction*%
%TD*%
M02*
