M48
; DRILL file {KiCad 9.0.8+dfsg-1} date 2026-09-08T08:42:24+0530
; FORMAT={-:-/ absolute / metric / decimal}
; #@! TF.CreationDate,2026-09-08T08:42:24+05:30
; #@! TF.GenerationSoftware,Kicad,Pcbnew,9.0.8+dfsg-1
; #@! TF.FileFunction,Plated,1,4,PTH
FMAT,2
METRIC
; #@! TA.AperFunction,Plated,PTH,ViaDrill
T1C0.200
%
G90
G05
T1
X0.95Y13.5
X3.4Y14.3
X3.85Y11.7
X4.85Y2.0
X6.0Y12.65
X6.5Y12.9
X6.6Y14.3
X7.75Y14.15
X7.8Y18.4
X8.6Y18.4
X8.95Y13.85
X9.0Y7.75
X9.3Y18.4
X10.1Y18.4
X10.2Y13.7
X10.25Y10.7
X10.4Y11.45
X10.6Y13.95
X11.1Y13.05
X11.3Y14.4
X11.9Y17.2
X12.1Y15.65
X12.35Y11.95
X13.1Y14.35
X13.15Y2.0
X14.2Y15.85
X14.2Y14.55
X15.85Y15.2
X15.85Y13.9
M30
