ISO-10303-21;
HEADER;
FILE_DESCRIPTION(('KiCad electronic assembly'),'2;1');
FILE_NAME('main-board-only.step','2026-09-10T09:09:01',('Pcbnew'),(
    'Kicad'),'Open CASCADE STEP processor 7.9','KiCad to STEP converter'
  ,'Unknown');
FILE_SCHEMA(('AUTOMOTIVE_DESIGN { 1 0 10303 214 1 1 1 1 }'));
ENDSEC;
DATA;
#1 = APPLICATION_PROTOCOL_DEFINITION('international standard',
  'automotive_design',2000,#2);
#2 = APPLICATION_CONTEXT(
  'core data for automotive mechanical design processes');
#3 = SHAPE_DEFINITION_REPRESENTATION(#4,#10);
#4 = PRODUCT_DEFINITION_SHAPE('','',#5);
#5 = PRODUCT_DEFINITION('design','',#6,#9);
#6 = PRODUCT_DEFINITION_FORMATION('','',#7);
#7 = PRODUCT('main-board-only 1','main-board-only 1','',(#8));
#8 = PRODUCT_CONTEXT('',#2,'mechanical');
#9 = PRODUCT_DEFINITION_CONTEXT('part definition',#2,'design');
#10 = SHAPE_REPRESENTATION('',(#11,#15),#19);
#11 = AXIS2_PLACEMENT_3D('',#12,#13,#14);
#12 = CARTESIAN_POINT('',(0.,0.,0.));
#13 = DIRECTION('',(0.,0.,1.));
#14 = DIRECTION('',(1.,0.,-0.));
#15 = AXIS2_PLACEMENT_3D('',#16,#17,#18);
#16 = CARTESIAN_POINT('',(0.,0.,0.));
#17 = DIRECTION('',(0.,0.,1.));
#18 = DIRECTION('',(1.,0.,-0.));
#19 = ( GEOMETRIC_REPRESENTATION_CONTEXT(3)
GLOBAL_UNCERTAINTY_ASSIGNED_CONTEXT((#23)) GLOBAL_UNIT_ASSIGNED_CONTEXT(
(#20,#21,#22)) REPRESENTATION_CONTEXT('Context #1',
  '3D Context with UNIT and UNCERTAINTY') );
#20 = ( LENGTH_UNIT() NAMED_UNIT(*) SI_UNIT(.MILLI.,.METRE.) );
#21 = ( NAMED_UNIT(*) PLANE_ANGLE_UNIT() SI_UNIT($,.RADIAN.) );
#22 = ( NAMED_UNIT(*) SI_UNIT($,.STERADIAN.) SOLID_ANGLE_UNIT() );
#23 = UNCERTAINTY_MEASURE_WITH_UNIT(LENGTH_MEASURE(1.E-07),#20,
  'distance_accuracy_value','confusion accuracy');
#24 = PRODUCT_RELATED_PRODUCT_CATEGORY('part',$,(#7));
#25 = SHAPE_DEFINITION_REPRESENTATION(#26,#32);
#26 = PRODUCT_DEFINITION_SHAPE('','',#27);
#27 = PRODUCT_DEFINITION('design','',#28,#31);
#28 = PRODUCT_DEFINITION_FORMATION('','',#29);
#29 = PRODUCT('smove-r2-main_PCB','smove-r2-main_PCB','',(#30));
#30 = PRODUCT_CONTEXT('',#2,'mechanical');
#31 = PRODUCT_DEFINITION_CONTEXT('part definition',#2,'design');
#32 = ADVANCED_BREP_SHAPE_REPRESENTATION('',(#11,#33),#1031);
#33 = MANIFOLD_SOLID_BREP('',#34);
#34 = CLOSED_SHELL('',(#35,#75,#106,#137,#374,#611,#628,#645,#662,#679,
    #691,#713,#730,#747,#759,#776,#798,#815,#832,#844,#866,#883,#900,
    #912,#929,#951,#968,#985,#997,#1014));
#35 = ADVANCED_FACE('',(#36),#70,.T.);
#36 = FACE_BOUND('',#37,.T.);
#37 = EDGE_LOOP('',(#38,#48,#56,#64));
#38 = ORIENTED_EDGE('',*,*,#39,.T.);
#39 = EDGE_CURVE('',#40,#42,#44,.T.);
#40 = VERTEX_POINT('',#41);
#41 = CARTESIAN_POINT('',(25.,23.5,0.));
#42 = VERTEX_POINT('',#43);
#43 = CARTESIAN_POINT('',(25.,23.5,0.91));
#44 = LINE('',#45,#46);
#45 = CARTESIAN_POINT('',(25.,23.5,0.));
#46 = VECTOR('',#47,1.);
#47 = DIRECTION('',(0.,0.,1.));
#48 = ORIENTED_EDGE('',*,*,#49,.T.);
#49 = EDGE_CURVE('',#42,#50,#52,.T.);
#50 = VERTEX_POINT('',#51);
#51 = CARTESIAN_POINT('',(24.45,23.5,0.91));
#52 = LINE('',#53,#54);
#53 = CARTESIAN_POINT('',(25.,23.5,0.91));
#54 = VECTOR('',#55,1.);
#55 = DIRECTION('',(-1.,0.,0.));
#56 = ORIENTED_EDGE('',*,*,#57,.F.);
#57 = EDGE_CURVE('',#58,#50,#60,.T.);
#58 = VERTEX_POINT('',#59);
#59 = CARTESIAN_POINT('',(24.45,23.5,0.));
#60 = LINE('',#61,#62);
#61 = CARTESIAN_POINT('',(24.45,23.5,0.));
#62 = VECTOR('',#63,1.);
#63 = DIRECTION('',(0.,0.,1.));
#64 = ORIENTED_EDGE('',*,*,#65,.F.);
#65 = EDGE_CURVE('',#40,#58,#66,.T.);
#66 = LINE('',#67,#68);
#67 = CARTESIAN_POINT('',(25.,23.5,0.));
#68 = VECTOR('',#69,1.);
#69 = DIRECTION('',(-1.,0.,0.));
#70 = PLANE('',#71);
#71 = AXIS2_PLACEMENT_3D('',#72,#73,#74);
#72 = CARTESIAN_POINT('',(25.,23.5,0.));
#73 = DIRECTION('',(0.,-1.,0.));
#74 = DIRECTION('',(-1.,0.,0.));
#75 = ADVANCED_FACE('',(#76),#101,.T.);
#76 = FACE_BOUND('',#77,.T.);
#77 = EDGE_LOOP('',(#78,#88,#94,#95));
#78 = ORIENTED_EDGE('',*,*,#79,.T.);
#79 = EDGE_CURVE('',#80,#82,#84,.T.);
#80 = VERTEX_POINT('',#81);
#81 = CARTESIAN_POINT('',(25.,35.,0.));
#82 = VERTEX_POINT('',#83);
#83 = CARTESIAN_POINT('',(25.,35.,0.91));
#84 = LINE('',#85,#86);
#85 = CARTESIAN_POINT('',(25.,35.,0.));
#86 = VECTOR('',#87,1.);
#87 = DIRECTION('',(0.,0.,1.));
#88 = ORIENTED_EDGE('',*,*,#89,.T.);
#89 = EDGE_CURVE('',#82,#42,#90,.T.);
#90 = LINE('',#91,#92);
#91 = CARTESIAN_POINT('',(25.,35.,0.91));
#92 = VECTOR('',#93,1.);
#93 = DIRECTION('',(0.,-1.,0.));
#94 = ORIENTED_EDGE('',*,*,#39,.F.);
#95 = ORIENTED_EDGE('',*,*,#96,.F.);
#96 = EDGE_CURVE('',#80,#40,#97,.T.);
#97 = LINE('',#98,#99);
#98 = CARTESIAN_POINT('',(25.,35.,0.));
#99 = VECTOR('',#100,1.);
#100 = DIRECTION('',(0.,-1.,0.));
#101 = PLANE('',#102);
#102 = AXIS2_PLACEMENT_3D('',#103,#104,#105);
#103 = CARTESIAN_POINT('',(25.,35.,0.));
#104 = DIRECTION('',(1.,0.,-0.));
#105 = DIRECTION('',(0.,-1.,0.));
#106 = ADVANCED_FACE('',(#107),#132,.T.);
#107 = FACE_BOUND('',#108,.T.);
#108 = EDGE_LOOP('',(#109,#110,#118,#126));
#109 = ORIENTED_EDGE('',*,*,#57,.T.);
#110 = ORIENTED_EDGE('',*,*,#111,.T.);
#111 = EDGE_CURVE('',#50,#112,#114,.T.);
#112 = VERTEX_POINT('',#113);
#113 = CARTESIAN_POINT('',(24.45,12.9,0.91));
#114 = LINE('',#115,#116);
#115 = CARTESIAN_POINT('',(24.45,23.5,0.91));
#116 = VECTOR('',#117,1.);
#117 = DIRECTION('',(0.,-1.,0.));
#118 = ORIENTED_EDGE('',*,*,#119,.F.);
#119 = EDGE_CURVE('',#120,#112,#122,.T.);
#120 = VERTEX_POINT('',#121);
#121 = CARTESIAN_POINT('',(24.45,12.9,0.));
#122 = LINE('',#123,#124);
#123 = CARTESIAN_POINT('',(24.45,12.9,0.));
#124 = VECTOR('',#125,1.);
#125 = DIRECTION('',(0.,0.,1.));
#126 = ORIENTED_EDGE('',*,*,#127,.F.);
#127 = EDGE_CURVE('',#58,#120,#128,.T.);
#128 = LINE('',#129,#130);
#129 = CARTESIAN_POINT('',(24.45,23.5,0.));
#130 = VECTOR('',#131,1.);
#131 = DIRECTION('',(0.,-1.,0.));
#132 = PLANE('',#133);
#133 = AXIS2_PLACEMENT_3D('',#134,#135,#136);
#134 = CARTESIAN_POINT('',(24.45,23.5,0.));
#135 = DIRECTION('',(1.,0.,-0.));
#136 = DIRECTION('',(0.,-1.,0.));
#137 = ADVANCED_FACE('',(#138,#181,#217,#228,#264,#300,#311,#347,#358),
  #369,.F.);
#138 = FACE_BOUND('',#139,.F.);
#139 = EDGE_LOOP('',(#140,#141,#142,#150,#158,#166,#174,#180));
#140 = ORIENTED_EDGE('',*,*,#65,.F.);
#141 = ORIENTED_EDGE('',*,*,#96,.F.);
#142 = ORIENTED_EDGE('',*,*,#143,.F.);
#143 = EDGE_CURVE('',#144,#80,#146,.T.);
#144 = VERTEX_POINT('',#145);
#145 = CARTESIAN_POINT('',(0.,35.,0.));
#146 = LINE('',#147,#148);
#147 = CARTESIAN_POINT('',(0.,35.,0.));
#148 = VECTOR('',#149,1.);
#149 = DIRECTION('',(1.,0.,0.));
#150 = ORIENTED_EDGE('',*,*,#151,.F.);
#151 = EDGE_CURVE('',#152,#144,#154,.T.);
#152 = VERTEX_POINT('',#153);
#153 = CARTESIAN_POINT('',(0.,5.,0.));
#154 = LINE('',#155,#156);
#155 = CARTESIAN_POINT('',(0.,5.,0.));
#156 = VECTOR('',#157,1.);
#157 = DIRECTION('',(0.,1.,0.));
#158 = ORIENTED_EDGE('',*,*,#159,.F.);
#159 = EDGE_CURVE('',#160,#152,#162,.T.);
#160 = VERTEX_POINT('',#161);
#161 = CARTESIAN_POINT('',(25.,5.,0.));
#162 = LINE('',#163,#164);
#163 = CARTESIAN_POINT('',(25.,5.,0.));
#164 = VECTOR('',#165,1.);
#165 = DIRECTION('',(-1.,0.,0.));
#166 = ORIENTED_EDGE('',*,*,#167,.F.);
#167 = EDGE_CURVE('',#168,#160,#170,.T.);
#168 = VERTEX_POINT('',#169);
#169 = CARTESIAN_POINT('',(25.,12.9,0.));
#170 = LINE('',#171,#172);
#171 = CARTESIAN_POINT('',(25.,12.9,0.));
#172 = VECTOR('',#173,1.);
#173 = DIRECTION('',(0.,-1.,0.));
#174 = ORIENTED_EDGE('',*,*,#175,.F.);
#175 = EDGE_CURVE('',#120,#168,#176,.T.);
#176 = LINE('',#177,#178);
#177 = CARTESIAN_POINT('',(24.45,12.9,0.));
#178 = VECTOR('',#179,1.);
#179 = DIRECTION('',(1.,0.,0.));
#180 = ORIENTED_EDGE('',*,*,#127,.F.);
#181 = FACE_BOUND('',#182,.F.);
#182 = EDGE_LOOP('',(#183,#194,#202,#211));
#183 = ORIENTED_EDGE('',*,*,#184,.T.);
#184 = EDGE_CURVE('',#185,#187,#189,.T.);
#185 = VERTEX_POINT('',#186);
#186 = CARTESIAN_POINT('',(18.52,14.18,0.));
#187 = VERTEX_POINT('',#188);
#188 = CARTESIAN_POINT('',(18.52,13.58,0.));
#189 = CIRCLE('',#190,0.3);
#190 = AXIS2_PLACEMENT_3D('',#191,#192,#193);
#191 = CARTESIAN_POINT('',(18.52,13.88,0.));
#192 = DIRECTION('',(-0.,0.,-1.));
#193 = DIRECTION('',(-1.184237892933E-14,-1.,0.));
#194 = ORIENTED_EDGE('',*,*,#195,.T.);
#195 = EDGE_CURVE('',#187,#196,#198,.T.);
#196 = VERTEX_POINT('',#197);
#197 = CARTESIAN_POINT('',(17.42,13.58,0.));
#198 = LINE('',#199,#200);
#199 = CARTESIAN_POINT('',(8.71,13.58,0.));
#200 = VECTOR('',#201,1.);
#201 = DIRECTION('',(-1.,0.,0.));
#202 = ORIENTED_EDGE('',*,*,#203,.T.);
#203 = EDGE_CURVE('',#196,#204,#206,.T.);
#204 = VERTEX_POINT('',#205);
#205 = CARTESIAN_POINT('',(17.42,14.18,0.));
#206 = CIRCLE('',#207,0.3);
#207 = AXIS2_PLACEMENT_3D('',#208,#209,#210);
#208 = CARTESIAN_POINT('',(17.42,13.88,0.));
#209 = DIRECTION('',(-0.,0.,-1.));
#210 = DIRECTION('',(0.,1.,0.));
#211 = ORIENTED_EDGE('',*,*,#212,.T.);
#212 = EDGE_CURVE('',#204,#185,#213,.T.);
#213 = LINE('',#214,#215);
#214 = CARTESIAN_POINT('',(9.26,14.18,0.));
#215 = VECTOR('',#216,1.);
#216 = DIRECTION('',(1.,0.,-0.));
#217 = FACE_BOUND('',#218,.F.);
#218 = EDGE_LOOP('',(#219));
#219 = ORIENTED_EDGE('',*,*,#220,.T.);
#220 = EDGE_CURVE('',#221,#221,#223,.T.);
#221 = VERTEX_POINT('',#222);
#222 = CARTESIAN_POINT('',(18.5,14.985,0.));
#223 = CIRCLE('',#224,0.325);
#224 = AXIS2_PLACEMENT_3D('',#225,#226,#227);
#225 = CARTESIAN_POINT('',(18.5,15.31,0.));
#226 = DIRECTION('',(-0.,0.,-1.));
#227 = DIRECTION('',(-0.,-1.,0.));
#228 = FACE_BOUND('',#229,.F.);
#229 = EDGE_LOOP('',(#230,#241,#249,#258));
#230 = ORIENTED_EDGE('',*,*,#231,.T.);
#231 = EDGE_CURVE('',#232,#234,#236,.T.);
#232 = VERTEX_POINT('',#233);
#233 = CARTESIAN_POINT('',(22.45,14.18,0.));
#234 = VERTEX_POINT('',#235);
#235 = CARTESIAN_POINT('',(22.45,13.58,0.));
#236 = CIRCLE('',#237,0.3);
#237 = AXIS2_PLACEMENT_3D('',#238,#239,#240);
#238 = CARTESIAN_POINT('',(22.45,13.88,0.));
#239 = DIRECTION('',(-0.,0.,-1.));
#240 = DIRECTION('',(-1.184237892933E-14,-1.,0.));
#241 = ORIENTED_EDGE('',*,*,#242,.T.);
#242 = EDGE_CURVE('',#234,#243,#245,.T.);
#243 = VERTEX_POINT('',#244);
#244 = CARTESIAN_POINT('',(21.85,13.58,0.));
#245 = LINE('',#246,#247);
#246 = CARTESIAN_POINT('',(10.925,13.58,0.));
#247 = VECTOR('',#248,1.);
#248 = DIRECTION('',(-1.,0.,0.));
#249 = ORIENTED_EDGE('',*,*,#250,.T.);
#250 = EDGE_CURVE('',#243,#251,#253,.T.);
#251 = VERTEX_POINT('',#252);
#252 = CARTESIAN_POINT('',(21.85,14.18,0.));
#253 = CIRCLE('',#254,0.3);
#254 = AXIS2_PLACEMENT_3D('',#255,#256,#257);
#255 = CARTESIAN_POINT('',(21.85,13.88,0.));
#256 = DIRECTION('',(-0.,0.,-1.));
#257 = DIRECTION('',(0.,1.,0.));
#258 = ORIENTED_EDGE('',*,*,#259,.T.);
#259 = EDGE_CURVE('',#251,#232,#260,.T.);
#260 = LINE('',#261,#262);
#261 = CARTESIAN_POINT('',(11.225,14.18,0.));
#262 = VECTOR('',#263,1.);
#263 = DIRECTION('',(1.,0.,-0.));
#264 = FACE_BOUND('',#265,.F.);
#265 = EDGE_LOOP('',(#266,#277,#285,#294));
#266 = ORIENTED_EDGE('',*,*,#267,.T.);
#267 = EDGE_CURVE('',#268,#270,#272,.T.);
#268 = VERTEX_POINT('',#269);
#269 = CARTESIAN_POINT('',(18.52,22.82,0.));
#270 = VERTEX_POINT('',#271);
#271 = CARTESIAN_POINT('',(18.52,22.22,0.));
#272 = CIRCLE('',#273,0.3);
#273 = AXIS2_PLACEMENT_3D('',#274,#275,#276);
#274 = CARTESIAN_POINT('',(18.52,22.52,0.));
#275 = DIRECTION('',(-0.,0.,-1.));
#276 = DIRECTION('',(-0.,-1.,0.));
#277 = ORIENTED_EDGE('',*,*,#278,.T.);
#278 = EDGE_CURVE('',#270,#279,#281,.T.);
#279 = VERTEX_POINT('',#280);
#280 = CARTESIAN_POINT('',(17.42,22.22,0.));
#281 = LINE('',#282,#283);
#282 = CARTESIAN_POINT('',(8.71,22.22,0.));
#283 = VECTOR('',#284,1.);
#284 = DIRECTION('',(-1.,0.,0.));
#285 = ORIENTED_EDGE('',*,*,#286,.T.);
#286 = EDGE_CURVE('',#279,#287,#289,.T.);
#287 = VERTEX_POINT('',#288);
#288 = CARTESIAN_POINT('',(17.42,22.82,0.));
#289 = CIRCLE('',#290,0.3);
#290 = AXIS2_PLACEMENT_3D('',#291,#292,#293);
#291 = CARTESIAN_POINT('',(17.42,22.52,0.));
#292 = DIRECTION('',(-0.,0.,-1.));
#293 = DIRECTION('',(-1.184237892933E-14,1.,0.));
#294 = ORIENTED_EDGE('',*,*,#295,.T.);
#295 = EDGE_CURVE('',#287,#268,#296,.T.);
#296 = LINE('',#297,#298);
#297 = CARTESIAN_POINT('',(9.26,22.82,0.));
#298 = VECTOR('',#299,1.);
#299 = DIRECTION('',(1.,0.,-0.));
#300 = FACE_BOUND('',#301,.F.);
#301 = EDGE_LOOP('',(#302));
#302 = ORIENTED_EDGE('',*,*,#303,.T.);
#303 = EDGE_CURVE('',#304,#304,#306,.T.);
#304 = VERTEX_POINT('',#305);
#305 = CARTESIAN_POINT('',(18.5,20.765,0.));
#306 = CIRCLE('',#307,0.325);
#307 = AXIS2_PLACEMENT_3D('',#308,#309,#310);
#308 = CARTESIAN_POINT('',(18.5,21.09,0.));
#309 = DIRECTION('',(-0.,0.,-1.));
#310 = DIRECTION('',(-0.,-1.,0.));
#311 = FACE_BOUND('',#312,.F.);
#312 = EDGE_LOOP('',(#313,#324,#332,#341));
#313 = ORIENTED_EDGE('',*,*,#314,.T.);
#314 = EDGE_CURVE('',#315,#317,#319,.T.);
#315 = VERTEX_POINT('',#316);
#316 = CARTESIAN_POINT('',(22.45,22.82,0.));
#317 = VERTEX_POINT('',#318);
#318 = CARTESIAN_POINT('',(22.45,22.22,0.));
#319 = CIRCLE('',#320,0.3);
#320 = AXIS2_PLACEMENT_3D('',#321,#322,#323);
#321 = CARTESIAN_POINT('',(22.45,22.52,0.));
#322 = DIRECTION('',(-0.,0.,-1.));
#323 = DIRECTION('',(-0.,-1.,0.));
#324 = ORIENTED_EDGE('',*,*,#325,.T.);
#325 = EDGE_CURVE('',#317,#326,#328,.T.);
#326 = VERTEX_POINT('',#327);
#327 = CARTESIAN_POINT('',(21.85,22.22,0.));
#328 = LINE('',#329,#330);
#329 = CARTESIAN_POINT('',(10.925,22.22,0.));
#330 = VECTOR('',#331,1.);
#331 = DIRECTION('',(-1.,0.,0.));
#332 = ORIENTED_EDGE('',*,*,#333,.T.);
#333 = EDGE_CURVE('',#326,#334,#336,.T.);
#334 = VERTEX_POINT('',#335);
#335 = CARTESIAN_POINT('',(21.85,22.82,0.));
#336 = CIRCLE('',#337,0.3);
#337 = AXIS2_PLACEMENT_3D('',#338,#339,#340);
#338 = CARTESIAN_POINT('',(21.85,22.52,0.));
#339 = DIRECTION('',(-0.,0.,-1.));
#340 = DIRECTION('',(-1.184237892933E-14,1.,0.));
#341 = ORIENTED_EDGE('',*,*,#342,.T.);
#342 = EDGE_CURVE('',#334,#315,#343,.T.);
#343 = LINE('',#344,#345);
#344 = CARTESIAN_POINT('',(11.225,22.82,0.));
#345 = VECTOR('',#346,1.);
#346 = DIRECTION('',(1.,0.,-0.));
#347 = FACE_BOUND('',#348,.F.);
#348 = EDGE_LOOP('',(#349));
#349 = ORIENTED_EDGE('',*,*,#350,.T.);
#350 = EDGE_CURVE('',#351,#351,#353,.T.);
#351 = VERTEX_POINT('',#352);
#352 = CARTESIAN_POINT('',(4.5,28.93,0.));
#353 = CIRCLE('',#354,0.5);
#354 = AXIS2_PLACEMENT_3D('',#355,#356,#357);
#355 = CARTESIAN_POINT('',(4.5,29.43,0.));
#356 = DIRECTION('',(-0.,0.,-1.));
#357 = DIRECTION('',(-0.,-1.,0.));
#358 = FACE_BOUND('',#359,.F.);
#359 = EDGE_LOOP('',(#360));
#360 = ORIENTED_EDGE('',*,*,#361,.T.);
#361 = EDGE_CURVE('',#362,#362,#364,.T.);
#362 = VERTEX_POINT('',#363);
#363 = CARTESIAN_POINT('',(4.5,31.47,0.));
#364 = CIRCLE('',#365,0.5);
#365 = AXIS2_PLACEMENT_3D('',#366,#367,#368);
#366 = CARTESIAN_POINT('',(4.5,31.97,0.));
#367 = DIRECTION('',(-0.,0.,-1.));
#368 = DIRECTION('',(-0.,-1.,0.));
#369 = PLANE('',#370);
#370 = AXIS2_PLACEMENT_3D('',#371,#372,#373);
#371 = CARTESIAN_POINT('',(0.,0.,0.));
#372 = DIRECTION('',(0.,0.,1.));
#373 = DIRECTION('',(1.,0.,-0.));
#374 = ADVANCED_FACE('',(#375,#418,#454,#465,#501,#537,#548,#584,#595),
  #606,.T.);
#375 = FACE_BOUND('',#376,.T.);
#376 = EDGE_LOOP('',(#377,#378,#379,#387,#395,#403,#411,#417));
#377 = ORIENTED_EDGE('',*,*,#49,.F.);
#378 = ORIENTED_EDGE('',*,*,#89,.F.);
#379 = ORIENTED_EDGE('',*,*,#380,.F.);
#380 = EDGE_CURVE('',#381,#82,#383,.T.);
#381 = VERTEX_POINT('',#382);
#382 = CARTESIAN_POINT('',(0.,35.,0.91));
#383 = LINE('',#384,#385);
#384 = CARTESIAN_POINT('',(0.,35.,0.91));
#385 = VECTOR('',#386,1.);
#386 = DIRECTION('',(1.,0.,0.));
#387 = ORIENTED_EDGE('',*,*,#388,.F.);
#388 = EDGE_CURVE('',#389,#381,#391,.T.);
#389 = VERTEX_POINT('',#390);
#390 = CARTESIAN_POINT('',(0.,5.,0.91));
#391 = LINE('',#392,#393);
#392 = CARTESIAN_POINT('',(0.,5.,0.91));
#393 = VECTOR('',#394,1.);
#394 = DIRECTION('',(0.,1.,0.));
#395 = ORIENTED_EDGE('',*,*,#396,.F.);
#396 = EDGE_CURVE('',#397,#389,#399,.T.);
#397 = VERTEX_POINT('',#398);
#398 = CARTESIAN_POINT('',(25.,5.,0.91));
#399 = LINE('',#400,#401);
#400 = CARTESIAN_POINT('',(25.,5.,0.91));
#401 = VECTOR('',#402,1.);
#402 = DIRECTION('',(-1.,0.,0.));
#403 = ORIENTED_EDGE('',*,*,#404,.F.);
#404 = EDGE_CURVE('',#405,#397,#407,.T.);
#405 = VERTEX_POINT('',#406);
#406 = CARTESIAN_POINT('',(25.,12.9,0.91));
#407 = LINE('',#408,#409);
#408 = CARTESIAN_POINT('',(25.,12.9,0.91));
#409 = VECTOR('',#410,1.);
#410 = DIRECTION('',(0.,-1.,0.));
#411 = ORIENTED_EDGE('',*,*,#412,.F.);
#412 = EDGE_CURVE('',#112,#405,#413,.T.);
#413 = LINE('',#414,#415);
#414 = CARTESIAN_POINT('',(24.45,12.9,0.91));
#415 = VECTOR('',#416,1.);
#416 = DIRECTION('',(1.,0.,0.));
#417 = ORIENTED_EDGE('',*,*,#111,.F.);
#418 = FACE_BOUND('',#419,.T.);
#419 = EDGE_LOOP('',(#420,#431,#439,#448));
#420 = ORIENTED_EDGE('',*,*,#421,.T.);
#421 = EDGE_CURVE('',#422,#424,#426,.T.);
#422 = VERTEX_POINT('',#423);
#423 = CARTESIAN_POINT('',(18.52,14.18,0.91));
#424 = VERTEX_POINT('',#425);
#425 = CARTESIAN_POINT('',(18.52,13.58,0.91));
#426 = CIRCLE('',#427,0.3);
#427 = AXIS2_PLACEMENT_3D('',#428,#429,#430);
#428 = CARTESIAN_POINT('',(18.52,13.88,0.91));
#429 = DIRECTION('',(-0.,0.,-1.));
#430 = DIRECTION('',(-1.184237892933E-14,-1.,0.));
#431 = ORIENTED_EDGE('',*,*,#432,.T.);
#432 = EDGE_CURVE('',#424,#433,#435,.T.);
#433 = VERTEX_POINT('',#434);
#434 = CARTESIAN_POINT('',(17.42,13.58,0.91));
#435 = LINE('',#436,#437);
#436 = CARTESIAN_POINT('',(8.71,13.58,0.91));
#437 = VECTOR('',#438,1.);
#438 = DIRECTION('',(-1.,0.,0.));
#439 = ORIENTED_EDGE('',*,*,#440,.T.);
#440 = EDGE_CURVE('',#433,#441,#443,.T.);
#441 = VERTEX_POINT('',#442);
#442 = CARTESIAN_POINT('',(17.42,14.18,0.91));
#443 = CIRCLE('',#444,0.3);
#444 = AXIS2_PLACEMENT_3D('',#445,#446,#447);
#445 = CARTESIAN_POINT('',(17.42,13.88,0.91));
#446 = DIRECTION('',(-0.,0.,-1.));
#447 = DIRECTION('',(0.,1.,0.));
#448 = ORIENTED_EDGE('',*,*,#449,.T.);
#449 = EDGE_CURVE('',#441,#422,#450,.T.);
#450 = LINE('',#451,#452);
#451 = CARTESIAN_POINT('',(9.26,14.18,0.91));
#452 = VECTOR('',#453,1.);
#453 = DIRECTION('',(1.,0.,-0.));
#454 = FACE_BOUND('',#455,.T.);
#455 = EDGE_LOOP('',(#456));
#456 = ORIENTED_EDGE('',*,*,#457,.T.);
#457 = EDGE_CURVE('',#458,#458,#460,.T.);
#458 = VERTEX_POINT('',#459);
#459 = CARTESIAN_POINT('',(18.5,14.985,0.91));
#460 = CIRCLE('',#461,0.325);
#461 = AXIS2_PLACEMENT_3D('',#462,#463,#464);
#462 = CARTESIAN_POINT('',(18.5,15.31,0.91));
#463 = DIRECTION('',(-0.,0.,-1.));
#464 = DIRECTION('',(-0.,-1.,0.));
#465 = FACE_BOUND('',#466,.T.);
#466 = EDGE_LOOP('',(#467,#478,#486,#495));
#467 = ORIENTED_EDGE('',*,*,#468,.T.);
#468 = EDGE_CURVE('',#469,#471,#473,.T.);
#469 = VERTEX_POINT('',#470);
#470 = CARTESIAN_POINT('',(22.45,14.18,0.91));
#471 = VERTEX_POINT('',#472);
#472 = CARTESIAN_POINT('',(22.45,13.58,0.91));
#473 = CIRCLE('',#474,0.3);
#474 = AXIS2_PLACEMENT_3D('',#475,#476,#477);
#475 = CARTESIAN_POINT('',(22.45,13.88,0.91));
#476 = DIRECTION('',(-0.,0.,-1.));
#477 = DIRECTION('',(-1.184237892933E-14,-1.,0.));
#478 = ORIENTED_EDGE('',*,*,#479,.T.);
#479 = EDGE_CURVE('',#471,#480,#482,.T.);
#480 = VERTEX_POINT('',#481);
#481 = CARTESIAN_POINT('',(21.85,13.58,0.91));
#482 = LINE('',#483,#484);
#483 = CARTESIAN_POINT('',(10.925,13.58,0.91));
#484 = VECTOR('',#485,1.);
#485 = DIRECTION('',(-1.,0.,0.));
#486 = ORIENTED_EDGE('',*,*,#487,.T.);
#487 = EDGE_CURVE('',#480,#488,#490,.T.);
#488 = VERTEX_POINT('',#489);
#489 = CARTESIAN_POINT('',(21.85,14.18,0.91));
#490 = CIRCLE('',#491,0.3);
#491 = AXIS2_PLACEMENT_3D('',#492,#493,#494);
#492 = CARTESIAN_POINT('',(21.85,13.88,0.91));
#493 = DIRECTION('',(-0.,0.,-1.));
#494 = DIRECTION('',(0.,1.,0.));
#495 = ORIENTED_EDGE('',*,*,#496,.T.);
#496 = EDGE_CURVE('',#488,#469,#497,.T.);
#497 = LINE('',#498,#499);
#498 = CARTESIAN_POINT('',(11.225,14.18,0.91));
#499 = VECTOR('',#500,1.);
#500 = DIRECTION('',(1.,0.,-0.));
#501 = FACE_BOUND('',#502,.T.);
#502 = EDGE_LOOP('',(#503,#514,#522,#531));
#503 = ORIENTED_EDGE('',*,*,#504,.T.);
#504 = EDGE_CURVE('',#505,#507,#509,.T.);
#505 = VERTEX_POINT('',#506);
#506 = CARTESIAN_POINT('',(18.52,22.82,0.91));
#507 = VERTEX_POINT('',#508);
#508 = CARTESIAN_POINT('',(18.52,22.22,0.91));
#509 = CIRCLE('',#510,0.3);
#510 = AXIS2_PLACEMENT_3D('',#511,#512,#513);
#511 = CARTESIAN_POINT('',(18.52,22.52,0.91));
#512 = DIRECTION('',(-0.,0.,-1.));
#513 = DIRECTION('',(-0.,-1.,0.));
#514 = ORIENTED_EDGE('',*,*,#515,.T.);
#515 = EDGE_CURVE('',#507,#516,#518,.T.);
#516 = VERTEX_POINT('',#517);
#517 = CARTESIAN_POINT('',(17.42,22.22,0.91));
#518 = LINE('',#519,#520);
#519 = CARTESIAN_POINT('',(8.71,22.22,0.91));
#520 = VECTOR('',#521,1.);
#521 = DIRECTION('',(-1.,0.,0.));
#522 = ORIENTED_EDGE('',*,*,#523,.T.);
#523 = EDGE_CURVE('',#516,#524,#526,.T.);
#524 = VERTEX_POINT('',#525);
#525 = CARTESIAN_POINT('',(17.42,22.82,0.91));
#526 = CIRCLE('',#527,0.3);
#527 = AXIS2_PLACEMENT_3D('',#528,#529,#530);
#528 = CARTESIAN_POINT('',(17.42,22.52,0.91));
#529 = DIRECTION('',(-0.,0.,-1.));
#530 = DIRECTION('',(-1.184237892933E-14,1.,0.));
#531 = ORIENTED_EDGE('',*,*,#532,.T.);
#532 = EDGE_CURVE('',#524,#505,#533,.T.);
#533 = LINE('',#534,#535);
#534 = CARTESIAN_POINT('',(9.26,22.82,0.91));
#535 = VECTOR('',#536,1.);
#536 = DIRECTION('',(1.,0.,-0.));
#537 = FACE_BOUND('',#538,.T.);
#538 = EDGE_LOOP('',(#539));
#539 = ORIENTED_EDGE('',*,*,#540,.T.);
#540 = EDGE_CURVE('',#541,#541,#543,.T.);
#541 = VERTEX_POINT('',#542);
#542 = CARTESIAN_POINT('',(18.5,20.765,0.91));
#543 = CIRCLE('',#544,0.325);
#544 = AXIS2_PLACEMENT_3D('',#545,#546,#547);
#545 = CARTESIAN_POINT('',(18.5,21.09,0.91));
#546 = DIRECTION('',(-0.,0.,-1.));
#547 = DIRECTION('',(-0.,-1.,0.));
#548 = FACE_BOUND('',#549,.T.);
#549 = EDGE_LOOP('',(#550,#561,#569,#578));
#550 = ORIENTED_EDGE('',*,*,#551,.T.);
#551 = EDGE_CURVE('',#552,#554,#556,.T.);
#552 = VERTEX_POINT('',#553);
#553 = CARTESIAN_POINT('',(22.45,22.82,0.91));
#554 = VERTEX_POINT('',#555);
#555 = CARTESIAN_POINT('',(22.45,22.22,0.91));
#556 = CIRCLE('',#557,0.3);
#557 = AXIS2_PLACEMENT_3D('',#558,#559,#560);
#558 = CARTESIAN_POINT('',(22.45,22.52,0.91));
#559 = DIRECTION('',(-0.,0.,-1.));
#560 = DIRECTION('',(-0.,-1.,0.));
#561 = ORIENTED_EDGE('',*,*,#562,.T.);
#562 = EDGE_CURVE('',#554,#563,#565,.T.);
#563 = VERTEX_POINT('',#564);
#564 = CARTESIAN_POINT('',(21.85,22.22,0.91));
#565 = LINE('',#566,#567);
#566 = CARTESIAN_POINT('',(10.925,22.22,0.91));
#567 = VECTOR('',#568,1.);
#568 = DIRECTION('',(-1.,0.,0.));
#569 = ORIENTED_EDGE('',*,*,#570,.T.);
#570 = EDGE_CURVE('',#563,#571,#573,.T.);
#571 = VERTEX_POINT('',#572);
#572 = CARTESIAN_POINT('',(21.85,22.82,0.91));
#573 = CIRCLE('',#574,0.3);
#574 = AXIS2_PLACEMENT_3D('',#575,#576,#577);
#575 = CARTESIAN_POINT('',(21.85,22.52,0.91));
#576 = DIRECTION('',(-0.,0.,-1.));
#577 = DIRECTION('',(-1.184237892933E-14,1.,0.));
#578 = ORIENTED_EDGE('',*,*,#579,.T.);
#579 = EDGE_CURVE('',#571,#552,#580,.T.);
#580 = LINE('',#581,#582);
#581 = CARTESIAN_POINT('',(11.225,22.82,0.91));
#582 = VECTOR('',#583,1.);
#583 = DIRECTION('',(1.,0.,-0.));
#584 = FACE_BOUND('',#585,.T.);
#585 = EDGE_LOOP('',(#586));
#586 = ORIENTED_EDGE('',*,*,#587,.T.);
#587 = EDGE_CURVE('',#588,#588,#590,.T.);
#588 = VERTEX_POINT('',#589);
#589 = CARTESIAN_POINT('',(4.5,28.93,0.91));
#590 = CIRCLE('',#591,0.5);
#591 = AXIS2_PLACEMENT_3D('',#592,#593,#594);
#592 = CARTESIAN_POINT('',(4.5,29.43,0.91));
#593 = DIRECTION('',(-0.,0.,-1.));
#594 = DIRECTION('',(-0.,-1.,0.));
#595 = FACE_BOUND('',#596,.T.);
#596 = EDGE_LOOP('',(#597));
#597 = ORIENTED_EDGE('',*,*,#598,.T.);
#598 = EDGE_CURVE('',#599,#599,#601,.T.);
#599 = VERTEX_POINT('',#600);
#600 = CARTESIAN_POINT('',(4.5,31.47,0.91));
#601 = CIRCLE('',#602,0.5);
#602 = AXIS2_PLACEMENT_3D('',#603,#604,#605);
#603 = CARTESIAN_POINT('',(4.5,31.97,0.91));
#604 = DIRECTION('',(-0.,0.,-1.));
#605 = DIRECTION('',(-0.,-1.,0.));
#606 = PLANE('',#607);
#607 = AXIS2_PLACEMENT_3D('',#608,#609,#610);
#608 = CARTESIAN_POINT('',(0.,0.,0.91));
#609 = DIRECTION('',(0.,0.,1.));
#610 = DIRECTION('',(1.,0.,-0.));
#611 = ADVANCED_FACE('',(#612),#623,.T.);
#612 = FACE_BOUND('',#613,.T.);
#613 = EDGE_LOOP('',(#614,#620,#621,#622));
#614 = ORIENTED_EDGE('',*,*,#615,.T.);
#615 = EDGE_CURVE('',#144,#381,#616,.T.);
#616 = LINE('',#617,#618);
#617 = CARTESIAN_POINT('',(0.,35.,0.));
#618 = VECTOR('',#619,1.);
#619 = DIRECTION('',(0.,0.,1.));
#620 = ORIENTED_EDGE('',*,*,#380,.T.);
#621 = ORIENTED_EDGE('',*,*,#79,.F.);
#622 = ORIENTED_EDGE('',*,*,#143,.F.);
#623 = PLANE('',#624);
#624 = AXIS2_PLACEMENT_3D('',#625,#626,#627);
#625 = CARTESIAN_POINT('',(0.,35.,0.));
#626 = DIRECTION('',(0.,1.,0.));
#627 = DIRECTION('',(1.,0.,0.));
#628 = ADVANCED_FACE('',(#629),#640,.T.);
#629 = FACE_BOUND('',#630,.T.);
#630 = EDGE_LOOP('',(#631,#632,#633,#639));
#631 = ORIENTED_EDGE('',*,*,#119,.T.);
#632 = ORIENTED_EDGE('',*,*,#412,.T.);
#633 = ORIENTED_EDGE('',*,*,#634,.F.);
#634 = EDGE_CURVE('',#168,#405,#635,.T.);
#635 = LINE('',#636,#637);
#636 = CARTESIAN_POINT('',(25.,12.9,0.));
#637 = VECTOR('',#638,1.);
#638 = DIRECTION('',(0.,0.,1.));
#639 = ORIENTED_EDGE('',*,*,#175,.F.);
#640 = PLANE('',#641);
#641 = AXIS2_PLACEMENT_3D('',#642,#643,#644);
#642 = CARTESIAN_POINT('',(24.45,12.9,0.));
#643 = DIRECTION('',(0.,1.,0.));
#644 = DIRECTION('',(1.,0.,0.));
#645 = ADVANCED_FACE('',(#646),#657,.T.);
#646 = FACE_BOUND('',#647,.T.);
#647 = EDGE_LOOP('',(#648,#654,#655,#656));
#648 = ORIENTED_EDGE('',*,*,#649,.T.);
#649 = EDGE_CURVE('',#152,#389,#650,.T.);
#650 = LINE('',#651,#652);
#651 = CARTESIAN_POINT('',(0.,5.,0.));
#652 = VECTOR('',#653,1.);
#653 = DIRECTION('',(0.,0.,1.));
#654 = ORIENTED_EDGE('',*,*,#388,.T.);
#655 = ORIENTED_EDGE('',*,*,#615,.F.);
#656 = ORIENTED_EDGE('',*,*,#151,.F.);
#657 = PLANE('',#658);
#658 = AXIS2_PLACEMENT_3D('',#659,#660,#661);
#659 = CARTESIAN_POINT('',(0.,5.,0.));
#660 = DIRECTION('',(-1.,0.,0.));
#661 = DIRECTION('',(0.,1.,0.));
#662 = ADVANCED_FACE('',(#663),#674,.T.);
#663 = FACE_BOUND('',#664,.T.);
#664 = EDGE_LOOP('',(#665,#666,#667,#673));
#665 = ORIENTED_EDGE('',*,*,#634,.T.);
#666 = ORIENTED_EDGE('',*,*,#404,.T.);
#667 = ORIENTED_EDGE('',*,*,#668,.F.);
#668 = EDGE_CURVE('',#160,#397,#669,.T.);
#669 = LINE('',#670,#671);
#670 = CARTESIAN_POINT('',(25.,5.,0.));
#671 = VECTOR('',#672,1.);
#672 = DIRECTION('',(0.,0.,1.));
#673 = ORIENTED_EDGE('',*,*,#167,.F.);
#674 = PLANE('',#675);
#675 = AXIS2_PLACEMENT_3D('',#676,#677,#678);
#676 = CARTESIAN_POINT('',(25.,12.9,0.));
#677 = DIRECTION('',(1.,0.,-0.));
#678 = DIRECTION('',(0.,-1.,0.));
#679 = ADVANCED_FACE('',(#680),#686,.T.);
#680 = FACE_BOUND('',#681,.T.);
#681 = EDGE_LOOP('',(#682,#683,#684,#685));
#682 = ORIENTED_EDGE('',*,*,#668,.T.);
#683 = ORIENTED_EDGE('',*,*,#396,.T.);
#684 = ORIENTED_EDGE('',*,*,#649,.F.);
#685 = ORIENTED_EDGE('',*,*,#159,.F.);
#686 = PLANE('',#687);
#687 = AXIS2_PLACEMENT_3D('',#688,#689,#690);
#688 = CARTESIAN_POINT('',(25.,5.,0.));
#689 = DIRECTION('',(0.,-1.,0.));
#690 = DIRECTION('',(-1.,0.,0.));
#691 = ADVANCED_FACE('',(#692),#708,.F.);
#692 = FACE_BOUND('',#693,.T.);
#693 = EDGE_LOOP('',(#694,#695,#701,#702));
#694 = ORIENTED_EDGE('',*,*,#184,.T.);
#695 = ORIENTED_EDGE('',*,*,#696,.T.);
#696 = EDGE_CURVE('',#187,#424,#697,.T.);
#697 = LINE('',#698,#699);
#698 = CARTESIAN_POINT('',(18.52,13.58,-4.6E-02));
#699 = VECTOR('',#700,1.);
#700 = DIRECTION('',(0.,0.,1.));
#701 = ORIENTED_EDGE('',*,*,#421,.F.);
#702 = ORIENTED_EDGE('',*,*,#703,.F.);
#703 = EDGE_CURVE('',#185,#422,#704,.T.);
#704 = LINE('',#705,#706);
#705 = CARTESIAN_POINT('',(18.52,14.18,-4.6E-02));
#706 = VECTOR('',#707,1.);
#707 = DIRECTION('',(0.,0.,1.));
#708 = CYLINDRICAL_SURFACE('',#709,0.3);
#709 = AXIS2_PLACEMENT_3D('',#710,#711,#712);
#710 = CARTESIAN_POINT('',(18.52,13.88,-4.6E-02));
#711 = DIRECTION('',(-0.,-0.,-1.));
#712 = DIRECTION('',(-1.184237892933E-14,-1.,0.));
#713 = ADVANCED_FACE('',(#714),#725,.T.);
#714 = FACE_BOUND('',#715,.T.);
#715 = EDGE_LOOP('',(#716,#717,#718,#719));
#716 = ORIENTED_EDGE('',*,*,#212,.T.);
#717 = ORIENTED_EDGE('',*,*,#703,.T.);
#718 = ORIENTED_EDGE('',*,*,#449,.F.);
#719 = ORIENTED_EDGE('',*,*,#720,.F.);
#720 = EDGE_CURVE('',#204,#441,#721,.T.);
#721 = LINE('',#722,#723);
#722 = CARTESIAN_POINT('',(17.42,14.18,-4.6E-02));
#723 = VECTOR('',#724,1.);
#724 = DIRECTION('',(0.,0.,1.));
#725 = PLANE('',#726);
#726 = AXIS2_PLACEMENT_3D('',#727,#728,#729);
#727 = CARTESIAN_POINT('',(18.52,14.18,-4.6E-02));
#728 = DIRECTION('',(0.,-1.,0.));
#729 = DIRECTION('',(-1.,0.,0.));
#730 = ADVANCED_FACE('',(#731),#742,.F.);
#731 = FACE_BOUND('',#732,.T.);
#732 = EDGE_LOOP('',(#733,#734,#735,#736));
#733 = ORIENTED_EDGE('',*,*,#203,.T.);
#734 = ORIENTED_EDGE('',*,*,#720,.T.);
#735 = ORIENTED_EDGE('',*,*,#440,.F.);
#736 = ORIENTED_EDGE('',*,*,#737,.F.);
#737 = EDGE_CURVE('',#196,#433,#738,.T.);
#738 = LINE('',#739,#740);
#739 = CARTESIAN_POINT('',(17.42,13.58,-4.6E-02));
#740 = VECTOR('',#741,1.);
#741 = DIRECTION('',(0.,0.,1.));
#742 = CYLINDRICAL_SURFACE('',#743,0.3);
#743 = AXIS2_PLACEMENT_3D('',#744,#745,#746);
#744 = CARTESIAN_POINT('',(17.42,13.88,-4.6E-02));
#745 = DIRECTION('',(-0.,0.,-1.));
#746 = DIRECTION('',(0.,1.,0.));
#747 = ADVANCED_FACE('',(#748),#754,.T.);
#748 = FACE_BOUND('',#749,.T.);
#749 = EDGE_LOOP('',(#750,#751,#752,#753));
#750 = ORIENTED_EDGE('',*,*,#195,.T.);
#751 = ORIENTED_EDGE('',*,*,#737,.T.);
#752 = ORIENTED_EDGE('',*,*,#432,.F.);
#753 = ORIENTED_EDGE('',*,*,#696,.F.);
#754 = PLANE('',#755);
#755 = AXIS2_PLACEMENT_3D('',#756,#757,#758);
#756 = CARTESIAN_POINT('',(17.42,13.58,-4.6E-02));
#757 = DIRECTION('',(0.,1.,0.));
#758 = DIRECTION('',(1.,0.,0.));
#759 = ADVANCED_FACE('',(#760),#771,.F.);
#760 = FACE_BOUND('',#761,.T.);
#761 = EDGE_LOOP('',(#762,#763,#769,#770));
#762 = ORIENTED_EDGE('',*,*,#220,.T.);
#763 = ORIENTED_EDGE('',*,*,#764,.T.);
#764 = EDGE_CURVE('',#221,#458,#765,.T.);
#765 = LINE('',#766,#767);
#766 = CARTESIAN_POINT('',(18.5,14.985,-4.6E-02));
#767 = VECTOR('',#768,1.);
#768 = DIRECTION('',(0.,0.,1.));
#769 = ORIENTED_EDGE('',*,*,#457,.F.);
#770 = ORIENTED_EDGE('',*,*,#764,.F.);
#771 = CYLINDRICAL_SURFACE('',#772,0.325);
#772 = AXIS2_PLACEMENT_3D('',#773,#774,#775);
#773 = CARTESIAN_POINT('',(18.5,15.31,-4.6E-02));
#774 = DIRECTION('',(-0.,-0.,-1.));
#775 = DIRECTION('',(-0.,-1.,0.));
#776 = ADVANCED_FACE('',(#777),#793,.F.);
#777 = FACE_BOUND('',#778,.T.);
#778 = EDGE_LOOP('',(#779,#780,#786,#787));
#779 = ORIENTED_EDGE('',*,*,#231,.T.);
#780 = ORIENTED_EDGE('',*,*,#781,.T.);
#781 = EDGE_CURVE('',#234,#471,#782,.T.);
#782 = LINE('',#783,#784);
#783 = CARTESIAN_POINT('',(22.45,13.58,-4.6E-02));
#784 = VECTOR('',#785,1.);
#785 = DIRECTION('',(0.,0.,1.));
#786 = ORIENTED_EDGE('',*,*,#468,.F.);
#787 = ORIENTED_EDGE('',*,*,#788,.F.);
#788 = EDGE_CURVE('',#232,#469,#789,.T.);
#789 = LINE('',#790,#791);
#790 = CARTESIAN_POINT('',(22.45,14.18,-4.6E-02));
#791 = VECTOR('',#792,1.);
#792 = DIRECTION('',(0.,0.,1.));
#793 = CYLINDRICAL_SURFACE('',#794,0.3);
#794 = AXIS2_PLACEMENT_3D('',#795,#796,#797);
#795 = CARTESIAN_POINT('',(22.45,13.88,-4.6E-02));
#796 = DIRECTION('',(-0.,-0.,-1.));
#797 = DIRECTION('',(-1.184237892933E-14,-1.,0.));
#798 = ADVANCED_FACE('',(#799),#810,.T.);
#799 = FACE_BOUND('',#800,.T.);
#800 = EDGE_LOOP('',(#801,#802,#803,#804));
#801 = ORIENTED_EDGE('',*,*,#259,.T.);
#802 = ORIENTED_EDGE('',*,*,#788,.T.);
#803 = ORIENTED_EDGE('',*,*,#496,.F.);
#804 = ORIENTED_EDGE('',*,*,#805,.F.);
#805 = EDGE_CURVE('',#251,#488,#806,.T.);
#806 = LINE('',#807,#808);
#807 = CARTESIAN_POINT('',(21.85,14.18,-4.6E-02));
#808 = VECTOR('',#809,1.);
#809 = DIRECTION('',(0.,0.,1.));
#810 = PLANE('',#811);
#811 = AXIS2_PLACEMENT_3D('',#812,#813,#814);
#812 = CARTESIAN_POINT('',(22.45,14.18,-4.6E-02));
#813 = DIRECTION('',(0.,-1.,0.));
#814 = DIRECTION('',(-1.,0.,0.));
#815 = ADVANCED_FACE('',(#816),#827,.F.);
#816 = FACE_BOUND('',#817,.T.);
#817 = EDGE_LOOP('',(#818,#819,#820,#821));
#818 = ORIENTED_EDGE('',*,*,#250,.T.);
#819 = ORIENTED_EDGE('',*,*,#805,.T.);
#820 = ORIENTED_EDGE('',*,*,#487,.F.);
#821 = ORIENTED_EDGE('',*,*,#822,.F.);
#822 = EDGE_CURVE('',#243,#480,#823,.T.);
#823 = LINE('',#824,#825);
#824 = CARTESIAN_POINT('',(21.85,13.58,-4.6E-02));
#825 = VECTOR('',#826,1.);
#826 = DIRECTION('',(0.,0.,1.));
#827 = CYLINDRICAL_SURFACE('',#828,0.3);
#828 = AXIS2_PLACEMENT_3D('',#829,#830,#831);
#829 = CARTESIAN_POINT('',(21.85,13.88,-4.6E-02));
#830 = DIRECTION('',(-0.,0.,-1.));
#831 = DIRECTION('',(0.,1.,0.));
#832 = ADVANCED_FACE('',(#833),#839,.T.);
#833 = FACE_BOUND('',#834,.T.);
#834 = EDGE_LOOP('',(#835,#836,#837,#838));
#835 = ORIENTED_EDGE('',*,*,#242,.T.);
#836 = ORIENTED_EDGE('',*,*,#822,.T.);
#837 = ORIENTED_EDGE('',*,*,#479,.F.);
#838 = ORIENTED_EDGE('',*,*,#781,.F.);
#839 = PLANE('',#840);
#840 = AXIS2_PLACEMENT_3D('',#841,#842,#843);
#841 = CARTESIAN_POINT('',(21.85,13.58,-4.6E-02));
#842 = DIRECTION('',(0.,1.,0.));
#843 = DIRECTION('',(1.,0.,0.));
#844 = ADVANCED_FACE('',(#845),#861,.F.);
#845 = FACE_BOUND('',#846,.T.);
#846 = EDGE_LOOP('',(#847,#848,#854,#855));
#847 = ORIENTED_EDGE('',*,*,#267,.T.);
#848 = ORIENTED_EDGE('',*,*,#849,.T.);
#849 = EDGE_CURVE('',#270,#507,#850,.T.);
#850 = LINE('',#851,#852);
#851 = CARTESIAN_POINT('',(18.52,22.22,-4.6E-02));
#852 = VECTOR('',#853,1.);
#853 = DIRECTION('',(0.,0.,1.));
#854 = ORIENTED_EDGE('',*,*,#504,.F.);
#855 = ORIENTED_EDGE('',*,*,#856,.F.);
#856 = EDGE_CURVE('',#268,#505,#857,.T.);
#857 = LINE('',#858,#859);
#858 = CARTESIAN_POINT('',(18.52,22.82,-4.6E-02));
#859 = VECTOR('',#860,1.);
#860 = DIRECTION('',(0.,0.,1.));
#861 = CYLINDRICAL_SURFACE('',#862,0.3);
#862 = AXIS2_PLACEMENT_3D('',#863,#864,#865);
#863 = CARTESIAN_POINT('',(18.52,22.52,-4.6E-02));
#864 = DIRECTION('',(-0.,-0.,-1.));
#865 = DIRECTION('',(-0.,-1.,0.));
#866 = ADVANCED_FACE('',(#867),#878,.T.);
#867 = FACE_BOUND('',#868,.T.);
#868 = EDGE_LOOP('',(#869,#870,#871,#872));
#869 = ORIENTED_EDGE('',*,*,#295,.T.);
#870 = ORIENTED_EDGE('',*,*,#856,.T.);
#871 = ORIENTED_EDGE('',*,*,#532,.F.);
#872 = ORIENTED_EDGE('',*,*,#873,.F.);
#873 = EDGE_CURVE('',#287,#524,#874,.T.);
#874 = LINE('',#875,#876);
#875 = CARTESIAN_POINT('',(17.42,22.82,-4.6E-02));
#876 = VECTOR('',#877,1.);
#877 = DIRECTION('',(0.,0.,1.));
#878 = PLANE('',#879);
#879 = AXIS2_PLACEMENT_3D('',#880,#881,#882);
#880 = CARTESIAN_POINT('',(18.52,22.82,-4.6E-02));
#881 = DIRECTION('',(0.,-1.,0.));
#882 = DIRECTION('',(-1.,0.,0.));
#883 = ADVANCED_FACE('',(#884),#895,.F.);
#884 = FACE_BOUND('',#885,.T.);
#885 = EDGE_LOOP('',(#886,#887,#888,#889));
#886 = ORIENTED_EDGE('',*,*,#286,.T.);
#887 = ORIENTED_EDGE('',*,*,#873,.T.);
#888 = ORIENTED_EDGE('',*,*,#523,.F.);
#889 = ORIENTED_EDGE('',*,*,#890,.F.);
#890 = EDGE_CURVE('',#279,#516,#891,.T.);
#891 = LINE('',#892,#893);
#892 = CARTESIAN_POINT('',(17.42,22.22,-4.6E-02));
#893 = VECTOR('',#894,1.);
#894 = DIRECTION('',(0.,0.,1.));
#895 = CYLINDRICAL_SURFACE('',#896,0.3);
#896 = AXIS2_PLACEMENT_3D('',#897,#898,#899);
#897 = CARTESIAN_POINT('',(17.42,22.52,-4.6E-02));
#898 = DIRECTION('',(-0.,-0.,-1.));
#899 = DIRECTION('',(-1.184237892933E-14,1.,0.));
#900 = ADVANCED_FACE('',(#901),#907,.T.);
#901 = FACE_BOUND('',#902,.T.);
#902 = EDGE_LOOP('',(#903,#904,#905,#906));
#903 = ORIENTED_EDGE('',*,*,#278,.T.);
#904 = ORIENTED_EDGE('',*,*,#890,.T.);
#905 = ORIENTED_EDGE('',*,*,#515,.F.);
#906 = ORIENTED_EDGE('',*,*,#849,.F.);
#907 = PLANE('',#908);
#908 = AXIS2_PLACEMENT_3D('',#909,#910,#911);
#909 = CARTESIAN_POINT('',(17.42,22.22,-4.6E-02));
#910 = DIRECTION('',(0.,1.,0.));
#911 = DIRECTION('',(1.,0.,0.));
#912 = ADVANCED_FACE('',(#913),#924,.F.);
#913 = FACE_BOUND('',#914,.T.);
#914 = EDGE_LOOP('',(#915,#916,#922,#923));
#915 = ORIENTED_EDGE('',*,*,#303,.T.);
#916 = ORIENTED_EDGE('',*,*,#917,.T.);
#917 = EDGE_CURVE('',#304,#541,#918,.T.);
#918 = LINE('',#919,#920);
#919 = CARTESIAN_POINT('',(18.5,20.765,-4.6E-02));
#920 = VECTOR('',#921,1.);
#921 = DIRECTION('',(0.,0.,1.));
#922 = ORIENTED_EDGE('',*,*,#540,.F.);
#923 = ORIENTED_EDGE('',*,*,#917,.F.);
#924 = CYLINDRICAL_SURFACE('',#925,0.325);
#925 = AXIS2_PLACEMENT_3D('',#926,#927,#928);
#926 = CARTESIAN_POINT('',(18.5,21.09,-4.6E-02));
#927 = DIRECTION('',(-0.,-0.,-1.));
#928 = DIRECTION('',(-0.,-1.,0.));
#929 = ADVANCED_FACE('',(#930),#946,.F.);
#930 = FACE_BOUND('',#931,.T.);
#931 = EDGE_LOOP('',(#932,#933,#939,#940));
#932 = ORIENTED_EDGE('',*,*,#314,.T.);
#933 = ORIENTED_EDGE('',*,*,#934,.T.);
#934 = EDGE_CURVE('',#317,#554,#935,.T.);
#935 = LINE('',#936,#937);
#936 = CARTESIAN_POINT('',(22.45,22.22,-4.6E-02));
#937 = VECTOR('',#938,1.);
#938 = DIRECTION('',(0.,0.,1.));
#939 = ORIENTED_EDGE('',*,*,#551,.F.);
#940 = ORIENTED_EDGE('',*,*,#941,.F.);
#941 = EDGE_CURVE('',#315,#552,#942,.T.);
#942 = LINE('',#943,#944);
#943 = CARTESIAN_POINT('',(22.45,22.82,-4.6E-02));
#944 = VECTOR('',#945,1.);
#945 = DIRECTION('',(0.,0.,1.));
#946 = CYLINDRICAL_SURFACE('',#947,0.3);
#947 = AXIS2_PLACEMENT_3D('',#948,#949,#950);
#948 = CARTESIAN_POINT('',(22.45,22.52,-4.6E-02));
#949 = DIRECTION('',(-0.,-0.,-1.));
#950 = DIRECTION('',(-0.,-1.,0.));
#951 = ADVANCED_FACE('',(#952),#963,.T.);
#952 = FACE_BOUND('',#953,.T.);
#953 = EDGE_LOOP('',(#954,#955,#956,#957));
#954 = ORIENTED_EDGE('',*,*,#342,.T.);
#955 = ORIENTED_EDGE('',*,*,#941,.T.);
#956 = ORIENTED_EDGE('',*,*,#579,.F.);
#957 = ORIENTED_EDGE('',*,*,#958,.F.);
#958 = EDGE_CURVE('',#334,#571,#959,.T.);
#959 = LINE('',#960,#961);
#960 = CARTESIAN_POINT('',(21.85,22.82,-4.6E-02));
#961 = VECTOR('',#962,1.);
#962 = DIRECTION('',(0.,0.,1.));
#963 = PLANE('',#964);
#964 = AXIS2_PLACEMENT_3D('',#965,#966,#967);
#965 = CARTESIAN_POINT('',(22.45,22.82,-4.6E-02));
#966 = DIRECTION('',(0.,-1.,0.));
#967 = DIRECTION('',(-1.,0.,0.));
#968 = ADVANCED_FACE('',(#969),#980,.F.);
#969 = FACE_BOUND('',#970,.T.);
#970 = EDGE_LOOP('',(#971,#972,#973,#974));
#971 = ORIENTED_EDGE('',*,*,#333,.T.);
#972 = ORIENTED_EDGE('',*,*,#958,.T.);
#973 = ORIENTED_EDGE('',*,*,#570,.F.);
#974 = ORIENTED_EDGE('',*,*,#975,.F.);
#975 = EDGE_CURVE('',#326,#563,#976,.T.);
#976 = LINE('',#977,#978);
#977 = CARTESIAN_POINT('',(21.85,22.22,-4.6E-02));
#978 = VECTOR('',#979,1.);
#979 = DIRECTION('',(0.,0.,1.));
#980 = CYLINDRICAL_SURFACE('',#981,0.3);
#981 = AXIS2_PLACEMENT_3D('',#982,#983,#984);
#982 = CARTESIAN_POINT('',(21.85,22.52,-4.6E-02));
#983 = DIRECTION('',(-0.,-0.,-1.));
#984 = DIRECTION('',(-1.184237892933E-14,1.,0.));
#985 = ADVANCED_FACE('',(#986),#992,.T.);
#986 = FACE_BOUND('',#987,.T.);
#987 = EDGE_LOOP('',(#988,#989,#990,#991));
#988 = ORIENTED_EDGE('',*,*,#325,.T.);
#989 = ORIENTED_EDGE('',*,*,#975,.T.);
#990 = ORIENTED_EDGE('',*,*,#562,.F.);
#991 = ORIENTED_EDGE('',*,*,#934,.F.);
#992 = PLANE('',#993);
#993 = AXIS2_PLACEMENT_3D('',#994,#995,#996);
#994 = CARTESIAN_POINT('',(21.85,22.22,-4.6E-02));
#995 = DIRECTION('',(0.,1.,0.));
#996 = DIRECTION('',(1.,0.,0.));
#997 = ADVANCED_FACE('',(#998),#1009,.F.);
#998 = FACE_BOUND('',#999,.T.);
#999 = EDGE_LOOP('',(#1000,#1001,#1007,#1008));
#1000 = ORIENTED_EDGE('',*,*,#350,.T.);
#1001 = ORIENTED_EDGE('',*,*,#1002,.T.);
#1002 = EDGE_CURVE('',#351,#588,#1003,.T.);
#1003 = LINE('',#1004,#1005);
#1004 = CARTESIAN_POINT('',(4.5,28.93,-4.6E-02));
#1005 = VECTOR('',#1006,1.);
#1006 = DIRECTION('',(0.,0.,1.));
#1007 = ORIENTED_EDGE('',*,*,#587,.F.);
#1008 = ORIENTED_EDGE('',*,*,#1002,.F.);
#1009 = CYLINDRICAL_SURFACE('',#1010,0.5);
#1010 = AXIS2_PLACEMENT_3D('',#1011,#1012,#1013);
#1011 = CARTESIAN_POINT('',(4.5,29.43,-4.6E-02));
#1012 = DIRECTION('',(-0.,-0.,-1.));
#1013 = DIRECTION('',(-0.,-1.,0.));
#1014 = ADVANCED_FACE('',(#1015),#1026,.F.);
#1015 = FACE_BOUND('',#1016,.T.);
#1016 = EDGE_LOOP('',(#1017,#1018,#1024,#1025));
#1017 = ORIENTED_EDGE('',*,*,#361,.T.);
#1018 = ORIENTED_EDGE('',*,*,#1019,.T.);
#1019 = EDGE_CURVE('',#362,#599,#1020,.T.);
#1020 = LINE('',#1021,#1022);
#1021 = CARTESIAN_POINT('',(4.5,31.47,-4.6E-02));
#1022 = VECTOR('',#1023,1.);
#1023 = DIRECTION('',(0.,0.,1.));
#1024 = ORIENTED_EDGE('',*,*,#598,.F.);
#1025 = ORIENTED_EDGE('',*,*,#1019,.F.);
#1026 = CYLINDRICAL_SURFACE('',#1027,0.5);
#1027 = AXIS2_PLACEMENT_3D('',#1028,#1029,#1030);
#1028 = CARTESIAN_POINT('',(4.5,31.97,-4.6E-02));
#1029 = DIRECTION('',(-0.,-0.,-1.));
#1030 = DIRECTION('',(-0.,-1.,0.));
#1031 = ( GEOMETRIC_REPRESENTATION_CONTEXT(3)
GLOBAL_UNCERTAINTY_ASSIGNED_CONTEXT((#1035))
GLOBAL_UNIT_ASSIGNED_CONTEXT((#1032,#1033,#1034)) REPRESENTATION_CONTEXT
('Context #1','3D Context with UNIT and UNCERTAINTY') );
#1032 = ( LENGTH_UNIT() NAMED_UNIT(*) SI_UNIT(.MILLI.,.METRE.) );
#1033 = ( NAMED_UNIT(*) PLANE_ANGLE_UNIT() SI_UNIT($,.RADIAN.) );
#1034 = ( NAMED_UNIT(*) SI_UNIT($,.STERADIAN.) SOLID_ANGLE_UNIT() );
#1035 = UNCERTAINTY_MEASURE_WITH_UNIT(LENGTH_MEASURE(1.E-07),#1032,
  'distance_accuracy_value','confusion accuracy');
#1036 = CONTEXT_DEPENDENT_SHAPE_REPRESENTATION(#1037,#1039);
#1037 = ( REPRESENTATION_RELATIONSHIP('','',#32,#10)
REPRESENTATION_RELATIONSHIP_WITH_TRANSFORMATION(#1038)
SHAPE_REPRESENTATION_RELATIONSHIP() );
#1038 = ITEM_DEFINED_TRANSFORMATION('','',#11,#15);
#1039 = PRODUCT_DEFINITION_SHAPE('Placement','Placement of an item',
  #1040);
#1040 = NEXT_ASSEMBLY_USAGE_OCCURRENCE('1','=>[0:1:1:2]','',#5,#27,$);
#1041 = PRODUCT_RELATED_PRODUCT_CATEGORY('part',$,(#29));
#1042 = MECHANICAL_DESIGN_GEOMETRIC_PRESENTATION_REPRESENTATION('',(
    #1043),#1031);
#1043 = STYLED_ITEM('color',(#1044),#33);
#1044 = PRESENTATION_STYLE_ASSIGNMENT((#1045));
#1045 = SURFACE_STYLE_USAGE(.BOTH.,#1046);
#1046 = SURFACE_SIDE_STYLE('',(#1047));
#1047 = SURFACE_STYLE_FILL_AREA(#1048);
#1048 = FILL_AREA_STYLE('',(#1049));
#1049 = FILL_AREA_STYLE_COLOUR('',#1050);
#1050 = COLOUR_RGB('',0.313304153717,0.484529207832,0.410020903123);
ENDSEC;
END-ISO-10303-21;
